<svg xmlns="http://www.w3.org/2000/svg" width="419.028" height="309" viewBox="0 0 419.028 309">
  <g id="_1" data-name="1" transform="translate(0 -55)">
    <g id="freepik--background-complete--inject-149" transform="translate(0 55)">
      <rect id="Rectangle_14479" data-name="Rectangle 14479" width="27.756" height="0.21" transform="translate(349.285 287.864)" fill="#ebebeb"/>
      <rect id="Rectangle_14480" data-name="Rectangle 14480" width="7.283" height="0.21" transform="translate(270.299 290.144)" fill="#ebebeb"/>
      <rect id="Rectangle_14481" data-name="Rectangle 14481" width="16.082" height="0.21" transform="translate(332.365 280.087)" fill="#ebebeb"/>
      <rect id="Rectangle_14482" data-name="Rectangle 14482" width="36.196" height="0.21" transform="translate(43.964 281.495)" fill="#ebebeb"/>
      <rect id="Rectangle_14483" data-name="Rectangle 14483" width="5.305" height="0.21" transform="translate(87.627 281.495)" fill="#ebebeb"/>
      <rect id="Rectangle_14484" data-name="Rectangle 14484" width="78.509" height="0.21" transform="translate(110.179 285.032)" fill="#ebebeb"/>
      <path id="Path_69085" data-name="Path 69085" d="M204.807,292H43a4.785,4.785,0,0,1-4.785-4.785V59.743A4.785,4.785,0,0,1,43,55H204.807a4.785,4.785,0,0,1,4.785,4.785V287.217A4.785,4.785,0,0,1,204.807,292ZM43,55.168a4.584,4.584,0,0,0-4.576,4.576V287.217A4.584,4.584,0,0,0,43,291.793H204.807a4.584,4.584,0,0,0,4.576-4.576V59.743a4.584,4.584,0,0,0-4.576-4.576Z" transform="translate(-6.188 -55)" fill="#ebebeb"/>
      <path id="Path_69086" data-name="Path 69086" d="M421.114,292H259.285a4.794,4.794,0,0,1-4.785-4.785V59.743A4.794,4.794,0,0,1,259.285,55H421.114a4.785,4.785,0,0,1,4.769,4.743V287.217A4.785,4.785,0,0,1,421.114,292ZM259.285,55.168a4.584,4.584,0,0,0-4.576,4.576V287.217a4.584,4.584,0,0,0,4.576,4.576H421.114a4.584,4.584,0,0,0,4.576-4.576V59.743a4.584,4.584,0,0,0-4.576-4.576Z" transform="translate(-41.215 -55)" fill="#ebebeb"/>
      <rect id="Rectangle_14485" data-name="Rectangle 14485" width="419.028" height="0.21" transform="translate(0 274.38)" fill="#ebebeb"/>
      <path id="Path_69087" data-name="Path 69087" d="M226.41,375.948l45.867-31.008a16.333,16.333,0,0,1,16.987,0l45.867,31.008Z" transform="translate(-36.666 -101.568)" fill="#f5f5f5"/>
      <path id="Path_69088" data-name="Path 69088" d="M299.073,344.895a16.032,16.032,0,0,0-10.777-2.238c-1.676,4.408-2.808,10.836,3.461,13.845,10.057,4.81-2.4,9.755-2.4,14.591a9.076,9.076,0,0,0,1.919,4.844h53.636Z" transform="translate(-46.474 -101.557)" fill="#ebebeb"/>
      <path id="Path_69089" data-name="Path 69089" d="M30.79,372.287,76.657,323.68a11.54,11.54,0,0,1,16.987,0l45.867,48.607Z" transform="translate(-4.986 -97.907)" fill="#f5f5f5"/>
      <path id="Path_69090" data-name="Path 69090" d="M103.453,323.691A11.582,11.582,0,0,0,92.675,320.2c-1.676,6.9-2.816,16.962,3.461,21.664,10.057,7.543-2.4,15.269-2.4,22.845a19.426,19.426,0,0,0,1.919,7.543h53.636Z" transform="translate(-14.795 -97.91)" fill="#ebebeb"/>
      <path id="Path_69091" data-name="Path 69091" d="M129.67,376.99l24.086-25.519a6.059,6.059,0,0,1,8.925,0l24.077,25.519Z" transform="translate(-20.999 -102.694)" fill="#f0f0f0"/>
      <path id="Path_69092" data-name="Path 69092" d="M167.83,351.472a6.068,6.068,0,0,0-5.665-1.835c-.9,3.62-1.475,8.909,1.819,11.372,5.28,3.956-1.257,8.02-1.257,12a10.191,10.191,0,0,0,1.006,3.981h28.175Z" transform="translate(-26.148 -102.695)" fill="#e0e0e0"/>
      <path id="Path_69093" data-name="Path 69093" d="M399.28,376.99l24.069-25.519a6.051,6.051,0,0,1,8.917,0l24.1,25.519Z" transform="translate(-64.661 -102.694)" fill="#f0f0f0"/>
      <path id="Path_69094" data-name="Path 69094" d="M437.432,351.472a6.043,6.043,0,0,0-5.657-1.835c-.9,3.62-1.475,8.909,1.819,11.372,5.271,3.956-1.257,8.02-1.257,12a10.192,10.192,0,0,0,1.006,3.981h28.175Z" transform="translate(-69.81 -102.695)" fill="#e0e0e0"/>
      <path id="Path_69095" data-name="Path 69095" d="M184.79,371.2l24.077-53.326c2.464-5.456,6.461-5.456,8.925,0L241.87,371.2Z" transform="translate(-29.925 -96.909)" fill="#fafafa"/>
      <path id="Path_69096" data-name="Path 69096" d="M222.941,317.88c-1.542-3.4-3.671-4.685-5.657-3.838-.905,7.543-1.483,18.613,1.81,23.776,5.28,8.263-1.257,16.761-1.257,25.066a41.131,41.131,0,0,0,1.014,8.322h28.167Z" transform="translate(-35.073 -96.909)" fill="#f0f0f0"/>
      <path id="Path_69097" data-name="Path 69097" d="M351.33,371.2l24.086-53.326c2.464-5.456,6.453-5.456,8.917,0L408.418,371.2Z" transform="translate(-56.895 -96.909)" fill="#fafafa"/>
      <path id="Path_69098" data-name="Path 69098" d="M389.482,317.88c-1.534-3.4-3.671-4.685-5.657-3.838-.9,7.543-1.475,18.613,1.819,23.776,5.271,8.263-1.257,16.761-1.257,25.066a41.116,41.116,0,0,0,1.006,8.322h28.175Z" transform="translate(-62.045 -96.909)" fill="#e0e0e0"/>
      <path id="Path_69099" data-name="Path 69099" d="M31.94,373.6l18.881-41.811c1.936-4.274,5.028-4.274,7,0L76.7,373.6Z" transform="translate(-5.172 -99.305)" fill="#fafafa"/>
      <path id="Path_69100" data-name="Path 69100" d="M61.856,331.791c-1.207-2.665-2.883-3.671-4.442-3.009-.7,5.933-1.157,14.591,1.425,18.638,4.14,6.478-.981,13.141-.981,19.661a32.3,32.3,0,0,0,.8,6.52H80.737Z" transform="translate(-9.209 -99.305)" fill="#f0f0f0"/>
      <path id="Path_69101" data-name="Path 69101" d="M240.565,247.594c-4.45,1.752-.771-13.66-13.719-13.325s-14.1,11-14.1,11-9.219-7.668-16.166-2.665-2.824,7-8.582,7-12.722,0-13.736,3.352,85.3,4.316,85.3,0-4.333-3.352-7-3.352S251.561,243.261,240.565,247.594Z" transform="translate(-28.218 -84.031)" fill="#f5f5f5"/>
      <path id="Path_69102" data-name="Path 69102" d="M157.376,88.679c7.459,2.942,1.282-22.9,22.988-22.351s23.658,18.437,23.658,18.437,15.378-12.847,27.1-4.467,4.735,11.733,14.381,11.733,21.329,0,23.03,5.565-143.006,7.241-143.006,0,7.266-5.565,11.733-5.565S138.939,81.413,157.376,88.679Z" transform="translate(-20.329 -56.833)" fill="#f0f0f0"/>
      <path id="Path_69103" data-name="Path 69103" d="M76.1,200.782c4.45,1.752.771-13.669,13.711-13.333s14.146,11,14.146,11,9.168-7.66,16.166-2.665,2.824,7,8.573,7,12.73,0,13.736,3.352-85.289,4.316-85.289,0,4.333-3.352,7-3.352S65.1,196.45,76.1,200.782Z" transform="translate(-9.253 -76.448)" fill="#f0f0f0"/>
      <path id="Path_69104" data-name="Path 69104" d="M416.7,178.424c-4.45,1.752-.771-13.66-13.711-13.325s-14.113,11-14.113,11-9.168-7.685-16.191-2.7-2.824,7-8.573,7-12.73,0-13.736,3.352,85.289,4.316,85.289,0-4.333-3.352-7-3.352S427.7,174.075,416.7,178.424Z" transform="translate(-56.74 -72.829)" fill="#f5f5f5"/>
      <path id="Path_69105" data-name="Path 69105" d="M334.156,329.953,314.47,298.819c-.444-.7-.117-1.936.5-1.936h17.96l-18.437-29.2c-.444-.7-.117-1.936.5-1.936h17.96q-9.219-14.591-18.437-29.2c-.444-.7-.117-1.936.5-1.936h17.96l-18.437-29.2c-.444-.7-.117-1.936.5-1.936h17.96l-18.437-29.2c-.444-.687-.117-1.928.5-1.928h17.96L314.6,143.15c-.444-.687-.117-1.928.5-1.928h17.96l-18.437-29.2c-.654-1.039.36-2.64,1.014-1.609l19.678,31.134h0a1.475,1.475,0,0,1,.126,1.207c-.092.377-.293.67-.612.687H316.666l18.437,29.2h0a1.475,1.475,0,0,1,.126,1.207c-.092.377-.293.67-.612.687H316.666l18.437,29.2h0a1.475,1.475,0,0,1,.126,1.207c-.092.377-.293.67-.612.687H316.666l18.437,29.2h0a1.466,1.466,0,0,1,.126,1.207c-.092.377-.293.67-.612.687H316.666l18.437,29.2h0a1.466,1.466,0,0,1,.126,1.207c-.092.369-.293.67-.612.687H316.666l18.437,29.2h0a1.466,1.466,0,0,1,.126,1.207c-.092.369-.293.67-.612.687H316.666L335.1,328.1C335.774,329.383,334.768,330.984,334.156,329.953Z" transform="translate(-50.893 -63.92)" fill="#e0e0e0"/>
      <path id="Path_69106" data-name="Path 69106" d="M334.539,330.759a.838.838,0,0,0,.729-.461h0a.358.358,0,0,0,0-.059,2.07,2.07,0,0,0,.285-1.148V111.2c0-.922-.494-1.676-1.073-1.676H314.853c-.578,0-1.073.779-1.073,1.676V329.091c0,.922.494,1.676,1.073,1.676Zm-1.073-3.4H315.925V112.814h17.541Z" transform="translate(-50.814 -63.829)" fill="#e0e0e0"/>
      <path id="Path_69107" data-name="Path 69107" d="M315.434,329.953l19.678-31.134c.444-.7.117-1.936-.5-1.936H316.657l18.437-29.2c.444-.7.117-1.936-.5-1.936H316.657l18.437-29.2c.444-.7.117-1.936-.5-1.936H316.657l18.437-29.2c.444-.7.117-1.936-.5-1.936H316.657l18.437-29.2c.444-.687.117-1.928-.5-1.928H316.657l18.437-29.206c.444-.687.117-1.928-.5-1.928H316.657l18.437-29.2c.654-1.039-.352-2.64-1.006-1.609L314.4,141.55h0a1.5,1.5,0,0,0-.117,1.207c.084.377.285.67.6.687h17.993l-18.437,29.2h0a1.5,1.5,0,0,0-.117,1.207c.084.377.285.67.6.687h17.993q-9.219,14.591-18.437,29.2h0a1.5,1.5,0,0,0-.117,1.207c.084.377.285.67.6.687h17.993q-9.219,14.591-18.437,29.2h0a1.534,1.534,0,0,0-.126,1.207c.092.377.293.67.612.687h17.993l-18.437,29.2h0a1.534,1.534,0,0,0-.126,1.207c.092.369.293.67.612.687h17.993q-9.219,14.591-18.437,29.2h0a1.5,1.5,0,0,0-.117,1.207c.084.369.285.67.6.687h17.993l-18.437,29.2C313.766,329.383,314.78,330.984,315.434,329.953Z" transform="translate(-50.884 -63.92)" fill="#f0f0f0"/>
      <path id="Path_69108" data-name="Path 69108" d="M334.538,330.757c.578,0,1.073-.779,1.073-1.676V111.186c0-.922-.486-1.676-1.073-1.676H314.852c-.578,0-1.073.779-1.073,1.676V329.081a2.137,2.137,0,0,0,.285,1.148.362.362,0,0,0,0,.059h0a.838.838,0,0,0,.729.461Zm-18.613-75.383V112.829h17.541V327.371H315.925Z" transform="translate(-50.814 -63.828)" fill="#f0f0f0"/>
      <rect id="Rectangle_14486" data-name="Rectangle 14486" width="113.951" height="6.579" transform="translate(176.386 267.801)" fill="#e0e0e0"/>
      <rect id="Rectangle_14487" data-name="Rectangle 14487" width="118.728" height="3.88" transform="translate(171.601 264.692)" fill="#e6e6e6"/>
    </g>
    <g id="freepik--Shadow--inject-149" transform="translate(47.023 345.026)">
      <ellipse id="freepik--path--inject-149" cx="162.491" cy="9.487" rx="162.491" ry="9.487" fill="#f5f5f5"/>
    </g>
    <g id="freepik--Rocket--inject-149" transform="translate(131.155 115.717)">
      <path id="Path_69109" data-name="Path 69109" d="M253.873,340.45l4.71,21.613-4.71-10.8,1.793,26.206-5.674-23.985v37.3l-4.383-33.749-4.358,30.2-.075-34.344-4,22.8V351.705l-7.249,15.4,7.249-26.65Z" transform="translate(-168.391 -161.944)" fill="#ba6dd7"/>
      <path id="Path_69110" data-name="Path 69110" d="M241.941,340.45l-3.361,19.158V340.45Z" transform="translate(-169.791 -161.944)" fill="#fff" opacity="0.5"/>
      <path id="Path_69111" data-name="Path 69111" d="M243.427,371.156l-.067-30.706h8.808V374.7l-4.383-33.749Z" transform="translate(-170.566 -161.944)" fill="#fff" opacity="0.8"/>
      <path id="Path_69112" data-name="Path 69112" d="M254.73,340.45h3.159l.528,2.422.779,11.389-1.307-3,.243,3.545Z" transform="translate(-172.407 -161.944)" fill="#fff" opacity="0.3"/>
      <path id="Path_69113" data-name="Path 69113" d="M278.959,335.61l-2.539,11.624,2.539-5.808-.972,14.088,3.059-12.9v20.063l2.355-18.152,2.338,16.242.042-18.471,2.154,12.261v-12.9l3.9,8.28-3.9-14.331Z" transform="translate(-175.919 -161.16)" fill="#ba6dd7"/>
      <path id="Path_69114" data-name="Path 69114" d="M288,335.61l1.81,10.3v-10.3Z" transform="translate(-177.795 -161.16)" fill="#fff" opacity="0.5"/>
      <path id="Path_69115" data-name="Path 69115" d="M286.633,352.12l.034-16.51H281.94V354.03l2.355-18.152Z" transform="translate(-176.813 -161.16)" fill="#fff" opacity="0.2"/>
      <path id="Path_69116" data-name="Path 69116" d="M281.007,335.61h-1.693l-.285,1.307-.419,6.126.7-1.617-.134,1.9Z" transform="translate(-176.274 -161.16)" fill="#fff" opacity="0.3"/>
      <path id="Path_69117" data-name="Path 69117" d="M204.8,335.61l-2.531,11.624,2.531-5.808-.964,14.088,3.051-12.9v20.063l2.355-18.152,2.338,16.242.042-18.471,2.154,12.261v-12.9l3.9,8.28-3.9-14.331Z" transform="translate(-163.911 -161.16)" fill="#ba6dd7"/>
      <path id="Path_69118" data-name="Path 69118" d="M213.84,335.61l1.81,10.3v-10.3Z" transform="translate(-165.785 -161.16)" fill="#fff" opacity="0.5"/>
      <path id="Path_69119" data-name="Path 69119" d="M212.473,352.12l.042-16.51H207.78V354.03l2.355-18.152Z" transform="translate(-164.804 -161.16)" fill="#fff" opacity="0.2"/>
      <path id="Path_69120" data-name="Path 69120" d="M206.847,335.61h-1.693l-.285,1.307-.419,6.126.7-1.617-.134,1.9Z" transform="translate(-164.264 -161.16)" fill="#fff" opacity="0.3"/>
      <path id="Path_69121" data-name="Path 69121" d="M291.046,297.307,238.81,204.434a2.112,2.112,0,0,0-3.671,0l-52.261,92.873a2.112,2.112,0,0,0,1.835,3.143H289.228a2.112,2.112,0,0,0,1.819-3.143Z" transform="translate(-160.727 -139.744)" fill="#ba6dd7"/>
      <path id="Path_69122" data-name="Path 69122" d="M291.046,297.307,238.81,204.434a2.112,2.112,0,0,0-3.671,0l-52.261,92.873a2.112,2.112,0,0,0,1.835,3.143H289.228a2.112,2.112,0,0,0,1.819-3.143Z" transform="translate(-160.727 -139.744)" opacity="0.3"/>
      <path id="Path_69123" data-name="Path 69123" d="M277.13,333.757l2.514-10.417h9.143l2.514,10.417A18.538,18.538,0,0,1,277.13,333.757Z" transform="translate(-176.034 -159.173)" fill="#263238"/>
      <path id="Path_69124" data-name="Path 69124" d="M289.2,323.34s.377,1.559.587,2.439a18.513,18.513,0,0,1-10.333,0l.6-2.439Z" transform="translate(-176.41 -159.173)" fill="#fff" opacity="0.2"/>
      <path id="Path_69125" data-name="Path 69125" d="M290.2,329.37c.168.662.327,1.324.478,1.953a21.119,21.119,0,0,1-12.571,0l.478-1.953a29.884,29.884,0,0,0,11.615,0Z" transform="translate(-176.193 -160.15)" fill="#fff" opacity="0.4"/>
      <path id="Path_69126" data-name="Path 69126" d="M274.09,303a25.142,25.142,0,0,0,19.317,0V225.633a32.877,32.877,0,0,0-9.654-23.323,32.852,32.852,0,0,0-9.663,23.323Z" transform="translate(-175.542 -139.573)" fill="#ba6dd7"/>
      <path id="Path_69127" data-name="Path 69127" d="M293.407,225.633v72.911a29.458,29.458,0,0,1-19.317,0V225.633a32.852,32.852,0,0,1,9.663-23.323,32.877,32.877,0,0,1,9.654,23.323Z" transform="translate(-175.542 -139.573)" fill="#ba6dd7"/>
      <path id="Path_69128" data-name="Path 69128" d="M293.407,225.633v72.911a29.458,29.458,0,0,1-19.317,0V225.633a32.852,32.852,0,0,1,9.663-23.323,32.877,32.877,0,0,1,9.654,23.323Z" transform="translate(-175.542 -139.573)" fill="#fff" opacity="0.4"/>
      <path id="Path_69129" data-name="Path 69129" d="M293.407,225.633v54.775a35.2,35.2,0,0,1-19.317,0V225.633a32.852,32.852,0,0,1,9.663-23.323,32.877,32.877,0,0,1,9.654,23.323Z" transform="translate(-175.542 -139.573)" fill="#ba6dd7"/>
      <path id="Path_69130" data-name="Path 69130" d="M293.407,225.633v54.775a35.2,35.2,0,0,1-19.317,0V225.633a32.852,32.852,0,0,1,9.663-23.323,32.877,32.877,0,0,1,9.654,23.323Z" transform="translate(-175.542 -139.573)" fill="#fff" opacity="0.6"/>
      <path id="Path_69131" data-name="Path 69131" d="M293.407,225.633v28.678a35.106,35.106,0,0,1-19.317,0V225.633a32.852,32.852,0,0,1,9.663-23.323,32.877,32.877,0,0,1,9.654,23.323Z" transform="translate(-175.542 -139.573)" fill="#ba6dd7"/>
      <path id="Path_69132" data-name="Path 69132" d="M293.407,225.633v28.678a35.106,35.106,0,0,1-19.317,0V225.633a32.852,32.852,0,0,1,9.663-23.323,32.877,32.877,0,0,1,9.654,23.323Z" transform="translate(-175.542 -139.573)" fill="#fff" opacity="0.8"/>
      <path id="Path_69133" data-name="Path 69133" d="M293.407,225.633v3.352a35.031,35.031,0,0,1-19.317,0v-3.352a32.852,32.852,0,0,1,9.663-23.323,32.877,32.877,0,0,1,9.654,23.323Z" transform="translate(-175.542 -139.573)" fill="#ba6dd7"/>
      <path id="Path_69134" data-name="Path 69134" d="M293.407,225.633v3.352a35.031,35.031,0,0,1-19.317,0v-3.352a32.852,32.852,0,0,1,9.663-23.323,32.877,32.877,0,0,1,9.654,23.323Z" transform="translate(-175.542 -139.573)" fill="#fff" opacity="0.4"/>
      <path id="Path_69135" data-name="Path 69135" d="M203,333.757l2.514-10.417h9.152l2.514,10.417a18.563,18.563,0,0,1-14.18,0Z" transform="translate(-164.03 -159.173)" fill="#263238"/>
      <path id="Path_69136" data-name="Path 69136" d="M215.037,323.34s.377,1.559.6,2.439a18.545,18.545,0,0,1-10.342,0l.6-2.439Z" transform="translate(-164.4 -159.173)" fill="#fff" opacity="0.2"/>
      <path id="Path_69137" data-name="Path 69137" d="M216.053,329.37c.159.662.318,1.324.478,1.953a21.153,21.153,0,0,1-12.571,0l.478-1.953A29.927,29.927,0,0,0,216.053,329.37Z" transform="translate(-164.185 -160.15)" fill="#fff" opacity="0.4"/>
      <path id="Path_69138" data-name="Path 69138" d="M199.93,303a25.192,25.192,0,0,0,19.326,0V225.633a32.885,32.885,0,0,0-9.663-23.323,32.885,32.885,0,0,0-9.663,23.323Z" transform="translate(-163.532 -139.573)" fill="#ba6dd7"/>
      <path id="Path_69139" data-name="Path 69139" d="M219.266,225.633v72.911a29.483,29.483,0,0,1-19.326,0V225.633A32.885,32.885,0,0,1,209.6,202.31a32.885,32.885,0,0,1,9.663,23.323Z" transform="translate(-163.534 -139.573)" fill="#ba6dd7"/>
      <path id="Path_69140" data-name="Path 69140" d="M219.266,225.633v72.911a29.483,29.483,0,0,1-19.326,0V225.633A32.885,32.885,0,0,1,209.6,202.31a32.885,32.885,0,0,1,9.663,23.323Z" transform="translate(-163.534 -139.573)" fill="#fff" opacity="0.4"/>
      <path id="Path_69141" data-name="Path 69141" d="M219.266,225.633v54.775a35.2,35.2,0,0,1-19.326,0V225.633A32.885,32.885,0,0,1,209.6,202.31a32.885,32.885,0,0,1,9.663,23.323Z" transform="translate(-163.534 -139.573)" fill="#ba6dd7"/>
      <path id="Path_69142" data-name="Path 69142" d="M219.266,225.633v54.775a35.2,35.2,0,0,1-19.326,0V225.633A32.885,32.885,0,0,1,209.6,202.31a32.885,32.885,0,0,1,9.663,23.323Z" transform="translate(-163.534 -139.573)" fill="#fff" opacity="0.6"/>
      <path id="Path_69143" data-name="Path 69143" d="M219.266,225.633v28.678a35.14,35.14,0,0,1-19.326,0V225.633A32.885,32.885,0,0,1,209.6,202.31a32.885,32.885,0,0,1,9.663,23.323Z" transform="translate(-163.534 -139.573)" fill="#ba6dd7"/>
      <path id="Path_69144" data-name="Path 69144" d="M219.266,225.633v28.678a35.14,35.14,0,0,1-19.326,0V225.633A32.885,32.885,0,0,1,209.6,202.31a32.885,32.885,0,0,1,9.663,23.323Z" transform="translate(-163.534 -139.573)" fill="#fff" opacity="0.8"/>
      <path id="Path_69145" data-name="Path 69145" d="M219.266,225.633v3.352a35.064,35.064,0,0,1-19.326,0v-3.352A32.885,32.885,0,0,1,209.6,202.31a32.885,32.885,0,0,1,9.663,23.323Z" transform="translate(-163.534 -139.573)" fill="#ba6dd7"/>
      <path id="Path_69146" data-name="Path 69146" d="M219.266,225.633v3.352a35.064,35.064,0,0,1-19.326,0v-3.352A32.885,32.885,0,0,1,209.6,202.31a32.885,32.885,0,0,1,9.663,23.323Z" transform="translate(-163.534 -139.573)" fill="#fff" opacity="0.4"/>
      <path id="Path_69147" data-name="Path 69147" d="M234.84,339.651l4.1-16.811H253.7l4.1,16.811a29.868,29.868,0,0,1-22.963,0Z" transform="translate(-169.186 -159.092)" fill="#263238"/>
      <path id="Path_69148" data-name="Path 69148" d="M254.31,322.84l.955,3.939a29.885,29.885,0,0,1-16.686,0l.964-3.939Z" transform="translate(-169.791 -159.092)" fill="#fff" opacity="0.2"/>
      <path id="Path_69149" data-name="Path 69149" d="M255.95,332.58l.771,3.159a34.15,34.15,0,0,1-20.281,0l.763-3.151A48.489,48.489,0,0,0,255.95,332.58Z" transform="translate(-169.445 -160.669)" fill="#fff" opacity="0.4"/>
      <path id="Path_69150" data-name="Path 69150" d="M229.93,290.014a40.637,40.637,0,0,0,31.192,0V165.144a53.091,53.091,0,0,0-15.6-37.654,53.091,53.091,0,0,0-15.6,37.654Z" transform="translate(-168.391 -127.456)" fill="#ba6dd7"/>
      <path id="Path_69151" data-name="Path 69151" d="M261.122,165.1V282.851a47.652,47.652,0,0,1-31.192,0V165.1a53.091,53.091,0,0,1,15.6-37.654,53.091,53.091,0,0,1,15.6,37.654Z" transform="translate(-168.391 -127.45)" fill="#ba6dd7"/>
      <path id="Path_69152" data-name="Path 69152" d="M261.122,165.1V282.851a47.652,47.652,0,0,1-31.192,0V165.1a53.091,53.091,0,0,1,15.6-37.654,53.091,53.091,0,0,1,15.6,37.654Z" transform="translate(-168.391 -127.45)" fill="#fff" opacity="0.4"/>
      <path id="Path_69153" data-name="Path 69153" d="M261.122,165.1v88.423a56.686,56.686,0,0,1-31.192,0V165.1a53.091,53.091,0,0,1,15.6-37.654,53.091,53.091,0,0,1,15.6,37.654Z" transform="translate(-168.391 -127.45)" fill="#ba6dd7"/>
      <path id="Path_69154" data-name="Path 69154" d="M261.122,165.1v88.423a56.686,56.686,0,0,1-31.192,0V165.1a53.091,53.091,0,0,1,15.6-37.654,53.091,53.091,0,0,1,15.6,37.654Z" transform="translate(-168.391 -127.45)" fill="#fff" opacity="0.6"/>
      <path id="Path_69155" data-name="Path 69155" d="M261.122,165.1v46.3a56.686,56.686,0,0,1-31.192,0V165.1a53.091,53.091,0,0,1,15.6-37.654,53.091,53.091,0,0,1,15.6,37.654Z" transform="translate(-168.391 -127.45)" fill="#ba6dd7"/>
      <path id="Path_69156" data-name="Path 69156" d="M261.122,165.1v46.3a56.686,56.686,0,0,1-31.192,0V165.1a53.091,53.091,0,0,1,15.6-37.654,53.091,53.091,0,0,1,15.6,37.654Z" transform="translate(-168.391 -127.45)" fill="#fff" opacity="0.8"/>
      <path id="Path_69157" data-name="Path 69157" d="M261.122,165.1v5.405a56.77,56.77,0,0,1-31.192,0V165.1a53.091,53.091,0,0,1,15.6-37.654,53.091,53.091,0,0,1,15.6,37.654Z" transform="translate(-168.391 -127.45)" fill="#ba6dd7"/>
      <path id="Path_69158" data-name="Path 69158" d="M261.122,165.1v5.405a56.77,56.77,0,0,1-31.192,0V165.1a53.091,53.091,0,0,1,15.6-37.654,53.091,53.091,0,0,1,15.6,37.654Z" transform="translate(-168.391 -127.45)" fill="#fff" opacity="0.1"/>
      <circle id="Ellipse_1368" data-name="Ellipse 1368" cx="9.085" cy="9.085" r="9.085" transform="translate(68.051 53.56)" fill="#ba6dd7"/>
      <path id="Path_69159" data-name="Path 69159" d="M246.778,211.38A9.077,9.077,0,0,0,255.829,203c0,.228,0,.462,0,.689a9.085,9.085,0,0,1-18.169,0V203A9.076,9.076,0,0,0,246.778,211.38Z" transform="translate(-169.642 -139.685)" fill="#ba6dd7"/>
      <path id="Path_69160" data-name="Path 69160" d="M246.778,211.38A9.077,9.077,0,0,0,255.829,203c0,.228,0,.462,0,.689a9.085,9.085,0,0,1-18.169,0V203A9.076,9.076,0,0,0,246.778,211.38Z" transform="translate(-169.642 -139.685)" opacity="0.3"/>
      <circle id="Ellipse_1369" data-name="Ellipse 1369" cx="6.42" cy="6.42" r="6.42" transform="translate(70.716 56.225)" fill="#fff"/>
      <path id="Path_69161" data-name="Path 69161" d="M248.432,207.347l-2.631-12.37a6.26,6.26,0,0,1,2.137-.427l2.623,12.336A6.445,6.445,0,0,1,248.432,207.347Z" transform="translate(-170.961 -138.316)" fill="#ba6dd7"/>
      <path id="Path_69162" data-name="Path 69162" d="M245.638,207.2l-2.288-10.761a7.372,7.372,0,0,1,.955-.729l2.514,11.733A6.136,6.136,0,0,1,245.638,207.2Z" transform="translate(-170.564 -138.504)" fill="#ba6dd7"/>
      <g id="Group_1960" data-name="Group 1960" transform="translate(72.786 56.234)" opacity="0.7">
        <path id="Path_69163" data-name="Path 69163" d="M248.432,207.347l-2.631-12.37a6.26,6.26,0,0,1,2.137-.427l2.623,12.336A6.445,6.445,0,0,1,248.432,207.347Z" transform="translate(-243.747 -194.55)" fill="#fff"/>
        <path id="Path_69164" data-name="Path 69164" d="M245.638,207.2l-2.288-10.761a7.372,7.372,0,0,1,.955-.729l2.514,11.733A6.136,6.136,0,0,1,245.638,207.2Z" transform="translate(-243.35 -194.738)" fill="#fff"/>
      </g>
      <path id="Path_69165" data-name="Path 69165" d="M224.49,382.226s5.028-16.518-4-15.571c0,0-1.257-16.057-11.247-4.14,0,0-6.6-10.56-9.068-1.307,0,0-18.722-11.875-17.926-1.358,0,0-13.325-6.663-14.758-1.282s16.074,10.987,16.074,10.987-14.9-4.978-15.37-3.025S223.66,385.687,224.49,382.226Z" transform="translate(-158.266 -164.382)" fill="#ba6dd7"/>
      <path id="Path_69166" data-name="Path 69166" d="M224.49,382.226s5.028-16.518-4-15.571c0,0-1.257-16.057-11.247-4.14,0,0-6.6-10.56-9.068-1.307,0,0-18.722-11.875-17.926-1.358,0,0-13.325-6.663-14.758-1.282s16.074,10.987,16.074,10.987-14.9-4.978-15.37-3.025S223.66,385.687,224.49,382.226Z" transform="translate(-158.266 -164.382)" fill="#fff" opacity="0.8"/>
      <path id="Path_69167" data-name="Path 69167" d="M259.065,381.89S253.2,362.7,263.716,363.8c0,0,1.458-18.655,13.057-4.81,0,0,7.668-12.269,10.543-1.517,0,0,21.789-13.794,20.834-1.584,0,0,15.487-7.735,17.147-1.483s-18.68,12.772-18.68,12.772,17.323-5.791,17.867-3.528S260.029,385.913,259.065,381.89Z" transform="translate(-172.845 -163.627)" fill="#ba6dd7"/>
      <path id="Path_69168" data-name="Path 69168" d="M259.065,381.89S253.2,362.7,263.716,363.8c0,0,1.458-18.655,13.057-4.81,0,0,7.668-12.269,10.543-1.517,0,0,21.789-13.794,20.834-1.584,0,0,15.487-7.735,17.147-1.483s-18.68,12.772-18.68,12.772,17.323-5.791,17.867-3.528S260.029,385.913,259.065,381.89Z" transform="translate(-172.845 -163.627)" fill="#fff" opacity="0.8"/>
      <path id="Path_69169" data-name="Path 69169" d="M240.379,398.338s-4.676-40,17.256-27.2c0,0,4.584-17.272,16.174-7.249,0,0,18.278-7.207,11.389,13.778,0,0,17.541-12.529,16.912,6.889,0,0,21.3-10.057,19.208,3.972,0,0,13.367-2.087,12.738,3.964s-35.5,3.972-35.5,3.972,14.834,1.467,14.415,3.444c-.218,1.039-19.912-.293-38.727-1.073C257.048,398.12,240.58,401.925,240.379,398.338Z" transform="translate(-170.015 -165.233)" fill="#ba6dd7"/>
      <path id="Path_69170" data-name="Path 69170" d="M240.379,398.338s-4.676-40,17.256-27.2c0,0,4.584-17.272,16.174-7.249,0,0,18.278-7.207,11.389,13.778,0,0,17.541-12.529,16.912,6.889,0,0,21.3-10.057,19.208,3.972,0,0,13.367-2.087,12.738,3.964s-35.5,3.972-35.5,3.972,14.834,1.467,14.415,3.444c-.218,1.039-19.912-.293-38.727-1.073C257.048,398.12,240.58,401.925,240.379,398.338Z" transform="translate(-170.015 -165.233)" fill="#fff" opacity="0.7"/>
      <path id="Path_69171" data-name="Path 69171" d="M239.484,398.363s1.374-23.466-10.275-19.326c0,0-6.805-20.842-16.2-1.886,0,0-12.1-11.858-12.412,1.182,0,0-28.578-9.721-24.161,3.939,0,0-19.77-4.551-19.937,3.025s24.79,9.395,24.79,9.395-21.312-1.819-21.312.913S239.5,403.215,239.484,398.363Z" transform="translate(-156.499 -166.598)" fill="#ba6dd7"/>
      <path id="Path_69172" data-name="Path 69172" d="M239.484,398.363s1.374-23.466-10.275-19.326c0,0-6.805-20.842-16.2-1.886,0,0-12.1-11.858-12.412,1.182,0,0-28.578-9.721-24.161,3.939,0,0-19.77-4.551-19.937,3.025s24.79,9.395,24.79,9.395-21.312-1.819-21.312.913S239.5,403.215,239.484,398.363Z" transform="translate(-156.499 -166.598)" fill="#fff" opacity="0.7"/>
      <path id="Path_69173" data-name="Path 69173" d="M261.657,402.514s21.957,1.76,21.253-1.408-16.9-3.872-16.9-3.872,21.438-9.16,14.121-13.853-21.144,4.693-21.144,4.693,16.811-12.965,6.554-16.174-19.191,9.621-19.191,9.621,3.235-10.182-2.866-10.141-6.068,9.906-6.068,9.906-11.473-12.437-17.138-6.1,5.716,13.853,5.716,13.853-16.761-9.3-19.929-1.835,15.261,10.97,15.261,10.97-18.437-1.232-19.032,1.609S247.46,400.662,261.657,402.514Z" transform="translate(-163.913 -166.953)" fill="#ba6dd7"/>
      <path id="Path_69174" data-name="Path 69174" d="M261.657,402.514s21.957,1.76,21.253-1.408-16.9-3.872-16.9-3.872,21.438-9.16,14.121-13.853-21.144,4.693-21.144,4.693,16.811-12.965,6.554-16.174-19.191,9.621-19.191,9.621,3.235-10.182-2.866-10.141-6.068,9.906-6.068,9.906-11.473-12.437-17.138-6.1,5.716,13.853,5.716,13.853-16.761-9.3-19.929-1.835,15.261,10.97,15.261,10.97-18.437-1.232-19.032,1.609S247.46,400.662,261.657,402.514Z" transform="translate(-163.913 -166.953)" fill="#fff" opacity="0.9"/>
    </g>
    <g id="freepik--character-2--inject-149" transform="translate(299.304 133.364)">
      <path id="Path_69175" data-name="Path 69175" d="M411.738,162.716l-2.958-.126-.21.83.964.411.62,1.416Z" transform="translate(-365.469 -150.787)" fill="#ba6dd7"/>
      <path id="Path_69176" data-name="Path 69176" d="M411.738,162.716l-2.958-.126-.21.83.964.411.62,1.416Z" transform="translate(-365.469 -150.787)" opacity="0.3"/>
      <path id="Path_69177" data-name="Path 69177" d="M411.334,163.536c.1-.486-.067-.93-.385-1s-.654.268-.754.754.067.93.385,1S411.234,164.013,411.334,163.536Z" transform="translate(-365.727 -150.777)" fill="#263238"/>
      <path id="Path_69178" data-name="Path 69178" d="M416.279,156.291s-3.57-3.495-6.6-1.391,3.964,4.844,3.964,4.844Z" transform="translate(-365.526 -149.433)" fill="#263238"/>
      <path id="Path_69179" data-name="Path 69179" d="M410.211,164.64l-3.461,2.573a3.235,3.235,0,0,0,2.606,1.3Z" transform="translate(-365.174 -151.119)" fill="#a02724"/>
      <path id="Path_69180" data-name="Path 69180" d="M423.754,187.316s-3.729-1.517-1.617-8.573c0,0-3.076-2.648-5.984-1.224s.05,7.543-3.4,8.8C412.75,186.318,414.77,188.749,423.754,187.316Z" transform="translate(-366.146 -153.137)" fill="#b55b52"/>
      <path id="Path_69181" data-name="Path 69181" d="M417.807,181.548A13.913,13.913,0,0,1,415,183.433c.067-.981,0-2.011.159-2.933Z" transform="translate(-366.51 -153.688)" opacity="0.2"/>
      <path id="Path_69182" data-name="Path 69182" d="M427.662,166.31c-2.028,5.908-2.757,8.456-6.637,10.7-5.506,1.86-12.671-.394-12.445-6.8.193-5.757,3.47-14.423,10.057-15.227A8.515,8.515,0,0,1,427.7,166.31Z" transform="translate(-365.469 -149.546)" fill="#b55b52"/>
      <path id="Path_69183" data-name="Path 69183" d="M415.72,166.9l-1.617-1.576a5.439,5.439,0,0,0,.838-4.769c-.779-2.908-3.646-8.456,1.224-11.188s7.727,1.936,7.727,1.936,4.609-2.212,6.3,1.626.461,5.162.461,5.162,3.972.427,2.514,5.464-3.134,2.514-5.347,6.78a12.4,12.4,0,0,1-5.984,5.64,2.623,2.623,0,0,0-2.657-.26S420.036,169.98,415.72,166.9Z" transform="translate(-366.25 -148.506)" fill="#263238"/>
      <path id="Path_69184" data-name="Path 69184" d="M412.483,162.159a.31.31,0,0,1-.209-.176,2.254,2.254,0,0,0-1.517-1.433.3.3,0,0,1-.218-.344.293.293,0,0,1,.385-.209,2.858,2.858,0,0,1,1.936,1.793.276.276,0,0,1-.142.369h0A.277.277,0,0,1,412.483,162.159Z" transform="translate(-365.787 -150.364)" fill="#263238"/>
      <path id="Path_69185" data-name="Path 69185" d="M417.486,166.889l-8.8-4.3s-1.157,3.8-.478,3.972,1.6-2.43,1.6-2.43l6.57,2.992Z" transform="translate(-365.376 -150.787)" fill="#ba6dd7"/>
      <path id="Path_69186" data-name="Path 69186" d="M419.255,167.72s5.984,3.872,10.576,4.006l-.687.93s-4.065-.318-10.224-4.3Z" transform="translate(-367.145 -151.618)" fill="#ba6dd7"/>
      <path id="Path_69187" data-name="Path 69187" d="M417.446,167.2a4.794,4.794,0,0,0-2.439,2.757c-.536,1.609.88,2.514,2.439,2.145,1.408-.327,3.352-1.559,3.235-3.218a2.171,2.171,0,0,0-3.235-1.684Z" transform="translate(-366.493 -151.487)" fill="#b55b52"/>
      <path id="Path_69188" data-name="Path 69188" d="M417.075,287.1l-2.112,23.5,1.408,57.105H402.979l-3.059-58.279V285.46Z" transform="translate(-364.068 -170.685)" fill="#263238"/>
      <path id="Path_69189" data-name="Path 69189" d="M415.171,383.17l.209,11.649-6.126-.369L408.5,383.9Z" transform="translate(-365.457 -186.509)" fill="#b55b52"/>
      <path id="Path_69190" data-name="Path 69190" d="M406.034,395.722l7.735-.143a.62.62,0,0,1,.612.478l1.517,6.269a1.048,1.048,0,0,1-.754,1.257h-.218c-2.791,0-5.271-.1-8.749,0-4.1.075-3.042.545-7.861.7-2.9.092-3.495-3.193-2.263-3.352,5.615-.838,6.168-2.514,8.305-4.576a2.464,2.464,0,0,1,1.676-.629Z" transform="translate(-363.344 -188.518)" fill="#263238"/>
      <path id="Path_69191" data-name="Path 69191" d="M415.234,385.36l.075,4.366-6.378.2-.251-3.5Z" transform="translate(-365.487 -186.863)" opacity="0.2"/>
      <path id="Path_69192" data-name="Path 69192" d="M417.843,382.42l-.394,5.062-13.761.536-.939-5.221Z" transform="translate(-364.526 -186.387)" fill="#ba6dd7"/>
      <path id="Path_69193" data-name="Path 69193" d="M435.668,291.016l.7,17.155,8.925,57.8-11.984,1.416L421.8,309.109,420.39,283.49l13.627,1.651Z" transform="translate(-367.383 -170.366)" fill="#263238"/>
      <path id="Path_69194" data-name="Path 69194" d="M446.107,380.14l1.659,11.523-6.126.4L439.57,381.7Z" transform="translate(-370.489 -186.018)" fill="#b55b52"/>
      <path id="Path_69195" data-name="Path 69195" d="M438.735,393.455l7.66-1.106a.62.62,0,0,1,.67.394l2.28,6.026a1.031,1.031,0,0,1-.587,1.341,1.044,1.044,0,0,1-.218.059c-2.766.352-5.238.553-8.674,1.056-4.056.587-2.958.922-7.719,1.676-2.866.453-3.863-2.74-2.673-3.076,5.481-1.5,5.816-3.268,7.677-5.573a2.455,2.455,0,0,1,1.584-.8Z" transform="translate(-368.774 -187.994)" fill="#263238"/>
      <path id="Path_69196" data-name="Path 69196" d="M446.449,382.31l.62,4.316-6.3,1-.687-3.444Z" transform="translate(-370.572 -186.369)" opacity="0.2"/>
      <path id="Path_69197" data-name="Path 69197" d="M448.654,378.85l.235,5.079-13.577,2.246-1.592-5.053Z" transform="translate(-369.542 -185.809)" fill="#ba6dd7"/>
      <path id="Path_69198" data-name="Path 69198" d="M400.657,325.128l-.737-14.088V295.41h8.573l7.224,8.33-.754,8.473.285,11.565Z" transform="translate(-364.068 -172.296)" opacity="0.5"/>
      <path id="Path_69199" data-name="Path 69199" d="M436.372,308.171l2.221,14.381-14.322-.922L421.8,309.109,420.39,283.49l13.627,1.651,1.768,8.917Z" transform="translate(-367.383 -170.366)" opacity="0.5"/>
      <path id="Path_69200" data-name="Path 69200" d="M386.992,212.1l-5.028-1.768s-.117-2.7-3.637-3.52c0,0-2.238-.838-3.763-.117s-1.676,5.028.7,6.813,3.411.235,6.7,1.173L387,216.792Z" transform="translate(-359.78 -157.882)" fill="#b55b52"/>
      <path id="Path_69201" data-name="Path 69201" d="M402.862,216.082l-15.579-4.232s-2.581,2.707-2.229,5.757l15.035,7.165Z" transform="translate(-361.655 -158.765)" fill="#ba6dd7"/>
      <path id="Path_69202" data-name="Path 69202" d="M402.862,216.082l-15.579-4.232s-2.581,2.707-2.229,5.757l15.035,7.165Z" transform="translate(-361.655 -158.765)" fill="#fff" opacity="0.5"/>
      <path id="Path_69203" data-name="Path 69203" d="M380,207.151s-2.564-3.922-3.352-3.419.838,3.352.838,3.352Z" transform="translate(-360.264 -157.443)" fill="#b55b52"/>
      <path id="Path_69204" data-name="Path 69204" d="M425.082,189.007l-2.162-3.537s-9.219-1.131-13.577,1.366l-3.034,3.176S413.785,189.812,425.082,189.007Z" transform="translate(-365.103 -154.451)" fill="#ba6dd7"/>
      <path id="Path_69205" data-name="Path 69205" d="M425.082,189.007l-2.162-3.537s-9.219-1.131-13.577,1.366l-3.034,3.176S413.785,189.812,425.082,189.007Z" transform="translate(-365.103 -154.451)" fill="#fff" opacity="0.5"/>
      <path id="Path_69206" data-name="Path 69206" d="M436.686,304.864s-1.785-27.237-4.115-46.872c-.779-6.512-1.458-12.185-1.894-15.755a122.356,122.356,0,0,1,0-24.429c1.232-12.655,3.151-24.941-3.4-27.522-11.28-4.45-27.027-.453-29.139,4.014s-1.877,110.447-1.877,110.447l24.2-1.182-.838-36.422,4.609,36.422Z" transform="translate(-363.474 -154.958)" fill="#ba6dd7"/>
      <path id="Path_69207" data-name="Path 69207" d="M436.686,304.864s-1.785-27.237-4.115-46.872c-.779-6.512-1.458-12.185-1.894-15.755a122.356,122.356,0,0,1,0-24.429c1.232-12.655,3.151-24.941-3.4-27.522-11.28-4.45-27.027-.453-29.139,4.014s-1.877,110.447-1.877,110.447l24.2-1.182-.838-36.422,4.609,36.422Z" transform="translate(-363.474 -154.958)" fill="#fff" opacity="0.8"/>
      <path id="Path_69208" data-name="Path 69208" d="M395.67,269.873l4.458,1.408,4.458-.7v-3.763l-8.917-.7Z" transform="translate(-363.38 -167.552)" fill="#ba6dd7"/>
      <path id="Path_69209" data-name="Path 69209" d="M395.67,269.873l4.458,1.408,4.458-.7v-3.763l-8.917-.7Z" transform="translate(-363.38 -167.552)" fill="#fff" opacity="0.7"/>
      <path id="Path_69210" data-name="Path 69210" d="M396.951,217.018l8.146-19.091,2.858-2.757A65.227,65.227,0,0,1,396.7,230.519C396.792,225.726,396.876,221.175,396.951,217.018Z" transform="translate(-363.546 -156.063)" opacity="0.1"/>
      <path id="Path_69211" data-name="Path 69211" d="M360.772,215.141h13.057a.838.838,0,0,0,.838-.955l-1.919-18.245a.838.838,0,0,0-.838-.771H358.836a.838.838,0,0,0-.838.955l1.919,18.245A.838.838,0,0,0,360.772,215.141Z" transform="translate(-357.278 -156.063)" fill="#ba6dd7"/>
      <path id="Path_69212" data-name="Path 69212" d="M360.772,215.141h13.057a.838.838,0,0,0,.838-.955l-1.919-18.245a.838.838,0,0,0-.838-.771H358.836a.838.838,0,0,0-.838.955l1.919,18.245A.838.838,0,0,0,360.772,215.141Z" transform="translate(-357.278 -156.063)" fill="#fff" opacity="0.5"/>
      <path id="Path_69213" data-name="Path 69213" d="M361.587,214.223h11.565a.763.763,0,0,0,.763-.838l-1.676-16.158a.771.771,0,0,0-.763-.687H359.852a.763.763,0,0,0-.763.838l1.676,16.158A.771.771,0,0,0,361.587,214.223Z" transform="translate(-357.455 -156.285)" fill="#ba6dd7"/>
      <path id="Path_69214" data-name="Path 69214" d="M361.587,214.223h11.565a.763.763,0,0,0,.763-.838l-1.676-16.158a.771.771,0,0,0-.763-.687H359.852a.763.763,0,0,0-.763.838l1.676,16.158A.771.771,0,0,0,361.587,214.223Z" transform="translate(-357.455 -156.285)" fill="#fff" opacity="0.9"/>
      <path id="Path_69215" data-name="Path 69215" d="M358.012,195.17h.687a.838.838,0,0,0-.838.955l1.919,18.245a.838.838,0,0,0,.838.771h-.712a.838.838,0,0,1-.838-.771l-1.919-18.245a.838.838,0,0,1,.863-.955Z" transform="translate(-357.14 -156.063)" fill="#ba6dd7"/>
      <path id="Path_69216" data-name="Path 69216" d="M358.012,195.17h.687a.838.838,0,0,0-.838.955l1.919,18.245a.838.838,0,0,0,.838.771h-.712a.838.838,0,0,1-.838-.771l-1.919-18.245a.838.838,0,0,1,.863-.955Z" transform="translate(-357.14 -156.063)" fill="#fff" opacity="0.3"/>
      <path id="Path_69217" data-name="Path 69217" d="M363.885,205.081a3.947,3.947,0,0,0,3.83,3.47,3.067,3.067,0,0,0,3.1-3.47,3.939,3.939,0,0,0-3.83-3.461,3.059,3.059,0,0,0-3.1,3.461Z" transform="translate(-358.228 -157.108)" fill="#ba6dd7"/>
      <path id="Path_69218" data-name="Path 69218" d="M361.642,204.75a4.752,4.752,0,0,1,4.81-5.38,6.051,6.051,0,0,1,5.866,5.322,4.869,4.869,0,0,1-1.182,3.813,4.819,4.819,0,0,1-3.629,1.559,6.051,6.051,0,0,1-5.866-5.313Zm1.576-3.461a4.341,4.341,0,0,0-1.056,3.4h0a5.531,5.531,0,0,0,5.355,4.844,4.274,4.274,0,0,0,3.235-1.391,4.333,4.333,0,0,0,1.056-3.394,5.531,5.531,0,0,0-5.355-4.852,4.3,4.3,0,0,0-3.235,1.391Z" transform="translate(-357.862 -156.743)" fill="#ba6dd7"/>
      <path id="Path_69219" data-name="Path 69219" d="M373.736,214.221h-2.942L367.04,196.53h2.933Z" transform="translate(-358.743 -156.284)" fill="#fff" opacity="0.3"/>
      <path id="Path_69220" data-name="Path 69220" d="M369.249,214.221h-1.467L364.02,196.53h1.467Z" transform="translate(-358.254 -156.284)" fill="#fff" opacity="0.3"/>
      <path id="Path_69221" data-name="Path 69221" d="M377.283,217.5l-2.891-1.861s.243-3.352-.511-4.668-4.819-5.146-5.866-4.5,1.676,3.017,1.676,3.017-2.514,3.889-1.676,5.657,3.528,2.456,3.528,2.456l3.922,3.713Z" transform="translate(-358.862 -157.882)" fill="#b55b52"/>
      <path id="Path_69222" data-name="Path 69222" d="M404.351,191.357s-8.5-1.525-11.079,6.227-5.523,19.435-5.523,19.435-9.126-4.19-10.727-3.285c0,0-2.2,2.581-1.257,5.171,0,0,11.163,7.04,15.035,6.57s11.213-19.15,11.213-19.15S408.491,191.591,404.351,191.357Z" transform="translate(-360.118 -155.426)" fill="#ba6dd7"/>
      <path id="Path_69223" data-name="Path 69223" d="M404.351,191.357s-8.5-1.525-11.079,6.227-5.523,19.435-5.523,19.435-9.126-4.19-10.727-3.285c0,0-2.2,2.581-1.257,5.171,0,0,11.163,7.04,15.035,6.57s11.213-19.15,11.213-19.15S408.491,191.591,404.351,191.357Z" transform="translate(-360.118 -155.426)" fill="#fff" opacity="0.7"/>
    </g>
    <g id="freepik--character-1--inject-149" transform="translate(38.85 115.687)">
      <path id="Path_69224" data-name="Path 69224" d="M111.56,388.616l1.877,12.78,6.981-1.006-1.24-13.97Z" transform="translate(-56.916 -169.358)" fill="#dd8c6a"/>
      <path id="Path_69225" data-name="Path 69225" d="M123.44,402.783a.193.193,0,0,1-.151-.126.184.184,0,0,1,.059-.184c.109-.075,2.414-1.76,3.637-1.576a.838.838,0,0,1,.57.335.637.637,0,0,1,.092.729,2.992,2.992,0,0,1-2.02.771,12.7,12.7,0,0,1-2.187.05Zm.52-.293c1.333,0,3.118-.193,3.352-.7.042-.059.075-.168-.075-.36a.469.469,0,0,0-.352-.2,1.065,1.065,0,0,0-.327,0,7.9,7.9,0,0,0-2.6,1.257Z" transform="translate(-58.815 -171.7)" fill="#ba6dd7"/>
      <path id="Path_69226" data-name="Path 69226" d="M123.342,402.493a.209.209,0,0,1-.092-.142,4.835,4.835,0,0,1,.838-2.866,1.232,1.232,0,0,1,.9-.394c.469,0,.637.21.679.4.243.779-1.291,2.514-2.087,2.975a.125.125,0,0,1-.075,0A.185.185,0,0,1,123.342,402.493Zm1.525-3.067a.838.838,0,0,0-.553.277,3.905,3.905,0,0,0-.7,2.271c.838-.62,1.8-1.944,1.676-2.422,0-.042-.05-.159-.352-.151h-.1Z" transform="translate(-58.809 -171.41)" fill="#ba6dd7"/>
      <path id="Path_69227" data-name="Path 69227" d="M120.746,402.053l-7.727.838a.629.629,0,0,0-.553.562l-.687,6.436a1.039,1.039,0,0,0,.913,1.157h.218c2.782-.36,5.246-.8,8.716-1.182,4.09-.461,3.109.142,7.928-.327,2.9-.293,3.059-3.646,1.81-3.671-5.707-.075-6.478-1.676-8.883-3.478a2.514,2.514,0,0,0-1.735-.335Z" transform="translate(-56.95 -171.884)" fill="#263238"/>
      <path id="Path_69228" data-name="Path 69228" d="M120.051,395.67h-5.238l-2.1.972.5,3.47,7.132-1.131Z" transform="translate(-57.102 -170.856)" opacity="0.2"/>
      <path id="Path_69229" data-name="Path 69229" d="M84.55,234.361,99.9,308.881l6.554,62.812,10.459-1.676s.612-31.578-2.447-64.581C111.745,275.61,105.3,244.644,104.2,234.7l-4.19-6.7-7.71,1.257Z" transform="translate(-52.542 -143.703)" fill="#ba6dd7"/>
      <path id="Path_69230" data-name="Path 69230" d="M90.2,260.606l4.4,21.362c.5-15.429-1.676-33.749-1.676-33.749Z" transform="translate(-53.457 -146.977)" opacity="0.2"/>
      <path id="Path_69231" data-name="Path 69231" d="M72.81,393.634v12.914l7.115-.981.746-13Z" transform="translate(-50.641 -170.354)" fill="#dd8c6a"/>
      <path id="Path_69232" data-name="Path 69232" d="M82.752,405.094a.184.184,0,0,1-.142-.134.168.168,0,0,1,.075-.176c.109-.067,2.514-1.576,3.738-1.291a.838.838,0,0,1,.545.377.629.629,0,0,1,0,.729,3.025,3.025,0,0,1-2.07.62A13.567,13.567,0,0,1,82.752,405.094Zm.536-.243c1.333.117,3.126.042,3.436-.436.05-.059.092-.159,0-.369a.486.486,0,0,0-.344-.226,1.007,1.007,0,0,0-.318,0,7.66,7.66,0,0,0-2.774,1.031Z" transform="translate(-52.227 -172.117)" fill="#ba6dd7"/>
      <path id="Path_69233" data-name="Path 69233" d="M82.654,404.768a.184.184,0,0,1-.084-.151,4.8,4.8,0,0,1,1.014-2.791,1.257,1.257,0,0,1,.93-.327c.461,0,.62.26.637.453.184.8-1.475,2.405-2.313,2.807a.067.067,0,0,1-.067,0,.143.143,0,0,1-.117.008Zm1.752-2.942a.914.914,0,0,0-.57.235A3.972,3.972,0,0,0,83,404.273c.838-.553,1.944-1.8,1.886-2.28,0,0-.042-.168-.344-.176Z" transform="translate(-52.221 -171.8)" fill="#ba6dd7"/>
      <path id="Path_69234" data-name="Path 69234" d="M80.022,404.248l-7.777.277a.62.62,0,0,0-.587.511l-1.182,6.369a1.048,1.048,0,0,0,.838,1.224h.218c2.8-.151,5.288-.394,8.774-.511,4.115-.142,3.092.385,7.936.285,2.916-.067,3.352-3.4,2.087-3.52-5.682-.511-6.327-2.2-8.582-4.148A2.514,2.514,0,0,0,80.022,404.248Z" transform="translate(-50.26 -172.243)" fill="#263238"/>
      <path id="Path_69235" data-name="Path 69235" d="M72.81,401.853h7.383l.176-2.933H72.81Z" transform="translate(-50.641 -171.382)" opacity="0.2"/>
      <path id="Path_69236" data-name="Path 69236" d="M71.667,235.04,71.6,372.976H81.782s7.459-113.23,8.381-134.408l-2.891-7.358H79.729Z" transform="translate(-50.445 -144.223)" fill="#ba6dd7"/>
      <path id="Path_69237" data-name="Path 69237" d="M102.385,228.043a46.327,46.327,0,0,1-.536-8.087c1.19-25.737.092-41.584-.3-46.093a1.978,1.978,0,0,0-1.4-1.726c-17.985-5.372-31.511-1.676-35.86-.176A1.978,1.978,0,0,0,63,174.08c.838,7.584,4.35,41.66,4.911,54,.084,1.81.05,6.176,0,8.59a1.986,1.986,0,0,0,1.676,1.978c4.023.679,14.071,1.953,17.147-1.592a1.936,1.936,0,0,1,2.7-.193,8.94,8.94,0,0,0,6.6,1.676,62.568,62.568,0,0,0,6.478-.721,1.986,1.986,0,0,0,1.576-2.447C103.508,233.155,102.637,229.643,102.385,228.043Z" transform="translate(-49.049 -134.2)" fill="#263238"/>
      <path id="Path_69238" data-name="Path 69238" d="M88.08,166.962l-1.8-10.694L78.56,153.88v13.166l3.612,3.159,4.065-.176,2.749-3Z" transform="translate(-51.572 -131.7)" fill="#dd8c6a"/>
      <path id="Path_69239" data-name="Path 69239" d="M93.795,220.739a1,1,0,1,1-.989-.989,1,1,0,0,1,.989.989Z" transform="translate(-53.716 -142.367)" fill="#ba6dd7"/>
      <path id="Path_69240" data-name="Path 69240" d="M94.985,233.237a.989.989,0,1,1-.29-.708,1,1,0,0,1,.29.708Z" transform="translate(-53.909 -144.39)" fill="#ba6dd7"/>
      <path id="Path_69241" data-name="Path 69241" d="M75.892,169.429l1.157-.235,6.637,3.294h2.02l3.746-3.428,1.3.26.2,11.574L90.08,191.88l-1.827,12.093H88.2l-.52-1.089-1.978-4.065-2.657-4.626-4.97-11.364-2.8-8.976Z" transform="translate(-51.041 -134.158)" fill="#fff"/>
      <path id="Path_69242" data-name="Path 69242" d="M75.919,169.37s4.6,14.13,11.733,34.654L73.137,178.647l1.123-2.883-2.38-1.249,1.383-4.609Z" transform="translate(-50.49 -134.208)" fill="#ba6dd7"/>
      <path id="Path_69243" data-name="Path 69243" d="M92.477,169.16s-.57,14.473-1.777,35.2l6.612-27.371-1.752-2.28,1.819-1.869-2-3.092Z" transform="translate(-53.538 -134.174)" fill="#ba6dd7"/>
      <path id="Path_69244" data-name="Path 69244" d="M78.242,168.96l7.023,3.537-2.942,3.889L76.7,169.3Z" transform="translate(-51.271 -134.142)" fill="#ba6dd7"/>
      <path id="Path_69245" data-name="Path 69245" d="M78.242,168.96l7.023,3.537-2.942,3.889L76.7,169.3Z" transform="translate(-51.271 -134.142)" fill="#fff" opacity="0.7"/>
      <path id="Path_69246" data-name="Path 69246" d="M90.367,168.9l-3.847,3.587,2.942,3.889,2.338-7.258Z" transform="translate(-52.861 -134.132)" fill="#ba6dd7"/>
      <path id="Path_69247" data-name="Path 69247" d="M90.367,168.9l-3.847,3.587,2.942,3.889,2.338-7.258Z" transform="translate(-52.861 -134.132)" fill="#fff" opacity="0.7"/>
      <path id="Path_69248" data-name="Path 69248" d="M90.5,172.741a.578.578,0,0,0-.57-.545,4.191,4.191,0,0,0-1.559.151,8.824,8.824,0,0,0-1.936,2.3v-.109a.52.52,0,0,0-.545-.486h-.427a.511.511,0,0,0-.478.545v.084a9.034,9.034,0,0,0-2.2-2.053,4.048,4.048,0,0,0-1.55,0,.6.6,0,0,0-.511.637L81,177.862a.612.612,0,0,0,.587.57,4.442,4.442,0,0,0,1.542-.151,9.3,9.3,0,0,0,1.944-2.3h0a.52.52,0,0,0,.545.486h.419a.52.52,0,0,0,.486-.553h0a9.277,9.277,0,0,0,2.2,2.062,4.3,4.3,0,0,0,1.559,0,.6.6,0,0,0,.5-.62Z" transform="translate(-51.923 -134.663)" fill="#263238"/>
      <path id="Path_69249" data-name="Path 69249" d="M78.557,156.966c1.391,2.12,3.93,4.274,8.54,5.028l-.838-5.766L78.54,153.84Z" transform="translate(-51.569 -131.693)" opacity="0.1"/>
      <path id="Path_69250" data-name="Path 69250" d="M153.53,176.694a6.7,6.7,0,0,1,5.548-3.537s2.011-3.3,4.266-3.218,3.059,5.431,3.059,5.431-2.74,4.626-7,4.19l-5.028.478Z" transform="translate(-63.713 -134.3)" fill="#dd8c6a"/>
      <path id="Path_69251" data-name="Path 69251" d="M150.17,178.572l2.288-2.212a10.224,10.224,0,0,1,4.065,6.311l-3.537,1.006Z" transform="translate(-63.169 -135.34)" fill="#ba6dd7"/>
      <path id="Path_69252" data-name="Path 69252" d="M150.17,178.572l2.288-2.212a10.224,10.224,0,0,1,4.065,6.311l-3.537,1.006Z" transform="translate(-63.169 -135.34)" fill="#fff" opacity="0.8"/>
      <path id="Path_69253" data-name="Path 69253" d="M143.311,177.382a55.8,55.8,0,0,1-19.426,6.612A51.222,51.222,0,0,0,106.11,172.32v9.856s10.417,9.663,17.054,10.752c5.255.838,18.312-6.7,23.507-9.856a14.666,14.666,0,0,0-3.361-5.69Z" transform="translate(-56.034 -134.686)" fill="#263238"/>
      <path id="Path_69254" data-name="Path 69254" d="M82.869,211.2,82.4,225.229l1.919.193,2.472-14.532Z" transform="translate(-52.194 -140.932)" fill="#ba6dd7"/>
      <path id="Path_69255" data-name="Path 69255" d="M82.8,215.315a15.676,15.676,0,0,0,1.827.31,13.414,13.414,0,0,0,1.408.067l.838-4.8-3.914.31Z" transform="translate(-52.259 -140.932)" fill="#fff" opacity="0.4"/>
      <path id="Path_69256" data-name="Path 69256" d="M87.774,210.349a3.034,3.034,0,1,1-.655-2.24A3.025,3.025,0,0,1,87.774,210.349Z" transform="translate(-52.087 -140.299)" fill="#ba6dd7"/>
      <path id="Path_69257" data-name="Path 69257" d="M87.774,210.349a3.034,3.034,0,1,1-.655-2.24A3.025,3.025,0,0,1,87.774,210.349Z" transform="translate(-52.087 -140.299)" fill="#fff" opacity="0.8"/>
      <path id="Path_69258" data-name="Path 69258" d="M74.6,218.191a64.307,64.307,0,0,0,7.408,0,16.192,16.192,0,0,0,3.3-.981l2,1.819s2.573,4.475-.318,5.866S74,221.979,74,221.979Z" transform="translate(-50.834 -141.956)" fill="#dd8c6a"/>
      <path id="Path_69259" data-name="Path 69259" d="M70.729,216.49s3.168,0,4.668.972a8.381,8.381,0,0,0-.679,5.431L70,221.946Z" transform="translate(-50.186 -141.839)" fill="#ba6dd7"/>
      <path id="Path_69260" data-name="Path 69260" d="M70.729,216.49s3.168,0,4.668.972a8.381,8.381,0,0,0-.679,5.431L70,221.946Z" transform="translate(-50.186 -141.839)" fill="#fff" opacity="0.8"/>
      <path id="Path_69261" data-name="Path 69261" d="M63.657,171.7s-8.431.268-15.5,23.826c-1.441,4.785-5.741,15.3,7.744,18.437l11.842,1.676s-.763-3.863.838-6.6c0,0-8.045-3.537-13.032-5.95,0,0,4.986-12.873,7.886-14.163C63.447,188.922,66.28,176.98,63.657,171.7Z" transform="translate(-46.357 -134.586)" fill="#263238"/>
      <path id="Path_69262" data-name="Path 69262" d="M70.849,137.007s-1.316-2.145-3.159-1.1C67.69,135.909,69.835,132.239,70.849,137.007Z" transform="translate(-49.812 -128.571)" fill="#263238"/>
      <path id="Path_69263" data-name="Path 69263" d="M74.2,144.134c.637,5.866.779,8.381,3.905,11.272,4.693,4.35,11.783,2.28,12.923-3.671,1.014-5.364-.2-14.121-6.093-16.166A8.079,8.079,0,0,0,74.2,144.134Z" transform="translate(-50.857 -128.658)" fill="#dd8c6a"/>
      <path id="Path_69264" data-name="Path 69264" d="M85.52,147.025c0,.486.3.838.612.838s.553-.427.536-.905-.3-.838-.612-.838S85.528,146.573,85.52,147.025Z" transform="translate(-52.699 -130.443)" fill="#263238"/>
      <path id="Path_69265" data-name="Path 69265" d="M92,146.735c0,.494.3.838.612.838s.553-.427.528-.905-.3-.838-.612-.838S92,146.257,92,146.735Z" transform="translate(-53.749 -130.396)" fill="#263238"/>
      <path id="Path_69266" data-name="Path 69266" d="M90.05,148.05a12.806,12.806,0,0,0,1.86,2.983,2.1,2.1,0,0,1-1.676.4Z" transform="translate(-53.433 -130.756)" fill="#c13b37"/>
      <path id="Path_69267" data-name="Path 69267" d="M82.737,145.338a.293.293,0,0,0,.3-.151,3.352,3.352,0,0,1,2.263-1.416.293.293,0,0,0,.251-.318.285.285,0,0,0-.31-.243h0a3.88,3.88,0,0,0-2.7,1.726.277.277,0,0,0,.126.369h0a.176.176,0,0,0,.067.033Z" transform="translate(-52.213 -129.971)" fill="#263238"/>
      <path id="Path_69268" data-name="Path 69268" d="M93.342,143.87a.293.293,0,0,0,.277-.1.285.285,0,0,0-.042-.394,2.8,2.8,0,0,0-2.514-.612.268.268,0,0,0-.184.335h0a.268.268,0,0,0,.344.184h0a2.271,2.271,0,0,1,1.978.5.226.226,0,0,0,.142.084Z" transform="translate(-53.565 -129.886)" fill="#263238"/>
      <path id="Path_69269" data-name="Path 69269" d="M89.155,153.976a16.87,16.87,0,0,0-.21,2.33,3.465,3.465,0,0,1-.411.059c-1.852.251-2.791-.251-3.277-.838a2.623,2.623,0,0,1-.469-1.676,8.858,8.858,0,0,0,3.738.268C88.87,154.043,89.155,153.976,89.155,153.976Z" transform="translate(-52.58 -131.695)" fill="#263238"/>
      <path id="Path_69270" data-name="Path 69270" d="M88.48,154.068l-.084.687c-1.743.226-3,.151-3.62-.3a2.438,2.438,0,0,1,0-.654,8.858,8.858,0,0,0,3.7.268Z" transform="translate(-52.575 -131.687)" fill="#fff"/>
      <path id="Path_69271" data-name="Path 69271" d="M88.577,156.711c-1.852.251-2.791-.251-3.277-.838a6.093,6.093,0,0,1,2.112.134,2.3,2.3,0,0,1,1.165.7Z" transform="translate(-52.663 -132.016)" fill="#de5753"/>
      <path id="Path_69272" data-name="Path 69272" d="M75,150.851s4.123-7.962,2.2-9.973.067-2.514.067-2.514c18.58-.562,13.929-9.009,8.774-10.618a4.358,4.358,0,0,0-3.679.159,4,4,0,0,1,3.453,1.408s-3.059-1.064-4.634-.184a5.489,5.489,0,0,0-.687,2.078s-13.543-1.123-9.629,11.632C71.5,144.951,75,150.851,75,150.851Z" transform="translate(-50.211 -127.414)" fill="#263238"/>
      <path id="Path_69273" data-name="Path 69273" d="M72.509,150.854a4.249,4.249,0,0,0,2.263,2.313c1.374.57,2.246-.62,2.02-2.02-.218-1.257-1.19-3.076-2.64-3.067a1.911,1.911,0,0,0-1.852,1.969,1.827,1.827,0,0,0,.21.8Z" transform="translate(-50.558 -130.76)" fill="#dd8c6a"/>
    </g>
  </g>
</svg>
