<svg xmlns="http://www.w3.org/2000/svg" xmlns:xlink="http://www.w3.org/1999/xlink" width="205.25" height="153.303" viewBox="0 0 205.25 153.303">
  <defs>
    <linearGradient id="linear-gradient" x1="0.5" x2="0.5" y2="1" gradientUnits="objectBoundingBox">
      <stop offset="0" stop-color="#e8f6ef"/>
      <stop offset="1" stop-color="#84aa96"/>
    </linearGradient>
    <clipPath id="clip-path">
      <path id="Path_70141" data-name="Path 70141" d="M93.38,244.81l2.366,19.2c0,3.077,5.744,5.575,12.831,5.575s12.831-2.5,12.831-5.575l2.366-19.2Z" transform="translate(-93.38 -244.81)" fill="#fff" stroke="#263238" stroke-linecap="round" stroke-linejoin="round" stroke-width="1"/>
    </clipPath>
  </defs>
  <g id="dashboard" transform="translate(-924.999 -3556)">
    <g id="Online_shopping-bro" data-name="Online shopping-bro" transform="translate(924.999 3568)">
      <g id="freepik--background-simple--inject-65" transform="translate(0 -12)">
        <path id="Path_70136" data-name="Path 70136" d="M236.962,205.495s28.739-33.313,21.356-75.915-45.458-64.907-71-62.383-50.97,27.558-75.925,30.652-62.573,25.113-54.969,67.01,30.709,46,68.111,47.534S214.863,233.116,236.962,205.495Z" transform="translate(-55.429 -67.004)" fill="url(#linear-gradient)"/>
        <path id="Path_70137" data-name="Path 70137" d="M236.962,205.495s28.739-33.313,21.356-75.915-45.458-64.907-71-62.383-50.97,27.558-75.925,30.652-62.573,25.113-54.969,67.01,30.709,46,68.111,47.534S214.863,233.116,236.962,205.495Z" transform="translate(-55.429 -67.004)" fill="none" opacity="0.53"/>
      </g>
      <g id="freepik--Desk--inject-65" transform="translate(5.043 101.169)">
        <line id="Line_2365" data-name="Line 2365" x2="199.706" fill="none" stroke="#263238" stroke-linecap="round" stroke-linejoin="round" stroke-width="1"/>
      </g>
      <g id="freepik--Plant--inject-65" transform="translate(8.12 41.23)">
        <ellipse id="Ellipse_1388" data-name="Ellipse 1388" cx="16.967" cy="6.297" rx="16.967" ry="6.297" transform="translate(4.816 66.003)" fill="#263238"/>
        <path id="Path_70138" data-name="Path 70138" d="M93.38,244.81l2.366,19.2c0,3.077,5.744,5.575,12.831,5.575s12.831-2.5,12.831-5.575l2.366-19.2Z" transform="translate(-81.503 -192.349)" fill="#fff"/>
        <g id="Group_2119" data-name="Group 2119" transform="translate(11.877 52.461)" clip-path="url(#clip-path)">
          <path id="Path_70139" data-name="Path 70139" d="M106.353,244.81H93.38l2.366,19.2c0,3.077,5.744,5.575,12.831,5.575q.69,0,1.359-.032C105.895,262.388,105.826,251.871,106.353,244.81Z" transform="translate(-93.38 -244.81)" fill="#70ab8d"/>
          <path id="Path_70140" data-name="Path 70140" d="M106.353,244.81H93.38l2.366,19.2c0,3.077,5.744,5.575,12.831,5.575q.69,0,1.359-.032C105.895,262.388,105.826,251.871,106.353,244.81Z" transform="translate(-93.38 -244.81)" fill="#fff" opacity="0.4"/>
        </g>
        <path id="Path_70142" data-name="Path 70142" d="M93.38,244.81l2.366,19.2c0,3.077,5.744,5.575,12.831,5.575s12.831-2.5,12.831-5.575l2.366-19.2Z" transform="translate(-81.503 -192.349)" fill="none" stroke="#263238" stroke-linecap="round" stroke-linejoin="round" stroke-width="1"/>
        <ellipse id="Ellipse_1389" data-name="Ellipse 1389" cx="15.197" cy="6.602" rx="15.197" ry="6.602" transform="translate(11.877 45.859)" fill="#fff" stroke="#263238" stroke-linecap="round" stroke-linejoin="round" stroke-width="1"/>
        <ellipse id="Ellipse_1390" data-name="Ellipse 1390" cx="13.579" cy="5.744" rx="13.579" ry="5.744" transform="translate(13.495 46.544)" fill="#263238" stroke="#263238" stroke-linecap="round" stroke-linejoin="round" stroke-width="1"/>
        <path id="Path_70143" data-name="Path 70143" d="M111.015,221.272s-1.212-11.181-8.763-19.644-5.7-7.424-5.7-7.424" transform="translate(-82.908 -168.39)" fill="none" stroke="#263238" stroke-linecap="round" stroke-linejoin="round" stroke-width="1"/>
        <path id="Path_70144" data-name="Path 70144" d="M139.749,182.52s-9.063,9.068-10.575,19.344-.527,11.935-.527,11.935" transform="translate(-98.037 -162.881)" fill="none" stroke="#263238" stroke-linecap="round" stroke-linejoin="round" stroke-width="1"/>
        <path id="Path_70145" data-name="Path 70145" d="M122.766,210a165.419,165.419,0,0,1-3.583-19.027c-1.813-12.7-.906-19.338-.906-19.338" transform="translate(-93.174 -157.73)" fill="none" stroke="#263238" stroke-linecap="round" stroke-linejoin="round" stroke-width="1"/>
        <path id="Path_70146" data-name="Path 70146" d="M89.921,187.961s-2.535,2.751-6.434-2.635a16.091,16.091,0,0,1-2.6-11.666,12.942,12.942,0,0,0,5,4.305C88.888,179.24,93.283,186.485,89.921,187.961Z" transform="translate(-75.494 -158.69)" fill="#84aa96"/>
        <path id="Path_70147" data-name="Path 70147" d="M114.9,162.17s-3.625.906-3.926-5.738a16.121,16.121,0,0,1,4.215-11.181,12.881,12.881,0,0,0,1.813,6.323C118.818,154.271,118.533,162.776,114.9,162.17Z" transform="translate(-89.821 -145.25)" fill="#84aa96"/>
        <path id="Path_70148" data-name="Path 70148" d="M145.383,176.33s-3.53-1.228-.142-6.95a16.113,16.113,0,0,1,9.664-7.04,13.024,13.024,0,0,0-1.96,6.323C152.97,171.951,148.107,178.822,145.383,176.33Z" transform="translate(-105.341 -153.335)" fill="#84aa96"/>
        <path id="Path_70149" data-name="Path 70149" d="M100.153,224.021s2.419-10.881,7.556-16.013a16.493,16.493,0,0,1,11.482-4.837s-6.044,2.419-7.857,7.251-4.848,15.413-4.848,15.413H91.4a29.179,29.179,0,0,0-6.955-8.462c-5.138-4.537-13.6-7.551-13.6-7.551s9.369-3.325,16.019-.606S98.34,223.441,98.34,223.441Z" transform="translate(-70.84 -172.65)" fill="#84aa96"/>
        <path id="Path_70150" data-name="Path 70150" d="M112.767,239.541s-6-4.115-12.541-3.43-7.087,6-7.377,7.546a17.79,17.79,0,0,0-.269,2.745,139.381,139.381,0,0,1,13.626-3.43C111.4,242.113,113.583,244.515,112.767,239.541Z" transform="translate(-81.125 -188.197)" fill="#84aa96"/>
        <path id="Path_70151" data-name="Path 70151" d="M126.556,239.541s3.773-4.115,7.9-3.43,4.458,6,4.626,7.546a27.289,27.289,0,0,1,.174,2.745,63.944,63.944,0,0,0-8.573-3.43C127.43,242.113,126.039,244.515,126.556,239.541Z" transform="translate(-97.148 -188.197)" fill="#84aa96"/>
      </g>
    </g>
    <g id="Design_stats-bro" data-name="Design stats-bro" transform="translate(968.281 3549.772)">
      <g id="freepik--Window--inject-13" transform="translate(24.42 28.752)">
        <path id="Path_71922" data-name="Path 71922" d="M33.731,57.643H122.5a2.4,2.4,0,0,1,2.4,2.388v83.484H31.33V60.031a2.4,2.4,0,0,1,2.4-2.4Z" transform="translate(-31.33 -57.63)" fill="#fff" stroke="#263238" stroke-miterlimit="10" stroke-width="1"/>
        <path id="Path_71923" data-name="Path 71923" d="M122.889,57.68H33.347a2.014,2.014,0,0,0-2.017,2.014v1.794H124.9V59.694A2.014,2.014,0,0,0,122.889,57.68Z" transform="translate(-31.33 -57.667)" fill="#263238" stroke="#263238" stroke-miterlimit="10" stroke-width="1"/>
        <path id="Path_71924" data-name="Path 71924" d="M362.214,62.372a.8.8,0,1,1-.233-.567A.8.8,0,0,1,362.214,62.372Z" transform="translate(-276.234 -60.56)" fill="#84aa96" stroke="#263238" stroke-linecap="round" stroke-miterlimit="10" stroke-width="1"/>
        <path id="Path_71925" data-name="Path 71925" d="M372.754,62.372a.8.8,0,1,1-.8-.8.8.8,0,0,1,.8.8Z" transform="translate(-284.073 -60.56)" fill="#fff" stroke="#263238" stroke-linecap="round" stroke-miterlimit="10" stroke-width="1"/>
        <path id="Path_71926" data-name="Path 71926" d="M383.344,62.372a.8.8,0,1,1-.8-.8.8.8,0,0,1,.8.8Z" transform="translate(-291.949 -60.56)" fill="#fff" stroke="#263238" stroke-linecap="round" stroke-miterlimit="10" stroke-width="1"/>
      </g>
      <g id="freepik--dividing-lines--inject-13" transform="translate(42.277 63.54)">
        <line id="Line_2492" data-name="Line 2492" x2="72.448" transform="translate(0 27.336)" fill="none" stroke="#263238" stroke-miterlimit="10" stroke-width="1"/>
        <line id="Line_2493" data-name="Line 2493" x2="0.881" transform="translate(71.567 0)" fill="none" stroke="#263238" stroke-miterlimit="10" stroke-width="1"/>
        <line id="Line_2494" data-name="Line 2494" x2="70.521" transform="translate(0 0)" fill="none" stroke="#263238" stroke-miterlimit="10" stroke-width="1"/>
        <line id="Line_2495" data-name="Line 2495" y1="24.22" transform="translate(35.943 1.558)" fill="none" stroke="#263238" stroke-miterlimit="10" stroke-width="1"/>
      </g>
      <g id="freepik--charts-4--inject-13" transform="translate(42.923 94.722)">
        <path id="Path_71927" data-name="Path 71927" d="M108.944,320.484h5.4a5.4,5.4,0,1,1-5.4-5.4h0Z" transform="translate(-103.54 -315.079)" fill="#fff" stroke="#263238" stroke-miterlimit="10" stroke-width="1"/>
        <path id="Path_71928" data-name="Path 71928" d="M124.63,320.484v-5.4a5.4,5.4,0,0,1,5.4,5.4h-5.4Z" transform="translate(-119.226 -315.079)" fill="#84aa96" stroke="#263238" stroke-miterlimit="10" stroke-width="1"/>
        <circle id="Ellipse_1440" data-name="Ellipse 1440" cx="3.621" cy="3.621" r="3.621" transform="translate(1.783 1.784)" fill="#fff" stroke="#263238" stroke-linecap="round" stroke-miterlimit="10" stroke-width="1"/>
        <path id="Path_71929" data-name="Path 71929" d="M118.31,331.757c0,.689-.769.938-.769,1.466v.036h.751v.231h-1v-.195c0-.738.769-.884.769-1.537,0-.236-.079-.359-.256-.359s-.256.133-.256.336v.2h-.238v-.185c0-.351.159-.582.512-.582S118.31,331.408,118.31,331.757Z" transform="translate(-113.767 -327.046)" fill="#263238"/>
        <path id="Path_71930" data-name="Path 71930" d="M122.431,332.2a.366.366,0,0,1,.338-.19c.295,0,.425.215.425.543V333c0,.351-.167.579-.512.579s-.512-.228-.512-.579v-.151h.241v.169c0,.2.085.331.256.331s.269-.126.269-.331v-.446c0-.2-.085-.328-.269-.328a.256.256,0,0,0-.256.243v.054h-.238l.064-1.281h.915v.228h-.674Z" transform="translate(-117.396 -327.113)" fill="#263238"/>
        <path id="Path_71931" data-name="Path 71931" d="M127.733,331.612v.72c0,.223-.105.372-.328.372s-.325-.149-.325-.372v-.72c0-.22.105-.372.325-.372S127.733,331.391,127.733,331.612Zm-.489,0v.746c0,.123.044.2.161.2s.164-.082.164-.2v-.746c0-.126-.049-.21-.164-.21s-.161.074-.161.2Zm1.245-.346-.9,2.286h-.154l.907-2.3Zm.364,1.194v.72c0,.223-.1.369-.328.369s-.325-.146-.325-.369v-.72c0-.218.1-.364.325-.364S128.853,332.244,128.853,332.46Zm-.492,0v.741c0,.126.049.21.164.21s.164-.085.164-.21v-.741c0-.126-.049-.208-.164-.208s-.159.077-.159.208Z" transform="translate(-121.048 -327.098)" fill="#263238"/>
        <line id="Line_2496" data-name="Line 2496" x2="6.719" transform="translate(2.237 12.316)" fill="none" stroke="#263238" stroke-miterlimit="10" stroke-width="1"/>
        <line id="Line_2497" data-name="Line 2497" x2="2.57" transform="translate(6.386 13.228)" fill="none" stroke="#263238" stroke-miterlimit="10" stroke-width="1"/>
        <line id="Line_2498" data-name="Line 2498" x2="3.318" transform="translate(2.237 13.228)" fill="none" stroke="#263238" stroke-miterlimit="10" stroke-width="1"/>
        <line id="Line_2499" data-name="Line 2499" x2="6.719" transform="translate(2.237 14.14)" fill="none" stroke="#263238" stroke-miterlimit="10" stroke-width="1"/>
        <line id="Line_2500" data-name="Line 2500" x2="4.479" transform="translate(4.477 15.052)" fill="none" stroke="#263238" stroke-miterlimit="10" stroke-width="1"/>
        <line id="Line_2501" data-name="Line 2501" x2="1.494" transform="translate(2.237 15.052)" fill="none" stroke="#263238" stroke-miterlimit="10" stroke-width="1"/>
        <path id="Path_71932" data-name="Path 71932" d="M187.308,320.5l3.175,4.372a5.4,5.4,0,0,1-6.352-8.746,5.176,5.176,0,0,1,3.177-1.025Z" transform="translate(-161.822 -315.092)" fill="#fff" stroke="#263238" stroke-miterlimit="10" stroke-width="1"/>
        <path id="Path_71933" data-name="Path 71933" d="M203,320.484v-5.4a5.4,5.4,0,0,1,5.4,5.4,5.24,5.24,0,0,1-2.229,4.372Z" transform="translate(-177.514 -315.079)" fill="#263238" stroke="#263238" stroke-miterlimit="10" stroke-width="1"/>
        <circle id="Ellipse_1441" data-name="Ellipse 1441" cx="3.621" cy="3.621" r="3.621" transform="translate(21.865 1.784)" fill="#fff" stroke="#263238" stroke-linecap="round" stroke-miterlimit="10" stroke-width="1"/>
        <path id="Path_71934" data-name="Path 71934" d="M196.044,333.127v.459h-.256v-.459h-.738v-.233l.707-1.594h.279v1.594h.182v.233Zm-.753-.233h.512v-1.117Z" transform="translate(-171.601 -327.143)" fill="#263238"/>
        <path id="Path_71935" data-name="Path 71935" d="M200.33,331.783c0-.348.174-.574.512-.574a.512.512,0,0,1,.528.574v1.179c0,.351-.174.579-.528.579s-.512-.228-.512-.579Zm.256,1.2c0,.205.09.331.272.331s.272-.126.272-.331v-1.21c0-.21-.085-.333-.272-.333s-.272.123-.272.333Z" transform="translate(-175.528 -327.075)" fill="#263238"/>
        <path id="Path_71936" data-name="Path 71936" d="M205.973,331.612v.72c0,.223-.105.372-.328.372s-.325-.149-.325-.372v-.72c0-.22.105-.372.325-.372S205.973,331.391,205.973,331.612Zm-.489,0v.746c0,.123.044.2.161.2s.164-.082.164-.2v-.746c0-.126-.049-.21-.164-.21s-.151.074-.151.2Zm1.245-.346-.9,2.286h-.154l.9-2.286Zm.369,1.207v.72c0,.223-.1.369-.328.369s-.325-.146-.325-.369v-.733c0-.218.1-.364.325-.364s.328.149.328.364Zm-.492,0v.741c0,.126.049.21.164.21s.164-.085.164-.21v-.753c0-.126-.049-.208-.164-.208s-.164.077-.164.208Z" transform="translate(-179.239 -327.098)" fill="#263238"/>
        <line id="Line_2502" data-name="Line 2502" x2="6.719" transform="translate(22.178 12.316)" fill="none" stroke="#263238" stroke-miterlimit="10" stroke-width="1"/>
        <line id="Line_2503" data-name="Line 2503" x2="2.573" transform="translate(26.324 13.228)" fill="none" stroke="#263238" stroke-miterlimit="10" stroke-width="1"/>
        <line id="Line_2504" data-name="Line 2504" x2="3.318" transform="translate(22.178 13.228)" fill="none" stroke="#263238" stroke-miterlimit="10" stroke-width="1"/>
        <line id="Line_2505" data-name="Line 2505" x2="6.719" transform="translate(22.178 14.14)" fill="none" stroke="#263238" stroke-miterlimit="10" stroke-width="1"/>
        <line id="Line_2506" data-name="Line 2506" x2="4.479" transform="translate(24.418 15.052)" fill="none" stroke="#263238" stroke-miterlimit="10" stroke-width="1"/>
        <line id="Line_2507" data-name="Line 2507" x2="1.494" transform="translate(22.178 15.052)" fill="none" stroke="#263238" stroke-miterlimit="10" stroke-width="1"/>
        <path id="Path_71937" data-name="Path 71937" d="M265.7,320.505l-5.14,1.668a5.4,5.4,0,0,1,3.47-6.808,5.127,5.127,0,0,1,1.671-.256Z" transform="translate(-220.124 -315.1)" fill="#fff" stroke="#263238" stroke-miterlimit="10" stroke-width="1"/>
        <path id="Path_71938" data-name="Path 71938" d="M266.47,320.484v-5.4a5.4,5.4,0,0,1,0,10.808,5.322,5.322,0,0,1-5.14-3.736Z" transform="translate(-220.897 -315.079)" fill="#84aa96" stroke="#263238" stroke-miterlimit="10" stroke-width="1"/>
        <circle id="Ellipse_1442" data-name="Ellipse 1442" cx="3.621" cy="3.621" r="3.621" transform="translate(41.95 1.784)" fill="#fff" stroke="#263238" stroke-linecap="round" stroke-miterlimit="10" stroke-width="1"/>
        <path id="Path_71939" data-name="Path 71939" d="M274.1,331.528h-.769V331.3h1.025v.22l-.6,2.065H273.5Z" transform="translate(-229.822 -327.143)" fill="#263238"/>
        <path id="Path_71940" data-name="Path 71940" d="M278.22,331.784c0-.348.172-.574.512-.574a.506.506,0,0,1,.525.574v1.179c0,.351-.174.579-.525.579s-.512-.228-.512-.579Zm.256,1.2c0,.205.087.331.272.331s.272-.126.272-.331v-1.209c0-.21-.087-.333-.272-.333s-.272.123-.272.333Z" transform="translate(-233.459 -327.076)" fill="#263238"/>
        <path id="Path_71941" data-name="Path 71941" d="M283.853,331.612v.72c0,.223-.1.372-.325.372s-.328-.149-.328-.372v-.72c0-.22.105-.372.328-.372S283.853,331.391,283.853,331.612Zm-.489,0v.746c0,.123.046.2.164.2s.164-.082.164-.2v-.746c0-.126-.051-.21-.164-.21s-.164.074-.164.2Zm1.245-.346-.9,2.286h-.154l.9-2.286Zm.369,1.207v.72c0,.223-.1.369-.325.369s-.328-.146-.328-.369v-.733c0-.218.105-.364.328-.364s.325.149.325.364Zm-.489,0v.741c0,.126.049.21.164.21s.161-.085.161-.21v-.753c0-.126-.049-.208-.161-.208s-.164.077-.164.208Z" transform="translate(-237.163 -327.098)" fill="#263238"/>
        <line id="Line_2508" data-name="Line 2508" x2="6.719" transform="translate(42.122 12.316)" fill="none" stroke="#263238" stroke-miterlimit="10" stroke-width="1"/>
        <line id="Line_2509" data-name="Line 2509" x2="2.57" transform="translate(46.27 13.228)" fill="none" stroke="#263238" stroke-miterlimit="10" stroke-width="1"/>
        <line id="Line_2510" data-name="Line 2510" x2="3.318" transform="translate(42.122 13.228)" fill="none" stroke="#263238" stroke-miterlimit="10" stroke-width="1"/>
        <line id="Line_2511" data-name="Line 2511" x2="6.719" transform="translate(42.122 14.14)" fill="none" stroke="#263238" stroke-miterlimit="10" stroke-width="1"/>
        <line id="Line_2512" data-name="Line 2512" x2="4.479" transform="translate(44.361 15.052)" fill="none" stroke="#263238" stroke-miterlimit="10" stroke-width="1"/>
        <line id="Line_2513" data-name="Line 2513" x2="1.494" transform="translate(42.122 15.052)" fill="none" stroke="#263238" stroke-miterlimit="10" stroke-width="1"/>
        <path id="Path_71942" data-name="Path 71942" d="M347.072,320.482,342.7,317.3a5.243,5.243,0,0,1,4.372-2.227Z" transform="translate(-281.417 -315.077)" fill="#fff" stroke="#263238" stroke-miterlimit="10" stroke-width="1"/>
        <path id="Path_71943" data-name="Path 71943" d="M344.072,320.484v-5.4a5.4,5.4,0,1,1-5.4,5.4,5.179,5.179,0,0,1,1.025-3.177Z" transform="translate(-278.417 -315.079)" fill="#263238" stroke="#263238" stroke-miterlimit="10" stroke-width="1"/>
        <circle id="Ellipse_1443" data-name="Ellipse 1443" cx="3.621" cy="3.621" r="3.621" transform="translate(62.034 1.784)" fill="#fff" stroke="#263238" stroke-linecap="round" stroke-miterlimit="10" stroke-width="1"/>
        <path id="Path_71944" data-name="Path 71944" d="M354,331.733v.072a.451.451,0,0,1-.256.471.461.461,0,0,1,.256.484v.169a.541.541,0,1,1-1.079,0v-.169a.464.464,0,0,1,.256-.484.446.446,0,0,1-.256-.471v-.072a.541.541,0,1,1,1.079,0Zm-.828,0v.11c0,.223.108.32.287.32s.29-.1.29-.32v-.11c0-.236-.11-.343-.29-.343s-.287.115-.287.351Zm0,.989v.192c0,.236.105.349.287.349s.284-.113.29-.349v-.192c0-.22-.1-.331-.29-.331s-.287.118-.287.338Z" transform="translate(-289.018 -327.035)" fill="#263238"/>
        <path id="Path_71945" data-name="Path 71945" d="M358.291,332.2a.371.371,0,0,1,.338-.19c.295,0,.425.215.425.543V333c0,.351-.167.579-.513.579s-.513-.228-.513-.579v-.151h.249v.169c0,.2.085.331.256.331s.269-.126.269-.331v-.446c0-.2-.085-.328-.269-.328a.256.256,0,0,0-.256.243v.054h-.238l.064-1.281h.9v.228h-.674Z" transform="translate(-292.818 -327.113)" fill="#263238"/>
        <path id="Path_71946" data-name="Path 71946" d="M363.593,331.612v.72c0,.223-.105.372-.328.372s-.325-.149-.325-.372v-.72c0-.22.105-.372.325-.372S363.593,331.391,363.593,331.612Zm-.489,0v.746c0,.123.044.2.161.2s.164-.082.164-.2v-.746c0-.126-.049-.21-.164-.21s-.161.074-.161.2Zm1.245-.346-.9,2.286h-.154l.9-2.286Zm.369,1.207v.72c0,.223-.1.369-.328.369s-.325-.146-.325-.369v-.733c0-.218.1-.364.325-.364s.328.149.328.364Zm-.482-.013v.741c0,.126.049.21.164.21s.164-.085.164-.21v-.741c0-.126-.049-.208-.164-.208S364.237,332.329,364.237,332.46Z" transform="translate(-296.47 -327.098)" fill="#263238"/>
        <line id="Line_2514" data-name="Line 2514" x2="6.719" transform="translate(62.408 12.316)" fill="none" stroke="#263238" stroke-miterlimit="10" stroke-width="1"/>
        <line id="Line_2515" data-name="Line 2515" x2="2.57" transform="translate(66.557 13.228)" fill="none" stroke="#263238" stroke-miterlimit="10" stroke-width="1"/>
        <line id="Line_2516" data-name="Line 2516" x2="3.318" transform="translate(62.408 13.228)" fill="none" stroke="#263238" stroke-miterlimit="10" stroke-width="1"/>
        <line id="Line_2517" data-name="Line 2517" x2="6.719" transform="translate(62.408 14.14)" fill="none" stroke="#263238" stroke-miterlimit="10" stroke-width="1"/>
        <line id="Line_2518" data-name="Line 2518" x2="4.479" transform="translate(64.648 15.052)" fill="none" stroke="#263238" stroke-miterlimit="10" stroke-width="1"/>
        <line id="Line_2519" data-name="Line 2519" x2="1.494" transform="translate(62.408 15.052)" fill="none" stroke="#263238" stroke-miterlimit="10" stroke-width="1"/>
      </g>
      <g id="freepik--charts-3--inject-13" transform="translate(80.482 65.995)">
        <path id="Path_71947" data-name="Path 71947" d="M254.162,209.165a.512.512,0,1,0-.512-.513A.513.513,0,0,0,254.162,209.165Z" transform="translate(-252.744 -206.815)" fill="#263238"/>
        <path id="Path_71948" data-name="Path 71948" d="M252.92,214.918l-.794-1.553a.22.22,0,0,0-.215-.118h-.753a.223.223,0,0,0-.218.118l-.792,1.553a.218.218,0,1,0,.387.2l.461-.9v3.423a.208.208,0,1,0,.415,0v-2.35h.256v2.35a.208.208,0,1,0,.415,0v-3.429l.461.9a.215.215,0,0,0,.292.095A.218.218,0,0,0,252.92,214.918Z" transform="translate(-250.115 -210.613)" fill="#263238"/>
        <path id="Path_71949" data-name="Path 71949" d="M265.622,209.165a.512.512,0,1,0-.512-.513A.512.512,0,0,0,265.622,209.165Z" transform="translate(-261.268 -206.815)" fill="#263238"/>
        <path id="Path_71950" data-name="Path 71950" d="M264.38,214.918l-.794-1.553a.218.218,0,0,0-.215-.118h-.753a.218.218,0,0,0-.215.118l-.794,1.553a.218.218,0,1,0,.387.2l.459-.907v3.423a.208.208,0,1,0,.413,0v-2.35h.256v2.35a.208.208,0,0,0,.415,0v-3.423l.461.9a.218.218,0,0,0,.387-.2Z" transform="translate(-258.639 -210.613)" fill="#263238"/>
        <circle id="Ellipse_1444" data-name="Ellipse 1444" cx="0.51" cy="0.51" r="0.51" transform="translate(6.784 1.33)" fill="#263238"/>
        <path id="Path_71951" data-name="Path 71951" d="M275.869,214.918l-.792-1.553a.223.223,0,0,0-.215-.118H274.1a.22.22,0,0,0-.215.118l-.794,1.553a.218.218,0,0,0,.39.2l.461-.9v3.423a.208.208,0,1,0,.415,0v-2.35h.243v2.35a.208.208,0,0,0,.415,0v-3.429l.461.9a.218.218,0,0,0,.387-.2Z" transform="translate(-267.186 -210.613)" fill="#263238"/>
        <path id="Path_71952" data-name="Path 71952" d="M254.162,235.115a.512.512,0,1,0-.512-.512A.512.512,0,0,0,254.162,235.115Z" transform="translate(-252.744 -226.116)" fill="#263238"/>
        <path id="Path_71953" data-name="Path 71953" d="M252.935,240.864l-.794-1.553a.215.215,0,0,0-.215-.115h-.753a.218.218,0,0,0-.218.115l-.792,1.553a.218.218,0,1,0,.387.2l.461-.9v3.426a.208.208,0,1,0,.415,0v-2.35h.256v2.35a.208.208,0,0,0,.415,0V240.17l.461.9a.218.218,0,0,0,.292.095.22.22,0,0,0,.085-.3Z" transform="translate(-250.131 -229.912)" fill="#263238"/>
        <path id="Path_71954" data-name="Path 71954" d="M265.622,235.115a.512.512,0,1,0-.512-.512A.512.512,0,0,0,265.622,235.115Z" transform="translate(-261.268 -226.116)" fill="#263238"/>
        <path id="Path_71955" data-name="Path 71955" d="M264.4,240.864l-.794-1.553a.213.213,0,0,0-.215-.115h-.753a.213.213,0,0,0-.215.115l-.794,1.553a.22.22,0,0,0,.095.295.218.218,0,0,0,.292-.095l.459-.894V243.6a.208.208,0,0,0,.413,0v-2.35h.256v2.35a.208.208,0,1,0,.415,0v-3.426l.461.9a.218.218,0,0,0,.292.095.22.22,0,0,0,.09-.3Z" transform="translate(-258.663 -229.912)" fill="#263238"/>
        <circle id="Ellipse_1445" data-name="Ellipse 1445" cx="0.51" cy="0.51" r="0.51" transform="translate(6.784 7.977)" fill="#263238"/>
        <path id="Path_71956" data-name="Path 71956" d="M275.871,240.864l-.792-1.553a.215.215,0,0,0-.215-.115H274.1a.215.215,0,0,0-.215.115l-.794,1.553a.223.223,0,0,0,.095.295.22.22,0,0,0,.295-.095l.461-.9v3.426a.208.208,0,0,0,.415,0v-2.35h.243v2.35a.208.208,0,0,0,.415,0V240.17l.461.9a.218.218,0,1,0,.387-.2Z" transform="translate(-267.189 -229.912)" fill="#263238"/>
        <circle id="Ellipse_1446" data-name="Ellipse 1446" cx="0.51" cy="0.51" r="0.51" transform="translate(9.721 7.977)" fill="#263238"/>
        <path id="Path_71957" data-name="Path 71957" d="M287.334,240.864l-.794-1.553a.213.213,0,0,0-.215-.115h-.753a.213.213,0,0,0-.215.115l-.794,1.553a.22.22,0,0,0,.095.295.218.218,0,0,0,.292-.095l.477-.894V243.6a.208.208,0,0,0,.413,0v-2.35h.256v2.35a.208.208,0,0,0,.413,0v-3.426l.461.9a.219.219,0,1,0,.389-.2Z" transform="translate(-275.717 -229.912)" fill="#263238"/>
        <path id="Path_71958" data-name="Path 71958" d="M300.012,235.115a.512.512,0,1,0-.512-.512A.512.512,0,0,0,300.012,235.115Z" transform="translate(-286.845 -226.116)" fill="#263238"/>
        <path id="Path_71959" data-name="Path 71959" d="M298.8,240.864,298,239.311a.218.218,0,0,0-.218-.115h-.753a.215.215,0,0,0-.215.115l-.794,1.553a.223.223,0,0,0,.095.295.22.22,0,0,0,.295-.095l.461-.9v3.426a.208.208,0,1,0,.415,0v-2.35h.256v2.35a.208.208,0,1,0,.415,0V240.17l.461.9a.218.218,0,1,0,.387-.2Z" transform="translate(-284.243 -229.912)" fill="#263238"/>
        <path id="Path_71960" data-name="Path 71960" d="M254.162,260.845a.512.512,0,1,0-.512-.513A.513.513,0,0,0,254.162,260.845Z" transform="translate(-252.744 -245.252)" fill="#84aa96" stroke="#263238" stroke-miterlimit="10" stroke-width="0.1"/>
        <path id="Path_71961" data-name="Path 71961" d="M252.935,266.594l-.794-1.55a.213.213,0,0,0-.215-.118h-.753a.215.215,0,0,0-.218.118l-.792,1.55a.218.218,0,1,0,.387.2l.461-.9v3.426a.208.208,0,0,0,.415,0v-2.35h.256v2.35a.208.208,0,0,0,.415,0v-3.423l.461.9a.218.218,0,0,0,.292.095A.22.22,0,0,0,252.935,266.594Z" transform="translate(-250.131 -249.049)" fill="#84aa96" stroke="#263238" stroke-miterlimit="10" stroke-width="0.1"/>
        <path id="Path_71962" data-name="Path 71962" d="M265.622,260.845a.512.512,0,1,0-.512-.513A.512.512,0,0,0,265.622,260.845Z" transform="translate(-261.268 -245.252)" fill="#84aa96" stroke="#263238" stroke-miterlimit="10" stroke-width="0.1"/>
        <path id="Path_71963" data-name="Path 71963" d="M264.4,266.594l-.794-1.55a.21.21,0,0,0-.215-.118h-.753a.21.21,0,0,0-.215.118l-.794,1.55a.22.22,0,0,0,.095.295.218.218,0,0,0,.292-.095l.464-.9v3.426a.208.208,0,1,0,.413,0v-2.35h.256v2.35a.208.208,0,0,0,.415,0v-3.423l.461.9a.218.218,0,0,0,.292.095A.22.22,0,0,0,264.4,266.594Z" transform="translate(-258.663 -249.048)" fill="#84aa96" stroke="#263238" stroke-miterlimit="10" stroke-width="0.1"/>
        <path id="Path_71964" data-name="Path 71964" d="M277.092,260.845a.512.512,0,1,0-.512-.513A.513.513,0,0,0,277.092,260.845Z" transform="translate(-269.799 -245.252)" fill="#84aa96" stroke="#263238" stroke-miterlimit="10" stroke-width="0.1"/>
        <path id="Path_71965" data-name="Path 71965" d="M275.871,266.594l-.792-1.55a.215.215,0,0,0-.215-.118H274.1a.213.213,0,0,0-.215.118l-.794,1.55a.223.223,0,0,0,.095.295.22.22,0,0,0,.295-.095l.461-.9v3.426a.208.208,0,1,0,.415,0v-2.35h.243v2.35a.208.208,0,1,0,.415,0v-3.423l.461.9a.218.218,0,1,0,.387-.2Z" transform="translate(-267.189 -249.049)" fill="#84aa96" stroke="#263238" stroke-miterlimit="10" stroke-width="0.1"/>
        <path id="Path_71966" data-name="Path 71966" d="M288.513,260.845a.512.512,0,1,0-.513-.513A.512.512,0,0,0,288.513,260.845Z" transform="translate(-278.292 -245.252)" fill="#84aa96" stroke="#263238" stroke-miterlimit="10" stroke-width="0.1"/>
        <path id="Path_71967" data-name="Path 71967" d="M287.334,266.594l-.794-1.55a.21.21,0,0,0-.215-.118h-.753a.21.21,0,0,0-.215.118l-.794,1.55a.22.22,0,0,0,.095.295.218.218,0,0,0,.292-.095l.464-.9v3.426a.208.208,0,1,0,.413,0v-2.35h.256v2.35a.208.208,0,1,0,.413,0v-3.423l.461.9a.219.219,0,0,0,.389-.2Z" transform="translate(-275.717 -249.048)" fill="#84aa96" stroke="#263238" stroke-miterlimit="10" stroke-width="0.1"/>
        <path id="Path_71968" data-name="Path 71968" d="M300.012,260.845a.512.512,0,1,0-.512-.513A.513.513,0,0,0,300.012,260.845Z" transform="translate(-286.845 -245.252)" fill="#84aa96" stroke="#263238" stroke-miterlimit="10" stroke-width="0.1"/>
        <path id="Path_71969" data-name="Path 71969" d="M298.8,266.594l-.792-1.55a.215.215,0,0,0-.218-.118h-.753a.213.213,0,0,0-.215.118l-.794,1.55a.223.223,0,0,0,.095.295.22.22,0,0,0,.295-.095l.461-.9v3.426a.208.208,0,0,0,.415,0v-2.35h.256v2.35a.208.208,0,0,0,.415,0v-3.423l.461.9a.218.218,0,1,0,.387-.2Z" transform="translate(-284.243 -249.049)" fill="#84aa96" stroke="#263238" stroke-miterlimit="10" stroke-width="0.1"/>
        <path id="Path_71970" data-name="Path 71970" d="M311.352,260.845a.512.512,0,1,0-.512-.513A.512.512,0,0,0,311.352,260.845Z" transform="translate(-295.28 -245.252)" fill="#84aa96" stroke="#263238" stroke-miterlimit="10" stroke-width="0.1"/>
        <path id="Path_71971" data-name="Path 71971" d="M310.132,266.594l-.792-1.55a.215.215,0,0,0-.218-.118h-.753a.21.21,0,0,0-.215.118l-.794,1.55a.219.219,0,0,0,.389.2l.461-.9v3.426a.208.208,0,1,0,.413,0v-2.35h.256v2.35a.208.208,0,0,0,.415,0v-3.423l.461.9a.218.218,0,1,0,.387-.2Z" transform="translate(-292.673 -249.048)" fill="#84aa96" stroke="#263238" stroke-miterlimit="10" stroke-width="0.1"/>
        <path id="Path_71972" data-name="Path 71972" d="M322.823,260.845a.512.512,0,1,0-.513-.513A.513.513,0,0,0,322.823,260.845Z" transform="translate(-303.811 -245.252)" fill="#84aa96" stroke="#263238" stroke-miterlimit="10" stroke-width="0.1"/>
        <path id="Path_71973" data-name="Path 71973" d="M321.6,266.594l-.794-1.55a.21.21,0,0,0-.215-.118h-.753a.215.215,0,0,0-.218.118l-.792,1.55a.218.218,0,1,0,.387.2l.461-.9v3.426a.208.208,0,1,0,.415,0v-2.35h.256v2.35a.208.208,0,1,0,.413,0v-3.423l.461.9a.219.219,0,1,0,.389-.2Z" transform="translate(-301.197 -249.048)" fill="#84aa96" stroke="#263238" stroke-miterlimit="10" stroke-width="0.1"/>
        <path id="Path_71974" data-name="Path 71974" d="M334.282,260.845a.512.512,0,1,0-.512-.513A.512.512,0,0,0,334.282,260.845Z" transform="translate(-312.334 -245.252)" fill="#84aa96" stroke="#263238" stroke-miterlimit="10" stroke-width="0.1"/>
        <path id="Path_71975" data-name="Path 71975" d="M333.062,266.594l-.792-1.55a.215.215,0,0,0-.218-.118H331.3a.21.21,0,0,0-.215.118l-.794,1.55a.219.219,0,0,0,.389.2l.461-.9v3.426a.208.208,0,1,0,.413,0v-2.35h.256v2.35a.208.208,0,1,0,.415,0v-3.423l.461.9a.218.218,0,1,0,.387-.2Z" transform="translate(-309.728 -249.048)" fill="#84aa96" stroke="#263238" stroke-miterlimit="10" stroke-width="0.1"/>
        <path id="Path_71976" data-name="Path 71976" d="M293.794,214.672v.079a.737.737,0,0,0,0,1.289v.241c0,.479-.223.789-.7.789s-.7-.31-.7-.789v-.213h.325v.236c0,.282.115.451.364.451s.366-.167.366-.482v-.241c0-.307-.128-.456-.392-.464h-.187v-.313h.2a.374.374,0,0,0,.374-.428v-.141c0-.32-.11-.484-.366-.484s-.364.172-.364.454v.161h-.325v-.144c0-.477.223-.784.7-.784S293.794,214.195,293.794,214.672Z" transform="translate(-281.557 -211.092)" fill="#263238"/>
        <path id="Path_71977" data-name="Path 71977" d="M299.09,214.664c0-.477.236-.784.712-.784a.685.685,0,0,1,.717.784v1.609c0,.479-.236.789-.717.789s-.712-.31-.712-.789Zm.343,1.632c0,.282.12.451.369.451s.372-.169.372-.451v-1.65c0-.284-.118-.454-.372-.454s-.369.169-.369.454Z" transform="translate(-286.541 -211.084)" fill="#263238"/>
        <path id="Path_71978" data-name="Path 71978" d="M306.782,214.412v.984c0,.3-.141.512-.446.512s-.446-.2-.446-.512v-.984c0-.3.143-.512.446-.512S306.782,214.113,306.782,214.412Zm-.669-.015v1.025c0,.169.064.282.223.282s.223-.113.223-.282V214.4c0-.169-.067-.284-.223-.284S306.113,214.228,306.113,214.4Zm1.7-.471-1.23,3.121h-.21l1.23-3.121Zm.512,1.65v.981c0,.3-.138.512-.446.512s-.446-.2-.446-.512v-.981c0-.3.141-.5.446-.5s.438.2.438.5Zm-.669-.013v1.025c0,.169.067.284.223.284s.223-.115.223-.284v-1.025c0-.169-.067-.282-.223-.282s-.231.113-.231.282Z" transform="translate(-291.598 -211.099)" fill="#263238"/>
        <path id="Path_71979" data-name="Path 71979" d="M316.771,241.731a.513.513,0,0,1,.464-.256c.4,0,.582.295.582.741v.61c0,.479-.228.789-.7.789s-.7-.31-.7-.789v-.208h.328v.231c0,.282.115.451.364.451s.366-.169.366-.451v-.61c0-.279-.115-.448-.366-.448a.333.333,0,0,0-.351.333v.072h-.325l.085-1.735h1.23v.313h-.922Z" transform="translate(-299.422 -230.853)" fill="#263238"/>
        <path id="Path_71980" data-name="Path 71980" d="M323.1,241.124c0-.477.236-.784.712-.784a.685.685,0,0,1,.717.784v1.609c0,.479-.236.789-.717.789s-.712-.31-.712-.789Zm.343,1.632c0,.282.12.451.369.451s.372-.169.372-.451v-1.65c0-.284-.118-.454-.372-.454s-.369.169-.369.454Z" transform="translate(-304.398 -230.764)" fill="#263238"/>
        <path id="Path_71981" data-name="Path 71981" d="M330.792,240.872v.984c0,.3-.141.512-.446.512s-.446-.2-.446-.512v-.984c0-.3.143-.512.446-.512S330.792,240.573,330.792,240.872Zm-.669-.013v1.025c0,.169.064.282.223.282s.223-.113.223-.282V240.86c0-.172-.067-.287-.223-.287s-.223.115-.223.287Zm1.7-.474-1.23,3.121h-.21l1.233-3.121Zm.512,1.65v.981c0,.3-.138.512-.446.512s-.446-.2-.446-.512v-.981c0-.3.144-.512.446-.512s.438.213.438.512Zm-.669-.013v1.025c0,.169.067.284.223.284s.223-.115.223-.284v-1.025c0-.169-.067-.282-.223-.282s-.231.113-.231.282Z" transform="translate(-309.456 -230.779)" fill="#263238"/>
        <path id="Path_71982" data-name="Path 71982" d="M349.123,268.069v.1a.615.615,0,0,1-.356.643.633.633,0,0,1,.356.659v.233a.736.736,0,1,1-1.471,0v-.233a.628.628,0,0,1,.361-.659.61.61,0,0,1-.361-.643v-.1a.736.736,0,1,1,1.471,0Zm-1.127,0v.154c0,.3.146.436.392.436s.392-.133.392-.436v-.154c0-.32-.146-.466-.392-.466s-.395.154-.395.474Zm0,1.353v.256c0,.323.143.474.392.474s.389-.151.392-.474v-.256c0-.3-.133-.451-.392-.451s-.395.154-.395.459Z" transform="translate(-322.654 -250.816)" fill="#263238"/>
        <path id="Path_71983" data-name="Path 71983" d="M354.55,268.074c0-.477.236-.784.712-.784a.685.685,0,0,1,.717.784v1.609c0,.479-.236.789-.717.789s-.712-.31-.712-.789Zm.341,1.632c0,.282.12.451.372.451s.369-.169.369-.451v-1.65c0-.284-.115-.454-.369-.454s-.372.169-.372.454Z" transform="translate(-327.789 -250.808)" fill="#263238"/>
        <path id="Path_71984" data-name="Path 71984" d="M362.242,267.823v.984c0,.3-.143.512-.446.512s-.446-.2-.446-.512v-.984c0-.3.143-.513.446-.513S362.242,267.523,362.242,267.823Zm-.669-.013v1.025c0,.172.061.282.223.282s.223-.11.223-.282V267.81c0-.172-.067-.287-.223-.287S361.573,267.638,361.573,267.81Zm1.7-.474-1.23,3.121h-.21l1.23-3.121Zm.512,1.65v.981c0,.3-.138.513-.446.513s-.446-.2-.446-.513v-.981c0-.3.141-.513.446-.513s.438.213.438.513Zm-.669-.013v1.012c0,.169.067.284.223.284s.223-.115.223-.284v-1.012c0-.169-.067-.282-.223-.282s-.231.113-.231.282Z" transform="translate(-332.847 -250.823)" fill="#263238"/>
        <rect id="Rectangle_14728" data-name="Rectangle 14728" width="8.487" height="4.618" rx="2.309" transform="translate(20.378)" fill="none" stroke="#ccc" stroke-miterlimit="10" stroke-width="0.1"/>
        <path id="Path_71985" data-name="Path 71985" d="M342.92,208.678a.325.325,0,0,1,.651,0v.707a.325.325,0,0,1-.651,0Zm.215.723c0,.095.038.136.11.136s.11-.041.11-.136v-.738c0-.095-.044-.133-.11-.133s-.11.038-.11.133Zm.958-1.051h.2l-.848,2.152h-.2Zm-.108,1.115a.325.325,0,0,1,.651,0v.707a.325.325,0,0,1-.651,0Zm.215.723c0,.1.038.136.11.136s.11-.038.11-.136v-.735c0-.1-.044-.136-.11-.136s-.11.038-.11.136Z" transform="translate(-319.139 -206.971)" fill="#263238"/>
      </g>
      <g id="freepik--charts-2--inject-13" transform="translate(42.352 65.995)">
        <line id="Line_2520" data-name="Line 2520" x2="33.499" transform="translate(0 20.395)" fill="none" stroke="#ccc" stroke-miterlimit="10" stroke-width="0.7"/>
        <line id="Line_2521" data-name="Line 2521" x2="33.499" transform="translate(0 16.133)" fill="none" stroke="#ccc" stroke-miterlimit="10" stroke-width="0.7"/>
        <line id="Line_2522" data-name="Line 2522" x2="33.499" transform="translate(0 11.872)" fill="none" stroke="#ccc" stroke-miterlimit="10" stroke-width="0.7"/>
        <line id="Line_2523" data-name="Line 2523" x2="33.499" transform="translate(0 7.61)" fill="none" stroke="#ccc" stroke-miterlimit="10" stroke-width="0.7"/>
        <rect id="Rectangle_14729" data-name="Rectangle 14729" width="8.487" height="4.618" rx="2.309" transform="translate(0.615)" fill="none" stroke="#ccc" stroke-miterlimit="10" stroke-width="0.7"/>
        <rect id="Rectangle_14730" data-name="Rectangle 14730" width="8.487" height="4.618" rx="2.309" transform="translate(10.847)" fill="none" stroke="#ccc" stroke-miterlimit="10" stroke-width="0.7"/>
        <path id="Path_71986" data-name="Path 71986" d="M109.95,206.013v-.223h.384v.223a.652.652,0,0,1,.512.73v.092H110.4v-.123c0-.213-.085-.295-.233-.295s-.236.082-.236.295c0,.615.917.646.917,1.5a.657.657,0,0,1-.512.735v.228h-.384v-.218a.659.659,0,0,1-.512-.735v-.2h.443v.236c0,.213.095.29.243.29s.256-.077.256-.29c0-.615-.917-.646-.917-1.5C109.455,206.341,109.622,206.085,109.95,206.013Z" transform="translate(-107.357 -205.067)" fill="#263238"/>
        <path id="Path_71987" data-name="Path 71987" d="M116,207.161a.713.713,0,1,1,1.425,0v1.555a.713.713,0,1,1-1.425,0Zm.469,1.584c0,.215.092.295.256.295s.256-.079.256-.295V207.13c0-.213-.095-.295-.256-.295s-.256.082-.256.295Z" transform="translate(-112.236 -205.529)" fill="#263238"/>
        <path id="Path_71988" data-name="Path 71988" d="M123.194,216.44v.454h-.454v-.454Z" transform="translate(-117.249 -212.988)" fill="#263238"/>
        <path id="Path_71989" data-name="Path 71989" d="M125.69,207.154a.717.717,0,1,1,1.427,0v1.555a.715.715,0,1,1-1.427,0Zm.469,1.584c0,.215.095.295.256.295s.243-.079.243-.295v-1.614c0-.213-.092-.295-.243-.295s-.256.082-.256.295Z" transform="translate(-119.443 -205.521)" fill="#263238"/>
        <path id="Path_71990" data-name="Path 71990" d="M148.72,207.161a.713.713,0,1,1,1.425,0v1.555a.713.713,0,1,1-1.425,0Zm.469,1.584c0,.215.095.295.243.295s.243-.079.243-.295V207.13c0-.213-.095-.295-.243-.295s-.243.082-.243.295Z" transform="translate(-136.571 -205.529)" fill="#263238"/>
        <path id="Path_71991" data-name="Path 71991" d="M155.914,216.44v.454h-.454v-.454Z" transform="translate(-141.584 -212.988)" fill="#263238"/>
        <path id="Path_71992" data-name="Path 71992" d="M158.392,207.154a.715.715,0,1,1,1.427,0v1.555a.717.717,0,1,1-1.427,0Zm.471,1.584c0,.215.092.295.243.295s.256-.079.256-.295v-1.614c0-.213-.095-.295-.256-.295s-.243.082-.243.295Z" transform="translate(-143.761 -205.521)" fill="#263238"/>
        <path id="Path_71993" data-name="Path 71993" d="M165.056,206.9a.454.454,0,1,1,.9,0v.984a.454.454,0,1,1-.9,0Zm.3,1c0,.133.054.187.154.187s.154-.054.154-.187v-1.025c0-.133-.062-.187-.154-.187s-.154.054-.154.187Zm1.33-1.461h.279l-1.179,2.99h-.277Zm-.149,1.55a.454.454,0,1,1,.9,0v.981a.454.454,0,1,1-.9,0Zm.3,1c0,.131.054.187.154.187s.154-.056.154-.187v-1.025c0-.133-.061-.19-.154-.19s-.154.056-.154.19Z" transform="translate(-148.721 -205.534)" fill="#263238"/>
        <rect id="Rectangle_14731" data-name="Rectangle 14731" width="5.632" height="18.109" transform="translate(26.409 2.286)" fill="#84aa96" stroke="#263238" stroke-miterlimit="10" stroke-width="0.7"/>
        <rect id="Rectangle_14732" data-name="Rectangle 14732" width="5.632" height="14.913" transform="translate(20.151 5.481)" fill="#263238" stroke="#263238" stroke-miterlimit="10" stroke-width="0.7"/>
        <rect id="Rectangle_14733" data-name="Rectangle 14733" width="5.632" height="8.523" transform="translate(13.894 11.872)" fill="#84aa96" stroke="#263238" stroke-miterlimit="10" stroke-width="0.7"/>
        <rect id="Rectangle_14734" data-name="Rectangle 14734" width="5.632" height="8.523" transform="translate(1.407 11.872)" fill="#84aa96" stroke="#263238" stroke-miterlimit="10" stroke-width="0.7"/>
        <rect id="Rectangle_14735" data-name="Rectangle 14735" width="5.632" height="5.327" transform="translate(7.636 15.067)" fill="#263238" stroke="#263238" stroke-miterlimit="10" stroke-width="0.7"/>
        <line id="Line_2524" data-name="Line 2524" x2="4.5" transform="translate(8.169 22.465)" fill="none" stroke="#ccc" stroke-miterlimit="10" stroke-width="0.7"/>
        <line id="Line_2525" data-name="Line 2525" x2="4.5" transform="translate(2.019 22.465)" fill="none" stroke="#ccc" stroke-miterlimit="10" stroke-width="0.7"/>
        <line id="Line_2526" data-name="Line 2526" x2="4.5" transform="translate(14.496 22.465)" fill="none" stroke="#ccc" stroke-miterlimit="10" stroke-width="0.7"/>
        <line id="Line_2527" data-name="Line 2527" x2="4.5" transform="translate(20.822 22.465)" fill="none" stroke="#ccc" stroke-miterlimit="10" stroke-width="0.7"/>
        <line id="Line_2528" data-name="Line 2528" x2="4.5" transform="translate(26.726 22.465)" fill="none" stroke="#ccc" stroke-miterlimit="10" stroke-width="0.7"/>
      </g>
      <g id="freepik--charts-1--inject-13" transform="translate(44.217 33.457)">
        <path id="Path_71994" data-name="Path 71994" d="M135.86,119.4l13.32-.935,13.191,3.464,13.3-5.891,13.44-5.635" transform="translate(-128.872 -101.583)" fill="none" stroke="#263238" stroke-miterlimit="10" stroke-width="2"/>
        <circle id="Ellipse_1447" data-name="Ellipse 1447" cx="3.962" cy="3.962" r="3.962" transform="translate(29.537 16.382)" fill="#84aa96" stroke="#263238" stroke-linecap="round" stroke-miterlimit="10" stroke-width="1"/>
        <path id="Path_71995" data-name="Path 71995" d="M233.71,152.63a.29.29,0,0,1,.269-.149c.231,0,.336.169.336.428v.354c0,.277-.133.459-.41.459s-.4-.182-.4-.459v-.12h.19v.133c0,.164.067.256.21.256s.213-.1.213-.256v-.351c0-.161-.067-.256-.213-.256a.195.195,0,0,0-.2.195v.041h-.19l.049-1h.715v.179h-.533Z" transform="translate(-201.492 -132.448)" fill="#263238"/>
        <path id="Path_71996" data-name="Path 71996" d="M237.38,152.261c0-.277.136-.454.413-.454a.4.4,0,0,1,.418.454v.933c0,.277-.138.459-.418.459s-.413-.182-.413-.459Zm.2.946c0,.164.072.256.215.256s.215-.1.215-.256v-.956c0-.164-.067-.256-.215-.256s-.215.1-.215.256Z" transform="translate(-204.378 -132.379)" fill="#263238"/>
        <path id="Path_71997" data-name="Path 71997" d="M241.852,152.152v.571c0,.174-.082.292-.256.292s-.256-.118-.256-.292v-.571c0-.174.085-.292.256-.292S241.852,151.973,241.852,152.152Zm-.387,0v.589c0,.1.036.161.128.161s.131-.064.131-.161v-.589c0-.1-.038-.167-.131-.167S241.466,152.039,241.466,152.152Zm.984-.274-.712,1.809h-.123l.715-1.809Zm.292.956v.569c0,.177-.079.292-.256.292s-.256-.115-.256-.292v-.569c0-.174.085-.29.256-.29s.256.1.256.277Zm-.387,0v.587c0,.1.038.167.128.167s.131-.069.131-.167v-.587c0-.1-.038-.164-.131-.164s-.128.046-.128.144Z" transform="translate(-207.324 -132.419)" fill="#263238"/>
        <circle id="Ellipse_1448" data-name="Ellipse 1448" cx="4.4" cy="4.4" r="4.4" transform="translate(0.766 17.812) rotate(-45)" fill="#84aa96" stroke="#263238" stroke-linecap="round" stroke-miterlimit="10" stroke-width="1"/>
        <path id="Path_71998" data-name="Path 71998" d="M130.014,141.812h-.684v-.2h.912v.195l-.513,1.817H129.5Z" transform="translate(-124.015 -124.795)" fill="#263238"/>
        <path id="Path_71999" data-name="Path 71999" d="M133.7,142.022c0-.307.151-.512.459-.512s.464.2.464.512v1.025c0,.307-.154.512-.464.512s-.459-.2-.459-.512Zm.22,1.051c0,.179.079.29.238.29s.238-.11.238-.29V142.01c0-.184-.074-.292-.238-.292s-.238.108-.238.292Z" transform="translate(-127.266 -124.721)" fill="#263238"/>
        <path id="Path_72000" data-name="Path 72000" d="M138.654,141.893v.635c0,.195-.092.325-.287.325s-.287-.131-.287-.325v-.635c0-.192.092-.323.287-.323S138.654,141.7,138.654,141.893Zm-.43,0v.653c0,.11.041.182.143.182s.144-.072.144-.182v-.661c0-.11-.044-.184-.144-.184s-.143.074-.143.184Zm1.094-.3-.792,2.012h-.136l.794-2.012Zm.325,1.063v.63c0,.195-.09.325-.287.325s-.287-.131-.287-.325v-.63c0-.192.092-.323.287-.323s.287.12.287.315Zm-.43,0v.653c0,.108.044.182.143.182s.144-.074.144-.182v-.653c0-.108-.044-.179-.144-.179s-.143.054-.143.161Z" transform="translate(-130.523 -124.765)" fill="#263238"/>
        <circle id="Ellipse_1449" data-name="Ellipse 1449" cx="5.189" cy="5.189" r="5.189" transform="translate(39.458 14.454) rotate(-45)" fill="#fff" stroke="#263238" stroke-linecap="round" stroke-miterlimit="10" stroke-width="1"/>
        <path id="Path_72001" data-name="Path 72001" d="M284.634,128.267v1.209c0,.377-.169.612-.548.612s-.536-.233-.536-.6v-.044h.256v.061c0,.213.092.338.282.338s.29-.128.29-.379v-.53a.377.377,0,0,1-.382.256c-.3,0-.441-.215-.441-.559v-.369c0-.364.177-.6.543-.6S284.634,127.911,284.634,128.267Zm-.825-.013v.354c0,.215.092.343.282.343s.279-.128.279-.343v-.341c0-.218-.087-.343-.279-.343s-.282.12-.282.343Z" transform="translate(-238.717 -114.427)" fill="#263238"/>
        <path id="Path_72002" data-name="Path 72002" d="M288.7,128.267c0-.364.179-.6.541-.6a.522.522,0,0,1,.546.6v1.222c0,.364-.179.6-.546.6s-.541-.236-.541-.6Zm.256,1.24c0,.213.092.341.282.341s.282-.128.282-.341v-1.24c0-.218-.09-.346-.282-.346s-.282.128-.282.346Z" transform="translate(-242.548 -114.427)" fill="#263238"/>
        <path id="Path_72003" data-name="Path 72003" d="M294.539,128.122v.751c0,.231-.108.382-.338.382s-.341-.151-.341-.382v-.751c0-.225.11-.382.341-.382S294.539,127.9,294.539,128.122Zm-.512,0v.769c0,.128.046.213.169.213s.169-.085.169-.213v-.769c0-.131-.051-.218-.169-.218s-.164.079-.164.21Zm1.281-.361-.935,2.373h-.159l.935-2.373Zm.384,1.256v.743c0,.231-.105.384-.341.384s-.338-.154-.338-.384v-.743c0-.228.11-.382.338-.382a.334.334,0,0,1,.354.374Zm-.513,0v.769c0,.128.051.215.169.215s.172-.087.172-.215v-.769c0-.131-.051-.215-.172-.215s-.154.067-.154.2Z" transform="translate(-246.386 -114.479)" fill="#263238"/>
        <circle id="Ellipse_1450" data-name="Ellipse 1450" cx="5.332" cy="5.332" r="5.332" transform="translate(14.972 11.546)" fill="#fff" stroke="#263238" stroke-linecap="round" stroke-miterlimit="10" stroke-width="1"/>
        <path id="Path_72004" data-name="Path 72004" d="M178.2,137.013a.723.723,0,0,1-.338.105V136.9a.42.42,0,0,0,.42-.325h.187v2.439h-.256Z" transform="translate(-160.11 -121.047)" fill="#263238"/>
        <path id="Path_72005" data-name="Path 72005" d="M181.75,137.092c0-.372.185-.612.556-.612a.536.536,0,0,1,.561.612v1.258c0,.372-.184.615-.561.615s-.556-.256-.556-.615Zm.269,1.281c0,.218.092.351.287.351s.29-.133.29-.351v-1.281c0-.223-.09-.356-.29-.356s-.287.133-.287.356Z" transform="translate(-163.003 -120.98)" fill="#263238"/>
        <path id="Path_72006" data-name="Path 72006" d="M187,137.092c0-.372.187-.612.559-.612a.536.536,0,0,1,.561.612v1.258c0,.372-.185.615-.561.615a.54.54,0,0,1-.559-.615Zm.269,1.281c0,.218.095.351.29.351s.29-.133.29-.351v-1.281c0-.223-.092-.356-.29-.356s-.29.133-.29.356Z" transform="translate(-166.908 -120.98)" fill="#263238"/>
        <path id="Path_72007" data-name="Path 72007" d="M193.047,136.915v.769c0,.236-.113.395-.349.395s-.348-.159-.348-.395v-.769c0-.236.11-.395.348-.395S193.047,136.679,193.047,136.915Zm-.513-.013v.794c0,.133.049.22.174.22s.174-.087.174-.22v-.8c0-.131-.054-.223-.174-.223a.2.2,0,0,0-.192.223Zm1.327-.369-.963,2.439h-.161l.961-2.439Zm.392,1.281v.769c0,.238-.108.395-.348.395s-.349-.156-.349-.395v-.769c0-.233.113-.389.349-.389s.338.164.338.4Zm-.513,0v.792c0,.131.054.223.174.223s.174-.092.174-.223v-.792c0-.131-.051-.218-.174-.218a.19.19,0,0,0-.195.215Z" transform="translate(-170.887 -121.01)" fill="#263238"/>
        <circle id="Ellipse_1451" data-name="Ellipse 1451" cx="6.555" cy="6.555" r="6.555" transform="translate(50.724 9.27) rotate(-45)" fill="#84aa96" stroke="#263238" stroke-linecap="round" stroke-miterlimit="10" stroke-width="1"/>
        <path id="Path_72008" data-name="Path 72008" d="M330.885,106.223a.892.892,0,0,1-.415.128v-.274a.512.512,0,0,0,.512-.4h.231v3h-.328Z" transform="translate(-273.614 -98.072)" fill="#263238"/>
        <path id="Path_72009" data-name="Path 72009" d="M336.666,106.274c0,.9-1.025,1.227-1.025,1.917v.046h.984v.3H335.31v-.256c0-.969,1.025-1.156,1.025-2,0-.307-.1-.471-.351-.471s-.351.177-.351.441v.256h-.313v-.243c0-.459.21-.769.671-.769S336.666,105.815,336.666,106.274Z" transform="translate(-277.214 -97.938)" fill="#263238"/>
        <path id="Path_72010" data-name="Path 72010" d="M341.7,106.313c0-.456.228-.753.687-.753s.687.3.687.753v1.537c0,.459-.225.769-.687.769s-.687-.3-.687-.769Zm.331,1.566c0,.272.115.433.356.433s.354-.161.354-.433V106.3c0-.274-.11-.438-.354-.438s-.356.164-.356.438Z" transform="translate(-281.967 -97.983)" fill="#263238"/>
        <path id="Path_72011" data-name="Path 72011" d="M349.086,106.094v.946c0,.292-.136.484-.428.484s-.428-.192-.428-.484v-.946c0-.287.138-.484.428-.484S349.086,105.807,349.086,106.094Zm-.641,0v.976c0,.161.059.256.213.256s.215-.108.215-.256v-.976c0-.161-.064-.274-.215-.274s-.213.1-.213.261Zm1.63-.454-1.181,3h-.21l1.179-3Zm.484,1.584v.94c0,.292-.133.484-.428.484s-.428-.192-.428-.484v-.94c0-.287.136-.479.428-.479s.428.179.428.466Zm-.643,0v.971c0,.161.064.274.215.274s.213-.113.213-.274v-.971c0-.164-.064-.256-.213-.256s-.215.067-.215.231Z" transform="translate(-286.823 -98.02)" fill="#263238"/>
        <line id="Line_2529" data-name="Line 2529" x2="6.719" transform="translate(3.429 23.826)" fill="none" stroke="#263238" stroke-miterlimit="10" stroke-width="0.4"/>
        <line id="Line_2530" data-name="Line 2530" x2="2.573" transform="translate(7.575 24.738)" fill="none" stroke="#263238" stroke-miterlimit="10" stroke-width="0.4"/>
        <line id="Line_2531" data-name="Line 2531" x2="3.318" transform="translate(3.429 24.738)" fill="none" stroke="#263238" stroke-miterlimit="10" stroke-width="0.4"/>
        <line id="Line_2532" data-name="Line 2532" x2="6.719" transform="translate(3.429 25.65)" fill="none" stroke="#263238" stroke-miterlimit="10" stroke-width="0.4"/>
        <line id="Line_2533" data-name="Line 2533" x2="4.479" transform="translate(5.668 26.562)" fill="none" stroke="#263238" stroke-miterlimit="10" stroke-width="0.4"/>
        <line id="Line_2534" data-name="Line 2534" x2="1.494" transform="translate(3.429 26.562)" fill="none" stroke="#263238" stroke-miterlimit="10" stroke-width="0.4"/>
        <line id="Line_2535" data-name="Line 2535" x2="6.719" transform="translate(17.194 23.826)" fill="none" stroke="#263238" stroke-miterlimit="10" stroke-width="0.4"/>
        <line id="Line_2536" data-name="Line 2536" x2="2.57" transform="translate(21.343 24.738)" fill="none" stroke="#263238" stroke-miterlimit="10" stroke-width="0.4"/>
        <line id="Line_2537" data-name="Line 2537" x2="3.318" transform="translate(17.194 24.738)" fill="none" stroke="#263238" stroke-miterlimit="10" stroke-width="0.4"/>
        <line id="Line_2538" data-name="Line 2538" x2="6.719" transform="translate(17.194 25.65)" fill="none" stroke="#263238" stroke-miterlimit="10" stroke-width="0.4"/>
        <line id="Line_2539" data-name="Line 2539" x2="4.479" transform="translate(19.434 26.562)" fill="none" stroke="#263238" stroke-miterlimit="10" stroke-width="0.4"/>
        <line id="Line_2540" data-name="Line 2540" x2="1.494" transform="translate(17.194 26.562)" fill="none" stroke="#263238" stroke-miterlimit="10" stroke-width="0.4"/>
        <line id="Line_2541" data-name="Line 2541" x2="6.719" transform="translate(29.883 26.065)" fill="none" stroke="#263238" stroke-miterlimit="10" stroke-width="0.4"/>
        <line id="Line_2542" data-name="Line 2542" x2="2.573" transform="translate(34.029 26.977)" fill="none" stroke="#263238" stroke-miterlimit="10" stroke-width="0.4"/>
        <line id="Line_2543" data-name="Line 2543" x2="3.318" transform="translate(29.883 26.977)" fill="none" stroke="#263238" stroke-miterlimit="10" stroke-width="0.4"/>
        <line id="Line_2544" data-name="Line 2544" x2="6.719" transform="translate(29.883 27.89)" fill="none" stroke="#263238" stroke-miterlimit="10" stroke-width="0.4"/>
        <line id="Line_2545" data-name="Line 2545" x2="4.479" transform="translate(32.123 28.802)" fill="none" stroke="#263238" stroke-miterlimit="10" stroke-width="0.4"/>
        <line id="Line_2546" data-name="Line 2546" x2="1.494" transform="translate(29.883 28.802)" fill="none" stroke="#263238" stroke-miterlimit="10" stroke-width="0.4"/>
        <line id="Line_2547" data-name="Line 2547" x2="6.716" transform="translate(43.733 20.925)" fill="none" stroke="#263238" stroke-miterlimit="10" stroke-width="0.4"/>
        <line id="Line_2548" data-name="Line 2548" x2="2.57" transform="translate(47.879 21.837)" fill="none" stroke="#263238" stroke-miterlimit="10" stroke-width="0.4"/>
        <line id="Line_2549" data-name="Line 2549" x2="3.316" transform="translate(43.733 21.837)" fill="none" stroke="#263238" stroke-miterlimit="10" stroke-width="0.4"/>
        <line id="Line_2550" data-name="Line 2550" x2="6.716" transform="translate(43.733 22.749)" fill="none" stroke="#263238" stroke-miterlimit="10" stroke-width="0.4"/>
        <line id="Line_2551" data-name="Line 2551" x2="4.477" transform="translate(45.973 23.662)" fill="none" stroke="#263238" stroke-miterlimit="10" stroke-width="0.4"/>
        <line id="Line_2552" data-name="Line 2552" x2="1.491" transform="translate(43.733 23.662)" fill="none" stroke="#263238" stroke-miterlimit="10" stroke-width="0.4"/>
        <line id="Line_2553" data-name="Line 2553" x2="6.716" transform="translate(56.671 17.191)" fill="none" stroke="#263238" stroke-miterlimit="10" stroke-width="0.4"/>
        <line id="Line_2554" data-name="Line 2554" x2="2.57" transform="translate(60.817 18.104)" fill="none" stroke="#263238" stroke-miterlimit="10" stroke-width="0.4"/>
        <line id="Line_2555" data-name="Line 2555" x2="3.316" transform="translate(56.671 18.104)" fill="none" stroke="#263238" stroke-miterlimit="10" stroke-width="0.4"/>
        <line id="Line_2556" data-name="Line 2556" x2="6.716" transform="translate(56.671 19.016)" fill="none" stroke="#263238" stroke-miterlimit="10" stroke-width="0.4"/>
        <line id="Line_2557" data-name="Line 2557" x2="4.477" transform="translate(58.911 19.928)" fill="none" stroke="#263238" stroke-miterlimit="10" stroke-width="0.4"/>
        <line id="Line_2558" data-name="Line 2558" x2="1.491" transform="translate(56.671 19.928)" fill="none" stroke="#263238" stroke-miterlimit="10" stroke-width="0.4"/>
        <path id="Path_72012" data-name="Path 72012" d="M109.638,83.047V82.77h.482v.277a.813.813,0,0,1,.63.915v.118h-.556v-.154c0-.256-.108-.369-.295-.369s-.295.1-.295.369c0,.769,1.151.807,1.151,1.876a.817.817,0,0,1-.635.92V87h-.482v-.274A.816.816,0,0,1,109,85.8v-.256h.559v.295c0,.256.118.364.3.364s.3-.1.3-.364c0-.769-1.151-.807-1.151-1.878A.817.817,0,0,1,109.638,83.047Z" transform="translate(-108.895 -81.033)" fill="#263238"/>
        <path id="Path_72013" data-name="Path 72013" d="M118.261,84.076c-.187,0-.3.1-.3.369v.4H117.4V84.48a.879.879,0,1,1,1.753,0c0,1.179-1.171,1.617-1.171,2.232a.414.414,0,0,0,0,.079h1.11v.536H117.4v-.461c0-1.1,1.166-1.281,1.166-2.363C118.579,84.17,118.448,84.076,118.261,84.076Z" transform="translate(-115.142 -81.605)" fill="#263238"/>
        <path id="Path_72014" data-name="Path 72014" d="M126.706,84.5c0-.338-.118-.428-.3-.428s-.3.1-.3.369v.238h-.556V84.47a.879.879,0,1,1,1.753,0v.1a.726.726,0,0,1-.41.769.763.763,0,0,1,.41.784v.295c0,.6-.3.943-.876.943s-.876-.343-.876-.943v-.3h.556v.359c0,.256.118.369.3.369s.3-.092.3-.423v-.3c0-.346-.118-.477-.387-.477h-.2V85.1h.231c.22,0,.354-.1.354-.4Z" transform="translate(-121.197 -81.598)" fill="#263238"/>
        <path id="Path_72015" data-name="Path 72015" d="M134.5,96.11v.566h-.566V96.11Z" transform="translate(-127.437 -90.954)" fill="#263238"/>
        <path id="Path_72016" data-name="Path 72016" d="M137.27,86.239l1.069-2.529h.656v2.529h.256v.536h-.256v.679h-.579v-.679h-1.133Zm1.133,0V84.832l-.592,1.407Z" transform="translate(-129.921 -81.732)" fill="#263238"/>
        <path id="Path_72017" data-name="Path 72017" d="M146.548,86.244V86.6c0,.256.118.364.3.364s.3-.1.3-.364v-.835c0-.256-.118-.369-.3-.369s-.3.1-.3.369v.113H146l.108-2.17h1.55v.536h-1.025l-.049.892a.559.559,0,0,1,.513-.272c.433,0,.653.3.653.856v.833c0,.6-.3.943-.876.943s-.874-.343-.874-.943v-.31Z" transform="translate(-136.414 -81.732)" fill="#263238"/>
        <path id="Path_72018" data-name="Path 72018" d="M154.2,84.514c0-.63.287-.974.9-.974s.879.343.879.94v.1h-.546v-.133c0-.256-.118-.369-.3-.369s-.328.1-.328.459v.687a.561.561,0,0,1,.546-.333c.433,0,.653.3.653.856v.684a.894.894,0,1,1-1.786,0Zm.587,1.281v.682c0,.256.118.364.3.364s.3-.1.3-.364v-.684c0-.256-.118-.369-.3-.369s-.3.1-.3.369Z" transform="translate(-142.513 -81.605)" fill="#263238"/>
        <path id="Path_72019" data-name="Path 72019" d="M162.61,96.676V96.11h.566v.512l-.256.594h-.241l.156-.536Z" transform="translate(-148.768 -90.954)" fill="#263238"/>
        <path id="Path_72020" data-name="Path 72020" d="M168.046,86.4c0,.63-.287.974-.9.974s-.879-.343-.879-.943v-.095h.556v.143c0,.256.118.369.3.369s.328-.1.328-.461V85.69a.561.561,0,0,1-.546.333c-.433,0-.653-.3-.653-.856V84.48a.894.894,0,1,1,1.786,0Zm-.587-1.281v-.671c0-.256-.118-.364-.3-.364s-.3.095-.3.364v.674c0,.256.118.369.3.369s.3-.1.3-.369Z" transform="translate(-151.482 -81.605)" fill="#263238"/>
        <path id="Path_72021" data-name="Path 72021" d="M174.57,84.48a.894.894,0,1,1,1.786,0v1.947a.894.894,0,1,1-1.786,0Zm.589,1.986c0,.256.115.369.3.369s.3-.1.3-.369V84.445c0-.256-.115-.369-.3-.369s-.3.1-.3.369Z" transform="translate(-157.663 -81.605)" fill="#263238"/>
        <line id="Line_2559" data-name="Line 2559" x2="19.106" transform="translate(0 7.746)" fill="none" stroke="#263238" stroke-miterlimit="10" stroke-width="0.6"/>
        <line id="Line_2560" data-name="Line 2560" x2="7.313" transform="translate(11.792 8.659)" fill="none" stroke="#263238" stroke-miterlimit="10" stroke-width="0.6"/>
        <line id="Line_2561" data-name="Line 2561" x2="9.435" transform="translate(0 8.659)" fill="none" stroke="#263238" stroke-miterlimit="10" stroke-width="0.6"/>
        <line id="Line_2562" data-name="Line 2562" x2="11.623" transform="translate(7.482 9.571)" fill="none" stroke="#263238" stroke-miterlimit="10" stroke-width="0.6"/>
        <line id="Line_2563" data-name="Line 2563" x2="5.889" transform="translate(0 9.571)" fill="none" stroke="#263238" stroke-miterlimit="10" stroke-width="0.6"/>
      </g>
      <g id="freepik--information-tags--inject-13" transform="translate(27.251 34.874)">
        <rect id="Rectangle_14736" data-name="Rectangle 14736" width="12.079" height="76.161" fill="#263238"/>
        <rect id="Rectangle_14737" data-name="Rectangle 14737" width="1.86" height="5.181" transform="translate(7.185 19.049)" fill="#84aa96"/>
        <rect id="Rectangle_14738" data-name="Rectangle 14738" width="1.86" height="3.703" transform="translate(5.12 20.525)" fill="#84aa96"/>
        <rect id="Rectangle_14739" data-name="Rectangle 14739" width="1.86" height="1.591" transform="translate(3.052 22.637)" fill="#84aa96"/>
        <path id="Path_72022" data-name="Path 72022" d="M57.792,148.537l.5.31-.569.917-1.115-.646-1.343,2.575-1.033-.715-.01.018v.889l.136-.195,1.094.756,1.363-2.616,1.081.625.83-1.34.5.31.054-1.686Z" transform="translate(-51.186 -130.771)" fill="#84aa96"/>
        <circle id="Ellipse_1452" data-name="Ellipse 1452" cx="4.005" cy="4.005" r="4.005" transform="translate(1.965 1.312)" fill="#fff" stroke="#263238" stroke-linecap="round" stroke-miterlimit="10" stroke-width="1"/>
        <path id="Path_72023" data-name="Path 72023" d="M53,104.958a4,4,0,0,0,6.693-.272,3.751,3.751,0,0,0-6.693.272Z" transform="translate(-50.279 -97.316)" fill="#84aa96" stroke="#263238" stroke-miterlimit="10" stroke-width="1"/>
        <circle id="Ellipse_1453" data-name="Ellipse 1453" cx="1.455" cy="1.455" r="1.455" transform="translate(4.515 2.073)" fill="#84aa96" stroke="#263238" stroke-miterlimit="10" stroke-width="1"/>
        <line id="Line_2564" data-name="Line 2564" x2="8.456" transform="translate(2.081 13.904)" fill="none" stroke="#fff" stroke-linecap="round" stroke-miterlimit="10" stroke-width="1"/>
        <line id="Line_2565" data-name="Line 2565" x2="8.456" transform="translate(2.081 27.913)" fill="none" stroke="#fff" stroke-linecap="round" stroke-miterlimit="10" stroke-width="1"/>
        <line id="Line_2566" data-name="Line 2566" x2="8.456" transform="translate(2.081 41.922)" fill="none" stroke="#fff" stroke-linecap="round" stroke-miterlimit="10" stroke-width="1"/>
        <line id="Line_2567" data-name="Line 2567" x2="8.456" transform="translate(2.081 55.928)" fill="none" stroke="#fff" stroke-linecap="round" stroke-miterlimit="10" stroke-width="1"/>
        <path id="Path_72024" data-name="Path 72024" d="M58.725,206.25H55.02v6.742h5.425v-5.074Z" transform="translate(-51.781 -174.289)" fill="#5c5c5c"/>
        <line id="Line_2568" data-name="Line 2568" x2="3.372" transform="translate(4.236 34.447)" fill="none" stroke="#263238" stroke-miterlimit="10" stroke-width="1"/>
        <line id="Line_2569" data-name="Line 2569" x2="3.372" transform="translate(4.236 35.938)" fill="none" stroke="#263238" stroke-miterlimit="10" stroke-width="1"/>
        <line id="Line_2570" data-name="Line 2570" x2="3.372" transform="translate(4.236 37.432)" fill="none" stroke="#263238" stroke-miterlimit="10" stroke-width="1"/>
        <path id="Path_72025" data-name="Path 72025" d="M69.27,207.11v1.548h1.491" transform="translate(-62.38 -174.928)" fill="none" stroke="#263238" stroke-miterlimit="10" stroke-width="1"/>
        <circle id="Ellipse_1454" data-name="Ellipse 1454" cx="2.916" cy="2.916" r="2.916" transform="translate(3.139 46.478)" fill="#5c5c5c"/>
        <path id="Path_72026" data-name="Path 72026" d="M66.01,267.33v1.781h1.95" transform="translate(-59.955 -219.717)" fill="none" stroke="#263238" stroke-miterlimit="10" stroke-width="1"/>
        <rect id="Rectangle_14740" data-name="Rectangle 14740" width="5.532" height="5.909" transform="translate(3.134 60.187)" fill="#5c5c5c"/>
        <path id="Path_72027" data-name="Path 72027" d="M56.679,325.232h-.8v-.792h.8Zm1.335-.792h-.8v.792h.792Zm1.338,0h-.8v.792h.794Zm1.335,0h-.794v.792h.794Zm-4.008,1.3h-.8v.794h.8Zm1.335,0h-.8v.794h.792Zm1.338,0h-.8v.794h.794Zm1.335,0h-.794v.794h.794Zm-4.008,1.3h-.8v.794h.8Zm1.335,0h-.8v.794h.792Zm1.338,0h-.8v.794h.794Zm1.335,0h-.794v.794h.794Z" transform="translate(-52.421 -262.193)" fill="#263238"/>
      </g>
      <g id="freepik--Character--inject-13" transform="translate(110.871 65.397)">
        <path id="Path_72028" data-name="Path 72028" d="M389.368,332.592a37.069,37.069,0,0,1-3.344-1.865,4.325,4.325,0,0,0,0-1.012c-.079-.233-.769-.769-.769-.769s-.623-5.678-.623-8.4a47.843,47.843,0,0,0-.623-6.77c-.077-.31-2.178-22.019-2.178-22.019l-.7-5.525-6.919.341-6.919-.341-.7,5.525s-2.1,21.709-2.178,22.019a48.254,48.254,0,0,0-.623,6.77c0,2.724-.623,8.4-.623,8.4s-.7.546-.769.769a4.188,4.188,0,0,0,0,1.012,37.167,37.167,0,0,1-3.347,1.865c-.543.154-.313.623.31.935a7.878,7.878,0,0,0,2.647.466c.623,0,1.555-1.089,1.794-1.245s.156.769.156.769a2.39,2.39,0,0,0,.856-.156c.31-.156.856.156.933-.769s.079-1.865.079-1.865a3.419,3.419,0,0,0,.7-1.012c.156-.466.466-1.794.466-1.794l4.9-19.762,2.291-10.806,2.337,10.808,4.9,19.762s.313,1.325.466,1.794a3.408,3.408,0,0,0,.7,1.012s0,.933.077,1.865.623.623.933.769a2.391,2.391,0,0,0,.856.156s-.077-.935.156-.769S385.786,334,386.411,334a7.93,7.93,0,0,0,2.647-.466C389.681,333.22,389.914,332.749,389.368,332.592Z" transform="translate(-358.749 -250.686)" fill="#263238" stroke="#263238" stroke-linecap="round" stroke-linejoin="round" stroke-width="1"/>
        <path id="Path_72029" data-name="Path 72029" d="M365.867,217.9s-4.272,14.862-4.456,15.226.928.184,1.981.372a3.732,3.732,0,0,0,2.724-.928c.187-.307,1.732-5.125,1.732-5.125Z" transform="translate(-360.714 -199.865)" fill="#fff" stroke="#263238" stroke-linecap="round" stroke-linejoin="round" stroke-width="1"/>
        <line id="Line_2571" data-name="Line 2571" x1="0.179" y1="0.43" transform="translate(5.169 22.419)" fill="#fff" stroke="#263238" stroke-linecap="round" stroke-linejoin="round" stroke-width="1"/>
        <line id="Line_2572" data-name="Line 2572" x1="1.194" y1="2.893" transform="translate(5.553 23.344)" fill="#fff" stroke="#263238" stroke-linecap="round" stroke-linejoin="round" stroke-width="1"/>
        <path id="Path_72030" data-name="Path 72030" d="M379.23,267.52l.338.256" transform="translate(-373.982 -236.77)" fill="#fff" stroke="#263238" stroke-linecap="round" stroke-linejoin="round" stroke-width="1"/>
        <path id="Path_72031" data-name="Path 72031" d="M366.9,263.688a10.105,10.105,0,0,1,1.417-.418,6.769,6.769,0,0,1,1.348.815" transform="translate(-364.811 -233.609)" fill="#fff" stroke="#263238" stroke-linecap="round" stroke-linejoin="round" stroke-width="1"/>
        <path id="Path_72032" data-name="Path 72032" d="M452.925,214.52s4.889,13.069,5.012,13.555a3.182,3.182,0,0,1,.187,1.361c-.069.556-.93.928-1.115.928s-1.537-.866-2.1-1.112-2.229-1.053-2.229-1.053l-.866-2.793Z" transform="translate(-427.964 -197.351)" fill="#fff" stroke="#263238" stroke-linecap="round" stroke-linejoin="round" stroke-width="1"/>
        <line id="Line_2573" data-name="Line 2573" y1="0.32" x2="0.082" transform="translate(25.233 21.087)" fill="#fff" stroke="#263238" stroke-linecap="round" stroke-linejoin="round" stroke-width="1"/>
        <line id="Line_2574" data-name="Line 2574" y1="4.074" x2="1.035" transform="translate(24.067 21.925)" fill="#fff" stroke="#263238" stroke-linecap="round" stroke-linejoin="round" stroke-width="1"/>
        <line id="Line_2575" data-name="Line 2575" x1="1.996" y2="1.248" transform="translate(25.066 28.331)" fill="#fff" stroke="#263238" stroke-linecap="round" stroke-linejoin="round" stroke-width="1"/>
        <path id="Path_72033" data-name="Path 72033" d="M385.855,203.41l-7,3.713,3.034,16.092a5.19,5.19,0,0,0-.061,1.794,1.635,1.635,0,0,0,.495.495h13.678s.928-.866.928-1.053v-.8l1.735-17.391-6.919-2.762Z" transform="translate(-373.707 -189.088)" fill="#fff" stroke="#263238" stroke-linecap="round" stroke-linejoin="round" stroke-width="1"/>
        <path id="Path_72034" data-name="Path 72034" d="M411.333,202.038l.92,2.591L411.01,220.39l1.942,3.077,1.673-3.347L412.9,204.629l1.081-2.322-1.566-1.727Z" transform="translate(-397.618 -186.983)" fill="#263238" stroke="#263238" stroke-linecap="round" stroke-linejoin="round" stroke-width="1"/>
        <path id="Path_72035" data-name="Path 72035" d="M405.271,198.06l-.161,1.727,1.458,2.373,1.079-2.591Z" transform="translate(-393.23 -185.109)" fill="#fff" stroke="#263238" stroke-linecap="round" stroke-linejoin="round" stroke-width="1"/>
        <path id="Path_72036" data-name="Path 72036" d="M418.8,198.991l.864,2.755,1.783-2.862-.81-1.673Z" transform="translate(-403.412 -184.477)" fill="#fff" stroke="#263238" stroke-linecap="round" stroke-linejoin="round" stroke-width="1"/>
        <path id="Path_72037" data-name="Path 72037" d="M396.164,174.648s-.864-.756-.971.484,1.3,1.889,1.3,1.889Z" transform="translate(-385.85 -167.526)" fill="#ffbe9d" stroke="#263238" stroke-linecap="round" stroke-linejoin="round" stroke-width="0.5"/>
        <path id="Path_72038" data-name="Path 72038" d="M430,171.159s.538-.81.917-.164a2.658,2.658,0,0,1-.215,2.214c-.269.594-.648.648-.648.648Z" transform="translate(-411.742 -164.793)" fill="#ffbe9d" stroke="#263238" stroke-linecap="round" stroke-linejoin="round" stroke-width="0.5"/>
        <path id="Path_72039" data-name="Path 72039" d="M397.818,158.1s.541,4.1.756,5.4a4.356,4.356,0,0,0,1.512,2.537,4.072,4.072,0,0,0,2.265,1.24,2.907,2.907,0,0,0,1.945-.769,16.416,16.416,0,0,0,1.727-3.021,27.3,27.3,0,0,0,0-2.97c0-.433-.108-2.483-.108-2.483a6.105,6.105,0,0,0-.541-2.483c-.541-.971-2.322-1.025-4.869-.538s-2.806.971-2.806,1.455S397.818,158.1,397.818,158.1Z" transform="translate(-387.719 -152.865)" fill="#ffbe9d" stroke="#263238" stroke-linecap="round" stroke-linejoin="round" stroke-width="0.5"/>
        <path id="Path_72040" data-name="Path 72040" d="M417.12,178.468a2.83,2.83,0,0,0,1.619-.218" transform="translate(-402.163 -170.375)" fill="#fff" stroke="#263238" stroke-linecap="round" stroke-linejoin="round" stroke-width="0.5"/>
        <path id="Path_72041" data-name="Path 72041" d="M403,180.048a2.035,2.035,0,0,0,1.348-.108" transform="translate(-391.661 -171.632)" fill="#fff" stroke="#263238" stroke-linecap="round" stroke-linejoin="round" stroke-width="0.5"/>
        <path id="Path_72042" data-name="Path 72042" d="M415.43,173.516a2.6,2.6,0,0,1,2-.323" transform="translate(-400.906 -166.558)" fill="#fff" stroke="#263238" stroke-linecap="round" stroke-linejoin="round" stroke-width="1"/>
        <path id="Path_72043" data-name="Path 72043" d="M403.833,175.343a2.759,2.759,0,0,0-1.673-.108" transform="translate(-391.036 -168.06)" fill="#fff" stroke="#263238" stroke-linecap="round" stroke-linejoin="round" stroke-width="1"/>
        <path id="Path_72044" data-name="Path 72044" d="M397.937,150.86a7.554,7.554,0,0,1-2.644,2.752,5.947,5.947,0,0,1-5.235.108c-1.079-.7-1.566-1.727-1.243-1.781s1.025-.108,1.025-.108a2.883,2.883,0,0,1,.056-1.512c.272-.487.646-.377.646-.377a5.774,5.774,0,0,1,3.511-2.375,7.4,7.4,0,0,1,4.1.7,2.3,2.3,0,0,1,.92,1.025,2.135,2.135,0,0,1,.646,1.189,15.621,15.621,0,0,1-.43,2.7s.054,4.156.054,4.966a6.217,6.217,0,0,1-2.483,3.562,2.306,2.306,0,0,1-2.268,0A14.7,14.7,0,0,1,392,159.119c-.433-.648-.43-3.185-.43-3.185s.646,2.375.81,2.644.323-.377.592-.592,1.243-.11,1.673-.056a1.9,1.9,0,0,0,.971,0,6.02,6.02,0,0,1,1.794-.7,4.843,4.843,0,0,1,1.24.269s0-1.942.108-2.86a4.12,4.12,0,0,0-.108-2,2.394,2.394,0,0,1-.541-.864,3.236,3.236,0,0,1-.172-.917Z" transform="translate(-381.037 -147.518)" fill="#263238" stroke="#263238" stroke-linecap="round" stroke-linejoin="round" stroke-width="0.3"/>
        <path id="Path_72045" data-name="Path 72045" d="M410.38,178.68a18.092,18.092,0,0,0,.377,2.427.577.577,0,0,0,.487.325l.7-.7" transform="translate(-397.15 -170.695)" fill="#bdbdbd" stroke="#263238" stroke-linecap="round" stroke-linejoin="round" stroke-width="0.3"/>
        <path id="Path_72046" data-name="Path 72046" d="M412.27,192.951a2.2,2.2,0,0,0,1.619-.161" transform="translate(-398.556 -181.189)" fill="none" stroke="#fff" stroke-linecap="round" stroke-linejoin="round" stroke-width="0.3"/>
        <path id="Path_72047" data-name="Path 72047" d="M435.389,269.819l-.249-1.919,1.671.31Z" transform="translate(-415.565 -237.053)" fill="#fff" stroke="#263238" stroke-linecap="round" stroke-linejoin="round" stroke-width="0.6"/>
        <path id="Path_72048" data-name="Path 72048" d="M411.783,250.687a10.423,10.423,0,0,1-1.537-.31c-.556-.185-.928.064-.495.62a4.056,4.056,0,0,0,2.158.8s.308,1.609,1.176,1.919a4.518,4.518,0,0,0,1.361.31,1.7,1.7,0,0,0,.989.679,6.918,6.918,0,0,1,1.858.992l.62-1.425-1.363-1.115-1.361-2.352-1.3-.433L412.774,250Z" transform="translate(-396.541 -223.739)" fill="#ffbe9d" stroke="#263238" stroke-linecap="round" stroke-linejoin="round" stroke-width="0.6"/>
        <path id="Path_72049" data-name="Path 72049" d="M418.5,251.4l-.556.559a2.333,2.333,0,0,1,.061.495c0,.256-.433.256-.743.256a1.614,1.614,0,0,1-.928-.256c-.256-.184-1.238-1.053-1.238-1.053l1.051-1.855-.917.618a6.492,6.492,0,0,1-.8,1.176c-.372.372-.495-.061-.495-.061a7.583,7.583,0,0,1,.618-1.486,14.144,14.144,0,0,1,1.115-1.051,2.438,2.438,0,0,1,.743,0,5.909,5.909,0,0,1,1.671.8,2.081,2.081,0,0,1,.743.989,2,2,0,0,1,.061.433" transform="translate(-399.79 -222.779)" fill="#ffbe9d" stroke="#263238" stroke-linecap="round" stroke-linejoin="round" stroke-width="0.6"/>
        <path id="Path_72050" data-name="Path 72050" d="M425.2,257.537a1.166,1.166,0,0,1-.062-.741,16.786,16.786,0,0,1,.928-1.486" transform="translate(-408.104 -227.689)" fill="none" stroke="#263238" stroke-linecap="round" stroke-linejoin="round" stroke-width="0.6"/>
        <path id="Path_72051" data-name="Path 72051" d="M422.541,255.225s-.1-.113-.21-.269-.021-.436-.021-.641a8.836,8.836,0,0,1,.91-1.876" transform="translate(-405.997 -225.554)" fill="none" stroke="#263238" stroke-linecap="round" stroke-linejoin="round" stroke-width="0.6"/>
        <path id="Path_72052" data-name="Path 72052" d="M445.022,261.565s1.537,2.352,1.486,2.972-.433,1.981-.992,1.981a47.827,47.827,0,0,1-4.766-.62c-1.732-.31-2.908-.433-2.908-.433l-1.732-.495,1.176-2.847,1.125.233a11.175,11.175,0,0,1,1.635-.272c.8-.061,3.49-.7,3.49-.7" transform="translate(-416.287 -232.203)" fill="#fff" stroke="#263238" stroke-linecap="round" stroke-linejoin="round" stroke-width="0.6"/>
        <path id="Path_72053" data-name="Path 72053" d="M443.687,266.29a3.587,3.587,0,0,1-.5,1.981" transform="translate(-421.553 -235.855)" fill="none" stroke="#263238" stroke-linecap="round" stroke-linejoin="round" stroke-width="0.6"/>
        <path id="Path_72054" data-name="Path 72054" d="M361.349,264.312s-1.053,2.537-1.115,2.724.187,1.361,1.176,1.115,6.252-.8,6.919-.93l1.735-.307h1.379a18.054,18.054,0,0,0,2.724-.126l1.486-.495a3.292,3.292,0,0,0,1.238-.8c.061-.184-.187-.372-.8-.31s-2.539.123-2.539.123,1.735-.679,2.291-.928.371-.495.371-.495a3.2,3.2,0,0,0-1.051.185c-.436.187-4.7.743-4.7.743l-.5-.433a3.635,3.635,0,0,0,.256-1.115c0-.495-.256-.866-.556-.741s-.433.866-.5,1.112-.369,1.238-.369,1.238l-.126.559a29.706,29.706,0,0,1-3.28-.8,9.783,9.783,0,0,0-2.537-.682c-.246.061-.743.743-.866,1.053" transform="translate(-359.847 -233.032)" fill="#fff" stroke="#263238" stroke-linecap="round" stroke-linejoin="round" stroke-width="0.6"/>
        <path id="Path_72055" data-name="Path 72055" d="M385.722,273.05a1.554,1.554,0,0,0,.082,1.486" transform="translate(-378.69 -240.883)" fill="none" stroke="#263238" stroke-linecap="round" stroke-linejoin="round" stroke-width="0.6"/>
        <path id="Path_72056" data-name="Path 72056" d="M389.518,258.6l1.886,3.828a.42.42,0,0,0,.369.233l6.87.069a.415.415,0,0,0,.392-.564l-1.5-3.908a.413.413,0,0,0-.387-.256H389.89a.415.415,0,0,0-.372.6Z" transform="translate(-381.603 -229.689)" fill="#84aa96" stroke="#263238" stroke-linecap="round" stroke-linejoin="round" stroke-width="0.6"/>
        <path id="Path_72057" data-name="Path 72057" d="M398.423,265.208c-.62.061-2.539.123-2.539.123s1.735-.679,2.291-.928.372-.495.372-.495a3.206,3.206,0,0,0-1.051.185c-.436.187-4.7.743-4.7.743l-.5-.433a3.638,3.638,0,0,0,.256-1.115c0-.495-.256-.866-.556-.741s-.433.866-.5,1.112-.369,1.238-.369,1.238l-.126.559-.653-.133a2.191,2.191,0,0,0,.036,1.309,6.668,6.668,0,0,0,.241.63l.067-.013,1.735-.308h1.358a18.054,18.054,0,0,0,2.724-.126l1.486-.495a3.292,3.292,0,0,0,1.238-.8C399.294,265.334,399.041,265.139,398.423,265.208Z" transform="translate(-382.19 -233.054)" fill="#ffbe9d" stroke="#263238" stroke-linecap="round" stroke-linejoin="round" stroke-width="0.6"/>
        <path id="Path_72058" data-name="Path 72058" d="M413.141,274.56a11.678,11.678,0,0,1-1.468.61c-.187,0-2.383.256-2.383.256" transform="translate(-396.339 -242.006)" fill="none" stroke="#263238" stroke-linecap="round" stroke-linejoin="round" stroke-width="0.6"/>
      </g>
    </g>
  </g>
</svg>
