<svg xmlns="http://www.w3.org/2000/svg" width="319.027" height="300" viewBox="0 0 319.027 300">
  <g id="de" transform="translate(-19.71 -40.49)">
    <g id="freepik--Floor--inject-248" transform="translate(19.71 157.269)">
      <ellipse id="freepik--floor--inject-248-2" data-name="freepik--floor--inject-248" cx="158.671" cy="91.61" rx="158.671" ry="91.61" fill="#f5f5f5"/>
    </g>
    <g id="freepik--Shadows--inject-248" transform="translate(64.971 147.232)">
      <path id="freepik--Shadow--inject-248" d="M341.428,284.182,251.279,336.25a3.08,3.08,0,0,1-2.8,0L98.148,249.436a.854.854,0,0,1,0-1.619L188.3,195.748a3.08,3.08,0,0,1,2.8,0l150.334,86.815a.854.854,0,0,1,0,1.619Z" transform="translate(-89.184 -195.412)" fill="#e6e6e6"/>
      <ellipse id="freepik--shadow--inject-248-2" data-name="freepik--shadow--inject-248" cx="56.092" cy="32.383" rx="56.092" ry="32.383" transform="translate(0 107.931)" fill="#e6e6e6"/>
      <ellipse id="freepik--shadow--inject-248-3" data-name="freepik--shadow--inject-248" cx="40.624" cy="23.454" rx="40.624" ry="23.454" transform="translate(72.408 85.965)" fill="#e6e6e6"/>
    </g>
    <g id="freepik--Plants--inject-248" transform="translate(296.49 178.507)">
      <g id="freepik--plants--inject-248-2" data-name="freepik--plants--inject-248">
        <path id="Path_17434" data-name="Path 17434" d="M421.42,275.389s1.378-11.279,7.117-19.981,13.484-14.09,20.67-14.579,12.953,6.2,5.2,10.659-21.5,8.957-27.974,25.913Z" transform="translate(-421.42 -240.803)" fill="#aa43d1"/>
        <g id="Group_465" data-name="Group 465" opacity="0.3">
          <path id="Path_17435" data-name="Path 17435" d="M421.42,275.389s1.378-11.279,7.117-19.981,13.484-14.09,20.67-14.579,12.953,6.2,5.2,10.659-21.5,8.957-27.974,25.913Z" transform="translate(-421.42 -240.803)"/>
        </g>
        <path id="Path_17436" data-name="Path 17436" d="M424.389,273.978h-.076a.386.386,0,0,1-.207-.5c7.8-18.6,22.351-26.292,28.938-27.739a.388.388,0,0,1,.165.758c-6.47,1.378-20.732,8.957-28.408,27.278a.386.386,0,0,1-.413.207Z" transform="translate(-422.246 -242.334)" fill="#fff"/>
        <path id="Path_17437" data-name="Path 17437" d="M463.993,275.024c-.613,1.378-2.129,2.108-3.535,2.673s-2.942,1.178-3.7,2.487c-1.536,2.646.978,6.373-.689,8.957a4.754,4.754,0,0,1-3.245,1.874,30.548,30.548,0,0,1-3.176.283,12.161,12.161,0,0,1-1.516-.117,6.89,6.89,0,0,0-4.382.469c-2.108,1.185-2.756,3.838-4.031,5.891a10,10,0,0,1-7.09,4.444c-1.674.22-3.252.689-4.43-.868a8.269,8.269,0,0,1-1.1-2.549l-3.342-11.024c-.434-1.426-.848-3.032-.138-4.341a6.573,6.573,0,0,1,2.412-2.108,20.291,20.291,0,0,0,4.72-4.361c1.275-1.626,1.881-3.569,3.039-5.188,2.232-3.107,6.236-5.264,10.094-4.616,2.219.372,4.389,1.619,6.676,1.516s4.41-.689,6.683-.537a8,8,0,0,1,6.153,3.211A4.2,4.2,0,0,1,463.993,275.024Z" transform="translate(-421.984 -248.892)" fill="#aa43d1"/>
        <g id="Group_466" data-name="Group 466" transform="translate(1.25 17.921)" opacity="0.1">
          <path id="Path_17438" data-name="Path 17438" d="M463.993,275.024c-.613,1.378-2.129,2.108-3.535,2.673s-2.942,1.178-3.7,2.487c-1.536,2.646.978,6.373-.689,8.957a4.754,4.754,0,0,1-3.245,1.874,30.548,30.548,0,0,1-3.176.283,12.161,12.161,0,0,1-1.516-.117,6.89,6.89,0,0,0-4.382.469c-2.108,1.185-2.756,3.838-4.031,5.891a10,10,0,0,1-7.09,4.444c-1.674.22-3.252.689-4.43-.868a8.269,8.269,0,0,1-1.1-2.549l-3.342-11.024c-.434-1.426-.848-3.032-.138-4.341a6.573,6.573,0,0,1,2.412-2.108,20.291,20.291,0,0,0,4.72-4.361c1.275-1.626,1.881-3.569,3.039-5.188,2.232-3.107,6.236-5.264,10.094-4.616,2.219.372,4.389,1.619,6.676,1.516s4.41-.689,6.683-.537a8,8,0,0,1,6.153,3.211A4.2,4.2,0,0,1,463.993,275.024Z" transform="translate(-423.234 -266.813)"/>
        </g>
        <path id="Path_17439" data-name="Path 17439" d="M430.086,296.661h0a.344.344,0,0,1-.241-.42c5.512-20.739,27.395-23.736,32.507-23.364a.345.345,0,0,1-.048.689c-5-.365-26.382,2.563-31.8,22.861A.344.344,0,0,1,430.086,296.661Z" transform="translate(-424.037 -250.769)" fill="#fff"/>
        <path id="Path_17440" data-name="Path 17440" d="M458.479,289.8a.379.379,0,0,1-.179-.1,18.176,18.176,0,0,0-14.876-4.2.338.338,0,0,1-.386-.282.351.351,0,0,1,.289-.393,18.872,18.872,0,0,1,15.454,4.389.345.345,0,0,1-.3.579Z" transform="translate(-428.142 -254.42)" fill="#fff"/>
      </g>
    </g>
    <g id="freepik--Desk--inject-248" transform="translate(85.91 46.401)">
      <g id="freepik--desk--inject-248-2" data-name="freepik--desk--inject-248">
        <g id="freepik--Table--inject-248" transform="translate(0 41.135)">
          <path id="Path_17441" data-name="Path 17441" d="M325.766,289.973v59.351A1.722,1.722,0,0,1,325,350.66l-1.64.944a1.722,1.722,0,0,1-1.536,0l-1.64-.944a1.723,1.723,0,0,1-.765-1.337V289.973c0-.489.345-.689.765-.441l1.64.944a1.723,1.723,0,0,0,1.536,0l1.64-.944C325.421,289.284,325.766,289.484,325.766,289.973Z" transform="translate(-179.118 -164.954)" fill="#37474f"/>
          <path id="Path_17442" data-name="Path 17442" d="M321.825,351.6l-1.64-.944a1.723,1.723,0,0,1-.765-1.337V289.973c0-.489.345-.689.765-.441l1.64.944a1.7,1.7,0,0,1,.765,1.33v59.337C322.576,351.646,322.245,351.832,321.825,351.6Z" transform="translate(-179.118 -164.954)" fill="#455a64"/>
          <path id="Path_17443" data-name="Path 17443" d="M427.043,231.47v59.344a1.7,1.7,0,0,1-.772,1.337l-1.633.944a1.7,1.7,0,0,1-1.543,0l-1.633-.944a1.7,1.7,0,0,1-.772-1.337V231.47c0-.5.344-.689.772-.448l1.633.944a1.7,1.7,0,0,0,1.543,0l1.633-.944C426.7,230.774,427.043,230.974,427.043,231.47Z" transform="translate(-210.612 -146.758)" fill="#37474f"/>
          <path id="Path_17444" data-name="Path 17444" d="M423.095,293.1l-1.633-.944a1.7,1.7,0,0,1-.772-1.337V231.471c0-.5.344-.689.772-.448l1.633.944a1.7,1.7,0,0,1,.772,1.337v59.351C423.866,293.144,423.522,293.344,423.095,293.1Z" transform="translate(-210.612 -146.76)" fill="#455a64"/>
          <path id="Path_17445" data-name="Path 17445" d="M149.783,188.312v59.351a1.7,1.7,0,0,1-.765,1.33l-1.64.944a1.681,1.681,0,0,1-1.536,0l-1.64-.944a1.688,1.688,0,0,1-.772-1.33V188.312c0-.489.344-.689.772-.448l1.64.944a1.681,1.681,0,0,0,1.536,0l1.64-.944C149.438,187.623,149.783,187.823,149.783,188.312Z" transform="translate(-124.386 -133.338)" fill="#37474f"/>
          <path id="Path_17446" data-name="Path 17446" d="M145.842,249.936l-1.64-.944a1.688,1.688,0,0,1-.772-1.33V188.312c0-.489.345-.689.772-.448l1.64.944a1.722,1.722,0,0,1,.765,1.337V249.5C146.579,249.985,146.262,250.184,145.842,249.936Z" transform="translate(-124.386 -133.338)" fill="#455a64"/>
          <g id="freepik--desk--inject-248-3" data-name="freepik--desk--inject-248">
            <path id="Path_17447" data-name="Path 17447" d="M347.44,198.906v-.558a3.073,3.073,0,0,0-1.378-2.425L195.735,109.108a3.094,3.094,0,0,0-2.8,0l-75.763,43.738a3.107,3.107,0,0,0-1.378,2.425v.558a3.107,3.107,0,0,0,1.378,2.432l150.348,86.787a3.08,3.08,0,0,0,2.8,0l75.7-43.717A3.094,3.094,0,0,0,347.44,198.906Z" transform="translate(-115.79 -108.772)" fill="#37474f"/>
            <path id="Path_17448" data-name="Path 17448" d="M338,281.015v3.8a2.956,2.956,0,0,0,1.378-.338l75.7-43.724a3.08,3.08,0,0,0,1.378-2.425v-.558a3.114,3.114,0,0,0-1.137-2.246c.5.434.42,1.04-.262,1.44l-75.68,43.717a2.8,2.8,0,0,1-1.378.338Z" transform="translate(-184.896 -148.19)" fill="#aa43d1"/>
            <path id="Path_17449" data-name="Path 17449" d="M338,281.015v3.8a2.956,2.956,0,0,0,1.378-.338l75.7-43.724a3.08,3.08,0,0,0,1.378-2.425v-.558a3.114,3.114,0,0,0-1.137-2.246c.5.434.42,1.04-.262,1.44l-75.68,43.717a2.8,2.8,0,0,1-1.378.338Z" transform="translate(-184.896 -148.19)" fill="#263238"/>
            <path id="Path_17450" data-name="Path 17450" d="M346.348,197.535,270.619,241.26a3.08,3.08,0,0,1-2.8,0L117.488,154.445a.854.854,0,0,1,0-1.619l75.7-43.717a3.094,3.094,0,0,1,2.8,0L346.32,195.923a.847.847,0,0,1,.028,1.612Z" transform="translate(-116.137 -108.772)" fill="#455a64"/>
          </g>
        </g>
        <g id="freepik--Keyboard--inject-248" transform="translate(55.399 73.126)">
          <path id="freepik--shadow--inject-248-4" data-name="freepik--shadow--inject-248" d="M254.543,182.655l-14.269,8.268a1.764,1.764,0,0,1-1.6,0l-42.153-24.308a.489.489,0,0,1,0-.923l14.269-8.268a1.764,1.764,0,0,1,1.6,0l42.153,24.3a.489.489,0,0,1,0,.93Z" transform="translate(-196.195 -155.833)" opacity="0.15"/>
          <g id="freepik--keyboard--inject-248-2" data-name="freepik--keyboard--inject-248" transform="translate(1.189)">
            <path id="Path_17451" data-name="Path 17451" d="M197.92,163.593a.572.572,0,0,1,.331-.462l13.408-7.738a1.764,1.764,0,0,1,1.6,0l40.906,23.654a.572.572,0,0,1,.331.462v1.378a.551.551,0,0,1-.331.462l-13.4,7.765a1.764,1.764,0,0,1-1.6,0L198.251,165.5a.6.6,0,0,1-.331-.462Z" transform="translate(-197.92 -155.202)" fill="#ebebeb"/>
            <path id="Path_17452" data-name="Path 17452" d="M240.764,187.673l13.4-7.7c.441-.255.441-.689,0-.923l-40.906-23.654a1.764,1.764,0,0,0-1.6,0l-13.408,7.738a.489.489,0,0,0,0,.923l40.913,23.619A1.764,1.764,0,0,0,240.764,187.673Z" transform="translate(-197.922 -155.202)" fill="#fff"/>
            <path id="Path_17453" data-name="Path 17453" d="M259,198.838v1.433a1.55,1.55,0,0,0,.751-.179l13.394-7.738a.565.565,0,0,0,.338-.462V190.48a.565.565,0,0,1-.338.462l-13.387,7.71A1.633,1.633,0,0,1,259,198.838Z" transform="translate(-216.916 -166.173)" fill="#e0e0e0"/>
            <path id="Path_17454" data-name="Path 17454" d="M201.527,164.364h0l1.33-.765,1.8,1.034-1.337.792-1.8-1.034Zm2.067-1.2h0l1.33-.765,1.412.813-1.323.785-1.412-.813Zm.441,2.653h0l1.33-.772,1.378.82-1.337.792-1.378-.82Zm1.64-3.852h0L207,161.2l2.287,1.316-1.323.792-2.281-1.316Zm.048,2.432,1.33-.765,1.123.648-1.337.792-1.123-.648Zm.434,2.646h0l1.323-.765,1.419.813-1.337.792-1.378-.813Zm1.378-1.585,1.33-.765,1.116.648-1.33.792-1.123-.648Zm.186-4.692h0l1.33-.765,1.8,1.033-1.337.792-1.8-1.033Zm.537,7.51h0l1.323-.765,10.218,5.9-1.337.792-10.211-5.9Zm.386-4.582h0l1.33-.765,1.123.648-1.337.792-1.123-.648Zm.723,2.825h0l1.323-.765,1.123.648-1.337.792-1.116-.648Zm.434-6.952h0l1.323-.772,1.123.655-1.33.792-1.123-.648Zm.434,2.653h0l1.33-.765,1.123.648-1.337.792-1.123-.648Zm.241,2.536h0l1.323-.765,1.123.648-1.337.792-1.116-.648Zm.73,2.825,1.33-.765,1.123.648-1.337.792-1.123-.648Zm.427-6.952,1.323-.772,1.123.655-1.337.792-1.116-.648Zm.441,2.653h0l1.33-.765,1.123.648-1.337.792-1.123-.648Zm.241,2.536h0l1.323-.765,1.123.648-1.337.792-1.123-.648Zm0-7.7h0l1.323-.765,1.378.82-1.337.792-1.378-.82Zm.73,10.521h0l1.33-.765,1.123.648-1.337.792-1.123-.648Zm.427-6.945,1.33-.772,1.123.689-1.337.785-1.123-.641Zm.434,2.653h0l1.323-.765,1.123.648-1.337.792-1.116-.648Zm.248,2.536,1.33-.765,1.123.648-1.337.792-1.123-.648Zm.73,2.818h0l1.323-.765,1.123.648-1.33.792-1.123-.648Zm.358-9.894h0l1.33-.765,1.123.648-1.337.792-1.123-.648Zm.062,2.949h0l1.323-.772,1.123.655-1.33.792-1.123-.648Zm.441,2.653h0l1.33-.765,1.123.648-1.3.779-1.123-.648Zm.241,2.536h0l1.323-.765,1.123.648-1.33.792-1.123-.648Zm.73,2.825h0l1.323-.765,1.123.648-1.337.792-1.116-.648Zm.365-9.9h0l1.33-.765,1.123.648-1.337.792-1.123-.648Zm.062,2.949,1.323-.772,1.123.655-1.337.792-1.116-.648Zm.441,2.653h0l1.33-.765,1.123.648-1.337.792-1.123-.648Zm.241,2.536h0l1.323-.765,1.123.648-1.337.792-1.116-.648Zm.73,2.818h0l1.33-.765,1.123.648-1.337.792-1.123-.648Zm.365-9.894h0l1.323-.765,1.123.648-1.288.813-1.123-.648Zm.062,2.949,1.33-.772,1.123.689-1.337.785-1.123-.648Zm.207,9.708h0l1.323-.765,1.378.813-1.33.792-1.412-.813Zm.234-7.055,1.323-.765,1.123.648-1.33.792-1.123-.648Zm.241,2.536L221,169.3l1.123.648-1.337.792-1.123-.648Zm.73,2.818h0l1.33-.765,1.116.648-1.33.792-1.123-.648Zm.358-9.894h0l1.323-.765,1.123.648-1.337.792-1.116-.648Zm.069,2.949h0l1.33-.765,1.123.689-1.337.785L220.819,166Zm.434,2.653h0l1.323-.765,1.123.648-1.337.792-1.116-.648Zm.055,7.228h0l1.323-.765,1.378.813-1.33.792-1.412-.813Zm.193-4.692h0l1.33-.765,1.123.648-1.337.792-1.123-.648Zm.689,2.818,1.323-.765,1.123.648-1.337.792-1.116-.648Zm.427-6.945,1.323-.772,1.123.648-1.337.792-1.116-.648Zm.441,2.653h0l1.33-.765,1.123.648-1.337.792-1.123-.648Zm.241,2.536h0l1.323-.765,1.123.648-1.337.792-1.116-.648Zm.055-7.676,1.33-.772,1.123.689-1.226.744-1.123-.648Zm.048,12.533h0l1.33-.765,1.378.82-1.337.792-1.412-.82Zm.627-2.067h0l1.33-.765,1.123.648-1.337.792-1.047-.627Zm.427-6.945h0l1.323-.765,1.123.648-1.337.792-1.123-.648Zm.441,2.653h0l1.323-.765,1.13.648-1.337.792-1.123-.648Zm.241,2.536h0l1.33-.765,1.123.648-1.337.792-1.123-.648Zm.055-7.676h0l1.33-.772,1.123.689-1.337.792-1.04-.668Zm.338,12.7,1.33-.765,1.8,1.034-1.337.792-1.8-1.034Zm.338-2.2h0l1.33-.765,3.541,2.067-1.337.792-3.542-2.067Zm.427-6.945h0l1.33-.765,1.123.648-1.337.792-1.123-.648Zm.434,2.653h0l1.323-.765,1.123.648-1.337.792-1.116-.648Zm.248,2.536,1.33-.765,1.123.648-1.337.792-1.123-.648Zm.048-7.676h0l1.323-.772,1.123.655-1.337.785-1.116-.641Zm1.1,3.548h0l1.323-.765,1.123.648-1.337.792-1.116-.648Zm.3,9.763h0l1.33-.765,1.123.648-1.337.792-1.123-.648Zm.138-7.111,1.33-.765,1.123.648-1.337.792-1.123-.648Zm.241,2.536,1.323-.765,1.027.593a.889.889,0,0,0,.689,0l1.736-1.006,1.316.758-3.411,1.991-2.666-1.536Zm.055-7.676,1.33-.772,1.123.655-1.226.8-1.123-.648Zm1.1,3.548h0l1.33-.765,1.123.648-1.337.792-1.116-.648Zm.3,9.763,1.33-.765,1.123.648-1.254.806-1.123-.648Zm.138-7.111,1.33-.765,1.123.648-1.337.792-1.123-.648Zm1.1-4.678h0l1.33-.772,1.123.655-1.337.785-1.123-.648Zm.3,3.087h0l1.33-.765,1.123.648-1.261.8-1.123-.648Zm.3,9.763h0l1.323-.765,1.123.648-1.337.792-1.116-.648Zm.241-2.26h0l1.33-.765,1.123.648-1.261.806-1.123-.648Zm1-9.529h0l1.323-.772,1.123.648-1.33.792-1.123-.641Zm.3,3.087,1.323-.765,2,1.151-1.337.792-1.991-1.151Zm.689,9.991h0l1.323-.765,2.963,1.709-1.337.792-2.956-1.709Zm.331-7.007h0l1.323-.765,1.123.648-1.33.792-1.123-.648Zm.517-5.009,1.323-.772,1.123.648-1.337.792-1.116-.648Zm1.233,10.817,1.33-.765,1.123.648-1.337.792-1.123-.648Zm.09-4.747,1.33-.765,1.123.648-1.288.806-1.123-.648Zm.241-2.26,1.33-.765,1.123.648-1.337.792-1.123-.648Zm.276-2.756h0l1.33-.772,1.123.648-1.337.792-1.123-.648Zm.992,13.091,1.33-.765,1.123.648-1.337.792-1.123-.648Zm.234-2.26h0l1.323-.765,1.123.648-1.337.792-1.116-.648Zm.1-4.747h0l1.33-.765,1.123.648-1.268.827-1.123-.648Zm.145,2.487h0l1.323-.765,1.123.648-1.337.792-1.123-.648Zm.1-4.747h0l1.323-.765,1.123.648-1.33.792-1.123-.648Zm.689-2.515h0l1.323-.772,1.13.648-1.3.785-1.123-.648Zm.579,12.843h0l3.4-1.964,1.123.648-3.411,1.991-1.123-.648Zm.241-2.26h0l1.323-.765,1.123.648-1.337.792-1.123-.648Zm.241-2.26,1.33-.765,1.123.648-1.337.792-1.123-.648Zm.09-4.747,1.323-.765,1.123.648-1.337.792-1.116-.648Zm.152,2.487h0l1.33-.765,1.116.648-1.33.792-1.123-.648Zm.531-5,1.323-.772,1.123.648-1.337.792-1.116-.648Zm1.068,8.323,1.323-.765,1.123.648-1.33.792-1.123-.648Zm.234-2.26h0l1.323-.765,1.123.648-1.337.792-1.116-.648Zm.241-2.26,1.33-.765,1.123.648-1.337.792-1.123-.648Zm.3-2.756,1.33-.772,1.123.648-1.337.792-1.123-.648Zm1.061,8.323h0l3.4-1.964,1.123.648-3.411,1.991-1.123-.648Zm.241-2.26,1.33-.765,1.123.648-1.337.792-1.123-.648Zm.241-2.26,1.33-.765,1.123.648-1.337.792-1.123-.648Zm1.213-2.825h0l.558-.331,1.123.648-.572.358-1.116-.648Zm.62,3.886h0l1.323-.765,1.123.648-1.337.792-1.116-.648Zm1.22-2.825.565-.331,1.123.648-.579.358-1.116-.648Zm.62,3.886,1.33-.765,1.123.648-1.337.792-1.116-.648Zm1.22-2.825.565-.331,1.123.648-.579.358-1.116-.648Zm1.833,1.061h0l.565-.331,1.123.648-.579.358-1.116-.648Z" transform="translate(-199.04 -155.87)" fill="#455a64"/>
          </g>
        </g>
        <g id="freepik--PC--inject-248" transform="translate(98.624)">
          <path id="freepik--shadow--inject-248-5" data-name="freepik--shadow--inject-248" d="M331.117,190.455l14.435-8.337L273.365,140.44l-14.435,8.337Z" transform="translate(-258.93 -77.485)" opacity="0.15"/>
          <g id="freepik--Monitor--inject-248" transform="translate(2.403)">
            <path id="Path_17455" data-name="Path 17455" d="M298.987,179.97l-10.335-5.96a2.694,2.694,0,0,1-1.592-2.219v-1.433l9.7-5.512a2.281,2.281,0,0,0,1.027-1.778v-12.7l18,10.4v12.712a2.28,2.28,0,0,1-1.027,1.778l-8.1,4.713A8.509,8.509,0,0,1,298.987,179.97Z" transform="translate(-270.081 -80.574)" fill="#e6e6e6"/>
            <path id="Path_17456" data-name="Path 17456" d="M322.51,179.526v1.433l3.3-1.9a2.281,2.281,0,0,0,1.027-1.778V164.574l-3.445-1.984c-.069.875-.145,1.771-.22,2.653l2.4,1.378v9.929a2.274,2.274,0,0,1-1.02,1.778Z" transform="translate(-281.106 -84.374)" fill="#e0e0e0"/>
            <path id="Path_17457" data-name="Path 17457" d="M314.585,173.693a2.26,2.26,0,0,1-1.027,1.778l-6.856,4a8.509,8.509,0,0,1-7.7,0l-10.335-5.96c-2.122-1.226-2.122-3.211,0-4.437l6.89-4a2.26,2.26,0,0,0,1.02-1.778V153.36l18,10.4Z" transform="translate(-270.088 -81.504)" fill="#f5f5f5"/>
            <path id="Path_17458" data-name="Path 17458" d="M296.33,166.272h0l2.067-1.206a2.26,2.26,0,0,0,1.02-1.778V153.36l18.045,10.4v9.929a2.26,2.26,0,0,1-1.027,1.778l-2.067,1.185Z" transform="translate(-272.964 -81.504)" fill="#ebebeb"/>
            <path id="Path_17459" data-name="Path 17459" d="M287.09,179.38v1.433a2.707,2.707,0,0,0,1.6,2.219l10.335,5.96a7.669,7.669,0,0,0,3.672.909v-1.426a7.669,7.669,0,0,1-3.672-.909L288.689,181.6a2.7,2.7,0,0,1-1.6-2.219Z" transform="translate(-270.091 -89.596)" fill="#ebebeb"/>
            <path id="Path_17460" data-name="Path 17460" d="M335.812,154.97a2.756,2.756,0,0,1-2.487-.048l-69.624-40.2a2.832,2.832,0,0,1-1.282-2.219V51.564a2.412,2.412,0,0,1,3.686-2.129l69.624,40.2a2.832,2.832,0,0,1,1.282,2.219v60.943a2.756,2.756,0,0,1-1.2,2.177Z" transform="translate(-262.418 -49.07)" fill="#455a64"/>
            <path id="Path_17461" data-name="Path 17461" d="M333.326,155.634l-69.624-40.2a2.832,2.832,0,0,1-1.282-2.219V52.277c0-.82.572-1.151,1.282-.737l69.624,40.224a2.859,2.859,0,0,1,1.281,2.225v60.936C334.607,155.71,334.035,156.041,333.326,155.634Z" transform="translate(-262.419 -49.783)" fill="#aa43d1"/>
            <path id="Path_17462" data-name="Path 17462" d="M333.326,155.634l-69.624-40.2a2.832,2.832,0,0,1-1.282-2.219V52.277c0-.82.572-1.151,1.282-.737l69.624,40.224a2.859,2.859,0,0,1,1.281,2.225v60.936C334.607,155.71,334.035,156.041,333.326,155.634Z" transform="translate(-262.419 -49.783)" fill="#37474f"/>
            <path id="Path_17463" data-name="Path 17463" d="M365.6,198.971a2.4,2.4,0,0,0,3.5-2.232V189.89l-2.4,1.378v6.849C366.7,198.882,366.22,199.219,365.6,198.971Z" transform="translate(-294.507 -92.864)" fill="#e0e0e0"/>
            <path id="Path_17464" data-name="Path 17464" d="M334.607,173.091v6.856c0,.82-.572,1.151-1.282.744l-69.624-40.2a2.839,2.839,0,0,1-1.282-2.225V131.42Z" transform="translate(-262.419 -74.68)" fill="#fff"/>
            <path id="Path_17465" data-name="Path 17465" d="M333.279,144.764V96.534a1.7,1.7,0,0,0-.772-1.337L266.652,57.192c-.427-.248-.772-.048-.772.441v48.23a1.7,1.7,0,0,0,.772,1.337l65.855,38.019C332.934,145.453,333.279,145.254,333.279,144.764Z" transform="translate(-263.495 -51.563)" fill="#aa43d1"/>
            <path id="Path_17466" data-name="Path 17466" d="M333.279,144.764V96.534a1.7,1.7,0,0,0-.772-1.337L266.652,57.192c-.427-.248-.772-.048-.772.441v48.23a1.7,1.7,0,0,0,.772,1.337l65.855,38.019C332.934,145.453,333.279,145.254,333.279,144.764Z" transform="translate(-263.495 -51.563)" fill="#fff" opacity="0.5"/>
            <path id="Path_17467" data-name="Path 17467" d="M331.255,98.436l-58.6-33.844c-.42-.248-.765-.048-.765.441v42.718a1.709,1.709,0,0,0,.765,1.33l58.621,33.844c.42.241.765.041.765-.448V99.766A1.7,1.7,0,0,0,331.255,98.436Z" transform="translate(-265.364 -53.864)" fill="#455a64"/>
            <path id="Path_17468" data-name="Path 17468" d="M279.609,78.495v26.871a.158.158,0,0,1-.255.145l-4.3-2.48a.565.565,0,0,1-.255-.448V75.718c0-.165.11-.227.255-.145l4.3,2.48a.579.579,0,0,1,.255.441Z" transform="translate(-266.269 -57.301)" fill="#263238"/>
            <path id="Path_17469" data-name="Path 17469" d="M280.181,80.366l-1.419-.82a.117.117,0,0,0-.193.11V81.3a.441.441,0,0,0,.193.338l1.419.82c.11.055.193,0,.193-.117V80.7a.42.42,0,0,0-.193-.338Z" transform="translate(-267.44 -58.539)" fill="#37474f"/>
            <path id="Path_17470" data-name="Path 17470" d="M277,78.529l-1.419-.82a.119.119,0,0,0-.193.11v1.64a.42.42,0,0,0,.193.338l1.419.82a.117.117,0,0,0,.193-.11v-1.64A.441.441,0,0,0,277,78.529Z" transform="translate(-266.452 -57.969)" fill="#37474f"/>
            <path id="Path_17471" data-name="Path 17471" d="M280.182,83.979l-1.419-.82a.12.12,0,0,0-.193.11v1.64a.441.441,0,0,0,.193.338l1.419.82c.11.055.193,0,.193-.117V84.31a.42.42,0,0,0-.193-.331Z" transform="translate(-267.441 -59.664)" fill="#37474f"/>
            <path id="Path_17472" data-name="Path 17472" d="M277,82.139l-1.419-.82a.119.119,0,0,0-.193.11v1.64a.42.42,0,0,0,.193.338l1.419.82a.117.117,0,0,0,.193-.11V82.47A.441.441,0,0,0,277,82.139Z" transform="translate(-266.452 -59.091)" fill="#37474f"/>
            <path id="Path_17473" data-name="Path 17473" d="M280.182,87.619l-1.419-.82a.12.12,0,0,0-.193.11v1.64a.42.42,0,0,0,.193.331l1.419.806a.119.119,0,0,0,.193-.11V87.929A.42.42,0,0,0,280.182,87.619Z" transform="translate(-267.441 -60.796)" fill="#37474f"/>
            <path id="Path_17474" data-name="Path 17474" d="M277,85.749l-1.419-.82a.119.119,0,0,0-.193.11v1.64a.42.42,0,0,0,.193.338l1.419.82a.124.124,0,0,0,.186-.11V86.08A.441.441,0,0,0,277,85.749Z" transform="translate(-266.452 -60.214)" fill="#37474f"/>
            <path id="Path_17475" data-name="Path 17475" d="M280.182,91.2l-1.419-.82a.12.12,0,0,0-.193.11v1.64a.42.42,0,0,0,.193.331l1.419.82a.119.119,0,0,0,.193-.11V91.53A.42.42,0,0,0,280.182,91.2Z" transform="translate(-267.441 -61.909)" fill="#37474f"/>
            <path id="Path_17476" data-name="Path 17476" d="M277,89.359l-1.419-.82a.119.119,0,0,0-.193.11v1.64a.42.42,0,0,0,.193.338L277,91.44a.12.12,0,0,0,.193-.11V89.69A.441.441,0,0,0,277,89.359Z" transform="translate(-266.452 -61.337)" fill="#37474f"/>
            <path id="Path_17477" data-name="Path 17477" d="M280.182,94.809l-1.419-.82a.12.12,0,0,0-.193.11v1.64a.427.427,0,0,0,.193.331l1.419.82a.119.119,0,0,0,.193-.11V95.14a.413.413,0,0,0-.193-.331Z" transform="translate(-267.441 -63.032)" fill="#37474f"/>
            <path id="Path_17478" data-name="Path 17478" d="M277,92.969l-1.419-.82a.119.119,0,0,0-.193.11V93.9a.4.4,0,0,0,.193.331l1.419.82a.12.12,0,0,0,.193-.11V93.3A.441.441,0,0,0,277,92.969Z" transform="translate(-266.452 -62.46)" fill="#37474f"/>
            <path id="Path_17479" data-name="Path 17479" d="M280.182,98.419l-1.419-.82a.12.12,0,0,0-.193.11v1.64a.427.427,0,0,0,.193.331l1.419.82a.119.119,0,0,0,.193-.11V98.75A.413.413,0,0,0,280.182,98.419Z" transform="translate(-267.441 -64.154)" fill="#37474f"/>
            <path id="Path_17480" data-name="Path 17480" d="M277,96.619l-1.419-.82a.119.119,0,0,0-.193.11v1.64a.413.413,0,0,0,.193.331L277,98.7a.12.12,0,0,0,.193-.11V96.922A.441.441,0,0,0,277,96.619Z" transform="translate(-266.452 -63.595)" fill="#37474f"/>
            <path id="Path_17481" data-name="Path 17481" d="M280.182,102.029l-1.419-.82a.12.12,0,0,0-.193.11v1.64a.427.427,0,0,0,.193.331l1.419.82a.119.119,0,0,0,.193-.11v-1.64A.413.413,0,0,0,280.182,102.029Z" transform="translate(-267.441 -65.277)" fill="#37474f"/>
            <path id="Path_17482" data-name="Path 17482" d="M277,100.189l-1.419-.82a.119.119,0,0,0-.193.11v1.64a.413.413,0,0,0,.193.331l1.419.82a.12.12,0,0,0,.193-.11v-1.64A.427.427,0,0,0,277,100.189Z" transform="translate(-266.452 -64.705)" fill="#37474f"/>
            <path id="Path_17483" data-name="Path 17483" d="M280.182,105.619l-1.419-.82a.12.12,0,0,0-.193.11v1.64a.427.427,0,0,0,.193.331l1.419.82a.119.119,0,0,0,.193-.11v-1.626A.413.413,0,0,0,280.182,105.619Z" transform="translate(-267.441 -66.394)" fill="#37474f"/>
            <path id="Path_17484" data-name="Path 17484" d="M277,103.8l-1.419-.813a.119.119,0,0,0-.193.11v1.64a.413.413,0,0,0,.193.331l1.419.82a.12.12,0,0,0,.193-.11v-1.64A.427.427,0,0,0,277,103.8Z" transform="translate(-266.452 -65.831)" fill="#37474f"/>
            <path id="Path_17485" data-name="Path 17485" d="M279.695,109.972l-2.122-1.22c-.159-.1-.283,0-.283.165v2.446a.641.641,0,0,0,.283.5l2.122,1.22a.175.175,0,0,0,.282-.165v-2.446a.634.634,0,0,0-.282-.5Z" transform="translate(-267.043 -67.619)" fill="#e0e0e0"/>
            <path id="Path_17486" data-name="Path 17486" d="M275.8,110.851l1.736,1.006a.193.193,0,0,1,.062.117v2.005l-1.736-1.006a.213.213,0,0,1-.062-.117v-2.005m-.289-.641c-.09,0-.158.076-.158.207v2.446a.641.641,0,0,0,.289.5l2.115,1.22a.262.262,0,0,0,.131.041c.1,0,.159-.076.159-.207v-2.446a.648.648,0,0,0-.289-.5l-2.115-1.22A.262.262,0,0,0,275.508,110.21Z" transform="translate(-266.44 -68.084)" fill="#455a64"/>
            <path id="Path_17487" data-name="Path 17487" d="M328.547,110.159,290.4,88.111c-.806-.462-1.454-.09-1.454.841V117.2a3.224,3.224,0,0,0,1.454,2.529l38.143,22c.806.469,1.461.09,1.461-.841V112.639a3.225,3.225,0,0,0-1.461-2.48Z" transform="translate(-270.669 -61.15)" fill="#37474f"/>
            <path id="Path_17488" data-name="Path 17488" d="M294.08,96.237a.117.117,0,0,1-.11-.117v-.441a.117.117,0,0,1,.055-.1.1.1,0,0,1,.11,0l.379.22a.111.111,0,1,1-.11.193l-.214-.124v.248a.117.117,0,0,1-.11.117Z" transform="translate(-272.23 -63.53)" fill="#aa43d1"/>
            <path id="Path_17489" data-name="Path 17489" d="M307.683,103.655a.076.076,0,0,1-.055,0l-.792-.455a.1.1,0,0,1-.041-.152.11.11,0,0,1,.152-.041l.792.462a.11.11,0,0,1,.041.152A.117.117,0,0,1,307.683,103.655Zm-1.585-.916h-.055l-.792-.462a.1.1,0,0,1-.041-.152.11.11,0,0,1,.152-.041l.792.462a.1.1,0,0,1-.055.193Zm-1.592-.916h-.055l-.792-.462a.111.111,0,0,1,.11-.193l.8.462a.11.11,0,0,1-.062.207Zm-1.585-.916h-.055l-.792-.462a.11.11,0,0,1-.041-.152.117.117,0,0,1,.152-.041l.792.462a.1.1,0,0,1,.041.152.11.11,0,0,1-.1.041Zm-1.585-.916h-.055l-.792-.462a.11.11,0,1,1,.11-.186l.792.455a.11.11,0,0,1-.055.207Zm-1.585-.916H299.7l-.792-.462a.108.108,0,1,1,.11-.186l.792.455a.11.11,0,0,1,.041.152.117.117,0,0,1-.1.041Zm-1.585-.916h-.055l-.792-.455a.11.11,0,0,1-.041-.145.1.1,0,0,1,.152-.041l.792.455a.11.11,0,0,1-.055.207Zm-1.578-.916a.076.076,0,0,1-.055,0l-.8-.455a.113.113,0,1,1,.117-.193l.792.455a.124.124,0,0,1,.041.152A.131.131,0,0,1,296.59,97.24Z" transform="translate(-272.763 -63.844)" fill="#aa43d1"/>
            <path id="Path_17490" data-name="Path 17490" d="M314.579,108.071a.11.11,0,0,1-.11-.11v-.379l-.324-.186a.111.111,0,1,1,.11-.193l.386.22a.11.11,0,0,1,.055.1v.441a.117.117,0,0,1-.117.11Z" transform="translate(-278.487 -67.144)" fill="#aa43d1"/>
            <path id="Path_17491" data-name="Path 17491" d="M314.749,130.11a.11.11,0,0,1-.11-.11v-.882a.11.11,0,0,1,.11-.11.117.117,0,0,1,.117.11v.889A.117.117,0,0,1,314.749,130.11Zm0-1.778a.11.11,0,0,1-.11-.11v-.889a.11.11,0,0,1,.11-.11.117.117,0,0,1,.117.11v.889A.117.117,0,0,1,314.749,128.333Zm0-1.778a.11.11,0,0,1-.11-.11v-.889a.11.11,0,0,1,.11-.11.117.117,0,0,1,.117.11v.889A.117.117,0,0,1,314.749,126.555Zm0-1.778a.11.11,0,0,1-.11-.11v-.889a.11.11,0,0,1,.11-.11.117.117,0,0,1,.117.11v.889A.117.117,0,0,1,314.749,124.777Zm0-1.778a.11.11,0,0,1-.11-.11V122a.11.11,0,0,1,.11-.11.117.117,0,0,1,.117.11v.916a.117.117,0,0,1-.117.083Zm0-1.778a.11.11,0,0,1-.11-.11v-.889a.11.11,0,0,1,.11-.11.117.117,0,0,1,.117.11v.889A.117.117,0,0,1,314.749,121.222Zm0-1.778a.11.11,0,0,1-.11-.11v-.889a.11.11,0,0,1,.11-.11.117.117,0,0,1,.117.11v.889a.117.117,0,0,1-.117.138Zm0-1.778a.11.11,0,0,1-.11-.11v-.889a.11.11,0,0,1,.11-.11.117.117,0,0,1,.117.11v.889a.117.117,0,0,1-.117.11Zm0-1.778a.11.11,0,0,1-.11-.11v-.889a.11.11,0,0,1,.11-.11.117.117,0,0,1,.117.11v.889a.117.117,0,0,1-.117.11Zm0-1.778a.117.117,0,0,1-.11-.11v-.889a.117.117,0,1,1,.227,0V114a.117.117,0,0,1-.117.11Zm0-1.785a.11.11,0,0,1-.11-.11v-.889a.114.114,0,0,1,.227,0v.889a.117.117,0,0,1-.117.11Zm0-1.778a.11.11,0,0,1-.11-.11v-.889a.11.11,0,0,1,.11-.11.117.117,0,0,1,.117.11v.889a.117.117,0,0,1-.117.11Z" transform="translate(-278.657 -67.845)" fill="#aa43d1"/>
            <path id="Path_17492" data-name="Path 17492" d="M314.571,141.085h-.055l-.379-.227a.11.11,0,1,1,.11-.186l.214.124v-.255a.11.11,0,0,1,.11-.11.117.117,0,0,1,.117.11v.448a.117.117,0,0,1-.055.1Z" transform="translate(-278.479 -77.482)" fill="#aa43d1"/>
            <path id="Path_17493" data-name="Path 17493" d="M307.687,137.2h-.055l-.792-.455a.11.11,0,0,1-.041-.152.1.1,0,0,1,.152-.041l.792.455a.11.11,0,0,1-.055.207Zm-1.585-.916h-.062l-.792-.455a.11.11,0,0,1-.034-.152.1.1,0,0,1,.152-.041l.792.455a.1.1,0,0,1-.055.193Zm-1.592-.916a.09.09,0,0,1-.055,0l-.792-.455a.124.124,0,0,1-.041-.152.11.11,0,0,1,.152-.041l.792.455a.1.1,0,0,1-.055.193Zm-1.585-.916a.083.083,0,0,1-.055,0l-.792-.455a.11.11,0,0,1-.041-.152.117.117,0,0,1,.152-.041l.792.455a.117.117,0,0,1,.041.152A.1.1,0,0,1,302.926,134.446Zm-1.585-.916a.083.083,0,0,1-.055,0l-.792-.455a.111.111,0,1,1,.11-.193l.792.455a.117.117,0,0,1,.041.152.1.1,0,0,1-.1.041Zm-1.585-.91H299.7l-.792-.462a.111.111,0,0,1,.11-.193l.792.462a.11.11,0,0,1,.041.152.117.117,0,0,1-.1.041Zm-1.585-.916h-.055l-.792-.462a.1.1,0,0,1-.041-.152.11.11,0,0,1,.152-.041l.792.462a.1.1,0,0,1-.055.193Zm-1.578-.916h-.055l-.792-.462a.113.113,0,0,1,.117-.193l.792.462a.11.11,0,0,1-.062.207Z" transform="translate(-272.767 -74.275)" fill="#aa43d1"/>
            <path id="Path_17494" data-name="Path 17494" d="M294.459,129.368H294.4l-.379-.22a.11.11,0,0,1-.055-.1v-.441a.11.11,0,1,1,.22,0v.379l.324.186a.1.1,0,0,1,.041.152A.11.11,0,0,1,294.459,129.368Z" transform="translate(-272.23 -73.772)" fill="#aa43d1"/>
            <path id="Path_17495" data-name="Path 17495" d="M294.08,118.18a.11.11,0,0,1-.11-.11v-.9a.11.11,0,0,1,.221,0v.9A.11.11,0,0,1,294.08,118.18Zm0-1.785a.11.11,0,0,1-.11-.11V115.4a.11.11,0,0,1,.221,0v.889a.11.11,0,0,1-.11.11Zm0-1.778a.11.11,0,0,1-.11-.11v-.889a.11.11,0,0,1,.221,0v.889A.11.11,0,0,1,294.08,114.618Zm0-1.778a.11.11,0,0,1-.11-.11v-.889a.11.11,0,0,1,.221,0v.889A.11.11,0,0,1,294.08,112.84Zm0-1.778a.11.11,0,0,1-.09-.124v-.889a.11.11,0,0,1,.22,0v.889a.11.11,0,0,1-.131.124Zm0-1.778a.11.11,0,0,1-.11-.11v-.889a.11.11,0,0,1,.221,0v.889A.11.11,0,0,1,294.08,109.285Zm0-1.778a.11.11,0,0,1-.11-.11v-.889a.11.11,0,0,1,.221,0v.889a.11.11,0,0,1-.11.1Zm0-1.778a.11.11,0,0,1-.11-.11v-.882a.11.11,0,0,1,.221,0v.889A.11.11,0,0,1,294.08,105.73Zm0-1.778a.11.11,0,0,1-.11-.11v-.889a.11.11,0,0,1,.221,0v.889A.11.11,0,0,1,294.08,103.952Zm0-1.778a.11.11,0,0,1-.11-.11v-.889a.11.11,0,0,1,.221,0v.889a.11.11,0,0,1-.11.11Zm0-1.778a.11.11,0,0,1-.11-.11V99.4a.11.11,0,0,1,.221,0v.889a.11.11,0,0,1-.11.11Zm0-1.778a.11.11,0,0,1-.09-.083V97.62a.11.11,0,1,1,.22,0v.916A.11.11,0,0,1,294.08,98.619Z" transform="translate(-272.23 -64.134)" fill="#aa43d1"/>
            <path id="Path_17496" data-name="Path 17496" d="M294.263,96.2a.1.1,0,0,1-.1-.069l-.172-.4a.11.11,0,1,1,.2-.09l.186.4a.1.1,0,0,1-.055.145Z" transform="translate(-272.234 -63.532)" fill="#aa43d1"/>
            <path id="Path_17497" data-name="Path 17497" d="M308.015,126.454a.1.1,0,0,1-.1-.062l-.379-.827a.113.113,0,1,1,.207-.09l.372.827a.11.11,0,0,1-.055.145Zm-.744-1.647a.11.11,0,0,1-.1-.069l-.379-.82a.117.117,0,1,1,.207-.1l.372.827a.1.1,0,0,1-.055.145Zm-.751-1.654a.11.11,0,0,1-.1-.062l-.372-.827a.109.109,0,1,1,.2-.09l.372.827a.11.11,0,0,1-.055.145Zm-.751-1.647a.124.124,0,0,1-.1-.069l-.372-.82a.111.111,0,1,1,.2-.1l.372.827a.1.1,0,0,1-.055.145Zm-.751-1.654a.11.11,0,0,1-.1-.062l-.372-.827a.109.109,0,1,1,.2-.09l.372.827a.1.1,0,0,1-.048.145Zm-.751-1.647a.124.124,0,0,1-.1-.069l-.372-.82a.111.111,0,1,1,.2-.1l.379.827a.11.11,0,0,1-.055.145Zm-.751-1.654a.1.1,0,0,1-.1-.062l-.379-.827a.11.11,0,0,1,.055-.145.1.1,0,0,1,.145.055l.379.827a.117.117,0,0,1-.055.145Zm-.751-1.647a.1.1,0,0,1-.1-.069l-.379-.827a.11.11,0,0,1,.055-.145.1.1,0,0,1,.145.055l.379.827a.1.1,0,0,1-.055.145Zm-.751-1.654a.1.1,0,0,1-.1-.062l-.379-.827a.11.11,0,0,1,.055-.145.1.1,0,0,1,.145.055l.379.82a.11.11,0,0,1-.055.152Zm-.758-1.674a.11.11,0,0,1-.1-.069l-.379-.827a.113.113,0,0,1,.207-.09l.372.827a.11.11,0,0,1-.055.145Zm-.744-1.654a.11.11,0,0,1-.1-.062l-.379-.827a.113.113,0,0,1,.207-.09l.372.82a.117.117,0,0,1-.055.152Zm-.765-1.619a.124.124,0,0,1-.1-.069l-.372-.827a.1.1,0,0,1,.055-.145.11.11,0,0,1,.145.055l.372.827a.11.11,0,0,1-.055.145ZM299,106.652a.11.11,0,0,1-.1-.062l-.372-.827a.11.11,0,1,1,.2-.09l.372.82a.117.117,0,0,1-.055.152ZM298.245,105a.11.11,0,0,1-.1-.062l-.372-.827a.11.11,0,0,1,.2-.09l.372.827a.1.1,0,0,1-.055.145Zm-.751-1.647a.131.131,0,0,1-.1-.062l-.372-.827a.111.111,0,1,1,.2-.1l.379.827a.124.124,0,0,1-.055.152Zm-.751-1.654a.11.11,0,0,1-.1-.062l-.372-.827a.11.11,0,0,1,.2-.09l.379.827a.117.117,0,0,1-.055.145Zm-.751-1.647a.1.1,0,0,1-.1-.069l-.379-.82a.117.117,0,0,1,.055-.152.11.11,0,0,1,.145.055l.379.827a.11.11,0,0,1-.055.145Zm-.751-1.654a.1.1,0,0,1-.1-.062l-.379-.827a.11.11,0,0,1,.055-.145.1.1,0,0,1,.145.055l.379.827a.11.11,0,0,1-.055.145Z" transform="translate(-272.475 -64.086)" fill="#aa43d1"/>
            <path id="Path_17498" data-name="Path 17498" d="M314.668,141.1a.11.11,0,0,1-.1-.069l-.186-.4a.11.11,0,0,1,.055-.145.1.1,0,0,1,.145.055l.186.4a.1.1,0,0,1-.055.145Z" transform="translate(-278.577 -77.496)" fill="#aa43d1"/>
            <path id="Path_17499" data-name="Path 17499" d="M314.313,108.055a.117.117,0,0,1-.076-.193l.3-.317a.11.11,0,0,1,.158,0,.117.117,0,0,1,0,.158l-.3.324a.124.124,0,0,1-.083.028Z" transform="translate(-278.525 -67.245)" fill="#aa43d1"/>
            <path id="Path_17500" data-name="Path 17500" d="M295.382,122.113a.1.1,0,0,1-.076,0,.117.117,0,0,1,0-.158l.592-.62a.11.11,0,0,1,.152.158l-.593.62A.117.117,0,0,1,295.382,122.113Zm1.185-1.233a.085.085,0,0,1-.076-.152l.593-.62a.1.1,0,0,1,.152,0,.11.11,0,0,1,0,.158l-.593.62A.124.124,0,0,1,296.567,120.88Zm1.185-1.24a.085.085,0,0,1-.076-.152l.593-.62a.11.11,0,0,1,.158,0,.117.117,0,0,1,0,.158l-.593.62a.117.117,0,0,1-.083-.007Zm1.185-1.24a.1.1,0,0,1-.076,0,.117.117,0,0,1,0-.158l.593-.62a.1.1,0,0,1,.159,0,.11.11,0,0,1,0,.152l-.593.62A.117.117,0,0,1,298.937,118.4Zm1.192-1.24a.089.089,0,0,1-.083-.158l.593-.62a.117.117,0,0,1,.158,0,.11.11,0,0,1,0,.152l-.592.62a.09.09,0,0,1-.076.007Zm1.185-1.24a.131.131,0,0,1-.083,0,.117.117,0,0,1,0-.158l.593-.62a.112.112,0,0,1,.158.158l-.592.613a.09.09,0,0,1-.1.007Zm1.185-1.233a.117.117,0,0,1-.083-.193l.592-.62a.112.112,0,0,1,.159.158l-.593.62a.11.11,0,0,1-.076.034Zm1.185-1.24a.11.11,0,0,1-.076,0,.1.1,0,0,1,0-.152l.593-.62a.11.11,0,0,1,.158,0,.117.117,0,0,1,0,.158l-.593.62a.11.11,0,0,1-.083-.007Zm1.185-1.24a.09.09,0,0,1-.076,0,.1.1,0,0,1,0-.152l.593-.62a.11.11,0,1,1,.158.152l-.593.62a.11.11,0,0,1-.083,0Zm1.185-1.24a.1.1,0,0,1-.076,0,.11.11,0,0,1,0-.158l.593-.62a.11.11,0,0,1,.158,0,.1.1,0,0,1,0,.152l-.586.62A.145.145,0,0,1,306.055,110.965Zm1.185-1.24a.1.1,0,0,1-.076,0,.11.11,0,0,1,0-.158l.593-.62a.117.117,0,0,1,.158,0,.1.1,0,0,1,0,.152l-.593.62a.11.11,0,0,1-.083.007Z" transform="translate(-272.636 -67.681)" fill="#aa43d1"/>
            <path id="Path_17501" data-name="Path 17501" d="M294.081,129.2a.11.11,0,0,1-.076-.034.1.1,0,0,1,0-.152l.31-.324a.11.11,0,0,1,.152,0,.1.1,0,0,1,0,.152l-.31.324A.11.11,0,0,1,294.081,129.2Z" transform="translate(-272.231 -73.821)" fill="#aa43d1"/>
            <path id="Path_17502" data-name="Path 17502" d="M304.42,135.108a.11.11,0,0,1-.11-.11v-.448a.11.11,0,0,1,.221,0V135A.11.11,0,0,1,304.42,135.108Z" transform="translate(-275.446 -75.619)" fill="#aa43d1"/>
            <path id="Path_17503" data-name="Path 17503" d="M304.42,129.4a.11.11,0,0,1-.11-.11v-.82a.11.11,0,1,1,.22,0v.82A.11.11,0,0,1,304.42,129.4Zm0-1.64a.11.11,0,0,1-.11-.11v-.82a.11.11,0,0,1,.22,0v.8a.11.11,0,0,1-.11.131Zm0-1.64a.11.11,0,0,1-.11-.11v-.82a.11.11,0,1,1,.22,0v.82A.11.11,0,0,1,304.42,126.117Zm0-1.64a.117.117,0,0,1-.11-.117v-.82a.11.11,0,1,1,.22,0v.82A.117.117,0,0,1,304.42,124.477Zm0-1.647a.11.11,0,0,1-.11-.11v-.82a.11.11,0,0,1,.22,0v.82a.11.11,0,0,1-.11.083Zm0-1.64a.11.11,0,0,1-.11-.11v-.82a.11.11,0,0,1,.22,0v.82A.11.11,0,0,1,304.42,121.19Z" transform="translate(-275.446 -71.175)" fill="#aa43d1"/>
            <path id="Path_17504" data-name="Path 17504" d="M304.42,118.98a.11.11,0,0,1-.11-.11v-.448a.117.117,0,0,1,.055-.1.152.152,0,0,1,.11,0l.379.227a.1.1,0,0,1,.041.152.11.11,0,0,1-.152.034l-.214-.124v.255A.11.11,0,0,1,304.42,118.98Z" transform="translate(-275.446 -70.605)" fill="#aa43d1"/>
            <path id="Path_17505" data-name="Path 17505" d="M310.967,122.3a.076.076,0,0,1-.055,0l-.689-.407a.1.1,0,0,1-.041-.152.11.11,0,0,1,.152-.041l.689.407a.117.117,0,0,1,.041.152.11.11,0,0,1-.1.041Zm-1.378-.813h-.055l-.689-.407a.111.111,0,1,1,.11-.193l.689.407a.1.1,0,0,1,.041.152.11.11,0,0,1-.131.041Zm-1.378-.813h-.055l-.689-.407a.124.124,0,0,1-.041-.152.117.117,0,0,1,.152-.041l.689.407a.113.113,0,1,1-.117.193Zm-1.412-.813h-.055l-.689-.407a.11.11,0,0,1-.041-.152.1.1,0,0,1,.152-.041l.689.407a.11.11,0,0,1,.041.152.117.117,0,0,1-.158.041Z" transform="translate(-275.971 -70.894)" fill="#aa43d1"/>
            <path id="Path_17506" data-name="Path 17506" d="M314.567,124.4a.083.083,0,0,1-.055,0l-.386-.22a.117.117,0,0,1-.041-.152.124.124,0,0,1,.152-.041l.386.227a.1.1,0,0,1,.041.145.1.1,0,0,1-.1.041Z" transform="translate(-278.482 -72.365)" fill="#aa43d1"/>
            <path id="Path_17507" data-name="Path 17507" d="M304.42,102.108a.11.11,0,0,1-.11-.11v-.448a.11.11,0,0,1,.221,0V102A.11.11,0,0,1,304.42,102.108Z" transform="translate(-275.446 -65.357)" fill="#aa43d1"/>
            <path id="Path_17508" data-name="Path 17508" d="M304.42,112.526a.11.11,0,0,1-.11-.11v-.82a.11.11,0,0,1,.221,0v.82a.11.11,0,0,1-.11.11Zm0-1.64a.11.11,0,0,1-.11-.11v-.8a.11.11,0,0,1,.221,0v.82A.11.11,0,0,1,304.42,110.887Zm0-1.64a.11.11,0,0,1-.11-.11v-.82a.11.11,0,0,1,.221,0v.82A.11.11,0,0,1,304.42,109.247Zm0-1.647a.11.11,0,0,1-.11-.11v-.82a.11.11,0,0,1,.221,0v.82A.11.11,0,0,1,304.42,107.6Zm0-1.64a.11.11,0,0,1-.11-.11v-.82a.11.11,0,0,1,.221,0v.813a.11.11,0,0,1-.11.117Zm0-1.64a.11.11,0,0,1-.11-.11v-.82a.11.11,0,0,1,.221,0v.82a.11.11,0,0,1-.11.11Z" transform="translate(-275.446 -65.929)" fill="#aa43d1"/>
            <path id="Path_17509" data-name="Path 17509" d="M304.238,118.245h-.055l-.386-.227a.11.11,0,1,1,.11-.186l.221.124V117.7a.11.11,0,0,1,.22,0v.448a.117.117,0,0,1-.055.1Z" transform="translate(-275.264 -70.379)" fill="#aa43d1"/>
            <path id="Path_17510" data-name="Path 17510" d="M300.649,116.243a.076.076,0,0,1-.055,0l-.689-.407a.117.117,0,0,1-.041-.152.124.124,0,0,1,.152-.041l.689.406a.124.124,0,0,1,.041.152A.1.1,0,0,1,300.649,116.243Zm-1.412-.813a.076.076,0,0,1-.055,0l-.689-.406a.1.1,0,0,1-.041-.152.11.11,0,0,1,.152-.041l.689.407a.117.117,0,0,1,.041.152.11.11,0,0,1-.1.041Zm-1.378-.813H297.8l-.689-.407a.111.111,0,1,1,.11-.193l.689.407a.1.1,0,0,1,.041.152.11.11,0,0,1-.131.041Zm-1.378-.813h-.055l-.689-.407a.124.124,0,0,1-.041-.152.117.117,0,0,1,.152-.041l.689.407a.113.113,0,1,1-.117.193Z" transform="translate(-272.764 -69.011)" fill="#aa43d1"/>
            <path id="Path_17511" data-name="Path 17511" d="M294.477,112.707h-.055l-.386-.22a.124.124,0,0,1-.041-.152.11.11,0,0,1,.152-.041l.386.22a.11.11,0,0,1,.041.152A.117.117,0,0,1,294.477,112.707Z" transform="translate(-272.235 -68.727)" fill="#aa43d1"/>
            <path id="Path_17512" data-name="Path 17512" d="M303.563,125.255a4.933,4.933,0,0,1-2.46-.73c-3.962-2.294-7.193-9.37-7.193-15.778,0-3.769,1.144-6.683,3.059-7.786a4.079,4.079,0,0,1,4.251.248c3.969,2.288,7.193,9.37,7.193,15.778,0,3.769-1.137,6.676-3.052,7.786A3.555,3.555,0,0,1,303.563,125.255Zm-4.823-24.549a3.321,3.321,0,0,0-1.688.455c-1.84,1.061-2.935,3.9-2.935,7.579,0,6.332,3.176,13.318,7.076,15.572a3.874,3.874,0,0,0,4.024.255c1.84-1.068,2.942-3.9,2.942-7.579,0-6.339-3.176-13.325-7.083-15.578a4.672,4.672,0,0,0-2.281-.7Z" transform="translate(-272.212 -65.056)" fill="#aa43d1"/>
            <path id="Path_17513" data-name="Path 17513" d="M320.12,134.783l12.03,6.945L320.12,115.16Z" transform="translate(-280.363 -69.624)" fill="#aa43d1"/>
            <path id="Path_17514" data-name="Path 17514" d="M271.86,65.024c0-.482.345-.689.765-.434l58.621,33.844a1.7,1.7,0,0,1,.765,1.33v3.28l-60.15-34.76Z" transform="translate(-265.354 -53.862)" fill="#37474f"/>
            <path id="Path_17515" data-name="Path 17515" d="M314.266,165.4a2.653,2.653,0,0,1,1.2,2.067c0,.765-.537,1.082-1.2.689a2.653,2.653,0,0,1-1.206-2.067C313.06,165.319,313.6,165.009,314.266,165.4Z" transform="translate(-278.167 -85.195)" fill="#455a64"/>
            <path id="Path_17516" data-name="Path 17516" d="M366.64,110.712a2.673,2.673,0,0,1,.379,1.268v54.245l2.4-1.378V110.588a2.639,2.639,0,0,0-.379-1.268Z" transform="translate(-294.83 -67.807)" fill="#263238"/>
          </g>
        </g>
        <g id="freepik--Tablet--inject-248" transform="translate(81.813 109.622)">
          <path id="freepik--shadow--inject-248-6" data-name="freepik--shadow--inject-248" d="M295.569,232.251,258.425,210.8a1.378,1.378,0,0,0-1.254,0l-22.379,12.919a.386.386,0,0,0,0,.73l37.144,21.442a1.378,1.378,0,0,0,1.261,0l22.372-12.919a.379.379,0,0,0,0-.723Z" transform="translate(-234.531 -208.942)" opacity="0.15"/>
          <g id="freepik--tablet--inject-248-2" data-name="freepik--tablet--inject-248" transform="translate(0.709)">
            <path id="Path_17517" data-name="Path 17517" d="M295.279,229.171l-36.118-20.856a1.378,1.378,0,0,0-1.226,0l-21.752,12.561a1.378,1.378,0,0,0-.613,1.061v.248a1.378,1.378,0,0,0,.613,1.061L272.3,244.1a1.33,1.33,0,0,0,1.226,0l21.752-12.561a1.378,1.378,0,0,0,.613-1.061v-.241A1.378,1.378,0,0,0,295.279,229.171Z" transform="translate(-235.563 -208.171)" fill="#aa43d1"/>
            <path id="Path_17518" data-name="Path 17518" d="M295.439,229.171l-36.118-20.856a1.378,1.378,0,0,0-1.226,0l-21.752,12.561c-.344.2-.344.51,0,.689l36.118,20.849a1.33,1.33,0,0,0,1.226,0l21.752-12.561a.372.372,0,0,0,0-.682Z" transform="translate(-235.723 -208.171)" fill="#aa43d1"/>
            <g id="Group_467" data-name="Group 467" transform="translate(0.362)" opacity="0.2">
              <path id="Path_17519" data-name="Path 17519" d="M295.439,229.171l-36.118-20.856a1.378,1.378,0,0,0-1.226,0l-21.752,12.561c-.344.2-.344.51,0,.689l36.118,20.849a1.33,1.33,0,0,0,1.226,0l21.752-12.561a.372.372,0,0,0,0-.682Z" transform="translate(-236.085 -208.171)"/>
            </g>
            <path id="Path_17520" data-name="Path 17520" d="M270.434,218.065a1.378,1.378,0,0,0-1.226,0c-2.694,1.53-13.339,7.7-16.012,9.246a.372.372,0,0,0,0,.689c3.521,2.067,21.132,12.189,24.632,14.221a1.378,1.378,0,0,0,1.226,0l16.013-9.24c.338-.2.338-.517,0-.689Z" transform="translate(-240.973 -211.203)" fill="#37474f"/>
            <path id="Path_17521" data-name="Path 17521" d="M259.749,219.488a1.185,1.185,0,0,1,0,2.246,4.306,4.306,0,0,1-3.893,0,1.185,1.185,0,0,1,0-2.246A4.265,4.265,0,0,1,259.749,219.488Z" transform="translate(-241.621 -211.544)" fill="#37474f"/>
            <path id="Path_17522" data-name="Path 17522" d="M252.237,222.974l1.743,1.02c.51.289.6.689.2.944a1.847,1.847,0,0,1-1.633-.117l-1.75-1.02c-.51-.3-.6-.689-.2-.944a1.84,1.84,0,0,1,1.64.117Z" transform="translate(-240.159 -212.695)" fill="#37474f"/>
            <path id="Path_17523" data-name="Path 17523" d="M249.265,224.681l1.743,1.02c.51.3.6.689.2.944a1.826,1.826,0,0,1-1.633-.117l-1.778-1.02c-.51-.3-.6-.689-.2-.951A1.867,1.867,0,0,1,249.265,224.681Z" transform="translate(-239.226 -213.223)" fill="#37474f"/>
            <path id="Path_17524" data-name="Path 17524" d="M246.31,226.4l1.75,1.02c.51.289.6.689.2.944a1.826,1.826,0,0,1-1.633-.117l-1.75-1.02c-.51-.289-.6-.689-.2-.944a1.826,1.826,0,0,1,1.633.117Z" transform="translate(-238.318 -213.762)" fill="#37474f"/>
            <path id="Path_17525" data-name="Path 17525" d="M269.253,213.184,271,214.2c.51.289.6.689.207.944a1.84,1.84,0,0,1-1.64-.117l-1.764-1.02c-.5-.289-.593-.689-.2-.944A1.86,1.86,0,0,1,269.253,213.184Z" transform="translate(-245.448 -209.65)" fill="#37474f"/>
            <path id="Path_17526" data-name="Path 17526" d="M266.3,214.884l1.743,1.02c.51.289.6.689.2.944a1.847,1.847,0,0,1-1.633-.117l-1.75-1.02c-.5-.289-.6-.689-.2-.944A1.84,1.84,0,0,1,266.3,214.884Z" transform="translate(-244.532 -210.179)" fill="#37474f"/>
            <path id="Path_17527" data-name="Path 17527" d="M263.337,216.616l1.743,1.02c.51.3.6.689.2.944a1.826,1.826,0,0,1-1.633-.11l-1.75-1.02c-.51-.3-.6-.689-.2-.944A1.84,1.84,0,0,1,263.337,216.616Z" transform="translate(-243.611 -210.719)" fill="#37474f"/>
            <g id="Group_468" data-name="Group 468" transform="translate(37.351 21.076)" opacity="0.3">
              <path id="Path_17528" data-name="Path 17528" d="M289.77,252.1v1.654a1.378,1.378,0,0,0,.613-.138l21.752-12.567a1.337,1.337,0,0,0,.62-1.061v-.241a1.378,1.378,0,0,0-.5-.985c.22.193.179.455-.117.634l-21.752,12.554a1.192,1.192,0,0,1-.613.152Z" transform="translate(-289.77 -238.76)"/>
            </g>
            <g id="Group_469" data-name="Group 469" transform="translate(0 12.78)" opacity="0.5">
              <path id="Path_17529" data-name="Path 17529" d="M235.56,227.705v.248a1.378,1.378,0,0,0,.62,1.061l36.111,20.856a1.288,1.288,0,0,0,.62.138v-1.654a1.22,1.22,0,0,1-.62-.152L236.18,227.354c-.3-.172-.338-.434-.117-.634A1.378,1.378,0,0,0,235.56,227.705Z" transform="translate(-235.56 -226.72)"/>
            </g>
          </g>
        </g>
        <g id="freepik--Pencil--inject-248" transform="translate(87.587 74.125)">
          <path id="freepik--shadow--inject-248-7" data-name="freepik--shadow--inject-248" d="M261.017,167.654a2.136,2.136,0,0,1-1.509.9.765.765,0,0,1-.537-.1l-14.7-8.613-1.323-1.55a.165.165,0,0,1,.165-.262l2.949.779,14.91,8.613a.193.193,0,0,1,.048.234Z" transform="translate(-242.911 -157.079)" opacity="0.15"/>
          <path id="Path_17530" data-name="Path 17530" d="M246.938,157.25l-3.052-.593a.09.09,0,0,0-.09.152l2.067,2.35Z" transform="translate(-243.177 -156.652)" fill="#ffa8a7"/>
          <path id="Path_17531" data-name="Path 17531" d="M243.8,156.809a.09.09,0,0,1,.09-.152l.6.117h0a.517.517,0,0,0-.248.482v.055Z" transform="translate(-243.177 -156.652)" fill="#263238"/>
          <path id="Path_17532" data-name="Path 17532" d="M258.182,165.97l-.248-.145-.3-.172-10.838-6.2a1.378,1.378,0,0,1,.083-1.013,1.426,1.426,0,0,1,.985-.889l10.831,6.2.579.331C258.885,163.882,257.8,165.77,258.182,165.97Z" transform="translate(-244.1 -156.931)" fill="#aa43d1"/>
          <path id="Path_17533" data-name="Path 17533" d="M261.712,167.994l-.551-.324c-.165-.083-.076-.489.117-.909.255-.551.758-1.1.978-.978l.407.234.152.09c-.22-.117-.723.42-.978.978-.186.4-.276.792-.138.9h0Z" transform="translate(-248.56 -159.487)" fill="#ebebeb"/>
          <path id="Path_17534" data-name="Path 17534" d="M261.724,168c-.379-.2.689-2.067,1.1-1.888l.565.324c-.386-.207-1.481,1.681-1.1,1.881Z" transform="translate(-248.737 -159.591)" fill="#aa43d1"/>
          <path id="Path_17535" data-name="Path 17535" d="M263.065,168.763l-.551-.317c-.379-.2.689-2.026,1.061-1.909h0l.558.317C263.768,166.675,262.679,168.563,263.065,168.763Z" transform="translate(-248.983 -159.725)" fill="#ebebeb"/>
          <path id="Path_17536" data-name="Path 17536" d="M243.775,156.708l.1-.048,2.219,1.213,11.458,6.6c0-.034.041-.034.055,0-.331.51-.572,1.151-.358,1.261L257,165.59l-.3-.172-10.838-6.2h0l-2.067-2.35a.1.1,0,0,1-.021-.158Z" transform="translate(-243.17 -156.655)" opacity="0.15"/>
          <path id="Path_17537" data-name="Path 17537" d="M265.654,170.245l-2.343-1.337c-.165-.09-.076-.489.117-.9.248-.558.751-1.1.971-.992h0l2.35,1.378c.469.269.034,1.282-.482,1.729A.551.551,0,0,1,265.654,170.245Z" transform="translate(-249.229 -159.87)" fill="#f28f8f"/>
          <path id="Path_17538" data-name="Path 17538" d="M266.522,170.127a1.7,1.7,0,0,1,.958-1.158.379.379,0,0,1,.351.048c.351.324-.062,1.254-.551,1.681a.558.558,0,0,1-.606.158C266.5,170.754,266.433,170.485,266.522,170.127Z" transform="translate(-250.242 -160.476)" opacity="0.1"/>
        </g>
        <g id="freepik--Mouse--inject-248" transform="translate(135.204 110.697)">
          <path id="Path_17539" data-name="Path 17539" d="M313.061,218.251l4.492,2.591a4.94,4.94,0,0,0,4.961-.262l7.407-5.436a1.788,1.788,0,0,0-.165-3.231l-2.26-1.3a6.1,6.1,0,0,0-5.209-.158l-9.15,4.961C311.683,216.142,311.641,217.4,313.061,218.251Z" transform="translate(-312.021 -209.798)" opacity="0.15"/>
          <path id="Path_17540" data-name="Path 17540" d="M330.387,212.721l-5.133,4.01-3.783,2.963a3.225,3.225,0,0,1-1.206.289,3.321,3.321,0,0,1-1.8-.379l-4.024-2.322h0a2.839,2.839,0,0,1-.813-4.065l.117-.165a5.354,5.354,0,0,1,3.238-2.067l2.067-.406c3.293-.689,6-.992,6.318-.779l5.044,2.915Z" transform="translate(-312.356 -209.732)" fill="#fff"/>
          <path id="Path_17541" data-name="Path 17541" d="M330.458,215.24l.283-.227-4.52-2.611,3.955-1.226-.4-.227-3.955,1.22-2.7-1.557-.51.1Z" transform="translate(-315.314 -210.005)" fill="#455a64"/>
          <path id="Path_17542" data-name="Path 17542" d="M325.153,220.807h0l3.6-2.6,4.864-3.514v-.551a.062.062,0,0,0,0-.041h0c-.365-.124-2.474.51-5.023,1.523l-1.688.689a5.333,5.333,0,0,0-3.383,4.988v.09a3.224,3.224,0,0,0,1.206-.289Z" transform="translate(-315.597 -211.087)" fill="#e6e6e6"/>
        </g>
        <g id="freepik--Palettes--inject-248" transform="translate(159.251 116.21)">
          <path id="freepik--shadow--inject-248-8" data-name="freepik--shadow--inject-248" d="M346.975,225.169a.689.689,0,0,1,.489-.317l35.05-5.422h.138a.689.689,0,0,1,.634.351l1.516,3.266,1.874,1.874a.53.53,0,0,1,.117.186l1.04.6a.517.517,0,0,1,0,.923l-25.659,14.814a.82.82,0,0,1-.4.1.861.861,0,0,1-.406-.1l-5.312-3.066a.537.537,0,0,1-.282-.462.517.517,0,0,1,.282-.462l6.242-3.61-7.3,2.439a.847.847,0,0,1-.269.041.751.751,0,0,1-.531-.2l-3.776-3.762a.524.524,0,0,1-.138-.482.579.579,0,0,1,.4-.407l8.268-2.756-9.219,1.44h-.138a.689.689,0,0,1-.641-.358l-1.977-4.182A.489.489,0,0,1,346.975,225.169Z" transform="translate(-346.921 -218.261)" opacity="0.15"/>
          <g id="freepik--Palette--inject-248" transform="translate(9.266 3.118)">
            <path id="Path_17543" data-name="Path 17543" d="M360.37,237.24a.145.145,0,0,1,.083-.117l25.659-14.814a.469.469,0,0,1,.407,0l5.312,3.066a.145.145,0,0,1,.083.117v.8a.145.145,0,0,1-.083.117l-25.659,14.814a.468.468,0,0,1-.406,0l-5.312-3.066a.145.145,0,0,1-.083-.117Z" transform="translate(-360.369 -222.261)" fill="#f0f0f0"/>
            <path id="Path_17544" data-name="Path 17544" d="M368.5,241.945v.792a.372.372,0,0,0,.2-.048l25.638-14.814a.131.131,0,0,0,.083-.117V227c0,.048,0,.076-.083.11l-25.659,14.814A.427.427,0,0,1,368.5,241.945Z" transform="translate(-362.898 -223.734)" fill="#e0e0e0"/>
            <path id="Path_17545" data-name="Path 17545" d="M386.111,222.3l-25.659,14.814a.124.124,0,0,0,0,.234l5.312,3.066a.427.427,0,0,0,.407,0L391.809,225.6c.11-.062.11-.165,0-.234L386.5,222.3a.468.468,0,0,0-.386,0Z" transform="translate(-360.369 -222.26)" fill="#fafafa"/>
            <path id="Path_17546" data-name="Path 17546" d="M396.586,224.28l3.176,1.833-3.176,1.84-3.176-1.84Z" transform="translate(-370.645 -222.888)" fill="#f28f8f"/>
            <path id="Path_17547" data-name="Path 17547" d="M396.586,224.28l3.176,1.833-3.176,1.84-3.176-1.84Z" transform="translate(-370.645 -222.888)" fill="#f0f0f0" opacity="0.9"/>
            <path id="Path_17548" data-name="Path 17548" d="M384.776,231.1l3.176,1.833-3.176,1.84-3.176-1.84Z" transform="translate(-366.972 -225.009)" fill="#f28f8f"/>
            <path id="Path_17549" data-name="Path 17549" d="M384.776,231.1l3.176,1.833-3.176,1.84-3.176-1.84Z" transform="translate(-366.972 -225.009)" fill="#f0f0f0" opacity="0.6"/>
            <path id="Path_17550" data-name="Path 17550" d="M378.873,234.51l3.176,1.833-3.176,1.84-3.183-1.84Z" transform="translate(-365.134 -226.069)" fill="#f28f8f"/>
            <path id="Path_17551" data-name="Path 17551" d="M378.873,234.51l3.176,1.833-3.176,1.84-3.183-1.84Z" transform="translate(-365.134 -226.069)" fill="#f0f0f0" opacity="0.5"/>
            <path id="Path_17552" data-name="Path 17552" d="M372.966,237.92l3.176,1.833-3.176,1.833-3.176-1.833Z" transform="translate(-363.299 -227.13)" fill="#f28f8f"/>
            <path id="Path_17553" data-name="Path 17553" d="M372.966,237.92l3.176,1.833-3.176,1.833-3.176-1.833Z" transform="translate(-363.299 -227.13)" fill="#f0f0f0" opacity="0.4"/>
            <path id="Path_17554" data-name="Path 17554" d="M367.063,241.33l3.176,1.833L367.063,245l-3.183-1.833Z" transform="translate(-361.461 -228.19)" fill="#f28f8f"/>
            <path id="Path_17555" data-name="Path 17555" d="M390.683,227.69l3.176,1.833-3.176,1.84-3.183-1.84Z" transform="translate(-368.807 -223.948)" fill="#f28f8f"/>
            <path id="Path_17556" data-name="Path 17556" d="M390.683,227.69l3.176,1.833-3.176,1.84-3.183-1.84Z" transform="translate(-368.807 -223.948)" fill="#f0f0f0" opacity="0.8"/>
            <path id="Path_17557" data-name="Path 17557" d="M397.5,223.446a.689.689,0,0,0,.641,0,.193.193,0,0,0,0-.372.689.689,0,0,0-.641,0,.193.193,0,0,0,0,.372Z" transform="translate(-371.871 -222.488)" fill="#263238"/>
          </g>
          <g id="freepik--palette--inject-248-2" data-name="freepik--palette--inject-248" transform="translate(3.774 1.536)">
            <path id="Path_17558" data-name="Path 17558" d="M352.4,230.606c0-.055.048-.11.145-.145l31.419-10.473a.406.406,0,0,1,.393.062l3.762,3.755a.1.1,0,0,1,.034.09v.785c0,.062-.048.117-.145.152l-31.419,10.473a.407.407,0,0,1-.393-.062l-3.762-3.755a.144.144,0,0,1-.034-.09Z" transform="translate(-352.399 -219.963)" fill="#f0f0f0"/>
            <path id="Path_17559" data-name="Path 17559" d="M358.15,236.3v.8a.427.427,0,0,0,.227,0L389.8,226.627c.1-.034.152-.09.145-.152v-.785c0,.055-.055.11-.145.138l-31.419,10.48A.427.427,0,0,1,358.15,236.3Z" transform="translate(-354.187 -221.744)" fill="#e0e0e0"/>
            <path id="Path_17560" data-name="Path 17560" d="M383.963,219.989l-31.419,10.473c-.138.048-.186.152-.11.227l3.762,3.762a.42.42,0,0,0,.393.055l31.419-10.473c.138-.041.186-.145.11-.227l-3.762-3.755a.406.406,0,0,0-.393-.062Z" transform="translate(-352.398 -219.963)" fill="#fafafa"/>
            <path id="Path_17561" data-name="Path 17561" d="M395.863,221.94l2.246,2.246-3.893,1.3-2.246-2.246Z" transform="translate(-364.705 -220.578)" fill="#aa43d1"/>
            <path id="Path_17562" data-name="Path 17562" d="M381.4,226.76l2.246,2.246-3.893,1.3-2.246-2.246Z" transform="translate(-360.208 -222.077)" fill="#aa43d1"/>
            <path id="Path_17563" data-name="Path 17563" d="M381.4,226.76l2.246,2.246-3.893,1.3-2.246-2.246Z" transform="translate(-360.208 -222.077)" opacity="0.25"/>
            <path id="Path_17564" data-name="Path 17564" d="M374.163,229.17l2.253,2.246-3.893,1.3-2.253-2.246Z" transform="translate(-357.956 -222.827)" fill="#aa43d1"/>
            <path id="Path_17565" data-name="Path 17565" d="M374.163,229.17l2.253,2.246-3.893,1.3-2.253-2.246Z" transform="translate(-357.956 -222.827)" opacity="0.35"/>
            <path id="Path_17566" data-name="Path 17566" d="M366.933,231.58l2.246,2.246-3.893,1.3-2.246-2.246Z" transform="translate(-355.708 -223.576)" fill="#aa43d1"/>
            <path id="Path_17567" data-name="Path 17567" d="M366.933,231.58l2.246,2.246-3.893,1.3-2.246-2.246Z" transform="translate(-355.708 -223.576)" opacity="0.35"/>
            <path id="Path_17568" data-name="Path 17568" d="M359.7,233.99l2.246,2.246-3.893,1.3-2.246-2.246Z" transform="translate(-353.459 -224.326)" fill="#aa43d1"/>
            <path id="Path_17569" data-name="Path 17569" d="M359.7,233.99l2.246,2.246-3.893,1.3-2.246-2.246Z" transform="translate(-353.459 -224.326)" opacity="0.5"/>
            <path id="Path_17570" data-name="Path 17570" d="M388.633,224.35l2.246,2.246-3.893,1.3-2.246-2.246Z" transform="translate(-362.456 -221.328)" fill="#aa43d1"/>
            <path id="Path_17571" data-name="Path 17571" d="M388.633,224.35l2.246,2.246-3.893,1.3-2.246-2.246Z" transform="translate(-362.456 -221.328)" opacity="0.15"/>
            <path id="Path_17572" data-name="Path 17572" d="M397.423,221.082a.641.641,0,0,0,.62.1c.22-.069.3-.234.172-.358a.689.689,0,0,0-.627-.1C397.375,220.8,397.3,220.958,397.423,221.082Z" transform="translate(-366.382 -220.189)" fill="#263238"/>
          </g>
          <g id="freepik--palette--inject-248-3" data-name="freepik--palette--inject-248" transform="translate(0.39 0)">
            <path id="Path_17573" data-name="Path 17573" d="M347.5,223.319c0-.069.083-.138.214-.158l35.05-5.416a.338.338,0,0,1,.351.117l1.929,4.189a.09.09,0,0,1,0,.041v.8c0,.069-.083.138-.207.158l-35.05,5.422a.351.351,0,0,1-.351-.117l-1.95-4.189a.139.139,0,0,1,0-.048Z" transform="translate(-347.487 -217.734)" fill="#f0f0f0"/>
            <path id="Path_17574" data-name="Path 17574" d="M350.61,229.638v.785a.358.358,0,0,0,.172,0l35.05-5.416a.2.2,0,0,0,.214-.158v-.8c0,.069-.09.138-.214.158l-35.05,5.422Z" transform="translate(-348.458 -219.698)" fill="#e0e0e0"/>
            <path id="Path_17575" data-name="Path 17575" d="M382.772,217.745l-35.05,5.416c-.152,0-.248.117-.207.207l1.95,4.189a.338.338,0,0,0,.351.117l35.05-5.422c.152,0,.241-.11.2-.2l-1.943-4.189a.338.338,0,0,0-.351-.117Z" transform="translate(-347.493 -217.734)" fill="#fafafa"/>
            <path id="Path_17576" data-name="Path 17576" d="M395.288,219.53l1.158,2.508-4.341.668L390.94,220.2Z" transform="translate(-361.001 -218.292)" fill="#aa43d1"/>
            <path id="Path_17577" data-name="Path 17577" d="M395.288,219.53l1.158,2.508-4.341.668L390.94,220.2Z" transform="translate(-361.001 -218.292)" fill="#fff" opacity="0.9"/>
            <path id="Path_17578" data-name="Path 17578" d="M379.151,222.02l1.164,2.508-4.341.675L374.81,222.7Z" transform="translate(-355.984 -219.067)" fill="#aa43d1"/>
            <path id="Path_17579" data-name="Path 17579" d="M379.151,222.02l1.164,2.508-4.341.675L374.81,222.7Z" transform="translate(-355.984 -219.067)" fill="#fff" opacity="0.75"/>
            <path id="Path_17580" data-name="Path 17580" d="M371.091,223.27l1.157,2.508-4.341.668-1.158-2.5Z" transform="translate(-353.478 -219.455)" fill="#aa43d1"/>
            <path id="Path_17581" data-name="Path 17581" d="M371.091,223.27l1.157,2.508-4.341.668-1.158-2.5Z" transform="translate(-353.478 -219.455)" fill="#fff" opacity="0.7"/>
            <path id="Path_17582" data-name="Path 17582" d="M363.021,224.52l1.164,2.508-4.341.668-1.164-2.508Z" transform="translate(-350.968 -219.844)" fill="#aa43d1"/>
            <path id="Path_17583" data-name="Path 17583" d="M363.021,224.52l1.164,2.508-4.341.668-1.164-2.508Z" transform="translate(-350.968 -219.844)" fill="#fff" opacity="0.6"/>
            <path id="Path_17584" data-name="Path 17584" d="M354.951,225.77l1.164,2.508-4.341.668-1.164-2.508Z" transform="translate(-348.458 -220.233)" fill="#aa43d1"/>
            <path id="Path_17585" data-name="Path 17585" d="M387.221,220.78l1.164,2.5-4.348.675-1.158-2.508Z" transform="translate(-358.494 -218.681)" fill="#aa43d1"/>
            <path id="Path_17586" data-name="Path 17586" d="M387.221,220.78l1.164,2.5-4.348.675-1.158-2.508Z" transform="translate(-358.494 -218.681)" fill="#fff" opacity="0.8"/>
            <path id="Path_17587" data-name="Path 17587" d="M397.374,218.7a.565.565,0,0,0,.558.186c.248-.034.393-.179.324-.324a.558.558,0,0,0-.558-.186C397.456,218.415,397.311,218.559,397.374,218.7Z" transform="translate(-362.997 -217.928)" fill="#263238"/>
          </g>
        </g>
        <g id="freepik--Coffe--inject-248" transform="translate(145.187 134.7)">
          <g id="Group_470" data-name="Group 470" transform="translate(0.001 20.967)" opacity="0.15">
            <path id="Path_17588" data-name="Path 17588" d="M328.819,276.034a15.05,15.05,0,0,1,10.962,0c2.977,1.378,2.977,3.6,0,4.975a15.085,15.085,0,0,1-10.962,0C325.739,279.63,325.746,277.411,328.819,276.034Z" transform="translate(-326.511 -275)"/>
          </g>
          <path id="Path_17589" data-name="Path 17589" d="M326.9,253.2h14.965l-1.116,17.645h0c-.069.641-.689,1.275-1.812,1.764a13.222,13.222,0,0,1-8.957,0c-1.178-.489-1.8-1.123-1.874-1.764h0Z" transform="translate(-326.631 -247.254)" fill="#fafafa"/>
          <path id="Path_17590" data-name="Path 17590" d="M341.865,253.23l-.227,3.576a6.241,6.241,0,0,1-1.254.689,18.127,18.127,0,0,1-11.92,0c-.145-.055-.262-.117-.393-.179a6.928,6.928,0,0,1-.944-.531l-.227-3.555Z" transform="translate(-326.631 -247.263)" fill="#e0e0e0"/>
          <path id="Path_17591" data-name="Path 17591" d="M326.51,252.387v-2.48h1.605c.214-.11.448-.22.689-.324a16.7,16.7,0,0,1,10.962,0c.248.1.468.214.689.324h1.55v2.48h0c0,.806-.744,1.612-2.232,2.232a16.789,16.789,0,0,1-10.962,0C327.282,254,326.51,253.193,326.51,252.387Z" transform="translate(-326.51 -245.841)" fill="#aa43d1"/>
          <g id="Group_471" data-name="Group 471" transform="translate(0 2.816)" opacity="0.2">
            <path id="Path_17592" data-name="Path 17592" d="M326.51,252.387v-2.48h1.605c.214-.11.448-.22.689-.324a16.7,16.7,0,0,1,10.962,0c.248.1.468.214.689.324h1.55v2.48h0c0,.806-.744,1.612-2.232,2.232a16.789,16.789,0,0,1-10.962,0C327.282,254,326.51,253.193,326.51,252.387Z" transform="translate(-326.51 -248.658)"/>
          </g>
          <path id="Path_17593" data-name="Path 17593" d="M328.819,246.815a16.789,16.789,0,0,1,10.962,0c2.977,1.226,2.977,3.231,0,4.465a16.7,16.7,0,0,1-10.962,0C325.739,250.046,325.746,248.034,328.819,246.815Z" transform="translate(-326.51 -244.982)" fill="#aa43d1"/>
          <path id="Path_17594" data-name="Path 17594" d="M329.361,248.714h0l.62-1.654h10.335l.62,1.654h0c.227.641-.31,1.316-1.626,1.812a13.78,13.78,0,0,1-8.268,0C329.678,250.03,329.093,249.354,329.361,248.714Z" transform="translate(-327.377 -245.344)" fill="#aa43d1"/>
          <path id="Path_17595" data-name="Path 17595" d="M329.361,248.714h0l.62-1.654h10.335l.62,1.654h0c.227.641-.31,1.316-1.626,1.812a13.78,13.78,0,0,1-8.268,0C329.678,250.03,329.093,249.354,329.361,248.714Z" transform="translate(-327.377 -245.344)" opacity="0.2"/>
          <path id="Path_17596" data-name="Path 17596" d="M331.783,245.128a12.312,12.312,0,0,1,7.331,0c1.991.751,1.991,1.964,0,2.715a12.312,12.312,0,0,1-7.331,0C329.722,247.092,329.722,245.879,331.783,245.128Z" transform="translate(-327.669 -244.57)" fill="#aa43d1"/>
          <g id="Group_472" data-name="Group 472" transform="translate(2.568)" opacity="0.3">
            <path id="Path_17597" data-name="Path 17597" d="M331.783,245.128a12.312,12.312,0,0,1,7.331,0c1.991.751,1.991,1.964,0,2.715a12.312,12.312,0,0,1-7.331,0C329.722,247.092,329.722,245.879,331.783,245.128Z" transform="translate(-330.238 -244.57)" fill="#fff"/>
          </g>
          <path id="Path_17598" data-name="Path 17598" d="M331.28,246.805c0,.034.055.131.227.262a3.637,3.637,0,0,0,.841.427,10.81,10.81,0,0,0,3.445.517,10.108,10.108,0,0,0,3.39-.517,3.086,3.086,0,0,0,.813-.427c.165-.138.214-.234.214-.262s-.179-.365-1.027-.689a10.286,10.286,0,0,0-3.39-.517,10.61,10.61,0,0,0-3.445.524C331.494,246.433,331.28,246.743,331.28,246.805Z" transform="translate(-327.993 -244.89)" fill="#aa43d1"/>
          <g id="Group_473" data-name="Group 473" transform="translate(3.287 0.709)" opacity="0.2">
            <path id="Path_17599" data-name="Path 17599" d="M331.28,246.805c0,.034.055.131.227.262a3.637,3.637,0,0,0,.841.427,10.81,10.81,0,0,0,3.445.517,10.108,10.108,0,0,0,3.39-.517,3.086,3.086,0,0,0,.813-.427c.165-.138.214-.234.214-.262s-.179-.365-1.027-.689a10.286,10.286,0,0,0-3.39-.517,10.61,10.61,0,0,0-3.445.524C331.494,246.433,331.28,246.743,331.28,246.805Z" transform="translate(-331.28 -245.598)"/>
          </g>
          <path id="Path_17600" data-name="Path 17600" d="M331.61,247.3a3.639,3.639,0,0,0,.841.427,10.811,10.811,0,0,0,3.445.517,10.107,10.107,0,0,0,3.39-.517,3.085,3.085,0,0,0,.813-.427,2.866,2.866,0,0,0-.813-.434,10.287,10.287,0,0,0-3.39-.517,10.61,10.61,0,0,0-3.445.524,3.155,3.155,0,0,0-.841.427Z" transform="translate(-328.096 -245.123)" fill="#aa43d1"/>
          <path id="Path_17601" data-name="Path 17601" d="M334.206,247.711a1.068,1.068,0,0,0-.813-.152c-.152.083,0,.289.269.462a1.047,1.047,0,0,0,.813.158C334.626,248.09,334.482,247.855,334.206,247.711Z" transform="translate(-328.632 -245.492)"/>
          <path id="Path_17602" data-name="Path 17602" d="M341.316,270.123c0,.655-.689,1.309-1.964,1.805a15.9,15.9,0,0,1-9.646,0c-1.378-.5-2.026-1.151-2.026-1.805l-.42-6.373c0,.689.689,1.378,2.157,1.915a16.839,16.839,0,0,0,10.232,0c1.378-.531,2.067-1.226,2.067-1.915Z" transform="translate(-326.743 -250.535)" fill="#ffbda7"/>
          <path id="Path_17603" data-name="Path 17603" d="M333.208,272.341a10.218,10.218,0,0,1-.572-1.089,3.238,3.238,0,0,0-1.667-1.468.22.22,0,0,0-.262.1,2.5,2.5,0,0,0,3.114,3.149c.041,0,.055-.1,0-.124A2.22,2.22,0,0,1,333.208,272.341Z" transform="translate(-327.779 -252.408)" fill="#b16668"/>
          <path id="Path_17604" data-name="Path 17604" d="M331.664,269.257a3.447,3.447,0,0,1,1.054.648,3.162,3.162,0,0,1,.758,1.04,3.115,3.115,0,0,0,.958,1.268.207.207,0,0,0,.289-.041,2.2,2.2,0,0,0-.517-2.687,2.267,2.267,0,0,0-2.57-.593.207.207,0,0,0,.028.365Z" transform="translate(-328.074 -252.08)" fill="#b16668"/>
        </g>
        <g id="freepik--Lamp--inject-248" transform="translate(49.35 16.849)">
          <path id="Path_17605" data-name="Path 17605" d="M222.275,126.828c-4.534,2.618-4.534,6.89,0,9.481s11.885,2.618,16.426,0,4.534-6.89,0-9.481S226.809,124.21,222.275,126.828Z" transform="translate(-197.199 -89.494)" opacity="0.15"/>
          <path id="Path_17606" data-name="Path 17606" d="M241.288,128.037a6.553,6.553,0,0,0-2.756-2.756c-4.2-2.418-11.024-2.418-15.158,0a6.573,6.573,0,0,0-2.756,2.756h-.358v1.6h0c0,1.585,1.047,3.169,3.142,4.382a16.742,16.742,0,0,0,15.158,0c2.067-1.213,3.142-2.8,3.142-4.382h0v-1.6Z" transform="translate(-197.63 -89.056)" fill="#aa43d1"/>
          <path id="Path_17607" data-name="Path 17607" d="M241.288,128.037a6.553,6.553,0,0,0-2.756-2.756c-4.2-2.418-11.024-2.418-15.158,0a6.573,6.573,0,0,0-2.756,2.756h-.358v1.6h0c0,1.585,1.047,3.169,3.142,4.382a16.742,16.742,0,0,0,15.158,0c2.067-1.213,3.142-2.8,3.142-4.382h0v-1.6Z" transform="translate(-197.63 -89.056)" opacity="0.5"/>
          <path id="Path_17608" data-name="Path 17608" d="M223.29,131.685c-4.2-2.418-4.2-6.346,0-8.764a16.742,16.742,0,0,1,15.158,0c4.168,2.418,4.189,6.346,0,8.764A16.678,16.678,0,0,1,223.29,131.685Z" transform="translate(-197.593 -88.322)" fill="#aa43d1"/>
          <path id="Path_17609" data-name="Path 17609" d="M223.29,131.685c-4.2-2.418-4.2-6.346,0-8.764a16.742,16.742,0,0,1,15.158,0c4.168,2.418,4.189,6.346,0,8.764A16.678,16.678,0,0,1,223.29,131.685Z" transform="translate(-197.593 -88.322)" opacity="0.2"/>
          <path id="Path_17610" data-name="Path 17610" d="M232.623,112.725l-2.012-.689C239.223,87.48,219.1,79.653,218.25,79.308l.744-2C219.222,77.379,241.938,86.171,232.623,112.725Z" transform="translate(-197.005 -74.702)" fill="#aa43d1"/>
          <path id="Path_17611" data-name="Path 17611" d="M238.008,128.234a4.134,4.134,0,0,0-8.268,0h0a2.067,2.067,0,0,0,1.213,1.695,6.5,6.5,0,0,0,5.857,0,2.067,2.067,0,0,0,1.213-1.695Z" transform="translate(-200.578 -89.253)" fill="#37474f"/>
          <path id="Path_17612" data-name="Path 17612" d="M237.357,127.986c-.289,1.722-3.824,2.577-5.257,2.15a6.539,6.539,0,0,0,5.429-.207,2.067,2.067,0,0,0,1.213-1.695,4.134,4.134,0,0,0-4.134-4.134C235.607,124.093,237.653,126.257,237.357,127.986Z" transform="translate(-201.312 -89.253)" fill="#263238"/>
          <path id="Path_17613" data-name="Path 17613" d="M218.689,76.677,218,75.85l2.522-2.191a.544.544,0,0,1,.772.055h0a.544.544,0,0,1-.055.772Z" transform="translate(-196.927 -73.524)"/>
          <path id="Path_17614" data-name="Path 17614" d="M218.562,78.258c.6-.758.076-2.15-.62-2.949s-2-1.509-2.832-1.013-2.48,1.695-2.48,1.695l3.907,4.492S217.956,79.015,218.562,78.258Z" transform="translate(-195.257 -73.713)" fill="#37474f"/>
          <path id="Path_17615" data-name="Path 17615" d="M217.838,74.45c.882,1.02,1.247,2.949-1.378,4.713l1.233,1.419s1.419-1.468,2.026-2.225.076-2.15-.62-2.949a3.941,3.941,0,0,0-1.261-.958Z" transform="translate(-196.448 -73.812)" fill="#263238"/>
          <path id="Path_17616" data-name="Path 17616" d="M203.007,96.774c3.362-2.921,8.819-14,4.906-18.5s-15.647-.613-19,2.308" transform="translate(-187.88 -74.364)" fill="#aa43d1"/>
          <path id="Path_17617" data-name="Path 17617" d="M203.007,96.774c3.362-2.921,8.819-14,4.906-18.5s-15.647-.613-19,2.308" transform="translate(-187.88 -74.364)" opacity="0.2"/>
          <path id="Path_17618" data-name="Path 17618" d="M187.722,87.044c-1.213-4.506,1.282-6.676,5.574-4.823a19.687,19.687,0,0,1,9.97,11.451c1.213,4.5-1.282,6.676-5.574,4.823A19.687,19.687,0,0,1,187.722,87.044Z" transform="translate(-187.415 -76.023)" fill="#aa43d1"/>
          <path id="Path_17619" data-name="Path 17619" d="M187.722,87.044c-1.213-4.506,1.282-6.676,5.574-4.823a19.687,19.687,0,0,1,9.97,11.451c1.213,4.5-1.282,6.676-5.574,4.823A19.687,19.687,0,0,1,187.722,87.044Z" transform="translate(-187.415 -76.023)" opacity="0.5"/>
          <path id="Path_17620" data-name="Path 17620" d="M204.9,91.72l.22-.214a21.449,21.449,0,0,0-5.746-6.566l-.221.179a4.376,4.376,0,0,0,5.746,6.6Z" transform="translate(-190.598 -77.075)" fill="#aa43d1"/>
          <path id="Path_17621" data-name="Path 17621" d="M204.9,91.72l.22-.214a21.449,21.449,0,0,0-5.746-6.566l-.221.179a4.376,4.376,0,0,0,5.746,6.6Z" transform="translate(-190.598 -77.075)" fill="#fff" opacity="0.7"/>
        </g>
        <g id="freepik--Image--inject-248" transform="translate(149.445 16.199)">
          <path id="Path_17622" data-name="Path 17622" d="M335.487,72.766,368.4,91.776a1.688,1.688,0,0,1,.772,1.33v31.364a1.688,1.688,0,0,1-.772,1.33l-.489.282a1.681,1.681,0,0,1-1.536,0l-32.921-19.01a1.7,1.7,0,0,1-.765-1.33V74.378a1.7,1.7,0,0,1,.772-1.33l.489-.282a1.681,1.681,0,0,1,1.537,0Z" transform="translate(-332.69 -72.58)" fill="#e0e0e0"/>
          <path id="Path_17623" data-name="Path 17623" d="M332.73,74.153c.1-.317.393-.42.744-.214l32.914,19.01a1.558,1.558,0,0,1,.544.572l2.026-1.171a1.557,1.557,0,0,0-.544-.572L335.5,72.768a1.736,1.736,0,0,0-1.543,0l-.482.283A1.674,1.674,0,0,0,332.73,74.153Z" transform="translate(-332.702 -72.583)" fill="#fff"/>
          <path id="Path_17624" data-name="Path 17624" d="M333.462,74.5l32.914,19.01a1.688,1.688,0,0,1,.772,1.33V126.2c0,.489-.345.689-.772.441l-32.921-19.01a1.7,1.7,0,0,1-.765-1.33V74.943C332.69,74.454,333.035,74.254,333.462,74.5Z" transform="translate(-332.69 -73.145)" fill="#f5f5f5"/>
          <path id="Path_17625" data-name="Path 17625" d="M366.029,96.556,335.63,79v28.1l30.4,17.556Z" transform="translate(-333.604 -74.577)" fill="#aa43d1"/>
          <path id="Path_17626" data-name="Path 17626" d="M366.029,96.556,335.63,79v28.1l30.4,17.556Z" transform="translate(-333.604 -74.577)" fill="#fff" opacity="0.75"/>
          <path id="Path_17627" data-name="Path 17627" d="M366.029,123.724l-8.64-14.924-11.837,8.826,2.88-3.19-6.277-8.316-6.525,4.141v5.278l30.4,17.556Z" transform="translate(-333.604 -83.011)" fill="#aa43d1"/>
          <path id="Path_17628" data-name="Path 17628" d="M347.973,93.771A4.492,4.492,0,0,1,350,97.285c0,1.3-.909,1.819-2.026,1.171a4.479,4.479,0,0,1-2.033-3.514C345.94,93.647,346.85,93.158,347.973,93.771Z" transform="translate(-336.811 -79.089)" fill="#aa43d1"/>
        </g>
      </g>
    </g>
    <g id="freepik--pen-tool--inject-248" transform="translate(276.44 99.619)">
      <g id="freepik--pen-tool--inject-248-2" data-name="freepik--pen-tool--inject-248">
        <path id="Path_17629" data-name="Path 17629" d="M419.815,152.177a3.824,3.824,0,0,1,1.6,3.052c0,1.047-.572,1.585-1.316,1.33v22.227l8.1-17a1.461,1.461,0,0,0,0-1.04,51.807,51.807,0,0,1-4.072-15.53,1.22,1.22,0,0,0-.544-.854L416,140a.338.338,0,0,0-.551.283c-.5,4.733-1.957,8.268-3.921,10.6a1.185,1.185,0,0,0-.207.978c1.144,3.7,7.7,25.045,8.185,26.6V156.235a3.955,3.955,0,0,1-1.316-2.853C418.223,152.2,418.933,151.688,419.815,152.177Z" transform="translate(-398.221 -130.541)" fill="#aa43d1"/>
        <path id="Path_17630" data-name="Path 17630" d="M405.986,153.989l8.185,26.63.558-.324v.648l3.707-2.136,8.1-17a1.461,1.461,0,0,0,0-1.04,51.807,51.807,0,0,1-4.072-15.53,1.219,1.219,0,0,0-.544-.854l-7.579-4.368a1.082,1.082,0,0,0-.985,0l-2.722,1.571a1.274,1.274,0,0,0-.551.847c-.5,4.74-1.957,8.268-3.914,10.611A1.151,1.151,0,0,0,405.986,153.989Z" transform="translate(-396.559 -130.534)" fill="#aa43d1"/>
        <path id="Path_17631" data-name="Path 17631" d="M416,161.938a3.955,3.955,0,0,0,1.316,2.853v22.248l.558-.324v-21.6c.744.255,1.316-.289,1.316-1.337a3.838,3.838,0,0,0-1.6-3.052C416.689,160.222,416,160.759,416,161.938Z" transform="translate(-399.684 -136.953)" opacity="0.2"/>
        <path id="Path_17632" data-name="Path 17632" d="M405.982,154.964l8.185,26.63V159.346a3.955,3.955,0,0,1-1.316-2.852c0-1.178.689-1.716,1.592-1.213a3.838,3.838,0,0,1,1.6,3.052c0,1.047-.572,1.592-1.316,1.337v22.22l8.1-16.991a1.426,1.426,0,0,0,0-1.04,51.846,51.846,0,0,1-4.072-15.537,1.233,1.233,0,0,0-.544-.854l-7.579-4.368a.345.345,0,0,0-.551.283c-.5,4.74-1.957,8.268-3.914,10.611a1.151,1.151,0,0,0-.179.971Z" transform="translate(-396.556 -131.508)" fill="#aa43d1"/>
        <path id="Path_17633" data-name="Path 17633" d="M424.34,149.119a1.1,1.1,0,0,1,.152.434,51.847,51.847,0,0,0,4.072,15.537,1.379,1.379,0,0,1,.09.572l3.721-2.129a1.378,1.378,0,0,0-.09-.572,51.854,51.854,0,0,1-4.072-15.53,1.124,1.124,0,0,0-.152-.441Z" transform="translate(-402.278 -132.74)" opacity="0.1"/>
        <path id="Path_17634" data-name="Path 17634" d="M412,142.319a.331.331,0,0,1,.531-.207l7.579,4.375a1.137,1.137,0,0,1,.393.413l3.707-2.143a1.247,1.247,0,0,0-.386-.413l-7.579-4.368a1.082,1.082,0,0,0-.985,0l-2.722,1.571A1.24,1.24,0,0,0,412,142.319Z" transform="translate(-398.44 -130.522)" opacity="0.3"/>
        <path id="Path_17635" data-name="Path 17635" d="M425.055,133.356l-11.982-6.89a1.1,1.1,0,0,0-.992,0l-2.722,1.571a1.1,1.1,0,0,0-.489.854v5.278a1.082,1.082,0,0,0,.489.854l12,6.931a1.082,1.082,0,0,0,.985,0l2.722-1.571a1.1,1.1,0,0,0,.5-.854v-5.285A1.109,1.109,0,0,0,425.055,133.356Z" transform="translate(-397.466 -126.32)" fill="#aa43d1"/>
        <path id="Path_17636" data-name="Path 17636" d="M408.87,128.769c.034-.255.241-.345.5-.2l11.982,6.89a.978.978,0,0,1,.344.365l3.714-2.136a1.075,1.075,0,0,0-.351-.372l-11.982-6.89a1.1,1.1,0,0,0-.992,0L409.366,128A1.1,1.1,0,0,0,408.87,128.769Z" transform="translate(-397.467 -126.308)" fill="#fff" opacity="0.5"/>
        <path id="Path_17637" data-name="Path 17637" d="M427.09,145.253h.31a1.033,1.033,0,0,0,.6-.11l2.722-1.571a1.1,1.1,0,0,0,.5-.854v-5.285a1,1,0,0,0-.145-.482l-3.714,2.136a.965.965,0,0,1,.152.489v5.278c0,.227-.117.358-.276.358h-.069A.158.158,0,0,1,427.09,145.253Z" transform="translate(-403.133 -129.617)" opacity="0.2"/>
        <path id="Path_17638" data-name="Path 17638" d="M418.69,190.588l3.707-2.136,8.1-17a1.377,1.377,0,0,0,.124-.455l-3.707,2.143a1.234,1.234,0,0,1-.11.469Z" transform="translate(-400.52 -140.207)" opacity="0.2"/>
        <path id="Path_17639" data-name="Path 17639" d="M417.88,166.222V188.47l.558-.324v-21.6c.744.255,1.316-.283,1.316-1.33v-.076Z" transform="translate(-400.269 -138.384)" opacity="0.15"/>
        <path id="Path_17640" data-name="Path 17640" d="M393,157.126c0-.6.427-.847.951-.544a2.1,2.1,0,0,1,.944,1.64c0,.489-.282.737-.689.655.531,11.162,8.344,24.322,17.88,29.82,4.733,2.756,9.178,3.183,12.5,1.268,3.142-1.819,4.947-5.547,5.14-10.562a2.143,2.143,0,0,1-.689-1.433c0-.606.427-.847.944-.551a2.1,2.1,0,0,1,.951,1.64c0,.517-.31.772-.723.641-.255,5.057-2.143,8.833-5.381,10.7a9.563,9.563,0,0,1-4.823,1.24,16.694,16.694,0,0,1-8.185-2.5c-9.749-5.629-17.728-19.161-18.141-30.544A2.067,2.067,0,0,1,393,157.126Z" transform="translate(-392.531 -135.682)" fill="#455a64"/>
        <path id="Path_17641" data-name="Path 17641" d="M393.961,186.881a2.067,2.067,0,0,1,.9,1.323l34.271,19.788c.124-.372.475-.489.9-.248a2.1,2.1,0,0,1,.951,1.64c0,.606-.427.854-.951.551a2.115,2.115,0,0,1-.916-1.378l-34.25-19.768c-.11.393-.468.524-.9.276a2.067,2.067,0,0,1-.951-1.64C393,186.819,393.437,186.578,393.961,186.881Z" transform="translate(-392.534 -145.105)" fill="#455a64"/>
        <path id="Path_17642" data-name="Path 17642" d="M444.83,187.844a1.344,1.344,0,1,0,1.344-1.344A1.344,1.344,0,0,0,444.83,187.844Z" transform="translate(-408.65 -145.027)" fill="#455a64"/>
        <path id="Path_17643" data-name="Path 17643" d="M444.9,218.148a1.378,1.378,0,1,0,1.378-1.378A1.378,1.378,0,0,0,444.9,218.148Z" transform="translate(-408.672 -154.441)" fill="#455a64"/>
        <path id="Path_17644" data-name="Path 17644" d="M392.32,187.964a1.378,1.378,0,1,0,1.378-1.344A1.378,1.378,0,0,0,392.32,187.964Z" transform="translate(-392.319 -145.064)" fill="#455a64"/>
        <path id="Path_17645" data-name="Path 17645" d="M392.5,157.568a1.378,1.378,0,1,0,1.378-1.378A1.378,1.378,0,0,0,392.5,157.568Z" transform="translate(-392.376 -135.601)" fill="#455a64"/>
      </g>
    </g>
    <g id="freepik--Character--inject-248" transform="translate(69.332 90.931)">
      <g id="freepik--character--inject-248-2" data-name="freepik--character--inject-248">
        <g id="freepik--Legs--inject-248" transform="translate(68.398 96.262)">
          <path id="Path_17646" data-name="Path 17646" d="M207.111,326.566c-.854,1.22-.551,3.962-.689,5.112s-.117,2.288-.227,3.411a5.322,5.322,0,0,0,.427,3.521,5.939,5.939,0,0,0,4.41,2.68,13.222,13.222,0,0,0,5.278-.593,46.858,46.858,0,0,1,5.174-1.378c4.41-.689,8.764.586,13.139-.765a31,31,0,0,0,3-1.151,21.713,21.713,0,0,0,2.618-1.254c2.067-1.261,5.044-3.941,4.754-6.58a3.972,3.972,0,0,0-4.513-3.831c-3.569.152-7.1.965-10.673.882a46.008,46.008,0,0,1-6.752-.551c-2.467-.434-4.671-1.027-4.947-2.391-.434-2.157-5.2.069-7.111,1-.613.3-1.185.689-1.8.971a9.278,9.278,0,0,1-1.419.351A1.316,1.316,0,0,0,207.111,326.566Z" transform="translate(-195.694 -274.98)" fill="#263238"/>
          <path id="Path_17647" data-name="Path 17647" d="M205,315.735l12.168-3.845s.145,6.387.73,7.924,2.377,2.467,4.823,2.9a46,46,0,0,0,6.752.551,28.8,28.8,0,0,0,2.887-.1h0c3.176-.331,6.552,2.377,1.964,4.561-4.134,1.964-9.942,1.674-14.469,1.929s-12.016-1.97-13.153-5.333h0Z" transform="translate(-195.354 -271.597)" fill="#ffa8a7"/>
          <path id="Path_17648" data-name="Path 17648" d="M209.7,253.41c2.756,11.217,3.362,45.247,3.362,45.247s-6.215,3.328-11.94,1.323L191,260.6Z" transform="translate(-191 -253.41)" fill="#37474f"/>
          <path id="Path_17649" data-name="Path 17649" d="M246.379,349.5c-.847,1.226-.551,3.969-.689,5.112s-.117,2.294-.234,3.411a5.314,5.314,0,0,0,.434,3.521,5.911,5.911,0,0,0,4.41,2.687,13.381,13.381,0,0,0,5.278-.592,47.883,47.883,0,0,1,5.168-1.378c4.417-.689,8.771.592,13.146-.758,1.02-.317,2.012-.737,3-1.151a19.9,19.9,0,0,0,2.618-1.261c2.067-1.261,5.044-3.934,4.761-6.58a3.986,3.986,0,0,0-4.52-3.831c-3.569.158-7.1.965-10.666.882a46.164,46.164,0,0,1-6.759-.544c-2.467-.434-4.671-1.027-4.947-2.391-.434-2.163-5.2.062-7.111,1-.606.3-1.185.689-1.791.971a10.24,10.24,0,0,1-1.426.351A1.378,1.378,0,0,0,246.379,349.5Z" transform="translate(-207.905 -282.115)" fill="#263238"/>
          <path id="Path_17650" data-name="Path 17650" d="M243.89,334.907l10.666-3.817,2.377,11.024c.276,1.378,2.48,1.957,4.947,2.391a46.165,46.165,0,0,0,6.759.544,26.957,26.957,0,0,0,2.887-.09h0c3.183-.324,6.559,2.384,1.964,4.568-4.134,1.957-9.942,1.674-14.469,1.929s-13.856-.5-13.146-5.333h0Z" transform="translate(-207.449 -277.568)" fill="#ffa8a7"/>
          <path id="Path_17651" data-name="Path 17651" d="M243.948,268c4.706,6.663,6.69,50.532,6.69,50.532s-5.643,5.877-11.024,3.79L226.11,284.1Z" transform="translate(-201.919 -257.947)" fill="#455a64"/>
          <path id="Path_17652" data-name="Path 17652" d="M227.05,291.054s9.873-3.659,12.209-6.3c0,0-5.064,7.276-11.251,8.868Z" transform="translate(-202.211 -263.157)" opacity="0.15"/>
        </g>
        <path id="Path_17653" data-name="Path 17653" d="M169.5,403.2a1.116,1.116,0,0,0,1.116-1.123V330.186a1.116,1.116,0,1,0-2.232,0v71.87A1.116,1.116,0,0,0,169.5,403.2Z" transform="translate(-115.567 -180.678)" fill="#455a64"/>
        <path id="Path_17654" data-name="Path 17654" d="M104.892,372.448a1.123,1.123,0,0,0,1.04-.689l22.048-55.809a1.116,1.116,0,1,0-2.067-.82l-22.048,55.809a1.123,1.123,0,0,0,1.04,1.53Z" transform="translate(-95.48 -176.095)" fill="#455a64"/>
        <path id="Path_17655" data-name="Path 17655" d="M108.723,368a1.109,1.109,0,0,0,.813-.351l41.023-43.407,40.948,43.221a1.119,1.119,0,0,0,1.626-1.536l-41.761-44.1a1.144,1.144,0,0,0-.813-.351h0a1.13,1.13,0,0,0-.813.351L107.91,366.1a1.116,1.116,0,0,0,.813,1.888Z" transform="translate(-96.665 -178.318)" fill="#455a64"/>
        <path id="Path_17656" data-name="Path 17656" d="M224.074,372.521a1.048,1.048,0,0,0,.407-.083,1.116,1.116,0,0,0,.634-1.447l-22.048-55.809A1.116,1.116,0,0,0,201,316l22.048,55.809a1.116,1.116,0,0,0,1.027.71Z" transform="translate(-125.697 -176.168)" fill="#455a64"/>
        <path id="Path_17657" data-name="Path 17657" d="M194.593,283.3c.8-4.506-2.873-8.027-9.784-12.691a162.976,162.976,0,0,0-20.043-11.251c-5.781-2.653-11.713-2.412-19.1,1.378-10.287,5.285-41.237,24.053-41.237,24.053s46.287,26.141,55.189,24.97,31.157-15.64,32.921-20.739S194.593,283.3,194.593,283.3Z" transform="translate(-95.679 -158.448)" fill="#aa43d1"/>
        <g id="Group_474" data-name="Group 474" transform="translate(8.751 99.14)" opacity="0.4">
          <path id="Path_17658" data-name="Path 17658" d="M194.593,283.3c.8-4.506-2.873-8.027-9.784-12.691a162.976,162.976,0,0,0-20.043-11.251c-5.781-2.653-11.713-2.412-19.1,1.378-10.287,5.285-41.237,24.053-41.237,24.053s46.287,26.141,55.189,24.97,31.157-15.64,32.921-20.739S194.593,283.3,194.593,283.3Z" transform="translate(-104.43 -257.588)"/>
        </g>
        <path id="Path_17659" data-name="Path 17659" d="M178.05,315.866c6.642,6.008,13.587.834,24.57-6.3,12.4-8.061,14.869-14.669,14.869-14.669s0,4.947-.93,7.269-2.935,4.947-11.9,11.127-15.461,9.274-21.49,10.425l-4.754-.689" transform="translate(-118.575 -170.052)" fill="#aa43d1"/>
        <path id="Path_17660" data-name="Path 17660" d="M202.62,309.569c12.4-8.061,14.869-14.669,14.869-14.669s0,4.947-.93,7.269-2.935,4.947-11.9,11.127-15.461,9.274-21.49,10.425l-4.754-.689-.365-7.193C184.692,321.875,191.637,316.7,202.62,309.569Z" transform="translate(-118.575 -170.052)" opacity="0.5"/>
        <path id="Path_17661" data-name="Path 17661" d="M106.272,386.45l-2.915,7.689a.985.985,0,0,0,0,.2.462.462,0,0,0,0,.138.861.861,0,0,0,.434.482,1.929,1.929,0,0,0,1.778,0,.771.771,0,0,0,.345-.358h0v-.1l2.708-7.228Z" transform="translate(-95.344 -198.523)" fill="#aa43d1"/>
        <path id="Path_17662" data-name="Path 17662" d="M231.243,386.45l2.914,7.689a.688.688,0,0,1,0,.2.461.461,0,0,1,0,.138.9.9,0,0,1-.441.482,1.915,1.915,0,0,1-1.771,0,.737.737,0,0,1-.344-.358h0v-.1l-2.7-7.214Z" transform="translate(-134.389 -198.523)" fill="#aa43d1"/>
        <path id="Path_17663" data-name="Path 17663" d="M168.08,426.853v6.36a.634.634,0,0,0,.372.524,1.984,1.984,0,0,0,1.826,0,.627.627,0,0,0,.379-.524v-6.36a2.715,2.715,0,0,0-2.577,0Z" transform="translate(-115.474 -210.987)" fill="#aa43d1"/>
        <g id="freepik--character--inject-248-3" data-name="freepik--character--inject-248" transform="translate(22.013)">
          <g id="freepik--character--inject-248-4" data-name="freepik--character--inject-248" transform="translate(0 88.925)">
            <path id="Path_17664" data-name="Path 17664" d="M124.83,264.237s28.938-12.4,34.85-15.337,16.626-7.3,22.227-5.85c3.783.985,5.953,2.329,7.29,7.31.255.93,1.461,9.791,1.461,9.791s-16.1,7.579-30.316,10.418S124.83,264.237,124.83,264.237Z" transform="translate(-124.037 -242.762)" fill="#37474f"/>
            <path id="Path_17665" data-name="Path 17665" d="M124.472,269.123c-3.583,15.069,5.808,23.516,11.437,26.768,4.94,2.853,17.859,9.743,31.625,4.2,9.191-3.707,33.989-20.064,33.989-20.064,2.68-4.354,12.974-5.774,12.209-9.26-.186-.875-.262-1.812-.517-2.756-1.254-4.74-5.726-11.355-15.7-9.067-6.125,1.378-17.563,5.512-27.7,8.7-2.315.723-5.684-2.425-7.579-1.743-4.451,1.633-5.581,9.233-5.581,9.233Z" transform="translate(-123.679 -247.647)" fill="#455a64"/>
          </g>
          <path id="Path_17666" data-name="Path 17666" d="M166.993,176.775l-1.667,15.385L151.8,191.114l1.323-17.074Z" transform="translate(-132.424 -132.465)" fill="#ffa8a7"/>
          <path id="Path_17667" data-name="Path 17667" d="M129.037,238.828a88.822,88.822,0,0,1,6.725-13.236c-5.512-17.632-6.318-22.971-6.07-31.005.138-4.306,6.2-11.527,11.438-10.631,1.378.234,2.35.3,3.631.537.158,3.535,7.055,4.561,13.677,2.329a55.213,55.213,0,0,1,5.925,1.447c2.412.9,12.953,12.2,13.732,20.236.627,6.532-6.043,11.947-6.043,11.947.365,6.89.138,16.261,0,28.759,0,0-2.067.751-5.319-.689-3.355,5.354-12.65,13.939-22.854,12.795-17.645-1.977-17.129-14.958-17.129-14.958A57.67,57.67,0,0,1,129.037,238.828Z" transform="translate(-124.633 -135.525)" fill="#aa43d1"/>
          <g id="Group_475" data-name="Group 475" transform="translate(2.115 48.355)" opacity="0.7">
            <path id="Path_17668" data-name="Path 17668" d="M129.037,238.828a88.822,88.822,0,0,1,6.725-13.236c-5.512-17.632-6.318-22.971-6.07-31.005.138-4.306,6.2-11.527,11.438-10.631,1.378.234,2.35.3,3.631.537.158,3.535,7.055,4.561,13.677,2.329a55.213,55.213,0,0,1,5.925,1.447c2.412.9,12.953,12.2,13.732,20.236.627,6.532-6.043,11.947-6.043,11.947.365,6.89.138,16.261,0,28.759,0,0-2.067.751-5.319-.689-3.355,5.354-12.65,13.939-22.854,12.795-17.645-1.977-17.129-14.958-17.129-14.958A57.67,57.67,0,0,1,129.037,238.828Z" transform="translate(-126.748 -183.88)"/>
          </g>
          <g id="freepik--head--inject-248" transform="translate(14.683 10.228)">
            <path id="Path_17669" data-name="Path 17669" d="M188.93,151.62s3.831,6.139,3.293,6.759-3.094,1.24-3.094,1.24Z" transform="translate(-158.655 -135.72)" fill="#f28f8f"/>
            <path id="Path_17670" data-name="Path 17670" d="M166.246,129.967c3.011,1.654,8.2,4.706,9.253,15.971,1.082,11.561-1.592,15.5-3.2,16.963-1.089.992-6.573,1.22-9.4.255-3.541-1.206-11.183-5.236-14.648-11.279-4.079-7.111-4.713-16.467.31-19.981C155.628,126.929,163.7,128.569,166.246,129.967Z" transform="translate(-144.99 -128.543)" fill="#ffa8a7"/>
            <path id="Path_17671" data-name="Path 17671" d="M173.7,178.545a14.834,14.834,0,0,0,6.89-.345h0a14.931,14.931,0,0,1-6.738-1.55Z" transform="translate(-153.918 -143.504)" fill="#f28f8f"/>
          </g>
          <path id="Path_17672" data-name="Path 17672" d="M175.083,124.138A5.615,5.615,0,0,0,169.316,121a6.153,6.153,0,0,0-3.411-6.732,8.041,8.041,0,0,0-4.733-.379,24.013,24.013,0,0,0-4.561,1.536c-3.376,1.378-6.732,2.839-10.135,4.182a30.116,30.116,0,0,0-4.885,2.253,14.324,14.324,0,0,0-6.408,8.323,18.43,18.43,0,0,0-.537,6.408,26.514,26.514,0,0,0,2.143,8.048,31.1,31.1,0,0,0,4.43,6.89,49.347,49.347,0,0,0,6.339,6.2c4.044,1.936,8.778.627,8.778.627a32.583,32.583,0,0,0,6.063-8.819,5.044,5.044,0,0,1-2.412.207,5.753,5.753,0,0,1-3.052-1.543c-2.756-2.494-2.928-7.235.689-8.316s4.864,3.886,4.864,3.886c2.288-.985,1.626-3.879,1.9-5.512a11.431,11.431,0,0,0,5.326-6.456,19.294,19.294,0,0,1,1.268,2.99,15.656,15.656,0,0,0,3.707-3.92A7.393,7.393,0,0,0,175.083,124.138Z" transform="translate(-127.065 -113.699)" fill="#aa43d1"/>
          <path id="Path_17673" data-name="Path 17673" d="M175.083,124.138A5.615,5.615,0,0,0,169.316,121a6.153,6.153,0,0,0-3.411-6.732,8.041,8.041,0,0,0-4.733-.379,24.013,24.013,0,0,0-4.561,1.536c-3.376,1.378-6.732,2.839-10.135,4.182a30.116,30.116,0,0,0-4.885,2.253,14.324,14.324,0,0,0-6.408,8.323,18.43,18.43,0,0,0-.537,6.408,26.514,26.514,0,0,0,2.143,8.048,31.1,31.1,0,0,0,4.43,6.89,49.347,49.347,0,0,0,6.339,6.2c4.044,1.936,8.778.627,8.778.627a32.583,32.583,0,0,0,6.063-8.819,5.044,5.044,0,0,1-2.412.207,5.753,5.753,0,0,1-3.052-1.543c-2.756-2.494-2.928-7.235.689-8.316s4.864,3.886,4.864,3.886c2.288-.985,1.626-3.879,1.9-5.512a11.431,11.431,0,0,0,5.326-6.456,19.294,19.294,0,0,1,1.268,2.99,15.656,15.656,0,0,0,3.707-3.92A7.393,7.393,0,0,0,175.083,124.138Z" transform="translate(-127.065 -113.699)" opacity="0.4"/>
        </g>
        <path id="Path_17674" data-name="Path 17674" d="M152.945,299.65c-3.783-.186-6.745-2.963-15.737-6.711-16.612-6.89-29.062-12.457-33.809-21.159s-8.11-33.8-6.89-44.682a14.035,14.035,0,0,1,.813-3.6l-1.171-.172,3.025-2.57h0c3.107-2.536,8.158-.276,11.961,1.791,10.873,5.919,19.375,11.665,26.1,32.425,5.057,15.62,8.392,29.861,15.372,37.482" transform="translate(-93.104 -146.642)" fill="#aa43d1"/>
        <path id="Path_17675" data-name="Path 17675" d="M97.281,223.495l-1.171-.172,3.025-2.57h0c3.107-2.536,8.158-.276,11.961,1.791,10.873,5.919,19.375,11.665,26.1,32.425,5.057,15.62,8.392,29.861,15.372,37.482l.365,7.193c-3.783-.186-6.745-2.963-15.737-6.711-16.612-6.89-29.062-12.457-33.809-21.159s-8.11-33.8-6.89-44.682a14.035,14.035,0,0,1,.785-3.6Z" transform="translate(-93.092 -146.642)" opacity="0.3"/>
        <path id="Path_17676" data-name="Path 17676" d="M106.585,226.429c10.873,5.919,19.375,11.665,26.093,32.425s10.4,39.1,23.647,42.663c0,0-5.987,2.377-24.343-5.381-5.843-2.474-12.926-6.98-17.583-9.591-9.122-5.119-14.648-9.315-15.523-10.879-4.823-8.661-8.11-33.809-6.89-44.689S101.135,223.466,106.585,226.429Z" transform="translate(-91.729 -147.847)" fill="#aa43d1"/>
        <g id="freepik--Arm--inject-248" transform="translate(57.591 52.62)">
          <path id="Path_17677" data-name="Path 17677" d="M271.626,237.063a.165.165,0,0,0,.186-.069l.827-1.378a.165.165,0,0,0-.283-.172l-.827,1.378a.158.158,0,0,0,.055.22Z" transform="translate(-205.23 -204.156)" fill="#263238"/>
          <path id="Path_17678" data-name="Path 17678" d="M275.673,232.595l-2.866,2.212a.558.558,0,0,1-.875-.586l.937-3.521Z" transform="translate(-205.357 -202.705)" fill="#aa43d1"/>
          <g id="Group_476" data-name="Group 476" transform="translate(66.558 27.995)" opacity="0.2">
            <path id="Path_17679" data-name="Path 17679" d="M275.673,232.595l-2.866,2.212a.558.558,0,0,1-.875-.586l.937-3.521Z" transform="translate(-271.914 -230.7)"/>
          </g>
          <path id="Path_17680" data-name="Path 17680" d="M284.855,205.313a.868.868,0,0,1,.958-.22c1.034.269,2.384,1.481,1.8,2.219l-11.506,17.3a2.2,2.2,0,0,1-1.984-.551,2.15,2.15,0,0,1-.82-1.378Z" transform="translate(-205.788 -194.723)" fill="#aa43d1"/>
          <path id="Path_17681" data-name="Path 17681" d="M284.855,205.313a.868.868,0,0,1,.958-.22c1.034.269,2.384,1.481,1.8,2.219l-11.506,17.3a2.2,2.2,0,0,1-1.984-.551,2.15,2.15,0,0,1-.82-1.378Z" transform="translate(-205.788 -194.723)" fill="#aa43d1"/>
          <path id="Path_17682" data-name="Path 17682" d="M291,205.093a.868.868,0,0,0-.958.22c-.172.262.083,1,.868,1.543.958.655,1.716.689,1.936.379C293.3,206.491,292,205.355,291,205.093Z" transform="translate(-210.98 -194.723)" fill="#aa43d1"/>
          <path id="Path_17683" data-name="Path 17683" d="M291,205.093a.868.868,0,0,0-.958.22c-.172.262.083,1,.868,1.543.958.655,1.716.689,1.936.379C293.3,206.491,292,205.355,291,205.093Z" transform="translate(-210.98 -194.723)" opacity="0.2"/>
          <path id="Path_17684" data-name="Path 17684" d="M292.389,203.723a.715.715,0,0,1,1.2.779l-.916,1.378h0a.345.345,0,0,1-.338.131,1.1,1.1,0,0,1-.847-.551.338.338,0,0,1,0-.358h0Z" transform="translate(-211.428 -194.215)" fill="#37474f"/>
          <path id="Path_17685" data-name="Path 17685" d="M249.821,213.661s-.689,1.089-1.3,1.957c-.489.689-.758,1.034-1.109,1.116a2.99,2.99,0,0,1-2.8-1.378l.9-1.378a7.854,7.854,0,0,0-2.756.083,6,6,0,0,0-3.748,3.4c-1.378,3.142-1.116,3.631-5.016,3.914s-24.508.62-24.508.62h0c-2.453-2.846-11.493-13.339-14.979-17.494-4.051-4.823-11.713-15.427-15.027-14.352s-6.408,11.169-1.929,18.948c3.969,6.89,17.728,19.113,23.344,24.067.6.551,1.144,1.027,1.64,1.44l.1.09h0c3.445,2.8,4.933,2.46,9.054,1.667,4.919-.944,28.146-5.657,32.8-7.717s8.868-7.648,8.854-10.48S249.821,213.661,249.821,213.661Z" transform="translate(-175.315 -190.07)" fill="#ffa8a7"/>
        </g>
      </g>
    </g>
    <g id="freepik--Icons--inject-248" transform="translate(28.013 40.49)">
      <g id="freepik--ai-icon--inject-248">
        <path id="Path_17686" data-name="Path 17686" d="M61.711,45.582a5.712,5.712,0,0,0-2.584-4.472h0a5.677,5.677,0,0,0-5.161,0L34.344,52.348a5.7,5.7,0,0,0-2.584,4.472V78a5.726,5.726,0,0,0,2.584,4.479h0a5.719,5.719,0,0,0,5.161,0L59.368,71.061c2.322-1.323,2.343-2.646,2.343-4.3Z" transform="translate(-31.76 -40.49)" fill="#37474f"/>
        <path id="Path_17687" data-name="Path 17687" d="M31.76,84.222A5.726,5.726,0,0,0,34.344,88.7h0a5.746,5.746,0,0,0,4.72.214c-1.213.462-2.136-.234-2.136-1.709V66.019a5.326,5.326,0,0,1,.751-2.542L32.518,60.5a5.257,5.257,0,0,0-.758,2.542Z" transform="translate(-31.76 -46.713)" fill="#263238"/>
        <path id="Path_17688" data-name="Path 17688" d="M61.974,44.857c-.3-1.1-1.3-1.447-2.494-.758L39.85,55.316a5.181,5.181,0,0,0-1.819,1.929l-5.161-2.97a5.181,5.181,0,0,1,1.819-1.929l19.63-11.224a5.733,5.733,0,0,1,5.168,0h0A5.7,5.7,0,0,1,61.974,44.857Z" transform="translate(-32.105 -40.495)" fill="#455a64"/>
        <path id="Path_17689" data-name="Path 17689" d="M66.3,54.9a3.445,3.445,0,0,1-1.426,2.866c-.841.482-1.378-.11-1.378-1.247a3.321,3.321,0,0,1,1.378-2.873C65.751,53.145,66.281,53.731,66.3,54.9Z" transform="translate(-41.629 -44.526)" fill="#aa43d1"/>
        <path id="Path_17690" data-name="Path 17690" d="M66.081,60.93,65.84,74.186l-2.77,1.6.248-13.263Z" transform="translate(-41.497 -46.847)" fill="#aa43d1"/>
        <path id="Path_17691" data-name="Path 17691" d="M53.286,60l-3.445,2.012L46.21,82.193,48.966,80.6l.847-5.119,3.355-1.943.909,4.134,2.852-1.647ZM50.2,72.2s1.061-6.89,1.233-8.041h0c.172.985,1.33,6.559,1.33,6.559Z" transform="translate(-36.254 -46.557)" fill="#aa43d1"/>
      </g>
      <g id="freepik--ps-icon--inject-248" transform="translate(67.688 0.48)">
        <path id="Path_17692" data-name="Path 17692" d="M159.991,46.274a5.7,5.7,0,0,0-2.584-4.472h0a5.732,5.732,0,0,0-5.168,0L132.624,53.033a5.726,5.726,0,0,0-2.584,4.479v21.18a5.7,5.7,0,0,0,2.584,4.472h0a5.691,5.691,0,0,0,5.168,0l19.864-11.4c2.322-1.323,2.343-2.653,2.343-4.3Z" transform="translate(-130.012 -41.187)" fill="#37474f"/>
        <path id="Path_17693" data-name="Path 17693" d="M130,84.909a5.7,5.7,0,0,0,2.584,4.472h0a5.76,5.76,0,0,0,4.727.22c-1.213.462-2.143-.234-2.143-1.709V66.706a5.237,5.237,0,0,1,.758-2.542l-5.161-2.983a5.285,5.285,0,0,0-.758,2.549Z" transform="translate(-130 -47.405)" fill="#263238"/>
        <path id="Path_17694" data-name="Path 17694" d="M160.247,45.539c-.3-1.1-1.3-1.44-2.494-.758L138.13,56.019a5.126,5.126,0,0,0-1.819,1.929l-5.161-2.977a5.237,5.237,0,0,1,1.819-1.929L152.585,41.8a5.781,5.781,0,0,1,5.168,0h0A5.684,5.684,0,0,1,160.247,45.539Z" transform="translate(-130.358 -41.19)" fill="#455a64"/>
        <path id="Path_17695" data-name="Path 17695" d="M164.481,70.848a7.1,7.1,0,0,1-3.555,6.139,3.872,3.872,0,0,1-2.646.648l.455-3.073a2.983,2.983,0,0,0,2.191-.317,1.9,1.9,0,0,0,1.089-1.7c0-.641-.248-.8-1.2-.751-1.7.11-2.356-.937-2.336-2.446a7.241,7.241,0,0,1,3.335-6.056,3.721,3.721,0,0,1,2.315-.613l-.448,2.977a2.508,2.508,0,0,0-1.778.3,1.833,1.833,0,0,0-.971,1.592c0,.593.317.689,1.316.689C163.813,68.161,164.46,69,164.481,70.848Z" transform="translate(-138.795 -47.867)" fill="#aa43d1" fill-rule="evenodd"/>
        <path id="Path_17696" data-name="Path 17696" d="M152.7,63.069c-.751-.5-1.874-.31-3.445.6a24.845,24.845,0,0,0-3.445,2.356V83.188l2.529-1.454v-6.2a5.98,5.98,0,0,0,.875-.434,9.157,9.157,0,0,0,3.666-3.948,10.845,10.845,0,0,0,1.033-4.768C153.913,64.695,153.43,63.523,152.7,63.069Zm-3.521,9a3.445,3.445,0,0,1-.847.393V67.327a5.112,5.112,0,0,1,1.054-.765c1.282-.737,2-.2,2.005,1.378A4.658,4.658,0,0,1,149.179,72.067Z" transform="translate(-134.917 -47.909)" fill="#aa43d1" fill-rule="evenodd"/>
      </g>
      <g id="freepik--sketch-icon--inject-248" transform="translate(26.554 37.397)">
        <path id="Path_17697" data-name="Path 17697" d="M100.251,99.854a5.7,5.7,0,0,0-2.6-4.472h0a5.733,5.733,0,0,0-5.168,0l-19.6,11.258a5.7,5.7,0,0,0-2.584,4.472v21.159a5.7,5.7,0,0,0,2.584,4.472h0a5.732,5.732,0,0,0,5.168,0l19.864-11.41c2.322-1.323,2.343-2.653,2.343-4.3Z" transform="translate(-70.3 -94.767)" fill="#37474f"/>
        <path id="Path_17698" data-name="Path 17698" d="M70.3,138.492a5.705,5.705,0,0,0,2.584,4.472h0a5.788,5.788,0,0,0,4.727.214c-1.213.462-2.143-.234-2.143-1.709v-21.18a5.257,5.257,0,0,1,.758-2.542l-5.161-2.977a5.236,5.236,0,0,0-.758,2.542Z" transform="translate(-70.3 -100.988)" fill="#263238"/>
        <path id="Path_17699" data-name="Path 17699" d="M100.507,99.133c-.3-1.1-1.3-1.447-2.494-.765L78.39,109.606a5.126,5.126,0,0,0-1.819,1.929l-5.161-2.977a5.161,5.161,0,0,1,1.819-1.909L92.845,95.412a5.733,5.733,0,0,1,5.168,0h0A5.684,5.684,0,0,1,100.507,99.133Z" transform="translate(-70.645 -94.776)" fill="#455a64"/>
        <path id="Path_17700" data-name="Path 17700" d="M88.94,119.295v4.1l3.417-6.924Z" transform="translate(-76.097 -101.517)" fill="#aa43d1"/>
        <path id="Path_17701" data-name="Path 17701" d="M100.5,112.76l-3.8,1.247,3.8,3.314Z" transform="translate(-78.51 -100.363)" fill="#aa43d1"/>
        <path id="Path_17702" data-name="Path 17702" d="M98.044,118.888l-4.168-3.638L89.7,123.711l.31-.179,3.541-2.046Z" transform="translate(-76.333 -101.137)" fill="#aa43d1"/>
        <path id="Path_17703" data-name="Path 17703" d="M84.97,131l5.822,5.863-3.638-7.124Z" transform="translate(-74.862 -105.643)" fill="#aa43d1"/>
        <path id="Path_17704" data-name="Path 17704" d="M98.95,129.779,103.7,119.52l-1.778,1.027Z" transform="translate(-79.21 -102.465)" fill="#aa43d1"/>
        <path id="Path_17705" data-name="Path 17705" d="M93.488,135.44l4.361-13.58L89.12,126.9Z" transform="translate(-76.153 -103.193)" fill="#aa43d1"/>
        <path id="Path_17706" data-name="Path 17706" d="M86.979,123.33l-1.819,4.7L86.945,127l.034-.014Z" transform="translate(-74.921 -103.65)" fill="#aa43d1"/>
        <path id="Path_17707" data-name="Path 17707" d="M103.433,117.773l1.943-1.123-2.026-2.88v4.051Z" transform="translate(-80.578 -100.677)" fill="#aa43d1"/>
      </g>
    </g>
  </g>
</svg>
