<svg xmlns="http://www.w3.org/2000/svg" width="339.134" height="307" viewBox="0 0 339.134 307">
  <g id="de1" transform="translate(-39.945 -72.431)">
    <g id="freepik--background-simple--inject-247" transform="translate(39.945 72.431)">
      <path id="Path_17982" data-name="Path 17982" d="M46.349,195.41s-19.283,49.415,9.07,88.234S132,321.393,169.37,333.606c19.593,6.392,31.708,23.83,48.623,34.443,54.1,33.921,135.356-13.609,153.961-68.5,16.107-47.513,4.9-91.981-33.561-138.458S274.715,80.267,205.6,72.977,73.951,132.712,46.349,195.41Z" transform="translate(-39.945 -72.431)" fill="#aa43d1"/>
      <path id="Path_17983" data-name="Path 17983" d="M46.349,195.41s-19.283,49.415,9.07,88.234S132,321.393,169.37,333.606c19.593,6.392,31.708,23.83,48.623,34.443,54.1,33.921,135.356-13.609,153.961-68.5,16.107-47.513,4.9-91.981-33.561-138.458S274.715,80.267,205.6,72.977,73.951,132.712,46.349,195.41Z" transform="translate(-39.945 -72.431)" fill="#fff" opacity="0.75"/>
    </g>
    <g id="freepik--Plants--inject-247" transform="translate(93.191 243.951)">
      <path id="Path_17984" data-name="Path 17984" d="M354.185,395.953a59.134,59.134,0,0,0,4.14-12.154c1.19-6.228-7.694-4.06-7.694-4.06s4.8-7.374,4.442-13.282-5.908-2.95-5.908-2.95,4.8-24.344-2.212-28.768-11.808,28.431-11.808,28.431a7.3,7.3,0,0,0-8.485-2.95c-5.535,1.848-2.95,16.6-2.95,16.6s-6.273-7.374-7.747,0c-1.084,5.437,4.638,14.677,7.721,19.164Z" transform="translate(-137.457 -300.269)" fill="#aa43d1" stroke="#263238" stroke-linecap="round" stroke-linejoin="round" stroke-width="1"/>
      <line id="Line_555" data-name="Line 555" y1="44.485" x2="6.548" transform="translate(199.891 51.199)" fill="none" stroke="#263238" stroke-linecap="round" stroke-linejoin="round" stroke-width="1"/>
      <line id="Line_556" data-name="Line 556" x1="8.192" y1="16.099" transform="translate(193.068 70.576)" fill="none" stroke="#263238" stroke-linecap="round" stroke-linejoin="round" stroke-width="1"/>
      <line id="Line_557" data-name="Line 557" y1="8.192" x2="10.368" transform="translate(202.077 71.935)" fill="none" stroke="#263238" stroke-linecap="round" stroke-linejoin="round" stroke-width="1"/>
      <path id="Path_17985" data-name="Path 17985" d="M174.685,391.677c2.177-4.869,5.331-12.687,6.441-18.88,1.724-9.773-12.03-6.3-12.03-6.3s7.445-11.461,6.877-20.63-9.169-4.558-9.169-4.558,7.445-37.813-3.438-44.681-18.338,44.1-18.338,44.1-4.576-7.419-13.14-4.6S127.3,361.9,127.3,361.9s-9.773-11.461-12.03,0c-1.688,8.449,7.2,22.8,11.994,29.763Z" transform="translate(-115.063 -295.994)" fill="#aa43d1" stroke="#263238" stroke-linecap="round" stroke-linejoin="round" stroke-width="1"/>
      <line id="Line_558" data-name="Line 558" y1="69.095" x2="10.173" transform="translate(33.43 26.588)" fill="none" stroke="#263238" stroke-linecap="round" stroke-linejoin="round" stroke-width="1"/>
      <line id="Line_559" data-name="Line 559" x1="12.714" y1="25.001" transform="translate(22.83 56.689)" fill="none" stroke="#263238" stroke-linecap="round" stroke-linejoin="round" stroke-width="1"/>
      <line id="Line_560" data-name="Line 560" y1="12.714" x2="16.108" transform="translate(36.815 58.804)" fill="none" stroke="#263238" stroke-linecap="round" stroke-linejoin="round" stroke-width="1"/>
    </g>
    <g id="freepik--Floor--inject-247" transform="translate(90.406 339.635)">
      <line id="Line_561" data-name="Line 561" x2="227.609" transform="translate(10.502)" fill="none" stroke="#263238" stroke-linecap="round" stroke-linejoin="round" stroke-width="1"/>
      <line id="Line_562" data-name="Line 562" x2="3.891" fill="none" stroke="#263238" stroke-linecap="round" stroke-linejoin="round" stroke-width="1"/>
    </g>
    <g id="freepik--Clouds--inject-247" transform="translate(90.654 112.695)">
      <path id="Path_17986" data-name="Path 17986" d="M320.641,163.271s-8.4-9-15.6-8.4-8.4,7.81-12.607,8.4-11.4-6.6-16.8-3.6-4.2,7.205-8.4,7.8-9.6-3.6-13.807-1.777a53.492,53.492,0,0,0-9,5.4h91.822S333.843,160.313,320.641,163.271Z" transform="translate(-120.72 -121.887)" fill="none" stroke="#263238" stroke-linecap="round" stroke-linejoin="round" stroke-width="1"/>
      <path id="Path_17987" data-name="Path 17987" d="M182.831,129.492s-8.4-9-15.6-8.4-8.4,7.8-12.607,8.4-11.4-6.6-16.8-3.6-4.2,7.205-8.4,7.8-9.6-3.6-13.807-1.777a52.856,52.856,0,0,0-9,5.4h91.858S196.033,126.5,182.831,129.492Z" transform="translate(-105.348 -118.12)" fill="none" stroke="#263238" stroke-linecap="round" stroke-linejoin="round" stroke-width="1"/>
      <line id="Line_563" data-name="Line 563" y1="1.644" x2="7.694" transform="translate(61.881 1.333)" fill="none" stroke="#263238" stroke-linecap="round" stroke-linejoin="round" stroke-width="1"/>
      <circle id="Ellipse_548" data-name="Ellipse 548" cx="1.333" cy="1.333" r="1.333" transform="translate(68.243)" fill="#263238"/>
      <rect id="Rectangle_3844" data-name="Rectangle 3844" width="2.941" height="2.941" transform="translate(8.467 12.403)" fill="#fff" stroke="#263238" stroke-linecap="round" stroke-linejoin="round" stroke-width="1"/>
      <rect id="Rectangle_3845" data-name="Rectangle 3845" width="2.941" height="2.941" transform="translate(22.016 13.958)" fill="#fff" stroke="#263238" stroke-linecap="round" stroke-linejoin="round" stroke-width="1"/>
      <rect id="Rectangle_3846" data-name="Rectangle 3846" width="2.941" height="2.941" transform="translate(30.208 6.814)" fill="#fff" stroke="#263238" stroke-linecap="round" stroke-linejoin="round" stroke-width="1"/>
      <rect id="Rectangle_3847" data-name="Rectangle 3847" width="2.941" height="2.941" transform="translate(45.667 9.409)" fill="#fff" stroke="#263238" stroke-linecap="round" stroke-linejoin="round" stroke-width="1"/>
      <rect id="Rectangle_3848" data-name="Rectangle 3848" width="2.941" height="2.941" transform="translate(59.66 1.635)" fill="#fff" stroke="#263238" stroke-linecap="round" stroke-linejoin="round" stroke-width="1"/>
      <rect id="Rectangle_3849" data-name="Rectangle 3849" width="2.941" height="2.941" transform="translate(76.008 9.906)" fill="#fff" stroke="#263238" stroke-linecap="round" stroke-linejoin="round" stroke-width="1"/>
      <rect id="Rectangle_3850" data-name="Rectangle 3850" width="2.941" height="2.941" transform="translate(91.618 17.707)" fill="#fff" stroke="#263238" stroke-linecap="round" stroke-linejoin="round" stroke-width="1"/>
      <rect id="Rectangle_3851" data-name="Rectangle 3851" width="2.941" height="2.941" transform="translate(0 17.707)" fill="#fff" stroke="#263238" stroke-linecap="round" stroke-linejoin="round" stroke-width="1"/>
    </g>
    <g id="freepik--Character--inject-247" transform="translate(102.254 119.564)">
      <path id="Path_17988" data-name="Path 17988" d="M297.867,318.945l-7.827-6.495.924,10.128,2.5-3.58Z" transform="translate(-142.566 -173.442)" fill="#263238"/>
      <path id="Path_17989" data-name="Path 17989" d="M202.39,188.844l6.4,9.88,6.388-6.388-4.353-9.3,1.741-6.681-9.009-3.483Z" transform="translate(-132.789 -157.873)" fill="#fff" stroke="#263238" stroke-linecap="round" stroke-linejoin="round" stroke-width="1"/>
      <path id="Path_17990" data-name="Path 17990" d="M187.235,173.08l.293,6.095-2.541,5.224a1.057,1.057,0,0,0,.773,1.5l3.2.542s3.776,10.457,4.94,10.75,12.785-5.233,13.069-7.268.888-5.811.888-5.811a4.265,4.265,0,0,0,2.905-4.069c0-3.19-5.517-4.06-5.517-4.06Z" transform="translate(-130.836 -157.896)" fill="#fff" stroke="#263238" stroke-linecap="round" stroke-linejoin="round" stroke-width="1"/>
      <path id="Path_17991" data-name="Path 17991" d="M191.4,179.8c0,.888-.311,1.573-.7,1.573s-.7-.684-.7-1.573.32-1.573.711-1.573S191.4,178.914,191.4,179.8Z" transform="translate(-131.407 -158.471)" fill="#263238"/>
      <path id="Path_17992" data-name="Path 17992" d="M189.11,176.686a2.266,2.266,0,0,1,3.607-.311" transform="translate(-131.308 -158.18)" fill="none" stroke="#263238" stroke-linecap="round" stroke-linejoin="round" stroke-width="1"/>
      <path id="Path_17993" data-name="Path 17993" d="M191.58,189.224a3.634,3.634,0,0,0,3.927-2.514" transform="translate(-131.583 -159.417)" fill="none" stroke="#263238" stroke-linecap="round" stroke-linejoin="round" stroke-width="1"/>
      <path id="Path_17994" data-name="Path 17994" d="M187.53,171.174l29.639,4.94s.586-10.466-2.905-15.992-14.526-4.647-20.337-2.328S187.53,171.174,187.53,171.174Z" transform="translate(-131.132 -155.99)" fill="#aa43d1" stroke="#263238" stroke-linecap="round" stroke-linejoin="round" stroke-width="1"/>
      <path id="Path_17995" data-name="Path 17995" d="M201.6,175.69s0,4.362,1.777,4.069,3.776-3.483,3.776-3.483Z" transform="translate(-132.701 -158.187)" fill="#263238" stroke="#263238" stroke-linecap="round" stroke-linejoin="round" stroke-width="1"/>
      <path id="Path_17996" data-name="Path 17996" d="M205.86,176.35s9.586,10.466,13.656,10.75,9.88-1.164,8.423-2.905-8.885-6.326-8.885-6.326Z" transform="translate(-133.176 -158.261)" fill="#aa43d1" stroke="#263238" stroke-linecap="round" stroke-linejoin="round" stroke-width="1"/>
      <path id="Path_17997" data-name="Path 17997" d="M228.93,285.557c9.551,14.215,22.611,33.5,23.162,33.681.888.293,52.3-24.7,52.3-24.7s11.621,24.992,13.078,24.7-2.035-31.984-3.492-32.251-58.4,18.6-58.4,18.6l-11.044-36.32-.071-.187a28.1,28.1,0,0,0,1.519-8.236l-33.122,7.845.293,6.681s-22.665,31.1-22.665,32.544,4.647,48.234,4.647,48.234-22.371,13.94-21.207,14.526,31.674,0,31.674,0l-1.777-15.992L201.8,309.066s15.015-12.545,27.133-23.509" transform="translate(-129.61 -167.685)" fill="none" stroke="#263238" stroke-linecap="round" stroke-linejoin="round" stroke-width="1"/>
      <rect id="Rectangle_3852" data-name="Rectangle 3852" width="2.941" height="2.941" transform="translate(59.366 138.715)" fill="#fff" stroke="#263238" stroke-linecap="round" stroke-linejoin="round" stroke-width="1"/>
      <rect id="Rectangle_3853" data-name="Rectangle 3853" width="2.941" height="2.941" transform="translate(70.747 139.914)" fill="#fff" stroke="#263238" stroke-linecap="round" stroke-linejoin="round" stroke-width="1"/>
      <rect id="Rectangle_3854" data-name="Rectangle 3854" width="2.941" height="2.941" transform="translate(64.066 186.985)" fill="#fff" stroke="#263238" stroke-linecap="round" stroke-linejoin="round" stroke-width="1"/>
      <rect id="Rectangle_3855" data-name="Rectangle 3855" width="2.941" height="2.941" transform="translate(42.849 201.511)" fill="#fff" stroke="#263238" stroke-linecap="round" stroke-linejoin="round" stroke-width="1"/>
      <rect id="Rectangle_3856" data-name="Rectangle 3856" width="2.941" height="2.941" transform="translate(72.782 185.528)" fill="#fff" stroke="#263238" stroke-linecap="round" stroke-linejoin="round" stroke-width="1"/>
      <rect id="Rectangle_3857" data-name="Rectangle 3857" width="2.941" height="2.941" transform="translate(121.007 150.087)" fill="#fff" stroke="#263238" stroke-linecap="round" stroke-linejoin="round" stroke-width="1"/>
      <rect id="Rectangle_3858" data-name="Rectangle 3858" width="2.941" height="2.941" transform="translate(97.845 116.397)" fill="#fff" stroke="#263238" stroke-linecap="round" stroke-linejoin="round" stroke-width="1"/>
      <rect id="Rectangle_3859" data-name="Rectangle 3859" width="2.941" height="2.941" transform="translate(124.499 136.423)" fill="#fff" stroke="#263238" stroke-linecap="round" stroke-linejoin="round" stroke-width="1"/>
      <rect id="Rectangle_3860" data-name="Rectangle 3860" width="2.941" height="2.941" transform="translate(173.311 125.388)" fill="#fff" stroke="#263238" stroke-linecap="round" stroke-linejoin="round" stroke-width="1"/>
      <rect id="Rectangle_3861" data-name="Rectangle 3861" width="2.941" height="2.941" transform="translate(185.927 150.309)" fill="#fff" stroke="#263238" stroke-linecap="round" stroke-linejoin="round" stroke-width="1"/>
      <rect id="Rectangle_3862" data-name="Rectangle 3862" width="2.941" height="2.941" transform="translate(182.95 117.623)" fill="#fff" stroke="#263238" stroke-linecap="round" stroke-linejoin="round" stroke-width="1"/>
      <rect id="Rectangle_3863" data-name="Rectangle 3863" width="2.941" height="2.941" transform="translate(74.088 201.094)" fill="#fff" stroke="#263238" stroke-linecap="round" stroke-linejoin="round" stroke-width="1"/>
      <path id="Path_17998" data-name="Path 17998" d="M280.848,240.28,266.9,202.218l-11.55-3.278-3.429,8.28,7.712,1.972,14.215,32.535s-1.164,3.2-.888,4.656,2.905,7.552,4.647,8.423a1.91,1.91,0,0,0,2.612-.577s6.1-2.328,6.69-3.785-1.457-4.06-1.777-6.095S280.848,240.28,280.848,240.28Z" transform="translate(-138.314 -160.781)" fill="#fff" stroke="#263238" stroke-linecap="round" stroke-linejoin="round" stroke-width="1"/>
      <path id="Path_17999" data-name="Path 17999" d="M256.342,388.979H144.707l-13.993-8.52a2.6,2.6,0,1,1,2.71-4.442l12.74,7.756H254.192l4.442-4.442a2.6,2.6,0,0,1,3.678,3.678Z" transform="translate(-124.647 -180.484)" fill="#263238" stroke="#263238" stroke-miterlimit="10" stroke-width="1"/>
      <path id="Path_18000" data-name="Path 18000" d="M162.886,396.812a5.233,5.233,0,1,0-5.233,5.224A5.233,5.233,0,0,0,162.886,396.812Z" transform="translate(-127.215 -182.267)" fill="#263238" stroke="#263238" stroke-linecap="round" stroke-linejoin="round" stroke-width="1"/>
      <circle id="Ellipse_549" data-name="Ellipse 549" cx="2.488" cy="2.488" r="2.488" transform="translate(27.95 212.057)" fill="#fff" stroke="#263238" stroke-linecap="round" stroke-linejoin="round" stroke-width="1"/>
      <path id="Path_18001" data-name="Path 18001" d="M252.816,396.812a5.233,5.233,0,1,0-5.224,5.224A5.233,5.233,0,0,0,252.816,396.812Z" transform="translate(-137.246 -182.267)" fill="#263238" stroke="#263238" stroke-linecap="round" stroke-linejoin="round" stroke-width="1"/>
      <path id="Path_18002" data-name="Path 18002" d="M250.425,397.158a2.488,2.488,0,1,0-2.488,2.488,2.488,2.488,0,0,0,2.488-2.488Z" transform="translate(-137.592 -182.613)" fill="#fff" stroke="#263238" stroke-linecap="round" stroke-linejoin="round" stroke-width="1"/>
      <path id="Path_18003" data-name="Path 18003" d="M178.868,219.5l-6.139,4.664-33.246-4.584-4.025-6.219-6.441.622-.2,1.244s-4.158,0-4.576.835,0,3.74,0,3.74l1.661.409s-.2,3.74.835,4.576,10.395.888,10.395.888l39.67,9.578,8.751-7.321Z" transform="translate(-124.051 -162.389)" fill="#fff" stroke="#263238" stroke-linecap="round" stroke-linejoin="round" stroke-width="1"/>
      <path id="Path_18004" data-name="Path 18004" d="M279.23,258.154l6.157-1.777a1.279,1.279,0,0,0,.888-1.217h0a1.279,1.279,0,0,0-1.119-1.262l-4.282-.489" transform="translate(-141.36 -166.856)" fill="#fff" stroke="#263238" stroke-linecap="round" stroke-linejoin="round" stroke-width="1"/>
      <line id="Line_564" data-name="Line 564" x1="1.253" y1="3.945" transform="translate(141.193 83.204)" fill="#fff" stroke="#263238" stroke-linecap="round" stroke-linejoin="round" stroke-width="1"/>
      <line id="Line_565" data-name="Line 565" y1="1.039" x2="2.497" transform="translate(144.933 86.109)" fill="#fff" stroke="#263238" stroke-linecap="round" stroke-linejoin="round" stroke-width="1"/>
      <path id="Path_18005" data-name="Path 18005" d="M244.271,212.707l8-13.487s-20.95-6.6-29.266-7.747-10.617,1.43-10.617,1.43L198.4,206.577,180,220.446l8.885,14.109,13.149-10.661,10.946,46.475s15.228-.355,22.993-3.554c8.263-3.447,16.33-10.439,16.33-10.439l-25.579-54.2Z" transform="translate(-130.292 -159.915)" fill="#263238" stroke="#263238" stroke-miterlimit="10" stroke-width="1"/>
    </g>
    <g id="freepik--Window--inject-247" transform="translate(90.565 94.26)">
      <path id="Path_18006" data-name="Path 18006" d="M96.92,97V358.323H342.337V97Zm242.7,253.048H99.636v-242H339.621Z" transform="translate(-96.92 -97)" fill="#263238" stroke="#263238" stroke-linecap="round" stroke-linejoin="round" stroke-width="1"/>
      <path id="Path_18007" data-name="Path 18007" d="M96.92,97V358.323H342.337V97Zm242.7,253.048H99.636v-242H339.621Z" transform="translate(-96.92 -97)" fill="#fff" opacity="0.2"/>
      <rect id="Rectangle_3864" data-name="Rectangle 3864" width="239.322" height="240.001" transform="translate(3.047 12.19)" fill="none" stroke="#263238" stroke-linecap="round" stroke-linejoin="round" stroke-width="1"/>
      <path id="Path_18008" data-name="Path 18008" d="M107.425,98.66h-5.7v8h6.859V99.762Zm.72,7.49h-5.97V99.175h4.958l1.013.96Z" transform="translate(-97.457 -97.185)" fill="#aa43d1"/>
      <line id="Line_566" data-name="Line 566" x1="4.353" y2="3.776" transform="translate(232.801 3.216)" fill="none" stroke="#aa43d1" stroke-miterlimit="10" stroke-width="1"/>
      <line id="Line_567" data-name="Line 567" x2="4.353" y2="3.776" transform="translate(232.801 3.216)" fill="none" stroke="#aa43d1" stroke-miterlimit="10" stroke-width="1"/>
      <path id="Path_18009" data-name="Path 18009" d="M399.123,98.01v8.707H359.64V98.01" transform="translate(-156.167 -97.113)" fill="none" stroke="#aa43d1" stroke-miterlimit="10" stroke-width="0.5"/>
      <line id="Line_568" data-name="Line 568" y1="8.414" transform="translate(227.284 1.191)" fill="none" stroke="#aa43d1" stroke-miterlimit="10" stroke-width="0.5"/>
      <line id="Line_569" data-name="Line 569" y1="8.414" transform="translate(214.801 1.191)" fill="none" stroke="#aa43d1" stroke-miterlimit="10" stroke-width="0.5"/>
      <rect id="Rectangle_3865" data-name="Rectangle 3865" width="4.931" height="3.483" transform="translate(218.577 3.074)" fill="none" stroke="#aa43d1" stroke-miterlimit="10" stroke-width="1"/>
      <line id="Line_570" data-name="Line 570" x1="4.353" transform="translate(205.801 6.415)" fill="none" stroke="#aa43d1" stroke-miterlimit="10" stroke-width="1"/>
      <rect id="Rectangle_3866" data-name="Rectangle 3866" width="9.817" height="240.072" transform="translate(232.552 12.119)" fill="#263238"/>
      <rect id="Rectangle_3867" data-name="Rectangle 3867" width="8.92" height="15.717" rx="3.76" transform="translate(233.21 134.153)" fill="#fff" opacity="0.2"/>
    </g>
    <g id="freepik--tool-bars--inject-247" transform="translate(64.204 130.635)">
      <rect id="Rectangle_3868" data-name="Rectangle 3868" width="33.166" height="116.53" transform="translate(0 53.325)" fill="#263238"/>
      <rect id="Rectangle_3869" data-name="Rectangle 3869" width="33.166" height="116.53" transform="translate(0 53.325)" fill="#fff" opacity="0.2"/>
      <rect id="Rectangle_3870" data-name="Rectangle 3870" width="12.376" height="12.687" rx="2.17" transform="translate(3.243 69.095)" fill="#263238"/>
      <rect id="Rectangle_3871" data-name="Rectangle 3871" width="33.166" height="5.89" transform="translate(0 53.325)" fill="#263238"/>
      <line id="Line_571" data-name="Line 571" y2="2.559" transform="translate(10.972 60.175)" fill="none" stroke="#263238" stroke-linecap="round" stroke-linejoin="round" stroke-width="1"/>
      <line id="Line_572" data-name="Line 572" y2="2.559" transform="translate(12.243 60.175)" fill="none" stroke="#263238" stroke-linecap="round" stroke-linejoin="round" stroke-width="1"/>
      <line id="Line_573" data-name="Line 573" y2="2.559" transform="translate(13.522 60.175)" fill="none" stroke="#263238" stroke-linecap="round" stroke-linejoin="round" stroke-width="1"/>
      <line id="Line_574" data-name="Line 574" y2="2.559" transform="translate(14.802 60.175)" fill="none" stroke="#263238" stroke-linecap="round" stroke-linejoin="round" stroke-width="1"/>
      <line id="Line_575" data-name="Line 575" y2="2.559" transform="translate(16.081 60.175)" fill="none" stroke="#263238" stroke-linecap="round" stroke-linejoin="round" stroke-width="1"/>
      <line id="Line_576" data-name="Line 576" y2="2.559" transform="translate(17.36 60.175)" fill="none" stroke="#263238" stroke-linecap="round" stroke-linejoin="round" stroke-width="1"/>
      <line id="Line_577" data-name="Line 577" y2="2.559" transform="translate(18.64 60.175)" fill="none" stroke="#263238" stroke-linecap="round" stroke-linejoin="round" stroke-width="1"/>
      <line id="Line_578" data-name="Line 578" y2="2.559" transform="translate(19.919 60.175)" fill="none" stroke="#263238" stroke-linecap="round" stroke-linejoin="round" stroke-width="1"/>
      <line id="Line_579" data-name="Line 579" y2="2.559" transform="translate(21.19 60.175)" fill="none" stroke="#263238" stroke-linecap="round" stroke-linejoin="round" stroke-width="1"/>
      <line id="Line_580" data-name="Line 580" y2="2.559" transform="translate(22.469 60.175)" fill="none" stroke="#263238" stroke-linecap="round" stroke-linejoin="round" stroke-width="1"/>
      <path id="Path_18010" data-name="Path 18010" d="M81.026,236.051,74.9,230.987a.462.462,0,0,0-.755.4l.72,7.943a.462.462,0,0,0,.346.4h.115a.471.471,0,0,0,.382-.2l1.777-2.612h3.216A.471.471,0,0,0,81,236.1Z" transform="translate(-68.019 -159.812)" fill="#fff"/>
      <path id="Path_18011" data-name="Path 18011" d="M80.78,236.461l-6.13-5.091.72,7.943,1.963-2.808Z" transform="translate(-68.075 -159.867)" fill="#263238"/>
      <path id="Path_18012" data-name="Path 18012" d="M97.67,236.461l-6.13-5.091.729,7.943,1.955-2.808Z" transform="translate(-69.959 -159.867)" fill="#fff"/>
      <path id="Path_18013" data-name="Path 18013" d="M100.983,241.985l-.115-1.635-1.457,1.368Z" transform="translate(-70.837 -160.868)" fill="#fff"/>
      <path id="Path_18014" data-name="Path 18014" d="M100.983,300.595l-.115-1.635-1.457,1.377Z" transform="translate(-70.837 -167.406)" fill="#fff"/>
      <path id="Path_18015" data-name="Path 18015" d="M100.983,318.585l-.115-1.635-1.457,1.377Z" transform="translate(-70.837 -169.413)" fill="#fff"/>
      <path id="Path_18016" data-name="Path 18016" d="M100.983,337.035l-.115-1.635-1.457,1.368Z" transform="translate(-70.837 -171.471)" fill="#fff"/>
      <path id="Path_18017" data-name="Path 18017" d="M83.813,279.825,83.7,278.19l-1.457,1.377Z" transform="translate(-68.922 -165.089)" fill="#fff"/>
      <path id="Path_18018" data-name="Path 18018" d="M83.813,300.595,83.7,298.96l-1.457,1.377Z" transform="translate(-68.922 -167.406)" fill="#fff"/>
      <path id="Path_18019" data-name="Path 18019" d="M83.813,318.585,83.7,316.95l-1.457,1.377Z" transform="translate(-68.922 -169.413)" fill="#fff"/>
      <path id="Path_18020" data-name="Path 18020" d="M83.813,337.035,83.7,335.4l-1.457,1.368Z" transform="translate(-68.922 -171.471)" fill="#fff"/>
      <rect id="Rectangle_3872" data-name="Rectangle 3872" width="1.395" height="10.519" transform="translate(11.467 90.63) rotate(40.41)" fill="#fff"/>
      <path id="Path_18021" data-name="Path 18021" d="M77.208,252.635c-1.439-1.59-1.466-1.9-.293-3.7-1.59,1.439-1.91,1.466-3.7.3,1.439,1.59,1.466,1.9.3,3.7C75.094,251.489,75.413,251.462,77.208,252.635Z" transform="translate(-67.915 -161.826)" fill="#fff"/>
      <path id="Path_18022" data-name="Path 18022" d="M84.58,253.783c-.888-.986-.888-1.182-.187-2.283-.977.888-1.173.888-2.283.178.888.986.888,1.182.187,2.283C83.274,253.073,83.469,253.064,84.58,253.783Z" transform="translate(-68.908 -162.112)" fill="#fff"/>
      <path id="Path_18023" data-name="Path 18023" d="M82.659,258.1c-.631-.7-.64-.844-.133-1.635-.693.631-.835.649-1.626.133.631.693.649.835.133,1.626C81.726,257.6,81.877,257.589,82.659,258.1Z" transform="translate(-68.773 -162.667)" fill="#fff"/>
      <path id="Path_18024" data-name="Path 18024" d="M90.65,297.265l.64.613,6.814-8.014-.631-.6Z" transform="translate(-69.86 -166.324)" fill="#fff"/>
      <path id="Path_18025" data-name="Path 18025" d="M100.761,259.036l-5.411-4.5.64,7,1.724-2.47Z" transform="translate(-70.384 -162.451)" fill="#fff"/>
      <path id="Path_18026" data-name="Path 18026" d="M94.679,259.2c-2.594,0-4.709-1.528-4.709-3.412s2.115-3.412,4.709-3.412,4.709,1.528,4.709,3.412S97.282,259.2,94.679,259.2Zm0-6.415c-2.372,0-4.3,1.342-4.3,3s1.928,3,4.3,3,4.3-1.35,4.3-3S97.051,252.789,94.679,252.789Z" transform="translate(-69.784 -162.21)" fill="#fff"/>
      <path id="Path_18027" data-name="Path 18027" d="M91.9,259a1.164,1.164,0,1,1,1.155-1.155A1.164,1.164,0,0,1,91.9,259Zm0-1.91a.755.755,0,1,0,.746.755.755.755,0,0,0-.746-.755Z" transform="translate(-69.869 -162.689)" fill="#fff"/>
      <path id="Path_18028" data-name="Path 18028" d="M91.643,260.358l-.133-.382a1.946,1.946,0,0,0,1.173-.888,1.377,1.377,0,0,0,.062-1l.391-.133a1.777,1.777,0,0,1-.08,1.306,2.31,2.31,0,0,1-1.413,1.1Z" transform="translate(-69.956 -162.832)" fill="#fff"/>
      <rect id="Rectangle_3873" data-name="Rectangle 3873" width="5.091" height="2.363" transform="translate(11.272 110.747) rotate(-135)" fill="#fff"/>
      <path id="Path_18029" data-name="Path 18029" d="M71,278.139l.586.6,2.887-2.887a.551.551,0,0,1,.089-.675.569.569,0,1,1,.116.888L71.8,278.948l.551.542,4.869-1.27,1.271-2.665L74.936,272l-2.665,1.2Z" transform="translate(-67.668 -164.399)" fill="#fff"/>
      <line id="Line_581" data-name="Line 581" x2="28.546" transform="translate(2.816 102.439)" fill="none" stroke="#263238" stroke-linecap="round" stroke-linejoin="round" stroke-width="1"/>
      <rect id="Rectangle_3874" data-name="Rectangle 3874" width="2.363" height="5.091" transform="translate(24.84 107.149) rotate(-45)" fill="#fff"/>
      <path id="Path_18030" data-name="Path 18030" d="M91.577,273.244l-1.3,4.9.586.6,2.887-2.887a.551.551,0,0,1,.089-.675.569.569,0,1,1,.115.888l-2.879,2.888.551.542,4.931-1.27,1.271-2.665L94.278,272Z" transform="translate(-69.819 -164.399)" fill="#fff"/>
      <path id="Path_18031" data-name="Path 18031" d="M89.6,274.408c.178-.346.364-.72.551-1.137a2.665,2.665,0,0,0,.133-2.23,2.825,2.825,0,0,0-1.67-1.342.235.235,0,1,0-.124.453,2.328,2.328,0,0,1,1.377,1.093,2.186,2.186,0,0,1-.133,1.83c-.187.418-.373.782-.551,1.12-.888,1.777-1.439,2.852.888,4.62a.249.249,0,0,0,.142,0,.222.222,0,0,0,.178-.089.24.24,0,0,0,0-.329C88.328,276.931,88.7,276.185,89.6,274.408Z" transform="translate(-69.6 -164.141)" fill="#fff"/>
      <path id="Path_18032" data-name="Path 18032" d="M70.55,288.389v.462a16.337,16.337,0,0,0,.116,2.1l.888-.2a10.233,10.233,0,0,1-.089-1.422h3.554v7.916H73.7v.888h3.554v-.888H75.943v-7.916h3.429v1.661h.888v-2.6Z" transform="translate(-67.618 -166.226)" fill="#fff"/>
      <ellipse id="Ellipse_550" data-name="Ellipse 550" cx="5.109" cy="3.687" rx="5.109" ry="3.687" transform="translate(3.092 140.448)" fill="#fff" opacity="0.44"/>
      <ellipse id="Ellipse_551" data-name="Ellipse 551" cx="5.109" cy="3.687" rx="5.109" ry="3.687" transform="translate(3.092 140.448)" fill="none" stroke="#fff" stroke-miterlimit="10" stroke-width="1"/>
      <path id="Path_18033" data-name="Path 18033" d="M94,312.447l5.615-6.086a.729.729,0,0,1,.888-.133h0a.737.737,0,0,1,.24,1.013l-4.291,6.77Z" transform="translate(-70.234 -168.206)" fill="#fff"/>
      <path id="Path_18034" data-name="Path 18034" d="M92.926,313.808c1.386-.169,3.554.951,2.976,2.665a1.777,1.777,0,0,1-.942.888,9.1,9.1,0,0,1-3.98.649,1.582,1.582,0,0,0,.773-1.119,11.157,11.157,0,0,0-.071-1.439c0-.684.48-1.608,1.244-1.661" transform="translate(-69.897 -169.06)" fill="#fff"/>
      <path id="Path_18035" data-name="Path 18035" d="M79.443,328.631a3.038,3.038,0,0,0-.6-1.661l-1.608,1.608a3.4,3.4,0,0,1,.693,1.892,10.121,10.121,0,0,0,.32,1.857l1.581-1.581A9.187,9.187,0,0,1,79.443,328.631Z" transform="translate(-68.364 -170.53)" fill="#fff"/>
      <path id="Path_18036" data-name="Path 18036" d="M77.352,330.731a3.047,3.047,0,0,0-.6-1.661l-1.617,1.608a3.3,3.3,0,0,1,.7,1.884,10.287,10.287,0,0,0,.311,1.857l1.581-1.581A9.693,9.693,0,0,1,77.352,330.731Z" transform="translate(-68.13 -170.764)" fill="#fff"/>
      <path id="Path_18037" data-name="Path 18037" d="M80.033,328.453a9.4,9.4,0,0,0,.32,1.857l2.319-2.328L80.3,325.61l-.96.96a3.367,3.367,0,0,1,.693,1.884Z" transform="translate(-68.599 -170.379)" fill="#fff"/>
      <path id="Path_18038" data-name="Path 18038" d="M75.159,332.791a3.039,3.039,0,0,0-.6-1.661l-1.35,1.35-1,3.074a.267.267,0,0,0,.347.338l3.012-.986A10.537,10.537,0,0,1,75.159,332.791Zm-1.91,2.052.533-1.626,1.075,1.075Z" transform="translate(-67.802 -170.994)" fill="#fff"/>
      <path id="Path_18039" data-name="Path 18039" d="M90.667,329.923,88.89,331.7l4.176,4.185,1.777-1.777.258.258,4.176-4.185-4.682-4.691-4.185,4.185Zm2.408,4.9-3.2-3.136,1.262-1.262,3.181,3.163Z" transform="translate(-69.664 -170.365)" fill="#fff"/>
      <path id="Path_18040" data-name="Path 18040" d="M73.57,212.66v.56l-1.164.986,1.164.977v.56l-1.83-1.537Z" transform="translate(-67.751 -157.78)" fill="#fff"/>
      <path id="Path_18041" data-name="Path 18041" d="M71.31,212.66v.56l-1.155.986,1.155.977v.56l-1.83-1.537Z" transform="translate(-67.499 -157.78)" fill="#fff"/>
      <rect id="Rectangle_3875" data-name="Rectangle 3875" width="117.241" height="77.598" transform="translate(186.397)" fill="#263238"/>
      <rect id="Rectangle_3876" data-name="Rectangle 3876" width="77.518" height="14.917" transform="translate(226.12 3.243)" fill="#fff" opacity="0.1"/>
      <path id="Path_18042" data-name="Path 18042" d="M350.473,169.466V154.54H310.75V228.9H427.991V169.466Z" transform="translate(-124.353 -151.297)" fill="#fff" opacity="0.2"/>
      <rect id="Rectangle_3877" data-name="Rectangle 3877" width="5.731" height="5.731" transform="translate(203.629 32.064)" fill="#fff"/>
      <rect id="Rectangle_3878" data-name="Rectangle 3878" width="5.731" height="5.731" transform="translate(206.228 34.925)" fill="#fff"/>
      <path id="Path_18043" data-name="Path 18043" d="M342.58,189.841h2.861V186.98H339.71v5.731h2.87Z" transform="translate(-119.749 -154.916)" fill="#fff"/>
      <path id="Path_18044" data-name="Path 18044" d="M348.879,196.139H342.66V189.92h6.219Zm-5.731-.489h5.242v-5.233h-5.242Z" transform="translate(-120.351 -155.243)" fill="#fff"/>
      <path id="Path_18045" data-name="Path 18045" d="M366.159,192.919H359.94V186.7h6.219Zm-5.722-.489h5.242v-5.242h-5.242Z" transform="translate(-123.683 -154.884)" fill="#fff"/>
      <path id="Path_18046" data-name="Path 18046" d="M369.389,196.139H363.17V189.92h6.219Zm-5.731-.489H368.9v-5.233h-5.242Z" transform="translate(-124.305 -155.243)" fill="#fff"/>
      <rect id="Rectangle_3879" data-name="Rectangle 3879" width="2.861" height="2.861" transform="translate(239.335 34.925)" fill="#fff"/>
      <path id="Path_18047" data-name="Path 18047" d="M386.56,225.81H380.67v-5.89h5.891Zm-5.731-.16H386.4V220.08H380.83Z" transform="translate(-132.152 -158.59)" fill="#fff"/>
      <path id="Path_18048" data-name="Path 18048" d="M389.929,229.219H383.71V223h6.219Zm-5.731-.48h5.242V223.5H384.2Z" transform="translate(-132.491 -158.933)" fill="#fff"/>
      <rect id="Rectangle_3880" data-name="Rectangle 3880" width="2.861" height="2.861" transform="translate(251.467 64.28)" fill="#fff"/>
      <path id="Path_18049" data-name="Path 18049" d="M407.379,225.949H401.16V219.73h6.219Zm-5.722-.489h5.233v-5.233h-5.233Z" transform="translate(-134.438 -158.569)" fill="#fff"/>
      <path id="Path_18050" data-name="Path 18050" d="M410.6,229.219H404.38V223H410.6Zm-5.722-.48h5.242V223.5h-5.242Z" transform="translate(-134.797 -158.933)" fill="#fff"/>
      <path id="Path_18051" data-name="Path 18051" d="M428.111,223.24V226.1H425.25v2.861h5.731V223.24Z" transform="translate(-137.125 -158.96)" fill="#fff"/>
      <path id="Path_18052" data-name="Path 18052" d="M431.219,229.219H425v-3.35h2.861V223h3.358Zm-5.731-.48h5.242V223.5h-2.372v2.861h-2.87Z" transform="translate(-137.097 -158.933)" fill="#fff"/>
      <path id="Path_18053" data-name="Path 18053" d="M427.969,225.949H421.75V219.73h6.219Zm-5.731-.489h5.242v-5.233h-5.242Z" transform="translate(-136.734 -158.569)" fill="#fff"/>
      <path id="Path_18054" data-name="Path 18054" d="M321.631,221.822h3.19V219.29H319.09v5.722h2.541Z" transform="translate(-115.776 -158.519)" fill="#fff"/>
      <rect id="Rectangle_3881" data-name="Rectangle 3881" width="2.212" height="2.212" transform="translate(206.433 63.951)" fill="#fff"/>
      <path id="Path_18055" data-name="Path 18055" d="M325.5,222.51v3.19H322.32v2.541h5.722V222.51Z" transform="translate(-116.398 -158.879)" fill="#fff"/>
      <path id="Path_18056" data-name="Path 18056" d="M386.331,189.841V186.98H380.6v5.731h2.861v-2.87Z" transform="translate(-132.144 -154.916)" fill="#fff"/>
      <path id="Path_18057" data-name="Path 18057" d="M386.69,190.2v2.87h-2.87v2.861h5.731V190.2Z" transform="translate(-132.504 -155.275)" fill="#fff"/>
      <path id="Path_18058" data-name="Path 18058" d="M341.8,221.688h3.607V219.04H339.68v5.731H341.8Z" transform="translate(-119.743 -158.492)" fill="#fff"/>
      <rect id="Rectangle_3882" data-name="Rectangle 3882" width="5.89" height="5.295" transform="translate(222.38 63.845)" fill="#fff"/>
      <path id="Path_18059" data-name="Path 18059" d="M365.992,222.64v-2.87H360.27V225.5h2.452v-2.612h.649v5.473h5.491V222.64Z" transform="translate(-123.92 -158.573)" fill="#fff"/>
      <line id="Line_582" data-name="Line 582" x2="23.677" transform="translate(202.901 54.169)" fill="none" stroke="#fff" stroke-miterlimit="10" stroke-width="2"/>
      <line id="Line_583" data-name="Line 583" x2="23.677" transform="translate(202.901 11.026)" fill="none" stroke="#fff" stroke-miterlimit="10" stroke-width="2"/>
      <line id="Line_584" data-name="Line 584" x2="35.023" transform="translate(202.077 26.441)" fill="none" stroke="#fff" stroke-miterlimit="10" stroke-width="2"/>
      <path id="Path_18060" data-name="Path 18060" d="M418.79,158.56v.782l1.626,1.377-1.626,1.368v.782l2.559-2.15Z" transform="translate(-136.404 -151.746)" fill="#fff"/>
      <path id="Path_18061" data-name="Path 18061" d="M421.94,158.56v.782l1.626,1.377-1.626,1.368v.782l2.559-2.15Z" transform="translate(-136.756 -151.746)" fill="#fff"/>
      <line id="Line_585" data-name="Line 585" y2="7.454" transform="translate(290.986 5.517)" fill="none" stroke="#fff" stroke-miterlimit="10" stroke-width="0.5"/>
      <line id="Line_586" data-name="Line 586" x2="5.846" transform="translate(294.229 7.783)" fill="none" stroke="#fff" stroke-miterlimit="10" stroke-width="0.5"/>
      <line id="Line_587" data-name="Line 587" x2="5.846" transform="translate(294.229 9.08)" fill="none" stroke="#fff" stroke-miterlimit="10" stroke-width="0.5"/>
      <line id="Line_588" data-name="Line 588" x2="5.846" transform="translate(294.229 10.377)" fill="none" stroke="#fff" stroke-miterlimit="10" stroke-width="0.5"/>
      <line id="Line_589" data-name="Line 589" x2="5.846" transform="translate(294.229 11.674)" fill="none" stroke="#fff" stroke-miterlimit="10" stroke-width="0.5"/>
    </g>
  </g>
</svg>
