<svg xmlns="http://www.w3.org/2000/svg" xmlns:xlink="http://www.w3.org/1999/xlink" width="550" height="380.359" viewBox="0 0 550 380.359">
  <defs>
    <clipPath id="clip-path">
      <path id="Path_47426" data-name="Path 47426" d="M375.518,355.255V331.29H303.447v23.965a34.344,34.344,0,0,1-7.632,21.535l-3.155,3.905h93.67l-3.155-3.905A34.229,34.229,0,0,1,375.518,355.255Z" transform="translate(-292.66 -331.29)" fill="#fff" stroke="#263238" stroke-linecap="round" stroke-linejoin="round" stroke-width="1"/>
    </clipPath>
    <clipPath id="clip-path-2">
      <rect id="Rectangle_9801" data-name="Rectangle 9801" width="260.557" height="150.287" fill="#263238" stroke="#fff" stroke-linecap="round" stroke-linejoin="round" stroke-width="1"/>
    </clipPath>
    <clipPath id="clip-path-3">
      <rect id="Rectangle_9805" data-name="Rectangle 9805" width="216.33" height="122.252" fill="#263238" stroke="#263238" stroke-linecap="round" stroke-linejoin="round" stroke-width="1"/>
    </clipPath>
    <clipPath id="clip-path-4">
      <rect id="Rectangle_9812" data-name="Rectangle 9812" width="74.654" height="125.331" rx="7.39" fill="#263238" stroke="#263238" stroke-linecap="round" stroke-linejoin="round" stroke-width="1"/>
    </clipPath>
    <clipPath id="clip-path-5">
      <rect id="Rectangle_9816" data-name="Rectangle 9816" width="44.533" height="72.046" fill="#263238" stroke="#263238" stroke-linecap="round" stroke-linejoin="round" stroke-width="1"/>
    </clipPath>
  </defs>
  <g id="development" transform="translate(1.5)">
    <g id="freepik--background-simple--inject-9" transform="translate(20.043)">
      <path id="Path_47412" data-name="Path 47412" d="M555.058,356.831s25.605-135.4-44.139-212.17c-61.565-67.811-159-94.128-238.475-38.16-28.251,19.97-48.921,58.767-81.993,70.749-37.079,13.445-84.741,18.291-119.174,75.862S49.208,384.676,95.114,424.057s126.246.954,198.636-1.921S517.1,523.922,555.058,356.831Z" transform="translate(-51.557 -76.1)" fill="#70ab8d"/>
      <path id="Path_47413" data-name="Path 47413" d="M555.058,356.831s25.605-135.4-44.139-212.17c-61.565-67.811-159-94.128-238.475-38.16-28.251,19.97-48.921,58.767-81.993,70.749-37.079,13.445-84.741,18.291-119.174,75.862S49.208,384.676,95.114,424.057s126.246.954,198.636-1.921S517.1,523.922,555.058,356.831Z" transform="translate(-51.557 -76.1)" fill="#fff" opacity="0.8"/>
    </g>
    <g id="freepik--Floor--inject-9" transform="translate(0 378.281)">
      <line id="Line_1467" data-name="Line 1467" x2="547" fill="none" stroke="#263238" stroke-linecap="round" stroke-linejoin="round" stroke-width="3"/>
    </g>
    <g id="freepik--Plants--inject-9" transform="translate(29.585 50.405)">
      <path id="Path_47414" data-name="Path 47414" d="M170.443,193.422c-5.215-2.455-10.176-4.465-13.153-9.782-2.315-4.2-3.205-10.023,2.2-12.173,7.314-2.9,13.738,6.576,15.633,12.517,1.17,3.638,2.43,8.637,3.18,11.728,0-3.422,0-6.246-.127-8.1h0c0-.9-.089-1.577-.114-1.972a49.977,49.977,0,0,0-3.18-7.352c-2.4-5.241-4.961-10.011-3.816-15.951.929-4.706,3.994-9.744,9.515-7.912,7.467,2.544,6.284,13.865,3.93,19.64-1.666,4.058-4.388,9.591-5.673,12.16.114,1.832.305,5.9.178,11.054a47.6,47.6,0,0,0,3.816-7.3c2.544-5.152,4.668-10.176,10.036-12.949,4.248-2.226,10.087-3,12.122,2.442,2.76,7.365-6.831,13.6-12.809,15.379-4.325,1.272-10.558,2.7-13.254,3.282a113.871,113.871,0,0,1-1.5,15.773,4.782,4.782,0,0,1-.178.929,46.293,46.293,0,0,0,5.622-6.156c3.816-4.363,7.021-8.675,12.924-10.087,4.656-1.107,10.52-.42,11.143,5.355.852,7.823-9.973,11.448-16.205,11.753-4.5.191-10.876,0-13.649-.076-.56,2.544-1.437,5.546-2.417,8.9s-2.1,7.1-3.078,11.143h0c1.794,0,6.131-5.724,7.136-6.882,3.816-4.376,7.021-8.688,12.924-10.087,4.656-1.119,10.519-.432,11.143,5.355.852,7.81-9.973,11.448-16.205,11.753-5.813.242-14.743-.127-15-.14l.1.254a1.525,1.525,0,0,0-.14-.216,103.579,103.579,0,0,0-2.544,14.335c2.188-.369,6.894-4.007,8.039-4.783,4.77-3.231,9.057-6.538,15.111-6.36,4.8.153,10.265,2.353,9.349,8.1-1.272,7.759-12.644,8.472-18.724,7.085-4.808-1.094-11.69-3.205-13.8-3.816a75.048,75.048,0,0,0,.267,17.083c2.315-.636,6.627-3.969,7.708-4.706,4.77-3.231,9.057-6.538,15.111-6.36,4.8.153,10.265,2.353,9.362,8.09-1.272,7.772-12.644,8.484-18.724,7.1-4.541-1.03-10.914-2.964-13.394-3.74a69.884,69.884,0,0,0,7.289,22.222l-.687.343a70.66,70.66,0,0,1-7.174-22.387c-1.819-.84-8.179.712-9.616.954-5.673.992-10.926,2.264-16.383-.394-4.312-2.1-8.4-6.36-5.228-11.206,4.3-6.589,15.01-2.544,20,1.183,4.134,3.116,9.883,8.179,11.219,9.375v-.407l-.229-.076a.663.663,0,0,0,.229,0,74.132,74.132,0,0,1-.267-17.312c-1.933-1.018-8-.763-9.387-.789-5.762-.127-11.168.1-16-3.562-3.816-2.887-7.021-7.848-2.964-12.008,5.5-5.635,15.264.394,19.385,5.088,3.269,3.651,7.632,9.273,8.98,11.079a104.12,104.12,0,0,1,2.62-14.717c-2.048-1.272-7.212-2.468-8.446-2.824-5.533-1.59-10.825-2.773-14.552-7.543-2.964-3.816-4.783-9.375.2-12.364,6.754-4.045,14.615,4.274,17.452,9.82,1.984,3.905,4.4,9.54,5.508,12.2.929-3.663,1.933-7.072,2.837-10.176.967-3.269,1.819-6.182,2.391-8.713H175.9a1.628,1.628,0,0,0,.623-.165v-.127c-1.7-1.361-7.721-2.226-9.082-2.544-5.648-1.2-11-1.972-15.073-6.462-3.218-3.549-5.444-9.006-.687-12.351,6.436-4.516,14.882,3.205,18.113,8.535,2.544,4.172,5.749,10.481,6.78,12.542.089-.432.178-.852.242-1.272a115.42,115.42,0,0,0,1.488-15.48l-.547.127a1.5,1.5,0,0,0,.547-.305v-.56C176.434,195.852,171.588,193.918,170.443,193.422Z" transform="translate(-38.025 -105.306)" fill="#70ab8d"/>
      <path id="Path_47415" data-name="Path 47415" d="M170.443,193.422c-5.215-2.455-10.176-4.465-13.153-9.782-2.315-4.2-3.205-10.023,2.2-12.173,7.314-2.9,13.738,6.576,15.633,12.517,1.17,3.638,2.43,8.637,3.18,11.728,0-3.422,0-6.246-.127-8.1h0c0-.9-.089-1.577-.114-1.972a49.977,49.977,0,0,0-3.18-7.352c-2.4-5.241-4.961-10.011-3.816-15.951.929-4.706,3.994-9.744,9.515-7.912,7.467,2.544,6.284,13.865,3.93,19.64-1.666,4.058-4.388,9.591-5.673,12.16.114,1.832.305,5.9.178,11.054a47.6,47.6,0,0,0,3.816-7.3c2.544-5.152,4.668-10.176,10.036-12.949,4.248-2.226,10.087-3,12.122,2.442,2.76,7.365-6.831,13.6-12.809,15.379-4.325,1.272-10.558,2.7-13.254,3.282a113.871,113.871,0,0,1-1.5,15.773,4.782,4.782,0,0,1-.178.929,46.293,46.293,0,0,0,5.622-6.156c3.816-4.363,7.021-8.675,12.924-10.087,4.656-1.107,10.52-.42,11.143,5.355.852,7.823-9.973,11.448-16.205,11.753-4.5.191-10.876,0-13.649-.076-.56,2.544-1.437,5.546-2.417,8.9s-2.1,7.1-3.078,11.143h0c1.794,0,6.131-5.724,7.136-6.882,3.816-4.376,7.021-8.688,12.924-10.087,4.656-1.119,10.519-.432,11.143,5.355.852,7.81-9.973,11.448-16.205,11.753-5.813.242-14.743-.127-15-.14l.1.254a1.525,1.525,0,0,0-.14-.216,103.579,103.579,0,0,0-2.544,14.335c2.188-.369,6.894-4.007,8.039-4.783,4.77-3.231,9.057-6.538,15.111-6.36,4.8.153,10.265,2.353,9.349,8.1-1.272,7.759-12.644,8.472-18.724,7.085-4.808-1.094-11.69-3.205-13.8-3.816a75.048,75.048,0,0,0,.267,17.083c2.315-.636,6.627-3.969,7.708-4.706,4.77-3.231,9.057-6.538,15.111-6.36,4.8.153,10.265,2.353,9.362,8.09-1.272,7.772-12.644,8.484-18.724,7.1-4.541-1.03-10.914-2.964-13.394-3.74a69.884,69.884,0,0,0,7.289,22.222l-.687.343a70.66,70.66,0,0,1-7.174-22.387c-1.819-.84-8.179.712-9.616.954-5.673.992-10.926,2.264-16.383-.394-4.312-2.1-8.4-6.36-5.228-11.206,4.3-6.589,15.01-2.544,20,1.183,4.134,3.116,9.883,8.179,11.219,9.375v-.407l-.229-.076a.663.663,0,0,0,.229,0,74.132,74.132,0,0,1-.267-17.312c-1.933-1.018-8-.763-9.387-.789-5.762-.127-11.168.1-16-3.562-3.816-2.887-7.021-7.848-2.964-12.008,5.5-5.635,15.264.394,19.385,5.088,3.269,3.651,7.632,9.273,8.98,11.079a104.12,104.12,0,0,1,2.62-14.717c-2.048-1.272-7.212-2.468-8.446-2.824-5.533-1.59-10.825-2.773-14.552-7.543-2.964-3.816-4.783-9.375.2-12.364,6.754-4.045,14.615,4.274,17.452,9.82,1.984,3.905,4.4,9.54,5.508,12.2.929-3.663,1.933-7.072,2.837-10.176.967-3.269,1.819-6.182,2.391-8.713H175.9a1.628,1.628,0,0,0,.623-.165v-.127c-1.7-1.361-7.721-2.226-9.082-2.544-5.648-1.2-11-1.972-15.073-6.462-3.218-3.549-5.444-9.006-.687-12.351,6.436-4.516,14.882,3.205,18.113,8.535,2.544,4.172,5.749,10.481,6.78,12.542.089-.432.178-.852.242-1.272a115.42,115.42,0,0,0,1.488-15.48l-.547.127a1.5,1.5,0,0,0,.547-.305v-.56C176.434,195.852,171.588,193.918,170.443,193.422Z" transform="translate(-38.025 -105.306)" fill="#fff" opacity="0.5"/>
      <path id="Path_47416" data-name="Path 47416" d="M91.242,245.7c-4.49,3-7.632,5.457-12.72,5.711-4.032.2-9.4-.229-9.705-5.33-.407-6.907,8.828-7.708,14.628-6.971a118.9,118.9,0,0,1,12.16,2.188c-2.544-1.094-5.228-2.137-7.874-3.04h-.089c-.216,0-1.628-.547-1.908-.611a52.321,52.321,0,0,0-7.785-.369c-5.6-.064-10.583.369-14.921-2.112-3.434-1.972-5.521-5.444-2.544-8.9,4.007-4.617,11.066-.623,15.62,2.7,3.218,2.328,7.289,5.546,10.443,8.255,3.663,1.208,7.314,2.671,10.748,4.121-.967-1.45-4.8-4.554-5.635-5.342-4.121-3.816-8.9-6.5-9.527-11.982-.509-4.35,2.048-7.848,6.958-7.2,6.64.89,10.036,8.344,10.011,14.31a97.855,97.855,0,0,1-.929,10.647,107.637,107.637,0,0,1,13.827,7.5,7.09,7.09,0,0,0,.687.458c-.305-1.628-2.824-5.088-3.371-6.08-2.658-4.783-5.775-7.9-5.2-13.331.445-4.287,3.956-7.06,8.548-5.088,6.195,2.646,7.276,10.176,5.317,15.747-1.412,4.045-2.811,5.889-4.656,9.26,2.124,1.819,4.5,3.231,6.36,5.406s3.345,5.088,5.088,7.543h0c1.018-1.9-.5-6.525-.865-7.9-1.386-5.088-3.816-8.141-3.078-13.343.6-4.109,3.816-6.767,8.268-4.516,5.978,3.053,4.6,12.059,2.442,16.078a82.762,82.762,0,0,1-6.36,9.247c-1.272,1.857.293,0-.089.458s0-.293-.254.089c2.239,3.32,4.363,6.945,6.678,10.176.954-1.615,1.018-6.436,1.17-7.7.623-5.241.178-9.3,3.091-13.394,2.29-3.244,6.36-4.528,9.184-.687,3.816,5.19-.216,12.224-4.414,15.76a81.074,81.074,0,0,1-8.9,6.246c2.837,3.816,5.571,7.734,9.731,10.176.75-1.526.89-5.686,1.043-6.894.7-5.317.8-9.82,3.905-13.839,2.442-3.193,6.475-4.974,9.26-1.069,3.816,5.292-.712,11.982-4.885,15.633a81.645,81.645,0,0,1-9.069,6.36,66.02,66.02,0,0,0,17.223,5.966,3.2,3.2,0,0,1-.127.56,69.528,69.528,0,0,1-17.337-5.94c-1.552.776-3.282,4.4-3.892,5.406-2.442,4.007-4.032,6.894-8.1,8.751-3.231,1.476-7.759,1.666-8.662-2.646-1.272-5.813,4.808-9.883,9.744-10.634,4.109-.636,7.161-.216,10.825-.967.267,0-.305-.1-.242-.14s-.153.153-.14.089.076-.076.127-.114c-4.172-2.671-6.932-6.36-9.858-10.3-1.59.547-3.956,4.02-4.694,4.884-3.078,3.613-5.088,6.627-9.553,7.721-3.473.865-7.378.1-7.632-4.249-.394-5.889,6.36-9.247,11.448-9.54a45.029,45.029,0,0,1,10.341.967c-2.43-3.4-4.528-7.009-6.869-10.43-1.526.445-4.465,3.167-5.342,3.816-3.918,2.989-6.869,5.66-11.537,5.966-3.689.242-8.141-.661-7.95-5.355.267-6.36,9.031-7.708,14.323-7.238a39.979,39.979,0,0,1,10.176,2.239,79.067,79.067,0,0,0-4.668-6.843,65.068,65.068,0,0,0-6.233-5.279c0,.076-.369.305-.229.369s.1-.394.089-.458-.089-.064-.127,0c-1.794.509-4.49,3.816-5.393,4.757-3.74,3.6-6.474,6.513-11.3,7.467-3.816.763-8.777.789-9.782-4.058-1.374-6.564,7.352-8.9,12.911-8.9,4.338,0,9.019.254,13.394.585-.305-.229-.649-.471-.967-.674a107.986,107.986,0,0,0-13.521-7.39c0,.089-.191.394,0,.42s0-.445-.14-.5a1.272,1.272,0,0,0-.534-.191C95.592,242.511,92.247,245.055,91.242,245.7Z" transform="translate(-59.058 -88.251)" fill="#70ab8d"/>
      <path id="Path_47417" data-name="Path 47417" d="M91.242,245.7c-4.49,3-7.632,5.457-12.72,5.711-4.032.2-9.4-.229-9.705-5.33-.407-6.907,8.828-7.708,14.628-6.971a118.9,118.9,0,0,1,12.16,2.188c-2.544-1.094-5.228-2.137-7.874-3.04h-.089c-.216,0-1.628-.547-1.908-.611a52.321,52.321,0,0,0-7.785-.369c-5.6-.064-10.583.369-14.921-2.112-3.434-1.972-5.521-5.444-2.544-8.9,4.007-4.617,11.066-.623,15.62,2.7,3.218,2.328,7.289,5.546,10.443,8.255,3.663,1.208,7.314,2.671,10.748,4.121-.967-1.45-4.8-4.554-5.635-5.342-4.121-3.816-8.9-6.5-9.527-11.982-.509-4.35,2.048-7.848,6.958-7.2,6.64.89,10.036,8.344,10.011,14.31a97.855,97.855,0,0,1-.929,10.647,107.637,107.637,0,0,1,13.827,7.5,7.09,7.09,0,0,0,.687.458c-.305-1.628-2.824-5.088-3.371-6.08-2.658-4.783-5.775-7.9-5.2-13.331.445-4.287,3.956-7.06,8.548-5.088,6.195,2.646,7.276,10.176,5.317,15.747-1.412,4.045-2.811,5.889-4.656,9.26,2.124,1.819,4.5,3.231,6.36,5.406s3.345,5.088,5.088,7.543h0c1.018-1.9-.5-6.525-.865-7.9-1.386-5.088-3.816-8.141-3.078-13.343.6-4.109,3.816-6.767,8.268-4.516,5.978,3.053,4.6,12.059,2.442,16.078a82.762,82.762,0,0,1-6.36,9.247c-1.272,1.857.293,0-.089.458s0-.293-.254.089c2.239,3.32,4.363,6.945,6.678,10.176.954-1.615,1.018-6.436,1.17-7.7.623-5.241.178-9.3,3.091-13.394,2.29-3.244,6.36-4.528,9.184-.687,3.816,5.19-.216,12.224-4.414,15.76a81.074,81.074,0,0,1-8.9,6.246c2.837,3.816,5.571,7.734,9.731,10.176.75-1.526.89-5.686,1.043-6.894.7-5.317.8-9.82,3.905-13.839,2.442-3.193,6.475-4.974,9.26-1.069,3.816,5.292-.712,11.982-4.885,15.633a81.645,81.645,0,0,1-9.069,6.36,66.02,66.02,0,0,0,17.223,5.966,3.2,3.2,0,0,1-.127.56,69.528,69.528,0,0,1-17.337-5.94c-1.552.776-3.282,4.4-3.892,5.406-2.442,4.007-4.032,6.894-8.1,8.751-3.231,1.476-7.759,1.666-8.662-2.646-1.272-5.813,4.808-9.883,9.744-10.634,4.109-.636,7.161-.216,10.825-.967.267,0-.305-.1-.242-.14s-.153.153-.14.089.076-.076.127-.114c-4.172-2.671-6.932-6.36-9.858-10.3-1.59.547-3.956,4.02-4.694,4.884-3.078,3.613-5.088,6.627-9.553,7.721-3.473.865-7.378.1-7.632-4.249-.394-5.889,6.36-9.247,11.448-9.54a45.029,45.029,0,0,1,10.341.967c-2.43-3.4-4.528-7.009-6.869-10.43-1.526.445-4.465,3.167-5.342,3.816-3.918,2.989-6.869,5.66-11.537,5.966-3.689.242-8.141-.661-7.95-5.355.267-6.36,9.031-7.708,14.323-7.238a39.979,39.979,0,0,1,10.176,2.239,79.067,79.067,0,0,0-4.668-6.843,65.068,65.068,0,0,0-6.233-5.279c0,.076-.369.305-.229.369s.1-.394.089-.458-.089-.064-.127,0c-1.794.509-4.49,3.816-5.393,4.757-3.74,3.6-6.474,6.513-11.3,7.467-3.816.763-8.777.789-9.782-4.058-1.374-6.564,7.352-8.9,12.911-8.9,4.338,0,9.019.254,13.394.585-.305-.229-.649-.471-.967-.674a107.986,107.986,0,0,0-13.521-7.39c0,.089-.191.394,0,.42s0-.445-.14-.5a1.272,1.272,0,0,0-.534-.191C95.592,242.511,92.247,245.055,91.242,245.7Z" transform="translate(-59.058 -88.251)" fill="#70ab8d" opacity="0.5"/>
      <g id="Group_1255" data-name="Group 1255" transform="translate(0 128.488)" opacity="0.5">
        <path id="Path_47418" data-name="Path 47418" d="M91.242,245.7c-4.49,3-7.632,5.457-12.72,5.711-4.032.2-9.4-.229-9.705-5.33-.407-6.907,8.828-7.708,14.628-6.971a118.9,118.9,0,0,1,12.16,2.188c-2.544-1.094-5.228-2.137-7.874-3.04h-.089c-.216,0-1.628-.547-1.908-.611a52.321,52.321,0,0,0-7.785-.369c-5.6-.064-10.583.369-14.921-2.112-3.434-1.972-5.521-5.444-2.544-8.9,4.007-4.617,11.066-.623,15.62,2.7,3.218,2.328,7.289,5.546,10.443,8.255,3.663,1.208,7.314,2.671,10.748,4.121-.967-1.45-4.8-4.554-5.635-5.342-4.121-3.816-8.9-6.5-9.527-11.982-.509-4.35,2.048-7.848,6.958-7.2,6.64.89,10.036,8.344,10.011,14.31a97.855,97.855,0,0,1-.929,10.647,107.637,107.637,0,0,1,13.827,7.5,7.09,7.09,0,0,0,.687.458c-.305-1.628-2.824-5.088-3.371-6.08-2.658-4.783-5.775-7.9-5.2-13.331.445-4.287,3.956-7.06,8.548-5.088,6.195,2.646,7.276,10.176,5.317,15.747-1.412,4.045-2.811,5.889-4.656,9.26,2.124,1.819,4.5,3.231,6.36,5.406s3.345,5.088,5.088,7.543h0c1.018-1.9-.5-6.525-.865-7.9-1.386-5.088-3.816-8.141-3.078-13.343.6-4.109,3.816-6.767,8.268-4.516,5.978,3.053,4.6,12.059,2.442,16.078a82.762,82.762,0,0,1-6.36,9.247c-1.272,1.857.293,0-.089.458s0-.293-.254.089c2.239,3.32,4.363,6.945,6.678,10.176.954-1.615,1.018-6.436,1.17-7.7.623-5.241.178-9.3,3.091-13.394,2.29-3.244,6.36-4.528,9.184-.687,3.816,5.19-.216,12.224-4.414,15.76a81.074,81.074,0,0,1-8.9,6.246c2.837,3.816,5.571,7.734,9.731,10.176.75-1.526.89-5.686,1.043-6.894.7-5.317.8-9.82,3.905-13.839,2.442-3.193,6.475-4.974,9.26-1.069,3.816,5.292-.712,11.982-4.885,15.633a81.645,81.645,0,0,1-9.069,6.36,66.02,66.02,0,0,0,17.223,5.966,3.2,3.2,0,0,1-.127.56,69.528,69.528,0,0,1-17.337-5.94c-1.552.776-3.282,4.4-3.892,5.406-2.442,4.007-4.032,6.894-8.1,8.751-3.231,1.476-7.759,1.666-8.662-2.646-1.272-5.813,4.808-9.883,9.744-10.634,4.109-.636,7.161-.216,10.825-.967.267,0-.305-.1-.242-.14s-.153.153-.14.089.076-.076.127-.114c-4.172-2.671-6.932-6.36-9.858-10.3-1.59.547-3.956,4.02-4.694,4.884-3.078,3.613-5.088,6.627-9.553,7.721-3.473.865-7.378.1-7.632-4.249-.394-5.889,6.36-9.247,11.448-9.54a45.029,45.029,0,0,1,10.341.967c-2.43-3.4-4.528-7.009-6.869-10.43-1.526.445-4.465,3.167-5.342,3.816-3.918,2.989-6.869,5.66-11.537,5.966-3.689.242-8.141-.661-7.95-5.355.267-6.36,9.031-7.708,14.323-7.238a39.979,39.979,0,0,1,10.176,2.239,79.067,79.067,0,0,0-4.668-6.843,65.068,65.068,0,0,0-6.233-5.279c0,.076-.369.305-.229.369s.1-.394.089-.458-.089-.064-.127,0c-1.794.509-4.49,3.816-5.393,4.757-3.74,3.6-6.474,6.513-11.3,7.467-3.816.763-8.777.789-9.782-4.058-1.374-6.564,7.352-8.9,12.911-8.9,4.338,0,9.019.254,13.394.585-.305-.229-.649-.471-.967-.674a107.986,107.986,0,0,0-13.521-7.39c0,.089-.191.394,0,.42s0-.445-.14-.5a1.272,1.272,0,0,0-.534-.191C95.592,242.511,92.247,245.055,91.242,245.7Z" transform="translate(-59.058 -216.739)" fill="#fff"/>
        <path id="Path_47419" data-name="Path 47419" d="M91.242,245.7c-4.49,3-7.632,5.457-12.72,5.711-4.032.2-9.4-.229-9.705-5.33-.407-6.907,8.828-7.708,14.628-6.971a118.9,118.9,0,0,1,12.16,2.188c-2.544-1.094-5.228-2.137-7.874-3.04h-.089c-.216,0-1.628-.547-1.908-.611a52.321,52.321,0,0,0-7.785-.369c-5.6-.064-10.583.369-14.921-2.112-3.434-1.972-5.521-5.444-2.544-8.9,4.007-4.617,11.066-.623,15.62,2.7,3.218,2.328,7.289,5.546,10.443,8.255,3.663,1.208,7.314,2.671,10.748,4.121-.967-1.45-4.8-4.554-5.635-5.342-4.121-3.816-8.9-6.5-9.527-11.982-.509-4.35,2.048-7.848,6.958-7.2,6.64.89,10.036,8.344,10.011,14.31a97.855,97.855,0,0,1-.929,10.647,107.637,107.637,0,0,1,13.827,7.5,7.09,7.09,0,0,0,.687.458c-.305-1.628-2.824-5.088-3.371-6.08-2.658-4.783-5.775-7.9-5.2-13.331.445-4.287,3.956-7.06,8.548-5.088,6.195,2.646,7.276,10.176,5.317,15.747-1.412,4.045-2.811,5.889-4.656,9.26,2.124,1.819,4.5,3.231,6.36,5.406s3.345,5.088,5.088,7.543h0c1.018-1.9-.5-6.525-.865-7.9-1.386-5.088-3.816-8.141-3.078-13.343.6-4.109,3.816-6.767,8.268-4.516,5.978,3.053,4.6,12.059,2.442,16.078a82.762,82.762,0,0,1-6.36,9.247c-1.272,1.857.293,0-.089.458s0-.293-.254.089c2.239,3.32,4.363,6.945,6.678,10.176.954-1.615,1.018-6.436,1.17-7.7.623-5.241.178-9.3,3.091-13.394,2.29-3.244,6.36-4.528,9.184-.687,3.816,5.19-.216,12.224-4.414,15.76a81.074,81.074,0,0,1-8.9,6.246c2.837,3.816,5.571,7.734,9.731,10.176.75-1.526.89-5.686,1.043-6.894.7-5.317.8-9.82,3.905-13.839,2.442-3.193,6.475-4.974,9.26-1.069,3.816,5.292-.712,11.982-4.885,15.633a81.645,81.645,0,0,1-9.069,6.36,66.02,66.02,0,0,0,17.223,5.966,3.2,3.2,0,0,1-.127.56,69.528,69.528,0,0,1-17.337-5.94c-1.552.776-3.282,4.4-3.892,5.406-2.442,4.007-4.032,6.894-8.1,8.751-3.231,1.476-7.759,1.666-8.662-2.646-1.272-5.813,4.808-9.883,9.744-10.634,4.109-.636,7.161-.216,10.825-.967.267,0-.305-.1-.242-.14s-.153.153-.14.089.076-.076.127-.114c-4.172-2.671-6.932-6.36-9.858-10.3-1.59.547-3.956,4.02-4.694,4.884-3.078,3.613-5.088,6.627-9.553,7.721-3.473.865-7.378.1-7.632-4.249-.394-5.889,6.36-9.247,11.448-9.54a45.029,45.029,0,0,1,10.341.967c-2.43-3.4-4.528-7.009-6.869-10.43-1.526.445-4.465,3.167-5.342,3.816-3.918,2.989-6.869,5.66-11.537,5.966-3.689.242-8.141-.661-7.95-5.355.267-6.36,9.031-7.708,14.323-7.238a39.979,39.979,0,0,1,10.176,2.239,79.067,79.067,0,0,0-4.668-6.843,65.068,65.068,0,0,0-6.233-5.279c0,.076-.369.305-.229.369s.1-.394.089-.458-.089-.064-.127,0c-1.794.509-4.49,3.816-5.393,4.757-3.74,3.6-6.474,6.513-11.3,7.467-3.816.763-8.777.789-9.782-4.058-1.374-6.564,7.352-8.9,12.911-8.9,4.338,0,9.019.254,13.394.585-.305-.229-.649-.471-.967-.674a107.986,107.986,0,0,0-13.521-7.39c0,.089-.191.394,0,.42s0-.445-.14-.5a1.272,1.272,0,0,0-.534-.191C95.592,242.511,92.247,245.055,91.242,245.7Z" transform="translate(-59.058 -216.739)" fill="#fff" opacity="0.5"/>
      </g>
      <path id="Path_47420" data-name="Path 47420" d="M411.454,146.03c-2.544-4.808-4.554-8.23-4.248-13.331.254-4.032,1.272-9.311,6.36-9.044,6.907.369,6.678,9.629,5.292,15.264-.852,3.485-2.277,8.268-3.536,11.842,1.374-2.391,2.709-4.948,3.905-7.479h0s0,.127.064-.089.712-1.552.814-1.819a55.967,55.967,0,0,0,1.272-7.7c.687-5.559.814-10.558,3.816-14.59,2.328-3.193,6.029-4.872,9.082-1.552,4.147,4.49-.623,11.066-4.427,15.264-2.684,2.926-6.36,6.627-9.375,9.451-1.615,3.511-3.485,6.971-5.3,10.176,1.552-.789,5.088-4.248,5.94-5,4.274-3.663,7.454-8.1,12.974-8.128,4.376,0,7.568,2.926,6.36,7.721-1.628,6.5-9.413,9.044-15.34,8.357a99.672,99.672,0,0,1-10.481-2.124,105.577,105.577,0,0,1-9.006,12.9,7.811,7.811,0,0,0-.522.636c1.654-.127,5.368-2.239,6.36-2.671,5.088-2.112,8.5-4.846,13.827-3.676,4.223.929,6.576,4.732,4.121,9.057-3.32,5.864-10.9,6.106-16.243,3.536-3.816-1.87-5.533-3.46-8.688-5.673a57.128,57.128,0,0,1-6.093,5.775c-2.366,1.654-5.47,2.735-8.052,4.172h0c1.768,1.272,6.551.229,7.95,0,5.253-.8,8.522-2.9,13.611-1.565,4.02,1.056,6.284,4.592,3.562,8.726-3.7,5.6-12.5,3.218-16.256.611a83.128,83.128,0,0,1-8.472-7.416c-1.7-1.45,0,.305-.432-.127s.28.064,0-.267c-3.562,1.844-7.39,3.549-10.825,5.5,1.5,1.132,6.284,1.73,7.5,2.022,5.152,1.208,9.235,1.272,12.974,4.566,2.964,2.646,3.816,6.894-.343,9.222-5.584,3.142-12.122-1.59-15.175-6.156a82.174,82.174,0,0,1-5.2-9.6c-4.121,2.391-8.306,4.668-11.168,8.535,1.425.916,5.546,1.514,6.729,1.806,5.215,1.272,9.667,1.9,13.318,5.431,2.9,2.786,4.21,6.983,0,9.324-5.673,3.155-11.83-2.061-15-6.6a83.289,83.289,0,0,1-5.33-9.731,66.857,66.857,0,0,0-7.848,16.434l-.547-.178a69.351,69.351,0,0,1,7.848-16.536c-.6-1.628-4.007-3.752-4.935-4.477-3.714-2.875-6.36-4.77-7.8-9.031-1.094-3.371-.776-7.9,3.6-8.306,5.928-.56,9.3,5.889,9.489,10.876.165,4.147-.6,7.123-.254,10.85,0,.293.14-.28.153-.216s-.127-.165-.064-.153.076.089.1.14c3.116-3.816,7.149-6.169,11.346-8.637-.369-1.654-3.562-4.376-4.338-5.215-3.244-3.46-6-5.864-6.6-10.354-.471-3.549.725-7.352,5.088-7.149,5.889.267,8.472,7.416,8.179,12.5a44.523,44.523,0,0,1-2.112,10.176c3.651-2.035,7.467-3.714,11.13-5.66-.267-1.565-2.646-4.783-3.205-5.737-2.544-4.236-4.872-7.467-4.643-12.135.178-3.689,1.565-8.014,6.22-7.3,6.36.979,6.64,9.845,5.584,15.035a39.822,39.822,0,0,1-3.383,9.934,74.413,74.413,0,0,0,7.327-3.816,63.382,63.382,0,0,0,5.953-5.6c-.076,0-.267-.394-.343-.267s.382.153.445.14a.089.089,0,0,0,0-.114c-.293-1.844-3.345-4.91-4.109-5.9-3.155-4.121-5.762-7.161-6.169-12.059-.318-3.88.216-8.8,5.088-9.273,6.678-.623,8.026,8.319,7.416,13.827-.483,4.325-1.272,8.9-2.086,13.254.254-.28.534-.585.776-.89a106.844,106.844,0,0,0,8.9-12.606c-.076,0-.356-.242-.407-.1s.445,0,.509-.076a1.2,1.2,0,0,0,.254-.509C414.176,150.7,412,147.086,411.454,146.03Z" transform="translate(21.157 -115.727)" fill="#70ab8d"/>
      <path id="Path_47421" data-name="Path 47421" d="M411.454,146.03c-2.544-4.808-4.554-8.23-4.248-13.331.254-4.032,1.272-9.311,6.36-9.044,6.907.369,6.678,9.629,5.292,15.264-.852,3.485-2.277,8.268-3.536,11.842,1.374-2.391,2.709-4.948,3.905-7.479h0s0,.127.064-.089.712-1.552.814-1.819a55.967,55.967,0,0,0,1.272-7.7c.687-5.559.814-10.558,3.816-14.59,2.328-3.193,6.029-4.872,9.082-1.552,4.147,4.49-.623,11.066-4.427,15.264-2.684,2.926-6.36,6.627-9.375,9.451-1.615,3.511-3.485,6.971-5.3,10.176,1.552-.789,5.088-4.248,5.94-5,4.274-3.663,7.454-8.1,12.974-8.128,4.376,0,7.568,2.926,6.36,7.721-1.628,6.5-9.413,9.044-15.34,8.357a99.672,99.672,0,0,1-10.481-2.124,105.577,105.577,0,0,1-9.006,12.9,7.811,7.811,0,0,0-.522.636c1.654-.127,5.368-2.239,6.36-2.671,5.088-2.112,8.5-4.846,13.827-3.676,4.223.929,6.576,4.732,4.121,9.057-3.32,5.864-10.9,6.106-16.243,3.536-3.816-1.87-5.533-3.46-8.688-5.673a57.128,57.128,0,0,1-6.093,5.775c-2.366,1.654-5.47,2.735-8.052,4.172h0c1.768,1.272,6.551.229,7.95,0,5.253-.8,8.522-2.9,13.611-1.565,4.02,1.056,6.284,4.592,3.562,8.726-3.7,5.6-12.5,3.218-16.256.611a83.128,83.128,0,0,1-8.472-7.416c-1.7-1.45,0,.305-.432-.127s.28.064,0-.267c-3.562,1.844-7.39,3.549-10.825,5.5,1.5,1.132,6.284,1.73,7.5,2.022,5.152,1.208,9.235,1.272,12.974,4.566,2.964,2.646,3.816,6.894-.343,9.222-5.584,3.142-12.122-1.59-15.175-6.156a82.174,82.174,0,0,1-5.2-9.6c-4.121,2.391-8.306,4.668-11.168,8.535,1.425.916,5.546,1.514,6.729,1.806,5.215,1.272,9.667,1.9,13.318,5.431,2.9,2.786,4.21,6.983,0,9.324-5.673,3.155-11.83-2.061-15-6.6a83.289,83.289,0,0,1-5.33-9.731,66.857,66.857,0,0,0-7.848,16.434l-.547-.178a69.351,69.351,0,0,1,7.848-16.536c-.6-1.628-4.007-3.752-4.935-4.477-3.714-2.875-6.36-4.77-7.8-9.031-1.094-3.371-.776-7.9,3.6-8.306,5.928-.56,9.3,5.889,9.489,10.876.165,4.147-.6,7.123-.254,10.85,0,.293.14-.28.153-.216s-.127-.165-.064-.153.076.089.1.14c3.116-3.816,7.149-6.169,11.346-8.637-.369-1.654-3.562-4.376-4.338-5.215-3.244-3.46-6-5.864-6.6-10.354-.471-3.549.725-7.352,5.088-7.149,5.889.267,8.472,7.416,8.179,12.5a44.523,44.523,0,0,1-2.112,10.176c3.651-2.035,7.467-3.714,11.13-5.66-.267-1.565-2.646-4.783-3.205-5.737-2.544-4.236-4.872-7.467-4.643-12.135.178-3.689,1.565-8.014,6.22-7.3,6.36.979,6.64,9.845,5.584,15.035a39.822,39.822,0,0,1-3.383,9.934,74.413,74.413,0,0,0,7.327-3.816,63.382,63.382,0,0,0,5.953-5.6c-.076,0-.267-.394-.343-.267s.382.153.445.14a.089.089,0,0,0,0-.114c-.293-1.844-3.345-4.91-4.109-5.9-3.155-4.121-5.762-7.161-6.169-12.059-.318-3.88.216-8.8,5.088-9.273,6.678-.623,8.026,8.319,7.416,13.827-.483,4.325-1.272,8.9-2.086,13.254.254-.28.534-.585.776-.89a106.844,106.844,0,0,0,8.9-12.606c-.076,0-.356-.242-.407-.1s.445,0,.509-.076a1.2,1.2,0,0,0,.254-.509C414.176,150.7,412,147.086,411.454,146.03Z" transform="translate(21.157 -115.727)" fill="#70ab8d" opacity="0.5"/>
      <g id="Group_1256" data-name="Group 1256" transform="translate(375.118)" opacity="0.5">
        <path id="Path_47422" data-name="Path 47422" d="M411.454,146.03c-2.544-4.808-4.554-8.23-4.248-13.331.254-4.032,1.272-9.311,6.36-9.044,6.907.369,6.678,9.629,5.292,15.264-.852,3.485-2.277,8.268-3.536,11.842,1.374-2.391,2.709-4.948,3.905-7.479h0s0,.127.064-.089.712-1.552.814-1.819a55.967,55.967,0,0,0,1.272-7.7c.687-5.559.814-10.558,3.816-14.59,2.328-3.193,6.029-4.872,9.082-1.552,4.147,4.49-.623,11.066-4.427,15.264-2.684,2.926-6.36,6.627-9.375,9.451-1.615,3.511-3.485,6.971-5.3,10.176,1.552-.789,5.088-4.248,5.94-5,4.274-3.663,7.454-8.1,12.974-8.128,4.376,0,7.568,2.926,6.36,7.721-1.628,6.5-9.413,9.044-15.34,8.357a99.672,99.672,0,0,1-10.481-2.124,105.577,105.577,0,0,1-9.006,12.9,7.811,7.811,0,0,0-.522.636c1.654-.127,5.368-2.239,6.36-2.671,5.088-2.112,8.5-4.846,13.827-3.676,4.223.929,6.576,4.732,4.121,9.057-3.32,5.864-10.9,6.106-16.243,3.536-3.816-1.87-5.533-3.46-8.688-5.673a57.128,57.128,0,0,1-6.093,5.775c-2.366,1.654-5.47,2.735-8.052,4.172h0c1.768,1.272,6.551.229,7.95,0,5.253-.8,8.522-2.9,13.611-1.565,4.02,1.056,6.284,4.592,3.562,8.726-3.7,5.6-12.5,3.218-16.256.611a83.128,83.128,0,0,1-8.472-7.416c-1.7-1.45,0,.305-.432-.127s.28.064,0-.267c-3.562,1.844-7.39,3.549-10.825,5.5,1.5,1.132,6.284,1.73,7.5,2.022,5.152,1.208,9.235,1.272,12.974,4.566,2.964,2.646,3.816,6.894-.343,9.222-5.584,3.142-12.122-1.59-15.175-6.156a82.174,82.174,0,0,1-5.2-9.6c-4.121,2.391-8.306,4.668-11.168,8.535,1.425.916,5.546,1.514,6.729,1.806,5.215,1.272,9.667,1.9,13.318,5.431,2.9,2.786,4.21,6.983,0,9.324-5.673,3.155-11.83-2.061-15-6.6a83.289,83.289,0,0,1-5.33-9.731,66.857,66.857,0,0,0-7.848,16.434l-.547-.178a69.351,69.351,0,0,1,7.848-16.536c-.6-1.628-4.007-3.752-4.935-4.477-3.714-2.875-6.36-4.77-7.8-9.031-1.094-3.371-.776-7.9,3.6-8.306,5.928-.56,9.3,5.889,9.489,10.876.165,4.147-.6,7.123-.254,10.85,0,.293.14-.28.153-.216s-.127-.165-.064-.153.076.089.1.14c3.116-3.816,7.149-6.169,11.346-8.637-.369-1.654-3.562-4.376-4.338-5.215-3.244-3.46-6-5.864-6.6-10.354-.471-3.549.725-7.352,5.088-7.149,5.889.267,8.472,7.416,8.179,12.5a44.523,44.523,0,0,1-2.112,10.176c3.651-2.035,7.467-3.714,11.13-5.66-.267-1.565-2.646-4.783-3.205-5.737-2.544-4.236-4.872-7.467-4.643-12.135.178-3.689,1.565-8.014,6.22-7.3,6.36.979,6.64,9.845,5.584,15.035a39.822,39.822,0,0,1-3.383,9.934,74.413,74.413,0,0,0,7.327-3.816,63.382,63.382,0,0,0,5.953-5.6c-.076,0-.267-.394-.343-.267s.382.153.445.14a.089.089,0,0,0,0-.114c-.293-1.844-3.345-4.91-4.109-5.9-3.155-4.121-5.762-7.161-6.169-12.059-.318-3.88.216-8.8,5.088-9.273,6.678-.623,8.026,8.319,7.416,13.827-.483,4.325-1.272,8.9-2.086,13.254.254-.28.534-.585.776-.89a106.844,106.844,0,0,0,8.9-12.606c-.076,0-.356-.242-.407-.1s.445,0,.509-.076a1.2,1.2,0,0,0,.254-.509C414.176,150.7,412,147.086,411.454,146.03Z" transform="translate(-353.962 -115.727)" fill="#fff"/>
        <path id="Path_47423" data-name="Path 47423" d="M411.454,146.03c-2.544-4.808-4.554-8.23-4.248-13.331.254-4.032,1.272-9.311,6.36-9.044,6.907.369,6.678,9.629,5.292,15.264-.852,3.485-2.277,8.268-3.536,11.842,1.374-2.391,2.709-4.948,3.905-7.479h0s0,.127.064-.089.712-1.552.814-1.819a55.967,55.967,0,0,0,1.272-7.7c.687-5.559.814-10.558,3.816-14.59,2.328-3.193,6.029-4.872,9.082-1.552,4.147,4.49-.623,11.066-4.427,15.264-2.684,2.926-6.36,6.627-9.375,9.451-1.615,3.511-3.485,6.971-5.3,10.176,1.552-.789,5.088-4.248,5.94-5,4.274-3.663,7.454-8.1,12.974-8.128,4.376,0,7.568,2.926,6.36,7.721-1.628,6.5-9.413,9.044-15.34,8.357a99.672,99.672,0,0,1-10.481-2.124,105.577,105.577,0,0,1-9.006,12.9,7.811,7.811,0,0,0-.522.636c1.654-.127,5.368-2.239,6.36-2.671,5.088-2.112,8.5-4.846,13.827-3.676,4.223.929,6.576,4.732,4.121,9.057-3.32,5.864-10.9,6.106-16.243,3.536-3.816-1.87-5.533-3.46-8.688-5.673a57.128,57.128,0,0,1-6.093,5.775c-2.366,1.654-5.47,2.735-8.052,4.172h0c1.768,1.272,6.551.229,7.95,0,5.253-.8,8.522-2.9,13.611-1.565,4.02,1.056,6.284,4.592,3.562,8.726-3.7,5.6-12.5,3.218-16.256.611a83.128,83.128,0,0,1-8.472-7.416c-1.7-1.45,0,.305-.432-.127s.28.064,0-.267c-3.562,1.844-7.39,3.549-10.825,5.5,1.5,1.132,6.284,1.73,7.5,2.022,5.152,1.208,9.235,1.272,12.974,4.566,2.964,2.646,3.816,6.894-.343,9.222-5.584,3.142-12.122-1.59-15.175-6.156a82.174,82.174,0,0,1-5.2-9.6c-4.121,2.391-8.306,4.668-11.168,8.535,1.425.916,5.546,1.514,6.729,1.806,5.215,1.272,9.667,1.9,13.318,5.431,2.9,2.786,4.21,6.983,0,9.324-5.673,3.155-11.83-2.061-15-6.6a83.289,83.289,0,0,1-5.33-9.731,66.857,66.857,0,0,0-7.848,16.434l-.547-.178a69.351,69.351,0,0,1,7.848-16.536c-.6-1.628-4.007-3.752-4.935-4.477-3.714-2.875-6.36-4.77-7.8-9.031-1.094-3.371-.776-7.9,3.6-8.306,5.928-.56,9.3,5.889,9.489,10.876.165,4.147-.6,7.123-.254,10.85,0,.293.14-.28.153-.216s-.127-.165-.064-.153.076.089.1.14c3.116-3.816,7.149-6.169,11.346-8.637-.369-1.654-3.562-4.376-4.338-5.215-3.244-3.46-6-5.864-6.6-10.354-.471-3.549.725-7.352,5.088-7.149,5.889.267,8.472,7.416,8.179,12.5a44.523,44.523,0,0,1-2.112,10.176c3.651-2.035,7.467-3.714,11.13-5.66-.267-1.565-2.646-4.783-3.205-5.737-2.544-4.236-4.872-7.467-4.643-12.135.178-3.689,1.565-8.014,6.22-7.3,6.36.979,6.64,9.845,5.584,15.035a39.822,39.822,0,0,1-3.383,9.934,74.413,74.413,0,0,0,7.327-3.816,63.382,63.382,0,0,0,5.953-5.6c-.076,0-.267-.394-.343-.267s.382.153.445.14a.089.089,0,0,0,0-.114c-.293-1.844-3.345-4.91-4.109-5.9-3.155-4.121-5.762-7.161-6.169-12.059-.318-3.88.216-8.8,5.088-9.273,6.678-.623,8.026,8.319,7.416,13.827-.483,4.325-1.272,8.9-2.086,13.254.254-.28.534-.585.776-.89a106.844,106.844,0,0,0,8.9-12.606c-.076,0-.356-.242-.407-.1s.445,0,.509-.076a1.2,1.2,0,0,0,.254-.509C414.176,150.7,412,147.086,411.454,146.03Z" transform="translate(-353.962 -115.727)" fill="#fff" opacity="0.5"/>
      </g>
    </g>
    <g id="freepik--device-4--inject-9" transform="translate(228.694 119.441)">
      <path id="Path_47424" data-name="Path 47424" d="M375.518,355.255V331.29H303.447v23.965a34.344,34.344,0,0,1-7.632,21.535l-3.155,3.905h93.67l-3.155-3.905A34.229,34.229,0,0,1,375.518,355.255Z" transform="translate(-194.627 -126.128)" fill="#fff"/>
      <g id="Group_1257" data-name="Group 1257" transform="translate(98.033 205.162)" clip-path="url(#clip-path)">
        <path id="Path_47425" data-name="Path 47425" d="M297.66,352.172h80.925a34.089,34.089,0,0,1-4.427-16.778V311.43H302.087v23.965A34.229,34.229,0,0,1,297.66,352.172Z" transform="translate(-291.3 -336.692)" fill="#263238"/>
      </g>
      <path id="Path_47427" data-name="Path 47427" d="M375.518,355.255V331.29H303.447v23.965a34.344,34.344,0,0,1-7.632,21.535l-3.155,3.905h93.67l-3.155-3.905A34.229,34.229,0,0,1,375.518,355.255Z" transform="translate(-194.627 -126.128)" fill="none" stroke="#263238" stroke-linecap="round" stroke-linejoin="round" stroke-width="1"/>
      <rect id="Rectangle_9799" data-name="Rectangle 9799" width="289.699" height="212.717" rx="8.48" transform="translate(0)" fill="#263238" stroke="#263238" stroke-linecap="round" stroke-linejoin="round" stroke-width="1"/>
      <path id="Path_47428" data-name="Path 47428" d="M215.59,311.24h289.7v22.273A10.787,10.787,0,0,1,494.5,344.3H226.389A10.787,10.787,0,0,1,215.6,333.513V311.24Z" transform="translate(-215.59 -131.582)" fill="#fff" stroke="#263238" stroke-linecap="round" stroke-linejoin="round" stroke-width="1"/>
      <rect id="Rectangle_9800" data-name="Rectangle 9800" width="260.557" height="150.287" transform="translate(14.577 13.229)" fill="#263238"/>
      <g id="Group_1258" data-name="Group 1258" transform="translate(14.577 13.229)" clip-path="url(#clip-path-2)">
        <path id="Path_47429" data-name="Path 47429" d="M470.52,215.73,289.87,321.077H470.52Z" transform="translate(-209.963 -170.79)" fill="#fff" opacity="0.3"/>
      </g>
      <rect id="Rectangle_9802" data-name="Rectangle 9802" width="260.557" height="150.287" transform="translate(14.577 13.229)" fill="none" stroke="#fff" stroke-linecap="round" stroke-linejoin="round" stroke-width="1"/>
      <rect id="Rectangle_9803" data-name="Rectangle 9803" width="93.721" height="4.274" transform="translate(98.008 254.566)" fill="#263238" stroke="#263238" stroke-linecap="round" stroke-linejoin="round" stroke-width="1"/>
    </g>
    <g id="freepik--character-2--inject-9" transform="translate(372.367 193.245)">
      <path id="Path_47430" data-name="Path 47430" d="M344.517,240.714s-4.274-2.544-3.994-6.7S350.7,226.8,358.878,228.5,370.262,240.5,369.206,246.2s-.827,9.68,4.337,13.827,14.208,16.536,9.858,22.12-9.235,7.276-5.94,12.122,3.6,10.176-1.412,13.432a14.59,14.59,0,0,1-15.887.725c-5.241-3-10.176-12.9-8.2-19.856s-1.386-27.984-2.188-35.451S347.773,241.325,344.517,240.714Z" transform="translate(-325.284 -228.021)" fill="#70ab8d"/>
      <path id="Path_47431" data-name="Path 47431" d="M347.687,276.023l-1.984,8.9-12.224,20.149-2.977,2.3a40.546,40.546,0,0,0-1.272,5.292c0,.992.661.992,1.654.661s1.272-1.654,2.315-1.984,3.18-1.7,3.511-3.027,1.387-4.35,1.387-4.35l14.539-17.07s1.654-10.558-.992-12.873S347.687,276.023,347.687,276.023Z" transform="translate(-328.352 -215.694)" fill="#fff" stroke="#263238" stroke-linecap="round" stroke-linejoin="round" stroke-width="1"/>
      <path id="Path_47432" data-name="Path 47432" d="M345.228,276.023l-1.984,8.9-4.974,8.192,3.943,3.1,7.963-9.324s1.654-10.558-.992-12.873S345.228,276.023,345.228,276.023Z" transform="translate(-325.893 -215.694)" fill="#70ab8d" stroke="#263238" stroke-linecap="round" stroke-linejoin="round" stroke-width="1"/>
      <path id="Path_47433" data-name="Path 47433" d="M346.844,250.9a10.316,10.316,0,0,1,1.743,5.889c-.216,3.116-5.368,8.535-7.352,13.356s-.89,8.179.305,10.074,3.282,5.012,3.333,6.665.509,4.656.509,4.656,5.47,2.022,16.765-1.654c0,0,2.887-25.211,2.786-28.506s-4.388-5.749-6.5-6.22-4.49-1.959-5.2-3.663a15.427,15.427,0,0,1-.929-3.193Z" transform="translate(-325.385 -222.503)" fill="#70ab8d" stroke="#263238" stroke-linecap="round" stroke-linejoin="round" stroke-width="1"/>
      <path id="Path_47434" data-name="Path 47434" d="M355.923,254.772a7.136,7.136,0,0,1-3.956-3.269,15.428,15.428,0,0,1-.929-3.193l-5.457,2.544a10.316,10.316,0,0,1,1.743,5.889c-.1,1.425-1.272,3.32-2.544,5.419.814,2.137,1.73,2.671,4.757.776A14.628,14.628,0,0,0,355.923,254.772Z" transform="translate(-324.123 -222.503)" fill="#fff" stroke="#263238" stroke-linecap="round" stroke-linejoin="round" stroke-width="1"/>
      <path id="Path_47435" data-name="Path 47435" d="M347.98,233.182s-3.625,2.544-4.388,4.884-3.282,7.81-3.027,9.82.242,8.23,2.544,8.993,10.252-3.5,11.6-5.61a15.874,15.874,0,0,0,.5-13.191C353.042,232.507,349.124,231.248,347.98,233.182Z" transform="translate(-325.274 -226.849)" fill="#fff" stroke="#263238" stroke-linecap="round" stroke-linejoin="round" stroke-width="1"/>
      <path id="Path_47436" data-name="Path 47436" d="M345.88,231.449s4.465,4.91,4.656,10.927-2.659,12.44,2.226,17.172,13.789.356,13.789.356a17.731,17.731,0,0,1-5.839-11.219c-.534-6.843-1.7-13.14-4.757-15.34S347.126,230.736,345.88,231.449Z" transform="translate(-323.823 -227.177)" fill="#70ab8d"/>
      <path id="Path_47437" data-name="Path 47437" d="M347.69,231.188a6.513,6.513,0,0,1,7.072,4.007c2.112,4.948-1.654,14.374.471,19.322s16.015,8.484,16.256,17.439-7.072,10.6-6.6,16.536,6.831,6.36,7.072,11.791a7.543,7.543,0,0,1-4.248,7.3" transform="translate(-323.331 -227.183)" fill="none" stroke="#fff" stroke-linecap="round" stroke-linejoin="round" stroke-width="0.5"/>
      <path id="Path_47438" data-name="Path 47438" d="M350.28,230.66s9.426-2.112,12.491,6.36-3.536,16.74-.941,20.276,14.132,8.472,15.086,16.956-10.609,9.9-8.014,15.557,9.654,8.9,6.589,13.661" transform="translate(-322.627 -227.367)" fill="none" stroke="#fff" stroke-linecap="round" stroke-linejoin="round" stroke-width="0.5"/>
      <path id="Path_47439" data-name="Path 47439" d="M346.751,366.073a22.678,22.678,0,0,1-1.539,5.66c-.941,1.59-4.083,4.185-4.121,4.834s.432.852,1.272.916a10.582,10.582,0,0,0,5.737-2.2,18.556,18.556,0,0,0,2.544-3.816c.547-.623,2.544-1.272,2.837-2.773s-1.7-4.083-1.7-4.083Z" transform="translate(-325.127 -190.869)" fill="#70ab8d" stroke="#263238" stroke-linecap="round" stroke-linejoin="round" stroke-width="1"/>
      <path id="Path_47440" data-name="Path 47440" d="M374.084,365.568a22.489,22.489,0,0,1-1.552,5.673c-.929,1.59-4.07,4.172-4.121,4.834s.445.852,1.272.9a10.444,10.444,0,0,0,5.762-2.239,18.547,18.547,0,0,0,2.544-3.816c.534-.623,2.544-1.272,2.824-2.773s-1.692-4.07-1.692-4.07Z" transform="translate(-317.696 -191.013)" fill="#70ab8d" stroke="#263238" stroke-linecap="round" stroke-linejoin="round" stroke-width="1"/>
      <path id="Path_47441" data-name="Path 47441" d="M378.1,353.491c-2.3-6.449-5.749-11.766-6.36-15.607-1.565-10.329.84-23.812-1.5-34.09-1.514-6.589-3.1-17.579-7.937-22.743,0,0-5.622,2.747-16.765,1.654,0,0-5.635,24.346-6.042,37.677s4.465,46.428,5.6,53.462,2.1,14.984,2.1,14.984l5.088-1.476s2.391-16.129,1.972-26.407c-.534-13.585-1.374-25.669-.547-30.528s.471-17.325.471-17.325,1.577,8,2.544,12.211c0,0,1.628,14.234,3.053,18.139s22.26,44.52,22.26,44.52l4.986-1.272S380.4,359.851,378.1,353.491Z" transform="translate(-325.567 -213.597)" fill="#263238" stroke="#263238" stroke-linecap="round" stroke-linejoin="round" stroke-width="1"/>
      <path id="Path_47442" data-name="Path 47442" d="M356.313,268l5.711,8.637,5.6,9.044S364.4,298,362.406,304.607l5.61,1.87c9.209-9.922,7.632-21.1,8.179-21.955s-9.985-19.08-9.985-19.08-1.437-7.365-6.792-9.566-6.017,1.272-6.017,1.272" transform="translate(-321.778 -220.644)" fill="#70ab8d" stroke="#263238" stroke-linecap="round" stroke-linejoin="round" stroke-width="1"/>
      <path id="Path_47443" data-name="Path 47443" d="M362.7,294l-4.834,11.117a8.907,8.907,0,0,0-3,1.119c-.623.636-1.094,2.073-2.188,3.18s.649,2.544.649,2.544l1.565-2.226-1.539,5.381a5.279,5.279,0,0,0,2.2-1.272,27.753,27.753,0,0,1,3.943-2.722c1.883-1.272,2.175-5.393,2.175-5.393l6.64-9.845Z" transform="translate(-322.073 -210.075)" fill="#fff" stroke="#263238" stroke-linecap="round" stroke-linejoin="round" stroke-width="1"/>
      <path id="Path_47444" data-name="Path 47444" d="M333.666,298.3l-3.549,1.068a23.393,23.393,0,0,0-1.577,4.554c0,.992,1.972.394,1.972-.2a4.237,4.237,0,0,1,.2-1.183,2.887,2.887,0,0,0,3.167-1.781" transform="translate(-328.54 -208.905)" fill="#fff" stroke="#263238" stroke-linecap="round" stroke-linejoin="round" stroke-width="1"/>
    </g>
    <g id="freepik--device-3--inject-9" transform="translate(114.302 214.218)">
      <path id="Path_47445" data-name="Path 47445" d="M154.352,244.51H363.19a13.305,13.305,0,0,1,13.293,13.343V397.329H141.06V257.853a13.305,13.305,0,0,1,13.292-13.343Z" transform="translate(-121.471 -244.51)" fill="#fff" stroke="#263238" stroke-linecap="round" stroke-linejoin="round" stroke-width="1"/>
      <rect id="Rectangle_9804" data-name="Rectangle 9804" width="216.33" height="122.252" transform="translate(29.129 11.944)" fill="#263238"/>
      <g id="Group_1259" data-name="Group 1259" transform="translate(29.129 11.944)" clip-path="url(#clip-path-3)">
        <path id="Path_47446" data-name="Path 47446" d="M356.893,372.325V267.97L177.96,372.325Z" transform="translate(-140.563 -250.073)" fill="#fff" opacity="0.3"/>
      </g>
      <rect id="Rectangle_9806" data-name="Rectangle 9806" width="216.33" height="122.252" transform="translate(29.129 11.944)" fill="none" stroke="#263238" stroke-linecap="round" stroke-linejoin="round" stroke-width="1"/>
      <rect id="Rectangle_9807" data-name="Rectangle 9807" width="161.799" height="7.975" transform="translate(56.935 145.466)" fill="#263238" stroke="#263238" stroke-linecap="round" stroke-linejoin="round" stroke-width="1"/>
      <rect id="Rectangle_9808" data-name="Rectangle 9808" width="161.799" height="4.134" transform="translate(56.935 149.295)" fill="#fff" stroke="#263238" stroke-linecap="round" stroke-linejoin="round" stroke-width="1"/>
      <path id="Path_47447" data-name="Path 47447" d="M126.09,368.85s2.658,3.244,10.621,5.9H390.044s5.915-1.476,8.561-5.61Z" transform="translate(-125.543 -210.689)" fill="#263238" stroke="#263238" stroke-linecap="round" stroke-linejoin="round" stroke-width="1"/>
      <rect id="Rectangle_9809" data-name="Rectangle 9809" width="273.634" height="6.207" rx="1.89" transform="translate(0 152.335)" fill="#fff" stroke="#263238" stroke-linecap="round" stroke-linejoin="round" stroke-width="1"/>
      <circle id="Ellipse_1057" data-name="Ellipse 1057" cx="2.061" cy="2.061" r="2.061" transform="translate(135.189 2.569)" fill="#263238"/>
      <path id="Path_47448" data-name="Path 47448" d="M142.925,282.234h0a.585.585,0,0,1-.585-.585V264.515a.585.585,0,0,1,.585-.585h0a.6.6,0,0,1,.6.585v17.134a.6.6,0,0,1-.6.585Z" transform="translate(-121.123 -239.228)" fill="#263238" stroke="#fff" stroke-miterlimit="10" stroke-width="0.692"/>
    </g>
    <g id="freepik--character-1--inject-9" transform="translate(49.197 188.894)">
      <path id="Path_47449" data-name="Path 47449" d="M85.563,366.53l7.708,6.5v1.45H79.05l.992-6.983Z" transform="translate(-73.233 -185.995)" fill="#aa43d1" stroke="#263238" stroke-linecap="round" stroke-linejoin="round" stroke-width="1"/>
      <path id="Path_47450" data-name="Path 47450" d="M97.237,233.612s1-2.01,1.832-.165a8.688,8.688,0,0,1,.165,5.826c-.5.84-2.544,2-2.544,1.17S97.237,233.612,97.237,233.612Z" transform="translate(-68.435 -222.407)" fill="#fff" stroke="#263238" stroke-linecap="round" stroke-linejoin="round" stroke-width="1"/>
      <path id="Path_47451" data-name="Path 47451" d="M84.822,236.6s-1.514-1.641-1.806.356a8.9,8.9,0,0,0,1.476,5.648c.712.661,2.964,1.272,2.722.42S84.822,236.6,84.822,236.6Z" transform="translate(-72.161 -221.511)" fill="#fff" stroke="#263238" stroke-linecap="round" stroke-linejoin="round" stroke-width="1"/>
      <path id="Path_47452" data-name="Path 47452" d="M118.231,246l-16.93,2.213s-5.088.382-7.263.382S77.4,252.131,77.4,252.131s5.749,17.363,5.749,18.864,7.021,20.454,7.021,20.454,0,3.727,1.119,5.024,11.359,2.239,16.943.929,7.263-4.274,7.632-5.393-.076-8,.1-10.977C116.183,277.647,117.468,252.653,118.231,246Z" transform="translate(-73.681 -218.78)" fill="#70ab8d" stroke="#263238" stroke-linecap="round" stroke-linejoin="round" stroke-width="1"/>
      <path id="Path_47453" data-name="Path 47453" d="M95.794,244.85a38.151,38.151,0,0,1,3.918,2.417c.56.56,3.345,10.062,3.345,10.062L97.1,253.945l-6.525,5.215s-2.417-7.072-2.226-9.68a6.36,6.36,0,0,1,2.608-4.287Z" transform="translate(-70.705 -219.093)" fill="#fff" stroke="#263238" stroke-linecap="round" stroke-linejoin="round" stroke-width="1"/>
      <path id="Path_47454" data-name="Path 47454" d="M96.183,244.26l.191,14.717-6.7-13.407Z" transform="translate(-70.344 -219.253)" fill="#fff" stroke="#263238" stroke-linecap="round" stroke-linejoin="round" stroke-width="1"/>
      <path id="Path_47455" data-name="Path 47455" d="M84.58,240.022c1.081,6.144,6.169,13.992,10.634,13.191s6.589-9.883,5.508-16.027S95.164,226.691,90.7,227.48,83.5,233.865,84.58,240.022Z" transform="translate(-71.793 -223.843)" fill="#fff" stroke="#263238" stroke-linecap="round" stroke-linejoin="round" stroke-width="1"/>
      <path id="Path_47456" data-name="Path 47456" d="M101.455,239.559s-1.768.56-1.526-.1a7.149,7.149,0,0,0-.483-2.735,2.977,2.977,0,0,1-1.132-1.119c-.522-.852.165-2.29,0-3.384s-5.457,2.086-6.36,2.251-6.246-.229-6.246-.229,1.488,3.129,1,3.587-.56,2.162-.56,2.162a16.892,16.892,0,0,1,.967,3.409c-.076.572-1.107,1.132-1.386.611s-1.107-5.253-1.107-5.253-1.272.407-1.7-2.15,0-8.459,2.391-10,8.192-2.544,10.787-1.7,5.266,6.36,5.088,8.51A38.975,38.975,0,0,0,101.455,239.559Z" transform="translate(-72.22 -224.601)" fill="#263238" stroke="#263238" stroke-linecap="round" stroke-linejoin="round" stroke-width="1"/>
      <path id="Path_47457" data-name="Path 47457" d="M93.271,371.776v1.45H79.05l.293-2.086H92.508Z" transform="translate(-73.233 -184.741)" fill="#fff" stroke="#263238" stroke-linecap="round" stroke-linejoin="round" stroke-width="1"/>
      <path id="Path_47458" data-name="Path 47458" d="M112.638,366.06l8.993,7.1v1.45H106.52l.992-8.319Z" transform="translate(-65.761 -186.123)" fill="#aa43d1" stroke="#263238" stroke-linecap="round" stroke-linejoin="round" stroke-width="1"/>
      <path id="Path_47459" data-name="Path 47459" d="M121.631,371.776v1.45H106.52l.293-2.086h14.056Z" transform="translate(-65.761 -184.741)" fill="#fff" stroke="#263238" stroke-linecap="round" stroke-linejoin="round" stroke-width="1"/>
      <path id="Path_47460" data-name="Path 47460" d="M115.213,282.19s4.02,21.891,5.355,31.457,2.455,35.832,2.455,45.411-3.116,29.816-3.116,29.816l-5.088.229s-4.452-52.966-5.788-56.973-4.452-15.582-4.452-15.582-3.562,28.709-4.007,32.042-15.429,41.4-15.429,41.4l-5.342.445s8.675-42.294,8.9-45.182-1.781-43.185-.661-50.3,2.544-9.54,2.544-9.54S106.4,287.634,115.213,282.19Z" transform="translate(-73.029 -208.936)" fill="#263238" stroke="#263238" stroke-linecap="round" stroke-linejoin="round" stroke-width="1"/>
      <path id="Path_47461" data-name="Path 47461" d="M78.2,250.84l-3.7,35.387a3.269,3.269,0,0,0,2.048,3.371l30.808,12.237.331-4.617L84.224,281.572l1.018-8.383Z" transform="translate(-74.477 -217.464)" fill="#70ab8d" stroke="#263238" stroke-linecap="round" stroke-linejoin="round" stroke-width="1"/>
      <path id="Path_47462" data-name="Path 47462" d="M100.6,287.583l4.287-1.323,4.617,2.646v4.617l-6.271-.331-2.709-1.781Z" transform="translate(-67.393 -207.829)" fill="#fff" stroke="#263238" stroke-linecap="round" stroke-linejoin="round" stroke-width="1"/>
      <path id="Path_47463" data-name="Path 47463" d="M109.772,246l27.437,17.058-6.589,4.007-22.12-4.528S108.818,252.169,109.772,246Z" transform="translate(-65.222 -218.78)" fill="#70ab8d" stroke="#263238" stroke-linecap="round" stroke-linejoin="round" stroke-width="1"/>
      <path id="Path_47464" data-name="Path 47464" d="M125.89,264.022a51.123,51.123,0,0,0,10.074,4.007c3.969.8,17.6,1.844,17.6,1.844l2.3-3.816s-13.394-4.783-18.062-5.915-9.883-2.862-9.883-2.862" transform="translate(-60.492 -215.712)" fill="#70ab8d" stroke="#263238" stroke-linecap="round" stroke-linejoin="round" stroke-width="1"/>
      <path id="Path_47465" data-name="Path 47465" d="M149.95,264.368s2.976-1.183,3.816-.8,6.653,4.566,6.653,4.566.623,2.01-.674,2.8-4.8,0-5.571.127-6.513-2.875-6.513-2.875Z" transform="translate(-54.57 -214.023)" fill="#fff" stroke="#263238" stroke-linecap="round" stroke-linejoin="round" stroke-width="1"/>
      <path id="Path_47466" data-name="Path 47466" d="M153.087,263.55l4.07,3.816s.852,1.87-.687,1.272a15.718,15.718,0,0,1-3.1-1.679l-2.124.979-1.132.089" transform="translate(-53.904 -214.006)" fill="#fff" stroke="#263238" stroke-linecap="round" stroke-linejoin="round" stroke-width="1"/>
    </g>
    <g id="freepik--device-2--inject-9" transform="translate(88.735 243.78)">
      <rect id="Rectangle_9810" data-name="Rectangle 9810" width="84.334" height="134.502" rx="11.18" transform="translate(84.334 134.502) rotate(180)" fill="#fff" stroke="#263238" stroke-linecap="round" stroke-linejoin="round" stroke-width="1"/>
      <rect id="Rectangle_9811" data-name="Rectangle 9811" width="74.654" height="125.331" rx="7.39" transform="translate(4.834 4.579)" fill="#263238"/>
      <g id="Group_1260" data-name="Group 1260" transform="translate(4.834 4.579)" clip-path="url(#clip-path-4)">
        <path id="Path_47467" data-name="Path 47467" d="M109.36,349.5v28.671a9.082,9.082,0,0,0,9.082,9.082h56.49a9.069,9.069,0,0,0,9.082-9.082V306Z" transform="translate(-109.36 -261.925)" fill="#fff" opacity="0.3"/>
      </g>
      <rect id="Rectangle_9813" data-name="Rectangle 9813" width="74.654" height="125.331" rx="7.39" transform="translate(4.834 4.579)" fill="none" stroke="#263238" stroke-linecap="round" stroke-linejoin="round" stroke-width="1"/>
      <path id="Path_47468" data-name="Path 47468" d="M171.25,356.9v4.032a.394.394,0,0,0,.382.394h0a.394.394,0,0,0,.394-.394v-3.994a.382.382,0,0,0-.394-.382h0A.382.382,0,0,0,171.25,356.9Z" transform="translate(-87.692 -243.593)" fill="#263238" stroke="#263238" stroke-linecap="round" stroke-linejoin="round" stroke-width="1"/>
      <path id="Path_47469" data-name="Path 47469" d="M171.25,344.851v8.23a.369.369,0,0,0,.382.331h0a.369.369,0,0,0,.394-.331v-8.23a.369.369,0,0,0-.394-.331h0a.369.369,0,0,0-.382.331Z" transform="translate(-87.692 -246.868)" fill="#263238" stroke="#263238" stroke-linecap="round" stroke-linejoin="round" stroke-width="1"/>
    </g>
    <g id="freepik--device-1--inject-9" transform="translate(47.84 285.959)">
      <rect id="Rectangle_9814" data-name="Rectangle 9814" width="48.883" height="92.322" rx="7.67" transform="translate(0 0)" fill="#fff" stroke="#263238" stroke-linecap="round" stroke-linejoin="round" stroke-width="1"/>
      <rect id="Rectangle_9815" data-name="Rectangle 9815" width="44.533" height="72.046" transform="translate(2.175 10.138)" fill="#263238"/>
      <g id="Group_1261" data-name="Group 1261" transform="translate(2.175 10.138)" clip-path="url(#clip-path-5)">
        <path id="Path_47470" data-name="Path 47470" d="M119.008,346.49,77.49,370.7h41.518Z" transform="translate(-74.475 -298.65)" fill="#fff" opacity="0.3"/>
      </g>
      <rect id="Rectangle_9817" data-name="Rectangle 9817" width="44.533" height="72.046" transform="translate(2.175 10.138)" fill="none" stroke="#263238" stroke-linecap="round" stroke-linejoin="round" stroke-width="1"/>
      <path id="Path_47471" data-name="Path 47471" d="M98.641,305.19H88.949a.649.649,0,0,1-.649-.649h0a.649.649,0,0,1,.649-.661h9.693a.649.649,0,0,1,.649.661h0A.649.649,0,0,1,98.641,305.19Z" transform="translate(-69.36 -300.102)" fill="#263238"/>
      <path id="Path_47472" data-name="Path 47472" d="M95.832,369.289a2.646,2.646,0,1,0-2.646,2.633A2.646,2.646,0,0,0,95.832,369.289Z" transform="translate(-68.751 -283.034)" fill="#fff" stroke="#263238" stroke-miterlimit="10" stroke-width="0.704"/>
      <rect id="Rectangle_9818" data-name="Rectangle 9818" width="2.671" height="2.671" transform="translate(23.1 84.919)" fill="#263238"/>
    </g>
  </g>
</svg>
