<svg id="e-commerce_web" data-name="e-commerce web" xmlns="http://www.w3.org/2000/svg" xmlns:xlink="http://www.w3.org/1999/xlink" width="205.25" height="153.303" viewBox="0 0 205.25 153.303">
  <defs>
    <linearGradient id="linear-gradient" x1="0.5" x2="0.5" y2="1" gradientUnits="objectBoundingBox">
      <stop offset="0" stop-color="#e8f6ef"/>
      <stop offset="1" stop-color="#84aa96"/>
    </linearGradient>
    <clipPath id="clip-path">
      <path id="Path_70141" data-name="Path 70141" d="M93.38,244.81l2.366,19.2c0,3.077,5.744,5.575,12.831,5.575s12.831-2.5,12.831-5.575l2.366-19.2Z" transform="translate(-93.38 -244.81)" fill="#fff" stroke="#263238" stroke-linecap="round" stroke-linejoin="round" stroke-width="1"/>
    </clipPath>
  </defs>
  <g id="freepik--background-simple--inject-65">
    <path id="Path_70136" data-name="Path 70136" d="M236.962,205.495s28.739-33.313,21.356-75.915-45.458-64.907-71-62.383-50.97,27.558-75.925,30.652-62.573,25.113-54.969,67.01,30.709,46,68.111,47.534S214.863,233.116,236.962,205.495Z" transform="translate(-55.429 -67.004)" fill="url(#linear-gradient)"/>
    <path id="Path_70137" data-name="Path 70137" d="M236.962,205.495s28.739-33.313,21.356-75.915-45.458-64.907-71-62.383-50.97,27.558-75.925,30.652-62.573,25.113-54.969,67.01,30.709,46,68.111,47.534S214.863,233.116,236.962,205.495Z" transform="translate(-55.429 -67.004)" fill="none" opacity="0.53"/>
  </g>
  <g id="freepik--Desk--inject-65" transform="translate(5.043 101.169)">
    <line id="Line_2365" data-name="Line 2365" x2="199.706" fill="none" stroke="#263238" stroke-linecap="round" stroke-linejoin="round" stroke-width="1"/>
  </g>
  <g id="freepik--Plant--inject-65" transform="translate(8.12 41.23)">
    <ellipse id="Ellipse_1388" data-name="Ellipse 1388" cx="16.967" cy="6.297" rx="16.967" ry="6.297" transform="translate(4.816 66.003)" fill="#263238"/>
    <path id="Path_70138" data-name="Path 70138" d="M93.38,244.81l2.366,19.2c0,3.077,5.744,5.575,12.831,5.575s12.831-2.5,12.831-5.575l2.366-19.2Z" transform="translate(-81.503 -192.349)" fill="#fff"/>
    <g id="Group_2119" data-name="Group 2119" transform="translate(11.877 52.461)" clip-path="url(#clip-path)">
      <path id="Path_70139" data-name="Path 70139" d="M106.353,244.81H93.38l2.366,19.2c0,3.077,5.744,5.575,12.831,5.575q.69,0,1.359-.032C105.895,262.388,105.826,251.871,106.353,244.81Z" transform="translate(-93.38 -244.81)" fill="#70ab8d"/>
      <path id="Path_70140" data-name="Path 70140" d="M106.353,244.81H93.38l2.366,19.2c0,3.077,5.744,5.575,12.831,5.575q.69,0,1.359-.032C105.895,262.388,105.826,251.871,106.353,244.81Z" transform="translate(-93.38 -244.81)" fill="#fff" opacity="0.4"/>
    </g>
    <path id="Path_70142" data-name="Path 70142" d="M93.38,244.81l2.366,19.2c0,3.077,5.744,5.575,12.831,5.575s12.831-2.5,12.831-5.575l2.366-19.2Z" transform="translate(-81.503 -192.349)" fill="none" stroke="#263238" stroke-linecap="round" stroke-linejoin="round" stroke-width="1"/>
    <ellipse id="Ellipse_1389" data-name="Ellipse 1389" cx="15.197" cy="6.602" rx="15.197" ry="6.602" transform="translate(11.877 45.859)" fill="#fff" stroke="#263238" stroke-linecap="round" stroke-linejoin="round" stroke-width="1"/>
    <ellipse id="Ellipse_1390" data-name="Ellipse 1390" cx="13.579" cy="5.744" rx="13.579" ry="5.744" transform="translate(13.495 46.544)" fill="#263238" stroke="#263238" stroke-linecap="round" stroke-linejoin="round" stroke-width="1"/>
    <path id="Path_70143" data-name="Path 70143" d="M111.015,221.272s-1.212-11.181-8.763-19.644-5.7-7.424-5.7-7.424" transform="translate(-82.908 -168.39)" fill="none" stroke="#263238" stroke-linecap="round" stroke-linejoin="round" stroke-width="1"/>
    <path id="Path_70144" data-name="Path 70144" d="M139.749,182.52s-9.063,9.068-10.575,19.344-.527,11.935-.527,11.935" transform="translate(-98.037 -162.881)" fill="none" stroke="#263238" stroke-linecap="round" stroke-linejoin="round" stroke-width="1"/>
    <path id="Path_70145" data-name="Path 70145" d="M122.766,210a165.419,165.419,0,0,1-3.583-19.027c-1.813-12.7-.906-19.338-.906-19.338" transform="translate(-93.174 -157.73)" fill="none" stroke="#263238" stroke-linecap="round" stroke-linejoin="round" stroke-width="1"/>
    <path id="Path_70146" data-name="Path 70146" d="M89.921,187.961s-2.535,2.751-6.434-2.635a16.091,16.091,0,0,1-2.6-11.666,12.942,12.942,0,0,0,5,4.305C88.888,179.24,93.283,186.485,89.921,187.961Z" transform="translate(-75.494 -158.69)" fill="#84aa96"/>
    <path id="Path_70147" data-name="Path 70147" d="M114.9,162.17s-3.625.906-3.926-5.738a16.121,16.121,0,0,1,4.215-11.181,12.881,12.881,0,0,0,1.813,6.323C118.818,154.271,118.533,162.776,114.9,162.17Z" transform="translate(-89.821 -145.25)" fill="#84aa96"/>
    <path id="Path_70148" data-name="Path 70148" d="M145.383,176.33s-3.53-1.228-.142-6.95a16.113,16.113,0,0,1,9.664-7.04,13.024,13.024,0,0,0-1.96,6.323C152.97,171.951,148.107,178.822,145.383,176.33Z" transform="translate(-105.341 -153.335)" fill="#84aa96"/>
    <path id="Path_70149" data-name="Path 70149" d="M100.153,224.021s2.419-10.881,7.556-16.013a16.493,16.493,0,0,1,11.482-4.837s-6.044,2.419-7.857,7.251-4.848,15.413-4.848,15.413H91.4a29.179,29.179,0,0,0-6.955-8.462c-5.138-4.537-13.6-7.551-13.6-7.551s9.369-3.325,16.019-.606S98.34,223.441,98.34,223.441Z" transform="translate(-70.84 -172.65)" fill="#84aa96"/>
    <path id="Path_70150" data-name="Path 70150" d="M112.767,239.541s-6-4.115-12.541-3.43-7.087,6-7.377,7.546a17.79,17.79,0,0,0-.269,2.745,139.381,139.381,0,0,1,13.626-3.43C111.4,242.113,113.583,244.515,112.767,239.541Z" transform="translate(-81.125 -188.197)" fill="#84aa96"/>
    <path id="Path_70151" data-name="Path 70151" d="M126.556,239.541s3.773-4.115,7.9-3.43,4.458,6,4.626,7.546a27.289,27.289,0,0,1,.174,2.745,63.944,63.944,0,0,0-8.573-3.43C127.43,242.113,126.039,244.515,126.556,239.541Z" transform="translate(-97.148 -188.197)" fill="#84aa96"/>
  </g>
  <g id="freepik--Device--inject-65" transform="translate(37.481 26.408)">
    <path id="Path_70152" data-name="Path 70152" d="M165.759,117.12H279.818a4.289,4.289,0,0,1,4.289,4.289v79.735H161.47V121.4a4.289,4.289,0,0,1,4.289-4.284Z" transform="translate(-143.075 -117.12)" fill="#263238" stroke="#263238" stroke-linecap="round" stroke-linejoin="round" stroke-width="1"/>
    <path id="Path_70153" data-name="Path 70153" d="M285.983,313.723H126.56l18.4-37.143H267.588Z" transform="translate(-126.56 -192.556)" fill="#fff" stroke="#263238" stroke-linecap="round" stroke-linejoin="round" stroke-width="1"/>
    <rect id="Rectangle_14580" data-name="Rectangle 14580" width="107.778" height="70.719" transform="translate(25.825 6.65)" fill="#e8f6ef" stroke="#263238" stroke-linecap="round" stroke-linejoin="round" stroke-width="1"/>
    <circle id="Ellipse_1391" data-name="Ellipse 1391" cx="15.234" cy="15.234" r="15.234" transform="translate(23.454 45.91) rotate(-45)" fill="#84aa96"/>
    <circle id="Ellipse_1392" data-name="Ellipse 1392" cx="15.234" cy="15.234" r="15.234" transform="translate(58.66 45.909) rotate(-45)" fill="#84aa96"/>
    <circle id="Ellipse_1393" data-name="Ellipse 1393" cx="15.234" cy="15.234" r="15.234" transform="matrix(0.974, -0.227, 0.227, 0.974, 97.116, 34.526)" fill="#84aa96"/>
    <path id="Path_70154" data-name="Path 70154" d="M192.09,180.417s6.713-18.337,10.66-18.337,10.9,18.121,10.9,18.121l-1.175.105s-6.824-15.882-8.847-16.862-5.759,4.8-10.344,16.951Z" transform="translate(-157.56 -138.389)" fill="#fff" stroke="#263238" stroke-linecap="round" stroke-linejoin="round" stroke-width="1"/>
    <path id="Path_70155" data-name="Path 70155" d="M191.341,194.85h20.176a2.276,2.276,0,0,1,2.276,2.276v10.823a1.823,1.823,0,0,1-1.823,1.823H190.893a1.823,1.823,0,0,1-1.823-1.823V197.132a2.276,2.276,0,0,1,2.271-2.282Z" transform="translate(-156.132 -153.892)" fill="#fff" stroke="#263238" stroke-linecap="round" stroke-linejoin="round" stroke-width="1"/>
    <line id="Line_2366" data-name="Line 2366" x2="22.384" transform="translate(33.144 48.957)" fill="#fff" stroke="#263238" stroke-linecap="round" stroke-linejoin="round" stroke-width="1"/>
    <path id="Path_70156" data-name="Path 70156" d="M232.812,195.86a4.1,4.1,0,0,0-.527,2.455c0,1.813-.638,11.408-.527,11.83s.748.111.748.111" transform="translate(-176.32 -154.37)" fill="#fff" stroke="#263238" stroke-linecap="round" stroke-linejoin="round" stroke-width="1"/>
    <rect id="Rectangle_14581" data-name="Rectangle 14581" width="1.707" height="3.836" transform="translate(43.482 46.823)" fill="#fff" stroke="#263238" stroke-linecap="round" stroke-linejoin="round" stroke-width="1"/>
    <path id="Path_70157" data-name="Path 70157" d="M253.47,186.782s7.119-.622,15.476-.622,12.283.527,12.383,1.054-1.133,7.224-1.133,7.841,0,9.29-.206,9.806-1.138.927-1.549,1.028-22.084.311-22.7.311a1.238,1.238,0,0,1-1.138-1.238c0-.617.311-7.43-.206-9.906S253.47,186.782,253.47,186.782Z" transform="translate(-186.597 -149.781)" fill="#fff" stroke="#263238" stroke-linecap="round" stroke-linejoin="round" stroke-width="1"/>
    <path id="Path_70158" data-name="Path 70158" d="M268,180.275s-.105-8.152.722-10.939a5.8,5.8,0,0,1,5.47-4.126,7.662,7.662,0,0,1,6.892,5.686,25.684,25.684,0,0,1,.105,9.6c-.1.516-1.238,1.96-1.449-.827s.211-9.285-.616-11.145a4.916,4.916,0,0,0-5.364-2.682c-2.171.527-3.3,1.444-3.715,4.126s.411,8.879-.105,10.217S268.181,182.13,268,180.275Z" transform="translate(-193.467 -139.87)" fill="#fff" stroke="#263238" stroke-linecap="round" stroke-linejoin="round" stroke-width="1"/>
    <path id="Path_70159" data-name="Path 70159" d="M256.622,187.53s-.527,5.47-.527,7.535-.105,3.4-.105,3.4" transform="translate(-187.789 -150.429)" fill="#fff" stroke="#263238" stroke-linecap="round" stroke-linejoin="round" stroke-width="1"/>
    <path id="Path_70160" data-name="Path 70160" d="M303,187.73s.211,5.47.211,8.668" transform="translate(-210.028 -150.523)" fill="none" stroke="#263238" stroke-linecap="round" stroke-linejoin="round" stroke-width="1"/>
    <path id="Path_70161" data-name="Path 70161" d="M345.076,169.824a.527.527,0,0,1-.527-.453c-1.017-6.36-2.292-13.373-2.946-15.65-.964,2.15-3.083,8.995-4.837,15.218a.546.546,0,1,1-1.054-.29c0-.042,1.128-4.01,2.35-7.967,2.545-8.252,3.025-8.431,3.4-8.552a.627.627,0,0,1,.569.084c.279.205.664.485,2.181,8.873.732,4.047,1.375,8.073,1.381,8.115a.527.527,0,0,1-.448.617.348.348,0,0,1-.074.005Z" transform="translate(-225.494 -133.666)" fill="#fff" stroke="#263238" stroke-linecap="round" stroke-linejoin="round" stroke-width="1"/>
    <path id="Path_70162" data-name="Path 70162" d="M321.05,181.912s10.491-.643,14.106-.5,10.038.527,10.012.943-.153,13.7-.527,16.335-2.255,5.944-3.889,6.55-7.124.385-9.938.269-5.348-.485-6.613-2.282-2.171-9.342-2.171-9.342Z" transform="translate(-218.567 -147.525)" fill="#fff" stroke="#263238" stroke-linecap="round" stroke-linejoin="round" stroke-width="1"/>
    <path id="Path_70163" data-name="Path 70163" d="M334.978,186.892a1.054,1.054,0,1,0-.34.751A1.054,1.054,0,0,0,334.978,186.892Z" transform="translate(-224.159 -149.617)" fill="#fff" stroke="#263238" stroke-linecap="round" stroke-linejoin="round" stroke-width="1"/>
    <circle id="Ellipse_1394" data-name="Ellipse 1394" cx="1.07" cy="1.07" r="1.07" transform="translate(118.548 38.649) rotate(-80.56)" fill="#fff" stroke="#263238" stroke-linecap="round" stroke-linejoin="round" stroke-width="1"/>
    <path id="Path_70164" data-name="Path 70164" d="M324.53,215.64a176.356,176.356,0,0,1,21.325.058" transform="translate(-220.214 -163.601)" fill="#fff" stroke="#263238" stroke-linecap="round" stroke-linejoin="round" stroke-width="1"/>
    <rect id="Rectangle_14582" data-name="Rectangle 14582" width="104.074" height="8.462" transform="translate(27.495 8.736)" fill="#263238"/>
    <line id="Line_2367" data-name="Line 2367" x2="10.317" transform="translate(77.97 13.558)" fill="none" stroke="#fff" stroke-miterlimit="10" stroke-width="2"/>
    <line id="Line_2368" data-name="Line 2368" x2="10.317" transform="translate(100.222 13.558)" fill="none" stroke="#fff" stroke-miterlimit="10" stroke-width="2"/>
    <path id="Path_70165" data-name="Path 70165" d="M362.964,137.081a.211.211,0,0,0-.174-.09h-5.654l-.216-.653a.221.221,0,0,0-.211-.148h-1.433a.219.219,0,0,0,0,.437h1.275l1.381,4.147a.221.221,0,0,0,.211.148h.079a.78.78,0,0,0-.121.406.759.759,0,1,0,1.512,0,.733.733,0,0,0-.121-.406h1.054a.775.775,0,0,0-.116.406.759.759,0,1,0,1.512,0,.78.78,0,0,0-.121-.406h.169a.221.221,0,0,0,.221-.221.216.216,0,0,0-.221-.216H358.3l-.242-.727h4.11a.216.216,0,0,0,.211-.158l.627-2.329a.221.221,0,0,0-.042-.19Zm-4.11,4.568a.321.321,0,1,1,.316-.321.321.321,0,0,1-.316.321Zm2.324,0a.321.321,0,1,1,.316-.321.316.316,0,0,1-.316.321Zm.585-2.329h-.811v-1.886h.811Zm-2.066-1.886h.817v1.886H359.7Zm-.437,1.886h-.817v-1.886h.8Zm-1.981-1.886h.727v1.886h-.1Zm4.927,1.112v-1.112h.3Z" transform="translate(-234.656 -126.141)" fill="#fff"/>
    <path id="Path_70166" data-name="Path 70166" d="M370.4,136.153a1.607,1.607,0,1,0-1.607,1.581,1.607,1.607,0,0,0,1.607-1.581Z" transform="translate(-240.395 -125.351)" fill="#fff"/>
    <path id="Path_70167" data-name="Path 70167" d="M368.927,137.65a.2.2,0,0,1-.074-.121.327.327,0,0,1,.084-.3l.738-.722a.369.369,0,0,0,.148-.269.206.206,0,0,0-.084-.169.316.316,0,0,0-.2-.063h-.179l-.074.032-.079.047-.069.037a.132.132,0,0,1-.09,0,.158.158,0,0,1-.09-.058.362.362,0,0,1-.053-.1.158.158,0,0,1,0-.111.179.179,0,0,1,.084-.095,1.175,1.175,0,0,1,.653-.174.69.69,0,0,1,.485.184.559.559,0,0,1,.184.422.685.685,0,0,1-.084.327,1.022,1.022,0,0,1-.263.311l-.564.448h.738a.111.111,0,0,1,.1.058.258.258,0,0,1,.037.132.316.316,0,0,1-.037.142.121.121,0,0,1-.1.058h-1.054A.19.19,0,0,1,368.927,137.65Z" transform="translate(-241.178 -125.857)" fill="#263238"/>
    <path id="Path_70168" data-name="Path 70168" d="M221.922,141.994h-38.1a2.535,2.535,0,0,1-2.535-2.54h0a2.535,2.535,0,0,1,2.535-2.535h38.1a2.535,2.535,0,0,1,2.535,2.535h0a2.535,2.535,0,0,1-2.535,2.54Z" transform="translate(-152.451 -126.487)" fill="#fff"/>
    <line id="Line_2369" data-name="Line 2369" x2="15.597" transform="translate(37.175 65.887)" fill="none" stroke="#263238" stroke-linecap="round" stroke-linejoin="round" stroke-width="2"/>
    <line id="Line_2370" data-name="Line 2370" x2="15.597" transform="translate(37.175 68.843)" fill="none" stroke="#263238" stroke-linecap="round" stroke-linejoin="round" stroke-width="2"/>
    <line id="Line_2371" data-name="Line 2371" x2="15.602" transform="translate(72.4 65.887)" fill="none" stroke="#263238" stroke-linecap="round" stroke-linejoin="round" stroke-width="2"/>
    <line id="Line_2372" data-name="Line 2372" x2="15.602" transform="translate(72.4 68.843)" fill="none" stroke="#263238" stroke-linecap="round" stroke-linejoin="round" stroke-width="2"/>
    <line id="Line_2373" data-name="Line 2373" x2="15.597" transform="translate(107.631 65.887)" fill="none" stroke="#263238" stroke-linecap="round" stroke-linejoin="round" stroke-width="2"/>
    <line id="Line_2374" data-name="Line 2374" x2="15.597" transform="translate(107.631 68.843)" fill="none" stroke="#263238" stroke-linecap="round" stroke-linejoin="round" stroke-width="2"/>
    <path id="Path_70169" data-name="Path 70169" d="M262.117,294.836l.211-4.526h-6.476l-.432,4.526Z" transform="translate(-187.52 -199.051)" fill="#263238" stroke="#fff" stroke-linecap="round" stroke-linejoin="round" stroke-width="1"/>
    <path id="Path_70170" data-name="Path 70170" d="M287.533,294.836l-.221-4.526H280.83l.005,4.526Z" transform="translate(-199.541 -199.051)" fill="#263238" stroke="#fff" stroke-linecap="round" stroke-linejoin="round" stroke-width="1"/>
    <path id="Path_70171" data-name="Path 70171" d="M358.486,303.737h6.924l-1.623-4.837h-6.7Z" transform="translate(-235.617 -203.115)" fill="#263238" stroke="#fff" stroke-linecap="round" stroke-linejoin="round" stroke-width="1"/>
    <path id="Path_70172" data-name="Path 70172" d="M249.412,294.836l.432-4.526h-6.481l-.643,4.526Z" transform="translate(-181.512 -199.051)" fill="#263238" stroke="#fff" stroke-linecap="round" stroke-linejoin="round" stroke-width="1"/>
    <path id="Path_70173" data-name="Path 70173" d="M224,294.836l.859-4.526H218.38l-1.08,4.526Z" transform="translate(-169.486 -199.051)" fill="#263238" stroke="#fff" stroke-linecap="round" stroke-linejoin="round" stroke-width="1"/>
    <path id="Path_70174" data-name="Path 70174" d="M337.587,294.836,336.5,290.31H330.02l.869,4.526Z" transform="translate(-222.811 -199.051)" fill="#263238" stroke="#fff" stroke-linecap="round" stroke-linejoin="round" stroke-width="1"/>
    <path id="Path_70175" data-name="Path 70175" d="M350.1,294.836,348.8,290.31H342.32l1.085,4.526Z" transform="translate(-228.63 -199.051)" fill="#263238" stroke="#fff" stroke-linecap="round" stroke-linejoin="round" stroke-width="1"/>
    <path id="Path_70176" data-name="Path 70176" d="M211.287,294.836l1.08-4.526h-6.481l-1.3,4.526Z" transform="translate(-163.474 -199.051)" fill="#263238" stroke="#fff" stroke-linecap="round" stroke-linejoin="round" stroke-width="1"/>
    <path id="Path_70177" data-name="Path 70177" d="M300.049,294.836l-.437-4.526H293.13l.221,4.526Z" transform="translate(-205.359 -199.051)" fill="#263238" stroke="#fff" stroke-linecap="round" stroke-linejoin="round" stroke-width="1"/>
    <path id="Path_70178" data-name="Path 70178" d="M362.614,294.836l-1.523-4.526H354.61l1.307,4.526Z" transform="translate(-234.444 -199.051)" fill="#263238" stroke="#fff" stroke-linecap="round" stroke-linejoin="round" stroke-width="1"/>
    <path id="Path_70179" data-name="Path 70179" d="M325.071,294.836l-.869-4.526H317.72l.653,4.526Z" transform="translate(-216.992 -199.051)" fill="#263238" stroke="#fff" stroke-linecap="round" stroke-linejoin="round" stroke-width="1"/>
    <path id="Path_70180" data-name="Path 70180" d="M312.559,294.836l-.653-4.526H305.43l.437,4.526Z" transform="translate(-211.178 -199.051)" fill="#263238" stroke="#fff" stroke-linecap="round" stroke-linejoin="round" stroke-width="1"/>
    <path id="Path_70181" data-name="Path 70181" d="M274.827,294.836l-.005-4.526h-6.481l-.211,4.526Z" transform="translate(-193.533 -199.051)" fill="#263238" stroke="#fff" stroke-linecap="round" stroke-linejoin="round" stroke-width="1"/>
    <path id="Path_70182" data-name="Path 70182" d="M184.207,298.9h-6.7l-1.85,4.837h6.929Z" transform="translate(-149.788 -203.115)" fill="#263238" stroke="#fff" stroke-linecap="round" stroke-linejoin="round" stroke-width="1"/>
    <path id="Path_70183" data-name="Path 70183" d="M187.38,290.31H180.9l-1.734,4.526h6.7Z" transform="translate(-151.448 -199.051)" fill="#263238" stroke="#fff" stroke-linecap="round" stroke-linejoin="round" stroke-width="1"/>
    <path id="Path_70184" data-name="Path 70184" d="M198.577,294.836l1.3-4.526h-6.481l-1.512,4.526Z" transform="translate(-157.461 -199.051)" fill="#263238" stroke="#fff" stroke-linecap="round" stroke-linejoin="round" stroke-width="1"/>
    <path id="Path_70185" data-name="Path 70185" d="M169.989,317.92l-2.129,5.575h7.446l1.86-5.575Z" transform="translate(-146.098 -212.112)" fill="#263238" stroke="#fff" stroke-linecap="round" stroke-linejoin="round" stroke-width="1"/>
    <path id="Path_70186" data-name="Path 70186" d="M180.81,308.08h-6.929l-1.981,5.185h7.177Z" transform="translate(-148.009 -207.457)" fill="#263238" stroke="#fff" stroke-linecap="round" stroke-linejoin="round" stroke-width="1"/>
    <path id="Path_70187" data-name="Path 70187" d="M183.85,317.92l-1.86,5.575h7.446l1.591-5.575Z" transform="translate(-152.782 -212.112)" fill="#263238" stroke="#fff" stroke-linecap="round" stroke-linejoin="round" stroke-width="1"/>
    <path id="Path_70188" data-name="Path 70188" d="M236.707,294.836l.643-4.526h-6.481l-.859,4.526Z" transform="translate(-175.499 -199.051)" fill="#263238" stroke="#fff" stroke-linecap="round" stroke-linejoin="round" stroke-width="1"/>
    <path id="Path_70189" data-name="Path 70189" d="M235.184,303.737l.7-4.837h-6.7l-.922,4.837Z" transform="translate(-174.671 -203.115)" fill="#263238" stroke="#fff" stroke-linecap="round" stroke-linejoin="round" stroke-width="1"/>
    <path id="Path_70190" data-name="Path 70190" d="M222.039,303.737l.922-4.837h-6.7l-1.154,4.837Z" transform="translate(-168.45 -203.115)" fill="#263238" stroke="#fff" stroke-linecap="round" stroke-linejoin="round" stroke-width="1"/>
    <path id="Path_70191" data-name="Path 70191" d="M248.329,303.737l.458-4.837H242.1l-.7,4.837Z" transform="translate(-180.887 -203.115)" fill="#263238" stroke="#fff" stroke-linecap="round" stroke-linejoin="round" stroke-width="1"/>
    <path id="Path_70192" data-name="Path 70192" d="M197.125,298.9h-6.7l-1.618,4.837h6.929Z" transform="translate(-156.009 -203.115)" fill="#263238" stroke="#fff" stroke-linecap="round" stroke-linejoin="round" stroke-width="1"/>
    <path id="Path_70193" data-name="Path 70193" d="M361.231,313.265h7.177l-1.744-5.185H359.74Z" transform="translate(-236.87 -207.457)" fill="#263238" stroke="#fff" stroke-linecap="round" stroke-linejoin="round" stroke-width="1"/>
    <path id="Path_70194" data-name="Path 70194" d="M208.889,303.737l1.154-4.837h-6.7l-1.386,4.837Z" transform="translate(-162.229 -203.115)" fill="#263238" stroke="#fff" stroke-linecap="round" stroke-linejoin="round" stroke-width="1"/>
    <path id="Path_70195" data-name="Path 70195" d="M187.254,308.08l-1.734,5.185H192.7l1.486-5.185Z" transform="translate(-154.452 -207.457)" fill="#263238" stroke="#fff" stroke-linecap="round" stroke-linejoin="round" stroke-width="1"/>
    <path id="Path_70196" data-name="Path 70196" d="M326.59,303.737l-.933-4.837h-6.7l.7,4.837Z" transform="translate(-217.579 -203.115)" fill="#263238" stroke="#fff" stroke-linecap="round" stroke-linejoin="round" stroke-width="1"/>
    <path id="Path_70197" data-name="Path 70197" d="M313.653,303.737l-.7-4.837H306.26l.464,4.837Z" transform="translate(-211.571 -203.115)" fill="#263238" stroke="#fff" stroke-linecap="round" stroke-linejoin="round" stroke-width="1"/>
    <path id="Path_70198" data-name="Path 70198" d="M352.474,303.737l-1.4-4.837h-6.7l1.165,4.837Z" transform="translate(-229.604 -203.115)" fill="#263238" stroke="#fff" stroke-linecap="round" stroke-linejoin="round" stroke-width="1"/>
    <path id="Path_70199" data-name="Path 70199" d="M274.629,303.737l-.005-4.837h-6.7l-.227,4.837Z" transform="translate(-193.329 -203.115)" fill="#263238" stroke="#fff" stroke-linecap="round" stroke-linejoin="round" stroke-width="1"/>
    <path id="Path_70200" data-name="Path 70200" d="M300.711,303.737l-.464-4.837h-6.7l.237,4.837Z" transform="translate(-205.558 -203.115)" fill="#263238" stroke="#fff" stroke-linecap="round" stroke-linejoin="round" stroke-width="1"/>
    <path id="Path_70201" data-name="Path 70201" d="M287.774,303.737l-.237-4.837h-6.7l.005,4.837Z" transform="translate(-199.545 -203.115)" fill="#263238" stroke="#fff" stroke-linecap="round" stroke-linejoin="round" stroke-width="1"/>
    <path id="Path_70202" data-name="Path 70202" d="M261.479,303.737l.227-4.837h-6.7l-.458,4.837Z" transform="translate(-187.108 -203.115)" fill="#263238" stroke="#fff" stroke-linecap="round" stroke-linejoin="round" stroke-width="1"/>
    <path id="Path_70203" data-name="Path 70203" d="M307.14,308.08l.506,5.185h7.172l-.748-5.185Z" transform="translate(-211.987 -207.457)" fill="#263238" stroke="#fff" stroke-linecap="round" stroke-linejoin="round" stroke-width="1"/>
    <path id="Path_70204" data-name="Path 70204" d="M320.29,308.08l.748,5.185h7.177l-1-5.185Z" transform="translate(-218.208 -207.457)" fill="#263238" stroke="#fff" stroke-linecap="round" stroke-linejoin="round" stroke-width="1"/>
    <path id="Path_70205" data-name="Path 70205" d="M200.626,308.08l-1.486,5.185h7.177l1.238-5.185Z" transform="translate(-160.895 -207.457)" fill="#263238" stroke="#fff" stroke-linecap="round" stroke-linejoin="round" stroke-width="1"/>
    <path id="Path_70206" data-name="Path 70206" d="M333.44,308.08l1,5.185h7.177l-1.244-5.185Z" transform="translate(-224.429 -207.457)" fill="#263238" stroke="#fff" stroke-linecap="round" stroke-linejoin="round" stroke-width="1"/>
    <path id="Path_70207" data-name="Path 70207" d="M280.85,308.08l.005,5.185h7.177l-.253-5.185Z" transform="translate(-199.55 -207.457)" fill="#263238" stroke="#fff" stroke-linecap="round" stroke-linejoin="round" stroke-width="1"/>
    <path id="Path_70208" data-name="Path 70208" d="M346.59,308.08l1.244,5.185h7.177l-1.491-5.185Z" transform="translate(-230.65 -207.457)" fill="#263238" stroke="#fff" stroke-linecap="round" stroke-linejoin="round" stroke-width="1"/>
    <path id="Path_70209" data-name="Path 70209" d="M294,308.08l.253,5.185h7.177l-.506-5.185Z" transform="translate(-205.771 -207.457)" fill="#263238" stroke="#fff" stroke-linecap="round" stroke-linejoin="round" stroke-width="1"/>
    <path id="Path_70210" data-name="Path 70210" d="M227.371,308.08l-.991,5.185h7.177l.738-5.185Z" transform="translate(-173.782 -207.457)" fill="#263238" stroke="#fff" stroke-linecap="round" stroke-linejoin="round" stroke-width="1"/>
    <path id="Path_70211" data-name="Path 70211" d="M214,308.08l-1.238,5.185h7.177l.991-5.185Z" transform="translate(-167.339 -207.457)" fill="#263238" stroke="#fff" stroke-linecap="round" stroke-linejoin="round" stroke-width="1"/>
    <path id="Path_70212" data-name="Path 70212" d="M267.482,308.08l-.242,5.185h7.177l-.005-5.185Z" transform="translate(-193.111 -207.457)" fill="#263238" stroke="#fff" stroke-linecap="round" stroke-linejoin="round" stroke-width="1"/>
    <path id="Path_70213" data-name="Path 70213" d="M254.11,308.08l-.49,5.185H260.8l.242-5.185Z" transform="translate(-186.668 -207.457)" fill="#263238" stroke="#fff" stroke-linecap="round" stroke-linejoin="round" stroke-width="1"/>
    <path id="Path_70214" data-name="Path 70214" d="M240.738,308.08,240,313.265h7.177l.49-5.185Z" transform="translate(-180.225 -207.457)" fill="#263238" stroke="#fff" stroke-linecap="round" stroke-linejoin="round" stroke-width="1"/>
    <path id="Path_70215" data-name="Path 70215" d="M339.532,303.737l-1.164-4.837h-6.7l.933,4.837Z" transform="translate(-223.591 -203.115)" fill="#263238" stroke="#fff" stroke-linecap="round" stroke-linejoin="round" stroke-width="1"/>
    <path id="Path_70216" data-name="Path 70216" d="M188.936,286.147l1.549-4.637h-6.26l-1.765,4.637Z" transform="translate(-153.005 -194.888)" fill="#263238" stroke="#fff" stroke-linecap="round" stroke-linejoin="round" stroke-width="1"/>
    <path id="Path_70217" data-name="Path 70217" d="M175.354,290.31h-5.986l-1.929,4.526h6.181Z" transform="translate(-145.899 -199.051)" fill="#263238" stroke="#fff" stroke-linecap="round" stroke-linejoin="round" stroke-width="1"/>
    <path id="Path_70218" data-name="Path 70218" d="M178.851,281.51h-5.775l-1.976,4.637h5.986Z" transform="translate(-147.631 -194.888)" fill="#263238" stroke="#fff" stroke-linecap="round" stroke-linejoin="round" stroke-width="1"/>
    <path id="Path_70219" data-name="Path 70219" d="M171.771,298.9H165.59l-2.06,4.837h6.392Z" transform="translate(-144.049 -203.115)" fill="#263238" stroke="#fff" stroke-linecap="round" stroke-linejoin="round" stroke-width="1"/>
    <path id="Path_70220" data-name="Path 70220" d="M167.935,308.08h-6.392l-2.213,5.185h6.624Z" transform="translate(-142.063 -207.457)" fill="#263238" stroke="#fff" stroke-linecap="round" stroke-linejoin="round" stroke-width="1"/>
    <path id="Path_70221" data-name="Path 70221" d="M163.82,317.92H157.2l-2.376,5.575h6.871Z" transform="translate(-139.929 -212.112)" fill="#263238" stroke="#fff" stroke-linecap="round" stroke-linejoin="round" stroke-width="1"/>
    <path id="Path_70222" data-name="Path 70222" d="M382.5,298.9l1.86,4.837h6.128l-2.06-4.837Z" transform="translate(-247.638 -203.115)" fill="#263238" stroke="#fff" stroke-linecap="round" stroke-linejoin="round" stroke-width="1"/>
    <path id="Path_70223" data-name="Path 70223" d="M388.022,313.265h6.349l-2.213-5.185H386.03Z" transform="translate(-249.307 -207.457)" fill="#263238" stroke="#fff" stroke-linecap="round" stroke-linejoin="round" stroke-width="1"/>
    <path id="Path_70224" data-name="Path 70224" d="M391.949,323.495h6.587l-2.376-5.575h-6.35Z" transform="translate(-251.096 -212.112)" fill="#263238" stroke="#fff" stroke-linecap="round" stroke-linejoin="round" stroke-width="1"/>
    <path id="Path_70225" data-name="Path 70225" d="M287.307,286.147l-.227-4.637h-6.26l.005,4.637Z" transform="translate(-199.536 -194.888)" fill="#263238" stroke="#fff" stroke-linecap="round" stroke-linejoin="round" stroke-width="1"/>
    <path id="Path_70226" data-name="Path 70226" d="M380.944,294.836h5.928l-1.929-4.526H379.21Z" transform="translate(-246.081 -199.051)" fill="#263238" stroke="#fff" stroke-linecap="round" stroke-linejoin="round" stroke-width="1"/>
    <path id="Path_70227" data-name="Path 70227" d="M374.624,313.265H381.8l-1.992-5.185H372.88Z" transform="translate(-243.087 -207.457)" fill="#263238" stroke="#fff" stroke-linecap="round" stroke-linejoin="round" stroke-width="1"/>
    <path id="Path_70228" data-name="Path 70228" d="M201.231,286.147l1.328-4.637H196.3l-1.549,4.637Z" transform="translate(-158.819 -194.888)" fill="#263238" stroke="#fff" stroke-linecap="round" stroke-linejoin="round" stroke-width="1"/>
    <path id="Path_70229" data-name="Path 70229" d="M366.91,290.31l1.523,4.526h6.692l-1.734-4.526Z" transform="translate(-240.262 -199.051)" fill="#263238" stroke="#fff" stroke-linecap="round" stroke-linejoin="round" stroke-width="1"/>
    <path id="Path_70230" data-name="Path 70230" d="M383.344,286.147l-1.976-4.637H375.83l1.781,4.637Z" transform="translate(-244.482 -194.888)" fill="#263238" stroke="#fff" stroke-linecap="round" stroke-linejoin="round" stroke-width="1"/>
    <path id="Path_70231" data-name="Path 70231" d="M372,286.147l-1.781-4.637H363.96l1.555,4.637Z" transform="translate(-238.867 -194.888)" fill="#263238" stroke="#fff" stroke-linecap="round" stroke-linejoin="round" stroke-width="1"/>
    <path id="Path_70232" data-name="Path 70232" d="M335.33,317.92l1.075,5.575h7.44l-1.338-5.575Z" transform="translate(-225.323 -212.112)" fill="#263238" stroke="#fff" stroke-linecap="round" stroke-linejoin="round" stroke-width="1"/>
    <path id="Path_70233" data-name="Path 70233" d="M378.061,323.495h7.446l-2.139-5.575H376.19Z" transform="translate(-244.652 -212.112)" fill="#263238" stroke="#fff" stroke-linecap="round" stroke-linejoin="round" stroke-width="1"/>
    <path id="Path_70234" data-name="Path 70234" d="M359.894,286.147l-1.554-4.637h-6.26l1.333,4.637Z" transform="translate(-233.247 -194.888)" fill="#263238" stroke="#fff" stroke-linecap="round" stroke-linejoin="round" stroke-width="1"/>
    <path id="Path_70235" data-name="Path 70235" d="M362.57,317.92l1.607,5.575h7.44l-1.871-5.575Z" transform="translate(-238.209 -212.112)" fill="#263238" stroke="#fff" stroke-linecap="round" stroke-linejoin="round" stroke-width="1"/>
    <path id="Path_70236" data-name="Path 70236" d="M348.95,317.92l1.338,5.575h7.446l-1.607-5.575Z" transform="translate(-231.766 -212.112)" fill="#263238" stroke="#fff" stroke-linecap="round" stroke-linejoin="round" stroke-width="1"/>
    <path id="Path_70237" data-name="Path 70237" d="M371.423,303.737h6.929l-1.86-4.837H369.8Z" transform="translate(-241.63 -203.115)" fill="#263238" stroke="#fff" stroke-linecap="round" stroke-linejoin="round" stroke-width="1"/>
    <path id="Path_70238" data-name="Path 70238" d="M250.421,286.147l.437-4.637H244.6l-.659,4.637Z" transform="translate(-182.089 -194.888)" fill="#263238" stroke="#fff" stroke-linecap="round" stroke-linejoin="round" stroke-width="1"/>
    <path id="Path_70239" data-name="Path 70239" d="M347.793,286.147l-1.333-4.637H340.2l1.117,4.637Z" transform="translate(-227.627 -194.888)" fill="#263238" stroke="#fff" stroke-linecap="round" stroke-linejoin="round" stroke-width="1"/>
    <path id="Path_70240" data-name="Path 70240" d="M238.121,286.147l.659-4.637h-6.255l-.885,4.637Z" transform="translate(-176.27 -194.888)" fill="#263238" stroke="#fff" stroke-linecap="round" stroke-linejoin="round" stroke-width="1"/>
    <path id="Path_70241" data-name="Path 70241" d="M275.011,286.147l-.005-4.637h-6.255l-.221,4.637Z" transform="translate(-193.722 -194.888)" fill="#263238" stroke="#fff" stroke-linecap="round" stroke-linejoin="round" stroke-width="1"/>
    <path id="Path_70242" data-name="Path 70242" d="M225.826,286.147l.885-4.637h-6.26l-1.1,4.637Z" transform="translate(-170.456 -194.888)" fill="#263238" stroke="#fff" stroke-linecap="round" stroke-linejoin="round" stroke-width="1"/>
    <path id="Path_70243" data-name="Path 70243" d="M213.531,286.147l1.1-4.637h-6.255l-1.328,4.637Z" transform="translate(-164.637 -194.888)" fill="#263238" stroke="#fff" stroke-linecap="round" stroke-linejoin="round" stroke-width="1"/>
    <path id="Path_70244" data-name="Path 70244" d="M262.716,286.147l.221-4.637h-6.26l-.437,4.637Z" transform="translate(-187.908 -194.888)" fill="#263238" stroke="#fff" stroke-linecap="round" stroke-linejoin="round" stroke-width="1"/>
    <path id="Path_70245" data-name="Path 70245" d="M335.7,286.147l-1.117-4.637H328.33l.891,4.637Z" transform="translate(-222.011 -194.888)" fill="#263238" stroke="#fff" stroke-linecap="round" stroke-linejoin="round" stroke-width="1"/>
    <path id="Path_70246" data-name="Path 70246" d="M323.6,286.147l-.891-4.637h-6.26l.669,4.637Z" transform="translate(-216.391 -194.888)" fill="#263238" stroke="#fff" stroke-linecap="round" stroke-linejoin="round" stroke-width="1"/>
    <path id="Path_70247" data-name="Path 70247" d="M299.408,286.147l-.453-4.637H292.7l.227,4.637Z" transform="translate(-205.156 -194.888)" fill="#263238" stroke="#fff" stroke-linecap="round" stroke-linejoin="round" stroke-width="1"/>
    <path id="Path_70248" data-name="Path 70248" d="M269.474,317.92H197.711l-1.591,5.575h74.429Z" transform="translate(-159.467 -212.112)" fill="#263238" stroke="#fff" stroke-linecap="round" stroke-linejoin="round" stroke-width="1"/>
    <path id="Path_70249" data-name="Path 70249" d="M311.5,286.147l-.669-4.637h-6.26l.453,4.637Z" transform="translate(-210.771 -194.888)" fill="#263238" stroke="#fff" stroke-linecap="round" stroke-linejoin="round" stroke-width="1"/>
    <rect id="Rectangle_14583" data-name="Rectangle 14583" width="159.496" height="2.266" transform="translate(0 121.168)" fill="#263238" stroke="#263238" stroke-linecap="round" stroke-linejoin="round" stroke-width="1"/>
  </g>
  <g id="freepik--credit-card--inject-65" transform="translate(2.72 124.199)">
    <path id="Path_70250" data-name="Path 70250" d="M258.607,394.725l-40.789.34c-.913,0-1.561-.539-1.448-1.214l.732-15.041c.086-.507.781-.917,1.561-.921l39.661-.168c.781,0,1.471.39,1.561.9l.122,14.881C260.129,394.167,259.493,394.721,258.607,394.725Z" transform="translate(-214.339 -376.72)" fill="#84aa96" stroke="#263238" stroke-linecap="round" stroke-linejoin="round" stroke-width="0.5"/>
    <line id="Line_2375" data-name="Line 2375" x2="13.422" transform="translate(24.979 3.301)" fill="none" stroke="#263238" stroke-linecap="round" stroke-linejoin="round" stroke-width="0.5"/>
    <line id="Line_2376" data-name="Line 2376" x2="20.346" transform="translate(18.056 4.437)" fill="none" stroke="#263238" stroke-linecap="round" stroke-linejoin="round" stroke-width="0.5"/>
    <path id="Path_70251" data-name="Path 70251" d="M230.813,402.043c-8.142,2.592-11.356,3.052-14.393,2.9l-.1.578c-.1.582.461,1.054,1.245,1.046l41.245-.34c.781,0,1.308-.48,1.194-1.058l.13-8.562C248.843,396.318,243.58,397.984,230.813,402.043Z" transform="translate(-214.312 -388.222)" fill="#263238"/>
    <path id="Path_70252" data-name="Path 70252" d="M232.587,390.028l-3.376.02c-.316,0-.546-.172-.515-.39l.289-2.147c.031-.2.3-.371.6-.371l3.294-.02c.3,0,.535.164.515.367l-.207,2.143C233.172,389.848,232.9,390.024,232.587,390.028Z" transform="translate(-223.08 -383.061)" fill="#fff" stroke="#263238" stroke-linecap="round" stroke-linejoin="round" stroke-width="0.4"/>
    <path id="Path_70253" data-name="Path 70253" d="M234.018,390.6h-.835c-.152,0-.265-.082-.254-.183l.066-.531c0-.1.144-.183.293-.183h.839c.152,0,.265.082.254.18l-.059.531A.309.309,0,0,1,234.018,390.6Z" transform="translate(-225.662 -384.634)" fill="#fff" stroke="#263238" stroke-linecap="round" stroke-linejoin="round" stroke-width="0.3"/>
    <path id="Path_70254" data-name="Path 70254" d="M229.46,388h1.3c.25,0,.437.133.418.3l-.043.359" transform="translate(-223.548 -383.597)" fill="none" stroke="#263238" stroke-linecap="round" stroke-linejoin="round" stroke-width="0.3"/>
    <path id="Path_70255" data-name="Path 70255" d="M237.947,388h-1.276c-.254,0-.472.137-.492.3l-.039.363" transform="translate(-227.62 -383.597)" fill="none" stroke="#263238" stroke-linecap="round" stroke-linejoin="round" stroke-width="0.3"/>
    <path id="Path_70256" data-name="Path 70256" d="M228.67,392.767h1.319c.258,0,.484-.144.5-.32l.043-.367" transform="translate(-223.066 -386.085)" fill="none" stroke="#263238" stroke-linecap="round" stroke-linejoin="round" stroke-width="0.3"/>
    <path id="Path_70257" data-name="Path 70257" d="M237.491,392.7h-1.3c-.258,0-.453-.137-.433-.312l.043-.371" transform="translate(-227.387 -386.048)" fill="none" stroke="#263238" stroke-linecap="round" stroke-linejoin="round" stroke-width="0.3"/>
    <line id="Line_2377" data-name="Line 2377" y1="0.008" x2="1.53" transform="translate(5.76 5.581)" fill="none" stroke="#263238" stroke-linecap="round" stroke-linejoin="round" stroke-width="0.3"/>
    <line id="Line_2378" data-name="Line 2378" y1="0.008" x2="1.526" transform="translate(8.637 5.566)" fill="none" stroke="#263238" stroke-linecap="round" stroke-linejoin="round" stroke-width="0.3"/>
    <path id="Path_70258" data-name="Path 70258" d="M227.255,404.038a.578.578,0,0,1-.183-.1.469.469,0,0,1-.1-.156.64.64,0,0,1-.039-.191,1.006,1.006,0,0,1,0-.211.706.706,0,0,1,.781-.695c.445,0,.64.226.582.687a1.169,1.169,0,0,1-.043.211.748.748,0,0,1-.09.187.632.632,0,0,1-.144.16.687.687,0,0,1-.207.105,1.062,1.062,0,0,1-.281.039.9.9,0,0,1-.273-.035Zm.425-.137a.572.572,0,0,0,.109-.051.463.463,0,0,0,.078-.074.431.431,0,0,0,.062-.094.5.5,0,0,0,.039-.1.416.416,0,0,1,.027-.105.755.755,0,0,0,0-.105v-.211a.755.755,0,0,0,0-.105.39.39,0,0,0-.035-.086.289.289,0,0,0-.062-.074.353.353,0,0,0-.094-.043.344.344,0,0,0-.129,0,.5.5,0,0,0-.137,0,.436.436,0,0,0-.105.047.349.349,0,0,0-.078.074.281.281,0,0,0-.059.086.659.659,0,0,0-.043.105.7.7,0,0,0-.027.105.91.91,0,0,0,0,.109v.207a.75.75,0,0,0,0,.105.425.425,0,0,0,.035.09.226.226,0,0,0,.059.074.352.352,0,0,0,.094.047.367.367,0,0,0,.133,0,.489.489,0,0,0,.133,0Z" transform="translate(-222.003 -392.548)" fill="#fff"/>
    <path id="Path_70259" data-name="Path 70259" d="M232.053,404.007a.433.433,0,0,1-.183-.1.39.39,0,0,1-.105-.156.6.6,0,0,1-.043-.187.987.987,0,0,1,0-.211.695.695,0,0,1,.753-.695c.449,0,.644.222.593.687a1.172,1.172,0,0,1-.039.211.82.82,0,0,1-.09.187.78.78,0,0,1-.137.16.64.64,0,0,1-.207.1.922.922,0,0,1-.281.043A.779.779,0,0,1,232.053,404.007Zm.422-.137a.3.3,0,0,0,.187-.125.447.447,0,0,0,.059-.09.613.613,0,0,0,.039-.1.417.417,0,0,1,.027-.105v-.211a1.065,1.065,0,0,0,0-.109.78.78,0,0,0,0-.1.281.281,0,0,0-.039-.086.227.227,0,0,0-.062-.074.349.349,0,0,0-.094-.043.344.344,0,0,0-.129,0,.5.5,0,0,0-.137,0,.346.346,0,0,0-.1.047.3.3,0,0,0-.082.074.561.561,0,0,0-.059.086c0,.031-.027.066-.039.105s0,.074-.027.105,0,.07,0,.109a.954.954,0,0,0,0,.1v.117a.749.749,0,0,0,0,.105.348.348,0,0,0,.039.09.273.273,0,0,0,.059.074.323.323,0,0,0,.1.047.46.46,0,0,0,.133,0A.361.361,0,0,0,232.474,403.87Z" transform="translate(-224.923 -392.532)" fill="#fff"/>
    <path id="Path_70260" data-name="Path 70260" d="M236.847,403.976a.461.461,0,0,1-.183-.1.39.39,0,0,1-.105-.156.511.511,0,0,1-.047-.187.969.969,0,0,1,0-.211.679.679,0,0,1,.742-.695c.445,0,.648.223.6.687a1.17,1.17,0,0,1-.039.211.975.975,0,0,1-.082.187.6.6,0,0,1-.141.156.621.621,0,0,1-.2.105.878.878,0,0,1-.277.043.825.825,0,0,1-.269-.039Zm.422-.137a.332.332,0,0,0,.105-.047.39.39,0,0,0,.082-.078.425.425,0,0,0,.055-.09.78.78,0,0,0,.039-.1.233.233,0,0,1,.023-.105v-.211a1.062,1.062,0,0,0,0-.109.425.425,0,0,0-.02-.1.281.281,0,0,0-.039-.086.191.191,0,0,0-.062-.074.3.3,0,0,0-.094-.043.452.452,0,0,0-.133-.02.684.684,0,0,0-.133.02.348.348,0,0,0-.1.047.336.336,0,0,0-.078.07.585.585,0,0,0-.059.09.78.78,0,0,0-.039.1.612.612,0,0,0-.023.109.816.816,0,0,0,0,.109v.1a1.012,1.012,0,0,0,0,.105.745.745,0,0,0,0,.105.568.568,0,0,0,.039.09.27.27,0,0,0,.062.07.328.328,0,0,0,.1.051.46.46,0,0,0,.133,0,.473.473,0,0,0,.144,0Z" transform="translate(-227.843 -392.513)" fill="#fff"/>
    <path id="Path_70261" data-name="Path 70261" d="M241.639,403.946a.46.46,0,0,1-.183-.1.449.449,0,0,1-.109-.156.671.671,0,0,1-.051-.187,1.9,1.9,0,0,1,0-.211.671.671,0,0,1,.734-.695c.445,0,.652.223.613.687a.848.848,0,0,1-.035.207.73.73,0,0,1-.078.191.59.59,0,0,1-.137.156.665.665,0,0,1-.2.105,1.006,1.006,0,0,1-.277.043A.821.821,0,0,1,241.639,403.946Zm.422-.137a.327.327,0,0,0,.105-.051.347.347,0,0,0,.078-.074c.02-.031.039-.059.055-.09l.035-.1a.232.232,0,0,1,.023-.105v-.215a1.029,1.029,0,0,0,0-.105.783.783,0,0,0-.023-.1.243.243,0,0,0-.039-.086.235.235,0,0,0-.062-.074.249.249,0,0,0-.1-.043.444.444,0,0,0-.129,0,.5.5,0,0,0-.137,0,.346.346,0,0,0-.1.047.438.438,0,0,0-.078.07c-.02.031-.039.059-.055.09l-.035.1a.611.611,0,0,0-.023.109v.211a1.021,1.021,0,0,0,0,.105.588.588,0,0,0,.02.1.368.368,0,0,0,.039.09.246.246,0,0,0,.066.074.261.261,0,0,0,.094.047.363.363,0,0,0,.133.02A.5.5,0,0,0,242.06,403.809Z" transform="translate(-230.762 -392.494)" fill="#fff"/>
    <path id="Path_70262" data-name="Path 70262" d="M251.83,403.885a.477.477,0,0,1-.187-.1.461.461,0,0,1-.113-.156.617.617,0,0,1-.059-.187.932.932,0,0,1,0-.211.644.644,0,0,1,.706-.695c.445,0,.656.226.636.687a1.194,1.194,0,0,1-.027.211.749.749,0,0,1-.074.187.563.563,0,0,1-.129.156.687.687,0,0,1-.2.105.879.879,0,0,1-.277.043A.824.824,0,0,1,251.83,403.885Zm.414-.137a.391.391,0,0,0,.105-.047.471.471,0,0,0,.074-.078.39.39,0,0,0,.051-.09.616.616,0,0,0,.035-.1v-.105a.826.826,0,0,0,0-.105,1.02,1.02,0,0,0,0-.105.956.956,0,0,0,0-.105.146.146,0,0,0-.023-.1.634.634,0,0,0-.043-.09.3.3,0,0,0-.07-.07.285.285,0,0,0-.1-.047.436.436,0,0,0-.129,0,.451.451,0,0,0-.133.02.492.492,0,0,0-.1.043.333.333,0,0,0-.074.074.3.3,0,0,0-.051.09.511.511,0,0,0-.035.1.189.189,0,0,1-.02.105.96.96,0,0,0,0,.109.915.915,0,0,0,0,.1.956.956,0,0,0,0,.105.417.417,0,0,0,.023.105.39.39,0,0,0,.043.09.3.3,0,0,0,.066.074.284.284,0,0,0,.1.047.461.461,0,0,0,.133,0,.474.474,0,0,0,.148-.023Z" transform="translate(-236.964 -392.457)" fill="#fff"/>
    <path id="Path_70263" data-name="Path 70263" d="M256.613,403.863a.523.523,0,0,1-.191-.1.46.46,0,0,1-.113-.156.523.523,0,0,1-.059-.187.9.9,0,0,1,0-.211.632.632,0,0,1,.679-.71c.445,0,.66.226.644.687a.831.831,0,0,1-.094.39.561.561,0,0,1-.129.156.617.617,0,0,1-.2.105,1.008,1.008,0,0,1-.277.043A.839.839,0,0,1,256.613,403.863Zm.414-.137a.277.277,0,0,0,.1-.051.27.27,0,0,0,.074-.074.39.39,0,0,0,.051-.09.787.787,0,0,0,.031-.1v-.328a.964.964,0,0,0,0-.105.554.554,0,0,0-.023-.1.391.391,0,0,0-.047-.09.285.285,0,0,0-.066-.07.325.325,0,0,0-.1-.047.461.461,0,0,0-.133,0,.477.477,0,0,0-.133,0,.456.456,0,0,0-.1.047.269.269,0,0,0-.074.074.332.332,0,0,0-.051.086.674.674,0,0,0-.031.105.19.19,0,0,1-.02.105c-.02.031,0,.07,0,.109v.1a.483.483,0,0,0,0,.105.417.417,0,0,0,.023.105.3.3,0,0,0,.043.086.308.308,0,0,0,.066.074.324.324,0,0,0,.1.047.363.363,0,0,0,.133.02.48.48,0,0,0,.152-.023Z" transform="translate(-239.878 -392.435)" fill="#fff"/>
    <path id="Path_70264" data-name="Path 70264" d="M261.413,403.815a.553.553,0,0,1-.191-.1.421.421,0,0,1-.117-.156.706.706,0,0,1-.062-.187,1.171,1.171,0,0,1,0-.211.624.624,0,0,1,.687-.695c.445,0,.664.226.656.687a1.205,1.205,0,0,1-.02.211.613.613,0,0,1-.07.187.492.492,0,0,1-.125.156.543.543,0,0,1-.2.105.838.838,0,0,1-.273.039A.967.967,0,0,1,261.413,403.815Zm.39-.137a.351.351,0,0,0,.1-.051.332.332,0,0,0,.074-.074.5.5,0,0,0,.047-.09.781.781,0,0,0,.031-.1v-.211a.88.88,0,0,0,0-.105.549.549,0,0,0,0-.109.786.786,0,0,0-.023-.1.464.464,0,0,0-.047-.086.3.3,0,0,0-.07-.07.325.325,0,0,0-.1-.047.461.461,0,0,0-.133,0,.476.476,0,0,0-.133,0,.324.324,0,0,0-.1.047.332.332,0,0,0-.074.074.466.466,0,0,0-.047.086.677.677,0,0,0-.031.105v.105a.946.946,0,0,0,0,.109.441.441,0,0,0,0,.1.543.543,0,0,0,0,.105.356.356,0,0,0,.023.1.389.389,0,0,0,.047.09.261.261,0,0,0,.168.121.454.454,0,0,0,.133.019A.473.473,0,0,0,261.8,403.678Z" transform="translate(-242.801 -392.414)" fill="#fff"/>
    <path id="Path_70265" data-name="Path 70265" d="M266.135,403.784a.59.59,0,0,1-.191-.1.48.48,0,0,1-.121-.156.706.706,0,0,1-.062-.187,1.208,1.208,0,0,1-.019-.211.613.613,0,0,1,.675-.695.6.6,0,0,1,.667.687.866.866,0,0,1-.02.207.689.689,0,0,1-.062.191.539.539,0,0,1-.125.156.554.554,0,0,1-.191.105.982.982,0,0,1-.273.039,1,1,0,0,1-.277-.035Zm.41-.137a.494.494,0,0,0,.1-.051.258.258,0,0,0,.07-.074.5.5,0,0,0,.047-.09.418.418,0,0,0,.027-.105v-.422a.782.782,0,0,0-.027-.1.465.465,0,0,0-.047-.086.3.3,0,0,0-.07-.07.322.322,0,0,0-.1-.047.478.478,0,0,0-.133,0,.465.465,0,0,0-.133,0,.324.324,0,0,0-.1.047.258.258,0,0,0-.07.074.334.334,0,0,0-.051.086.7.7,0,0,1-.027.105.979.979,0,0,0,0,.105v.316a.645.645,0,0,0,.027.1.392.392,0,0,0,.047.09.258.258,0,0,0,.07.074.308.308,0,0,0,.1.047.453.453,0,0,0,.133.02.471.471,0,0,0,.129-.02Z" transform="translate(-245.664 -392.395)" fill="#fff"/>
    <path id="Path_70266" data-name="Path 70266" d="M276.348,403.719a.531.531,0,0,1-.2-.1.55.55,0,0,1-.125-.156.781.781,0,0,1-.07-.187.87.87,0,0,1-.023-.211c0-.461.207-.691.652-.691a.617.617,0,0,1,.687.683.929.929,0,0,1,0,.211.576.576,0,0,1-.059.187.421.421,0,0,1-.117.156.535.535,0,0,1-.187.105,1.026,1.026,0,0,1-.546,0Zm.39-.137a.32.32,0,0,0,.168-.125.466.466,0,0,0,.066-.191q0-.059,0-.105v-.316a.281.281,0,0,0-.031-.1l-.051-.09a.418.418,0,0,0-.074-.07.323.323,0,0,0-.1-.047.725.725,0,0,0-.133,0,.453.453,0,0,0-.133.02.324.324,0,0,0-.1.047.39.39,0,0,0-.066.07.491.491,0,0,0-.047.09.18.18,0,0,1-.023.1.545.545,0,0,0,0,.105v.109a.828.828,0,0,0,0,.1.492.492,0,0,0,0,.105.691.691,0,0,0,.027.105.985.985,0,0,0,.051.086.269.269,0,0,0,.074.074.308.308,0,0,0,.1.047.352.352,0,0,0,.133,0A.473.473,0,0,0,276.738,403.583Z" transform="translate(-251.88 -392.358)" fill="#fff"/>
    <path id="Path_70267" data-name="Path 70267" d="M281.053,403.69a.594.594,0,0,1-.2-.1.491.491,0,0,1-.125-.156.749.749,0,0,1-.074-.187,1.1,1.1,0,0,1-.027-.211c-.02-.461.2-.691.64-.691a.628.628,0,0,1,.7.683,1.24,1.24,0,0,1,0,.211.679.679,0,0,1-.055.187.527.527,0,0,1-.117.156.533.533,0,0,1-.187.105.823.823,0,0,1-.273.039A.991.991,0,0,1,281.053,403.69Zm.39-.137a.328.328,0,0,0,.1-.051.308.308,0,0,0,.066-.074.466.466,0,0,0,.043-.09.43.43,0,0,0,.023-.1q0-.059,0-.105v-.211a.5.5,0,0,0-.02-.105.484.484,0,0,0-.082-.191.317.317,0,0,0-.074-.07.347.347,0,0,0-.1-.047.651.651,0,0,0-.133,0,.447.447,0,0,0-.129,0,.325.325,0,0,0-.1.047.391.391,0,0,0-.066.07.314.314,0,0,0-.043.09.355.355,0,0,0-.023.1v.105a.511.511,0,0,0,0,.109.828.828,0,0,0,0,.1v.105a.523.523,0,0,0,.031.1.427.427,0,0,0,.055.09.258.258,0,0,0,.07.074.348.348,0,0,0,.1.047.5.5,0,0,0,.137.019.471.471,0,0,0,.156-.016Z" transform="translate(-254.744 -392.34)" fill="#fff"/>
    <path id="Path_70268" data-name="Path 70268" d="M285.8,403.659a.593.593,0,0,1-.2-.1.561.561,0,0,1-.129-.156.779.779,0,0,1-.078-.187,1.14,1.14,0,0,1-.031-.211c-.023-.461.187-.691.628-.691a.636.636,0,0,1,.71.683,1.194,1.194,0,0,1,0,.207.66.66,0,0,1-.051.191.575.575,0,0,1-.113.156.535.535,0,0,1-.187.105.934.934,0,0,1-.269.039A.993.993,0,0,1,285.8,403.659Zm.39-.137a.457.457,0,0,0,.1-.051.247.247,0,0,0,.066-.074.466.466,0,0,0,.043-.09.781.781,0,0,0,0-.1V403.1a1.011,1.011,0,0,0,0-.105v-.105a.989.989,0,0,0-.02-.105.342.342,0,0,0-.035-.1.525.525,0,0,0-.051-.09.418.418,0,0,0-.074-.07.392.392,0,0,0-.1-.047.73.73,0,0,0-.133,0,.455.455,0,0,0-.133.019.3.3,0,0,0-.094.047.283.283,0,0,0-.066.07.388.388,0,0,0-.043.09.587.587,0,0,0,0,.1.522.522,0,0,0,0,.105v.211a.614.614,0,0,0,.02.105.525.525,0,0,0,.031.1.427.427,0,0,0,.055.09.269.269,0,0,0,.074.074.347.347,0,0,0,.1.047.474.474,0,0,0,.133.02.452.452,0,0,0,.137-.035Z" transform="translate(-257.633 -392.321)" fill="#fff"/>
    <path id="Path_70269" data-name="Path 70269" d="M290.559,403.626a.592.592,0,0,1-.2-.1.566.566,0,0,1-.133-.156.781.781,0,0,1-.082-.187,1.187,1.187,0,0,1-.031-.211c-.035-.461.172-.691.617-.691a.648.648,0,0,1,.718.683.914.914,0,0,1,0,.207.661.661,0,0,1-.051.191.491.491,0,0,1-.109.156.46.46,0,0,1-.183.1.812.812,0,0,1-.269.043A.863.863,0,0,1,290.559,403.626Zm.39-.133a.457.457,0,0,0,.1-.051.3.3,0,0,0,.066-.074.571.571,0,0,0,.039-.09.732.732,0,0,0,0-.105.923.923,0,0,0,0-.1,1.028,1.028,0,0,0,0-.105v-.105a.513.513,0,0,0-.023-.105.345.345,0,0,0-.035-.1.391.391,0,0,0-.055-.09.317.317,0,0,0-.074-.07.349.349,0,0,0-.1-.047.476.476,0,0,0-.133,0,.454.454,0,0,0-.133.02.351.351,0,0,0-.094.047.347.347,0,0,0-.105.16.585.585,0,0,0-.02.1q0,.059,0,.105v.109a.828.828,0,0,0,0,.1.186.186,0,0,0,.023.105.5.5,0,0,0,.09.191.269.269,0,0,0,.074.074.348.348,0,0,0,.1.047.389.389,0,0,0,.137,0,.449.449,0,0,0,.148-.016Z" transform="translate(-260.526 -392.304)" fill="#fff"/>
    <path id="Path_70270" data-name="Path 70270" d="M300.668,403.561a.683.683,0,0,1-.207-.1.667.667,0,0,1-.137-.156.68.68,0,0,1-.086-.187,1.063,1.063,0,0,1-.039-.211c-.047-.457.148-.687.593-.691a.675.675,0,0,1,.742.683.96.96,0,0,1,0,.211.652.652,0,0,1-.043.187.433.433,0,0,1-.1.156.515.515,0,0,1-.183.105.9.9,0,0,1-.269.039A.988.988,0,0,1,300.668,403.561Zm.39-.137a.359.359,0,0,0,.094-.051.234.234,0,0,0,.062-.074.422.422,0,0,0,.035-.09.668.668,0,0,0,.02-.1V403a.971.971,0,0,0,0-.1v-.109a.159.159,0,0,0-.027-.105.615.615,0,0,0-.039-.1.526.526,0,0,0-.055-.086.327.327,0,0,0-.078-.07.433.433,0,0,0-.105-.047.479.479,0,0,0-.133,0,.45.45,0,0,0-.129,0,.262.262,0,0,0-.094.047.3.3,0,0,0-.062.074.344.344,0,0,0-.039.086.7.7,0,0,0,0,.1.963.963,0,0,0,0,.105v.211a1.053,1.053,0,0,0,.027.105.51.51,0,0,0,.035.1.444.444,0,0,0,.059.09.281.281,0,0,0,.078.074.331.331,0,0,0,.105.047.473.473,0,0,0,.133.02A.454.454,0,0,0,301.058,403.425Z" transform="translate(-266.673 -392.262)" fill="#fff"/>
    <path id="Path_70271" data-name="Path 70271" d="M305.4,403.532a.758.758,0,0,1-.2-.1.6.6,0,0,1-.14-.156.818.818,0,0,1-.09-.187,1.055,1.055,0,0,1-.043-.211c-.055-.457.14-.687.582-.691a.687.687,0,0,1,.753.683,1.292,1.292,0,0,1,0,.211.643.643,0,0,1-.039.187.469.469,0,0,1-.1.156.441.441,0,0,1-.18.1.781.781,0,0,1-.269.043A1.015,1.015,0,0,1,305.4,403.532Zm.39-.137a.348.348,0,0,0,.094-.051.3.3,0,0,0,.062-.074.39.39,0,0,0,.047-.191.474.474,0,0,0,0-.105.945.945,0,0,0,0-.1.916.916,0,0,0-.02-.109.421.421,0,0,0-.027-.105.612.612,0,0,0-.039-.1.42.42,0,0,0-.059-.086.348.348,0,0,0-.078-.074.658.658,0,0,0-.105-.043.476.476,0,0,0-.133,0,.449.449,0,0,0-.129,0,.35.35,0,0,0-.094.047.253.253,0,0,0-.059.07.3.3,0,0,0-.039.09.722.722,0,0,0,0,.1,1.029,1.029,0,0,0,0,.105v.109a.771.771,0,0,0,0,.1.6.6,0,0,0,.027.105.5.5,0,0,0,.039.1.443.443,0,0,0,.059.09.281.281,0,0,0,.078.074.331.331,0,0,0,.105.047.474.474,0,0,0,.133,0A.638.638,0,0,0,305.792,403.395Z" transform="translate(-269.554 -392.244)" fill="#fff"/>
    <path id="Path_70272" data-name="Path 70272" d="M310.128,403.526a.6.6,0,0,1-.207-.1.672.672,0,0,1-.152-.133.823.823,0,0,1-.09-.187,1.406,1.406,0,0,1-.047-.211c-.062-.457.129-.687.57-.691a.7.7,0,0,1,.781.683,1.983,1.983,0,0,1,0,.207.64.64,0,0,1-.039.191.461.461,0,0,1-.1.156.418.418,0,0,1-.18.1.781.781,0,0,1-.265.043A.886.886,0,0,1,310.128,403.526Zm.39-.137a.354.354,0,0,0,.094-.047.274.274,0,0,0,.059-.074.39.39,0,0,0,.047-.191v-.207a.2.2,0,0,0-.02-.109.785.785,0,0,0-.031-.105.609.609,0,0,0-.039-.1.436.436,0,0,0-.062-.086.348.348,0,0,0-.078-.074.656.656,0,0,0-.105-.043.476.476,0,0,0-.133,0,.414.414,0,0,0-.129,0,.3.3,0,0,0-.094.047.254.254,0,0,0-.059.07.424.424,0,0,0-.035.09.388.388,0,0,0,0,.1.477.477,0,0,0,0,.105.547.547,0,0,0,0,.109v.1a.164.164,0,0,0,.027.105.5.5,0,0,0,.043.1.446.446,0,0,0,.059.09.3.3,0,0,0,.082.074.332.332,0,0,0,.105.047.369.369,0,0,0,.133,0,.351.351,0,0,0,.133,0Z" transform="translate(-272.421 -392.254)" fill="#fff"/>
    <path id="Path_70273" data-name="Path 70273" d="M314.873,403.467a.6.6,0,0,1-.207-.1.538.538,0,0,1-.144-.152.862.862,0,0,1-.1-.187,1.525,1.525,0,0,1-.047-.211c-.07-.457.117-.687.558-.691a.71.71,0,0,1,.781.683,1.326,1.326,0,0,1,0,.207.534.534,0,0,1-.035.191.39.39,0,0,1-.1.156.418.418,0,0,1-.176.1.917.917,0,0,1-.543,0Zm.39-.137a.262.262,0,0,0,.094-.047.275.275,0,0,0,.059-.074.308.308,0,0,0,.031-.09.438.438,0,0,0,0-.105.852.852,0,0,0,0-.1.538.538,0,0,0,0-.105.19.19,0,0,0-.019-.105.415.415,0,0,1-.031-.105.613.613,0,0,0-.043-.1.437.437,0,0,0-.062-.086.3.3,0,0,0-.082-.074.456.456,0,0,0-.105-.043.478.478,0,0,0-.133,0,.451.451,0,0,0-.129,0,.278.278,0,0,0-.09.047.253.253,0,0,0-.059.07.425.425,0,0,0-.035.09v.1a.88.88,0,0,0,0,.105v.211a.446.446,0,0,0,.031.105.6.6,0,0,0,.043.1.584.584,0,0,0,.059.09.465.465,0,0,0,.082.074.431.431,0,0,0,.105.047.522.522,0,0,0,.137,0,.32.32,0,0,0,.141,0Z" transform="translate(-275.313 -392.207)" fill="#fff"/>
    <path id="Path_70274" data-name="Path 70274" d="M305.256,411.8c.125.909-.781,1.663-2.033,1.671a2.277,2.277,0,0,1-2.432-1.635c-.09-.905.824-1.62,2.041-1.628A2.306,2.306,0,0,1,305.256,411.8Z" transform="translate(-267.034 -397.139)" fill="#fff" stroke="#263238" stroke-linecap="round" stroke-linejoin="round" stroke-width="0.5"/>
    <path id="Path_70275" data-name="Path 70275" d="M313.012,411.752c.148.905-.742,1.659-1.991,1.667a2.356,2.356,0,0,1-2.471-1.635c-.129-.909.781-1.616,2-1.624A2.394,2.394,0,0,1,313.012,411.752Z" transform="translate(-271.762 -397.108)" fill="#fff" stroke="#263238" stroke-linecap="round" stroke-linejoin="round" stroke-width="0.5"/>
  </g>
</svg>
