<svg xmlns="http://www.w3.org/2000/svg" xmlns:xlink="http://www.w3.org/1999/xlink" width="236.903" height="229.368" viewBox="0 0 236.903 229.368">
  <defs>
    <linearGradient id="linear-gradient" x1="0.5" x2="0.5" y2="1" gradientUnits="objectBoundingBox">
      <stop offset="0" stop-color="#70ab8d"/>
      <stop offset="1" stop-color="#385647"/>
    </linearGradient>
  </defs>
  <g id="e-commerce_app" data-name="e-commerce app" transform="translate(-129.628 -3992.964)">
    <g id="Payment_Information-bro" data-name="Payment Information-bro" transform="translate(132.022 3982.45)">
      <path id="Path_73837" data-name="Path 73837" d="M40.382,156.852c9.828,10.378,23.607,28.329,48.023,19.88s17.983-34.116,44.415-48.824,61.3-57.925,22.626-120.282c-20.073-32.363-74.682-12.249-53.2,10.5s3.916,37.486-22.011,48C58.885,73.758,41.4,75.962,55.456,60.3s14.351-31.351,7.3-46.746C49.745-14.849,6.148,6.629-.886,28.886S5.282,85.115,8.45,92.258c5.676,12.8,13.243,24.653,20.189,36.813C33.173,137,32.12,148.111,40.382,156.852Z" transform="translate(7.316 175.94) rotate(-70)" fill="url(#linear-gradient)"/>
      <rect id="Rectangle_15073" data-name="Rectangle 15073" width="26.514" height="16.954" rx="3.52" transform="translate(45.621 72.301) rotate(16.809)" fill="none" stroke="#263238" stroke-miterlimit="10" stroke-width="1.003"/>
      <line id="Line_2690" data-name="Line 2690" x2="25.297" y2="7.667" transform="translate(44.364 75.889)" fill="none" stroke="#263238" stroke-miterlimit="10" stroke-width="1"/>
      <line id="Line_2691" data-name="Line 2691" x2="25.301" y2="7.667" transform="translate(43.594 78.427)" fill="none" stroke="#263238" stroke-miterlimit="10" stroke-width="1"/>
      <path id="Path_73839" data-name="Path 73839" d="M120.854,162.944a1.652,1.652,0,0,0,.144,1.29,1.671,1.671,0,0,1-1.221.1,1.647,1.647,0,1,1,1.912-2.385A1.671,1.671,0,0,0,120.854,162.944Z" transform="translate(-59.658 -72.103)" fill="none" stroke="#263238" stroke-miterlimit="10" stroke-width="1"/>
      <path id="Path_73840" data-name="Path 73840" d="M126.517,164.663a1.647,1.647,0,1,1-1.1-2.056,1.647,1.647,0,0,1,1.1,2.056Z" transform="translate(-62.17 -72.865)" fill="none" stroke="#263238" stroke-miterlimit="10" stroke-width="1"/>
      <rect id="Rectangle_15075" data-name="Rectangle 15075" width="29.543" height="15.37" transform="matrix(0.909, -0.416, 0.416, 0.909, 106.382, 42.582)" fill="none" stroke="#263238" stroke-miterlimit="10" stroke-width="1"/>
      <path id="Path_73843" data-name="Path 73843" d="M379.413,113.853l-4.065-8.878a1.578,1.578,0,0,1-2.088-.775l-21.714,9.941a1.578,1.578,0,0,1-.775,2.088l4.065,8.878a1.573,1.573,0,0,1,2.088.78l21.709-9.945a1.573,1.573,0,0,1,.78-2.088Z" transform="translate(-242.08 -71.603)" fill="none" stroke="#263238" stroke-miterlimit="10" stroke-width="1"/>
      <circle id="Ellipse_1508" data-name="Ellipse 1508" cx="4.037" cy="4.037" r="4.037" transform="translate(117.35 42.681) rotate(-37.53)" fill="none" stroke="#263238" stroke-miterlimit="10" stroke-width="1"/>
      <path id="Path_73844" data-name="Path 73844" d="M380.5,126.279l.3.659-.288.13-.3-.65a2.371,2.371,0,0,1-1.61.1v-.4a2.13,2.13,0,0,0,1.429-.07l-.682-1.5c-.705.135-1.434.237-1.782-.524-.251-.548-.074-1.207.77-1.675l-.3-.664.288-.13.316.673a2.446,2.446,0,0,1,1.327-.176v.4a2.32,2.32,0,0,0-1.174.135l.7,1.522c.719-.144,1.485-.274,1.856.5C381.578,125.137,381.379,125.81,380.5,126.279Zm-1.327-2.139-.659-1.453c-.571.32-.7.747-.529,1.109.195.455.659.436,1.183.343Zm1.75.654c-.2-.464-.7-.418-1.244-.311l.654,1.434c.631-.334.752-.756.585-1.123Z" transform="translate(-256.386 -80.901)" fill="#263238"/>
      <rect id="Rectangle_15076" data-name="Rectangle 15076" width="20.74" height="10.787" transform="translate(31.134 126.814) rotate(12)" fill="none" stroke="#263238" stroke-linecap="round" stroke-linejoin="round" stroke-miterlimit="10" stroke-width="0.5"/>
      <path id="Path_73845" data-name="Path 73845" d="M60.332,245.851l-.585-6.8a1.1,1.1,0,0,1-1.193-1l-16.633,1.439a1.109,1.109,0,0,1-1,1.193l.585,6.8a1.1,1.1,0,0,1,1.193,1l16.633-1.439a1.109,1.109,0,0,1,1-1.193Z" transform="translate(62.866 -113.192) rotate(17)" fill="none" stroke="#263238" stroke-miterlimit="10" stroke-width="0.5"/>
      <path id="Path_73846" data-name="Path 73846" d="M61.385,245.788a2.822,2.822,0,1,1-1-1.92A2.826,2.826,0,0,1,61.385,245.788Z" transform="matrix(0.978, 0.208, -0.208, 0.978, 33.581, -119.049)" fill="none" stroke="#263238" stroke-miterlimit="10" stroke-width="1"/>
      <path id="Path_73847" data-name="Path 73847" d="M60.788,248.439l.042.506h-.218l-.046-.5a1.657,1.657,0,0,1-1.081-.311l.1-.26a1.513,1.513,0,0,0,.956.288l-.1-1.156c-.5-.074-1-.181-1.049-.761-.037-.422.232-.817.9-.928l-.042-.506h.218l.042.5a1.745,1.745,0,0,1,.928.2l-.088.265a1.652,1.652,0,0,0-.8-.186l.1,1.165c.506.074,1.044.172,1.1.761C61.772,247.943,61.48,248.337,60.788,248.439Zm-.371-1.722-.1-1.1c-.464.079-.631.329-.608.608S60.046,246.657,60.417,246.717Zm1,.845c-.032-.348-.362-.464-.747-.5l.093,1.1C61.243,248.082,61.438,247.84,61.415,247.562Z" transform="matrix(0.978, 0.208, -0.208, 0.978, 31.845, -120.297)" fill="#263238"/>
      <ellipse id="Ellipse_1509" data-name="Ellipse 1509" cx="4.037" cy="4.037" rx="4.037" ry="4.037" transform="translate(78.071 28.472)" fill="none" stroke="#263238" stroke-miterlimit="10" stroke-width="1"/>
      <path id="Path_73848" data-name="Path 73848" d="M442.592,102.827v.724h-.334v-.719a2.4,2.4,0,0,1-1.508-.571l.181-.362a2.176,2.176,0,0,0,1.327.538V100.78c-.7-.172-1.392-.385-1.392-1.221,0-.6.436-1.128,1.392-1.2V97.62h.316v.719a2.446,2.446,0,0,1,1.281.394l-.158.371a2.32,2.32,0,0,0-1.123-.367v1.671c.71.172,1.462.371,1.462,1.221C444.054,102.238,443.595,102.771,442.592,102.827Zm-.316-2.5V98.752c-.65.056-.928.39-.928.789-.019.478.408.654.91.784Zm1.318,1.327c0-.5-.464-.668-1-.8v1.587C443.284,102.377,443.595,102.057,443.595,101.653Z" transform="translate(-360.303 -68.076)" fill="#263238"/>
      <ellipse id="Ellipse_1510" data-name="Ellipse 1510" cx="4.037" cy="4.037" rx="4.037" ry="4.037" transform="translate(136.734 79.59) rotate(-13.26)" fill="none" stroke="#263238" stroke-miterlimit="10" stroke-width="1"/>
      <path id="Path_73849" data-name="Path 73849" d="M381.393,210.924l-.376.617-.269-.167.376-.613a2.362,2.362,0,0,1-.984-1.276l.343-.213a2.163,2.163,0,0,0,.849,1.146l.872-1.415c-.506-.506-.993-1.058-.557-1.768.316-.515.961-.733,1.824-.292l.381-.622.269.167-.376.613a2.515,2.515,0,0,1,.886,1l-.329.237a2.367,2.367,0,0,0-.766-.9l-.877,1.425c.52.52,1.053,1.081.608,1.805C382.948,211.188,382.279,211.4,381.393,210.924Zm1.044-2.32.821-1.341c-.58-.292-1-.162-1.211.176-.251.432.014.807.39,1.188Zm.427,1.819c.26-.422-.042-.807-.436-1.207l-.826,1.346c.617.343,1.049.251,1.258-.116Z" transform="translate(-240.82 -126.331)" fill="#263238"/>
      <path id="Path_73852" data-name="Path 73852" d="M217.5,392.233a6.065,6.065,0,1,1-8.038-3,6.065,6.065,0,0,1,8.038,3Z" transform="translate(-107.45 -197.064)" fill="none" stroke="#263238" stroke-miterlimit="10" stroke-width="1"/>
      <path id="Path_73853" data-name="Path 73853" d="M217.276,399.9l.464.993-.432.195-.464-.984a3.555,3.555,0,0,1-2.418.158l.028-.6a3.216,3.216,0,0,0,2.139-.107l-1.035-2.265c-1.053.2-2.153.348-2.673-.789-.381-.826-.111-1.815,1.16-2.52l-.464-.988.427-.2.464.984a3.713,3.713,0,0,1,2-.265v.6a3.5,3.5,0,0,0-1.759.2l1.04,2.283c1.081-.213,2.232-.4,2.761.747C218.91,398.187,218.613,399.2,217.276,399.9Zm-1.986-3.216-.988-2.153c-.849.464-1.04,1.118-.789,1.666C213.81,396.851,214.5,396.827,215.29,396.684Zm2.627.988c-.311-.682-1.049-.626-1.856-.464l.984,2.153C217.958,398.855,218.167,398.224,217.917,397.672Z" transform="translate(-111.1 -199.265)" fill="#263238"/>
      <path id="Path_73854" data-name="Path 73854" d="M32.033,180.963a6.065,6.065,0,1,1,.552-8.562A6.065,6.065,0,0,1,32.033,180.963Z" transform="translate(67.135 -124.049)" fill="none" stroke="#263238" stroke-miterlimit="10" stroke-width="1"/>
      <path id="Path_73855" data-name="Path 73855" d="M28.649,182.16l-.817.719-.316-.357.812-.71a3.6,3.6,0,0,1-.849-2.274l.589-.149a3.249,3.249,0,0,0,.7,2.014l1.856-1.643c-.5-.951-.956-1.963,0-2.784.687-.6,1.708-.627,2.747.385l.845-.715.311.353-.812.715a3.713,3.713,0,0,1,.807,1.833l-.575.19a3.559,3.559,0,0,0-.7-1.629l-1.889,1.657c.515.97,1.03,2.019.079,2.859C30.747,183.227,29.694,183.26,28.649,182.16Zm2.506-2.831,1.777-1.564c-.705-.678-1.392-.673-1.819-.278-.557.473-.334,1.132.028,1.842Zm-.19,2.784c.566-.492.3-1.183-.088-1.926L29.1,181.752c.729.747,1.406.775,1.87.376Z" transform="translate(64.179 -127.381)" fill="#263238"/>
      <ellipse id="Ellipse_1511" data-name="Ellipse 1511" cx="2.928" cy="2.928" rx="2.928" ry="2.928" transform="matrix(0.04, -1, 1, 0.04, 44.96, 155.343)" fill="none" stroke="#263238" stroke-miterlimit="10" stroke-width="1"/>
      <path id="Path_73856" data-name="Path 73856" d="M95.922,302.331l.334.4-.172.144-.334-.4a1.727,1.727,0,0,1-1.109.381l-.065-.288a1.564,1.564,0,0,0,.984-.316l-.77-.928c-.464.227-.956.436-1.346-.028-.278-.334-.278-.831.223-1.323l-.339-.4.176-.144.334.4a1.8,1.8,0,0,1,.9-.376l.084.278a1.758,1.758,0,0,0-.794.32l.775.928c.464-.237.988-.464,1.392,0C96.474,301.323,96.465,301.834,95.922,302.331Zm-1.327-1.244-.733-.877c-.334.334-.339.654-.158.877S94.247,301.249,94.595,301.087Zm1.35.125c-.232-.274-.566-.158-.928.023l.733.877c.357-.353.381-.678.195-.9Z" transform="translate(-47.073 -149.231)" fill="#263238"/>
      <path id="Path_73857" data-name="Path 73857" d="M291.609,427.954a2.928,2.928,0,1,1-4.126-.376,2.928,2.928,0,0,1,4.126.376Z" transform="translate(-150.599 -257.545)" fill="none" stroke="#263238" stroke-miterlimit="10" stroke-width="1"/>
      <path id="Path_73858" data-name="Path 73858" d="M292.113,432.371l.339.4-.176.144-.334-.4a1.712,1.712,0,0,1-1.1.381l-.065-.288a1.536,1.536,0,0,0,.984-.316l-.77-.928c-.464.227-.961.436-1.346-.028-.283-.334-.283-.831.218-1.323l-.334-.4.176-.144.334.4a1.759,1.759,0,0,1,.9-.376l.084.278a1.778,1.778,0,0,0-.8.32l.78.928c.464-.237.988-.464,1.392,0C292.656,431.363,292.647,431.874,292.113,432.371Zm-1.332-1.262-.733-.877c-.339.334-.343.654-.158.877S290.429,431.289,290.781,431.108Zm1.346.13c-.232-.278-.566-.162-.928,0l.733.877c.362-.316.385-.64.195-.863Z" transform="translate(-152.217 -258.922)" fill="#263238"/>
      <ellipse id="Ellipse_1512" data-name="Ellipse 1512" cx="2.928" cy="2.928" rx="2.928" ry="2.928" transform="translate(63.764 62.96) rotate(-84.76)" fill="none" stroke="#263238" stroke-miterlimit="10" stroke-width="1"/>
      <path id="Path_73859" data-name="Path 73859" d="M117.99,68.27l.334.4-.176.144-.334-.4a1.7,1.7,0,0,1-1.1.381l-.065-.288a1.564,1.564,0,0,0,.984-.316l-.77-.928c-.464.227-.961.436-1.346-.028-.278-.334-.283-.831.223-1.323l-.339-.4.176-.144.334.4a1.777,1.777,0,0,1,.9-.376l.084.278a1.759,1.759,0,0,0-.794.32l.775.928c.464-.237.988-.464,1.392,0C118.533,67.263,118.52,67.774,117.99,68.27Zm-1.337-1.248-.733-.9c-.334.334-.343.654-.158.877S116.3,67.189,116.654,67.022Zm1.35.125c-.232-.274-.571-.158-.928,0l.733.877C118.167,67.7,118.19,67.375,118,67.147Z" transform="translate(-49.899 -6.793)" fill="#263238"/>
    </g>
    <g id="Hotel_Booking-pana" data-name="Hotel Booking-pana" transform="translate(179.788 4051.79)">
      <g id="freepik--Floor--inject-82" transform="translate(0 118.934)">
        <path id="Path_73254" data-name="Path 73254" d="M157.568,464.293c0,.042-27.256.073-60.871.073s-60.877-.031-60.877-.073,27.25-.073,60.877-.073S157.568,464.254,157.568,464.293Z" transform="translate(-35.82 -464.22)" fill="#263238"/>
      </g>
      <g id="freepik--Device--inject-82" transform="translate(29.501 0)">
        <path id="Path_73255" data-name="Path 73255" d="M176.042,158.907l-40.438-.022a8.81,8.81,0,0,1-8.8-8.8l.02-101.377a8.807,8.807,0,0,1,8.815-8.807l40.438.022a8.807,8.807,0,0,1,8.8,8.8l-.02,101.379a8.807,8.807,0,0,1-8.815,8.807Z" transform="translate(-126.8 -39.9)" fill="#263238"/>
        <path id="Path_73256" data-name="Path 73256" d="M184.123,52.647h-7.848a1.945,1.945,0,0,0-1.9,1.987v1.424a1.945,1.945,0,0,1-1.906,1.987H157.184a1.962,1.962,0,0,1-1.9-1.99V54.62a1.962,1.962,0,0,0-1.9-1.99h-9.611A6.166,6.166,0,0,0,137.6,58.8l-.02,98.944a6.166,6.166,0,0,0,6.166,6.166l40.362.022a6.166,6.166,0,0,0,6.166-6.166l.02-98.944a6.166,6.166,0,0,0-6.172-6.172Z" transform="translate(-134.558 -49.062)" fill="#fff"/>
        <path id="Path_73257" data-name="Path 73257" d="M183.876,52.456h.213a4.05,4.05,0,0,1,.625.048,5.782,5.782,0,0,1,2.312.8,5.948,5.948,0,0,1,1.4,1.141,6.2,6.2,0,0,1,1.174,1.842,6.388,6.388,0,0,1,.462,2.506V61.7c0,8.221,0,20.114.02,34.807s0,32.195,0,51.624v9.25a6.6,6.6,0,0,1-.235,1.881,6.234,6.234,0,0,1-.788,1.738,6.626,6.626,0,0,1-1.287,1.427,6.222,6.222,0,0,1-3.543,1.4c-1.292.036-2.576,0-3.876.017H143.962a6.505,6.505,0,0,1-4.019-1.121,6.3,6.3,0,0,1-2.444-3.38,6.749,6.749,0,0,1-.258-2.085V100.289c0-9.718,0-18.948.014-27.589V58.71c0-.249.022-.5.036-.748a3.594,3.594,0,0,1,.126-.734,6.26,6.26,0,0,1,6.326-4.857h9.233a1.962,1.962,0,0,1,1.214.339,2.046,2.046,0,0,1,.757.989,3.3,3.3,0,0,1,.123,1.219v.6a4.5,4.5,0,0,0,.02.589,1.962,1.962,0,0,0,.46,1.034,1.813,1.813,0,0,0,.961.6,2.029,2.029,0,0,0,.561.056h2.8l8.129.014h4.429a1.788,1.788,0,0,0,.754-.28,1.962,1.962,0,0,0,.866-1.242,3.527,3.527,0,0,0,.048-.748v-.729a4.079,4.079,0,0,1,.034-.718,2.065,2.065,0,0,1,.233-.661,1.94,1.94,0,0,1,.984-.872,3.041,3.041,0,0,1,1.225-.129h0a2.994,2.994,0,0,0-1.2.132,1.875,1.875,0,0,0-.953.841,2.032,2.032,0,0,0-.224.642,4.222,4.222,0,0,0-.031.709v.74a3.362,3.362,0,0,1-.048.762,2.026,2.026,0,0,1-.891,1.289,1.937,1.937,0,0,1-.785.28c-.28.025-.561,0-.841,0H157.071a2.147,2.147,0,0,1-.58-.056,1.928,1.928,0,0,1-1-.617,2.066,2.066,0,0,1-.488-1.088,4.83,4.83,0,0,1-.02-.6v-.53a3.193,3.193,0,0,0-.121-1.18,1.945,1.945,0,0,0-.712-.928A1.864,1.864,0,0,0,153,52.507h-9.233a6.127,6.127,0,0,0-4.916,2.178,6.2,6.2,0,0,0-1.27,2.559c-.062.235-.078.479-.121.72a4.572,4.572,0,0,0-.034.734v98.54a6.57,6.57,0,0,0,.252,2.038,6.119,6.119,0,0,0,2.377,3.282,6.321,6.321,0,0,0,3.924,1.079h36.385c1.295,0,2.593.02,3.868-.017a6.068,6.068,0,0,0,3.467-1.345,6.464,6.464,0,0,0,1.25-1.387,6.035,6.035,0,0,0,.768-1.682,6.447,6.447,0,0,0,.233-1.836v-9.247c0-19.43.02-36.929.028-51.624s.028-26.586.036-34.807V58.786a6.34,6.34,0,0,0-.448-2.486,6.221,6.221,0,0,0-4.852-3.8,5.229,5.229,0,0,0-.622-.056Z" transform="translate(-134.311 -48.872)" fill="#263238"/>
        <path id="Path_73258" data-name="Path 73258" d="M296.195,88.261c0,.028-1.02.056-2.279.067s-2.276,0-2.276-.031,1.017-.056,2.276-.064S296.195,88.236,296.195,88.261Z" transform="translate(-245.436 -74.684)" fill="#263238"/>
        <path id="Path_73259" data-name="Path 73259" d="M296.225,92.411c0,.025-1.017.056-2.276.067s-2.279,0-2.279-.031,1.02-.056,2.279-.067S296.225,92.383,296.225,92.411Z" transform="translate(-245.458 -77.667)" fill="#263238"/>
        <path id="Path_73260" data-name="Path 73260" d="M296.3,96.571c0,.025-1.02.056-2.279.064s-2.276,0-2.276-.028,1.017-.056,2.276-.067S296.3,96.543,296.3,96.571Z" transform="translate(-245.516 -80.661)" fill="#263238"/>
        <path id="Path_73261" data-name="Path 73261" d="M160.09,91.706h.359l.97-.022-.025.025V90.6a.376.376,0,0,1,.328-.3h.465a.378.378,0,0,1,.317.376c0,.328,0,.673,0,1.029l-.045-.045h1.228l-.048.048v-1.92a.4.4,0,0,0-.171-.28l-.535-.53-.519-.51-.252-.247a.561.561,0,0,0-.252-.191.328.328,0,0,0-.28.053c-.076.064-.154.154-.23.227l-.44.443c-.28.28-.561.561-.774.8a.841.841,0,0,0-.062.457v1.735a.9.9,0,0,1,0-.146c0-.121,0-.263-.014-.44s0-.434,0-.7v-.684a.493.493,0,0,1,.07-.255c.227-.28.5-.524.776-.821l.437-.448c.078-.076.143-.154.235-.233a.412.412,0,0,1,.356-.07.639.639,0,0,1,.294.21l.252.247.519.507.538.53a1.024,1.024,0,0,1,.137.149.4.4,0,0,1,.064.2c0,.132,0,.261,0,.392v1.575h-1.317V90.685a.3.3,0,0,0-.249-.3h-.446a.294.294,0,0,0-.263.238V91.75h-1.273a.407.407,0,0,1-.151-.045Z" transform="translate(-150.759 -74.467)" fill="#263238"/>
        <path id="Path_73262" data-name="Path 73262" d="M218.274,108.135c0,.325-.258.513-.751.513h-.973V106.77h.917c.471,0,.712.2.712.488a.451.451,0,0,1-.249.415A.462.462,0,0,1,218.274,108.135Zm-1.292-1.037v.443h.432c.213,0,.328-.076.328-.224s-.115-.219-.328-.219Zm.841.992c0-.157-.121-.233-.348-.233h-.507v.465h.507c.241,0,.362-.07.362-.233Z" transform="translate(-191.394 -88.027)" fill="#263238"/>
        <path id="Path_73263" data-name="Path 73263" d="M223.385,108.719a.8.8,0,1,1,.8.743.746.746,0,0,1-.8-.743Zm1.163,0a.367.367,0,1,0-.1.28A.37.37,0,0,0,224.549,108.719Z" transform="translate(-196.312 -88.818)" fill="#263238"/>
        <path id="Path_73264" data-name="Path 73264" d="M229.665,108.719a.8.8,0,1,1,.793.743.743.743,0,0,1-.793-.743Zm1.163,0a.367.367,0,1,0-.1.281A.37.37,0,0,0,230.829,108.719Z" transform="translate(-200.832 -88.818)" fill="#263238"/>
        <path id="Path_73265" data-name="Path 73265" d="M236.949,107.787l-.2.2v.367h-.418V106.36h.418v1.121l.614-.58h.5l-.6.611.656.841h-.507Z" transform="translate(-205.629 -87.732)" fill="#263238"/>
        <path id="Path_73266" data-name="Path 73266" d="M242.43,106.162a.241.241,0,0,1,.261-.235.235.235,0,0,1,.261.227.261.261,0,1,1-.521,0Zm.05.434h.42v1.444h-.42Z" transform="translate(-210.02 -87.419)" fill="#263238"/>
        <path id="Path_73267" data-name="Path 73267" d="M246.977,108.874v.841h-.42v-.762c0-.233-.107-.339-.28-.339a.348.348,0,0,0-.356.376v.712h-.42v-1.444h.4v.168a.628.628,0,0,1,.477-.191.561.561,0,0,1,.6.639Z" transform="translate(-212.229 -89.08)" fill="#263238"/>
        <path id="Path_73268" data-name="Path 73268" d="M253.448,108.245v1.2c0,.538-.28.785-.813.785a1.2,1.2,0,0,1-.709-.2l.168-.3a.872.872,0,0,0,.51.163c.28,0,.423-.135.423-.4v-.062a.594.594,0,0,1-.457.179.7.7,0,1,1,0-1.4.58.58,0,0,1,.479.207v-.185Zm-.42.676a.381.381,0,1,0-.378.356.35.35,0,0,0,.378-.356Z" transform="translate(-216.814 -89.068)" fill="#263238"/>
        <rect id="Rectangle_14970" data-name="Rectangle 14970" width="17.345" height="15.649" rx="2.55" transform="translate(8.271 44.749)" fill="#84aa96"/>
        <path id="Path_73269" data-name="Path 73269" d="M232.855,204.838v1.544H232.5v-.633h-.7v.633h-.356v-1.544h.356v.6h.7v-.608Z" transform="translate(-202.11 -158.601)" fill="#263238"/>
        <path id="Path_73270" data-name="Path 73270" d="M237.4,206.465a.653.653,0,1,1,.653.611.611.611,0,0,1-.653-.611Zm.953,0a.3.3,0,1,0-.3.328.3.3,0,0,0,.3-.328Z" transform="translate(-206.396 -159.278)" fill="#263238"/>
        <path id="Path_73271" data-name="Path 73271" d="M243.268,206.612a.471.471,0,0,1-.28.076.39.39,0,0,1-.443-.426v-.488h-.185v-.263h.179v-.28h.345v.28h.294v.263h-.294v.485a.137.137,0,0,0,.146.157.238.238,0,0,0,.14-.045Z" transform="translate(-209.969 -158.889)" fill="#263238"/>
        <path id="Path_73272" data-name="Path 73272" d="M247.087,206.777h-.9a.319.319,0,0,0,.339.238.418.418,0,0,0,.3-.115l.182.2a.7.7,0,0,1-1.169-.42.605.605,0,0,1,.633-.611.589.589,0,0,1,.619.617C247.093,206.71,247.087,206.746,247.087,206.777Zm-.905-.2h.586a.3.3,0,0,0-.586,0Z" transform="translate(-212.474 -159.491)" fill="#263238"/>
        <path id="Path_73273" data-name="Path 73273" d="M251.13,204.53h.345v1.637h-.345Z" transform="translate(-216.281 -158.385)" fill="#263238"/>
        <path id="Path_73274" data-name="Path 73274" d="M257.612,205.83l.129.258.283.042-.2.2.048.283-.255-.135-.255.135.05-.283-.207-.2.286-.042Z" transform="translate(-220.65 -159.321)" fill="#84aa96"/>
        <path id="Path_73275" data-name="Path 73275" d="M261.572,205.83l.126.258.286.042-.2.2.048.283-.255-.135-.255.135.05-.283-.207-.2.286-.042Z" transform="translate(-223.5 -159.321)" fill="#84aa96"/>
        <path id="Path_73276" data-name="Path 73276" d="M265.532,205.83l.129.258.283.042-.2.2.048.283-.255-.135-.255.135.05-.283-.207-.2.286-.042Z" transform="translate(-226.35 -159.321)" fill="#84aa96"/>
        <path id="Path_73277" data-name="Path 73277" d="M269.492,205.83l.129.258.283.042-.2.2.048.283-.255-.135-.255.135.05-.283-.207-.2.286-.042Z" transform="translate(-229.2 -159.321)" fill="#84aa96"/>
        <path id="Path_73278" data-name="Path 73278" d="M273.452,205.83l.129.258.283.042-.2.2.048.283-.255-.135-.255.135.05-.283-.207-.2.286-.042Z" transform="translate(-232.05 -159.321)" fill="#84aa96"/>
        <path id="Path_73279" data-name="Path 73279" d="M244.448,215.7c0,.042-2.688.073-6,.073s-6-.031-6-.073,2.688-.073,6-.073S244.448,215.664,244.448,215.7Z" transform="translate(-202.83 -166.374)" fill="#e0e0e0"/>
        <path id="Path_73280" data-name="Path 73280" d="M253.244,222.973c0,.039-4.863.073-10.856.073s-10.859-.034-10.859-.073,4.86-.073,10.859-.073S253.244,222.928,253.244,222.973Z" transform="translate(-202.175 -171.606)" fill="#263238"/>
        <path id="Path_73281" data-name="Path 73281" d="M243,230.413c0,.039-2.388.073-5.326.073s-5.326-.034-5.326-.073,2.385-.073,5.326-.073S243,230.371,243,230.413Z" transform="translate(-202.765 -176.961)" fill="#263238"/>
        <rect id="Rectangle_14971" data-name="Rectangle 14971" width="12.669" height="4.031" rx="2.015" transform="translate(29.159 55.68)" fill="#84aa96"/>
        <path id="Path_73282" data-name="Path 73282" d="M247.341,244.205c0,.193-.149.306-.437.306h-.544V243.37h.513c.261,0,.409.112.409.3a.292.292,0,0,0,.059.538Zm-.818-.7v.364h.336c.165,0,.261-.062.261-.182s-.1-.182-.261-.182Zm.653.687c0-.132-.1-.191-.28-.191h-.376v.387h.376C247.08,244.387,247.176,244.323,247.176,244.191Z" transform="translate(-212.848 -186.339)" fill="#fff"/>
        <path id="Path_73283" data-name="Path 73283" d="M250.389,244.72a.451.451,0,1,1,.451.443.429.429,0,0,1-.451-.443Zm.74,0a.29.29,0,1,0-.29.29A.29.29,0,0,0,251.129,244.72Z" transform="translate(-215.748 -186.979)" fill="#fff"/>
        <path id="Path_73284" data-name="Path 73284" d="M254.089,244.734a.448.448,0,1,1,.448.443.429.429,0,0,1-.448-.443Zm.737,0a.29.29,0,1,0-.29.29A.29.29,0,0,0,254.827,244.734Z" transform="translate(-218.411 -186.994)" fill="#fff"/>
        <path id="Path_73285" data-name="Path 73285" d="M258.4,243.927l-.179.165v.235h-.157V243.12h.157v.776l.471-.432h.2l-.362.359.4.5h-.193Z" transform="translate(-221.269 -186.159)" fill="#fff"/>
        <path id="Path_73286" data-name="Path 73286" d="M179.618,222.305a1.512,1.512,0,0,1,0-.177c0-.121,0-.28,0-.493,0-.44,0-1.062-.017-1.844,0-1.581-.02-3.8-.034-6.419l.067.064h-6.024c-.017,0,.137-.137.073-.073h0v8.93l-.059-.059,4.373.031h1.539a.561.561,0,0,1,.115,0,.665.665,0,0,1-.1,0h-1.514l-4.409.031h-.056V213.37h0c-.064.064.09-.09.076-.073h6.091v.067c-.014,2.632-.025,4.872-.034,6.464,0,.774-.014,1.4-.02,1.828v.482a1.1,1.1,0,0,1-.064.168Z" transform="translate(-160.449 -164.694)" fill="#fff"/>
        <path id="Path_73287" data-name="Path 73287" d="M188.769,209.148a8.028,8.028,0,0,1,.067,1.188v.064h-.863l-.073-.076h0v-1.247h.059a4.343,4.343,0,0,1,.8.059,5.951,5.951,0,0,1-.8.059l.059-.059v1.194h0c.064.067-.09-.087-.073-.07h.8l-.067.067a10.071,10.071,0,0,1,.1-1.18Z" transform="translate(-170.774 -161.658)" fill="#fff"/>
        <path id="Path_73288" data-name="Path 73288" d="M197.232,222.378a.761.761,0,0,1-.143,0h-2.161v-.042c-.017-2.01-.028-5.264-.028-8.933v-.073h2.4v.073c0,2.562-.022,4.813-.031,6.447,0,.788-.017,1.424-.022,1.878v.5a1.172,1.172,0,0,1,0,.168,1.716,1.716,0,0,1,0-.185v-.516c0-.457,0-1.1-.02-1.895,0-1.612-.02-3.843-.034-6.385l.073.07h-2.242l.073-.073c0,3.669,0,6.923-.031,8.933l-.042-.045,1.645.059.446.02A1.172,1.172,0,0,1,197.232,222.378Z" transform="translate(-175.812 -164.719)" fill="#fff"/>
        <rect id="Rectangle_14972" data-name="Rectangle 14972" width="0.933" height="0.933" transform="translate(14.104 49.797)" fill="#fff"/>
        <rect id="Rectangle_14973" data-name="Rectangle 14973" width="0.933" height="0.933" transform="translate(15.691 49.797)" fill="#fff"/>
        <rect id="Rectangle_14974" data-name="Rectangle 14974" width="0.933" height="0.933" transform="translate(17.274 49.797)" fill="#fff"/>
        <rect id="Rectangle_14975" data-name="Rectangle 14975" width="0.933" height="0.933" transform="translate(14.104 51.403)" fill="#fff"/>
        <rect id="Rectangle_14976" data-name="Rectangle 14976" width="0.933" height="0.933" transform="translate(15.691 51.403)" fill="#fff"/>
        <rect id="Rectangle_14977" data-name="Rectangle 14977" width="0.933" height="0.933" transform="translate(17.274 51.403)" fill="#fff"/>
        <rect id="Rectangle_14978" data-name="Rectangle 14978" width="0.933" height="0.933" transform="translate(14.104 53.009)" fill="#fff"/>
        <rect id="Rectangle_14979" data-name="Rectangle 14979" width="0.933" height="0.933" transform="translate(15.691 53.009)" fill="#fff"/>
        <rect id="Rectangle_14980" data-name="Rectangle 14980" width="0.933" height="0.933" transform="translate(17.274 53.009)" fill="#fff"/>
        <rect id="Rectangle_14981" data-name="Rectangle 14981" width="0.933" height="0.933" transform="translate(14.104 54.615)" fill="#fff"/>
        <rect id="Rectangle_14982" data-name="Rectangle 14982" width="0.933" height="0.933" transform="translate(15.691 54.615)" fill="#fff"/>
        <rect id="Rectangle_14983" data-name="Rectangle 14983" width="0.933" height="0.933" transform="translate(17.274 54.615)" fill="#fff"/>
        <rect id="Rectangle_14984" data-name="Rectangle 14984" width="0.933" height="0.933" transform="translate(19.749 49.797)" fill="#fff"/>
        <rect id="Rectangle_14985" data-name="Rectangle 14985" width="0.933" height="0.933" transform="translate(19.749 51.403)" fill="#fff"/>
        <rect id="Rectangle_14986" data-name="Rectangle 14986" width="0.933" height="0.933" transform="translate(19.749 53.009)" fill="#fff"/>
        <rect id="Rectangle_14987" data-name="Rectangle 14987" width="0.933" height="0.933" transform="translate(19.749 54.615)" fill="#fff"/>
        <rect id="Rectangle_14988" data-name="Rectangle 14988" width="0.914" height="1.446" transform="translate(15.797 56.165)" fill="#fff"/>
        <path id="Path_73289" data-name="Path 73289" d="M177.107,245.253c0,.039-2.9.073-6.475.073s-6.472-.034-6.472-.073,2.9-.073,6.472-.073S177.107,245.214,177.107,245.253Z" transform="translate(-153.688 -187.641)" fill="#fff"/>
        <path id="Path_73290" data-name="Path 73290" d="M193.328,210.315a1.725,1.725,0,0,0,.342-.05,1.4,1.4,0,0,0,.807-.561,1.359,1.359,0,0,0,.235-.692V205.85c0-3.4,0-8.316-.025-14.39a1.805,1.805,0,0,0-.05-.561,1.382,1.382,0,0,0-.255-.493,1.348,1.348,0,0,0-.984-.493H148.257A1.34,1.34,0,0,0,147,190.8a2.243,2.243,0,0,0-.078.841v17.367a1.348,1.348,0,0,0,.841,1.141,1.4,1.4,0,0,0,.359.087h4.2l21.342.017,14.379.028,3.924.014h0l-3.924.014-14.39.022-21.342.014H148.1a1.618,1.618,0,0,1-.4-.1,1.483,1.483,0,0,1-.925-1.259V191.179a1.4,1.4,0,0,1,.087-.443,1.486,1.486,0,0,1,1.4-.987h45.147a1.466,1.466,0,0,1,1.06.535,1.441,1.441,0,0,1,.28.533,1.962,1.962,0,0,1,.053.58c0,6.074-.017,10.99-.022,14.39v3.165a1.4,1.4,0,0,1-1.076,1.273,1.087,1.087,0,0,1-.255.036Z" transform="translate(-141.18 -147.748)" fill="#84aa96"/>
        <rect id="Rectangle_14989" data-name="Rectangle 14989" width="17.345" height="15.649" rx="2.55" transform="translate(7.759 67.884)" fill="#84aa96"/>
        <path id="Path_73291" data-name="Path 73291" d="M231.018,287.4v1.544h-.359v-.633h-.7v.633H229.6V287.4h.359v.608h.7V287.4Z" transform="translate(-200.786 -218.027)" fill="#263238"/>
        <path id="Path_73292" data-name="Path 73292" d="M235.556,289.005a.653.653,0,1,1,.653.611.611.611,0,0,1-.653-.611Zm.956,0a.13.13,0,1,0,.008,0Z" transform="translate(-205.072 -218.682)" fill="#263238"/>
        <path id="Path_73293" data-name="Path 73293" d="M241.438,289.152a.482.482,0,0,1-.28.076.392.392,0,0,1-.446-.426v-.488h-.182v-.263h.182v-.28h.345v.28h.3v.263h-.3v.485a.14.14,0,0,0,.149.157.247.247,0,0,0,.14-.045Z" transform="translate(-208.652 -218.294)" fill="#263238"/>
        <path id="Path_73294" data-name="Path 73294" d="M245.254,289.317h-.9a.314.314,0,0,0,.339.238.406.406,0,0,0,.3-.115l.185.2a.625.625,0,0,1-.491.191.617.617,0,0,1-.678-.611.605.605,0,0,1,.633-.611.586.586,0,0,1,.617.617C245.26,289.25,245.257,289.278,245.254,289.317Zm-.9-.2h.586a.3.3,0,0,0-.586,0Z" transform="translate(-211.157 -218.896)" fill="#263238"/>
        <path id="Path_73295" data-name="Path 73295" d="M249.29,287.07h.345v1.637h-.345Z" transform="translate(-214.957 -217.79)" fill="#263238"/>
        <path id="Path_73296" data-name="Path 73296" d="M255.782,288.37l.126.258.286.042-.207.2.05.283-.255-.135-.255.135.048-.283-.2-.2.283-.042Z" transform="translate(-219.333 -218.725)" fill="#84aa96"/>
        <path id="Path_73297" data-name="Path 73297" d="M259.742,288.37l.126.258.286.042-.207.2.05.283-.255-.135-.255.135.048-.283-.2-.2.283-.042Z" transform="translate(-222.183 -218.725)" fill="#84aa96"/>
        <path id="Path_73298" data-name="Path 73298" d="M263.7,288.37l.126.258.286.042-.207.2.05.283-.255-.135-.255.135.048-.283-.2-.2.283-.042Z" transform="translate(-225.033 -218.725)" fill="#84aa96"/>
        <path id="Path_73299" data-name="Path 73299" d="M267.662,288.37l.126.258.286.042-.207.2.05.283-.255-.135-.255.135.048-.283-.2-.2.283-.042Z" transform="translate(-227.883 -218.725)" fill="#e0e0e0"/>
        <path id="Path_73300" data-name="Path 73300" d="M271.622,288.37l.126.258.286.042-.207.2.05.283-.255-.135-.255.135.048-.283-.2-.2.283-.042Z" transform="translate(-230.733 -218.725)" fill="#e0e0e0"/>
        <path id="Path_73301" data-name="Path 73301" d="M242.615,298.243c0,.042-2.688.073-6,.073s-6-.031-6-.073,2.688-.073,6-.073S242.615,298.2,242.615,298.243Z" transform="translate(-201.513 -225.779)" fill="#e0e0e0"/>
        <path id="Path_73302" data-name="Path 73302" d="M251.432,305.513c0,.039-4.86.073-10.856.073s-10.856-.034-10.856-.073,4.86-.073,10.856-.073S251.432,305.471,251.432,305.513Z" transform="translate(-200.872 -231.011)" fill="#263238"/>
        <path id="Path_73303" data-name="Path 73303" d="M241.161,312.953c0,.039-2.385.073-5.326.073s-5.326-.034-5.326-.073,2.385-.073,5.326-.073S241.161,312.914,241.161,312.953Z" transform="translate(-201.441 -236.365)" fill="#263238"/>
        <path id="Path_73304" data-name="Path 73304" d="M239.813,324.782a1.628,1.628,0,0,0,.306-.042,1.7,1.7,0,0,0,.776-.387,1.648,1.648,0,0,0,.561-1.214v-.872a1.682,1.682,0,0,0-.37-.869,1.648,1.648,0,0,0-.875-.541,2.04,2.04,0,0,0-.561-.045h-9.124a1.62,1.62,0,0,0-1.584,1.3,4.52,4.52,0,0,0-.031.734,2.181,2.181,0,0,0,.073.709,1.62,1.62,0,0,0,1.528,1.141l4.846.017,3.268.022.889.014h.308a.279.279,0,0,1-.078,0h-1.118l-3.268.025-4.849.014a1.757,1.757,0,0,1-1.659-1.233,2.285,2.285,0,0,1-.081-.751,4.412,4.412,0,0,1,.034-.762,1.763,1.763,0,0,1,1.724-1.421h9.124a2.282,2.282,0,0,1,.586.053,1.749,1.749,0,0,1,.931.586,1.771,1.771,0,0,1,.381.922c.017.322,0,.605,0,.883a1.713,1.713,0,0,1-.608,1.256,1.651,1.651,0,0,1-.807.373,1.388,1.388,0,0,1-.23.02A.263.263,0,0,1,239.813,324.782Z" transform="translate(-200.185 -241.939)" fill="#84aa96"/>
        <path id="Path_73305" data-name="Path 73305" d="M245.481,326.742c0,.2-.149.308-.437.308H244.5V325.91h.51c.263,0,.409.112.409.28a.3.3,0,0,0,.062.552Zm-.818-.7v.367H245c.165,0,.261-.064.261-.185s-.1-.182-.261-.182Zm.653.69c0-.132-.1-.191-.28-.191h-.376v.378h.376c.191,0,.289-.056.289-.188Z" transform="translate(-211.509 -245.743)" fill="#84aa96"/>
        <path id="Path_73306" data-name="Path 73306" d="M248.559,327.274a.448.448,0,1,1,.451.443.429.429,0,0,1-.451-.443Zm.74,0a.292.292,0,1,0-.292.292A.292.292,0,0,0,249.3,327.274Z" transform="translate(-214.431 -246.398)" fill="#84aa96"/>
        <path id="Path_73307" data-name="Path 73307" d="M252.249,327.274a.448.448,0,1,1,.451.443.429.429,0,0,1-.451-.443Zm.74,0a.29.29,0,1,0-.29.29A.29.29,0,0,0,252.989,327.274Z" transform="translate(-217.087 -246.398)" fill="#84aa96"/>
        <path id="Path_73308" data-name="Path 73308" d="M256.564,326.492l-.179.165v.241h-.154V325.69h.154v.774l.471-.429h.191l-.364.356.4.507h-.193Z" transform="translate(-219.952 -245.585)" fill="#84aa96"/>
        <path id="Path_73309" data-name="Path 73309" d="M177.764,304.874v-.67c0-.44,0-1.062-.02-1.844,0-1.581-.02-3.8-.031-6.422l.064.067h-6.024l.073-.07h0v8.93l-.059-.059,4.37.031,1.219.014h.322a.5.5,0,0,1,.112,0,.6.6,0,0,1-.1,0h-.311l-1.205.017-4.406.031h-.059v-8.955h0c-.064.064.09-.09.073-.076h6.091v.064c-.014,2.635-.025,4.874-.034,6.464,0,.776,0,1.4-.017,1.83v.482A1.1,1.1,0,0,1,177.764,304.874Z" transform="translate(-159.11 -224.121)" fill="#fff"/>
        <path id="Path_73310" data-name="Path 73310" d="M186.9,291.674a8.484,8.484,0,0,1,.067,1.186v.067H186.1l-.073-.073h0V291.6h.056a4.441,4.441,0,0,1,.8.059,6.079,6.079,0,0,1-.8.059l.059-.059v1.194h0l-.073-.073h.8l-.067.064A10.052,10.052,0,0,1,186.9,291.674Z" transform="translate(-169.428 -221.048)" fill="#fff"/>
        <path id="Path_73311" data-name="Path 73311" d="M195.392,304.911a1.255,1.255,0,0,1-.143,0h-2.158v-.042c-.017-2.01-.031-5.267-.031-8.936v-.073h2.4v.07c0,2.565-.025,4.813-.034,6.447,0,.788-.014,1.424-.02,1.878v.5a.675.675,0,0,1,0,.168,1.72,1.72,0,0,1,0-.185c0-.132,0-.3,0-.516,0-.46,0-1.1-.02-1.895,0-1.612-.02-3.843-.034-6.388l.07.073h-2.242l.073-.073c0,3.669,0,6.926-.028,8.936l-.042-.045,1.645.059.446.02A1.1,1.1,0,0,1,195.392,304.911Z" transform="translate(-174.488 -224.116)" fill="#fff"/>
        <rect id="Rectangle_14990" data-name="Rectangle 14990" width="0.933" height="0.933" transform="translate(13.591 72.932)" fill="#fff"/>
        <rect id="Rectangle_14991" data-name="Rectangle 14991" width="0.933" height="0.933" transform="translate(15.175 72.932)" fill="#fff"/>
        <rect id="Rectangle_14992" data-name="Rectangle 14992" width="0.933" height="0.933" transform="translate(16.762 72.932)" fill="#fff"/>
        <rect id="Rectangle_14993" data-name="Rectangle 14993" width="0.933" height="0.933" transform="translate(13.591 74.538)" fill="#fff"/>
        <rect id="Rectangle_14994" data-name="Rectangle 14994" width="0.933" height="0.933" transform="translate(15.175 74.538)" fill="#fff"/>
        <rect id="Rectangle_14995" data-name="Rectangle 14995" width="0.933" height="0.933" transform="translate(16.762 74.538)" fill="#fff"/>
        <rect id="Rectangle_14996" data-name="Rectangle 14996" width="0.933" height="0.933" transform="translate(13.591 76.145)" fill="#fff"/>
        <rect id="Rectangle_14997" data-name="Rectangle 14997" width="0.933" height="0.933" transform="translate(15.175 76.145)" fill="#fff"/>
        <rect id="Rectangle_14998" data-name="Rectangle 14998" width="0.933" height="0.933" transform="translate(16.762 76.145)" fill="#fff"/>
        <rect id="Rectangle_14999" data-name="Rectangle 14999" width="0.933" height="0.933" transform="translate(13.591 77.751)" fill="#fff"/>
        <rect id="Rectangle_15000" data-name="Rectangle 15000" width="0.933" height="0.933" transform="translate(15.175 77.751)" fill="#fff"/>
        <rect id="Rectangle_15001" data-name="Rectangle 15001" width="0.933" height="0.933" transform="translate(16.762 77.751)" fill="#fff"/>
        <rect id="Rectangle_15002" data-name="Rectangle 15002" width="0.933" height="0.933" transform="translate(19.234 72.932)" fill="#fff"/>
        <rect id="Rectangle_15003" data-name="Rectangle 15003" width="0.933" height="0.933" transform="translate(19.234 74.538)" fill="#fff"/>
        <rect id="Rectangle_15004" data-name="Rectangle 15004" width="0.933" height="0.933" transform="translate(19.234 76.145)" fill="#fff"/>
        <rect id="Rectangle_15005" data-name="Rectangle 15005" width="0.933" height="0.933" transform="translate(19.234 77.751)" fill="#fff"/>
        <rect id="Rectangle_15006" data-name="Rectangle 15006" width="0.914" height="1.446" transform="translate(15.284 79.301)" fill="#fff"/>
        <path id="Path_73312" data-name="Path 73312" d="M175.27,327.813c0,.039-2.9.073-6.475.073s-6.475-.034-6.475-.073,2.9-.073,6.475-.073S175.27,327.765,175.27,327.813Z" transform="translate(-152.364 -247.06)" fill="#fff"/>
        <rect id="Rectangle_15007" data-name="Rectangle 15007" width="17.345" height="15.649" rx="2.55" transform="translate(7.972 90.866)" fill="#84aa96"/>
        <path id="Path_73313" data-name="Path 73313" d="M231.778,369.39v1.544h-.359V370.3h-.7v.633h-.359V369.39h.359V370h.7v-.608Z" transform="translate(-201.333 -277.036)" fill="#263238"/>
        <path id="Path_73314" data-name="Path 73314" d="M236.317,371a.653.653,0,1,1,.653.614.614.614,0,0,1-.653-.614Zm.956,0a.3.3,0,1,0-.077.233.3.3,0,0,0,.077-.233Z" transform="translate(-205.619 -277.698)" fill="#263238"/>
        <path id="Path_73315" data-name="Path 73315" d="M242.2,371.145a.493.493,0,0,1-.28.076.392.392,0,0,1-.443-.429v-.485h-.185v-.266h.2v-.28h.342v.28h.3v.266h-.3v.482a.14.14,0,0,0,.149.157.247.247,0,0,0,.14-.045Z" transform="translate(-209.199 -277.302)" fill="#263238"/>
        <path id="Path_73316" data-name="Path 73316" d="M246.007,371.307h-.9a.317.317,0,0,0,.339.238.4.4,0,0,0,.3-.115l.185.2a.628.628,0,0,1-.491.193.619.619,0,0,1-.678-.614.605.605,0,0,1,.628-.611.589.589,0,0,1,.619.617A.255.255,0,0,1,246.007,371.307Zm-.9-.2h.586a.3.3,0,0,0-.586,0Z" transform="translate(-211.697 -277.905)" fill="#263238"/>
        <path id="Path_73317" data-name="Path 73317" d="M250.06,369.06h.342V370.7h-.342Z" transform="translate(-215.511 -276.799)" fill="#263238"/>
        <path id="Path_73318" data-name="Path 73318" d="M256.542,370.37l.126.258.286.039-.207.2.05.283-.255-.135-.255.135.05-.283-.207-.2.283-.039Z" transform="translate(-219.88 -277.741)" fill="#84aa96"/>
        <path id="Path_73319" data-name="Path 73319" d="M260.5,370.37l.126.258.286.039-.207.2.05.283-.255-.135-.255.135.048-.283-.2-.2.286-.039Z" transform="translate(-222.73 -277.741)" fill="#84aa96"/>
        <path id="Path_73320" data-name="Path 73320" d="M264.462,370.37l.126.258.286.039-.207.2.05.283-.255-.135-.255.135.05-.283-.207-.2.286-.039Z" transform="translate(-225.58 -277.741)" fill="#e0e0e0"/>
        <path id="Path_73321" data-name="Path 73321" d="M268.422,370.37l.126.258.286.039-.207.2.05.283-.255-.135-.255.135.05-.283-.207-.2.286-.039Z" transform="translate(-228.43 -277.741)" fill="#e0e0e0"/>
        <path id="Path_73322" data-name="Path 73322" d="M272.382,370.37l.126.258.286.039-.2.2.048.283-.255-.135-.255.135.05-.283-.207-.2.286-.039Z" transform="translate(-231.28 -277.741)" fill="#e0e0e0"/>
        <path id="Path_73323" data-name="Path 73323" d="M243.378,380.236c0,.039-2.688.073-6,.073s-6-.034-6-.073,2.688-.076,6-.076S243.378,380.194,243.378,380.236Z" transform="translate(-202.06 -284.787)" fill="#e0e0e0"/>
        <path id="Path_73324" data-name="Path 73324" d="M252.244,387.5c0,.039-4.863.073-10.859.073s-10.856-.034-10.856-.073,4.86-.073,10.856-.073S252.244,387.464,252.244,387.5Z" transform="translate(-201.455 -290.02)" fill="#263238"/>
        <path id="Path_73325" data-name="Path 73325" d="M241.921,394.943c0,.039-2.385.073-5.326.073s-5.326-.034-5.326-.073,2.385-.073,5.326-.073S241.921,394.906,241.921,394.943Z" transform="translate(-201.988 -295.374)" fill="#263238"/>
        <path id="Path_73326" data-name="Path 73326" d="M240.586,406.8a1.558,1.558,0,0,0,.306-.045,1.682,1.682,0,0,0,.774-.387,1.654,1.654,0,0,0,.561-1.214c0-.28,0-.561-.014-.872a1.629,1.629,0,0,0-1.245-1.4,2.261,2.261,0,0,0-.561-.045h-9.124a1.62,1.62,0,0,0-1.289.645,1.556,1.556,0,0,0-.294.659,4,4,0,0,0-.031.737,2.122,2.122,0,0,0,.07.709,1.662,1.662,0,0,0,.339.6,1.606,1.606,0,0,0,1.188.541l4.846.017,3.268.025h1.2a.444.444,0,0,1-.078,0h-.233l-.889.014-3.268.022-4.849.014a1.749,1.749,0,0,1-1.289-.583,1.774,1.774,0,0,1-.37-.647,2.222,2.222,0,0,1-.079-.751,4.176,4.176,0,0,1,.031-.765,1.763,1.763,0,0,1,1.727-1.421h9.124a2.293,2.293,0,0,1,.586.053,1.729,1.729,0,0,1,1.309,1.511c.017.32,0,.605,0,.883a1.707,1.707,0,0,1-.608,1.253,1.651,1.651,0,0,1-.807.373,1.123,1.123,0,0,1-.23.02A.325.325,0,0,1,240.586,406.8Z" transform="translate(-200.728 -300.969)" fill="#84aa96"/>
        <path id="Path_73327" data-name="Path 73327" d="M246.271,408.735c0,.193-.149.306-.437.306h-.544V407.9h.513c.261,0,.406.112.406.3a.263.263,0,0,1-.151.252A.28.28,0,0,1,246.271,408.735Zm-.818-.7v.364h.334c.168,0,.261-.062.261-.182s-.092-.182-.261-.182Zm.653.687c0-.132-.1-.191-.28-.191h-.376v.378h.376C246.008,408.909,246.106,408.853,246.106,408.721Z" transform="translate(-212.078 -304.752)" fill="#84aa96"/>
        <path id="Path_73328" data-name="Path 73328" d="M249.319,409.25a.451.451,0,1,1,.451.443.429.429,0,0,1-.451-.443Zm.74,0a.121.121,0,1,0,.011,0Z" transform="translate(-214.978 -305.392)" fill="#84aa96"/>
        <path id="Path_73329" data-name="Path 73329" d="M253,409.25a.451.451,0,1,1,.451.443.429.429,0,0,1-.451-.443Zm.74,0a.29.29,0,1,0-.29.29A.29.29,0,0,0,253.739,409.25Z" transform="translate(-217.626 -305.392)" fill="#84aa96"/>
        <path id="Path_73330" data-name="Path 73330" d="M257.334,408.489l-.179.165v.244H257V407.69h.157v.776l.471-.432h.188l-.364.359.39.5h-.193Z" transform="translate(-220.506 -304.601)" fill="#84aa96"/>
        <path id="Path_73331" data-name="Path 73331" d="M178.541,386.88a1.515,1.515,0,0,1,0-.177v-.493c0-.44,0-1.062-.017-1.844,0-1.581-.02-3.8-.034-6.419l.067.067h-6.023c-.02.014.137-.137.07-.073h0v8.93l-.059-.059,4.373.031,1.216.014h.437a.408.408,0,0,1-.1,0h-.311l-1.2.014-4.409.031h-.056V377.95h0c-.064.064.09-.09.076-.073h6.091v.067c0,2.635-.022,4.872-.031,6.464,0,.774-.014,1.4-.02,1.828v.482A.95.95,0,0,1,178.541,386.88Z" transform="translate(-159.672 -283.143)" fill="#fff"/>
        <path id="Path_73332" data-name="Path 73332" d="M187.669,373.671a8.029,8.029,0,0,1,.067,1.188v.064h-.863l-.073-.073h0V373.6h.059a4.424,4.424,0,0,1,.8.059,6.068,6.068,0,0,1-.8.059l.056-.059v1.194h0l-.073-.073h.8l-.067.067A10.124,10.124,0,0,1,187.669,373.671Z" transform="translate(-169.982 -280.064)" fill="#fff"/>
        <path id="Path_73333" data-name="Path 73333" d="M196.212,386.915a.764.764,0,0,1-.143,0h-2.141v-.039c-.017-2.01-.028-5.264-.028-8.933v-.073h2.394v.073c0,2.562-.022,4.813-.031,6.447,0,.79-.017,1.424-.022,1.878v.5a1.146,1.146,0,0,1,0,.165v-.7c0-.457,0-1.1-.02-1.895,0-1.612-.02-3.843-.034-6.385l.073.07h-2.242l.073-.073c0,3.669,0,6.923-.031,8.933l-.042-.042,1.592.034.446.02Z" transform="translate(-175.092 -283.139)" fill="#fff"/>
        <rect id="Rectangle_15008" data-name="Rectangle 15008" width="0.933" height="0.933" transform="translate(13.804 95.914)" fill="#fff"/>
        <rect id="Rectangle_15009" data-name="Rectangle 15009" width="0.933" height="0.933" transform="translate(15.388 95.914)" fill="#fff"/>
        <rect id="Rectangle_15010" data-name="Rectangle 15010" width="0.933" height="0.933" transform="translate(16.975 95.914)" fill="#fff"/>
        <rect id="Rectangle_15011" data-name="Rectangle 15011" width="0.933" height="0.933" transform="translate(13.804 97.52)" fill="#fff"/>
        <rect id="Rectangle_15012" data-name="Rectangle 15012" width="0.933" height="0.933" transform="translate(15.388 97.52)" fill="#fff"/>
        <rect id="Rectangle_15013" data-name="Rectangle 15013" width="0.933" height="0.933" transform="translate(16.975 97.52)" fill="#fff"/>
        <rect id="Rectangle_15014" data-name="Rectangle 15014" width="0.933" height="0.933" transform="translate(13.804 99.126)" fill="#fff"/>
        <rect id="Rectangle_15015" data-name="Rectangle 15015" width="0.933" height="0.933" transform="translate(15.388 99.126)" fill="#fff"/>
        <rect id="Rectangle_15016" data-name="Rectangle 15016" width="0.933" height="0.933" transform="translate(16.975 99.126)" fill="#fff"/>
        <rect id="Rectangle_15017" data-name="Rectangle 15017" width="0.933" height="0.933" transform="translate(13.804 100.732)" fill="#fff"/>
        <rect id="Rectangle_15018" data-name="Rectangle 15018" width="0.933" height="0.933" transform="translate(15.388 100.732)" fill="#fff"/>
        <rect id="Rectangle_15019" data-name="Rectangle 15019" width="0.933" height="0.933" transform="translate(16.975 100.732)" fill="#fff"/>
        <rect id="Rectangle_15020" data-name="Rectangle 15020" width="0.933" height="0.933" transform="translate(19.45 95.914)" fill="#fff"/>
        <rect id="Rectangle_15021" data-name="Rectangle 15021" width="0.933" height="0.933" transform="translate(19.45 97.52)" fill="#fff"/>
        <rect id="Rectangle_15022" data-name="Rectangle 15022" width="0.933" height="0.933" transform="translate(19.45 99.126)" fill="#fff"/>
        <rect id="Rectangle_15023" data-name="Rectangle 15023" width="0.933" height="0.933" transform="translate(19.45 100.732)" fill="#fff"/>
        <rect id="Rectangle_15024" data-name="Rectangle 15024" width="0.914" height="1.446" transform="translate(15.497 102.282)" fill="#fff"/>
        <path id="Path_73334" data-name="Path 73334" d="M176.03,409.813c0,.039-2.9.073-6.475.073s-6.475-.034-6.475-.073,2.9-.073,6.475-.073S176.03,409.765,176.03,409.813Z" transform="translate(-152.911 -306.076)" fill="#fff"/>
        <path id="Path_73335" data-name="Path 73335" d="M162.577,125.58h35.651a1.987,1.987,0,0,1,1.987,1.987v2a1.99,1.99,0,0,1-1.99,1.99H162.577a1.987,1.987,0,0,1-1.987-1.987v-2a1.987,1.987,0,0,1,1.987-1.99Z" transform="translate(-151.119 -101.564)" fill="#ebebeb"/>
        <path id="Path_73336" data-name="Path 73336" d="M286.632,132.623a.64.64,0,0,0-.045-.2.807.807,0,0,0-1.048-.541.788.788,0,1,0,.746,1.368.8.8,0,0,0,.3-.434c.036-.123.036-.2.045-.2s0,.017,0,.053a.544.544,0,0,1-.014.151.818.818,0,0,1-.3.479.863.863,0,1,1,0-1.368.821.821,0,0,1,.3.476.561.561,0,0,1,.014.154C286.649,132.6,286.646,132.623,286.632,132.623Z" transform="translate(-240.607 -106.012)" fill="#263238"/>
        <path id="Path_73337" data-name="Path 73337" d="M290.76,137.862a1.6,1.6,0,0,1-.4-.367,1.578,1.578,0,0,1-.336-.434,1.642,1.642,0,0,1,.406.37A1.663,1.663,0,0,1,290.76,137.862Z" transform="translate(-244.27 -109.827)" fill="#263238"/>
        <path id="Path_73338" data-name="Path 73338" d="M173.164,134.822H172.8v-.132h.88v.132h-.364v.933h-.151Z" transform="translate(-159.906 -108.121)" fill="#263238"/>
        <path id="Path_73339" data-name="Path 73339" d="M175.889,135.956a.42.42,0,1,1,.42.415.4.4,0,0,1-.42-.415Zm.692,0a.28.28,0,1,0-.28.28.266.266,0,0,0,.28-.28Z" transform="translate(-162.13 -108.725)" fill="#263238"/>
        <path id="Path_73340" data-name="Path 73340" d="M179.358,135.734a.1.1,0,0,1,.1-.1.1.1,0,0,1,.1.1.1.1,0,0,1-.1.1.1.1,0,0,1-.1-.1Zm0,.614a.1.1,0,0,1,.1-.1.1.1,0,0,1,.1.1.1.1,0,0,1-.1.107.1.1,0,0,1-.1-.118Z" transform="translate(-164.625 -108.797)" fill="#263238"/>
        <path id="Path_73341" data-name="Path 73341" d="M211.143,136.983c0,.039-4.544.073-10.147.073s-10.147-.034-10.147-.073,4.544-.073,10.147-.073S211.143,136.935,211.143,136.983Z" transform="translate(-172.897 -109.719)" fill="#263238"/>
        <rect id="Rectangle_15025" data-name="Rectangle 15025" width="39.628" height="5.973" rx="2.987" transform="translate(9.468 32.043)" fill="#ebebeb"/>
        <path id="Path_73342" data-name="Path 73342" d="M286.621,162.22a.641.641,0,0,0-.045-.2.822.822,0,0,0-.3-.434.788.788,0,1,0,0,1.261.807.807,0,0,0,.3-.432c.036-.123.036-.2.045-.2s0,.02,0,.053a.561.561,0,0,1-.014.154.821.821,0,0,1-.3.477.855.855,0,0,1-.816.135.866.866,0,0,1,0-1.634.855.855,0,0,1,.846.123.813.813,0,0,1,.3.477.543.543,0,0,1,.014.151C286.638,162.2,286.635,162.22,286.621,162.22Z" transform="translate(-240.596 -127.303)" fill="#263238"/>
        <path id="Path_73343" data-name="Path 73343" d="M290.76,167.5a1.719,1.719,0,0,1-.4-.37,1.637,1.637,0,0,1-.336-.432,1.643,1.643,0,0,1,.406.37A1.662,1.662,0,0,1,290.76,167.5Z" transform="translate(-244.27 -131.159)" fill="#263238"/>
        <path id="Path_73344" data-name="Path 73344" d="M173.34,162.253h.465a.535.535,0,1,1,0,1.065h-.451Zm.44.933a.4.4,0,0,0,0-.8h-.28v.8Z" transform="translate(-160.295 -127.956)" fill="#263238"/>
        <path id="Path_73345" data-name="Path 73345" d="M178.194,163.477v.488h-.14v-.107a.3.3,0,0,1-.263.115c-.182,0-.3-.1-.3-.238s.084-.235.325-.235h.233v-.028c0-.123-.073-.2-.219-.2a.406.406,0,0,0-.255.087l-.062-.109a.538.538,0,0,1,.334-.1C178.079,163.149,178.194,163.256,178.194,163.477Zm-.146.241v-.112h-.227c-.143,0-.185.056-.185.123s.067.132.179.132a.235.235,0,0,0,.244-.143Z" transform="translate(-163.282 -128.603)" fill="#263238"/>
        <path id="Path_73346" data-name="Path 73346" d="M181.159,163.486a.261.261,0,0,1-.177.056.23.23,0,0,1-.255-.252v-.443h-.137v-.121h.137v-.177h.146v.177h.233v.121h-.233v.437a.118.118,0,0,0,.126.135.193.193,0,0,0,.115-.036Z" transform="translate(-165.513 -128.172)" fill="#263238"/>
        <path id="Path_73347" data-name="Path 73347" d="M183.662,163.609h-.656a.28.28,0,0,0,.28.238.314.314,0,0,0,.235-.1l.078.092a.4.4,0,0,1-.317.132.4.4,0,0,1-.434-.412.4.4,0,0,1,.406-.412.39.39,0,0,1,.4.418A.211.211,0,0,1,183.662,163.609Zm-.656-.1h.519a.252.252,0,0,0-.258-.233A.255.255,0,0,0,183.006,163.506Z" transform="translate(-167.139 -128.603)" fill="#263238"/>
        <path id="Path_73348" data-name="Path 73348" d="M186.24,163.254a.1.1,0,0,1,.1-.1.107.107,0,0,1,0,.21.1.1,0,0,1-.1-.107Zm0,.617a.1.1,0,0,1,.1-.1.1.1,0,0,1,.1.1.1.1,0,0,1-.1.1A.1.1,0,0,1,186.24,163.87Z" transform="translate(-169.579 -128.604)" fill="#263238"/>
        <path id="Path_73349" data-name="Path 73349" d="M197.877,164.591a12.327,12.327,0,0,1-2.677,0,12.327,12.327,0,0,1,2.677,0Z" transform="translate(-176.028 -129.582)" fill="#263238"/>
        <path id="Path_73350" data-name="Path 73350" d="M219.152,164.683c0,.042-1.926.073-4.3.073s-4.3-.031-4.3-.073,1.926-.073,4.3-.073S219.152,164.644,219.152,164.683Z" transform="translate(-187.075 -129.655)" fill="#263238"/>
      </g>
      <g id="freepik--Character--inject-82" transform="translate(75.527 21.569)">
        <path id="Path_73351" data-name="Path 73351" d="M428.008,203.469h-3l-4.552,13.064,6.946,10.287c2.153.451,4.667.816,6.312-.642,1.354-1.2,1.586-3.2,1.657-5.014a72.038,72.038,0,0,0-.188-8.731,13.812,13.812,0,0,0-1.651-6.287c-1.163-1.856-3.394-3.2-5.527-2.677" transform="translate(-384.175 -179.109)" fill="#455a64"/>
        <path id="Path_73352" data-name="Path 73352" d="M453.391,227.214a2.431,2.431,0,0,0,.249-.05,1.4,1.4,0,0,0,.608-.373,2.054,2.054,0,0,0,.524-1,9.7,9.7,0,0,0,.177-1.516,86.311,86.311,0,0,0,.179-8.88,44.637,44.637,0,0,0-.367-4.872,15.105,15.105,0,0,0-1.045-3.832,10.492,10.492,0,0,0-1.354-2.31c-.2-.249-.362-.434-.474-.561l-.126-.143a.32.32,0,0,1-.042-.05s.02,0,.053.042l.137.132c.121.118.28.3.493.541a10.074,10.074,0,0,1,1.4,2.3,14.968,14.968,0,0,1,1.076,3.857,42.24,42.24,0,0,1,.381,4.886,77.166,77.166,0,0,1-.224,8.894,9.034,9.034,0,0,1-.2,1.53,2.1,2.1,0,0,1-.561,1.017,1.4,1.4,0,0,1-.639.359A.782.782,0,0,1,453.391,227.214Z" transform="translate(-406.673 -179.307)" fill="#263238"/>
        <path id="Path_73353" data-name="Path 73353" d="M467.134,258.71a2.309,2.309,0,0,1-1.3.468,2.335,2.335,0,0,1-1.371-.216,7.192,7.192,0,0,0,1.357.07,7.658,7.658,0,0,0,1.317-.322Z" transform="translate(-415.842 -218.948)" fill="#263238"/>
        <path id="Path_73354" data-name="Path 73354" d="M466.319,235.629a2.909,2.909,0,0,1-1.32.516,2.851,2.851,0,0,1-1.418-.034c0-.045.636.028,1.4-.109S466.3,235.587,466.319,235.629Z" transform="translate(-415.208 -202.333)" fill="#263238"/>
        <path id="Path_73355" data-name="Path 73355" d="M448.122,199.55s-.373-1.469.317-1.556,2.688.793,2.382,1.578a6.236,6.236,0,0,1-.684,1.295l-.28-.381s.477-.589.42-.992-1.382-1.1-1.584-.692a1.906,1.906,0,0,0-.2.771Z" transform="translate(-404.01 -175.247)" fill="#263238"/>
        <path id="Path_73356" data-name="Path 73356" d="M310.375,209.8l-11.977.233-1.937-.168s-4.381-.123-4.8-.188c-.485-.076-.639.14-.653.32-.025.28.28.533.7.611.143.025,2.419.359,2.419.359a5.564,5.564,0,0,0-.681.345,2.54,2.54,0,0,0-.942,1.836c-.1.813-.056,1.051.258,1.1a.409.409,0,0,0,.331-.112,1.144,1.144,0,0,0,.308-.6c.266-1.55.883-1.449.883-1.449h.28s-.7.729-.561,1.4a.723.723,0,0,0,.118.28A1.026,1.026,0,0,0,295.5,214.9c.163-.062.325-.2.317-.37a.5.5,0,0,0-.1-.249,1.119,1.119,0,0,1-.067-.129l.718-.039s1.609-.171,2.318-.165l11.254.373c1.6.168,3.335-.171,3.476-1.774h0C313.547,210.77,312.126,209.708,310.375,209.8Z" transform="translate(-291.005 -183.65)" fill="#ffbe9d"/>
        <path id="Path_73357" data-name="Path 73357" d="M308.135,211.405a.6.6,0,0,1-.415.561c-.23.1-.488.112-.723.191-.709.235-1.149,1.006-1.87,1.208-.1.028-.233.031-.28-.062s.017-.185.076-.261l1.516-1.962" transform="translate(-300.956 -184.669)" fill="#ffbe9d"/>
        <path id="Path_73358" data-name="Path 73358" d="M306.273,211.1a.983.983,0,0,0-.188.193c-.112.132-.28.325-.462.561l-.676.841-.193.247a.476.476,0,0,0-.154.336.207.207,0,0,0,.16.171.454.454,0,0,0,.2,0,1.766,1.766,0,0,0,.336-.137,9.118,9.118,0,0,0,1.057-.816,1.834,1.834,0,0,1,.488-.28c.163-.059.331-.084.482-.126a.88.88,0,0,0,.611-.412.325.325,0,0,0,.031-.28.729.729,0,0,1-.081.244.841.841,0,0,1-.586.345,4.933,4.933,0,0,0-.5.109,1.9,1.9,0,0,0-.524.28,11.613,11.613,0,0,1-1.046.8,1.659,1.659,0,0,1-.306.123c-.1.025-.193,0-.193-.048a.576.576,0,0,1,.123-.235l.191-.247.65-.866c.182-.247.331-.448.429-.591A1.162,1.162,0,0,0,306.273,211.1Z" transform="translate(-300.789 -184.683)" fill="#eb996e"/>
        <path id="Path_73359" data-name="Path 73359" d="M298.7,218.215a.964.964,0,0,0-.46.081.79.79,0,0,0-.348.35,2.038,2.038,0,0,0-.182.6,3.273,3.273,0,0,1-.157.633,1.015,1.015,0,0,1-.311.44.412.412,0,0,1-.356.076c-.084-.025-.121-.059-.118-.062a.33.33,0,0,1,.126.028.392.392,0,0,0,.308-.092,1.023,1.023,0,0,0,.28-.42,3.533,3.533,0,0,0,.146-.619,1.993,1.993,0,0,1,.2-.625.824.824,0,0,1,.4-.367.723.723,0,0,1,.359-.056C298.659,218.189,298.7,218.209,298.7,218.215Z" transform="translate(-295.154 -189.777)" fill="#eb996e"/>
        <path id="Path_73360" data-name="Path 73360" d="M293,212.92a2.461,2.461,0,0,1,.451.064l1.085.179,1.088.163a3.127,3.127,0,0,1,.451.078,1.8,1.8,0,0,1-.457-.014c-.28-.025-.67-.07-1.1-.137s-.807-.143-1.082-.207a2.109,2.109,0,0,1-.44-.126Z" transform="translate(-292.441 -185.993)" fill="#eb996e"/>
        <path id="Path_73361" data-name="Path 73361" d="M303.195,220.42a.611.611,0,0,1-.073.123.426.426,0,0,0-.07.348.23.23,0,0,0,.171.146,1.2,1.2,0,0,0,.3.025.513.513,0,0,1,.348.109.443.443,0,0,1,.126.373.5.5,0,0,1-.21.331.6.6,0,0,1-.342.121,1.976,1.976,0,0,1-.58-.1,1.169,1.169,0,0,1-.356-.171.325.325,0,0,1-.1-.109s.039.031.115.078a1.4,1.4,0,0,0,.356.14,2.158,2.158,0,0,0,.561.078.488.488,0,0,0,.462-.378.348.348,0,0,0-.1-.3.434.434,0,0,0-.28-.09,1.324,1.324,0,0,1-.317-.036.3.3,0,0,1-.21-.2.443.443,0,0,1,.1-.387C303.153,220.45,303.189,220.417,303.195,220.42Z" transform="translate(-299.213 -191.39)" fill="#eb996e"/>
        <path id="Path_73362" data-name="Path 73362" d="M303.449,224.734a.191.191,0,0,1,.126.034.392.392,0,0,1,.191.3.53.53,0,0,1-.23.474.883.883,0,0,1-.633.129,1.051,1.051,0,0,1-.575-.28,1.009,1.009,0,0,1-.263-.454.97.97,0,0,1-.028-.353c0-.081.028-.126.034-.123a1.55,1.55,0,0,0,.056.457,1,1,0,0,0,.261.415,1.006,1.006,0,0,0,.53.258.81.81,0,0,0,.561-.109.471.471,0,0,0,.213-.4.384.384,0,0,0-.146-.28C303.491,224.751,303.446,224.743,303.449,224.734Z" transform="translate(-298.941 -194.298)" fill="#eb996e"/>
        <path id="Path_73363" data-name="Path 73363" d="M311.376,217.418a.454.454,0,0,1,.036-.216.841.841,0,0,1,.359-.429v.078a2.268,2.268,0,0,1-.3-.1,1.962,1.962,0,0,1-.875-.617,4.763,4.763,0,0,0,.908.53,2.884,2.884,0,0,0,.28.1l.1.031-.09.05a.9.9,0,0,0-.353.376A1.176,1.176,0,0,1,311.376,217.418Z" transform="translate(-305.108 -188.31)" fill="#eb996e"/>
        <path id="Path_73364" data-name="Path 73364" d="M299.544,218.714c.014-.02.163.092.219.306s-.02.384-.042.373,0-.165-.048-.35S299.524,218.731,299.544,218.714Z" transform="translate(-297.148 -190.161)" fill="#eb996e"/>
        <path id="Path_73365" data-name="Path 73365" d="M340.25,183.17c-.185.261-8.37,6.741-9.384,7.007s-10.371.409-10.371.409-.732,5.754-.491,6.147c.889,1.435,11.576,5.233,16.675.09l3.568-13.045" transform="translate(-311.841 -164.581)" fill="#84aa96"/>
        <path id="Path_73366" data-name="Path 73366" d="M355.412,212.108a1.436,1.436,0,0,1-.1-.5,4.6,4.6,0,0,1,.465-2.422,1.455,1.455,0,0,1,.28-.432,10.473,10.473,0,0,0-.535,1.637,10.618,10.618,0,0,0-.109,1.721Z" transform="translate(-337.275 -182.992)" fill="#263238"/>
        <path id="Path_73367" data-name="Path 73367" d="M358.312,211.735a1.9,1.9,0,0,1-.115-.561,12.024,12.024,0,0,1-.056-2.694,1.831,1.831,0,0,1,.1-.561c.042,0-.02.841,0,1.9S358.346,211.729,358.312,211.735Z" transform="translate(-339.287 -182.394)" fill="#263238"/>
        <g id="Group_2191" data-name="Group 2191" transform="translate(17.171 25.691)" opacity="0.3">
          <path id="Path_73368" data-name="Path 73368" d="M353.831,208.588a4.588,4.588,0,0,0-1.334,4.888c.09.263.244.561.516.6a.606.606,0,0,0,.608-.35,1.769,1.769,0,0,0,.14-.734l.21-4.485" transform="translate(-352.266 -208.51)"/>
        </g>
        <path id="Path_73369" data-name="Path 73369" d="M386.441,183.319l.216-1.379-1.741,1.533-.866,3Z" transform="translate(-357.97 -163.696)" fill="#263238"/>
        <path id="Path_73370" data-name="Path 73370" d="M370.8,175.521l-1.222.687-3.924,6.6.017,3.456a16.176,16.176,0,0,0-.981,4.359c-.056,1.94,0,9.042,0,9.042l-4.981,32.929,4.246,1.371,8.409-38.341V175Z" transform="translate(-340.452 -158.702)" fill="#84aa96"/>
        <g id="Group_2192" data-name="Group 2192" transform="translate(20.141 25.268)" opacity="0.3">
          <path id="Path_73371" data-name="Path 73371" d="M366.224,257l-3.364-1.085,4.8-35.721s-.8-5.236,0-7.529S369.7,207,369.7,207l-1.4,6.4a145.109,145.109,0,0,1-.631,16.669h1.284Z" transform="translate(-362.86 -207)"/>
        </g>
        <path id="Path_73372" data-name="Path 73372" d="M380.46,189.14a.965.965,0,0,1-.1.174c-.064.115-.177.28-.3.491a15.067,15.067,0,0,0-.942,1.892,19.862,19.862,0,0,0-.95,2.988,32.3,32.3,0,0,0-.631,3.792c-.154,1.359-.247,2.657-.28,3.84s-.036,2.242-.028,3.145,0,1.606,0,2.125v.577a1.354,1.354,0,0,1,0,.2.878.878,0,0,1-.017-.2c0-.146,0-.339-.02-.577-.014-.519-.034-1.239-.056-2.122s-.036-1.962,0-3.153.126-2.489.28-3.848a31.394,31.394,0,0,1,.645-3.809,18.863,18.863,0,0,1,.987-3,13.239,13.239,0,0,1,.989-1.884c.132-.21.252-.367.328-.476a.987.987,0,0,1,.1-.157Z" transform="translate(-352.975 -168.878)" fill="#263238"/>
        <g id="Group_2193" data-name="Group 2193" transform="translate(22.209 28.351)" opacity="0.3">
          <path id="Path_73373" data-name="Path 73373" d="M370.327,223.606A20.141,20.141,0,0,1,372.46,218a29.3,29.3,0,0,1-.233,3.776,1.449,1.449,0,0,1-.247.76,1.5,1.5,0,0,1-.454.336l-1.287.715" transform="translate(-370.24 -218)"/>
        </g>
        <path id="Path_73374" data-name="Path 73374" d="M429.893,137.042a3.6,3.6,0,0,1,1.567-1.738,2.469,2.469,0,0,1,2.29-.025,1.889,1.889,0,0,1,.947,2.007,2.59,2.59,0,0,1-2.3,4.642,1.8,1.8,0,0,1-.928,2.621,2.381,2.381,0,0,1-2.724-1.208,3.574,3.574,0,0,1,.034-3.128" transform="translate(-389.888 -129.921)" fill="#263238"/>
        <path id="Path_73375" data-name="Path 73375" d="M429.641,142.414a1.155,1.155,0,0,1,.889-.7.928.928,0,0,1,.953.561.782.782,0,0,1-.412.981,1.085,1.085,0,0,1-.423,2.074,1,1,0,0,1-1.488,1.289,1.348,1.348,0,0,1-.462-.919,4.036,4.036,0,0,1,.067-1.054c.081-.527.16-1.057.241-1.584a1.707,1.707,0,0,1,.2-.67.589.589,0,0,1,.589-.3" transform="translate(-390.096 -134.743)" fill="#84aa96"/>
        <path id="Path_73376" data-name="Path 73376" d="M381.241,120.19a1.826,1.826,0,0,1,.42-2.127,3,3,0,0,1,2.155-.718,8.754,8.754,0,0,1,2.279.474,2.483,2.483,0,0,1,4.356.841,1.575,1.575,0,0,1,2.116,1.816l-3.293,1.657-2.918,7.094a3.041,3.041,0,0,1-4.944-3.434,2.54,2.54,0,0,1-.614-.586,2.657,2.657,0,0,1-1.43-1.477,2.8,2.8,0,0,1,1.872-3.54Z" transform="translate(-354.505 -116.852)" fill="#263238"/>
        <path id="Path_73377" data-name="Path 73377" d="M395.074,140.4c.076-1.107.129-1.867.129-1.858a3.518,3.518,0,0,1-2.363-3.392,30.571,30.571,0,0,1,.409-5.606c.241-1.682,1.528-3.677,3.2-3.364l5.169,1.749c.507.1.653.544.6,1.057l.022.247-.886,8.084-.35,3.6a2.982,2.982,0,0,1-3.01,2.668h0a2.985,2.985,0,0,1-2.926-3.187Z" transform="translate(-364.277 -123.546)" fill="#ffbe9d"/>
        <path id="Path_73378" data-name="Path 73378" d="M396.287,145.516a.37.37,0,0,0,.322.4.348.348,0,0,0,.4-.3.364.364,0,0,0-.32-.4.35.35,0,0,0-.4.3Z" transform="translate(-366.776 -137.265)" fill="#263238"/>
        <path id="Path_73379" data-name="Path 73379" d="M396.051,142.948c.039.05.331-.132.72-.1s.661.249.706.2-.017-.109-.135-.21a1,1,0,0,0-.561-.221.967.967,0,0,0-.577.137C396.076,142.841,396.034,142.925,396.051,142.948Z" transform="translate(-366.605 -135.397)" fill="#263238"/>
        <path id="Path_73380" data-name="Path 73380" d="M408.917,146.535a.364.364,0,0,0,.322.392.348.348,0,0,0,.4-.3.362.362,0,0,0-.32-.392.348.348,0,0,0-.4.3Z" transform="translate(-375.866 -137.998)" fill="#263238"/>
        <path id="Path_73381" data-name="Path 73381" d="M409.349,143.73c.042.05.334-.132.723-.1s.659.249.706.2-.017-.107-.135-.207a1.006,1.006,0,0,0-.561-.224.956.956,0,0,0-.58.14C409.377,143.623,409.329,143.7,409.349,143.73Z" transform="translate(-376.175 -135.958)" fill="#263238"/>
        <path id="Path_73382" data-name="Path 73382" d="M401.118,145.715a2.5,2.5,0,0,0-.622-.165c-.1-.02-.193-.045-.2-.115a.527.527,0,0,1,.09-.28l.356-.737a13.213,13.213,0,0,0,.818-1.928,12.961,12.961,0,0,0-.973,1.858l-.342.74a.577.577,0,0,0-.084.387.249.249,0,0,0,.154.16.591.591,0,0,0,.165.036A2.716,2.716,0,0,0,401.118,145.715Z" transform="translate(-369.558 -135.303)" fill="#263238"/>
        <path id="Path_73383" data-name="Path 73383" d="M401.182,168.589a7.22,7.22,0,0,0,3.862-.709,3.68,3.68,0,0,1-3.924,1.43Z" transform="translate(-370.255 -153.577)" fill="#eb996e"/>
        <path id="Path_73384" data-name="Path 73384" d="M409.645,140.034c.039.107.429.053.889.107s.841.174.891.078c.028-.045-.039-.146-.188-.247a1.455,1.455,0,0,0-.661-.227,1.516,1.516,0,0,0-.7.084C409.712,139.9,409.628,139.984,409.645,140.034Z" transform="translate(-376.389 -133.322)" fill="#263238"/>
        <path id="Path_73385" data-name="Path 73385" d="M396.295,140.173c.073.1.4.028.782.056s.7.115.782.028c.036-.042,0-.135-.143-.23a1.217,1.217,0,0,0-.622-.2,1.191,1.191,0,0,0-.636.129C396.315,140.041,396.261,140.128,396.295,140.173Z" transform="translate(-366.776 -133.388)" fill="#263238"/>
        <path id="Path_73386" data-name="Path 73386" d="M395.963,124.162a1.94,1.94,0,0,1-2.427,1.735c-.426-.112-.883-.367-1.273-.165s-.474.8-.841,1.079c-.533.392-1.292-.073-1.94.064a2.7,2.7,0,0,0-1.194.919,1.368,1.368,0,0,1-1.348.521,5.937,5.937,0,0,1,.294-1.289,1.937,1.937,0,0,1,.821-1c.213-.118.454-.179.653-.317.432-.294.561-.858.841-1.295a2.127,2.127,0,0,1,1.7-.947,12.1,12.1,0,0,0,1.682.1c.406-.07.776-.306,1.188-.35a2.566,2.566,0,0,1,2.024,1.144" transform="translate(-360.05 -121.427)" fill="#263238"/>
        <path id="Path_73387" data-name="Path 73387" d="M409.768,126.12a2.635,2.635,0,0,0,1.317-.541,2.178,2.178,0,0,1,1.962-.936,1.794,1.794,0,0,1,1.5,1.536,2.579,2.579,0,0,1,2.1,1.592,2.988,2.988,0,0,1-.28,2.764,5.259,5.259,0,0,0-.348.65,4.375,4.375,0,0,1,.544.631c.748,1.216-.771,1.914-.771,1.914.107.869-.7.967-1.208,1.031s-.622,1.469-1.029,1.466l-.137-4.28a.561.561,0,0,1-.185.059c-.964.14-.947-1.724-.7-2.242a5.506,5.506,0,0,1-.875-1.076,3.978,3.978,0,0,1-.28-1.962A4.183,4.183,0,0,1,409.768,126.12Z" transform="translate(-376.47 -122.455)" fill="#263238"/>
        <path id="Path_73388" data-name="Path 73388" d="M421.867,149.76a.841.841,0,0,1,1.261-.611,1.128,1.128,0,0,1,.392,1.174,1.286,1.286,0,0,1-1.861,1.1C421.663,151.372,421.78,150.461,421.867,149.76Z" transform="translate(-385.038 -140.012)" fill="#ffbe9d"/>
        <path id="Path_73389" data-name="Path 73389" d="M423.775,152.122a.846.846,0,0,0,.073.05.3.3,0,0,0,.221.031.732.732,0,0,0,.418-.614,1.009,1.009,0,0,0-.034-.434.339.339,0,0,0-.2-.252.149.149,0,0,0-.182.059c-.031.045-.022.081-.031.081s-.034-.031,0-.1a.177.177,0,0,1,.078-.1.227.227,0,0,1,.168-.022.418.418,0,0,1,.28.3,1.02,1.02,0,0,1,.048.485.779.779,0,0,1-.519.681.32.32,0,0,1-.266-.078C423.772,152.162,423.769,152.122,423.775,152.122Z" transform="translate(-386.559 -141.295)" fill="#eb996e"/>
        <path id="Path_73390" data-name="Path 73390" d="M386.681,132.481a2.489,2.489,0,0,1-.4-.325,2.458,2.458,0,0,1-.687-1.211,2.371,2.371,0,0,1-.031-.959,2.063,2.063,0,0,1,.468-.984,2.411,2.411,0,0,1,2.287-.757,2.021,2.021,0,0,1,.233.064c.076.025.146.059.216.087l.109.045-.014-.112a.841.841,0,0,1,.137-.561,1.32,1.32,0,0,1,.429-.4,1.746,1.746,0,0,1,1.088-.221c.723.07,1.362.314,1.937.306a1.805,1.805,0,0,0,1.239-.418,1.017,1.017,0,0,0,.219-.28.56.56,0,0,0,.042-.118,1.429,1.429,0,0,1-.28.367,1.805,1.805,0,0,1-1.208.367,4.521,4.521,0,0,1-.889-.137,7.531,7.531,0,0,0-1.04-.2,2.273,2.273,0,0,0-.583.017,1.777,1.777,0,0,0-.577.213,1.438,1.438,0,0,0-.474.437.961.961,0,0,0-.16.653l.1-.07-.23-.1a2.462,2.462,0,0,0-.247-.067,2.537,2.537,0,0,0-2.413.807,2.17,2.17,0,0,0-.482,1.045,2.459,2.459,0,0,0,.048,1,2.4,2.4,0,0,0,.734,1.225,1.741,1.741,0,0,0,.32.23A.766.766,0,0,0,386.681,132.481Z" transform="translate(-358.964 -123.897)" fill="#455a64"/>
        <path id="Path_73391" data-name="Path 73391" d="M388.44,123.042a1.8,1.8,0,0,1,.5-.249,1.432,1.432,0,0,1,.636-.025,1.245,1.245,0,0,1,.709.39l.073.081.025-.107a1.937,1.937,0,0,1,1.4-1.357,2.523,2.523,0,0,1,1.553.238,6.591,6.591,0,0,0,1.264.462,1.872,1.872,0,0,0,.914,0,1.135,1.135,0,0,0,.23-.1c.048-.028.073-.045.07-.05a2.687,2.687,0,0,1-.314.1,1.94,1.94,0,0,1-.877-.031,7.306,7.306,0,0,1-1.239-.482,4.029,4.029,0,0,0-.76-.258,1.962,1.962,0,0,0-.872,0,2.027,2.027,0,0,0-1.48,1.463l.1-.025a1.32,1.32,0,0,0-.776-.4,1.4,1.4,0,0,0-.673.053,1.149,1.149,0,0,0-.378.2A.453.453,0,0,0,388.44,123.042Z" transform="translate(-361.13 -120.273)" fill="#455a64"/>
        <path id="Path_73392" data-name="Path 73392" d="M404.239,156.51a.561.561,0,0,1,.434-.191.664.664,0,0,1,.468.261h0l.017.02h0a.325.325,0,0,1,.073.185.468.468,0,0,1-.224.381.594.594,0,0,1-.681,0A.485.485,0,0,1,404.239,156.51Z" transform="translate(-372.435 -145.257)" fill="#ff725e"/>
        <path id="Path_73393" data-name="Path 73393" d="M404.6,155.83c-.022,0-.056.084-.14.2a.917.917,0,0,1-.973.376c-.14-.031-.227-.073-.238-.053s.056.092.207.157a.863.863,0,0,0,1.1-.426C404.62,155.937,404.618,155.833,404.6,155.83Z" transform="translate(-371.785 -144.905)" fill="#263238"/>
        <path id="Path_73394" data-name="Path 73394" d="M422.208,126.13a.484.484,0,0,0,.073-.056,1.908,1.908,0,0,0,.191-.188,1.962,1.962,0,0,0,.46-.872,1.545,1.545,0,0,0,0-.69,1.427,1.427,0,0,0-.378-.692,1.121,1.121,0,0,0-.807-.328,1.054,1.054,0,0,0-.841.4l.078.042v-.02a2.337,2.337,0,0,0-.048-1.777,1.542,1.542,0,0,0-1.144-.877,1.273,1.273,0,0,0-.945.28,1.057,1.057,0,0,0-.182.2.28.28,0,0,0-.045.084,1.48,1.48,0,0,1,.249-.255,1.239,1.239,0,0,1,.914-.23,1.474,1.474,0,0,1,1.079.841,2.279,2.279,0,0,1,.034,1.713v.02l-.087.261.165-.221a.961.961,0,0,1,.771-.362,1.048,1.048,0,0,1,.748.3,1.329,1.329,0,0,1,.364.653,1.446,1.446,0,0,1,0,.656,2.01,2.01,0,0,1-.423.861C422.3,126.04,422.2,126.124,422.208,126.13Z" transform="translate(-382.85 -119.883)" fill="#263238"/>
        <path id="Path_73395" data-name="Path 73395" d="M437.191,139.547l.048.02.137.05c.121.042.3.1.535.177a7.632,7.632,0,0,0,.869.219,4.036,4.036,0,0,0,1.186.053,2.736,2.736,0,0,0,1.34-.507,2.116,2.116,0,0,0,.8-1.413,3.271,3.271,0,0,0-.28-1.8,2.242,2.242,0,0,0-.561-.785,1.429,1.429,0,0,0-.936-.353,1.121,1.121,0,0,0-.687.221l.062.067a1.985,1.985,0,0,0,.448-.841,2.265,2.265,0,0,0,.036-.908,2.032,2.032,0,0,0-.914-1.4,2.377,2.377,0,0,0-1.486-.37,2.293,2.293,0,0,0-1.236.474,2.662,2.662,0,0,0-.7.841,2.822,2.822,0,0,0-.28.776,2.449,2.449,0,0,0-.045.516v.179a3.31,3.31,0,0,1,.064-.69,2.8,2.8,0,0,1,.28-.76,2.562,2.562,0,0,1,.692-.813,2.267,2.267,0,0,1,1.205-.454,2.343,2.343,0,0,1,1.432.356,1.962,1.962,0,0,1,.872,1.354,2.2,2.2,0,0,1-.039.874,1.867,1.867,0,0,1-.426.788l.059.064a1.018,1.018,0,0,1,.631-.2,1.345,1.345,0,0,1,.877.331,2.145,2.145,0,0,1,.561.754,3.235,3.235,0,0,1,.28,1.749,2.043,2.043,0,0,1-.774,1.368,2.719,2.719,0,0,1-1.3.5,4.064,4.064,0,0,1-1.169-.042,8.092,8.092,0,0,1-.866-.2l-.541-.16-.14-.042A.233.233,0,0,1,437.191,139.547Z" transform="translate(-395.019 -127.733)" fill="#263238"/>
        <path id="Path_73396" data-name="Path 73396" d="M432.23,161.823a1.525,1.525,0,0,0,.2.126,4.017,4.017,0,0,0,.591.28,2.506,2.506,0,0,0,.95.168,1.738,1.738,0,0,0,1.1-.429,1.337,1.337,0,0,0,.345-.519,1.786,1.786,0,0,0,.1-.561,2.481,2.481,0,0,0-.2-.945,4.73,4.73,0,0,0-.28-.583,1.085,1.085,0,0,0-.126-.2,1.466,1.466,0,0,0,.1.216c.064.14.163.336.258.591a2.491,2.491,0,0,1,.174.922,1.4,1.4,0,0,1-.418,1.023,1.682,1.682,0,0,1-1.043.409,2.573,2.573,0,0,1-.928-.143C432.53,161.983,432.238,161.8,432.23,161.823Z" transform="translate(-392.645 -147.301)" fill="#263238"/>
        <path id="Path_73397" data-name="Path 73397" d="M426.416,164.257a.561.561,0,0,1-.216-.087.611.611,0,0,1-.235-.561.507.507,0,0,1,.2-.362.353.353,0,0,1,.434,0,.319.319,0,0,1,.1.219.241.241,0,0,1-.121.207.4.4,0,0,1-.266.039.687.687,0,0,1-.28-.1,1.236,1.236,0,0,1-.524-.981,2.306,2.306,0,0,1,.179-.939,1.962,1.962,0,0,1,.28-.577.264.264,0,0,1,.2-.092.121.121,0,0,0-.062,0,.28.28,0,0,0-.168.078.756.756,0,0,0-.165.235c-.05.1-.107.213-.16.342a2.329,2.329,0,0,0-.2.967,1.469,1.469,0,0,0,.143.561,1.152,1.152,0,0,0,.418.482.631.631,0,0,0,.633.064.32.32,0,0,0,.16-.28.4.4,0,0,0-.129-.28.387.387,0,0,0-.28-.092.513.513,0,0,0-.258.092.561.561,0,0,0-.213.418.647.647,0,0,0,.28.594.435.435,0,0,0,.174.062C426.394,164.266,426.416,164.26,426.416,164.257Z" transform="translate(-387.737 -148.637)" fill="#263238"/>
        <path id="Path_73398" data-name="Path 73398" d="M441.575,149.472a.23.23,0,0,0,.078,0,.631.631,0,0,0,.219-.028.9.9,0,0,0,.561-.561,1.169,1.169,0,0,0-.314-1.135,1.724,1.724,0,0,0-1.354-.533,1.914,1.914,0,0,0-.348.056l.053.059a1.371,1.371,0,0,0-.258-1.3,1.23,1.23,0,0,0-.479-.348,1.334,1.334,0,0,0-.5-.09,1.281,1.281,0,0,0-.7.2.878.878,0,0,0-.157.121c-.031.034-.048.05-.045.053a2.542,2.542,0,0,1,.219-.146,1.326,1.326,0,0,1,1.158-.076,1.121,1.121,0,0,1,.446.334,1.292,1.292,0,0,1,.235,1.219l-.028.081.081-.022a1.772,1.772,0,0,1,.331-.053,1.665,1.665,0,0,1,1.289.5,1.121,1.121,0,0,1,.314,1.06.88.88,0,0,1-.513.561A1.008,1.008,0,0,1,441.575,149.472Z" transform="translate(-397.035 -137.534)" fill="#455a64"/>
        <path id="Path_73399" data-name="Path 73399" d="M441.622,140.576a.339.339,0,0,0-.115-.045.95.95,0,0,0-.342-.02,1.121,1.121,0,0,0-.493.174,1.073,1.073,0,0,0-.426.507l.073-.014a.889.889,0,0,0-.538-.28,1.264,1.264,0,0,0-.841.2,1.912,1.912,0,0,0-.507.5,3.159,3.159,0,0,0-.249.4.536.536,0,0,0-.073.16c.014,0,.132-.213.373-.527a2.083,2.083,0,0,1,.5-.465,1.189,1.189,0,0,1,.79-.177.813.813,0,0,1,.485.244l.048.053.025-.064a1.02,1.02,0,0,1,.387-.477,1.155,1.155,0,0,1,.46-.182A1.648,1.648,0,0,1,441.622,140.576Z" transform="translate(-396.877 -133.874)" fill="#455a64"/>
        <path id="Path_73400" data-name="Path 73400" d="M392.1,171.2l-6.343.9-.28,2s-3.153,5.513-3.434,7.131-1.682,5.606-1.4,8.627S380,204.294,380,204.294h1.612l6.251-15.212Z" transform="translate(-355.055 -155.967)" fill="#263238"/>
        <path id="Path_73401" data-name="Path 73401" d="M429.447,429.617l1.592,5.76s-5.412,3.128-5.222,4.221l11.371-2.262-2.113-9.076Z" transform="translate(-388.027 -340.974)" fill="#84aa96"/>
        <g id="Group_2194" data-name="Group 2194" transform="translate(45.919 93.082)" opacity="0.6">
          <path id="Path_73402" data-name="Path 73402" d="M455.3,448.94a.477.477,0,0,1,.443.451.454.454,0,0,1-.443.443.5.5,0,0,1-.465-.479.471.471,0,0,1,.51-.409" transform="translate(-454.83 -448.94)" fill="#fff"/>
        </g>
        <g id="Group_2195" data-name="Group 2195" transform="translate(37.747 95.448)" opacity="0.6">
          <path id="Path_73403" data-name="Path 73403" d="M437.09,458.294l-.213-.914-10.9,2.565a.8.8,0,0,0-.294.7Z" transform="translate(-425.675 -457.38)" fill="#fff"/>
        </g>
        <path id="Path_73404" data-name="Path 73404" d="M443.757,453.324c.017.053.3,0,.611.126s.513.311.561.28-.112-.331-.493-.46S443.735,453.276,443.757,453.324Z" transform="translate(-400.941 -358.935)" fill="#263238"/>
        <path id="Path_73405" data-name="Path 73405" d="M440,456.237c0,.056.261.092.5.28s.356.423.412.406,0-.334-.28-.561S439.975,456.183,440,456.237Z" transform="translate(-398.235 -361.077)" fill="#263238"/>
        <path id="Path_73406" data-name="Path 73406" d="M437.07,459.8c.05,0,.062-.294-.151-.561s-.5-.328-.51-.28.185.174.356.4S437.014,459.8,437.07,459.8Z" transform="translate(-395.653 -363.06)" fill="#263238"/>
        <path id="Path_73407" data-name="Path 73407" d="M442.987,447.858c.034.045.28-.09.586-.143s.583-.014.6-.067-.263-.2-.636-.126S442.945,447.821,442.987,447.858Z" transform="translate(-400.384 -354.823)" fill="#263238"/>
        <g id="Group_2196" data-name="Group 2196" transform="translate(41.737 88.505)" opacity="0.3">
          <path id="Path_73408" data-name="Path 73408" d="M439.91,433.888l.283,1.026,5.53-1.371-.216-.933Z" transform="translate(-439.91 -432.61)"/>
        </g>
        <path id="Path_73409" data-name="Path 73409" d="M441.92,441.376a1.085,1.085,0,0,0,.561-.137,2.683,2.683,0,0,0,.547-.322,2.6,2.6,0,0,0,.28-.249.84.84,0,0,0,.137-.174.247.247,0,0,0-.045-.3.311.311,0,0,0-.28-.067.867.867,0,0,0-.2.078,2.437,2.437,0,0,0-.322.2,2.025,2.025,0,0,0-.437.465c-.2.306-.247.533-.224.538s.115-.191.334-.454a2.293,2.293,0,0,1,.437-.4,2.061,2.061,0,0,1,.3-.177c.112-.059.213-.084.258-.039s.02.025,0,.067a.626.626,0,0,1-.1.126,2.926,2.926,0,0,1-.258.241,3.138,3.138,0,0,1-.5.339,3.953,3.953,0,0,0-.482.263Z" transform="translate(-399.619 -349.508)" fill="#263238"/>
        <path id="Path_73410" data-name="Path 73410" d="M439.506,440.487a.919.919,0,0,0,.02-.58,1.979,1.979,0,0,0-.224-.6,2.02,2.02,0,0,0-.227-.308.479.479,0,0,0-.426-.2.28.28,0,0,0-.2.213.756.756,0,0,0,0,.221,1.357,1.357,0,0,0,.09.381,1.317,1.317,0,0,0,.381.527.74.74,0,0,0,.535.23,2.368,2.368,0,0,1-.443-.334,1.32,1.32,0,0,1-.3-.488,1.139,1.139,0,0,1-.067-.328c0-.126,0-.233.059-.23a.4.4,0,0,1,.241.137,2.109,2.109,0,0,1,.213.28,2.178,2.178,0,0,1,.244.538C439.483,440.254,439.475,440.484,439.506,440.487Z" transform="translate(-397.116 -348.556)" fill="#263238"/>
        <path id="Path_73411" data-name="Path 73411" d="M361.193,431.86l-.7,5.925s-6.194.841-6.43,1.928l11.38,2.212,1.477-9.185Z" transform="translate(-336.386 -343.565)" fill="#84aa96"/>
        <g id="Group_2197" data-name="Group 2197" transform="translate(27.103 94.251)" opacity="0.6">
          <path id="Path_73412" data-name="Path 73412" d="M388.316,453.14a.474.474,0,0,1,.241.586.454.454,0,0,1-.577.241.5.5,0,0,1-.249-.619.471.471,0,0,1,.628-.185" transform="translate(-387.699 -453.108)" fill="#fff"/>
        </g>
        <g id="Group_2198" data-name="Group 2198" transform="translate(17.595 95.689)" opacity="0.6">
          <path id="Path_73413" data-name="Path 73413" d="M365.236,460.92l.149-.928-11.063-1.752a.8.8,0,0,0-.541.541Z" transform="translate(-353.78 -458.24)" fill="#fff"/>
        </g>
        <path id="Path_73414" data-name="Path 73414" d="M376.36,452.641c0,.056.28.123.516.348s.359.479.412.465.022-.35-.28-.614S376.357,452.588,376.36,452.641Z" transform="translate(-352.435 -358.5)" fill="#263238"/>
        <path id="Path_73415" data-name="Path 73415" d="M371.8,453.78c-.022.053.207.185.359.451s.171.524.227.533.14-.306-.056-.633S371.8,453.727,371.8,453.78Z" transform="translate(-349.15 -359.33)" fill="#263238"/>
        <path id="Path_73416" data-name="Path 73416" d="M367.8,455.924c.048.02.171-.247.073-.575s-.339-.493-.37-.448.107.23.182.5S367.74,455.91,367.8,455.924Z" transform="translate(-346.055 -360.143)" fill="#263238"/>
        <path id="Path_73417" data-name="Path 73417" d="M377.468,447.661c.017.053.28.017.6.087s.544.207.58.165-.168-.28-.538-.359S377.448,447.6,377.468,447.661Z" transform="translate(-353.232 -354.843)" fill="#263238"/>
        <g id="Group_2199" data-name="Group 2199" transform="translate(24.541 89.469)" opacity="0.3">
          <path id="Path_73418" data-name="Path 73418" d="M378.689,436.05l-.129,1.057,5.639.827.154-.947Z" transform="translate(-378.56 -436.05)"/>
        </g>
        <path id="Path_73419" data-name="Path 73419" d="M378.06,441.886a1.051,1.051,0,0,0,.575.087,2.638,2.638,0,0,0,.628-.09,2.832,2.832,0,0,0,.356-.123.7.7,0,0,0,.2-.109.247.247,0,0,0,.07-.294.314.314,0,0,0-.224-.165.841.841,0,0,0-.221,0,1.981,1.981,0,0,0-.376.067,2.049,2.049,0,0,0-.583.263c-.3.2-.426.4-.409.415s.179-.135.482-.294a2.277,2.277,0,0,1,.561-.207,1.962,1.962,0,0,1,.348-.05c.126-.014.23,0,.252.059s0,.031-.022.064a.817.817,0,0,1-.143.078c-.112.05-.224.09-.331.126a3.5,3.5,0,0,1-.589.126,4.463,4.463,0,0,0-.569.048Z" transform="translate(-353.659 -350.276)" fill="#263238"/>
        <path id="Path_73420" data-name="Path 73420" d="M376.766,439.14a.959.959,0,0,0,.238-.53,1.841,1.841,0,0,0,.02-.642,1.88,1.88,0,0,0-.092-.37.476.476,0,0,0-.32-.348.28.28,0,0,0-.28.123.841.841,0,0,0-.09.2,1.252,1.252,0,0,0-.062.387,1.351,1.351,0,0,0,.154.631c.177.331.4.434.406.415a2.346,2.346,0,0,1-.28-.474,1.309,1.309,0,0,1-.1-.561,1.251,1.251,0,0,1,.062-.328c.036-.121.1-.21.143-.191a.425.425,0,0,1,.171.219,1.918,1.918,0,0,1,.092.334,2.138,2.138,0,0,1,.022.589C376.83,438.932,376.738,439.14,376.766,439.14Z" transform="translate(-352.306 -347.442)" fill="#263238"/>
        <path id="Path_73421" data-name="Path 73421" d="M384.052,364.368c0,.21-2.6,20.56-2.6,20.56l-7.568-1.435,3.041-21Z" transform="translate(-350.651 -293.639)" fill="#263238"/>
        <path id="Path_73422" data-name="Path 73422" d="M422.423,361.43c.07.2,5.326,20.742,5.326,20.742l-7.192,1.657-6.166-22.1Z" transform="translate(-379.806 -292.876)" fill="#263238"/>
        <path id="Path_73423" data-name="Path 73423" d="M385.857,172.225l1.48-.5,2.584,3.532.7,11.346-1.785,5.844s5.045,11.122,5.115,13.883,2.343,28.464,2.343,28.464l-23.29,1.9,4.3-42.044s.561-10.309,1.219-11.851S385.857,172.225,385.857,172.225Z" transform="translate(-350.017 -156.341)" fill="#84aa96"/>
        <path id="Path_73424" data-name="Path 73424" d="M415.571,283.925a.28.28,0,0,1-.09.045,1.447,1.447,0,0,1-.28.076,1.985,1.985,0,0,1-1.065-.154,2.842,2.842,0,0,1-1.2-1.046,7.687,7.687,0,0,1-.824-1.769,11.313,11.313,0,0,1-.6-3.473,10.145,10.145,0,0,1,.048-1.068,1.708,1.708,0,0,1,.062-.387,2.439,2.439,0,0,1,0,.39c0,.252-.017.617,0,1.062a12.246,12.246,0,0,0,.633,3.431,7.96,7.96,0,0,0,.8,1.738,2.8,2.8,0,0,0,1.121,1.026,2.066,2.066,0,0,0,1.015.193C415.436,283.956,415.571,283.911,415.571,283.925Z" transform="translate(-377.732 -231.5)" fill="#263238"/>
        <path id="Path_73425" data-name="Path 73425" d="M396.074,312.834h-.115l-.342.034-1.315.121-4.891.42L372.784,314.8H372.7v-.087c.185-1.828.378-3.719.577-5.659.824-7.98,1.572-15.2,2.113-20.436.28-2.61.5-4.726.656-6.192.081-.726.143-1.292.185-1.682.022-.188.039-.334.053-.437a1.409,1.409,0,0,1,.022-.149v.149c0,.1-.02.252-.036.44-.036.39-.09.959-.16,1.682-.143,1.469-.353,3.585-.611,6.2-.53,5.236-1.261,12.459-2.069,20.439-.2,1.94-.392,3.832-.58,5.659l-.078-.078,16.627-1.329,4.894-.378,1.317-.1.339-.02a.927.927,0,0,1,.123.008Z" transform="translate(-349.801 -234.386)" fill="#263238"/>
        <path id="Path_73426" data-name="Path 73426" d="M398.847,178.18a.709.709,0,0,1-.062.045l-.185.115-.718.437c-.311.188-.692.42-1.121.7-.219.143-.451.294-.678.471a.7.7,0,0,0-.137.135,1.767,1.767,0,0,1-.028.221c-.017.154-.036.314-.062.474a19.121,19.121,0,0,1-.429,2.1,10.3,10.3,0,0,1-.872,2.3,7.822,7.822,0,0,1-1.878,1.962,4.764,4.764,0,0,0-.942,1.043,2.046,2.046,0,0,0-.308,1.362,7.518,7.518,0,0,0,.406,1.4,5,5,0,0,1,.28,1.418,6.752,6.752,0,0,1-.477,2.674,12.686,12.686,0,0,1-1.1,2.2c-.4.656-.8,1.253-1.155,1.8-.72,1.088-1.295,1.962-1.668,2.6-.185.314-.325.561-.418.726l-.107.191a.373.373,0,0,1-.042.064.151.151,0,0,1,.028-.07l.092-.2c.087-.171.219-.423.4-.74.356-.639.919-1.533,1.629-2.629.353-.561.746-1.146,1.138-1.8a12.665,12.665,0,0,0,1.076-2.183,6.7,6.7,0,0,0,.46-2.621,4.864,4.864,0,0,0-.28-1.382,7.438,7.438,0,0,1-.412-1.427,2.161,2.161,0,0,1,.328-1.455,4.826,4.826,0,0,1,.973-1.074,7.727,7.727,0,0,0,1.853-1.92,10.386,10.386,0,0,0,.872-2.265,19.136,19.136,0,0,0,.446-2.08q.039-.238.067-.471a1.154,1.154,0,0,1,.031-.233.56.56,0,0,1,.171-.185c.238-.179.474-.328.692-.465.44-.28.827-.5,1.144-.684l.732-.412.193-.1A.492.492,0,0,1,398.847,178.18Z" transform="translate(-360.201 -160.99)" fill="#263238"/>
        <path id="Path_73427" data-name="Path 73427" d="M417.3,238.35a2.318,2.318,0,0,1-.712-.078,5.376,5.376,0,0,1-1.609-.65,5.452,5.452,0,0,1-1.315-1.121,2.159,2.159,0,0,1-.4-.6,7.877,7.877,0,0,0,1.785,1.606A8.052,8.052,0,0,0,417.3,238.35Z" transform="translate(-379 -202.532)" fill="#263238"/>
        <path id="Path_73428" data-name="Path 73428" d="M419.528,246.293a1.909,1.909,0,0,1-.547.137,7.938,7.938,0,0,1-2.708-.02,1.771,1.771,0,0,1-.544-.149c0-.042.841.123,1.9.129S419.52,246.248,419.528,246.293Z" transform="translate(-380.77 -209.985)" fill="#263238"/>
        <path id="Path_73429" data-name="Path 73429" d="M421.688,181.21s-1.926.028-2.593,1.166-2.007,9.4,2,16.537c.185.328.359.348.359.348l.589-1.928s-1.09-7.966-1.253-8.843-.426-6.026.342-6.124a5.083,5.083,0,0,1,.575-.036,3.941,3.941,0,0,1,2.539.9l.561.446A4.333,4.333,0,0,0,421.688,181.21Z" transform="translate(-382.644 -163.171)" fill="#263238"/>
        <g id="Group_2200" data-name="Group 2200" transform="translate(35.828 21.585)" opacity="0.3">
          <path id="Path_73430" data-name="Path 73430" d="M420.728,193.86c-2.077,3.837-2.242,8.456-1.494,12.756a3.1,3.1,0,0,0,.524,1.463,1.157,1.157,0,0,0,1.4.384c.35-.2.642-.107.774-.485.423-1.191.79-2.73,1.214-3.924C422.357,200.626,421.5,197.3,420.728,193.86Z" transform="translate(-418.827 -193.86)"/>
        </g>
        <g id="Group_2201" data-name="Group 2201" transform="translate(33.645 45.78)" opacity="0.3">
          <path id="Path_73431" data-name="Path 73431" d="M411.273,280.18a13.782,13.782,0,0,0,1.048,8.322,4.919,4.919,0,0,0,1.065,1.589,2.2,2.2,0,0,0,1.755.628,2.282,2.282,0,0,0,1.7-1.556,1.637,1.637,0,0,0-.179-1.654c-.482-.521-1.309-.434-2.01-.561a4.008,4.008,0,0,1-2.783-2.523,11.864,11.864,0,0,1-.678-3.832" transform="translate(-411.041 -280.18)"/>
        </g>
        <path id="Path_73432" data-name="Path 73432" d="M434.313,198.775c-.067-1.738-3.38-8.608-3.38-8.608s-1.533-3.414-1.895-4.1a3.131,3.131,0,0,0-3.778-1.2l.614,8.476,1.819,6.166-3.543,6.685,4.412,4.345C434.445,209.807,434.378,200.512,434.313,198.775Z" transform="translate(-386.83 -165.636)" fill="#84aa96"/>
        <path id="Path_73433" data-name="Path 73433" d="M442.2,236.055a2.155,2.155,0,0,1-.8-.115c-.491-.123-1.121-.409-1.858-.58a3.083,3.083,0,0,0-1.043-.078,2.091,2.091,0,0,0-.8.261,2.211,2.211,0,0,0-.58.533.518.518,0,0,1,.092-.2,1.466,1.466,0,0,1,.432-.42,2.1,2.1,0,0,1,.841-.308,3.041,3.041,0,0,1,1.09.07c.757.179,1.382.479,1.856.622S442.2,236.033,442.2,236.055Z" transform="translate(-396.158 -201.975)" fill="#263238"/>
        <path id="Path_73434" data-name="Path 73434" d="M439.736,229.018a3.348,3.348,0,0,1-.647.115,4.277,4.277,0,0,0-1.48.457,1.987,1.987,0,0,0-.931,1.169,2.269,2.269,0,0,0-.036.639.6.6,0,0,1-.064-.171,1.241,1.241,0,0,1,0-.491,1.962,1.962,0,0,1,.956-1.275,3.778,3.778,0,0,1,1.539-.429,2.433,2.433,0,0,1,.664-.014Z" transform="translate(-395.757 -197.567)" fill="#263238"/>
        <path id="Path_73435" data-name="Path 73435" d="M427.008,261.2a1.64,1.64,0,0,1-.322-.126,8.039,8.039,0,0,1-.841-.434,10.094,10.094,0,0,1-1.155-.79,11.577,11.577,0,0,1-1.259-1.163,11.957,11.957,0,0,1-1.057-1.348,10.719,10.719,0,0,1-.692-1.216,8.153,8.153,0,0,1-.364-.869,1.611,1.611,0,0,1-.1-.331c.025,0,.191.451.561,1.152a11.71,11.71,0,0,0,.712,1.188,13.393,13.393,0,0,0,1.051,1.326,12.582,12.582,0,0,0,1.236,1.158,11.546,11.546,0,0,0,1.121.8C426.571,260.969,427.019,261.173,427.008,261.2Z" transform="translate(-384.722 -216.22)" fill="#263238"/>
        <path id="Path_73436" data-name="Path 73436" d="M432.119,221.524a6.058,6.058,0,0,1-.348-.9c-.2-.561-.451-1.343-.7-2.214s-.457-1.668-.589-2.242a5.852,5.852,0,0,1-.179-.947,6.654,6.654,0,0,1,.28.922c.157.561.378,1.362.631,2.242s.479,1.614.661,2.223A6.747,6.747,0,0,1,432.119,221.524Z" transform="translate(-391.256 -187.648)" fill="#263238"/>
        <path id="Path_73437" data-name="Path 73437" d="M424.147,244.387c-.036-.02.729-1.53,1.707-3.378s1.8-3.327,1.836-3.31-.729,1.533-1.707,3.378S424.183,244.407,424.147,244.387Z" transform="translate(-386.827 -203.827)" fill="#263238"/>
        <path id="Path_73438" data-name="Path 73438" d="M415.728,354.053c-.039,0,.174-2.7.479-6.032s.583-6.021.622-6.021-.174,2.7-.477,6.032S415.77,354.053,415.728,354.053Z" transform="translate(-380.766 -278.892)" fill="#263238"/>
        <path id="Path_73439" data-name="Path 73439" d="M422.321,375.407a50.179,50.179,0,0,1-1.071-5.247,48.346,48.346,0,0,1,1.071,5.247Z" transform="translate(-384.743 -299.159)" fill="#263238"/>
        <path id="Path_73440" data-name="Path 73440" d="M389.012,362.893c0,.042-2.461-.022-5.494-.14s-5.491-.244-5.488-.28,2.461.022,5.494.137S389.012,362.84,389.012,362.893Z" transform="translate(-353.637 -293.619)" fill="#fafafa"/>
        <path id="Path_73441" data-name="Path 73441" d="M427.581,367.454c0,.042-2.265.017-5.045-.053s-5.045-.16-5.045-.2,2.265-.014,5.059.056S427.583,367.41,427.581,367.454Z" transform="translate(-382.037 -297.014)" fill="#fafafa"/>
        <path id="Path_73442" data-name="Path 73442" d="M389.658,352.1c0,.039-2.475-.042-5.522-.182s-5.519-.28-5.516-.331,2.472.042,5.522.185S389.672,352.058,389.658,352.1Z" transform="translate(-354.062 -285.78)" fill="#fafafa"/>
        <path id="Path_73443" data-name="Path 73443" d="M427.751,357.249c0,.042-2.175,0-4.852-.081s-4.852-.188-4.849-.227,2.172,0,4.852.081S427.754,357.21,427.751,357.249Z" transform="translate(-382.44 -289.634)" fill="#fafafa"/>
      </g>
      <g id="freepik--Plant--inject-82" transform="translate(3.009 81.523)">
        <path id="Path_73444" data-name="Path 73444" d="M54.882,403.9a2.419,2.419,0,0,0-.9-2.175,6.042,6.042,0,0,1-1.589-1.858c-.493-1.239.171-2.839-.673-3.874-.493-.605-1.382-.81-1.822-1.458a3.333,3.333,0,0,1-.4-1.16,11.789,11.789,0,0,0-2.929-5.483,10.2,10.2,0,0,0,1.149,5.284,6.739,6.739,0,0,1,.872,2.007c.185,1.177-.474,2.388-.185,3.543.331,1.32,1.816,2.206,1.886,3.565.059,1.149-.942,2.158-.869,3.307a3.134,3.134,0,0,0,.513,1.365,4.563,4.563,0,0,0,4.174,2.461l2.425.087Z" transform="translate(-46.557 -371.874)" fill="#fff"/>
        <g id="Group_2202" data-name="Group 2202" transform="translate(0 16.016)" opacity="0.3">
          <path id="Path_73445" data-name="Path 73445" d="M54.882,403.9a2.419,2.419,0,0,0-.9-2.175,6.042,6.042,0,0,1-1.589-1.858c-.493-1.239.171-2.839-.673-3.874-.493-.605-1.382-.81-1.822-1.458a3.333,3.333,0,0,1-.4-1.16,11.789,11.789,0,0,0-2.929-5.483,10.2,10.2,0,0,0,1.149,5.284,6.739,6.739,0,0,1,.872,2.007c.185,1.177-.474,2.388-.185,3.543.331,1.32,1.816,2.206,1.886,3.565.059,1.149-.942,2.158-.869,3.307a3.134,3.134,0,0,0,.513,1.365,4.563,4.563,0,0,0,4.174,2.461l2.425.087Z" transform="translate(-46.557 -387.89)"/>
        </g>
        <path id="Path_73446" data-name="Path 73446" d="M80.761,388.151a1.962,1.962,0,0,0,.667,0,3.939,3.939,0,0,0,.788-.2,3.273,3.273,0,0,0,.973-.533,1.334,1.334,0,0,0,.4-.533,2.54,2.54,0,0,0,.115-.726,7.605,7.605,0,0,1,.056-.782,2.144,2.144,0,0,1,.3-.779,6.141,6.141,0,0,0,.914-1.659,5.693,5.693,0,0,0-.067-2.127,4.455,4.455,0,0,1,.059-2.276c.28-.757.79-1.444,1.057-2.3a11.511,11.511,0,0,0,.2-2.708,3.579,3.579,0,0,1,.317-1.345c.2-.429.468-.841.681-1.287a9.454,9.454,0,0,0,.622-2.963c.059-.51.118-1.029.174-1.55a7.643,7.643,0,0,1,.28-1.55,13.63,13.63,0,0,1,.577-1.5,5.006,5.006,0,0,0,.28-.785,7.729,7.729,0,0,0,.078-.841,10.2,10.2,0,0,0-.064-1.682c-.067-.561-.168-1.121-.227-1.682v-.1l-.014-.112-.1.05a3.767,3.767,0,0,0-1.306,1.1,5.908,5.908,0,0,0-.8,1.477,17.4,17.4,0,0,0-.754,3.176,8.664,8.664,0,0,1-1,2.932c-.266.432-.589.824-.869,1.247a3.451,3.451,0,0,0-.6,1.382c-.143,1.026.42,1.926.3,2.834a3.128,3.128,0,0,1-.44,1.259c-.221.387-.479.746-.726,1.107a7.252,7.252,0,0,0-.65,1.121,3.537,3.537,0,0,0-.3,1.216c-.059.816.056,1.592,0,2.324a5.37,5.37,0,0,1-.617,2c-.28.6-.619,1.138-.891,1.659a8.375,8.375,0,0,0-.367.774,3.644,3.644,0,0,0-.213.765,4.81,4.81,0,0,0-.02,1.385,3.487,3.487,0,0,0,.7,1.766,1.625,1.625,0,0,0,.2.21.935.935,0,0,0,.16.137l.137.1a3.033,3.033,0,0,1-.468-.462,3.5,3.5,0,0,1-.659-1.755,4.683,4.683,0,0,1,.031-1.362,3.806,3.806,0,0,1,.213-.748c.1-.252.233-.5.37-.762.28-.519.605-1.057.905-1.657a5.427,5.427,0,0,0,.619-2.027c.064-.748-.05-1.528,0-2.326a3.434,3.434,0,0,1,.28-1.174,7.161,7.161,0,0,1,.642-1.1c.247-.359.507-.72.734-1.121a3.237,3.237,0,0,0,.462-1.309c.118-.967-.443-1.875-.3-2.828a3.268,3.268,0,0,1,.58-1.32c.28-.415.6-.807.875-1.25a8.81,8.81,0,0,0,1.04-2.971,18.227,18.227,0,0,1,.751-3.148,5.829,5.829,0,0,1,.779-1.441,3.6,3.6,0,0,1,1.25-1.054l-.109-.062v.1c.059.561.16,1.121.227,1.682a9.932,9.932,0,0,1,.064,1.654,7.884,7.884,0,0,1-.076.81,4.867,4.867,0,0,1-.28.754,14.044,14.044,0,0,0-.586,1.519,7.7,7.7,0,0,0-.28,1.575q-.087.782-.171,1.55a9.343,9.343,0,0,1-.608,2.918c-.2.44-.477.841-.678,1.289a3.773,3.773,0,0,0-.325,1.4,11.56,11.56,0,0,1-.182,2.68c-.252.83-.782,1.514-1.048,2.3a4.81,4.81,0,0,0-.05,2.332,5.447,5.447,0,0,1,.078,2.085,6.457,6.457,0,0,1-.894,1.64,2.223,2.223,0,0,0-.3.81,7.286,7.286,0,0,0-.053.793,2.458,2.458,0,0,1-.1.706,1.36,1.36,0,0,1-.378.51,3.414,3.414,0,0,1-.947.535,4.2,4.2,0,0,1-.779.21,3.009,3.009,0,0,1-.491.048Z" transform="translate(-70.291 -350.463)" fill="#263238"/>
        <path id="Path_73447" data-name="Path 73447" d="M91.627,363.31a.255.255,0,0,0-.022.073,1.345,1.345,0,0,1-.053.219c-.048.191-.107.479-.2.841s-.317.765-.5,1.264q-.323.846-.561,1.721c-.185.647-.35,1.365-.521,2.133a8.97,8.97,0,0,1-.776,2.368c-.2.4-.423.793-.6,1.228a5.8,5.8,0,0,0-.35,1.4,27.829,27.829,0,0,1-.521,2.932c-.485,1.987-.95,3.879-1.371,5.606L85,387.665c-.32,1.292-.577,2.343-.762,3.083-.084.356-.151.636-.2.841-.02.09-.034.16-.048.219a.224.224,0,0,0,0,.076.3.3,0,0,0,0-.07l.062-.213.227-.841c.2-.737.471-1.783.81-3.069s.74-2.856,1.186-4.566.891-3.616,1.382-5.606a27.359,27.359,0,0,0,.521-2.946,5.656,5.656,0,0,1,.336-1.357c.171-.423.392-.821.591-1.219a9.084,9.084,0,0,0,.774-2.4c.165-.771.322-1.486.5-2.13a16.784,16.784,0,0,1,.561-1.718,11.057,11.057,0,0,0,.482-1.284c.09-.373.129-.653.168-.841a1.253,1.253,0,0,1,.036-.221A.28.28,0,0,0,91.627,363.31Z" transform="translate(-73.497 -354.184)" fill="#263238"/>
        <path id="Path_73448" data-name="Path 73448" d="M62.943,368.447c1.584-.942,2.038-3.8,1.376-5.519s-1.816-3.291-2-5.124c-.137-1.4.325-2.856,0-4.235-.443-1.858-2.259-3.3-2.242-5.208,0-1.074.622-2.083.561-3.153-.059-1.315-1.068-2.357-1.682-3.515-.956-1.771-1.017-3.865-1.345-5.853s-1.082-4.115-2.845-5.09a19.072,19.072,0,0,0-.561,5.127c.05.821,1,2.391,1.121,4.19.078,1.074.132,2.15.2,3.226a10.1,10.1,0,0,0,.507,3.083c.28.751.751,1.432.964,2.206.4,1.458-.126,3.038.2,4.516.28,1.25,1.141,2.326,1.317,3.6.247,1.783-.905,3.644-.317,5.326.28.841.989,1.522,1.186,2.394.151.676,0,1.4.123,2.069.224,1.1,2.31,1.945,3.425,1.878" transform="translate(-52.044 -330.75)" fill="#fff"/>
        <path id="Path_73449" data-name="Path 73449" d="M57.843,336.72a.406.406,0,0,0,0,.1l.034.28c.036.244.078.6.16,1.065s.328.987.521,1.62.4,1.354.58,2.167.331,1.713.491,2.68a11.184,11.184,0,0,0,.81,3.03c.224.507.474,1.015.659,1.553a6.845,6.845,0,0,1,.334,1.713,35.011,35.011,0,0,0,.465,3.689l1.368,7.044c.443,2.158.841,4.1,1.18,5.74s.614,2.943.807,3.865c.1.448.174.8.227,1.051.025.112.048.2.062.28a.53.53,0,0,0,.028.092.56.56,0,0,0,0-.1,2.334,2.334,0,0,0-.048-.28c-.048-.252-.115-.605-.2-1.057-.182-.925-.44-2.242-.76-3.876s-.715-3.585-1.146-5.746-.875-4.544-1.354-7.044a34.663,34.663,0,0,1-.465-3.675,7.069,7.069,0,0,0-.348-1.752c-.191-.561-.443-1.06-.667-1.561a11.267,11.267,0,0,1-.816-2.994c-.163-.967-.322-1.87-.51-2.682s-.4-1.544-.605-2.172-.448-1.152-.544-1.606-.14-.816-.188-1.057c-.02-.112-.036-.2-.05-.28A.365.365,0,0,0,57.843,336.72Z" transform="translate(-54.677 -335.047)" fill="#263238"/>
      </g>
    </g>
  </g>
</svg>
