<svg xmlns="http://www.w3.org/2000/svg" width="305.858" height="300" viewBox="0 0 305.858 300">
  <g id="Interaction_Design-bro" data-name="Interaction Design-bro" transform="translate(-60.94 -62.436)">
    <g id="freepik--background-simple--inject-215" transform="translate(82.142 62.436)">
      <path id="Path_20339" data-name="Path 20339" d="M89.828,220.878s9.1,49.061,55.278,75.67,103.559,20.283,150.2,16.328,78.127-35.471,77.457-75.8-37.726-46.549-63.727-88.6-26.555-57.1-71.231-78.572-105.533,5.149-131.526,57.6S89.828,220.878,89.828,220.878Z" transform="translate(-88.118 -62.436)" fill="#aa43d1"/>
      <path id="Path_20340" data-name="Path 20340" d="M89.828,220.878s9.1,49.061,55.278,75.67,103.559,20.283,150.2,16.328,78.127-35.471,77.457-75.8-37.726-46.549-63.727-88.6-26.555-57.1-71.231-78.572-105.533,5.149-131.526,57.6S89.828,220.878,89.828,220.878Z" transform="translate(-88.118 -62.436)" fill="#fff" opacity="0.7"/>
    </g>
    <g id="freepik--Floor--inject-215" transform="translate(72.938 344.93)">
      <ellipse id="Ellipse_578" data-name="Ellipse 578" cx="121.057" cy="8.753" rx="121.057" ry="8.753" transform="translate(0)" fill="#aa43d1"/>
      <ellipse id="Ellipse_579" data-name="Ellipse 579" cx="121.057" cy="8.753" rx="121.057" ry="8.753" transform="translate(0)" fill="#fff" opacity="0.5"/>
    </g>
    <g id="freepik--Graphics--inject-215" transform="translate(157.189 73.407)">
      <rect id="Rectangle_5570" data-name="Rectangle 5570" width="197.897" height="256.147" rx="10" fill="none" stroke="#263238" stroke-linecap="round" stroke-linejoin="round" stroke-width="1.023"/>
      <path id="Path_20341" data-name="Path 20341" d="M290.606,166.73v.8h-.8" transform="translate(-207.517 -96.341)" fill="none" stroke="#263238" stroke-linecap="round" stroke-linejoin="round" stroke-width="1.023"/>
      <line id="Line_627" data-name="Line 627" x1="46.408" transform="translate(34.309 71.185)" fill="none" stroke="#263238" stroke-linecap="round" stroke-linejoin="round" stroke-width="1.023" stroke-dasharray="2.017 2.017"/>
      <path id="Path_20342" data-name="Path 20342" d="M227.064,167.526h-.8v-.8" transform="translate(-193.542 -96.341)" fill="none" stroke="#263238" stroke-linecap="round" stroke-linejoin="round" stroke-width="1.023"/>
      <line id="Line_628" data-name="Line 628" y1="36.095" transform="translate(32.718 32.757)" fill="none" stroke="#263238" stroke-linecap="round" stroke-linejoin="round" stroke-width="1.023" stroke-dasharray="1.969 1.969"/>
      <path id="Path_20343" data-name="Path 20343" d="M226.26,117.276v-.8h.8" transform="translate(-193.542 -85.291)" fill="none" stroke="#263238" stroke-linecap="round" stroke-linejoin="round" stroke-width="1.023"/>
      <line id="Line_629" data-name="Line 629" x2="46.416" transform="translate(35.089 31.189)" fill="none" stroke="#263238" stroke-linecap="round" stroke-linejoin="round" stroke-width="1.023" stroke-dasharray="2.017 2.017"/>
      <path id="Path_20344" data-name="Path 20344" d="M289.81,116.48h.8v.8" transform="translate(-207.517 -85.291)" fill="none" stroke="#263238" stroke-linecap="round" stroke-linejoin="round" stroke-width="1.023"/>
      <line id="Line_630" data-name="Line 630" y2="36.103" transform="translate(83.089 33.521)" fill="none" stroke="#263238" stroke-linecap="round" stroke-linejoin="round" stroke-width="1.023" stroke-dasharray="1.969 1.969"/>
      <rect id="Rectangle_5571" data-name="Rectangle 5571" width="34.286" height="27.226" transform="translate(40.76 37.578)" fill="#fff" stroke="#263238" stroke-linecap="round" stroke-linejoin="round" stroke-width="1.023"/>
      <line id="Line_631" data-name="Line 631" x1="11.764" y1="9.073" transform="translate(26.984 26.485)" fill="none" stroke="#263238" stroke-linecap="round" stroke-linejoin="round" stroke-width="1.023"/>
      <line id="Line_632" data-name="Line 632" x2="10.087" y2="8.737" transform="translate(77.402 66.145)" fill="none" stroke="#263238" stroke-linecap="round" stroke-linejoin="round" stroke-width="1.023"/>
      <path id="Path_20345" data-name="Path 20345" d="M218.213,113.192l-.343-3.862H221.9" transform="translate(-191.698 -83.719)" fill="none" stroke="#263238" stroke-linecap="round" stroke-linejoin="round" stroke-width="1.023"/>
      <path id="Path_20346" data-name="Path 20346" d="M295.633,167.81l.694,4.213-4.907.179" transform="translate(-207.871 -96.579)" fill="none" stroke="#263238" stroke-linecap="round" stroke-linejoin="round" stroke-width="1.023"/>
      <rect id="Rectangle_5572" data-name="Rectangle 5572" width="16.647" height="6.007" transform="translate(100.86 173.854)" fill="#263238"/>
      <path id="Path_20347" data-name="Path 20347" d="M340.612,301.465,329.94,295.31v12.318Z" transform="translate(-216.341 -124.615)" fill="#263238"/>
      <rect id="Rectangle_5573" data-name="Rectangle 5573" width="49.1" height="95.828" rx="6.93" transform="translate(45.16 132.423)" fill="#263238" stroke="#263238" stroke-linecap="round" stroke-linejoin="round" stroke-width="0.829"/>
      <rect id="Rectangle_5574" data-name="Rectangle 5574" width="44.739" height="83.627" transform="translate(47.345 138.929)" fill="#fff" stroke="#263238" stroke-linecap="round" stroke-linejoin="round" stroke-width="0.829"/>
      <path id="Path_20348" data-name="Path 20348" d="M284.775,371.163l3.417-13.262a17.266,17.266,0,0,0,.562-4.376V337.618a2.435,2.435,0,0,0,.1-.632,2.691,2.691,0,0,0-2.84-2.512,3,3,0,0,0-2.075.78,2.723,2.723,0,0,0-2.816-2.3,2.918,2.918,0,0,0-2.395,1.17,2.73,2.73,0,0,0-2.808-2.262,2.949,2.949,0,0,0-2.4,1.178c0-2.106,0-12.209-.351-13.036-1.03-2.66-6.241-1.443-5.313,1.381v23.364c0-1.638-1.217-3.8-1.724-5.391a14.579,14.579,0,0,0-1.747-4.447c-1.607-2.294-4.439-1.03-4.275,1.357.133,2.1,1.654,3.752,2.473,5.656,1.513,3.51.608,7.185,2.036,10.711a63.388,63.388,0,0,0,3.947,6.475,20.041,20.041,0,0,1,1.833,4.322l-1.326,7.731" transform="translate(-200.984 -129.72)" fill="#fff" stroke="#263238" stroke-linecap="round" stroke-linejoin="round" stroke-width="1.023"/>
      <line id="Line_633" data-name="Line 633" y2="4.369" transform="translate(69.749 182.232)" fill="none" stroke="#263238" stroke-linecap="round" stroke-linejoin="round" stroke-width="1.023"/>
      <line id="Line_634" data-name="Line 634" x2="3.549" transform="translate(74.664 190.689)" fill="none" stroke="#263238" stroke-linecap="round" stroke-linejoin="round" stroke-width="1.023"/>
      <line id="Line_635" data-name="Line 635" x2="3.549" transform="translate(59.928 190.689)" fill="none" stroke="#263238" stroke-linecap="round" stroke-linejoin="round" stroke-width="1.023"/>
      <line id="Line_636" data-name="Line 636" x2="1.365" y2="2.176" transform="translate(64.842 186.055)" fill="none" stroke="#263238" stroke-linecap="round" stroke-linejoin="round" stroke-width="1.023"/>
      <line id="Line_637" data-name="Line 637" y1="2.45" x2="1.911" transform="translate(73.026 186.055)" fill="none" stroke="#263238" stroke-linecap="round" stroke-linejoin="round" stroke-width="1.023"/>
      <rect id="Rectangle_5575" data-name="Rectangle 5575" width="41.478" height="5.188" transform="translate(49.014 171.319)" fill="none" stroke="#263238" stroke-linecap="round" stroke-linejoin="round" stroke-width="1.023"/>
      <rect id="Rectangle_5576" data-name="Rectangle 5576" width="19.924" height="23.739" transform="translate(50.379 143.485)" fill="none" stroke="#263238" stroke-linecap="round" stroke-linejoin="round" stroke-width="1.023"/>
      <line id="Line_638" data-name="Line 638" x2="19.916" y2="23.739" transform="translate(50.379 143.485)" fill="none" stroke="#263238" stroke-linecap="round" stroke-linejoin="round" stroke-width="1.023"/>
      <path id="Path_20349" data-name="Path 20349" d="M248.2,340.091V306.25h40.386v33.568" transform="translate(-198.367 -127.021)" fill="none" stroke="#263238" stroke-linecap="round" stroke-linejoin="round" stroke-width="1.023"/>
      <rect id="Rectangle_5577" data-name="Rectangle 5577" width="49.1" height="95.828" rx="6.93" transform="translate(127.734 132.423)" fill="#263238" stroke="#263238" stroke-linecap="round" stroke-linejoin="round" stroke-width="0.829"/>
      <rect id="Rectangle_5578" data-name="Rectangle 5578" width="44.739" height="83.627" transform="translate(129.919 138.929)" fill="#fff" stroke="#263238" stroke-linecap="round" stroke-linejoin="round" stroke-width="0.829"/>
      <rect id="Rectangle_5579" data-name="Rectangle 5579" width="40.386" height="44.209" transform="translate(132.243 142.939)" fill="none" stroke="#263238" stroke-linecap="round" stroke-linejoin="round" stroke-width="1.023"/>
      <line id="Line_639" data-name="Line 639" x2="40.386" transform="translate(132.243 191.235)" fill="none" stroke="#263238" stroke-linecap="round" stroke-linejoin="round" stroke-width="1.023"/>
      <line id="Line_640" data-name="Line 640" x2="40.386" transform="translate(132.243 194.511)" fill="none" stroke="#263238" stroke-linecap="round" stroke-linejoin="round" stroke-width="1.023"/>
      <line id="Line_641" data-name="Line 641" x2="40.386" transform="translate(132.243 197.788)" fill="none" stroke="#263238" stroke-linecap="round" stroke-linejoin="round" stroke-width="1.023"/>
      <line id="Line_642" data-name="Line 642" x2="40.386" transform="translate(132.243 201.064)" fill="none" stroke="#263238" stroke-linecap="round" stroke-linejoin="round" stroke-width="1.023"/>
      <line id="Line_643" data-name="Line 643" x2="40.386" transform="translate(132.243 204.333)" fill="none" stroke="#263238" stroke-linecap="round" stroke-linejoin="round" stroke-width="1.023"/>
      <line id="Line_644" data-name="Line 644" x2="40.386" transform="translate(132.243 207.609)" fill="none" stroke="#263238" stroke-linecap="round" stroke-linejoin="round" stroke-width="1.023"/>
      <line id="Line_645" data-name="Line 645" x2="40.386" transform="translate(132.243 210.886)" fill="none" stroke="#263238" stroke-linecap="round" stroke-linejoin="round" stroke-width="1.023"/>
      <line id="Line_646" data-name="Line 646" y1="44.209" x2="40.386" transform="translate(132.243 142.939)" fill="none" stroke="#263238" stroke-linecap="round" stroke-linejoin="round" stroke-width="1.023"/>
      <rect id="Rectangle_5580" data-name="Rectangle 5580" width="49.1" height="95.828" rx="6.93" transform="translate(127.734 22.42)" fill="#263238" stroke="#263238" stroke-linecap="round" stroke-linejoin="round" stroke-width="0.829"/>
      <rect id="Rectangle_5581" data-name="Rectangle 5581" width="44.739" height="83.627" transform="translate(129.919 28.926)" fill="#fff" stroke="#263238" stroke-linecap="round" stroke-linejoin="round" stroke-width="0.829"/>
      <path id="Path_20350" data-name="Path 20350" d="M284.65,235.406V209.92h35.861" transform="translate(-206.382 -105.839)" fill="none" stroke="#263238" stroke-linecap="round" stroke-linejoin="round" stroke-width="1.023"/>
      <path id="Path_20351" data-name="Path 20351" d="M329.12,212.777l6.888-3.979-6.888-3.979Z" transform="translate(-216.161 -104.717)" fill="#263238"/>
      <line id="Line_647" data-name="Line 647" y1="19.565" transform="translate(151.379 109.332)" fill="none" stroke="#263238" stroke-linecap="round" stroke-linejoin="round" stroke-width="1.023"/>
      <path id="Path_20352" data-name="Path 20352" d="M381.227,216.206l-3.979-6.9-3.979,6.9Z" transform="translate(-225.869 -105.704)" fill="#263238"/>
      <line id="Line_648" data-name="Line 648" x2="18.091" transform="translate(132.891 236.972)" fill="none" stroke="#263238" stroke-linecap="round" stroke-linejoin="round" stroke-width="1.023"/>
      <line id="Line_649" data-name="Line 649" x2="18.091" transform="translate(132.891 241.044)" fill="none" stroke="#263238" stroke-linecap="round" stroke-linejoin="round" stroke-width="1.023"/>
      <line id="Line_650" data-name="Line 650" x2="18.091" transform="translate(132.891 245.109)" fill="none" stroke="#263238" stroke-linecap="round" stroke-linejoin="round" stroke-width="1.023"/>
      <line id="Line_651" data-name="Line 651" x2="18.091" transform="translate(89.025 236.972)" fill="none" stroke="#263238" stroke-linecap="round" stroke-linejoin="round" stroke-width="1.023"/>
      <line id="Line_652" data-name="Line 652" x2="18.091" transform="translate(89.025 241.044)" fill="none" stroke="#263238" stroke-linecap="round" stroke-linejoin="round" stroke-width="1.023"/>
      <line id="Line_653" data-name="Line 653" x2="18.091" transform="translate(89.025 245.109)" fill="none" stroke="#263238" stroke-linecap="round" stroke-linejoin="round" stroke-width="1.023"/>
      <line id="Line_654" data-name="Line 654" x2="18.091" transform="translate(84.048 112.156)" fill="none" stroke="#263238" stroke-linecap="round" stroke-linejoin="round" stroke-width="1.023"/>
      <line id="Line_655" data-name="Line 655" x2="18.091" transform="translate(84.048 116.22)" fill="none" stroke="#263238" stroke-linecap="round" stroke-linejoin="round" stroke-width="1.023"/>
      <line id="Line_656" data-name="Line 656" x2="18.091" transform="translate(84.048 120.292)" fill="none" stroke="#263238" stroke-linecap="round" stroke-linejoin="round" stroke-width="1.023"/>
      <line id="Line_657" data-name="Line 657" x2="18.091" transform="translate(97.614 62.861)" fill="none" stroke="#263238" stroke-linecap="round" stroke-linejoin="round" stroke-width="1.023"/>
      <line id="Line_658" data-name="Line 658" x2="18.091" transform="translate(97.614 66.933)" fill="none" stroke="#263238" stroke-linecap="round" stroke-linejoin="round" stroke-width="1.023"/>
      <line id="Line_659" data-name="Line 659" x2="18.091" transform="translate(97.614 70.997)" fill="none" stroke="#263238" stroke-linecap="round" stroke-linejoin="round" stroke-width="1.023"/>
      <line id="Line_660" data-name="Line 660" x2="18.091" transform="translate(32.491 76.879)" fill="none" stroke="#263238" stroke-linecap="round" stroke-linejoin="round" stroke-width="1.023"/>
      <line id="Line_661" data-name="Line 661" x2="18.091" transform="translate(32.491 80.951)" fill="none" stroke="#263238" stroke-linecap="round" stroke-linejoin="round" stroke-width="1.023"/>
      <line id="Line_662" data-name="Line 662" x2="18.091" transform="translate(32.491 85.016)" fill="none" stroke="#263238" stroke-linecap="round" stroke-linejoin="round" stroke-width="1.023"/>
    </g>
    <g id="freepik--Plants--inject-215" transform="translate(60.94 194.792)">
      <path id="Path_20353" data-name="Path 20353" d="M109.132,247.624s0-3.37-4.727-8.1-7.8-7.427-7.8-7.427-2.34,7.8,2.02,12.482a82.918,82.918,0,0,0,10.469,9.112Z" transform="translate(-68.644 -232.1)" fill="#aa43d1"/>
      <path id="Path_20354" data-name="Path 20354" d="M100.344,274.682s0-3.378-4.727-8.105-7.793-7.427-7.793-7.427-2.34,7.8,2.02,12.482a83.66,83.66,0,0,0,10.469,9.112Z" transform="translate(-66.713 -238.048)" fill="#aa43d1"/>
      <path id="Path_20355" data-name="Path 20355" d="M112.28,255.42s.359-3.354,5.554-7.551,8.5-6.568,8.5-6.568,1.56,7.973-3.331,12.209a82.847,82.847,0,0,1-11.366,7.957Z" transform="translate(-72.088 -234.123)" fill="#aa43d1"/>
      <path id="Path_20356" data-name="Path 20356" d="M101.479,287.777s.7-3.3,6.319-6.927,9.143-5.64,9.143-5.64.686,8.09-4.595,11.787a82.841,82.841,0,0,1-12.146,6.725Z" transform="translate(-69.573 -241.58)" fill="#aa43d1"/>
      <path id="Path_20357" data-name="Path 20357" d="M103.83,321.742s0-3.378,4.727-8.105,7.8-7.427,7.8-7.427,2.34,7.8-2.02,12.482a83.314,83.314,0,0,1-10.469,9.119Z" transform="translate(-70.371 -248.396)" fill="#aa43d1"/>
      <path id="Path_20358" data-name="Path 20358" d="M100.455,329.777s.484-3.339-3.526-8.69S90.3,312.63,90.3,312.63s-3.44,7.356.234,12.653A82.171,82.171,0,0,0,99.6,335.791Z" transform="translate(-67.074 -249.808)" fill="#aa43d1"/>
      <path id="Path_20359" data-name="Path 20359" d="M97.76,355.412s0-3.378,4.727-8.105,7.8-7.427,7.8-7.427,2.34,7.762-2.028,12.482A82.524,82.524,0,0,1,97.8,361.473Z" transform="translate(-69.036 -255.8)" fill="#aa43d1"/>
      <path id="Path_20360" data-name="Path 20360" d="M101.773,377.478s-.85-3.269,2.5-9.057,5.632-9.151,5.632-9.151,4.252,6.912,1.209,12.591a82.893,82.893,0,0,1-7.8,11.468Z" transform="translate(-69.897 -260.064)" fill="#aa43d1"/>
      <path id="Path_20361" data-name="Path 20361" d="M109.89,250.93a97.075,97.075,0,0,1-1.295,10.477c-1.872,9.65-6.537,15.883-8.41,24.6s3.495,19.955,2.059,31.15-5.8,17.428-4.548,24.9,7.8,27.709,7.8,27.709" transform="translate(-68.974 -236.241)" fill="none" stroke="#263238" stroke-linecap="round" stroke-linejoin="round" stroke-width="1.035"/>
      <line id="Line_663" data-name="Line 663" y1="3.908" x2="5.094" transform="translate(40.144 19.635)" fill="none" stroke="#263238" stroke-linecap="round" stroke-linejoin="round" stroke-width="1.035"/>
      <line id="Line_664" data-name="Line 664" x1="2.13" y1="3.791" transform="translate(38.249 15.251)" fill="none" stroke="#263238" stroke-linecap="round" stroke-linejoin="round" stroke-width="1.035"/>
      <path id="Path_20362" data-name="Path 20362" d="M101.31,293.577s4.267-3.2,8.651-6.4" transform="translate(-69.817 -244.212)" fill="none" stroke="#263238" stroke-linecap="round" stroke-linejoin="round" stroke-width="1.035"/>
      <path id="Path_20363" data-name="Path 20363" d="M101.913,283.585A68.143,68.143,0,0,0,94.33,272" transform="translate(-68.282 -240.874)" fill="none" stroke="#263238" stroke-linecap="round" stroke-linejoin="round" stroke-width="1.035"/>
      <path id="Path_20364" data-name="Path 20364" d="M104.05,328.841a52.586,52.586,0,0,1,9.119-12.2" transform="translate(-70.419 -250.69)" fill="none" stroke="#263238" stroke-linecap="round" stroke-linejoin="round" stroke-width="1.035"/>
      <path id="Path_20365" data-name="Path 20365" d="M100.9,334.711a59.957,59.957,0,0,0-4.626-8.768c-2.481-3.667-2.84-4.142-2.84-4.142" transform="translate(-68.084 -251.825)" fill="none" stroke="#263238" stroke-linecap="round" stroke-linejoin="round" stroke-width="1.035"/>
      <path id="Path_20366" data-name="Path 20366" d="M97.76,363.7a57.1,57.1,0,0,1,3.838-7.8,49.547,49.547,0,0,1,4.977-6.514" transform="translate(-69.036 -257.892)" fill="none" stroke="#263238" stroke-linecap="round" stroke-linejoin="round" stroke-width="1.035"/>
      <path id="Path_20367" data-name="Path 20367" d="M103.761,385.3a14.487,14.487,0,0,1,1.272-7.473c1.779-3.44,3.791-7.934,4.626-9.712" transform="translate(-70.341 -262.008)" fill="none" stroke="#263238" stroke-linecap="round" stroke-linejoin="round" stroke-width="1.035"/>
      <path id="Path_20368" data-name="Path 20368" d="M73.165,306.713s-.367-2.114,2.083-5.593,4.064-5.5,4.064-5.5,2.34,4.618.086,8.058a52.555,52.555,0,0,1-5.586,6.849Z" transform="translate(-63.624 -246.068)" fill="#aa43d1"/>
      <path id="Path_20369" data-name="Path 20369" d="M81.6,322.713s-.359-2.122,2.091-5.593,4.057-5.5,4.057-5.5,2.34,4.61.086,8.051a52.83,52.83,0,0,1-5.57,6.849Z" transform="translate(-65.48 -249.586)" fill="#aa43d1"/>
      <path id="Path_20370" data-name="Path 20370" d="M71.292,312.356s-.593-2.067-4.306-4.142S60.94,305,60.94,305s-.094,5.164,3.417,7.294a52.59,52.59,0,0,0,7.988,3.752Z" transform="translate(-60.94 -248.13)" fill="#aa43d1"/>
      <path id="Path_20371" data-name="Path 20371" d="M81.221,331.542s-.78-2-4.681-3.667-6.35-2.535-6.35-2.535.452,5.141,4.166,6.888a53.282,53.282,0,0,0,8.339,2.9Z" transform="translate(-62.974 -252.603)" fill="#aa43d1"/>
      <path id="Path_20372" data-name="Path 20372" d="M84.163,352.958s-.367-2.114-3.846-4.564-5.671-3.815-5.671-3.815-.64,5.125,2.621,7.614a52.915,52.915,0,0,0,7.551,4.579Z" transform="translate(-63.942 -256.834)" fill="#aa43d1"/>
      <path id="Path_20373" data-name="Path 20373" d="M87.81,357.3s-.655-2.06,1.272-5.835,3.237-6.022,3.237-6.022,2.957,4.236,1.233,7.965A52.945,52.945,0,0,1,89,360.972Z" transform="translate(-66.825 -257.023)" fill="#aa43d1"/>
      <path id="Path_20374" data-name="Path 20374" d="M95.329,380.019s.242-2.137,3.573-4.782,5.461-4.127,5.461-4.127.936,5.078-2.184,7.746a53.048,53.048,0,0,1-7.278,5Z" transform="translate(-68.407 -262.668)" fill="#aa43d1"/>
      <path id="Path_20375" data-name="Path 20375" d="M91.623,373.41s-.367-2.122-3.838-4.571S82.106,365,82.106,365s-.64,5.125,2.629,7.614a52.454,52.454,0,0,0,7.551,4.579Z" transform="translate(-65.583 -261.324)" fill="#aa43d1"/>
      <path id="Path_20376" data-name="Path 20376" d="M92.067,387.564s.187-2.145-2.559-5.391-4.525-5.133-4.525-5.133-1.919,4.8.616,8.035a53.221,53.221,0,0,0,6.139,6.342Z" transform="translate(-66.074 -263.972)" fill="#aa43d1"/>
      <path id="Path_20377" data-name="Path 20377" d="M72.7,309.21a63.459,63.459,0,0,0,1.95,6.428c2.223,5.851,5.827,9.252,7.941,14.518s0,12.887,2.091,19.752,5.531,10.3,5.554,15.118-1.872,18.223-1.872,18.223" transform="translate(-63.526 -249.056)" fill="none" stroke="#263238" stroke-linecap="round" stroke-linejoin="round" stroke-width="1.035"/>
      <line id="Line_665" data-name="Line 665" x1="3.62" y1="1.896" transform="translate(7.006 63.727)" fill="none" stroke="#263238" stroke-linecap="round" stroke-linejoin="round" stroke-width="1.035"/>
      <line id="Line_666" data-name="Line 666" y1="2.613" x2="0.928" transform="translate(9.986 60.216)" fill="none" stroke="#263238" stroke-linecap="round" stroke-linejoin="round" stroke-width="1.035"/>
      <path id="Path_20378" data-name="Path 20378" d="M83.376,334.914s-3.019-1.56-6.116-3.074" transform="translate(-64.528 -254.032)" fill="none" stroke="#263238" stroke-linecap="round" stroke-linejoin="round" stroke-width="1.035"/>
      <path id="Path_20379" data-name="Path 20379" d="M82.46,328.44a43.623,43.623,0,0,1,3.495-8.09" transform="translate(-65.672 -251.506)" fill="none" stroke="#263238" stroke-linecap="round" stroke-linejoin="round" stroke-width="1.035"/>
      <path id="Path_20380" data-name="Path 20380" d="M85.411,357.332a33.436,33.436,0,0,0-7.021-6.662" transform="translate(-64.777 -258.173)" fill="none" stroke="#263238" stroke-linecap="round" stroke-linejoin="round" stroke-width="1.035"/>
      <path id="Path_20381" data-name="Path 20381" d="M88.72,360.389a37.717,37.717,0,0,1,1.942-6c1.162-2.566,1.334-2.91,1.334-2.91" transform="translate(-67.048 -258.351)" fill="none" stroke="#263238" stroke-linecap="round" stroke-linejoin="round" stroke-width="1.035"/>
      <path id="Path_20382" data-name="Path 20382" d="M95,383.693a31.906,31.906,0,0,1,3.9-4.041,20.571,20.571,0,0,0,2.528-2.192" transform="translate(-68.429 -264.064)" fill="none" stroke="#263238" stroke-linecap="round" stroke-linejoin="round" stroke-width="1.035"/>
      <path id="Path_20383" data-name="Path 20383" d="M93.186,378.506a35.751,35.751,0,0,0-3.245-4.447,31.2,31.2,0,0,0-3.83-3.549" transform="translate(-66.475 -262.536)" fill="none" stroke="#263238" stroke-linecap="round" stroke-linejoin="round" stroke-width="1.035"/>
      <path id="Path_20384" data-name="Path 20384" d="M92.272,392.611a9.252,9.252,0,0,0-1.607-4.556c-1.49-1.958-3.245-4.564-3.955-5.586" transform="translate(-66.606 -265.166)" fill="none" stroke="#263238" stroke-linecap="round" stroke-linejoin="round" stroke-width="1.035"/>
      <path id="Path_20385" data-name="Path 20385" d="M80.41,401.13h30.884v23.255a2.34,2.34,0,0,1-2.34,2.34H82.782a2.34,2.34,0,0,1-2.34-2.34V401.13Z" transform="translate(-65.221 -269.269)" fill="#263238"/>
      <path id="Path_20386" data-name="Path 20386" d="M110.371,404.934H79.728a2.418,2.418,0,0,1-2.418-2.426h0a2.418,2.418,0,0,1,2.418-2.418h30.642a2.418,2.418,0,0,1,2.418,2.418h0a2.418,2.418,0,0,1-2.418,2.426Z" transform="translate(-64.539 -269.04)" fill="#263238"/>
    </g>
    <g id="freepik--Character--inject-215" transform="translate(114.635 90.252)">
      <path id="Path_20387" data-name="Path 20387" d="M131.523,423.631s-1.677,6.459-1.677,8.09-.406,2.723,3.12,3.4,5.851.273,6.4-1.357.952-9.806.952-9.806l-8.581-1.638Z" transform="translate(-129.784 -169.388)" fill="#fff" stroke="#263238" stroke-linecap="round" stroke-linejoin="round" stroke-width="1.035"/>
      <path id="Path_20388" data-name="Path 20388" d="M139.311,436.459a6.725,6.725,0,0,0,.234-1.139,57.729,57.729,0,0,1-9.767-.78c0,1.56-.3,2.613,3.12,3.269S138.788,438.089,139.311,436.459Z" transform="translate(-129.771 -172.076)" fill="#fff" stroke="#263238" stroke-linecap="round" stroke-linejoin="round" stroke-width="1.035"/>
      <path id="Path_20389" data-name="Path 20389" d="M235.437,424.78s2.723.952,6.678,2.177,12.006,2.59,12.786,2.723.78,1.771.133,2.457-4.22,2.723-8.441,3.807-18.527,2.044-19.752,1.233c-1.022-.686-.679-7.356-.273-8.854S235.437,424.78,235.437,424.78Z" transform="translate(-150.968 -169.929)" fill="#fff" stroke="#263238" stroke-linecap="round" stroke-linejoin="round" stroke-width="1.035"/>
      <path id="Path_20390" data-name="Path 20390" d="M255.08,433.671a2.036,2.036,0,0,0,.406-1.911,29.1,29.1,0,0,1-13.886,5.18,100.35,100.35,0,0,1-15.29-.078c.1.936.281,1.646.577,1.849,1.225.78,15.524-.14,19.752-1.233A24.63,24.63,0,0,0,255.08,433.671Z" transform="translate(-151 -171.464)" fill="#fff" stroke="#263238" stroke-linecap="round" stroke-linejoin="round" stroke-width="1.035"/>
      <path id="Path_20391" data-name="Path 20391" d="M148.85,272.57s-2.34,14.245-.53,22.155c0,0-3.425,31.376-3.955,45.355,0,0-7.38,24.526-8.441,32.172A188.325,188.325,0,0,1,132,390.7a16.7,16.7,0,0,0,5.274,1.849c3.7.78,4.22-2.114,4.22-2.114s20.283-46.674,21.89-53.531,6.842-31.368,6.842-31.368l21.843,40.082s1.061,13.714,4.22,21.624,9.229,29.792,9.229,29.792a21.842,21.842,0,0,0,7.122-.78c3.167-1.053,3.167-2.637,3.167-2.637s-4.751-17.669-4.751-23.466-1.841-25.58-3.159-31.118-10.29-34.543-11.608-37.71-4.22-13.184-4.22-13.184l-1.841-15.563S167.573,278.9,148.85,272.57Z" transform="translate(-130.261 -136.459)" fill="#263238" stroke="#263238" stroke-linecap="round" stroke-linejoin="round" stroke-width="1.035"/>
      <path id="Path_20392" data-name="Path 20392" d="M169.9,167a13.676,13.676,0,0,1-1.217-4.244c0-1.615-.78-9.291-.78-9.291s11.7-21.2,14.939-25.236a49.56,49.56,0,0,1,7.068-7.068s7.879-1.615,9.494-1.615,3.432-.78,3.432-1.818-2.629-.78-4.244-.78a8.074,8.074,0,0,1-3.635-1.412s2.629-7.528,3.432-10.5c.429-1.56,1.818-4.844.78-4.844s-1.209.78-1.818,2.02-3.23,5.25-3.23,5.25l.6-8.885s-.78-1.209-1.412.2a60.777,60.777,0,0,0-2.02,6.662,4.876,4.876,0,0,1-1.006,1.919l-.78-6.623s-1.373-1.459-1.615,1.069c-.133,1.4,0,6.061,0,6.865s-.78-1.147-.78-1.147-.476-2.192-1.006-2.489-1.006.406-.78,2.02-.2,8.277-.2,8.277-1.209,1.615-3.027,3.838-16.382,15.345-21.843,19.588-6.054,7.676-6.865,11.912-1.615,28.864-1.615,37.765.78,23.013,1.412,27.663-.484,10.641-1.264,13.9,0,6.054,2.223,7.668,11.7,2.629,19.581,2.629,15.953-.78,18.379-1.615,4.283-1.022,4.283-4.244-1.615-9.689-1.615-11.507,3.237-20.595,3.237-20.595,20.595,6.241,24.433,4.844,35.939-31.7,35.939-31.7a50.169,50.169,0,0,1,7.676-2.426c2.629-.406,6.662-2.215,6.865-2.824s-.406-.406-2.02-.406a19.034,19.034,0,0,0-4.244.78s5.515-3.495,6.467-3.838c.655-.242,1.786-1.732.2-1.412-1.989.4-6.865,1.818-6.865,1.818l6.459-4.041s1.006-1.615-.2-1.615-7.271,3.635-7.271,3.635l4.681-4.384c.913-.843.148-2.036-.928-1.412l-5.461,3.12a21.143,21.143,0,0,1-4.213,1.88l-1.006.609a26.7,26.7,0,0,0,.406-3.23c0-1.014-.609-3.635-2.021-3.838s-.2,1.818-.2,2.824-2.02,6.241-2.02,7.068v2.426s-6.865,6.054-13.121,9.291-20.4,13.933-20.4,13.933-16.148-8.285-19.783-11.312-7.676-6.662-11.7-9.892a50.114,50.114,0,0,0-6.662-4.681Z" transform="translate(-134.576 -98.092)" fill="#fff" stroke="#263238" stroke-linecap="round" stroke-linejoin="round" stroke-width="1.035"/>
      <path id="Path_20393" data-name="Path 20393" d="M237.377,191.082c-6.857,4.384-16.195,11.452-16.195,11.452s-16.148-8.285-19.783-11.312-7.676-6.662-11.7-9.892a50.11,50.11,0,0,0-6.662-4.681l-13.121-.6a13.676,13.676,0,0,1-1.217-4.244c0-1.615-.78-9.291-.78-9.291s6.046-10.921,10.648-18.605l-.367-.374a17.272,17.272,0,0,0-8.121-4.135c-3.807,3.378-7.59,6.631-9.837,8.378-5.461,4.236-6.054,7.676-6.865,11.912s-1.615,28.864-1.615,37.765.78,23.013,1.412,27.662-.476,10.7-1.256,13.964,0,6.054,2.223,7.668,11.7,2.629,19.581,2.629,15.953-.78,18.379-1.615,4.283-1.022,4.283-4.244-1.615-9.689-1.615-11.507,3.237-20.595,3.237-20.595,20.595,6.241,24.433,4.844c2.044-.78,12.17-9.751,21.149-17.942A27.6,27.6,0,0,0,237.377,191.082Z" transform="translate(-134.576 -107.176)" fill="#aa43d1" stroke="#263238" stroke-linecap="round" stroke-linejoin="round" stroke-width="1.035"/>
      <path id="Path_20394" data-name="Path 20394" d="M200.581,197.76s-8.129,2.216-8.581,8.371" transform="translate(-143.455 -120.009)" fill="none" stroke="#263238" stroke-linecap="round" stroke-linejoin="round" stroke-width="1.035"/>
      <path id="Path_20395" data-name="Path 20395" d="M206.943,229.6s-9.47-2.606-14.393-7.536" transform="translate(-143.576 -125.352)" fill="none" stroke="#263238" stroke-linecap="round" stroke-linejoin="round" stroke-width="1.035"/>
      <path id="Path_20396" data-name="Path 20396" d="M199.886,229.793s-8.129,2.215-15.516-.733" transform="translate(-141.777 -126.891)" fill="none" stroke="#263238" stroke-linecap="round" stroke-linejoin="round" stroke-width="1.035"/>
      <path id="Path_20397" data-name="Path 20397" d="M160.3,213.23s2.567,17.942,14.939,26.882" transform="translate(-136.484 -123.41)" fill="none" stroke="#263238" stroke-linecap="round" stroke-linejoin="round" stroke-width="1.035"/>
      <path id="Path_20398" data-name="Path 20398" d="M184.45,254c.944.257,1.919.484,2.925.663" transform="translate(-141.795 -132.376)" fill="none" stroke="#263238" stroke-linecap="round" stroke-linejoin="round" stroke-width="1.035"/>
      <path id="Path_20399" data-name="Path 20399" d="M160.3,236.2a34.715,34.715,0,0,0,13.847,11.982" transform="translate(-136.484 -128.461)" fill="none" stroke="#263238" stroke-linecap="round" stroke-linejoin="round" stroke-width="1.035"/>
      <path id="Path_20400" data-name="Path 20400" d="M157.23,184.63s7.879-3.9,12.56-.25" transform="translate(-135.809 -116.723)" fill="none" stroke="#263238" stroke-linecap="round" stroke-linejoin="round" stroke-width="1.035"/>
      <path id="Path_20401" data-name="Path 20401" d="M160.07,162.1s7.146,2.465,9.112,7.388" transform="translate(-136.434 -112.167)" fill="none" stroke="#263238" stroke-linecap="round" stroke-linejoin="round" stroke-width="1.035"/>
      <path id="Path_20402" data-name="Path 20402" d="M166.07,159.89a10.063,10.063,0,0,1,3.448,5.414" transform="translate(-137.753 -111.681)" fill="none" stroke="#263238" stroke-linecap="round" stroke-linejoin="round" stroke-width="1.035"/>
      <path id="Path_20403" data-name="Path 20403" d="M200.388,143.813s1.217,6.865,1.217,8.683-2.02,2.426-1.217,4.844,2.629,2.629,2.223,4.681-3.027,3.23-3.027,3.23-1.412,5.656-2.832,8.074-6.662.608-6.662.608l-.406,6.459s-1.818,2.629-8.48,1.818a36.969,36.969,0,0,1-11.1-3.027l-1.014-1.412s5.25-2.629,5.461-4.447,0-6.054,0-12.115-1.818-17.771,8.074-20.8S200.388,143.813,200.388,143.813Z" transform="translate(-138.417 -107.22)" fill="#fff" stroke="#263238" stroke-linecap="round" stroke-linejoin="round" stroke-width="1.035"/>
      <path id="Path_20404" data-name="Path 20404" d="M188.283,158.846s-2.278-5.227-4.829-2.239c-1.654,1.942.406,7.676,1.412,8.48s3.23.406,3.23.406-3.23,3.23-6.662,3.23-6.459-3.23-8.683-8.885-3.838-15.345-1.412-21.2,14.947-6.054,17.771-6.054a25.733,25.733,0,0,1,7.068,1.615s9.088-.78,9.291,2.223-1.217,3.23-1.217,3.23,6.467,3.432,3.432,4.844-7.668.608-10.7.608a4.33,4.33,0,0,0-4.033,2.215s2.824,1.818,1.818,2.629-4.681,2.418-5.047,3.838,1.412,3.635.2,4.681S188.283,158.846,188.283,158.846Z" transform="translate(-138.646 -105.676)" fill="#263238" stroke="#263238" stroke-linecap="round" stroke-linejoin="round" stroke-width="1.035"/>
      <path id="Path_20405" data-name="Path 20405" d="M207.266,162.594c0,1.03-.429,1.864-.952,1.864s-.944-.835-.944-1.864.429-1.864.944-1.864S207.266,161.565,207.266,162.594Z" transform="translate(-146.395 -111.866)" fill="#263238"/>
      <path id="Path_20406" data-name="Path 20406" d="M203.56,159.537s1.3-3.042,3.37-1.412" transform="translate(-145.997 -111.187)" fill="none" stroke="#263238" stroke-linecap="round" stroke-linejoin="round" stroke-width="1.035"/>
      <path id="Path_20407" data-name="Path 20407" d="M177.857,313.194l-1.849-3.432-9.229-2.372" transform="translate(-137.909 -144.116)" fill="none" stroke="#fff" stroke-linecap="round" stroke-linejoin="round" stroke-width="1.035"/>
    </g>
  </g>
</svg>
