<svg id="Layer_4" data-name="Layer 4" xmlns="http://www.w3.org/2000/svg" viewBox="0 0 850.39 566.93"><defs><style>.cls-1,.cls-2{fill:#334443;}.cls-2{stroke:#334443;}.cls-2,.cls-3{stroke-miterlimit:10;stroke-width:26px;}.cls-3{fill:none;stroke:#e8f6ef;}.cls-4{fill:#d7e2dd;}</style></defs><path class="cls-1" d="M553.35,389.27a167,167,0,0,1-52.15-8.84c-2.4-.78-4.93-1.69-7.73-2.76l-18.06-6.93,4-18.92c.32-1.53.62-3.17.94-4.9l5.11-27.79,25.81,10.5c1.71.7,3.47,1.35,5.39,2a114.58,114.58,0,0,0,36.37,6.3,75.41,75.41,0,0,0,23-3.31l.27-.09a37.23,37.23,0,0,0,3.58-1.3l26.44-11,4.65,28.27c.36,2.19.7,4.41,1,6.61l2.48,17.76-16.72,6.5c-2.35.92-4.75,1.75-7.11,2.49A125.28,125.28,0,0,1,553.35,389.27Z"/><path class="cls-2" d="M344,528.07c-4.73,0-9.52-.18-14.23-.55-53.1-4.2-100.26-27.42-132.8-65.4-23.89-27.89-40.74-59.27-50.08-93.27a225,225,0,0,1-3.32-106.28c9.13-44.11,30.65-83.52,65.77-120.45,41-43.12,92.5-66.87,145.1-66.87a178.2,178.2,0,0,1,23.39,1.56C409,80.92,438.3,91.68,460.36,107.1A25.77,25.77,0,0,1,446,154a25.35,25.35,0,0,1-14.51-4.59c-.88-.62-2.08-1.35-3.34-2.11l-.4-.24a147.33,147.33,0,0,0-74.46-20.64c-3.36,0-6.73.13-10,.38C294,130.52,244.93,166.19,212,222.2c-15.65,26.6-23.71,61.82-22.11,96.62,1.41,30.92,11.78,61.7,30,89,10.88,16.35,24.47,34.52,42.73,45.39,25.24,15,53.31,23,81.18,23a141.89,141.89,0,0,0,74.13-20.84c27.59-16.89,40.62-33.56,51.64-66a292.9,292.9,0,0,0,9.77-37.27l0-.25c.32-1.53.62-3.16.94-4.9l.07-.38c3-15.93,5.08-31.82,7.31-48.64q.94-7.11,1.91-14.24c2.85-20.89,9.38-35.91,19.94-45.91,9.73-9.21,21.1-14.08,32.9-14.08,14,0,26.72,6.87,35.69,19.33,15.76,21.9,21.17,48.12,25.94,71.26.62,3,1.24,6,1.87,8.94,1.75,8.09,3.33,16.81,5,27.39.34,2.11.67,4.25,1,6.36.85,5.59,1.65,11.23,2.43,16.68.62,4.35,1.24,8.72,1.89,13.1l.1.73c2.19,14.78,4.59,31.05,9.59,44.54,1.1-4,2-8.13,2.71-11.38.49-2.26,1-4.43,1.45-6.49,5.54-23.24,11.11-45.95,18.48-68.58l1.08-3.32c4.48-13.85,9.57-29.56,20-42.93a24.94,24.94,0,0,1,19.76-9.74,25.92,25.92,0,0,1,20.18,41.78c-7.18,9.2-11.51,25.12-15.34,39.16-.85,3.14-1.68,6.2-2.53,9.15-3,10.44-5.5,20.94-8.13,32.06s-5.31,22.41-8.56,33.73c-4,14-10.53,31.42-25.51,41.76a40.86,40.86,0,0,1-23.44,7.69c-17.85,0-33.76-12.62-43.64-34.63-10.73-23.93-14.88-50.38-17.92-73.3-1-7.37-2-14.31-3.09-21.2v-.12c-.3-1.94-.59-3.82-.91-5.7-2.36-14.33-5.14-28.53-8.25-42.24-2.29-10-6.5-24.26-9.59-30.72-.21-.44-.42-.89-.62-1.34a80.34,80.34,0,0,0-2.43,12.89c-1.81,17.48-4.06,37.87-7.93,58.73l-.13.7c-.34,1.79-.67,3.59-1,5.38-8.21,41.26-21.26,73.18-39.88,97.54-11.5,15.05-26.95,26-41.93,35.65C416.73,517.16,380.48,528.07,344,528.07Z"/><path class="cls-3" d="M589.47,360.23c-1.84.71-3.73,1.38-5.62,2-24.05,7.49-51.48,4.76-75.54-3.29-2.27-.74-4.52-1.56-6.72-2.41.41-1.94.77-3.91,1.12-5.85,2.2.89,4.43,1.71,6.7,2.48,22.85,7.77,50,10.61,73.49,3.09,1.92-.59,3.81-1.28,5.65-2C588.89,356.19,589.19,358.21,589.47,360.23Z"/><path class="cls-3" d="M691.7,317.43c-11.81,15.14-16.57,37.89-21.76,56-6.26,21.75-10.45,44-16.69,65.8-2.94,10.27-7.44,23-16.59,29.34-15.57,10.71-27.45-4.06-33.51-17.56C593.79,430.11,590,406.49,587,384c-1-7.31-2-14.54-3.17-21.78-.31-2-.61-4-1-6-2.4-14.54-5.21-29-8.51-43.53-2.22-9.77-6.9-26.42-11.25-35.49s-9-25.64-23.52-23.66c-15.33,2.1-21.24,30.09-22.54,42.66-1.87,18.05-4.06,37.5-7.67,56.93-.36,1.92-.71,3.86-1.1,5.78-6.36,32-16.77,63.49-35.66,88.21-9.53,12.48-23.16,22-36.17,30.34-31.18,20.1-67.87,30.37-105,27.46-45.66-3.61-87.68-22.91-117.36-57.54-43.07-50.28-61.94-115.06-48.41-180.19,8.87-42.84,29.83-77.71,60-109.43,39-41.06,91.87-66.06,149.08-58.46,25,3.29,51.69,11.8,72.57,26.4,3.1,2.15.16,7.26-3,5.09-1.61-1.13-3.33-2.15-5-3.17-29-17.36-64.16-26-97.91-23.44-64.24,4.88-117.58,53-149,106.54-18.84,32-26.89,72.42-25.2,109.15,1.64,36.05,13.8,70.61,33.77,100.57,13.9,20.88,29.09,39.85,50,52.3,55.29,32.92,123,36.09,178.76,2,32.84-20.12,48.95-41.8,61.27-78.09a316,316,0,0,0,10.53-40.14c.41-1.94.77-3.91,1.12-5.85,3.94-21.09,6.45-42.41,9.39-63.91,1.53-11.22,4.79-24.68,13.06-32.51,11.56-10.94,25.46-10.66,34.59,2,14.78,20.53,18.86,47.59,24,71.73,1.89,8.74,3.4,17.45,4.75,26.2.34,2,.64,4,.92,6.06,1.51,9.91,2.84,19.83,4.32,29.83,3.22,21.78,6.83,46.83,18.56,65.9,5.34,8.71,13.52,14.41,22.6,6.46,11.2-9.84,14-29.44,17.2-43.07,5.34-22.44,10.81-44.81,18-66.77,4.32-13.21,8.69-28.17,17.41-39.31C689.86,310.28,694,314.47,691.7,317.43Z"/><path class="cls-4" d="M534.87,276.2l1.89-4.21c.79-1.51,2.7-4.57,4.16-5.46l1.26-.2s-1.79-5.48-24.41-23.07C517.77,243.26,538.68,266.07,534.87,276.2Z"/><path class="cls-4" d="M610.86,415.12l3.91,16.31c.52,1.77,4.39,11,5.29,12.61l5.29,7.92s-5.22,6.29-28.09,15.55C600.63,467.93,616.73,436.83,610.86,415.12Z"/><path class="cls-4" d="M616.67,478a24.47,24.47,0,0,0,18.47-1.73,31.49,31.49,0,0,0,7.55-5.48,44.87,44.87,0,0,0,6.09-7.21c.49-.63.9-1.31,1.33-2s.89-1.32,1.28-2c.78-1.39,1.62-2.75,2.33-4.19l1.11-2.13c.37-.71.69-1.45,1-2.18l1-2.18,1-2.22c2.53-5.94,4.67-12.07,6.84-18.24A105.17,105.17,0,0,1,660,447.52a73.16,73.16,0,0,1-8.78,17.77l-1.49,2-1.61,1.93c-.52.66-1.13,1.25-1.7,1.86l-.88.91c-.3.3-.63.57-.94.85a30.94,30.94,0,0,1-8.49,5.52A22.55,22.55,0,0,1,616.67,478Z"/><path class="cls-4" d="M685.83,303.85a7,7,0,0,0-2.65,1.38c-.38.32-.75.66-1.12,1s-.67.74-1,1.1a34.17,34.17,0,0,0-3.47,4.85,89.6,89.6,0,0,0-5.46,10.75c-.8,1.86-1.65,3.69-2.39,5.59l-1.18,2.81c-.4.94-.73,1.9-1.13,2.85-1.56,3.77-3,7.61-4.75,11.38a84.71,84.71,0,0,1,2.54-12.14c.49-2,1.21-4,1.87-5.92s1.49-3.88,2.3-5.79c.41-1,.88-1.89,1.36-2.82s.92-1.88,1.44-2.78l1.65-2.69c.54-.89,1.21-1.72,1.83-2.57a13,13,0,0,1,1-1.23l1.05-1.2c.34-.4.77-.74,1.15-1.11a13.46,13.46,0,0,1,1.2-1.05c.43-.32.85-.64,1.3-.94s.91-.55,1.4-.78A6.18,6.18,0,0,1,685.83,303.85Z"/><path class="cls-4" d="M536.71,236.41a19.06,19.06,0,0,1,9.61.59c.78.25,1.53.56,2.3.84.38.15.77.29,1.15.45l1.09.55L553,240c.7.41,1.36.9,2.05,1.34a56.88,56.88,0,0,1,13.68,13.79,22,22,0,0,1,1.35,2l1.29,2.05,1.3,2.05a20.64,20.64,0,0,1,1.21,2.09l2.2,4.3,1.1,2.14c.36.72.63,1.48.95,2.21l1.83,4.45c.58,1.49,1.22,3,1.68,4.5,1,3,1.93,6.1,2.77,9.18-1.46-2.86-2.79-5.75-4.13-8.62-.61-1.46-1.39-2.85-2.12-4.26L576.06,273c-.68-1.43-1.48-2.78-2.26-4.15l-2.34-4.1c-.2-.34-.38-.69-.59-1l-.64-1-1.28-2-1.29-2a20,20,0,0,0-1.33-1.93l-2.81-3.74c-.24-.31-.46-.63-.71-.93l-.78-.87-1.56-1.74c-.51-.57-1-1.18-1.55-1.74l-1.69-1.59-1.69-1.6c-.59-.49-1.21-1-1.82-1.44s-1.2-1-1.84-1.41l-2-1.24-1-.63c-.33-.19-.68-.35-1-.52-.69-.34-1.38-.71-2.09-1A21.82,21.82,0,0,0,536.71,236.41Z"/></svg>