<svg id="marketing" xmlns="http://www.w3.org/2000/svg" width="446.73" height="445.248" viewBox="0 0 446.73 445.248">
  <g id="freepik--Floor--inject-196" transform="translate(0 203.112)">
    <ellipse id="freepik--floor--inject-196-2" data-name="freepik--floor--inject-196" cx="223.365" cy="121.068" rx="223.365" ry="121.068" fill="#f0f0f0"/>
  </g>
  <g id="freepik--Shadows--inject-196" transform="translate(14.606 224.11)">
    <path id="freepik--Shadow--inject-196" d="M308.359,382.983a11.474,11.474,0,0,0-1.675-5.887h0c-.226-.38-.462-.743-.715-1.1l-.045-.054a11.592,11.592,0,0,0-.779-.96l-.082-.081a10.281,10.281,0,0,0-.842-.824l-.082-.063a8.23,8.23,0,0,0-.906-.688l-.543-.3-.245-.109-.281-.127a4.011,4.011,0,0,0-.4-.127h-.109a3.072,3.072,0,0,0-.471-.091h0a2.962,2.962,0,0,0-1.73.272h0c-4.791,2.4-32.4,19.97-45.1,27.885l-6.294,3.822a1.431,1.431,0,0,0-.471.435.316.316,0,0,1-.045.072,1.906,1.906,0,0,0-.145.272,1.167,1.167,0,0,0-.063.19,1.933,1.933,0,0,0-.072.245v.163l-1.041.571-.906.507a36.282,36.282,0,0,0-7.173-5.325c-8.712-5.026-20.25-7.8-32.495-7.8s-23.782,2.771-32.495,7.8c-9.057,5.208-13.983,12.244-13.983,19.807s4.963,14.59,13.983,19.807c8.712,5.026,20.25,7.789,32.495,7.789s23.783-2.762,32.495-7.789c9.057-5.217,13.983-12.244,13.983-19.807a18.213,18.213,0,0,0-2.952-9.79l.833-.444a1.875,1.875,0,0,0,1.811.172h0c4.311-2.373,46.333-20.287,54.928-24.9h0A4.259,4.259,0,0,0,308.359,382.983ZM234.095,434.37c-7.517,4.338-17.651,6.729-28.519,6.729s-21-2.391-28.519-6.729c-6.457-3.731-10.017-8.323-10.017-12.924s3.559-9.2,10.017-12.924c7.517-4.347,17.642-6.738,28.519-6.738s21,2.391,28.519,6.738c6.457,3.722,10.017,8.314,10.017,12.924s-3.586,9.192-10.062,12.924Z" transform="translate(-32.894 -250.997)" fill="#e0e0e0"/>
    <path id="freepik--shadow--inject-196-2" data-name="freepik--shadow--inject-196" d="M303.017,263.933,260.4,239.272a8.667,8.667,0,0,0-7.843,0L36.021,364.253c-2.165,1.25-2.165,3.278,0,4.528L78.65,393.442a8.667,8.667,0,0,0,7.843,0l81.138-46.85,12.48,7.245c6.6,3.813,17.307,3.813,23.918,0l37.177-21.31c6.611-3.813,6.611-9.962,0-13.811l-12.471-7.245L303,268.416C305.173,267.212,305.173,265.2,303.017,263.933Z" transform="translate(-34.398 -238.334)" fill="#e0e0e0"/>
    <ellipse id="freepik--shadow--inject-196-3" data-name="freepik--shadow--inject-196" cx="41.796" cy="24.136" rx="41.796" ry="24.136" transform="translate(325.654 94.075)" fill="#e0e0e0"/>
  </g>
  <g id="freepik--Plant--inject-196" transform="translate(399.821 267.663)">
    <g id="freepik--Plants--inject-196">
      <path id="Path_55891" data-name="Path 55891" d="M436.148,334.686c0-5.66-1.123-16.084,3.623-25.866,3.478-7.091,9.682-13.974,15.46-13.286,5.37.634,5.86,8.9.715,14.563s-11.683,13.494-13.114,26l-3.7,9.292Z" transform="translate(-430.165 -295.487)" fill="#70ab8d"/>
      <g id="Group_1430" data-name="Group 1430" transform="translate(5.867)" opacity="0.2">
        <path id="Path_55892" data-name="Path 55892" d="M436.148,334.686c0-5.66-1.123-16.084,3.623-25.866,3.478-7.091,9.682-13.974,15.46-13.286,5.37.634,5.86,8.9.715,14.563s-11.683,13.494-13.114,26l-3.7,9.292Z" transform="translate(-436.032 -295.487)"/>
      </g>
      <path id="Path_55893" data-name="Path 55893" d="M438.237,339.023a.408.408,0,0,0,.326-.408c-.652-16.084,4.583-29.443,15.133-38.617a.391.391,0,1,0-.516-.589c-10.741,9.337-16.066,22.9-15.4,39.242a.4.4,0,0,0,.408.38Z" transform="translate(-430.325 -295.848)" fill="#fff"/>
      <path id="Path_55894" data-name="Path 55894" d="M434.486,358.084a19.979,19.979,0,0,0,9.962,2.771c6.059.145,8.3-3.043,8.3-3.043s-3.088-5.244-6.657-6.34a33.454,33.454,0,0,1,10.868,2.835s3.623-.426,4.329-6.149c0,0-2.59-3.034-10.026-3.867a23.954,23.954,0,0,1,10.75-.906c.5.127,1.558-7.245,1.73-10.669s-1.15-3.161-3.813-3.5-11.466.4-12.887,2.029-1.585,6.575-1.585,6.575a9.64,9.64,0,0,1-1.866-5.026,9.292,9.292,0,0,0-5.434.906c-2.717,1.395-3.623,2.509-3.768,4.619s-.317,5.28.534,7.734c0,0-2.509-4.048-2.382-7.562a37.445,37.445,0,0,0-2.581,5.289C428.772,346.854,430.175,354.307,434.486,358.084Z" transform="translate(-429.554 -298.661)" fill="#70ab8d"/>
      <path id="Path_55895" data-name="Path 55895" d="M435.088,358.646a.381.381,0,0,0,.272-.254c3.441-10.569,19.662-24.453,25.856-26.572a.392.392,0,1,0-.254-.743c-6.34,2.128-22.841,16.3-26.355,27.07a.4.4,0,0,0,.254.5A.389.389,0,0,0,435.088,358.646Z" transform="translate(-430.029 -298.843)" fill="#fff"/>
    </g>
  </g>
  <g id="freepik--Device--inject-196" transform="translate(42.204)">
    <g id="freepik--device--inject-196-2" data-name="freepik--device--inject-196">
      <g id="freepik--Monitor--inject-196">
        <path id="Path_55896" data-name="Path 55896" d="M216.238,352.409l32.042-18.53c3.3-1.9,4.945-4.4,4.945-6.9v-4.456l-30.149-17.108a7.082,7.082,0,0,1-3.188-5.525V260.34L164,292.681v39.5a7.037,7.037,0,0,0,3.2,5.524l25.123,14.708C198.922,356.176,209.636,356.176,216.238,352.409Z" transform="translate(-74.222 -43.549)" fill="#37474f"/>
        <path id="Path_55897" data-name="Path 55897" d="M177.38,341.9v4.438l-10.252-5.9a7.055,7.055,0,0,1-3.188-5.525v-39.5l10.66-6.149c.217,2.717.462,5.506.679,8.232l-7.472,4.32v30.865A7,7,0,0,0,171,338.2Z" transform="translate(-74.217 -46.277)" fill="#263238"/>
        <path id="Path_55898" data-name="Path 55898" d="M168.21,330.626a7.055,7.055,0,0,0,3.188,5.525l21.319,12.4c6.6,3.813,17.307,3.813,23.918,0l32.051-18.521c6.6-3.813,6.6-9.962,0-13.8l-21.328-12.417a7.037,7.037,0,0,1-3.2-5.525V267.42L168.21,299.761Z" transform="translate(-74.62 -44.217)" fill="#455a64"/>
        <path id="Path_55899" data-name="Path 55899" d="M233.852,307.568h0l-6.494-3.749a7.037,7.037,0,0,1-3.2-5.525V267.42L168.21,299.761v30.865a7.055,7.055,0,0,0,3.188,5.524l6.385,3.677Z" transform="translate(-74.62 -44.217)" opacity="0.15"/>
        <path id="Path_55900" data-name="Path 55900" d="M257.487,329v4.456c0,2.509-1.657,4.99-4.954,6.91l-32.042,18.512a23.973,23.973,0,0,1-11.411,2.835v-4.438a23.972,23.972,0,0,0,11.411-2.835l32.042-18.53C255.83,333.963,257.487,331.463,257.487,329Z" transform="translate(-78.475 -50.026)" fill="#37474f"/>
        <path id="Path_55901" data-name="Path 55901" d="M68.61,349.985a8.577,8.577,0,0,0,7.725-.145L292.787,224.86a8.794,8.794,0,0,0,3.985-6.9V28.577a8.54,8.54,0,0,0-3.74-6.756,8.549,8.549,0,0,0-7.725.136L68.855,146.937a8.812,8.812,0,0,0-3.985,6.9V343.22A8.558,8.558,0,0,0,68.61,349.985Z" transform="translate(-64.87 -20.965)" fill="#455a64"/>
        <path id="Path_55902" data-name="Path 55902" d="M77.12,350.327,293.571,225.392a8.812,8.812,0,0,0,3.985-6.9V29.073c0-2.545-1.811-3.577-3.985-2.3L77.165,151.753a8.812,8.812,0,0,0-3.985,6.9V348.027C73.135,350.572,74.919,351.6,77.12,350.327Z" transform="translate(-65.654 -21.461)" fill="#37474f"/>
        <path id="Path_55903" data-name="Path 55903" d="M81.39,324.281V162.368a5.28,5.28,0,0,1,2.364-4.139L288.432,40.086c1.313-.761,2.391-.145,2.391,1.377V203.385a5.253,5.253,0,0,1-2.391,4.139L83.754,325.666C82.459,326.427,81.39,325.811,81.39,324.281Z" transform="translate(-66.429 -22.738)" fill="#70ab8d"/>
        <path id="Path_55904" data-name="Path 55904" d="M81.39,324.281V162.368a5.28,5.28,0,0,1,2.364-4.139L288.432,40.086c1.313-.761,2.391-.145,2.391,1.377V203.385a5.253,5.253,0,0,1-2.391,4.139L83.754,325.666C82.459,326.427,81.39,325.811,81.39,324.281Z" transform="translate(-66.429 -22.738)" fill="#fff" opacity="0.7"/>
        <path id="Path_55905" data-name="Path 55905" d="M196.286,305.544a2.356,2.356,0,0,1-1.2-.308,3.061,3.061,0,0,1-1.322-2.817,8.631,8.631,0,0,1,3.967-6.865h0a2.717,2.717,0,0,1,4.42,2.545,8.64,8.64,0,0,1-3.967,6.874A3.849,3.849,0,0,1,196.286,305.544Zm3.342-9.645a2.97,2.97,0,0,0-1.44.453h0a7.78,7.78,0,0,0-3.514,6.086,1.811,1.811,0,0,0,3.061,1.766,7.77,7.77,0,0,0,3.514-6.086,2.219,2.219,0,0,0-.906-2.029,1.476,1.476,0,0,0-.715-.19Z" transform="translate(-77.03 -46.811)" fill="#aa43d1"/>
      </g>
    </g>
  </g>
  <g id="freepik--Window--inject-196" transform="translate(97.937 32.919)">
    <g id="freepik--window--inject-196-2" data-name="freepik--window--inject-196">
      <path id="Path_55906" data-name="Path 55906" d="M329.915,73.76,119.16,195.335V350.628a2.717,2.717,0,0,0,4.03,2.337l3.758-2.165L325.984,236.035a8.685,8.685,0,0,0,3.93-6.811Z" transform="translate(-114.133 -58.865)" fill="#f0f0f0"/>
      <path id="Path_55907" data-name="Path 55907" d="M329.009,75.327v153.9a7.825,7.825,0,0,1-3.478,6.023L126.5,350.012l-3.758,2.165a1.748,1.748,0,0,1-.906.244,1.811,1.811,0,0,1-1.241-.507,1.748,1.748,0,0,1-.543-1.286v-154.8L328.991,75.372m.906-1.567L119.16,195.335V350.628a2.717,2.717,0,0,0,2.717,2.717,2.617,2.617,0,0,0,1.34-.362l3.758-2.165L325.984,236.035a8.685,8.685,0,0,0,3.93-6.811V73.76Z" transform="translate(-114.133 -58.865)" fill="#e0e0e0"/>
      <path id="Path_55908" data-name="Path 55908" d="M324.393,70.58,113.62,192.1l5.017,2.9L329.392,73.46Z" transform="translate(-113.61 -58.565)" fill="#455a64" opacity="0.8"/>
      <path id="Path_55909" data-name="Path 55909" d="M120.049,365.364a2.717,2.717,0,0,1-1.413-2.373V207.7l-5.017-2.9V359.241a4.018,4.018,0,0,0,0,.571,4.166,4.166,0,0,0,2.047,3.043l4.139,2.4.208.109Z" transform="translate(-113.609 -71.228)" fill="#ebebeb"/>
      <path id="Path_55910" data-name="Path 55910" d="M113.62,190.922V180.443a4.356,4.356,0,0,1,1.956-3.405L322.437,57.781a4.32,4.32,0,0,1,3.912,0l1.078.625a4.329,4.329,0,0,1,1.965,3.4V72.29L118.637,193.783Z" transform="translate(-113.61 -57.313)" fill="#70ab8d"/>
      <path id="Path_55911" data-name="Path 55911" d="M113.62,190.922V180.443a4.356,4.356,0,0,1,1.956-3.405L322.437,57.781a4.32,4.32,0,0,1,3.912,0l1.078.625a4.329,4.329,0,0,1,1.965,3.4V72.29L118.637,193.783Z" transform="translate(-113.61 -57.313)" opacity="0.3"/>
      <path id="Path_55912" data-name="Path 55912" d="M119.16,183.652a4.347,4.347,0,0,1,1.956-3.405L327.959,60.972c1.078-.634,1.956-.127,1.956,1.123V72.609L119.16,194.1Z" transform="translate(-114.133 -57.632)" fill="#70ab8d"/>
      <path id="Path_55913" data-name="Path 55913" d="M119.16,183.652a4.347,4.347,0,0,1,1.956-3.405L327.959,60.972c1.078-.634,1.956-.127,1.956,1.123V72.609L119.16,194.1Z" transform="translate(-114.133 -57.632)" opacity="0.4"/>
      <path id="Path_55914" data-name="Path 55914" d="M119.209,194.019a4.048,4.048,0,0,0-.571,1.938v10.451l-5.008-2.889v-10.46a4.012,4.012,0,0,1,.571-1.929Z" transform="translate(-113.611 -69.938)" fill="#70ab8d"/>
      <path id="Path_55915" data-name="Path 55915" d="M119.209,194.019a4.048,4.048,0,0,0-.571,1.938v10.451l-5.008-2.889v-10.46a4.012,4.012,0,0,1,.571-1.929Z" transform="translate(-113.611 -69.938)" opacity="0.5"/>
      <path id="Path_55916" data-name="Path 55916" d="M341.71,72.972c0,1.168.824,1.648,1.811,1.06a4.057,4.057,0,0,0,1.811-3.188c0-1.168-.824-1.648-1.811-1.06a4.066,4.066,0,0,0-1.811,3.188Z" transform="translate(-135.129 -58.466)" fill="#fafafa"/>
      <path id="Path_55917" data-name="Path 55917" d="M333.59,77.642c0,1.168.824,1.648,1.811,1.06a4.066,4.066,0,0,0,1.811-3.188c0-1.168-.824-1.648-1.811-1.06a4.066,4.066,0,0,0-1.811,3.188Z" transform="translate(-134.363 -58.906)" fill="#fafafa"/>
      <path id="Path_55918" data-name="Path 55918" d="M325.46,82.352c0,1.168.824,1.648,1.811,1.06a4.067,4.067,0,0,0,1.811-3.188c0-1.168-.824-1.648-1.811-1.06a4.057,4.057,0,0,0-1.811,3.188Z" transform="translate(-133.596 -59.351)" fill="#fafafa"/>
      <path id="Path_55919" data-name="Path 55919" d="M119.16,204.769V360.061a2.717,2.717,0,0,0,4.03,2.337l3.758-2.165L173,333.671V173.75Z" transform="translate(-114.133 -68.298)" fill="#fafafa"/>
      <path id="Path_55920" data-name="Path 55920" d="M182.67,167.7V318.5l148.817-85.92V81.78Z" transform="translate(-120.124 -59.621)" fill="#fafafa"/>
      <path id="Path_55921" data-name="Path 55921" d="M161.3,193.854,126.95,213.706a2.536,2.536,0,0,0-1.15,1.992v3.577c0,.734.516,1.023,1.15.661L161.3,200.085a2.536,2.536,0,0,0,1.15-1.992v-3.568C162.452,193.791,161.936,193.492,161.3,193.854Z" transform="translate(-114.759 -70.18)" fill="#70ab8d"/>
      <path id="Path_55922" data-name="Path 55922" d="M161.3,193.854,126.95,213.706a2.536,2.536,0,0,0-1.15,1.992v3.577c0,.734.516,1.023,1.15.661L161.3,200.085a2.536,2.536,0,0,0,1.15-1.992v-3.568C162.452,193.791,161.936,193.492,161.3,193.854Z" transform="translate(-114.759 -70.18)" fill="#fafafa" opacity="0.8"/>
      <path id="Path_55923" data-name="Path 55923" d="M172.994,194.973,171.989,194a4.529,4.529,0,0,0,.317-1.612,1.9,1.9,0,0,0-.752-1.739,1.168,1.168,0,0,0-1.232.054,4.03,4.03,0,0,0-1.594,3.288,1.9,1.9,0,0,0,.761,1.739,1,1,0,0,0,.534.145,1.386,1.386,0,0,0,.7-.2,2.835,2.835,0,0,0,.906-.906l.833.8a.353.353,0,0,0,.272.118.408.408,0,0,0,.29-.127.389.389,0,0,0-.027-.58Zm-2.672,0a.435.435,0,0,1-.435.054c-.172-.1-.362-.435-.362-1.051a3.279,3.279,0,0,1,1.2-2.6.534.534,0,0,1,.281-.091.3.3,0,0,1,.154,0c.163.1.353.426.353,1.051a3.324,3.324,0,0,1-1.186,2.645Z" transform="translate(-118.808 -69.878)" fill="#455a64"/>
      <path id="Path_55924" data-name="Path 55924" d="M126.641,234.019l-.77.444s-.082,0-.082-.063v-2.083a.208.208,0,0,1,.082-.163l.77-.444s.081,0,.081.063v2.083a.208.208,0,0,1-.082.163Z" transform="translate(-114.758 -73.766)" fill="#455a64"/>
      <path id="Path_55925" data-name="Path 55925" d="M127.911,233.282l-.77.444c-.045,0-.081,0-.081-.063V231.58a.19.19,0,0,1,.081-.154l.77-.426c.045,0,.082,0,.082.054v2.092A.2.2,0,0,1,127.911,233.282Z" transform="translate(-114.878 -73.699)" fill="#455a64"/>
      <path id="Path_55926" data-name="Path 55926" d="M129.191,232.54l-.77.453c-.045,0-.082,0-.082-.063v-2.092a.2.2,0,0,1,.082-.154l.77-.444c.045,0,.082,0,.082.063v2.083a.172.172,0,0,1-.082.154Z" transform="translate(-114.999 -73.628)" fill="#455a64"/>
      <path id="Path_55927" data-name="Path 55927" d="M126.641,236.989l-.77.444s-.082,0-.082-.063v-2.083a.208.208,0,0,1,.082-.163l.77-.444s.081,0,.081.063v2.083a.208.208,0,0,1-.082.163Z" transform="translate(-114.758 -74.047)" fill="#455a64"/>
      <path id="Path_55928" data-name="Path 55928" d="M127.911,236.255l-.77.444c-.045,0-.081,0-.081-.063v-2.083a.19.19,0,0,1,.081-.154l.77-.4c.045,0,.082,0,.082.054v2.092a.2.2,0,0,1-.082.109Z" transform="translate(-114.878 -73.982)" fill="#455a64"/>
      <path id="Path_55929" data-name="Path 55929" d="M129.191,235.51l-.77.453c-.045,0-.082,0-.082-.063v-2.092a.2.2,0,0,1,.082-.154l.77-.444c.045,0,.082,0,.082.063v2.083a.172.172,0,0,1-.082.154Z" transform="translate(-114.999 -73.908)" fill="#455a64"/>
      <path id="Path_55930" data-name="Path 55930" d="M126.766,244.812l-.906-.571v-.172l.906-1.675a.059.059,0,0,1,.118,0v2.255C126.892,244.749,126.811,244.839,126.766,244.812Z" transform="translate(-114.765 -74.769)" fill="#455a64"/>
      <path id="Path_55931" data-name="Path 55931" d="M126.4,243.585l1.25-.715v.589l-1.25.725c-.1.063-.19,0-.19-.19A.534.534,0,0,1,126.4,243.585Z" transform="translate(-114.798 -74.819)" fill="#455a64"/>
      <path id="Path_55932" data-name="Path 55932" d="M128.06,242.695l.426-.245v.589l-.426.245Z" transform="translate(-114.972 -74.78)" fill="#455a64"/>
      <path id="Path_55933" data-name="Path 55933" d="M129.7,241.981v2.183a.48.48,0,0,1-.2.408c-.1.063-.19,0-.19-.181v-1.884l-.525.3v-.589l.715-.417C129.614,241.772,129.7,241.854,129.7,241.981Z" transform="translate(-115.041 -74.718)" fill="#455a64"/>
      <path id="Path_55934" data-name="Path 55934" d="M127.13,250.457a4.112,4.112,0,0,0-1.313,3.532c.154,1.132.824,1.087.906,1.612,0,.063.045.082.082.063l.842-.48a.226.226,0,0,0,.091-.154c.091-.7.951-1.54.951-3.233C128.7,250.5,127.981,249.868,127.13,250.457Z" transform="translate(-114.758 -75.514)" fill="#455a64"/>
      <path id="Path_55935" data-name="Path 55935" d="M127.735,257.093l-.815.471c-.054,0-.1,0-.1-.082v-.743a.254.254,0,0,1,.1-.2l.815-.471c.054,0,.1,0,.1.081v.761A.245.245,0,0,1,127.735,257.093Z" transform="translate(-114.855 -76.065)" fill="#455a64"/>
      <path id="Path_55936" data-name="Path 55936" d="M127.33,230.96a4.945,4.945,0,0,0-1.476,3.134,3.315,3.315,0,0,0,.208,1.7l-.272,1.431c0,.118,0,.172.109.1l.824-.906a1.277,1.277,0,0,0,1.2-.344,4.945,4.945,0,0,0,1.476-3.134C129.6,230.96,128.552,229.973,127.33,230.96Zm.29,4.673c-.752.435-1.368-.154-1.368-1.322a3.623,3.623,0,0,1,1.368-2.9c.761-.435,1.377.154,1.377,1.322a3.623,3.623,0,0,1-1.377,2.916Z" transform="translate(-114.758 -73.659)" fill="#455a64"/>
      <path id="Path_55937" data-name="Path 55937" d="M127.33,261.329a4.918,4.918,0,0,0-1.476,3.125,3.333,3.333,0,0,0,.208,1.712l-.272,1.422c0,.118,0,.181.109.109l.824-.906a1.277,1.277,0,0,0,1.2-.344,4.972,4.972,0,0,0,1.476-3.134C129.6,261.329,128.552,260.324,127.33,261.329Zm.29,4.673c-.752.435-1.368-.154-1.368-1.322a3.623,3.623,0,0,1,1.368-2.9c.761-.435,1.377.154,1.377,1.322A3.623,3.623,0,0,1,127.619,266Z" transform="translate(-114.758 -76.523)" fill="#455a64"/>
      <path id="Path_55938" data-name="Path 55938" d="M128.619,272.41a1.9,1.9,0,0,1-.725,1.531c-.4.235-.725-.082-.725-.7a1.929,1.929,0,0,1,.725-1.531C128.293,271.486,128.619,271.794,128.619,272.41Z" transform="translate(-114.888 -77.533)" fill="#455a64"/>
      <path id="Path_55939" data-name="Path 55939" d="M130.039,272.677a1.277,1.277,0,0,1-.48,1.023c-.272.154-.489-.054-.489-.462a1.268,1.268,0,0,1,.489-1.023C129.822,272.061,130.039,272.269,130.039,272.677Z" transform="translate(-115.067 -77.583)" fill="#455a64"/>
      <path id="Path_55940" data-name="Path 55940" d="M128.73,277.054l-1.73.978v-2.192a1.494,1.494,0,0,1,.625-1.186l.471-.272c.335-.19.616,0,.616.471Z" transform="translate(-114.872 -77.785)" fill="#455a64"/>
      <path id="Path_55941" data-name="Path 55941" d="M129.641,274.135l-.471.272V276.9l.906-.516v-1.938C130.058,274.135,129.867,274.008,129.641,274.135Z" transform="translate(-115.077 -77.764)" fill="#455a64"/>
      <path id="Path_55942" data-name="Path 55942" d="M125.8,275.128c0,.408.217.616.48.462a1.268,1.268,0,0,0,.48-1.014c0-.417-.217-.625-.48-.471A1.3,1.3,0,0,0,125.8,275.128Z" transform="translate(-114.759 -77.761)" fill="#455a64"/>
      <path id="Path_55943" data-name="Path 55943" d="M126.2,276.092l.462-.272v2.5l-.906.507v-1.938A.987.987,0,0,1,126.2,276.092Z" transform="translate(-114.755 -77.928)" fill="#455a64"/>
      <path id="Path_55944" data-name="Path 55944" d="M134.9,227.632l20.124-11.647c.543-.317.978-.091.978.5a2.1,2.1,0,0,1-.978,1.63L134.9,229.76c-.543.308-.978.091-.978-.5a2.1,2.1,0,0,1,.978-1.63Z" transform="translate(-115.525 -72.269)" fill="#e0e0e0"/>
      <path id="Path_55945" data-name="Path 55945" d="M134.9,238.086l20.115-11.611c.543-.308.978-.091.978.5a2.1,2.1,0,0,1-.978,1.63L134.9,240.214c-.543.308-.978.091-.978-.5a2.1,2.1,0,0,1,.978-1.63Z" transform="translate(-115.525 -73.259)" fill="#e0e0e0"/>
      <path id="Path_55946" data-name="Path 55946" d="M134.9,248.55l20.124-11.565c.543-.317.978-.091.978.489a2.092,2.092,0,0,1-.978,1.63L134.9,250.669c-.543.317-.978.091-.978-.5A2.083,2.083,0,0,1,134.9,248.55Z" transform="translate(-115.525 -74.25)" fill="#e0e0e0"/>
      <path id="Path_55947" data-name="Path 55947" d="M134.9,259l20.115-11.611c.543-.317.978-.091.978.5a2.083,2.083,0,0,1-.978,1.621L134.9,261.124c-.543.308-.978.091-.978-.5A2.092,2.092,0,0,1,134.9,259Z" transform="translate(-115.525 -75.232)" fill="#e0e0e0"/>
      <path id="Path_55948" data-name="Path 55948" d="M134.9,269.446l20.115-11.611c.543-.308.978-.091.978.5a2.1,2.1,0,0,1-.978,1.63L134.9,271.556c-.543.308-.978.091-.978-.5a2.1,2.1,0,0,1,.978-1.612Z" transform="translate(-115.525 -76.218)" fill="#e0e0e0"/>
      <path id="Path_55949" data-name="Path 55949" d="M138.968,277.986l20.115-11.611c.543-.317.978-.091.978.489a2.092,2.092,0,0,1-.978,1.63L138.968,280.1c-.543.317-.978.091-.978-.489A2.092,2.092,0,0,1,138.968,277.986Z" transform="translate(-115.909 -77.023)" fill="#455a64"/>
      <path id="Path_55950" data-name="Path 55950" d="M138.968,285.046l20.115-11.611c.543-.317.978-.091.978.5a2.083,2.083,0,0,1-.978,1.621l-20.115,11.611c-.543.317-.978.091-.978-.489A2.092,2.092,0,0,1,138.968,285.046Z" transform="translate(-115.909 -77.689)" fill="#e8f3ee"/>
      <path id="Path_55951" data-name="Path 55951" d="M138.968,292.106,159.083,280.5c.543-.317.978-.091.978.5a2.083,2.083,0,0,1-.978,1.621l-20.115,11.62c-.543.308-.978.091-.978-.5A2.1,2.1,0,0,1,138.968,292.106Z" transform="translate(-115.909 -78.355)" fill="#e8f3ee"/>
      <path id="Path_55952" data-name="Path 55952" d="M143.288,296.6,163.4,284.985c.543-.317.978-.091.978.489a2.092,2.092,0,0,1-.978,1.63l-20.115,11.611c-.534.317-.978.091-.978-.489A2.11,2.11,0,0,1,143.288,296.6Z" transform="translate(-116.317 -78.779)" fill="#e8f3ee"/>
      <path id="Path_55953" data-name="Path 55953" d="M138.18,303.455l1.639-2.88c.063-.109.063-.254,0-.29l-1.639-1c-.072-.045-.19.1-.19.254v3.876C138,303.555,138.108,303.6,138.18,303.455Z" transform="translate(-115.909 -80.141)" fill="#455a64"/>
      <path id="Path_55954" data-name="Path 55954" d="M143.288,303.623,163.4,291.985c.543-.308.978-.091.978.5a2.1,2.1,0,0,1-.978,1.63l-20.115,11.638c-.534.317-.978.091-.978-.5a2.128,2.128,0,0,1,.978-1.63Z" transform="translate(-116.317 -79.44)" fill="#e8f3ee"/>
      <path id="Path_55955" data-name="Path 55955" d="M138.18,310.494l1.639-2.88c.063-.109.063-.254,0-.3l-1.639-1c-.072-.045-.19.109-.19.263v3.876C138,310.612,138.108,310.63,138.18,310.494Z" transform="translate(-115.909 -80.805)" fill="#455a64"/>
      <path id="Path_55956" data-name="Path 55956" d="M143.288,310.666,163.4,299.055c.543-.317.978-.091.978.5a2.1,2.1,0,0,1-.978,1.63l-20.115,11.61c-.534.308-.978.091-.978-.5A2.128,2.128,0,0,1,143.288,310.666Z" transform="translate(-116.317 -80.106)" fill="#e8f3ee"/>
      <path id="Path_55957" data-name="Path 55957" d="M138.18,317.564l1.639-2.889c.063-.109.063-.254,0-.29l-1.639-1c-.072-.045-.19.109-.19.263v3.876C138,317.655,138.108,317.673,138.18,317.564Z" transform="translate(-115.909 -81.472)" fill="#455a64"/>
      <path id="Path_55958" data-name="Path 55958" d="M143.288,317.706,163.4,306.1c.543-.317.978-.091.978.489a2.092,2.092,0,0,1-.978,1.63l-20.115,11.611c-.534.317-.978.091-.978-.489A2.11,2.11,0,0,1,143.288,317.706Z" transform="translate(-116.317 -80.771)" fill="#e8f3ee"/>
      <path id="Path_55959" data-name="Path 55959" d="M138.18,324.565l1.639-2.88c.063-.109.063-.254,0-.29l-1.639-1c-.072-.054-.19.1-.19.254v3.912C138,324.683,138.108,324.71,138.18,324.565Z" transform="translate(-115.909 -82.133)" fill="#455a64"/>
      <path id="Path_55960" data-name="Path 55960" d="M143.288,324.776,163.4,313.165c.543-.308.978-.091.978.5a2.1,2.1,0,0,1-.978,1.63L143.288,326.9c-.534.308-.978.091-.978-.5a2.128,2.128,0,0,1,.978-1.63Z" transform="translate(-116.317 -81.438)" fill="#e8f3ee"/>
      <path id="Path_55961" data-name="Path 55961" d="M138.18,331.564l1.639-2.88c.063-.109.063-.254,0-.3l-1.639-1c-.072-.045-.19.109-.19.263v3.912C138,331.718,138.108,331.736,138.18,331.564Z" transform="translate(-115.909 -82.792)" fill="#455a64"/>
      <path id="Path_55962" data-name="Path 55962" d="M143.288,331.776,163.4,320.165c.543-.317.978-.091.978.5a2.083,2.083,0,0,1-.978,1.621L143.288,333.9c-.534.308-.978.091-.978-.5A2.128,2.128,0,0,1,143.288,331.776Z" transform="translate(-116.317 -82.098)" fill="#e8f3ee"/>
      <path id="Path_55963" data-name="Path 55963" d="M138.18,338.644l1.639-2.889c.063-.109.063-.254,0-.29l-1.639-1c-.072-.045-.19.109-.19.263v3.84C138,338.762,138.108,338.78,138.18,338.644Z" transform="translate(-115.909 -83.46)" fill="#455a64"/>
      <path id="Path_55964" data-name="Path 55964" d="M143.288,338.776,163.4,327.165c.543-.317.978-.091.978.489a2.092,2.092,0,0,1-.978,1.63l-20.115,11.611c-.534.317-.978.091-.978-.5A2.11,2.11,0,0,1,143.288,338.776Z" transform="translate(-116.317 -82.758)" fill="#e8f3ee"/>
      <path id="Path_55965" data-name="Path 55965" d="M138.18,345.675l1.639-2.88c.063-.109.063-.254,0-.29l-1.639-1c-.072-.054-.19.1-.19.254v3.876C138,345.793,138.108,345.82,138.18,345.675Z" transform="translate(-115.909 -84.124)" fill="#455a64"/>
      <path id="Path_55966" data-name="Path 55966" d="M143.288,345.846l20.115-11.61c.543-.308.978-.091.978.5a2.1,2.1,0,0,1-.978,1.63l-20.115,11.611c-.534.308-.978.091-.978-.5A2.128,2.128,0,0,1,143.288,345.846Z" transform="translate(-116.317 -83.426)" fill="#e8f3ee"/>
      <path id="Path_55967" data-name="Path 55967" d="M138.179,352.717l1.63-2.853c.063-.109.063-.254,0-.3l-1.639-1c-.072-.045-.19.109-.19.263v3.876C138,352.835,138.107,352.853,138.179,352.717Z" transform="translate(-115.908 -84.791)" fill="#455a64"/>
      <path id="Path_55968" data-name="Path 55968" d="M187.717,193.5l66.113-38.164a2.164,2.164,0,0,0,.978-1.694V136.786c0-.625-.444-.906-.978-.562L187.717,174.38a2.156,2.156,0,0,0-.987,1.694v16.863C186.73,193.562,187.174,193.815,187.717,193.5Z" transform="translate(-120.507 -64.744)" fill="#f0f0f0"/>
      <path id="Path_55969" data-name="Path 55969" d="M194.163,186.088l.435-1.811-.6.344h0v-.38a.154.154,0,0,1,0-.063s0,0,0-.054l.96-.552h0a.1.1,0,0,1,0,.054v.29a1.488,1.488,0,0,1,0,.172l-.435,1.811a.582.582,0,0,1,0,.063.1.1,0,0,1,0,.045l-.29.163h0a.072.072,0,0,1-.072-.082Z" transform="translate(-121.193 -69.225)" fill="#455a64"/>
      <path id="Path_55970" data-name="Path 55970" d="M195.943,182.991a.417.417,0,0,1,.263-.082.272.272,0,0,1,.181.072.444.444,0,0,1,.1.208,1.478,1.478,0,0,1,0,.3v.552a2.408,2.408,0,0,1,0,.344,1.493,1.493,0,0,1-.1.326,1.935,1.935,0,0,1-.181.29,1.24,1.24,0,0,1-.263.217.543.543,0,0,1-.263.082.308.308,0,0,1-.172-.082.381.381,0,0,1-.109-.208,1.475,1.475,0,0,1,0-.3v-.543a2.1,2.1,0,0,1,0-.344,1.114,1.114,0,0,1,.109-.335,1.457,1.457,0,0,1,.172-.281A.986.986,0,0,1,195.943,182.991Zm.217,1.25v-.525a.7.7,0,0,0,0-.136.272.272,0,0,0,0-.091.072.072,0,0,0-.063,0H196a.47.47,0,0,0-.1.091.426.426,0,0,0-.063.109.755.755,0,0,0,0,.136s0,.1,0,.154v.652a.208.208,0,0,0,0,.091.091.091,0,0,0,.063,0,.154.154,0,0,0,.1,0,.326.326,0,0,0,.1-.091.262.262,0,0,0,.063-.109.38.38,0,0,0,0-.136.8.8,0,0,0-.045-.154Z" transform="translate(-121.325 -69.162)" fill="#455a64"/>
      <path id="Path_55971" data-name="Path 55971" d="M197.429,182.515v.235a1.373,1.373,0,0,1,0,.19.633.633,0,0,1-.054.172.824.824,0,0,1-.1.145.58.58,0,0,1-.136.118.335.335,0,0,1-.136,0,.127.127,0,0,1-.1,0,.154.154,0,0,1-.054-.1.435.435,0,0,1,0-.163v-.236a.625.625,0,0,1,0-.181.544.544,0,0,1,.054-.172.562.562,0,0,1,.1-.154.4.4,0,0,1,.136-.109.236.236,0,0,1,.136,0,.136.136,0,0,1,.1,0l.054.109a.669.669,0,0,1,0,.145Zm.5-.652V181.8a.091.091,0,0,1,.045,0l.163-.1h0l-1,2.59v.054a.109.109,0,0,1-.045.045l-.163.091h0Zm-.906,1.1a.3.3,0,0,0,0,.109h.063a.172.172,0,0,0,.063-.072.553.553,0,0,0,0-.136v-.2a.263.263,0,0,0,0-.109h-.063a.145.145,0,0,0-.063.081.417.417,0,0,0,0,.127.8.8,0,0,0,.009.2Zm1.331.091v.235a1.374,1.374,0,0,1,0,.19,1.258,1.258,0,0,1-.054.172.824.824,0,0,1-.1.145.58.58,0,0,1-.136.118.335.335,0,0,1-.136,0,.163.163,0,0,1-.1,0,.208.208,0,0,1-.054-.109.435.435,0,0,1,0-.163v-.226a.687.687,0,0,1,0-.19.545.545,0,0,1,.054-.172.562.562,0,0,1,.063-.181.4.4,0,0,1,.136-.109.335.335,0,0,1,.136,0,.136.136,0,0,1,.1,0,.308.308,0,0,1,.054.109Zm-.4.453a.263.263,0,0,0,0,.109h.063c.063,0,.045,0,.063-.072a.554.554,0,0,0,0-.136v-.2a.262.262,0,0,0,0-.109h-.063a.145.145,0,0,0-.063.082.416.416,0,0,0,0,.127.8.8,0,0,0,.009.2Z" transform="translate(-121.461 -69.048)" fill="#455a64"/>
      <path id="Path_55972" data-name="Path 55972" d="M193.938,180.513l-.661-1.023a13.078,13.078,0,0,0-1.567,4.229l1.069-.091a9.89,9.89,0,0,1,1.159-3.115Z" transform="translate(-120.977 -68.84)" fill="#455a64"/>
      <path id="Path_55973" data-name="Path 55973" d="M195.976,178.2v-1.73a7.39,7.39,0,0,0-2.536,2.717l.661,1.023A5.533,5.533,0,0,1,195.976,178.2Z" transform="translate(-121.14 -68.555)" fill="#455a64"/>
      <path id="Path_55974" data-name="Path 55974" d="M192.6,185.672a8.911,8.911,0,0,1,.154-1.612l-1.069.091a11.129,11.129,0,0,0-.217,2.174,7.853,7.853,0,0,0,.217,1.929l1.069-1.159a6.157,6.157,0,0,1-.154-1.422Z" transform="translate(-120.955 -69.271)" fill="#455a64"/>
      <path id="Path_55975" data-name="Path 55975" d="M199.915,178.642a3.623,3.623,0,0,0-1.567-2.418,2.545,2.545,0,0,0-2.536.2v1.73a1.884,1.884,0,0,1,1.875-.136,2.654,2.654,0,0,1,1.159,1.811,6.158,6.158,0,0,1,.154,1.422,8.828,8.828,0,0,1-.154,1.612,10.117,10.117,0,0,1-1.159,3.115,5.688,5.688,0,0,1-1.875,2.029,1.866,1.866,0,0,1-1.875.136,2.627,2.627,0,0,1-1.159-1.811l-1.069,1.159a3.541,3.541,0,0,0,1.567,2.418,2.518,2.518,0,0,0,2.536-.2,7.544,7.544,0,0,0,2.536-2.717,13.241,13.241,0,0,0,1.567-4.22,11.87,11.87,0,0,0,.208-2.183,8.34,8.34,0,0,0-.208-1.947Z" transform="translate(-120.977 -68.508)" fill="#70ab8d"/>
      <path id="Path_55976" data-name="Path 55976" d="M208.027,172.456l20.106-11.611c.543-.317.987-.091.987.489a2.1,2.1,0,0,1-.987,1.63l-20.106,11.592c-.543.317-.987.091-.987-.489a2.1,2.1,0,0,1,.987-1.612Z" transform="translate(-122.424 -67.067)" fill="#455a64"/>
      <path id="Path_55977" data-name="Path 55977" d="M208.027,176.3,242.85,156.2c.543-.317.978-.091.978.5a2.083,2.083,0,0,1-.978,1.621L208.027,178.42c-.543.317-.987.091-.987-.5a2.092,2.092,0,0,1,.987-1.621Z" transform="translate(-122.424 -66.628)" fill="#e0e0e0"/>
      <path id="Path_55978" data-name="Path 55978" d="M266.9,147.767,333.011,109.6a2.174,2.174,0,0,0,.978-1.7V91.046c0-.625-.435-.906-.978-.562L266.9,128.64a2.174,2.174,0,0,0-.978,1.7V147.2C265.938,147.822,266.373,148.075,266.9,147.767Z" transform="translate(-127.979 -60.428)" fill="#f0f0f0"/>
      <path id="Path_55979" data-name="Path 55979" d="M273.74,138.786a1.2,1.2,0,0,1,.054-.353,1.224,1.224,0,0,1,.127-.317,1.394,1.394,0,0,1,.19-.263,1.277,1.277,0,0,1,.217-.181.905.905,0,0,1,.217-.072.326.326,0,0,1,.19.045.408.408,0,0,1,.136.163.907.907,0,0,1,.045.3,1.038,1.038,0,0,1,0,.172,1.053,1.053,0,0,1,0,.163.987.987,0,0,1-.045.154l-.054.145-.38,1.032a.127.127,0,0,0,0,.054.108.108,0,0,1-.045.045l-.317.181h0a.054.054,0,0,1,0-.045h0l.263-.7a.452.452,0,0,1-.19,0,.235.235,0,0,1-.154-.063.372.372,0,0,1-.109-.163.769.769,0,0,1-.145-.3Zm.806-.462a.334.334,0,0,0,0-.109.091.091,0,0,0-.045-.054h-.072a.145.145,0,0,0-.082,0l-.081.063-.063.1a.471.471,0,0,0-.054.118.535.535,0,0,0,0,.118.335.335,0,0,0,0,.109.058.058,0,0,0,.054.054h.063a.145.145,0,0,0,.081,0,.291.291,0,0,0,.082-.072.354.354,0,0,0,.072-.091.453.453,0,0,0,.045-.118.535.535,0,0,0,0-.118Z" transform="translate(-128.716 -64.887)" fill="#455a64"/>
      <path id="Path_55980" data-name="Path 55980" d="M275.822,136.821a.4.4,0,0,1,.254-.082.254.254,0,0,1,.181.072.561.561,0,0,1,.109.208,1.041,1.041,0,0,1,0,.3v.552a1.531,1.531,0,0,1,0,.344,2.287,2.287,0,0,1-.109.326,1.406,1.406,0,0,1-.181.29,1.186,1.186,0,0,1-.254.217.58.58,0,0,1-.263.082.308.308,0,0,1-.181-.081.5.5,0,0,1-.109-.208,1.4,1.4,0,0,1,0-.29V138a2.107,2.107,0,0,1,0-.344,2.077,2.077,0,0,1,.109-.335,1.152,1.152,0,0,1,.181-.281A.907.907,0,0,1,275.822,136.821Zm.208,1.25a5.094,5.094,0,0,0,0-.525.554.554,0,0,0,0-.127.254.254,0,0,0,0-.1.09.09,0,0,0-.063,0h-.1a.326.326,0,0,0-.1.091.748.748,0,0,0-.072.109s0,.091,0,.136v.154a4.912,4.912,0,0,0,0,.516q0,.081,0,.136a.453.453,0,0,0,0,.091.081.081,0,0,0,.072,0h.1l.1-.081a.489.489,0,0,0,.063-.118.754.754,0,0,0,0-.136.782.782,0,0,0,0-.145Z" transform="translate(-128.86 -64.806)" fill="#455a64"/>
      <path id="Path_55981" data-name="Path 55981" d="M277.348,136.355a1.026,1.026,0,0,1,0,.235,1.355,1.355,0,0,1,0,.19,1.322,1.322,0,0,1-.063.172.779.779,0,0,1-.091.145.589.589,0,0,1-.145.118.271.271,0,0,1-.136.045.136.136,0,0,1-.091,0,.316.316,0,0,1-.063-.109.815.815,0,0,1,0-.163.443.443,0,0,1,0-.109.643.643,0,0,1,0-.127,1.229,1.229,0,0,1,0-.181.971.971,0,0,1,.063-.172.536.536,0,0,1,.091-.154.716.716,0,0,1,.136-.109.335.335,0,0,1,.145,0,.118.118,0,0,1,.091,0,.318.318,0,0,1,.063.109A.806.806,0,0,1,277.348,136.355Zm.507-.652v-.063h.045l.163-.1h0l-.987,2.59a.3.3,0,0,1,0,.054v.045l-.163.091h0Zm-.906,1.1v.109c0,.018,0,0,.054,0a.091.091,0,0,0,.063-.072v-.335a.456.456,0,0,0,0-.109H277a.136.136,0,0,0-.054.082.381.381,0,0,0,0,.127Zm1.331.091a1.023,1.023,0,0,1,0,.235,1.354,1.354,0,0,1,0,.19,1.326,1.326,0,0,1-.063.172.515.515,0,0,1-.1.145.335.335,0,0,1-.136.118.272.272,0,0,1-.136,0,.109.109,0,0,1-.091,0,.318.318,0,0,1-.063-.109.8.8,0,0,1,0-.154.772.772,0,0,1,0-.235,1.355,1.355,0,0,1,0-.19.968.968,0,0,1,.063-.172.4.4,0,0,1,.09-.145.526.526,0,0,1,.136-.118.335.335,0,0,1,.136,0,.127.127,0,0,1,.1,0,.316.316,0,0,1,.063.109.8.8,0,0,1,0,.118Zm-.4.453v.109c0,.018,0,0,.054,0a.091.091,0,0,0,.063-.072.488.488,0,0,0,0-.136.734.734,0,0,0,0-.2.263.263,0,0,0,0-.109h-.063a.136.136,0,0,0-.054.081.379.379,0,0,0,0,.127Z" transform="translate(-129.001 -64.693)" fill="#455a64"/>
      <path id="Path_55982" data-name="Path 55982" d="M275.836,132.08v-1.73a7.39,7.39,0,0,0-2.536,2.717l.661,1.023A5.533,5.533,0,0,1,275.836,132.08Z" transform="translate(-128.675 -64.204)" fill="#455a64"/>
      <path id="Path_55983" data-name="Path 55983" d="M279.75,132.522a3.568,3.568,0,0,0-1.567-2.418,2.518,2.518,0,0,0-2.536.2v1.73a1.865,1.865,0,0,1,1.875-.136,2.654,2.654,0,0,1,1.159,1.811,6.155,6.155,0,0,1,.154,1.422,8.913,8.913,0,0,1-.154,1.612,9.89,9.89,0,0,1-1.159,3.115,5.687,5.687,0,0,1-1.875,2.029,1.866,1.866,0,0,1-1.875.136,2.627,2.627,0,0,1-1.159-1.811,6.157,6.157,0,0,1-.154-1.422,8.827,8.827,0,0,1,.154-1.612,9.89,9.89,0,0,1,1.132-3.115l-.661-1.023a13.106,13.106,0,0,0-1.567,4.22,11.961,11.961,0,0,0-.217,2.183,8.313,8.313,0,0,0,.217,1.929,3.541,3.541,0,0,0,1.567,2.418,2.518,2.518,0,0,0,2.536-.2,7.463,7.463,0,0,0,2.536-2.717h0a13.321,13.321,0,0,0,1.567-4.22,12.024,12.024,0,0,0,.208-2.183A8.337,8.337,0,0,0,279.75,132.522Z" transform="translate(-128.486 -64.157)" fill="#70ab8d"/>
      <path id="Path_55984" data-name="Path 55984" d="M287.9,126.335l20.115-11.62c.534-.308.978-.091.978.5a2.11,2.11,0,0,1-.978,1.63L287.9,128.454c-.543.317-.978.091-.978-.5A2.083,2.083,0,0,1,287.9,126.335Z" transform="translate(-129.96 -62.715)" fill="#455a64"/>
      <path id="Path_55985" data-name="Path 55985" d="M287.9,130.172l34.822-20.1c.543-.317.987-.091.987.5a2.092,2.092,0,0,1-.987,1.621L287.9,132.3c-.543.308-.978.091-.978-.5A2.1,2.1,0,0,1,287.9,130.172Z" transform="translate(-129.96 -62.277)" fill="#e0e0e0"/>
      <path id="Path_55986" data-name="Path 55986" d="M195.148,203.726l14.11-8.151c.543-.317.978-.091.978.489a2.092,2.092,0,0,1-.978,1.63l-14.11,8.151c-.543.317-.978.091-.978-.5A2.083,2.083,0,0,1,195.148,203.726Z" transform="translate(-121.209 -70.344)" fill="#455a64"/>
      <path id="Path_55987" data-name="Path 55987" d="M326.038,126.427h0m-.417.245V234.444a1.259,1.259,0,0,1-.525.906l-137.46,79.335V206.912a1.3,1.3,0,0,1,.534-.906l1.712-.987a3.07,3.07,0,0,0,1.44-2.482v-6.213a1.259,1.259,0,0,1,.525-.906l19.734-11.393v5.8a1.476,1.476,0,0,0,1.449,1.6,1.811,1.811,0,0,0,.906-.254l111.7-64.492M212,183.773h0M325.984,125.53a.905.905,0,0,0-.435.136L213.465,190.375a.9.9,0,0,1-.435.136c-.326,0-.543-.263-.543-.7v-6.24c0-.444-.226-.7-.543-.7a.906.906,0,0,0-.435.136l-20.115,11.611a2.174,2.174,0,0,0-.978,1.7v6.231a2.156,2.156,0,0,1-.987,1.694l-1.712,1a2.155,2.155,0,0,0-.987,1.694V315.12c0,.444.226.706.543.706a.905.905,0,0,0,.444-.136l137.823-79.58a2.155,2.155,0,0,0,.978-1.694V126.227c0-.444-.217-.7-.543-.7Z" transform="translate(-120.507 -63.749)" fill="#e0e0e0"/>
      <path id="Path_55988" data-name="Path 55988" d="M196.416,219.164a.969.969,0,0,1-.48-.118,1.15,1.15,0,0,1-.516-1.032v-4.1a2.626,2.626,0,0,1,1.214-2.092l10.931-6.34a1.132,1.132,0,0,1,1.141-.072,1.15,1.15,0,0,1,.516,1.032v4.1a2.626,2.626,0,0,1-1.214,2.092l-10.922,6.34A1.376,1.376,0,0,1,196.416,219.164Zm.67-6.557a1.685,1.685,0,0,0-.761,1.3v4.1a.344.344,0,0,0,.063.245.353.353,0,0,0,.245-.072l10.931-6.294a1.739,1.739,0,0,0,.752-1.313v-4.1a.344.344,0,0,0-.063-.245.353.353,0,0,0-.245.072Z" transform="translate(-121.327 -71.273)" fill="#e0e0e0"/>
      <path id="Path_55989" data-name="Path 55989" d="M197.932,214.79l7.128-4.13c.362-.208.652-.063.652.326a1.386,1.386,0,0,1-.652,1.087l-7.128,4.139c-.362.208-.652.054-.652-.335A1.4,1.4,0,0,1,197.932,214.79Z" transform="translate(-121.503 -71.771)" fill="#e0e0e0"/>
      <path id="Path_55990" data-name="Path 55990" d="M207.67,209.832l.589.842a.107.107,0,0,0,.091-.054l.589-1.521v-.109l-1.177.679a.145.145,0,0,0-.091.163Z" transform="translate(-122.483 -71.622)" fill="#455a64"/>
      <path id="Path_55991" data-name="Path 55991" d="M194.766,264.547c.525-.3.906-.054.906.543a2.074,2.074,0,0,1-.906,1.639c-.525.3-.906.054-.906-.543a2.074,2.074,0,0,1,.906-1.639Z" transform="translate(-121.18 -76.852)" fill="#70ab8d"/>
      <path id="Path_55992" data-name="Path 55992" d="M202.906,255.167c.525-.3.951-.054.951.543a2.083,2.083,0,0,1-.951,1.639c-.516.3-.906.054-.906-.543A2.092,2.092,0,0,1,202.906,255.167Z" transform="translate(-121.948 -75.967)" fill="#70ab8d"/>
      <path id="Path_55993" data-name="Path 55993" d="M211.011,250.477c.516-.3.906-.054.906.543a2.092,2.092,0,0,1-.906,1.639c-.525.3-.951.054-.951-.543a2.083,2.083,0,0,1,.951-1.639Z" transform="translate(-122.708 -75.525)" fill="#70ab8d"/>
      <path id="Path_55994" data-name="Path 55994" d="M219.136,247.847c.525-.3.906-.054.906.543a2.074,2.074,0,0,1-.906,1.639c-.525.3-.906.054-.906-.543a2.074,2.074,0,0,1,.906-1.639Z" transform="translate(-123.479 -75.277)" fill="#70ab8d"/>
      <path id="Path_55995" data-name="Path 55995" d="M227.266,239.4c.525-.3.906-.054.906.552a2.074,2.074,0,0,1-.906,1.63c-.516.308-.906.063-.906-.543a2.119,2.119,0,0,1,.906-1.639Z" transform="translate(-124.246 -74.48)" fill="#70ab8d"/>
      <path id="Path_55996" data-name="Path 55996" d="M235.386,236.407c.525-.3.906-.054.906.543a2.074,2.074,0,0,1-.906,1.639c-.525.3-.906.054-.906-.543A2.074,2.074,0,0,1,235.386,236.407Z" transform="translate(-125.012 -74.197)" fill="#70ab8d"/>
      <path id="Path_55997" data-name="Path 55997" d="M243.506,226.986c.525-.308.951-.063.951.543a2.092,2.092,0,0,1-.951,1.639c-.516.3-.906.054-.906-.552A2.092,2.092,0,0,1,243.506,226.986Z" transform="translate(-125.778 -73.308)" fill="#70ab8d"/>
      <path id="Path_55998" data-name="Path 55998" d="M251.636,224.677c.516-.3.906-.054.906.552a2.092,2.092,0,0,1-.906,1.63c-.525.308-.906.063-.906-.543a2.092,2.092,0,0,1,.906-1.639Z" transform="translate(-126.545 -73.091)" fill="#70ab8d"/>
      <path id="Path_55999" data-name="Path 55999" d="M259.756,198.877c.525-.3.906-.054.906.552a2.11,2.11,0,0,1-.906,1.639c-.525.3-.906.054-.906-.552a2.1,2.1,0,0,1,.906-1.639Z" transform="translate(-127.312 -70.657)" fill="#70ab8d"/>
      <path id="Path_56000" data-name="Path 56000" d="M267.9,212.986c.516-.308.906-.063.906.543a2.119,2.119,0,0,1-.906,1.639c-.525.3-.951.054-.951-.552a2.074,2.074,0,0,1,.951-1.63Z" transform="translate(-128.076 -71.987)" fill="#70ab8d"/>
      <path id="Path_56001" data-name="Path 56001" d="M276.006,212.986c.525-.308.906-.063.906.543a2.1,2.1,0,0,1-.906,1.639c-.525.3-.906.054-.906-.552a2.065,2.065,0,0,1,.906-1.63Z" transform="translate(-128.845 -71.987)" fill="#70ab8d"/>
      <path id="Path_56002" data-name="Path 56002" d="M284.126,212.986c.525-.308.906-.063.906.543a2.11,2.11,0,0,1-.906,1.639c-.516.3-.906.054-.906-.552A2.092,2.092,0,0,1,284.126,212.986Z" transform="translate(-129.611 -71.987)" fill="#70ab8d"/>
      <path id="Path_56003" data-name="Path 56003" d="M292.251,198.886c.516-.308.906-.063.906.543a2.119,2.119,0,0,1-.906,1.639c-.525.3-.951.054-.951-.552A2.074,2.074,0,0,1,292.251,198.886Z" transform="translate(-130.373 -70.657)" fill="#70ab8d"/>
      <path id="Path_56004" data-name="Path 56004" d="M300.376,196.187c.525-.3.906-.054.906.543a2.074,2.074,0,0,1-.906,1.639c-.525.3-.906.054-.906-.543a2.074,2.074,0,0,1,.906-1.639Z" transform="translate(-131.144 -70.403)" fill="#70ab8d"/>
      <path id="Path_56005" data-name="Path 56005" d="M308.526,184.807c.525-.3.951-.054.951.552a2.074,2.074,0,0,1-.951,1.63c-.516.308-.906.063-.906-.543a2.119,2.119,0,0,1,.906-1.639Z" transform="translate(-131.913 -69.329)" fill="#70ab8d"/>
      <ellipse id="Ellipse_1208" data-name="Ellipse 1208" cx="1.34" cy="0.77" rx="1.34" ry="0.77" transform="translate(182.619 117.364) rotate(-60)" fill="#70ab8d"/>
      <ellipse id="Ellipse_1209" data-name="Ellipse 1209" cx="1.34" cy="0.77" rx="1.34" ry="0.77" transform="translate(189.982 117.362) rotate(-60)" fill="#70ab8d"/>
      <path id="Path_56006" data-name="Path 56006" d="M332.9,180.117c.516-.3.906-.054.906.552a2.092,2.092,0,0,1-.906,1.63c-.525.308-.951.063-.951-.543A2.11,2.11,0,0,1,332.9,180.117Z" transform="translate(-134.208 -68.887)" fill="#70ab8d"/>
      <path id="Path_56007" data-name="Path 56007" d="M194.817,257.991a.245.245,0,0,1-.154-.054.236.236,0,0,1,0-.326l7.426-8.531.063-.054,7.3-4.211,7.345-2.382,7.318-7.617.091-.054,7.3-2.717,7.318-8.45a.381.381,0,0,1,.109-.072l7.245-2.092,7.3-23.212a.235.235,0,0,1,.19-.163.244.244,0,0,1,.226.118l7.29,12.625h14.49l7.254-12.58a.218.218,0,0,1,.127-.109l7.29-2.418,7.309-10.243a.245.245,0,0,1,.19-.091H312.5l7.3-4.22a.225.225,0,1,1,.226.389l-7.354,4.257a.254.254,0,0,1-.118,0h-14.6l-7.291,10.207a.2.2,0,0,1-.109.081l-7.245,2.418-7.318,12.679a.235.235,0,0,1-.2.109H261.075a.235.235,0,0,1-.19-.109l-7.1-12.3-7.2,22.895a.263.263,0,0,1-.154.154l-7.3,2.1-7.309,8.45-.091.063-7.318,2.717-7.318,7.617a.19.19,0,0,1-.091.054l-7.363,2.382-7.245,4.184-7.435,8.45A.227.227,0,0,1,194.817,257.991Z" transform="translate(-121.25 -68.992)" fill="#70ab8d"/>
      <path id="Path_56008" data-name="Path 56008" d="M194.813,263.385a.453.453,0,0,1-.389-.226.462.462,0,0,1,.163-.625l125.08-72.208a.453.453,0,0,1,.453.779L195.04,263.285A.425.425,0,0,1,194.813,263.385Z" transform="translate(-121.228 -69.858)" fill="#e0e0e0"/>
      <path id="Path_56009" data-name="Path 56009" d="M194.766,259.857c.525-.3.906-.054.906.543a2.074,2.074,0,0,1-.906,1.639c-.525.3-.906.054-.906-.543a2.074,2.074,0,0,1,.906-1.639Z" transform="translate(-121.18 -76.41)" fill="#70ab8d"/>
      <path id="Path_56010" data-name="Path 56010" d="M202.906,245.787c.525-.3.951-.054.951.543a2.083,2.083,0,0,1-.951,1.639c-.516.3-.906.054-.906-.543A2.092,2.092,0,0,1,202.906,245.787Z" transform="translate(-121.948 -75.082)" fill="#70ab8d"/>
      <ellipse id="Ellipse_1210" data-name="Ellipse 1210" cx="1.34" cy="0.77" rx="1.34" ry="0.77" transform="translate(86.974 170.989) rotate(-60)" fill="#70ab8d"/>
      <path id="Path_56011" data-name="Path 56011" d="M219.136,226.986c.525-.308.906-.063.906.543a2.083,2.083,0,0,1-.906,1.639c-.525.3-.906.054-.906-.552a2.065,2.065,0,0,1,.906-1.63Z" transform="translate(-123.479 -73.308)" fill="#70ab8d"/>
      <path id="Path_56012" data-name="Path 56012" d="M227.266,231.717c.525-.3.906-.054.906.543a2.083,2.083,0,0,1-.906,1.639c-.516.3-.906.054-.906-.543A2.092,2.092,0,0,1,227.266,231.717Z" transform="translate(-124.246 -73.755)" fill="#70ab8d"/>
      <path id="Path_56013" data-name="Path 56013" d="M235.386,229.367c.525-.3.906-.054.906.552a2.065,2.065,0,0,1-.906,1.63c-.525.308-.906.063-.906-.543A2.1,2.1,0,0,1,235.386,229.367Z" transform="translate(-125.012 -73.533)" fill="#70ab8d"/>
      <path id="Path_56014" data-name="Path 56014" d="M243.506,222.336c.525-.308.951-.063.951.543a2.092,2.092,0,0,1-.951,1.639c-.516.3-.906.054-.906-.543a2.092,2.092,0,0,1,.906-1.639Z" transform="translate(-125.778 -72.869)" fill="#70ab8d"/>
      <path id="Path_56015" data-name="Path 56015" d="M251.636,212.986c.516-.308.906-.063.906.543a2.119,2.119,0,0,1-.906,1.639c-.525.3-.906.054-.906-.552a2.074,2.074,0,0,1,.906-1.63Z" transform="translate(-126.545 -71.987)" fill="#70ab8d"/>
      <path id="Path_56016" data-name="Path 56016" d="M259.756,210.607c.525-.3.906-.054.906.543a2.083,2.083,0,0,1-.906,1.639c-.525.3-.906.054-.906-.543A2.074,2.074,0,0,1,259.756,210.607Z" transform="translate(-127.312 -71.763)" fill="#70ab8d"/>
      <path id="Path_56017" data-name="Path 56017" d="M267.906,203.576c.525-.308.906-.063.906.543a2.11,2.11,0,0,1-.906,1.639c-.516.3-.906.054-.906-.552a2.092,2.092,0,0,1,.906-1.63Z" transform="translate(-128.08 -71.1)" fill="#70ab8d"/>
      <path id="Path_56018" data-name="Path 56018" d="M276.006,203.576c.525-.308.906-.063.906.543a2.1,2.1,0,0,1-.906,1.639c-.525.3-.906.054-.906-.552A2.065,2.065,0,0,1,276.006,203.576Z" transform="translate(-128.845 -71.1)" fill="#70ab8d"/>
      <path id="Path_56019" data-name="Path 56019" d="M284.126,184.807c.525-.3.906-.054.906.552a2.074,2.074,0,0,1-.906,1.63c-.516.308-.906.063-.906-.543A2.119,2.119,0,0,1,284.126,184.807Z" transform="translate(-129.611 -69.329)" fill="#70ab8d"/>
      <path id="Path_56020" data-name="Path 56020" d="M292.251,194.127c.516-.3.906-.063.906.543a2.092,2.092,0,0,1-.906,1.639c-.525.3-.951.054-.951-.543a2.083,2.083,0,0,1,.951-1.639Z" transform="translate(-130.373 -70.208)" fill="#70ab8d"/>
      <path id="Path_56021" data-name="Path 56021" d="M300.376,184.807c.525-.3.906-.054.906.552a2.074,2.074,0,0,1-.906,1.63c-.525.308-.906.063-.906-.543a2.1,2.1,0,0,1,.906-1.639Z" transform="translate(-131.144 -69.329)" fill="#70ab8d"/>
      <path id="Path_56022" data-name="Path 56022" d="M308.5,180.117c.516-.3.906-.054.906.552a2.092,2.092,0,0,1-.906,1.63c-.525.308-.951.063-.951-.543A2.11,2.11,0,0,1,308.5,180.117Z" transform="translate(-131.906 -68.887)" fill="#70ab8d"/>
      <path id="Path_56023" data-name="Path 56023" d="M316.626,180.117c.525-.3.906-.054.906.552a2.065,2.065,0,0,1-.906,1.63c-.525.308-.906.063-.906-.543A2.1,2.1,0,0,1,316.626,180.117Z" transform="translate(-132.677 -68.887)" fill="#70ab8d"/>
      <path id="Path_56024" data-name="Path 56024" d="M324.746,175.427c.525-.3.951-.054.951.552a2.074,2.074,0,0,1-.951,1.63c-.516.308-.906.063-.906-.543a2.119,2.119,0,0,1,.906-1.639Z" transform="translate(-133.443 -68.444)" fill="#70ab8d"/>
      <path id="Path_56025" data-name="Path 56025" d="M332.9,175.427c.516-.3.906-.054.906.552a2.092,2.092,0,0,1-.906,1.63c-.525.308-.951.063-.951-.543a2.11,2.11,0,0,1,.951-1.639Z" transform="translate(-134.208 -68.444)" fill="#70ab8d"/>
      <path id="Path_56026" data-name="Path 56026" d="M194.836,253.323a.2.2,0,0,1-.118,0,.226.226,0,0,1-.081-.308l7.408-12.77a.208.208,0,0,1,.154-.109l7.191-1.54,7.309-15.306a.235.235,0,0,1,.145-.118.217.217,0,0,1,.181,0l7.245,4.2,7.245-2.092,7.309-6.34,7.345-8.477a.181.181,0,0,1,.109-.072l7.309-2.11,7.318-6.34a.226.226,0,0,1,.154-.054H268.3l7.263-16.854a.253.253,0,0,1,.181-.136.217.217,0,0,1,.2.081l7.191,8.3,7.182-8.3a.181.181,0,0,1,.063-.054l7.381-4.257a.172.172,0,0,1,.109,0h7.3l7.245-4.2a.245.245,0,0,1,.109,0h7.417a.226.226,0,1,1,0,.453h-7.3l-7.245,4.2H297.99l-7.3,4.211-7.327,8.468a.235.235,0,0,1-.344,0l-7.128-8.223-7.245,16.664a.226.226,0,0,1-.208.136h-7.245l-7.363,6.267h-.091l-7.291,2.1-7.327,8.45-7.372,6.394-.082.045-7.354,2.128a.2.2,0,0,1-.172,0l-7.155-4.13-7.245,15.188a.19.19,0,0,1-.154.118l-7.245,1.54-7.363,12.679a.217.217,0,0,1-.145.163Z" transform="translate(-121.251 -68.554)" fill="#70ab8d"/>
      <g id="Group_1431" data-name="Group 1431" transform="translate(72.68 106.855)" opacity="0.3">
        <path id="Path_56027" data-name="Path 56027" d="M194.766,259.857c.525-.3.906-.054.906.543a2.074,2.074,0,0,1-.906,1.639c-.525.3-.906.054-.906-.543a2.074,2.074,0,0,1,.906-1.639Z" transform="translate(-193.86 -183.265)"/>
        <path id="Path_56028" data-name="Path 56028" d="M202.906,245.787c.525-.3.951-.054.951.543a2.083,2.083,0,0,1-.951,1.639c-.516.3-.906.054-.906-.543A2.092,2.092,0,0,1,202.906,245.787Z" transform="translate(-194.628 -181.937)"/>
        <ellipse id="Ellipse_1211" data-name="Ellipse 1211" cx="1.34" cy="0.77" rx="1.34" ry="0.77" transform="translate(14.294 64.134) rotate(-60)"/>
        <path id="Path_56029" data-name="Path 56029" d="M219.136,226.986c.525-.308.906-.063.906.543a2.083,2.083,0,0,1-.906,1.639c-.525.3-.906.054-.906-.552a2.065,2.065,0,0,1,.906-1.63Z" transform="translate(-196.159 -180.163)"/>
        <path id="Path_56030" data-name="Path 56030" d="M227.266,231.717c.525-.3.906-.054.906.543a2.083,2.083,0,0,1-.906,1.639c-.516.3-.906.054-.906-.543A2.092,2.092,0,0,1,227.266,231.717Z" transform="translate(-196.926 -180.61)"/>
        <path id="Path_56031" data-name="Path 56031" d="M235.386,229.367c.525-.3.906-.054.906.552a2.065,2.065,0,0,1-.906,1.63c-.525.308-.906.063-.906-.543A2.1,2.1,0,0,1,235.386,229.367Z" transform="translate(-197.692 -180.388)"/>
        <path id="Path_56032" data-name="Path 56032" d="M243.506,222.336c.525-.308.951-.063.951.543a2.092,2.092,0,0,1-.951,1.639c-.516.3-.906.054-.906-.543a2.092,2.092,0,0,1,.906-1.639Z" transform="translate(-198.458 -179.725)"/>
        <path id="Path_56033" data-name="Path 56033" d="M251.636,212.986c.516-.308.906-.063.906.543a2.119,2.119,0,0,1-.906,1.639c-.525.3-.906.054-.906-.552a2.074,2.074,0,0,1,.906-1.63Z" transform="translate(-199.225 -178.842)"/>
        <path id="Path_56034" data-name="Path 56034" d="M259.756,210.607c.525-.3.906-.054.906.543a2.083,2.083,0,0,1-.906,1.639c-.525.3-.906.054-.906-.543A2.074,2.074,0,0,1,259.756,210.607Z" transform="translate(-199.991 -178.618)"/>
        <path id="Path_56035" data-name="Path 56035" d="M267.906,203.576c.525-.308.906-.063.906.543a2.11,2.11,0,0,1-.906,1.639c-.516.3-.906.054-.906-.552a2.092,2.092,0,0,1,.906-1.63Z" transform="translate(-200.76 -177.955)"/>
        <path id="Path_56036" data-name="Path 56036" d="M276.006,203.576c.525-.308.906-.063.906.543a2.1,2.1,0,0,1-.906,1.639c-.525.3-.906.054-.906-.552A2.065,2.065,0,0,1,276.006,203.576Z" transform="translate(-201.525 -177.955)"/>
        <path id="Path_56037" data-name="Path 56037" d="M284.126,184.807c.525-.3.906-.054.906.552a2.074,2.074,0,0,1-.906,1.63c-.516.308-.906.063-.906-.543A2.119,2.119,0,0,1,284.126,184.807Z" transform="translate(-202.291 -176.184)"/>
        <path id="Path_56038" data-name="Path 56038" d="M292.251,194.127c.516-.3.906-.063.906.543a2.092,2.092,0,0,1-.906,1.639c-.525.3-.951.054-.951-.543a2.083,2.083,0,0,1,.951-1.639Z" transform="translate(-203.053 -177.063)"/>
        <path id="Path_56039" data-name="Path 56039" d="M300.376,184.807c.525-.3.906-.054.906.552a2.074,2.074,0,0,1-.906,1.63c-.525.308-.906.063-.906-.543a2.1,2.1,0,0,1,.906-1.639Z" transform="translate(-203.824 -176.184)"/>
        <path id="Path_56040" data-name="Path 56040" d="M308.5,180.117c.516-.3.906-.054.906.552a2.092,2.092,0,0,1-.906,1.63c-.525.308-.951.063-.951-.543A2.11,2.11,0,0,1,308.5,180.117Z" transform="translate(-204.586 -175.742)"/>
        <path id="Path_56041" data-name="Path 56041" d="M316.626,180.117c.525-.3.906-.054.906.552a2.065,2.065,0,0,1-.906,1.63c-.525.308-.906.063-.906-.543A2.1,2.1,0,0,1,316.626,180.117Z" transform="translate(-205.357 -175.742)"/>
        <path id="Path_56042" data-name="Path 56042" d="M324.746,175.427c.525-.3.951-.054.951.552a2.074,2.074,0,0,1-.951,1.63c-.516.308-.906.063-.906-.543a2.119,2.119,0,0,1,.906-1.639Z" transform="translate(-206.123 -175.299)"/>
        <path id="Path_56043" data-name="Path 56043" d="M332.9,175.427c.516-.3.906-.054.906.552a2.092,2.092,0,0,1-.906,1.63c-.525.308-.951.063-.951-.543a2.11,2.11,0,0,1,.951-1.639Z" transform="translate(-206.888 -175.299)"/>
        <path id="Path_56044" data-name="Path 56044" d="M194.836,253.323a.2.2,0,0,1-.118,0,.226.226,0,0,1-.081-.308l7.408-12.77a.208.208,0,0,1,.154-.109l7.191-1.54,7.309-15.306a.235.235,0,0,1,.145-.118.217.217,0,0,1,.181,0l7.245,4.2,7.245-2.092,7.309-6.34,7.345-8.477a.181.181,0,0,1,.109-.072l7.309-2.11,7.318-6.34a.226.226,0,0,1,.154-.054H268.3l7.263-16.854a.253.253,0,0,1,.181-.136.217.217,0,0,1,.2.081l7.191,8.3,7.182-8.3a.181.181,0,0,1,.063-.054l7.381-4.257a.172.172,0,0,1,.109,0h7.3l7.245-4.2a.245.245,0,0,1,.109,0h7.417a.226.226,0,1,1,0,.453h-7.3l-7.245,4.2H297.99l-7.3,4.211-7.327,8.468a.235.235,0,0,1-.344,0l-7.128-8.223-7.245,16.664a.226.226,0,0,1-.208.136h-7.245l-7.363,6.267h-.091l-7.291,2.1-7.327,8.45-7.372,6.394-.082.045-7.354,2.128a.2.2,0,0,1-.172,0l-7.155-4.13-7.245,15.188a.19.19,0,0,1-.154.118l-7.245,1.54-7.363,12.679a.217.217,0,0,1-.145.163Z" transform="translate(-193.93 -175.409)"/>
      </g>
      <path id="Path_56045" data-name="Path 56045" d="M199.044,224.629l7.146-4.139c.362-.208.652-.063.652.335a1.386,1.386,0,0,1-.652,1.078l-7.128,4.139c-.353.208-.652.063-.652-.335A1.413,1.413,0,0,1,199.044,224.629Z" transform="translate(-121.609 -72.699)" fill="#e0e0e0"/>
      <path id="Path_56046" data-name="Path 56046" d="M194.761,226.986c.525-.308.906-.063.906.543a2.074,2.074,0,0,1-.906,1.639c-.525.3-.951.054-.951-.543a2.083,2.083,0,0,1,.951-1.639Z" transform="translate(-121.175 -73.308)" fill="#70ab8d"/>
      <path id="Path_56047" data-name="Path 56047" d="M194.761,226.986c.525-.308.906-.063.906.543a2.074,2.074,0,0,1-.906,1.639c-.525.3-.951.054-.951-.543a2.083,2.083,0,0,1,.951-1.639Z" transform="translate(-121.175 -73.308)" opacity="0.3"/>
      <path id="Path_56048" data-name="Path 56048" d="M199.042,229.3l7.127-4.13c.362-.208.652-.063.652.326a1.386,1.386,0,0,1-.652,1.087l-7.127,4.139c-.353.208-.652.054-.652-.335A1.422,1.422,0,0,1,199.042,229.3Z" transform="translate(-121.607 -73.14)" fill="#e0e0e0"/>
      <path id="Path_56049" data-name="Path 56049" d="M194.761,231.717c.525-.3.906-.063.906.543a2.074,2.074,0,0,1-.906,1.639c-.525.3-.951.054-.951-.543a2.083,2.083,0,0,1,.951-1.639Z" transform="translate(-121.175 -73.755)" fill="#70ab8d"/>
      <path id="Path_56050" data-name="Path 56050" d="M194.837,291.969a.236.236,0,0,1-.154-.063.226.226,0,0,1,0-.326l3.731-3.84,3.623-.462,3.7-4.782,3.7.507,3.623-3.251,3.677-2.2,3.74-5.189,3.722,1.168,3.577-3.2a.226.226,0,0,1,.317,0,.208.208,0,0,1,0,.317l-3.768,3.369-3.623-1.15-3.623,5.026-3.677,2.2-3.722,3.369-3.623-.5-3.623,4.718-3.858.453-3.623,3.722A.244.244,0,0,1,194.837,291.969Z" transform="translate(-121.251 -77.404)" fill="#70ab8d"/>
      <path id="Path_56051" data-name="Path 56051" d="M196.343,280.268a.408.408,0,0,1,.091-.082.536.536,0,0,1,.1-.072,1,1,0,0,1,.552-.163.643.643,0,0,1,.444.163,1.068,1.068,0,0,1,.29.462,2.237,2.237,0,0,1,.109.734,3.36,3.36,0,0,1-.109.842,3.868,3.868,0,0,1-.29.806,2.935,2.935,0,0,1-.444.679,2.065,2.065,0,0,1-.552.471,1.114,1.114,0,0,1-.561.172.689.689,0,0,1-.435-.172,1.078,1.078,0,0,1-.3-.462,2.472,2.472,0,0,1-.1-.734,2.644,2.644,0,0,1,0-.462,3.492,3.492,0,0,1,.091-.444,1.383,1.383,0,0,1,.127-.417c.045-.136.091-.272.136-.4l.978-2.789a.97.97,0,0,0,.063-.136.217.217,0,0,1,.109-.127l.308-.172a.045.045,0,0,1,.072,0v.226Zm-.7,2.355a1.568,1.568,0,0,0,.063.435.7.7,0,0,0,.181.3.417.417,0,0,0,.272.118.716.716,0,0,0,.371-.109,1.73,1.73,0,0,0,.371-.317,2.182,2.182,0,0,0,.272-.435,2.228,2.228,0,0,0,.236-1.014,1.584,1.584,0,0,0-.054-.435.7.7,0,0,0-.181-.3.417.417,0,0,0-.272-.118.779.779,0,0,0-.371.109,1.529,1.529,0,0,0-.371.317,2.01,2.01,0,0,0-.272.444,2.337,2.337,0,0,0-.181.5,2.508,2.508,0,0,0-.063.507Z" transform="translate(-121.3 -78.129)" fill="#455a64"/>
      <path id="Path_56052" data-name="Path 56052" d="M199.175,281.067a1.659,1.659,0,0,0,.072.226.317.317,0,0,0,.145.145.381.381,0,0,0,.254,0,1.3,1.3,0,0,0,.417-.172,1.567,1.567,0,0,0,.317-.245,1.65,1.65,0,0,0,.263-.344,1.821,1.821,0,0,0,.245-.942,1.033,1.033,0,0,0-.063-.417.344.344,0,0,0-.172-.2.425.425,0,0,0-.263,0,1.249,1.249,0,0,0-.326.145l-.444.254a.081.081,0,0,1-.109,0,.181.181,0,0,1,0-.127v-.3a.462.462,0,0,1,0-.154l.054-.145.969-2.174-1.549.906a.063.063,0,0,1-.1,0,.257.257,0,0,1-.045-.127v-.3a.317.317,0,0,1,.045-.181.245.245,0,0,1,.1-.127l2.119-1.223h.1a.163.163,0,0,1,0,.136v.254a.56.56,0,0,1,0,.163.7.7,0,0,1-.072.172l-.951,2.137a1.051,1.051,0,0,1,.5-.154.516.516,0,0,1,.38.118.76.76,0,0,1,.245.389,1.893,1.893,0,0,1,.091.643,3.116,3.116,0,0,1-.109.824,3.26,3.26,0,0,1-.29.734,3.1,3.1,0,0,1-.426.6,2.173,2.173,0,0,1-.516.417,1.541,1.541,0,0,1-.625.235.634.634,0,0,1-.426-.091.7.7,0,0,1-.254-.326,1.386,1.386,0,0,1-.091-.489.29.29,0,0,1,0-.145.227.227,0,0,1,.082-.1l.245-.145h.1A.208.208,0,0,1,199.175,281.067Z" transform="translate(-121.632 -77.904)" fill="#455a64"/>
      <path id="Path_56053" data-name="Path 56053" d="M202.72,279.025a.662.662,0,0,0,.072.226.281.281,0,0,0,.145.145.381.381,0,0,0,.254,0,1.3,1.3,0,0,0,.417-.172,1.566,1.566,0,0,0,.317-.245,1.5,1.5,0,0,0,.263-.353,2.013,2.013,0,0,0,.181-.426,1.813,1.813,0,0,0,.063-.507,1.032,1.032,0,0,0-.063-.417.381.381,0,0,0-.172-.2.426.426,0,0,0-.263,0,1.568,1.568,0,0,0-.326.136l-.453.263a.082.082,0,0,1-.1,0,.181.181,0,0,1,0-.127v-.3a.3.3,0,0,1,0-.154,1.244,1.244,0,0,1,.054-.145l.969-2.174-1.549.906a.082.082,0,0,1-.109,0,.181.181,0,0,1,0-.127v-.3a.408.408,0,0,1,0-.181.217.217,0,0,1,.109-.127l2.119-1.232a.081.081,0,0,1,.1,0,.19.19,0,0,1,.045.136v.3a.608.608,0,0,1,0,.163c0,.054-.045.109-.072.172l-.951,2.137a1.2,1.2,0,0,1,.489-.163.579.579,0,0,1,.389.127.906.906,0,0,1,.245.38,2.175,2.175,0,0,1,.091.652,3.17,3.17,0,0,1-.109.824,3.457,3.457,0,0,1-.29.725,2.634,2.634,0,0,1-.426.6,2.218,2.218,0,0,1-.516.426,1.585,1.585,0,0,1-.625.236.734.734,0,0,1-.435-.091.833.833,0,0,1-.254-.326,1.386,1.386,0,0,1-.082-.489.291.291,0,0,1,0-.145.208.208,0,0,1,.082-.109l.245-.136a.072.072,0,0,1,.1,0A.208.208,0,0,1,202.72,279.025Z" transform="translate(-121.971 -77.709)" fill="#455a64"/>
      <path id="Path_56054" data-name="Path 56054" d="M195.522,295.53l31.8-18.43c.353-.208.652-.054.652.335a1.422,1.422,0,0,1-.652,1.087l-31.8,18.4c-.353.208-.652.063-.652-.335A1.413,1.413,0,0,1,195.522,295.53Z" transform="translate(-121.275 -78.04)" fill="#e0e0e0"/>
      <path id="Path_56055" data-name="Path 56055" d="M195.522,273.56l7.128-4.13c.362-.208.652-.063.652.326a1.4,1.4,0,0,1-.652,1.087l-7.128,4.13c-.353.208-.652.063-.652-.326A1.422,1.422,0,0,1,195.522,273.56Z" transform="translate(-121.275 -77.316)" fill="#e0e0e0"/>
      <path id="Path_56056" data-name="Path 56056" d="M194.837,319.766a.208.208,0,0,1-.154-.072.217.217,0,0,1,0-.317l3.731-3.84,3.7-.462,3.713-3.251,3.623-.978,3.74-7.435,3.74,1.811,3.623-3.188h.063l3.577-.679,3.623-6.258a.226.226,0,1,1,.389.226l-3.722,6.439-3.722.706-3.749,3.3-3.623-1.811-3.623,7.245-3.722,1.014-3.7,3.251-3.668.471-3.623,3.722A.244.244,0,0,1,194.837,319.766Z" transform="translate(-121.251 -79.734)" fill="#70ab8d"/>
      <g id="Group_1432" data-name="Group 1432" transform="translate(73.363 215.229)" opacity="0.3">
        <path id="Path_56057" data-name="Path 56057" d="M194.837,319.766a.208.208,0,0,1-.154-.072.217.217,0,0,1,0-.317l3.731-3.84,3.7-.462,3.713-3.251,3.623-.978,3.74-7.435,3.74,1.811,3.623-3.188h.063l3.577-.679,3.623-6.258a.226.226,0,1,1,.389.226l-3.722,6.439-3.722.706-3.749,3.3-3.623-1.811-3.623,7.245-3.722,1.014-3.7,3.251-3.668.471-3.623,3.722A.244.244,0,0,1,194.837,319.766Z" transform="translate(-194.614 -294.963)"/>
      </g>
      <path id="Path_56058" data-name="Path 56058" d="M196.755,311.813a.471.471,0,0,1,0,.19.235.235,0,0,1-.109.118l-.217.127a.072.072,0,0,1-.1,0,.19.19,0,0,1,0-.136v-4.528l-.906,1.521q-.054.1-.109.109a.072.072,0,0,1-.1,0l-.127-.181a.181.181,0,0,1,0-.145.326.326,0,0,1,.054-.181l1.15-2.029a.362.362,0,0,1,.091-.109l.082-.054.217-.127a.082.082,0,0,1,.109,0,.163.163,0,0,1,0,.127Z" transform="translate(-121.295 -80.81)" fill="#455a64"/>
      <path id="Path_56059" data-name="Path 56059" d="M199.359,307.469a3.407,3.407,0,0,0,.245-.589,2.382,2.382,0,0,0,.082-.652.96.96,0,0,0-.172-.643c-.109-.127-.281-.127-.525,0a1.032,1.032,0,0,0-.317.272,1.814,1.814,0,0,0-.226.353,3.2,3.2,0,0,0-.136.417,3.63,3.63,0,0,0-.082.435.543.543,0,0,1-.054.172.326.326,0,0,1-.091.1l-.245.136h-.082a.145.145,0,0,1,0-.109,3.188,3.188,0,0,1,.091-.679,3.715,3.715,0,0,1,.245-.716,4.058,4.058,0,0,1,.4-.652,1.875,1.875,0,0,1,.534-.471,1.023,1.023,0,0,1,.525-.163.561.561,0,0,1,.371.163.951.951,0,0,1,.235.435,2.717,2.717,0,0,1,.072.643,4.238,4.238,0,0,1,0,.5,4.111,4.111,0,0,1-.082.462c-.045.154-.1.308-.163.471s-.145.326-.235.507l-1.2,2.418,1.648-.951a.072.072,0,0,1,.1,0v.426a.318.318,0,0,1,0,.181.208.208,0,0,1-.1.127l-2.318,1.34a.082.082,0,0,1-.1,0,.181.181,0,0,1-.045-.127v-.3a.523.523,0,0,1,0-.172,1.623,1.623,0,0,1,.091-.217Z" transform="translate(-121.544 -80.651)" fill="#455a64"/>
      <path id="Path_56060" data-name="Path 56060" d="M203.944,304.272v1.395a5.435,5.435,0,0,1-.081.951,4.874,4.874,0,0,1-.254.906,2.88,2.88,0,0,1-.426.724,2.1,2.1,0,0,1-.607.525,1.069,1.069,0,0,1-.616.181.616.616,0,0,1-.417-.235,1.367,1.367,0,0,1-.254-.58,4.628,4.628,0,0,1-.091-.851v-1.431a6.757,6.757,0,0,1,.091-.96,3.868,3.868,0,0,1,.254-.906,3.352,3.352,0,0,1,.417-.725,2.166,2.166,0,0,1,.616-.534,1.024,1.024,0,0,1,.607-.172.6.6,0,0,1,.426.245,1.5,1.5,0,0,1,.254.58A3.939,3.939,0,0,1,203.944,304.272Zm-2.237,2.717a1.7,1.7,0,0,0,.226,1.023c.145.172.362.172.643,0a1.512,1.512,0,0,0,.634-.743,3.414,3.414,0,0,0,.235-1.3V304.58a1.712,1.712,0,0,0-.235-1.032c-.145-.172-.353-.172-.634,0a1.53,1.53,0,0,0-.643.743,3.459,3.459,0,0,0-.226,1.3v1.4Z" transform="translate(-121.873 -80.451)" fill="#455a64"/>
      <path id="Path_56061" data-name="Path 56061" d="M195.522,323.641l31.8-18.421c.353-.208.652-.063.652.335a1.413,1.413,0,0,1-.652,1.078l-31.8,18.43c-.353.208-.652.054-.652-.335A1.422,1.422,0,0,1,195.522,323.641Z" transform="translate(-121.275 -80.693)" fill="#e0e0e0"/>
      <path id="Path_56062" data-name="Path 56062" d="M195.522,301.669l7.128-4.139c.362-.208.652-.054.652.335a1.4,1.4,0,0,1-.652,1.087l-7.128,4.13c-.353.208-.652.063-.652-.326a1.413,1.413,0,0,1,.652-1.087Z" transform="translate(-121.275 -79.967)" fill="#e0e0e0"/>
      <path id="Path_56063" data-name="Path 56063" d="M243.575,263.739a.236.236,0,0,1-.172-.091.217.217,0,0,1,0-.317l3.677-2.934,3.7-4.229,3.758-.552,3.623-.806,3.722-4.383,3.623.643,3.623-5.805,3.731.054,3.623-3.215a.227.227,0,1,1,.326.317l-3.74,3.342-3.623-.063-3.686,5.851-3.7-.652-3.623,4.3-3.758.851-3.623.525-3.623,4.13-3.713,3.034A.226.226,0,0,1,243.575,263.739Z" transform="translate(-125.848 -74.74)" fill="#70ab8d"/>
      <path id="Path_56064" data-name="Path 56064" d="M245.084,252.067l.091-.081.1-.072a1.032,1.032,0,0,1,.525-.127.652.652,0,0,1,.444.163,1.159,1.159,0,0,1,.29.462,2.518,2.518,0,0,1,.1.734,3.822,3.822,0,0,1-.1.842,4.464,4.464,0,0,1-.29.806,3.258,3.258,0,0,1-.444.679,2.1,2.1,0,0,1-.561.471,1.086,1.086,0,0,1-.552.172.715.715,0,0,1-.444-.172,1.069,1.069,0,0,1-.254-.534,2.2,2.2,0,0,1-.109-.734,3.976,3.976,0,0,1,0-.462,1.839,1.839,0,0,1,.091-.444l.127-.426c.045-.136.1-.263.145-.389l.978-2.789.054-.136a.3.3,0,0,1,.109-.127l.308-.172h.082a.154.154,0,0,1,0,.109.172.172,0,0,1,0,.072.073.073,0,0,1,0,.045Zm-.688,2.355a1.3,1.3,0,0,0,.063.435.688.688,0,0,0,.172.3.417.417,0,0,0,.281.118.689.689,0,0,0,.362-.109,1.53,1.53,0,0,0,.371-.317,2.455,2.455,0,0,0,.281-.444,2.716,2.716,0,0,0,.172-.5,2.427,2.427,0,0,0,.063-.507,1.567,1.567,0,0,0-.063-.435.788.788,0,0,0-.172-.3.462.462,0,0,0-.281-.118.815.815,0,0,0-.371.109,1.494,1.494,0,0,0-.362.317,1.746,1.746,0,0,0-.281.444,2.309,2.309,0,0,0-.172.5,1.992,1.992,0,0,0-.063.507Z" transform="translate(-125.899 -75.466)" fill="#455a64"/>
      <path id="Path_56065" data-name="Path 56065" d="M249.161,250.55a3.472,3.472,0,0,0,.245-.6,2.788,2.788,0,0,0,.082-.652.978.978,0,0,0-.172-.634c-.109-.136-.29-.127-.525,0a1.341,1.341,0,0,0-.326.263,2.018,2.018,0,0,0-.217.362,1.957,1.957,0,0,0-.136.408,2.476,2.476,0,0,1-.091.435.426.426,0,0,1-.054.172.235.235,0,0,1-.081.1l-.245.145a.072.072,0,0,1-.091,0,.154.154,0,0,1,0-.109,2.636,2.636,0,0,1,.091-.67,3.513,3.513,0,0,1,.245-.715,3,3,0,0,1,.4-.652,1.91,1.91,0,0,1,.534-.48,1,1,0,0,1,.516-.154.525.525,0,0,1,.38.163.906.906,0,0,1,.226.426,2.381,2.381,0,0,1,.082.652,4.19,4.19,0,0,1,0,.489,2.772,2.772,0,0,1-.091.462,3.564,3.564,0,0,1-.154.471c-.072.163-.145.326-.235.507l-1.2,2.418,1.648-.951a.081.081,0,0,1,.1,0,.19.19,0,0,1,.045.136v.3a.48.48,0,0,1-.045.181.362.362,0,0,1-.1.127l-2.318,1.331h-.109a.19.19,0,0,1,0-.136v-.3a.525.525,0,0,1,0-.172,1.205,1.205,0,0,1,.091-.208Z" transform="translate(-126.244 -75.282)" fill="#455a64"/>
      <path id="Path_56066" data-name="Path 56066" d="M253.129,245.468a.072.072,0,0,1,.1,0,.154.154,0,0,1,.045.136v.344a1.122,1.122,0,0,1,0,.163,1.87,1.87,0,0,1,0,.2l-1.2,5.434a1.325,1.325,0,0,1-.063.172.217.217,0,0,1-.1.118l-.245.145a.073.073,0,0,1-.091,0,.154.154,0,0,1,0-.118h0a.28.28,0,0,1,0-.072l1.2-5.434-1.811,1.023a.082.082,0,0,1-.1,0,.19.19,0,0,1-.045-.136v-.3a.48.48,0,0,1,.045-.181.3.3,0,0,1,.1-.127Z" transform="translate(-126.554 -75.062)" fill="#455a64"/>
      <path id="Path_56067" data-name="Path 56067" d="M244.272,267.33l31.788-18.43c.362-.208.652-.054.652.335a1.4,1.4,0,0,1-.652,1.087l-31.788,18.421c-.362.208-.652.054-.652-.335A1.386,1.386,0,0,1,244.272,267.33Z" transform="translate(-125.875 -75.379)" fill="#e0e0e0"/>
      <path id="Path_56068" data-name="Path 56068" d="M244.272,245.35l7.118-4.13c.362-.208.661-.063.661.326a1.413,1.413,0,0,1-.661,1.087l-7.118,4.13c-.362.208-.652.063-.652-.326a1.4,1.4,0,0,1,.652-1.087Z" transform="translate(-125.875 -74.655)" fill="#e0e0e0"/>
      <path id="Path_56069" data-name="Path 56069" d="M243.577,291.885a.281.281,0,0,1-.118,0,.245.245,0,0,1-.072-.317l3.758-6.158,3.786.7,3.559-.978,3.677-4.483,3.623-.906,3.713-6.629,3.8,1.1,3.568-.679,3.623-3.224a.226.226,0,1,1,.3.335l-3.722,3.315h-.054l-3.749.706-3.5-1.023-3.623,6.484-3.7.906-3.677,4.483H254.7l-3.731,1.023h-.054l-3.523-.652-3.623,5.9A.226.226,0,0,1,243.577,291.885Z" transform="translate(-125.85 -77.401)" fill="#70ab8d"/>
      <g id="Group_1433" data-name="Group 1433" transform="translate(117.507 192.833)" opacity="0.3">
        <path id="Path_56070" data-name="Path 56070" d="M243.577,291.885a.281.281,0,0,1-.118,0,.245.245,0,0,1-.072-.317l3.758-6.158,3.786.7,3.559-.978,3.677-4.483,3.623-.906,3.713-6.629,3.8,1.1,3.568-.679,3.623-3.224a.226.226,0,1,1,.3.335l-3.722,3.315h-.054l-3.749.706-3.5-1.023-3.623,6.484-3.7.906-3.677,4.483H254.7l-3.731,1.023h-.054l-3.523-.652-3.623,5.9A.226.226,0,0,1,243.577,291.885Z" transform="translate(-243.357 -270.233)"/>
      </g>
      <path id="Path_56071" data-name="Path 56071" d="M245.328,281.933l-.072.054h-.072a1.114,1.114,0,0,1-.5.163.67.67,0,0,1-.435-.136.906.906,0,0,1-.263-.4,2.055,2.055,0,0,1-.118-.77,3.36,3.36,0,0,1,.109-.842,4.285,4.285,0,0,1,.29-.788,3.407,3.407,0,0,1,.435-.652,1.975,1.975,0,0,1,.516-.453,1.187,1.187,0,0,1,.561-.181.643.643,0,0,1,.426.172,1.042,1.042,0,0,1,.272.462,2.438,2.438,0,0,1,.091.725,2.654,2.654,0,0,1,0,.444,2.346,2.346,0,0,1-.109.471,3.909,3.909,0,0,1-.145.462c-.054.154-.091.29-.136.408l-.978,2.789-.063.136a.217.217,0,0,1-.109.127l-.308.181a.054.054,0,0,1-.072,0,.2.2,0,0,1,0-.118v-.063a.351.351,0,0,0,0-.054Zm.7-2.346a1.313,1.313,0,0,0-.063-.444.571.571,0,0,0-.163-.245.353.353,0,0,0-.263-.1.771.771,0,0,0-.344.1,1.467,1.467,0,0,0-.344.29,1.812,1.812,0,0,0-.263.408,2.155,2.155,0,0,0-.226,1,1.633,1.633,0,0,0,.054.453.643.643,0,0,0,.172.281.4.4,0,0,0,.263.1.6.6,0,0,0,.344-.1,1.468,1.468,0,0,0,.344-.29,2.407,2.407,0,0,0,.263-.408,2.162,2.162,0,0,0,.172-.48,2.038,2.038,0,0,0,.054-.561Z" transform="translate(-125.898 -78.127)" fill="#455a64"/>
      <path id="Path_56072" data-name="Path 56072" d="M247.742,281.085a.96.96,0,0,0,.081.226.335.335,0,0,0,.145.154.444.444,0,0,0,.254,0,1.3,1.3,0,0,0,.417-.172,1.566,1.566,0,0,0,.317-.245,2.026,2.026,0,0,0,.263-.344,2.309,2.309,0,0,0,.181-.435,1.812,1.812,0,0,0,.063-.507,1.033,1.033,0,0,0-.063-.417.38.38,0,0,0-.172-.2.506.506,0,0,0-.263,0,1.248,1.248,0,0,0-.326.145l-.453.254a.072.072,0,0,1-.1,0,.163.163,0,0,1,0-.127v-.3a.461.461,0,0,1,0-.154l.063-.145.969-2.174-1.558.906a.072.072,0,0,1-.1,0,.208.208,0,0,1-.045-.136v-.3a.444.444,0,0,1,.045-.181.3.3,0,0,1,.1-.127l2.128-1.223a.072.072,0,0,1,.1,0,.181.181,0,0,1,.045.127v.3a.516.516,0,0,1,0,.163,1.4,1.4,0,0,1-.072.172l-.951,2.137a1.051,1.051,0,0,1,.489-.154.534.534,0,0,1,.38.118.833.833,0,0,1,.254.389,2.156,2.156,0,0,1,.091.643,3.07,3.07,0,0,1-.109.824,3.747,3.747,0,0,1-.29.734,3.106,3.106,0,0,1-.426.6,2.174,2.174,0,0,1-.516.417,1.585,1.585,0,0,1-.625.235.679.679,0,0,1-.435-.091.833.833,0,0,1-.254-.326,1.367,1.367,0,0,1-.082-.48.461.461,0,0,1,0-.154.244.244,0,0,1,.091-.1l.245-.145h.091a.109.109,0,0,1,.027.091Z" transform="translate(-126.22 -77.904)" fill="#455a64"/>
      <path id="Path_56073" data-name="Path 56073" d="M244.272,295.438l31.788-18.448c.362-.208.652-.063.652.335a1.386,1.386,0,0,1-.652,1.078l-31.789,18.43c-.362.208-.652.054-.652-.335a1.4,1.4,0,0,1,.652-1.06Z" transform="translate(-125.875 -78.029)" fill="#e0e0e0"/>
      <path id="Path_56074" data-name="Path 56074" d="M244.272,273.469l7.118-4.139c.362-.208.661-.054.661.335a1.413,1.413,0,0,1-.661,1.087l-7.118,4.13c-.362.208-.652.063-.652-.326a1.386,1.386,0,0,1,.652-1.087Z" transform="translate(-125.875 -77.307)" fill="#e0e0e0"/>
      <path id="Path_56075" data-name="Path 56075" d="M296.406,220.3a4.148,4.148,0,0,1,4.157-.344l-4.193,11.3Z" transform="translate(-130.851 -72.62)" fill="#70ab8d"/>
      <path id="Path_56076" data-name="Path 56076" d="M291.78,224.908a12.462,12.462,0,0,1,4.193-4.528v10.995Z" transform="translate(-130.418 -72.697)" fill="#70ab8d"/>
      <path id="Path_56077" data-name="Path 56077" d="M288.91,232.372a22.089,22.089,0,0,1,2.6-6.992l4.193,6.466Z" transform="translate(-130.148 -73.169)" fill="#70ab8d"/>
      <path id="Path_56078" data-name="Path 56078" d="M291.509,224.908a22.089,22.089,0,0,0-2.6,6.992l6.792-.525V220.38A12.462,12.462,0,0,0,291.509,224.908Z" transform="translate(-130.148 -72.697)" opacity="0.3"/>
      <path id="Path_56079" data-name="Path 56079" d="M300.563,220a5.869,5.869,0,0,1,2.6,3.985L296.37,231.3Z" transform="translate(-130.851 -72.662)" fill="#70ab8d"/>
      <path id="Path_56080" data-name="Path 56080" d="M288.873,239.835a13.7,13.7,0,0,1-.353-3.2,19.427,19.427,0,0,1,.353-3.623l6.792-.525Z" transform="translate(-130.111 -73.84)" fill="#70ab8d"/>
      <path id="Path_56081" data-name="Path 56081" d="M303.2,231.94a22.089,22.089,0,0,1-2.6,6.992l-4.193-6.466Z" transform="translate(-130.855 -73.788)" fill="#70ab8d"/>
      <path id="Path_56082" data-name="Path 56082" d="M295.973,243.515a4.148,4.148,0,0,1-4.193.308l4.193-11.3Z" transform="translate(-130.418 -73.843)" fill="#70ab8d"/>
      <path id="Path_56083" data-name="Path 56083" d="M288.91,239.838l6.792-7.318-4.193,11.3a5.869,5.869,0,0,1-2.6-3.985Z" transform="translate(-130.148 -73.843)" fill="#70ab8d"/>
      <path id="Path_56084" data-name="Path 56084" d="M303.2,224.44a13.732,13.732,0,0,1,.344,3.2,19.409,19.409,0,0,1-.344,3.623l-6.792.525Z" transform="translate(-130.855 -73.08)" fill="#70ab8d"/>
      <path id="Path_56085" data-name="Path 56085" d="M300.563,238.986a12.462,12.462,0,0,1-4.193,4.528V232.52Z" transform="translate(-130.851 -73.843)" fill="#70ab8d"/>
      <path id="Path_56086" data-name="Path 56086" d="M292.412,250.41l7.118-4.13c.362-.208.652-.063.652.326a1.4,1.4,0,0,1-.652,1.087l-7.118,4.13c-.362.208-.652.063-.652-.326a1.4,1.4,0,0,1,.652-1.087Z" transform="translate(-130.416 -75.132)" fill="#455a64"/>
      <path id="Path_56087" data-name="Path 56087" d="M290.672,255.931l10.27-5.941c.362-.208.652-.063.652.335a1.386,1.386,0,0,1-.652,1.078l-10.27,5.959c-.362.208-.652.063-.652-.326A1.386,1.386,0,0,1,290.672,255.931Z" transform="translate(-130.252 -75.482)" fill="#e0e0e0"/>
      <path id="Path_56088" data-name="Path 56088" d="M290.672,260.63l10.27-5.959c.362-.208.652-.054.652.335a1.386,1.386,0,0,1-.652,1.078l-10.27,5.959c-.362.208-.652.063-.652-.326A1.386,1.386,0,0,1,290.672,260.63Z" transform="translate(-130.252 -75.924)" fill="#e0e0e0"/>
      <path id="Path_56089" data-name="Path 56089" d="M290.672,265.37l10.27-5.959c.362-.208.652-.054.652.335a1.4,1.4,0,0,1-.652,1.087l-10.27,5.95c-.362.208-.652.063-.652-.326a1.4,1.4,0,0,1,.652-1.087Z" transform="translate(-130.252 -76.371)" fill="#e0e0e0"/>
      <path id="Path_56090" data-name="Path 56090" d="M324.84,203.823a4.148,4.148,0,0,1,4.193-.308l-4.193,11.266Z" transform="translate(-133.537 -71.066)" fill="#70ab8d"/>
      <path id="Path_56091" data-name="Path 56091" d="M320.21,208.428A12.543,12.543,0,0,1,324.4,203.9v10.958Z" transform="translate(-133.101 -71.143)" fill="#70ab8d"/>
      <path id="Path_56092" data-name="Path 56092" d="M317.35,215.892a22.079,22.079,0,0,1,2.59-6.992l4.193,6.466Z" transform="translate(-132.831 -71.614)" fill="#70ab8d"/>
      <path id="Path_56093" data-name="Path 56093" d="M329.033,203.56a5.869,5.869,0,0,1,2.6,3.985l-6.792,7.318Z" transform="translate(-133.537 -71.111)" fill="#70ab8d"/>
      <path id="Path_56094" data-name="Path 56094" d="M317.313,223.355a13.7,13.7,0,0,1-.353-3.2,19.5,19.5,0,0,1,.353-3.623l6.783-.525Z" transform="translate(-132.794 -72.285)" fill="#70ab8d"/>
      <path id="Path_56095" data-name="Path 56095" d="M331.632,215.46a22.007,22.007,0,0,1-2.6,6.992l-4.193-6.5Z" transform="translate(-133.537 -72.233)" fill="#70ab8d"/>
      <path id="Path_56096" data-name="Path 56096" d="M324.4,227.031a4.166,4.166,0,0,1-4.193.317L324.4,216Z" transform="translate(-133.101 -72.284)" fill="#70ab8d"/>
      <path id="Path_56097" data-name="Path 56097" d="M317.35,223.358l6.783-7.318-4.193,11.312A5.9,5.9,0,0,1,317.35,223.358Z" transform="translate(-132.831 -72.288)" fill="#70ab8d"/>
      <path id="Path_56098" data-name="Path 56098" d="M319.9,208.428a22.08,22.08,0,0,0-2.59,6.992,19.494,19.494,0,0,0-.353,3.623,13.7,13.7,0,0,0,.353,3.2,5.9,5.9,0,0,0,2.59,3.994l4.193-11.375V203.9A12.543,12.543,0,0,0,319.9,208.428Z" transform="translate(-132.794 -71.143)" opacity="0.3"/>
      <path id="Path_56099" data-name="Path 56099" d="M331.632,208a13.7,13.7,0,0,1,.353,3.2,19.424,19.424,0,0,1-.353,3.623l-6.792.525Z" transform="translate(-133.537 -71.529)" fill="#70ab8d"/>
      <path id="Path_56100" data-name="Path 56100" d="M329.033,222.5a12.39,12.39,0,0,1-4.193,4.528V216Z" transform="translate(-133.537 -72.284)" fill="#70ab8d"/>
      <path id="Path_56101" data-name="Path 56101" d="M320.842,233.99l7.128-4.13c.362-.208.652-.063.652.326a1.386,1.386,0,0,1-.652,1.087l-7.128,4.139c-.362.208-.652.054-.652-.335A1.4,1.4,0,0,1,320.842,233.99Z" transform="translate(-133.099 -73.583)" fill="#455a64"/>
      <path id="Path_56102" data-name="Path 56102" d="M319.111,239.51l10.261-5.959c.362-.208.652-.054.652.335a1.4,1.4,0,0,1-.652,1.087l-10.261,5.95c-.362.208-.661.063-.661-.326A1.413,1.413,0,0,1,319.111,239.51Z" transform="translate(-132.935 -73.931)" fill="#e0e0e0"/>
      <path id="Path_56103" data-name="Path 56103" d="M319.111,244.21l10.261-5.95c.362-.208.652-.063.652.326a1.4,1.4,0,0,1-.652,1.087l-10.261,5.95c-.362.217-.661.063-.661-.326a1.413,1.413,0,0,1,.661-1.087Z" transform="translate(-132.935 -74.375)" fill="#e0e0e0"/>
      <path id="Path_56104" data-name="Path 56104" d="M319.111,248.913l10.261-5.923c.362-.208.652-.063.652.326a1.4,1.4,0,0,1-.652,1.087l-10.261,5.959c-.362.208-.661.054-.661-.335a1.413,1.413,0,0,1,.661-1.114Z" transform="translate(-132.935 -74.822)" fill="#e0e0e0"/>
    </g>
  </g>
  <g id="freepik--magnifying-glass--inject-196" transform="translate(143.086 329.847)">
    <g id="freepik--Glass--inject-196">
      <path id="Path_56105" data-name="Path 56105" d="M318.31,365.586a12.09,12.09,0,0,0-5.153-9.672,3.887,3.887,0,0,0-3.822-.525h0c-6.059,3.043-48.634,30.349-51.36,31.7h0a1.929,1.929,0,0,0-.906,1.757,6.086,6.086,0,0,0,2.59,4.863,1.911,1.911,0,0,0,1.947.254h0c4.311-2.373,46.342-20.287,54.928-24.887h0A3.759,3.759,0,0,0,318.31,365.586Z" transform="translate(-170.813 -355.087)" fill="#70ab8d"/>
      <path id="Path_56106" data-name="Path 56106" d="M316.64,359.7a10.866,10.866,0,0,0-3.478-3.786,3.882,3.882,0,0,0-3.8-.534l-.127.063c-5.534,2.835-37.222,23.049-47.882,29.624h-.072l-.435.272-.127.081-.245.145-.29.172h0c-1.123.688-1.893,1.132-2.183,1.277h0a1.3,1.3,0,0,0-.245.2,2.1,2.1,0,0,0-.616,1.558,4.524,4.524,0,0,0,0,.607q0,.122,0,.245a.766.766,0,0,0,.072.371l.081.3a1.036,1.036,0,0,0,.118.344,2.238,2.238,0,0,0,.091.263h0Z" transform="translate(-170.819 -355.087)" opacity="0.1"/>
      <path id="Path_56107" data-name="Path 56107" d="M259.671,397.046a6.041,6.041,0,0,1-2.581-4.845c.054-1.748,1.3-2.418,2.8-1.494a6.1,6.1,0,0,1,2.554,4.845C262.442,397.273,261.156,397.97,259.671,397.046Z" transform="translate(-170.815 -358.408)" fill="#70ab8d"/>
      <path id="Path_56108" data-name="Path 56108" d="M245.89,398.328a4.673,4.673,0,0,0,1.983,3.722,1.512,1.512,0,0,0,1.485.2h0l10.306-5.479h0a1.485,1.485,0,0,0,.652-1.34,4.673,4.673,0,0,0-1.983-3.722,1.485,1.485,0,0,0-1.485-.19h0L246.551,397h0A1.494,1.494,0,0,0,245.89,398.328Z" transform="translate(-169.758 -358.513)" fill="#37474f"/>
      <path id="Path_56109" data-name="Path 56109" d="M246.56,396.979a1.494,1.494,0,0,0-.67,1.349,4.012,4.012,0,0,0,.308,1.585l13.286-7.064a4.021,4.021,0,0,0-1.141-1.141,1.485,1.485,0,0,0-1.485-.19L246.56,397Z" transform="translate(-169.758 -358.513)" fill="#263238"/>
      <path id="Path_56110" data-name="Path 56110" d="M251.173,406.454c0-6.6-4.365-13.2-13.087-18.231-17.443-10.071-45.727-10.071-63.169,0-8.721,5.035-13.087,11.629-13.087,18.231h0v12.163c0,6.593,4.365,13.2,13.087,18.231,17.443,10.071,45.727,10.071,63.169,0,8.721-5.035,13.087-11.638,13.087-18.231Zm-74.092-14.491c7.789-4.528,18.24-6.974,29.425-6.974s21.636,2.472,29.425,6.974c7.046,4.066,10.922,9.211,10.922,14.491s-3.876,10.433-10.922,14.49c-7.789,4.528-18.24,6.974-29.425,6.974s-21.636-2.481-29.425-6.974c-7.046-4.066-10.931-9.22-10.931-14.49S170.035,396.03,177.081,391.964Z" transform="translate(-161.828 -357.5)" fill="#70ab8d"/>
      <path id="Path_56111" data-name="Path 56111" d="M174.916,424.694c17.443,10.071,45.727,10.071,63.169,0s17.443-26.4,0-36.471-45.727-10.071-63.169,0S157.455,414.623,174.916,424.694Zm-8.767-18.24c0-5.28,3.876-10.424,10.922-14.491,7.789-4.528,18.24-6.974,29.425-6.974s21.636,2.472,29.434,6.974c7.037,4.066,10.922,9.211,10.922,14.491s-3.885,10.433-10.922,14.49c-7.8,4.528-18.249,6.974-29.434,6.974s-21.636-2.481-29.425-6.974C170.035,416.887,166.15,411.761,166.15,406.454Z" transform="translate(-161.827 -357.5)" fill="#fff" opacity="0.3"/>
      <path id="Path_56112" data-name="Path 56112" d="M166.6,406.9a12.082,12.082,0,0,0,1.739,6.086,24.626,24.626,0,0,1,9.192-8.423c7.78-4.528,18.231-6.974,29.425-6.974s21.636,2.472,29.416,6.974c4.293,2.472,7.417,5.352,9.192,8.423A12.082,12.082,0,0,0,247.3,406.9c0-5.28-3.876-10.424-10.931-14.491-7.78-4.528-18.24-6.974-29.416-6.974s-21.645,2.482-29.425,6.974C170.476,396.48,166.6,401.624,166.6,406.9Z" transform="translate(-162.278 -357.95)" fill="#70ab8d"/>
      <path id="Path_56113" data-name="Path 56113" d="M166.6,406.9a12.082,12.082,0,0,0,1.739,6.086,24.626,24.626,0,0,1,9.192-8.423c7.78-4.528,18.231-6.974,29.425-6.974s21.636,2.472,29.416,6.974c4.293,2.472,7.417,5.352,9.192,8.423A12.082,12.082,0,0,0,247.3,406.9c0-5.28-3.876-10.424-10.931-14.491-7.78-4.528-18.24-6.974-29.416-6.974s-21.645,2.482-29.425,6.974C170.476,396.48,166.6,401.624,166.6,406.9Z" transform="translate(-162.278 -357.95)" opacity="0.1"/>
      <path id="Path_56114" data-name="Path 56114" d="M177.56,398.484c7.789-4.528,18.24-6.974,29.425-6.974s21.636,2.481,29.434,6.974c5.805,3.36,9.455,7.454,10.56,11.774-1.1,4.293-4.755,8.386-10.56,11.773-7.8,4.528-18.249,6.974-29.434,6.974s-21.636-2.482-29.425-6.974c-5.814-3.36-9.464-7.454-10.56-11.773C168.1,405.937,171.746,401.844,177.56,398.484Z" transform="translate(-162.316 -358.523)" fill="#fff" opacity="0.4"/>
      <path id="Path_56115" data-name="Path 56115" d="M195.973,433.8v12.145a58.352,58.352,0,0,1-21.056-6.829c-8.721-5.035-13.087-11.638-13.087-18.24V408.725a15.4,15.4,0,0,1,.534-3.985h0c-2.119,7.852,2.065,16.166,12.543,22.225A58.867,58.867,0,0,0,195.973,433.8Z" transform="translate(-161.828 -359.771)" opacity="0.1"/>
    </g>
  </g>
  <g id="freepik--Character--inject-196" transform="translate(324.458 132.059)">
    <g id="freepik--character--inject-196-2" data-name="freepik--character--inject-196">
      <path id="Path_56116" data-name="Path 56116" d="M433.03,353.843c.534.217.643,1.232.679,3.251,0,1.531.29,4.211-1.5,4.7s-4.42.163-5.534-1.3c-1.395-1.811-2.328-3.432-4.32-5.678-1.73-1.938-3.623-3.758-4.266-6.439-.589-2.427,0-3.46,1.639-4.13,2.282-.906,5.76,2.318,7.526,2.853C428.764,347.558,432.478,353.626,433.03,353.843Z" transform="translate(-353.089 -167.914)" fill="#263238"/>
      <path id="Path_56117" data-name="Path 56117" d="M433.942,352.687l-.054,2.472a6.05,6.05,0,0,1-6.267,0c-.109-.235-.571-3.559-.571-3.559Z" transform="translate(-353.956 -168.623)" fill="#ffa8a7"/>
      <path id="Path_56118" data-name="Path 56118" d="M409.189,370.138s.661,2.174,1.005,4.066c.272,1.5.652,4.021.1,5.135s-2.617,1.811-5.787,1.7c-2.056-.063-5.289,1.259-7.517,2.436s-7.019,1.612-9.41,1.277c-2.817-.4-5.706-2.1-6.131-3.278s.2-2.382,6.919-5.072c.063,0,9.328-2.808,12.625-6.285Z" transform="translate(-349.644 -170.371)" fill="#263238"/>
      <path id="Path_56119" data-name="Path 56119" d="M411.3,367.174s-.054,1.811-.072,2.889-1.286,2.59-4.528,2.4c-2.255-.127-3.822-.77-3.686-2.626l.063-2.717Z" transform="translate(-351.687 -170.088)" fill="#ffa8a7"/>
      <path id="Path_56120" data-name="Path 56120" d="M433.31,309.352a67.163,67.163,0,0,0-2.635-12.978s1.132-11.121,1.811-21.681c.715-11.393,1.386-17.262-.86-33.727,0,0-34.949-3.143-35.9,10.035s.4,46.8.706,52.6,1.186,10.949,2.174,20.368,3.795,31.254,3.795,31.254a8.722,8.722,0,0,0,8.2,0s3.179-26.318,3.061-33a57.32,57.32,0,0,0-2.21-14.654s.906-10.868,1.811-20.3,1.585-13.974,1.811-18.113l.8-.371s.444,16.3.752,22.134,1.1,11.384,2.527,22.179c1.25,9.383,5.09,29.307,5.09,29.307,4.157,2.364,6.72-.145,6.72-.145S434.261,317.476,433.31,309.352Z" transform="translate(-350.969 -158.155)" fill="#37474f"/>
      <path id="Path_56121" data-name="Path 56121" d="M417.07,271.329s9.057-4.2,13.585-8.069c0,0-4.275,5.751-9.781,8.223,0,0-2.4,20.232-2.382,19.825l-.67-19.988Z" transform="translate(-353.015 -160.289)" fill="#263238"/>
      <path id="Path_56122" data-name="Path 56122" d="M410.16,188.88l1.358,12.063,11.393-.571-1.259-14.083Z" transform="translate(-352.363 -153.027)" fill="#ffa8a7"/>
      <path id="Path_56123" data-name="Path 56123" d="M428.872,194.247c4.238-.2,6.394.444,8.3,4.1s2.645,14.59,3.315,20.232.824,9.609-1.494,10.189-11.357.833-11.357.833Z" transform="translate(-354.012 -153.775)" fill="#37474f"/>
      <path id="Path_56124" data-name="Path 56124" d="M432.973,200.49c-.607-3.369-5.054-6.919-9.211-6.249l-2.817.48c-.5,2.029-6.059,3.3-11.375,2.047-1.6.426-6.874,1.413-8.214,1.857-3.813,1.268-5.434,5.026-5.986,17.479,0,0,.308,28.211.154,33.826a45.929,45.929,0,0,0,24.824,3.016c11.448-2.228,12.924-6.919,12.924-6.919l-1.7-12.906S434.368,208.134,432.973,200.49Z" transform="translate(-350.967 -153.77)" fill="#455a64"/>
      <path id="Path_56125" data-name="Path 56125" d="M410.327,193.327l.091.761a16.873,16.873,0,0,0,6.992,0c3.7-.824,4.456-1.866,4.456-1.866l-.082-.906s.906-.335,1.4,1.078a16.633,16.633,0,0,1,.543,1.73s.426,2.6-3.931,3.921a13.485,13.485,0,0,1-10.868-1.186l-1.7.362s1.476-3.405,1.92-4.094a1.132,1.132,0,0,1,1.069-.6Z" transform="translate(-352.086 -153.498)" fill="#37474f"/>
      <path id="Path_56126" data-name="Path 56126" d="M369.886,179.25l-22.6,11.8,11.23,30.693,21.084-11.81Z" transform="translate(-346.431 -152.363)" fill="#455a64"/>
      <path id="Path_56127" data-name="Path 56127" d="M369.124,182.57l-18.964,9.9L360.1,218.86l17.687-9.908Z" transform="translate(-346.702 -152.676)" fill="#f5f5f5"/>
      <path id="Path_56128" data-name="Path 56128" d="M365.634,185.6s-.163-.426-.371-.906-1.811-.208-3.523.688l-3.333,1.73c-1.748.906-3,2.047-2.789,2.563l.362.906Z" transform="translate(-347.215 -152.855)" opacity="0.15"/>
      <path id="Path_56129" data-name="Path 56129" d="M365.063,181.539c-.118-.326-.806-.272-1.531.118l-1.3.706s-.806-2.029-3.813-.625S356.1,185.5,356.1,185.5l-1.386.761c-.77.426-1.313,1.032-1.223,1.358l.172.6,11.638-6.068Z" transform="translate(-347.015 -152.551)" fill="#70ab8d"/>
      <path id="Path_56130" data-name="Path 56130" d="M364.06,183.026c-1.087.534-1.512.8-1.2,1.594s.688,1.567.688,1.567L358.4,188.9s-.426-1.159-.616-1.6-.571-.661-1.386-.235l-.308-.326,8.151-4.139Z" transform="translate(-347.261 -152.679)" fill="#70ab8d"/>
      <path id="Path_56131" data-name="Path 56131" d="M364.06,183.026c-1.087.534-1.512.8-1.2,1.594s.688,1.567.688,1.567L358.4,188.9s-.426-1.159-.616-1.6-.571-.661-1.386-.235l-.308-.326,8.151-4.139Z" transform="translate(-347.261 -152.679)" opacity="0.3"/>
      <path id="Path_56132" data-name="Path 56132" d="M365.874,185.649l-.362-.906c-.208-.525-1.811-.217-3.523.688l-3.342,1.721c-1.739.906-2.989,2.047-2.789,2.572l.371.906Z" transform="translate(-347.237 -152.857)" fill="#70ab8d"/>
      <path id="Path_56133" data-name="Path 56133" d="M399.285,199.09c-5.217.453-7.435,1.4-11.348,8.459-4.257,7.671-12.426,21.536-13.458,23.293-1.44,2.436-1.712,6.14-.471,8.377,1.159,2.092,4.845,3.043,9.057-1.675,4.972-5.615,14.219-19.327,14.219-19.327S405.09,207.857,399.285,199.09Z" transform="translate(-348.877 -154.235)" fill="#ffa8a7"/>
      <path id="Path_56134" data-name="Path 56134" d="M373.618,241.106c-4-.48-13.34-13.15-15.994-17.289a29.515,29.515,0,0,0-8.1-8.54c-4.229-3.125-3.623-7.934-1.766-12.335.634-1.521,2.808-.534,2.808-.534l.761,2.092,1.322,3.623c.906.833,1.413,1.1,1.467.86.118-.471-.652-2.418-.634-4.447,0-2.436,1.73-.833,2.237,0a29.446,29.446,0,0,1,1.811,4.03c.851,2.183.507,4.392,1.54,5.878s14.97,14.844,14.97,14.844Z" transform="translate(-346.342 -154.518)" fill="#ffa8a7"/>
      <path id="Path_56135" data-name="Path 56135" d="M399.308,198.779c-3.161-.072-6.955.435-9.9,4.257s-14.717,24.6-14.717,24.6l-6.6-5.923a11.511,11.511,0,0,0-5.09,7.155,71.986,71.986,0,0,0,5.977,8.151c2.8,3.061,5.914,5.189,8.468,4.248s5.162-2.962,10.66-10.623,11.5-16.691,11.5-16.691S403.4,205.128,399.308,198.779Z" transform="translate(-347.913 -154.205)" fill="#37474f"/>
      <path id="Path_56136" data-name="Path 56136" d="M401.025,172.84s-2.844,4.311-2.518,4.737,2.418.806,2.418.806Z" transform="translate(-351.261 -151.758)" fill="#f28f8f"/>
      <path id="Path_56137" data-name="Path 56137" d="M402.406,175.192a3.4,3.4,0,1,1,3.4-3.387,3.4,3.4,0,0,1-3.4,3.387Zm0-6.032a2.644,2.644,0,1,0,2.636,2.645A2.645,2.645,0,0,0,402.406,169.161Z" transform="translate(-351.311 -151.339)" fill="#263238"/>
      <path id="Path_56138" data-name="Path 56138" d="M409.153,159.591c-5.76,1.214-7.426,3.749-7.97,12.887-.561,9.564.417,12.561,1.666,13.847.851.906,5.561,1.032,7.934.371,2.98-.815,9.7-3.2,12.842-8.006,3.7-5.651,4.673-13.322.715-16.465C418.78,157.8,411.508,159.093,409.153,159.591Z" transform="translate(-351.5 -150.455)" fill="#ffa8a7"/>
      <path id="Path_56139" data-name="Path 56139" d="M409.6,189.7l-.272-1.757a11.321,11.321,0,0,1-5.9,1.331C404.526,189.806,407.388,189.969,409.6,189.7Z" transform="translate(-351.728 -153.183)" fill="#f28f8f"/>
      <path id="Path_56140" data-name="Path 56140" d="M399.37,171.37,409.6,172.7l-.408.715-9.826-1.277Z" transform="translate(-351.345 -151.62)" fill="#263238"/>
      <path id="Path_56141" data-name="Path 56141" d="M399.909,162.393a3.332,3.332,0,0,0,1.3-.081,2.047,2.047,0,0,0,.7,2.4,2.916,2.916,0,0,0,2.581.344,2.482,2.482,0,0,0-.281,1.811,2.88,2.88,0,0,0,2.98,2.155c.063,1.34.082,2.645,1.5,3.251,0,0,.906-3.532,3.894-3.088s3.4,4.266,1.512,6.593-3.623,1.44-3.623,1.431c.172.081.235,1.214.29,1.422a10.793,10.793,0,0,0,.77,1.938,9.209,9.209,0,0,0,2.717,3.152,6.629,6.629,0,0,0,5.434,1.5,5.841,5.841,0,0,0,3.94-3.161,3.315,3.315,0,0,1,.634-1.15,3.813,3.813,0,0,1,1.467-.634,4.311,4.311,0,0,0,2.445-6.086,3.958,3.958,0,0,0,1.512-6.9,4.754,4.754,0,0,0,2.038-5.144,4.827,4.827,0,0,0-3.405-3.26c-1.168-.335-.715-.516-1.078-1.657a4.247,4.247,0,0,0-1.34-2,4.293,4.293,0,0,0-3.958-.734,4.021,4.021,0,0,0-2.88-3.088,3.858,3.858,0,0,0-2.029-.081c-.48.118-1.458.561-1.639,1.023-.607-.6-.806-1.386-1.54-1.92a4.374,4.374,0,0,0-6.43,1.368,5.361,5.361,0,0,0-4.021-1.685,4.392,4.392,0,0,0-3.668,2.237,3.731,3.731,0,0,0,.5,4.184,4.338,4.338,0,0,0-2.228,1.92,2.717,2.717,0,0,0,.317,3.007,2.318,2.318,0,0,0,1.123.842A3.624,3.624,0,0,0,399.909,162.393Z" transform="translate(-351.186 -149.562)" fill="#263238"/>
      <path id="Path_56142" data-name="Path 56142" d="M409.577,176.413l.1-4a2,2,0,0,0-.1,4Z" transform="translate(-352.123 -151.718)" fill="#263238"/>
    </g>
  </g>
</svg>
