<svg xmlns="http://www.w3.org/2000/svg" width="292.154" height="293.23" viewBox="0 0 292.154 293.23">
  <g id="Mobile_Marketing-pana_1_" data-name="Mobile Marketing-pana (1)" transform="translate(-27.5 -23.89)">
    <g id="freepik--background-complete--inject-96" transform="translate(40.967 23.89)">
      <path id="Path_54990" data-name="Path 54990" d="M124.567,102.883h0A22.517,22.517,0,0,1,102.05,80.367h0A22.517,22.517,0,0,1,124.567,57.85h0a22.517,22.517,0,0,1,22.517,22.517h0a22.517,22.517,0,0,1-22.517,22.517Z" transform="translate(-66.52 -35.53)" fill="#ebebeb"/>
      <rect id="Rectangle_12788" data-name="Rectangle 12788" width="4.66" height="15.057" transform="translate(47.833 39.822)" fill="#fff"/>
      <path id="Path_54991" data-name="Path 54991" d="M122.844,78.58a2.78,2.78,0,1,0-2.754-2.78,2.78,2.78,0,0,0,2.754,2.78Z" transform="translate(-72.704 -40.73)" fill="#fff"/>
      <path id="Path_54992" data-name="Path 54992" d="M136.866,91.391c0-2.116.973-3.378,2.839-3.378,1.709,0,2.537,1.209,2.537,3.378v7.887h4.633V89.761c0-4.035-2.281-5.981-5.475-5.981a5.258,5.258,0,0,0-4.535,2.484V84.24H132.39V99.29h4.476Z" transform="translate(-76.92 -44.418)" fill="#fff"/>
      <path id="Path_54993" data-name="Path 54993" d="M177.671,23.89l3.082,5.632,5.639,3.089-5.639,3.082-3.082,5.632-3.082-5.632-5.639-3.082,5.639-3.089Z" transform="translate(-89.452 -23.89)" fill="#f5f5f5"/>
      <path id="Path_54994" data-name="Path 54994" d="M374.459,256.27l2.313,4.233L381,262.809l-4.226,2.313-2.313,4.233-2.313-4.233-4.226-2.313,4.226-2.307Z" transform="translate(-157.652 -103.543)" fill="#ebebeb"/>
      <path id="Path_54995" data-name="Path 54995" d="M386.281,224.51l1.045,1.906,1.906,1.045-1.906,1.045-1.045,1.906-1.038-1.906-1.913-1.045,1.913-1.045Z" transform="translate(-162.934 -92.656)" fill="#e0e0e0"/>
      <path id="Path_54996" data-name="Path 54996" d="M147.171,27.11l1.045,1.913,1.906,1.038-1.906,1.045-1.045,1.906-1.038-1.906-1.913-1.045,1.913-1.038Z" transform="translate(-80.975 -24.994)" fill="#e0e0e0"/>
      <path id="Path_54997" data-name="Path 54997" d="M61.884,289.915a6.829,6.829,0,0,0,3.983-6.362,6.405,6.405,0,1,0-12.783.112,6.8,6.8,0,0,0,4.154,6.309c-9.819,1.61-9.241,12.3-9.241,12.3l23.259-.2S71.657,291.262,61.884,289.915Z" transform="translate(-47.99 -110.576)" fill="#e0e0e0"/>
      <path id="Path_54998" data-name="Path 54998" d="M401.164,402.412a3.621,3.621,0,0,0-7.144.21,3.621,3.621,0,0,0-7.144-.171,4.884,4.884,0,0,0,.881,3.529,14.344,14.344,0,0,0,2.55,2.695c1.314,1.163,2.5,2.248,3.805,3.4,1.314-1.17,2.386-2.267,3.674-3.437a14.191,14.191,0,0,0,2.53-2.721,4.9,4.9,0,0,0,.848-3.51Z" transform="translate(-164.134 -152.631)" fill="#ebebeb"/>
      <path id="Path_54999" data-name="Path 54999" d="M431.69,185.752l2.491-.493,3.943-8.662-.986-4.975s3.805-1,4.647,5.606,1,4.85,1,4.85,8.183-1.59,9-1.019c.6.421,2.432,8.5,3.391,12.895a4.857,4.857,0,0,1-2.425,5.475,3.412,3.412,0,0,1-.861.289c-2.037.407-12.79.815-12.79.815l-4.3.854Z" transform="translate(-179.511 -74.509)" fill="#e0e0e0"/>
      <path id="Path_55000" data-name="Path 55000" d="M420.42,192.8l4.909,16.746,4.272-.848L426.289,192Z" transform="translate(-175.648 -81.513)" fill="#e0e0e0"/>
    </g>
    <g id="freepik--Floor--inject-96" transform="translate(27.5 316.469)">
      <path id="Path_55001" data-name="Path 55001" d="M318.634,469.231c0,.1-65.178.171-145.557.171S27.5,469.329,27.5,469.231s65.164-.171,145.577-.171S318.634,469.139,318.634,469.231Z" transform="translate(-27.5 -469.06)" fill="#263238"/>
    </g>
    <g id="freepik--Icons--inject-96" transform="translate(41.144 77.834)">
      <path id="Path_55002" data-name="Path 55002" d="M373.409,156.694h0a26.71,26.71,0,0,1-35.694-12.336h0a26.71,26.71,0,0,1,12.336-35.694h0A26.7,26.7,0,0,1,385.746,121h0a26.7,26.7,0,0,1-12.336,35.694Z" transform="translate(-146.553 -105.968)" fill="#aa43d1"/>
      <path id="Path_55003" data-name="Path 55003" d="M361.765,144.282a.657.657,0,0,0,.624-.808c-.066-.322-.243-1.137-.309-1.472a.893.893,0,0,0-.657-.8,5.258,5.258,0,0,1-2.629-2.688,8.624,8.624,0,0,1,4.252-11.764c4.4-2.143,8.123-.657,9.858,2.958,2.294,4.725,2.143,9.727-.96,11.239a2.82,2.82,0,0,1-4.121-1.9c-.513-2.313-.657-5.015-1.38-6.513a2.46,2.46,0,0,0-3.4-1.387c-1.755.854-2.281,3.352-1.1,5.777a7.019,7.019,0,0,0,1.781,2.34s1.906,8.465,2.235,9.95a20.773,20.773,0,0,0,2.977,6.25.25.25,0,0,0,.44-.1,19.355,19.355,0,0,0,.348-6.8c-.151-.828-1.038-5.067-1.038-5.067a5.221,5.221,0,0,0,4.995.1c5.258-2.563,6.507-9.1,3.378-15.53-2.359-4.857-8.682-7.381-14.932-4.338-7.788,3.786-9,11.272-6.737,15.925C356.757,142.474,359.025,144.485,361.765,144.282Z" transform="translate(-153.187 -111.603)" fill="#fff"/>
      <path id="Path_55004" data-name="Path 55004" d="M427.822,279.179h0A18.4,18.4,0,0,1,417.195,255.4h0a18.4,18.4,0,0,1,23.772-10.634h0a18.4,18.4,0,0,1,10.627,23.779h0a18.4,18.4,0,0,1-23.772,10.634Z" transform="translate(-174.302 -153.128)" fill="#aa43d1"/>
      <path id="Path_55005" data-name="Path 55005" d="M446.825,269.5a9.918,9.918,0,0,0-18.448-7.23c-.059.131-.112.269-.164.4a9.741,9.741,0,0,0-.486,5.258l-3.556,4.292,5.757.329a9.918,9.918,0,0,0,16.812-2.8,2.4,2.4,0,0,0,.085-.25Zm-12.3,4.423a8.282,8.282,0,0,1-3.792-2.918l-3.358-.191,2.07-2.5a8.2,8.2,0,0,1,.243-5.1c.1-.25.21-.5.329-.736a8.34,8.34,0,0,1,15.458,6.073c-.059.21-.125.414-.2.618A8.314,8.314,0,0,1,434.521,273.925Z" transform="translate(-177.11 -157.528)" fill="#fff" fill-rule="evenodd"/>
      <path id="Path_55006" data-name="Path 55006" d="M445.911,271.955c-.191-.2-1.091-1.17-1.275-1.314s-.316-.25-.552-.079-.874.506-1.058.6-.329.066-.513-.131a6.63,6.63,0,0,1-1.4-1.821,7.23,7.23,0,0,1-.657-2.037c-.039-.276.118-.355.276-.421s.329-.177.493-.263l.125-.079a2.328,2.328,0,0,0,.243-.217.427.427,0,0,0,.138-.4c0-.131-.046-1.42-.066-1.939s-.237-.519-.368-.572-.276-.131-.427-.184a.9.9,0,0,0-.716.046,2.734,2.734,0,0,0-1.512,1.584,3.062,3.062,0,0,0-.177.808,5.428,5.428,0,0,0,.217,1.873,10.023,10.023,0,0,0,2.576,4.883c1.959,1.788,2.083,1.485,2.517,1.6a2.412,2.412,0,0,0,1.972-.486,1.972,1.972,0,0,0,.546-1.019A2.973,2.973,0,0,0,445.911,271.955Z" transform="translate(-182.007 -159.811)" fill="#fff" fill-rule="evenodd"/>
      <path id="Path_55007" data-name="Path 55007" d="M62.305,153.59h0A14.045,14.045,0,0,1,48.26,139.545h0A14.045,14.045,0,0,1,62.305,125.5h0A14.045,14.045,0,0,1,76.35,139.545h0A14.045,14.045,0,0,1,62.305,153.59Z" transform="translate(-48.26 -112.663)" fill="#aa43d1"/>
      <path id="Path_55008" data-name="Path 55008" d="M58.25,148.381a8.741,8.741,0,0,0,13.434-7.755,6.3,6.3,0,0,0,1.518-1.571,6.343,6.343,0,0,1-1.768.486,3.089,3.089,0,0,0,1.367-1.676,6.007,6.007,0,0,1-1.972.743,3.076,3.076,0,0,0-5.258,2.806,8.735,8.735,0,0,1-6.329-3.214,3.082,3.082,0,0,0,.953,4.1,3.023,3.023,0,0,1-1.393-.381,3.076,3.076,0,0,0,2.465,3.05,3.069,3.069,0,0,1-1.387.053,3.076,3.076,0,0,0,2.866,2.129A6.171,6.171,0,0,1,58.25,148.381Z" transform="translate(-51.684 -116.813)" fill="#fff"/>
      <path id="Path_55009" data-name="Path 55009" d="M92.471,382.718h0A24.186,24.186,0,0,1,63.356,364.8h0A24.186,24.186,0,0,1,81.3,335.653h0a24.186,24.186,0,0,1,29.135,17.923h0a24.186,24.186,0,0,1-17.962,29.142Z" transform="translate(-53.208 -184.47)" fill="#455a64"/>
      <path id="Path_55010" data-name="Path 55010" d="M89.532,353.788c3.444-.822,3.858-.907,5.258-1.17a7.348,7.348,0,0,1,2.5-.125A4.135,4.135,0,0,1,99,353.1a4.226,4.226,0,0,1,1.314,1.255,7.374,7.374,0,0,1,1.012,2.287c.388,1.347.5,1.755,1.314,5.2s.9,3.858,1.163,5.258a7.177,7.177,0,0,1,.125,2.5,3.944,3.944,0,0,1-.611,1.715,4.134,4.134,0,0,1-1.249,1.314,7.432,7.432,0,0,1-2.294,1.012c-1.314.388-1.748.5-5.192,1.314s-3.858.907-5.258,1.17a7.228,7.228,0,0,1-2.5.125,4.074,4.074,0,0,1-1.715-.611,4,4,0,0,1-1.275-1.295,7.27,7.27,0,0,1-1.019-2.287c-.381-1.347-.493-1.748-1.314-5.192s-.907-3.858-1.17-5.258a7.571,7.571,0,0,1-.125-2.5,4.364,4.364,0,0,1,1.867-3.03,7.341,7.341,0,0,1,2.287-1.019c1.314-.381,1.755-.493,5.2-1.314m-.552-2.327c-3.5.835-3.943.953-5.3,1.347a9.608,9.608,0,0,0-2.99,1.314,6.809,6.809,0,0,0-2.872,4.666,9.76,9.76,0,0,0,.145,3.286c.269,1.387.355,1.834,1.19,5.337s.953,3.943,1.314,5.3a9.536,9.536,0,0,0,1.314,2.99,6.513,6.513,0,0,0,2.07,1.978,6.441,6.441,0,0,0,2.629.94,9.721,9.721,0,0,0,3.286-.145c1.387-.263,1.834-.355,5.337-1.19s3.943-.953,5.3-1.314a9.858,9.858,0,0,0,2.99-1.314,6.513,6.513,0,0,0,1.932-2.031,6.618,6.618,0,0,0,.946-2.629,9.754,9.754,0,0,0-.151-3.286c-.263-1.393-.355-1.834-1.19-5.337s-.953-3.943-1.314-5.3a9.925,9.925,0,0,0-1.314-2.99,6.494,6.494,0,0,0-2.031-1.926,6.4,6.4,0,0,0-2.629-.946,9.721,9.721,0,0,0-3.286.145c-1.393.269-1.834.355-5.337,1.19" transform="translate(-58.373 -189.643)" fill="#fff"/>
      <path id="Path_55011" data-name="Path 55011" d="M94.371,361.633a6.809,6.809,0,1,0,8.2,5.047,6.809,6.809,0,0,0-8.2-5.047M97,372.563a4.423,4.423,0,1,1,2.749-1.984A4.423,4.423,0,0,1,97,372.563" transform="translate(-62.272 -193.539)" fill="#fff"/>
      <path id="Path_55012" data-name="Path 55012" d="M108.2,357.639a1.584,1.584,0,1,1-.712-.993,1.59,1.59,0,0,1,.712.993" transform="translate(-67.731 -191.812)" fill="#fff"/>
      <path id="Path_55013" data-name="Path 55013" d="M380.925,363.456h0a11.278,11.278,0,0,1-11.285-11.278h0A11.278,11.278,0,0,1,380.925,340.9h0a11.278,11.278,0,0,1,11.3,11.278h0a11.278,11.278,0,0,1-11.3,11.278Z" transform="translate(-158.419 -186.496)" fill="#455a64"/>
      <path id="Path_55014" data-name="Path 55014" d="M383.439,361.328h2.747v-6.855H388.1l.21-2.3h-2.123v-1.314c0-.539.112-.756.657-.756h1.492V347.71H386.43c-2.044,0-2.964.9-2.964,2.629v1.84H382v2.294h1.426Z" transform="translate(-162.656 -188.83)" fill="#fff"/>
    </g>
    <g id="freepik--Device--inject-96" transform="translate(114.833 50.462)">
      <path id="Path_55015" data-name="Path 55015" d="M270.722,330.978l-90.626-.033a19.717,19.717,0,0,1-19.717-19.717l.039-227.192A19.717,19.717,0,0,1,180.176,64.32l90.619.053a19.717,19.717,0,0,1,19.717,19.717l-.039,227.139a19.717,19.717,0,0,1-19.75,19.75Z" transform="translate(-160.38 -64.32)" fill="#263238"/>
      <path id="Path_55016" data-name="Path 55016" d="M273.819,76.5H256.244a4.371,4.371,0,0,0-4.265,4.443v3.188a4.358,4.358,0,0,1-4.265,4.456H213.465A4.364,4.364,0,0,1,209.2,84.12V80.913a4.377,4.377,0,0,0-4.265-4.463H183.371a13.8,13.8,0,0,0-13.835,13.8l-.046,221.756a13.8,13.8,0,0,0,13.8,13.8l90.448.053a13.8,13.8,0,0,0,13.8-13.8L287.588,90.3A13.8,13.8,0,0,0,273.819,76.5Z" transform="translate(-163.503 -68.478)" fill="#fff"/>
      <path id="Path_55017" data-name="Path 55017" d="M324.917,103.892c0,.059-2.287.125-5.1.145s-5.107,0-5.107-.059,2.281-.131,5.1-.151S324.917,103.833,324.917,103.892Z" transform="translate(-213.28 -77.859)" fill="#263238"/>
      <path id="Path_55018" data-name="Path 55018" d="M324.947,107.861c0,.059-2.281.125-5.1.151s-5.107,0-5.107-.066,2.287-.125,5.107-.151S324.947,107.8,324.947,107.861Z" transform="translate(-213.29 -79.219)" fill="#263238"/>
      <path id="Path_55019" data-name="Path 55019" d="M324.983,111.831c0,.059-2.287.131-5.107.151s-5.1,0-5.107-.066,2.287-.125,5.107-.151S324.983,111.772,324.983,111.831Z" transform="translate(-213.3 -80.58)" fill="#263238"/>
      <path id="Path_55020" data-name="Path 55020" d="M184,110.222h1.012l2.747-.066-.079.072c0-.6,0-1.268-.033-1.972v-1.144a1.058,1.058,0,0,1,.92-.848h1.314a1.071,1.071,0,0,1,.9,1.058c0,.933,0,1.9.033,2.9l-.125-.125h3.464l-.131.131c0-1.393,0-2.839-.039-4.318v-1.1a1.1,1.1,0,0,0-.486-.815l-1.512-1.5-1.466-1.439-.7-.7c-.243-.237-.434-.48-.716-.539a.94.94,0,0,0-.8.151c-.21.177-.434.427-.657.657L186.4,101.9c-.782.808-1.6,1.551-2.189,2.254a2.471,2.471,0,0,0-.171,1.314v4.443a3.647,3.647,0,0,1,0,.453,3.737,3.737,0,0,1,0-.414V108.7c0-.493,0-1.229-.046-1.972v-1.906a1.433,1.433,0,0,1,.191-.723c.657-.782,1.406-1.479,2.2-2.313l1.236-1.268c.223-.217.4-.434.657-.657a1.176,1.176,0,0,1,1.006-.2,1.926,1.926,0,0,1,.835.6l.71.7,1.466,1.439,1.518,1.485a3.029,3.029,0,0,1,.388.421,1.137,1.137,0,0,1,.184.585q0,.552,0,1.1c0,1.479,0,2.925.033,4.318v.131h-3.838v-3.03a.835.835,0,0,0-.7-.841H188.61a.848.848,0,0,0-.743.657v3.155h-3.6A1.506,1.506,0,0,1,184,110.222Z" transform="translate(-168.473 -76.421)" fill="#263238"/>
      <path id="Path_55021" data-name="Path 55021" d="M262.393,379.321a5.492,5.492,0,0,1-.953.066l-2.589.053c-2.182.033-5.205.053-8.544.053s-6.362,0-8.544-.053l-2.589-.053a5.588,5.588,0,0,1-.953-.066,4.841,4.841,0,0,1,.953-.066l2.59-.059c2.182,0,5.205-.046,8.544-.046s6.355,0,8.544.046l2.589.059A4.765,4.765,0,0,1,262.393,379.321Z" transform="translate(-187.061 -172.234)" fill="#455a64"/>
      <path id="Path_55022" data-name="Path 55022" d="M300.358,388.361c0,.1-13.914.171-31.074.171s-31.074-.072-31.074-.171,13.914-.171,31.074-.171S300.358,388.269,300.358,388.361Z" transform="translate(-187.058 -175.333)" fill="#455a64"/>
      <path id="Path_55023" data-name="Path 55023" d="M280.937,396.911c0,.1-9.563.171-21.36.171s-21.367-.072-21.367-.171,9.563-.171,21.367-.171S280.937,396.793,280.937,396.911Z" transform="translate(-187.058 -178.263)" fill="#455a64"/>
      <path id="Path_55024" data-name="Path 55024" d="M332.673,410.582l-1.932-1.939-1.84,1.834V404.93h3.766ZM330.74,408.4l.059.059,1.7,1.709v-5.061h-3.424v4.962Z" transform="translate(-218.144 -181.071)" fill="#263238"/>
      <path id="Path_55025" data-name="Path 55025" d="M254.726,410.5l-.657-.3a1.742,1.742,0,1,1,.526-.381Zm-1.584-3.694a1.768,1.768,0,0,0,.033,3.529,1.881,1.881,0,0,0,.848-.269h0l.506.223-.118-.493h0a1.761,1.761,0,0,0-1.314-2.951Z" transform="translate(-191.612 -181.715)" fill="#263238"/>
      <path id="Path_55026" data-name="Path 55026" d="M261.9,410.32l-.776-1.906L259.66,407.1h3.549Zm-1.913-3.109,1.249,1.144.657,1.623,1.117-2.793Z" transform="translate(-194.41 -181.814)" fill="#263238"/>
      <rect id="Rectangle_12789" data-name="Rectangle 12789" width="2.313" height="0.131" transform="translate(66.785 226.503) rotate(-33.05)" fill="#263238"/>
      <path id="Path_55027" data-name="Path 55027" d="M245.634,407.2a2.429,2.429,0,0,1-3.23-.877,1.1,1.1,0,0,0-1.1.909,1.492,1.492,0,0,0,.269,1.071,4.336,4.336,0,0,0,.776.815c.4.348.762.657,1.157,1.025.394-.355.723-.69,1.117-1.045a4.337,4.337,0,0,0,.762-.828A1.459,1.459,0,0,0,245.634,407.2Z" transform="translate(-188.113 -181.549)" fill="#aa43d1"/>
      <path id="Path_55028" data-name="Path 55028" d="M285.783,402.549V400.13c0-1.584,0-3.943-.033-6.94,0-6.04-.033-14.827-.059-25.849l.112.112-105.1.059h0l.171-.171v35.208l-.164-.164,75.207.072,21.951.046h.1l-21.919.046-75.319.079h-.171V367.17h.184l105.1.059h.112v.112c0,11.048-.046,19.861-.059,25.921v8.689A1.27,1.27,0,0,1,285.783,402.549Z" transform="translate(-167.297 -168.128)" fill="#263238"/>
      <rect id="Rectangle_12790" data-name="Rectangle 12790" width="23.279" height="29.115" transform="matrix(0.006, -1, 1, 0.006, 17.625, 228.379)" fill="#ebebeb"/>
      <path id="Path_55029" data-name="Path 55029" d="M216.3,376.428h-8.123l-21.031-.046.158-.151c-.033,6.934-.072,14.873-.112,23.273.033.046-.322-.322-.171-.171h7.92l7.558.046,13.631.1-.138.145c.066-6.993.125-12.79.171-16.865,0-2.024.046-3.615.059-4.725V399.76h-.145l-13.631-.053-7.558-.039h-7.92l-.177-.177c.059-8.406.105-16.345.151-23.273v-.158h.158l21.1.191,5.915.079h1.952Z" transform="translate(-169.433 -171.175)" fill="#263238"/>
      <rect id="Rectangle_12791" data-name="Rectangle 12791" width="20.348" height="27.071" transform="matrix(0.006, -1, 1, 0.006, 18.639, 226.919)" fill="#e0e0e0"/>
      <path id="Path_55030" data-name="Path 55030" d="M188.72,402.993l9.53-12.592,5.81,7.946,4-4.206,7.736,9.011Z" transform="translate(-170.094 -176.09)" fill="#f5f5f5"/>
      <path id="Path_55031" data-name="Path 55031" d="M213.7,387a2.129,2.129,0,1,1-.617-1.512A2.136,2.136,0,0,1,213.7,387Z" transform="translate(-177.193 -174.191)" fill="#f5f5f5"/>
      <path id="Path_55032" data-name="Path 55032" d="M246.124,146.8a.947.947,0,0,1-.315,0l-.887.033-3.286.059c-2.767,0-6.572.046-10.818.046s-8.051,0-10.818-.046l-3.286-.059-.894-.033a.881.881,0,0,1-.309,0,1.143,1.143,0,0,1,.309-.033h.894l3.286-.053c2.767-.033,6.572-.053,10.818-.053s8.051,0,10.818.053l3.286.053h.887A1.228,1.228,0,0,1,246.124,146.8Z" transform="translate(-179.277 -92.544)" fill="#263238"/>
      <path id="Path_55033" data-name="Path 55033" d="M324.606,338.273l-2.865-2.879L319,338.122V329.88h5.6Zm-2.865-3.234.085.085,2.53,2.537v-7.519h-5.1v7.374Z" transform="translate(-214.75 -155.346)" fill="#263238"/>
      <path id="Path_55034" data-name="Path 55034" d="M213.241,337.542l-1.314-.6a3.391,3.391,0,1,1,1.032-.743Zm-3.135-7.262a3.47,3.47,0,0,0,.059,6.94,3.608,3.608,0,0,0,1.669-.526l.059-.033.986.44-.223-.973.046-.046a3.464,3.464,0,0,0-2.6-5.8Z" transform="translate(-176.245 -155.483)" fill="#263238"/>
      <path id="Path_55035" data-name="Path 55035" d="M227.487,337.1l-1.538-3.753-2.879-2.629,6.993-.053Zm-3.766-6.132,2.458,2.254,1.314,3.194,2.2-5.494Z" transform="translate(-181.868 -155.617)" fill="#263238"/>
      <rect id="Rectangle_12792" data-name="Rectangle 12792" width="4.548" height="0.256" transform="translate(44.243 177.521) rotate(-33.05)" fill="#263238"/>
      <path id="Path_55036" data-name="Path 55036" d="M195.468,331.091a2.162,2.162,0,0,0-4.265.138,2.162,2.162,0,0,0-4.265-.072,2.925,2.925,0,0,0,.532,2.1A8.877,8.877,0,0,0,189,334.87c.782.657,1.5,1.314,2.281,2.018.762-.7,1.42-1.354,2.189-2.057a8.853,8.853,0,0,0,1.505-1.63A2.931,2.931,0,0,0,195.468,331.091Z" transform="translate(-169.474 -155.163)" fill="#aa43d1"/>
      <circle id="Ellipse_1196" data-name="Ellipse 1196" cx="4.745" cy="4.745" r="4.745" transform="translate(20.611 49.509)" fill="#ebebeb"/>
      <path id="Path_55037" data-name="Path 55037" d="M278.478,301.161c0,.1-19.888.177-44.416.177s-44.422-.079-44.422-.177,19.888-.171,44.422-.171S278.478,301.069,278.478,301.161Z" transform="translate(-170.409 -145.443)" fill="#455a64"/>
      <path id="Path_55038" data-name="Path 55038" d="M278.478,289.911c0,.092-19.888.171-44.416.171s-44.422-.079-44.422-.171,19.888-.171,44.422-.171S278.478,289.819,278.478,289.911Z" transform="translate(-170.409 -141.587)" fill="#455a64"/>
      <path id="Path_55039" data-name="Path 55039" d="M237.992,312.571c0,.092-10.825.171-24.173.171s-24.18-.079-24.18-.171,10.825-.171,24.18-.171S237.992,312.479,237.992,312.571Z" transform="translate(-170.409 -149.354)" fill="#455a64"/>
      <path id="Path_55040" data-name="Path 55040" d="M252.166,434.286a1.9,1.9,0,1,1-.54-1.353A1.893,1.893,0,0,1,252.166,434.286Z" transform="translate(-190.544 -190.473)" fill="#263238"/>
      <path id="Path_55041" data-name="Path 55041" d="M261.033,434.326a1.893,1.893,0,1,1-.538-1.355,1.886,1.886,0,0,1,.538,1.355Z" transform="translate(-193.588 -190.487)" fill="#263238"/>
      <path id="Path_55042" data-name="Path 55042" d="M269.963,434.366a1.9,1.9,0,1,1-.54-1.353A1.886,1.886,0,0,1,269.963,434.366Z" transform="translate(-196.649 -190.5)" fill="#263238"/>
      <rect id="Rectangle_12793" data-name="Rectangle 12793" width="105.111" height="64.277" transform="translate(14.006 63.64)" fill="#e0e0e0"/>
      <path id="Path_55043" data-name="Path 55043" d="M196.46,237.955l30.114-40.315,18.678,25.211L257.9,209.365l24.824,28.563Z" transform="translate(-172.747 -110.018)" fill="#f5f5f5"/>
      <path id="Path_55044" data-name="Path 55044" d="M275.652,186.569a6.8,6.8,0,1,1-6.8-6.789,6.8,6.8,0,0,1,6.8,6.789Z" transform="translate(-195.233 -103.896)" fill="#f5f5f5"/>
      <path id="Path_55045" data-name="Path 55045" d="M286.3,273.92c0-1.374-.066-59.44-.158-145.406l.158.158H181.2l.171-.171V273.907l-.145-.138,105.111.138-105.111.145h-.138v-.145c0-40.7,0-91.026-.033-145.406v-.171H286.5v.151c-.033,43.029-.059,79.393-.079,105.012,0,12.79-.033,22.891-.039,29.805v9.911A2.589,2.589,0,0,1,286.3,273.92Z" transform="translate(-167.468 -86.261)" fill="#263238"/>
    </g>
    <g id="freepik--Megaphone--inject-96" transform="translate(71.888 89.07)">
      <path id="Path_55046" data-name="Path 55046" d="M243.806,358.685l2.327-7.814c.408-1.7.946-3.694,1.669-5.974a16.2,16.2,0,0,1,3.851-5.757c2.373-2.412,3.5-2.425,5.094-3.707.145-.092.309-.23.447-.3a2.5,2.5,0,0,0,.776-.657c1.374-1.485.053-3.792-2.741-3.569-2.1.164-5.527.762-11.1,6.513-.072.092-.145.164-.21.25-2.925,3.805-5.672-7.052-6.171-11.094a4.226,4.226,0,0,0-5.724-3.286l-13.578,6.349a6.355,6.355,0,0,0-3.943.131,4.048,4.048,0,0,0-2.589,4.791l5.514,21.958L201.25,410.344h34.866Z" transform="translate(-131.444 -191.593)" fill="#ffbe9d"/>
      <path id="Path_55047" data-name="Path 55047" d="M274.892,298.131l-10.779,21.123-5.389-1.5-27.078,22.037a5.481,5.481,0,0,1-7.617-.657L213.71,327.155s20.8-8.958,24.646-16.372-.6-9.1-.6-9.1l9.786-11.12Z" transform="translate(-135.715 -180.476)" fill="#aa43d1"/>
      <path id="Path_55048" data-name="Path 55048" d="M220.235,197.578s-15.774-3.49-37.981-24.837-32.632-49.72-35.32-49.562-14.584-5.37-37.153,43.719-13.677,60.465-9.2,60.4,34.978-8.59,54.024-6.428,43.528,12.093,43.528,12.093Z" transform="translate(-95.038 -123.063)" fill="#aa43d1"/>
      <path id="Path_55049" data-name="Path 55049" d="M305.739,258.38l-5.383,10.233-2.412,4.6a13.355,13.355,0,0,1-17.41,5.915L246.72,267.345l19.717-44.955,33.782,18a13.355,13.355,0,0,1,5.521,17.988Z" transform="translate(-147.03 -157.109)" fill="#aa43d1"/>
      <g id="Group_1420" data-name="Group 1420" transform="translate(99.69 65.281)" opacity="0.4">
        <path id="Path_55050" data-name="Path 55050" d="M305.739,258.38l-5.383,10.233-2.412,4.6a13.355,13.355,0,0,1-17.41,5.915L246.72,267.345l19.717-44.955,33.782,18a13.355,13.355,0,0,1,5.521,17.988Z" transform="translate(-246.72 -222.39)"/>
      </g>
      <path id="Path_55051" data-name="Path 55051" d="M113.112,168.372C101.1,194.963,96.1,218.663,101.939,221.3s20.315-16.779,32.323-43.377,17.009-50.285,11.173-52.927S125.119,141.78,113.112,168.372Z" transform="translate(-96.568 -123.643)" fill="#aa43d1"/>
      <g id="Group_1421" data-name="Group 1421" transform="translate(2.933 1.111)" opacity="0.5">
        <path id="Path_55052" data-name="Path 55052" d="M113.112,168.372C101.1,194.963,96.1,218.663,101.939,221.3s20.315-16.779,32.323-43.377,17.009-50.285,11.173-52.927S125.119,141.78,113.112,168.372Z" transform="translate(-99.501 -124.754)"/>
      </g>
      <path id="Path_55053" data-name="Path 55053" d="M336.158,292.527l-9.168-2.879,5.672-10.779,6.875,4.272Z" transform="translate(-174.544 -176.469)" fill="#aa43d1"/>
      <g id="Group_1422" data-name="Group 1422" transform="translate(152.446 102.401)" opacity="0.6">
        <path id="Path_55054" data-name="Path 55054" d="M332.662,278.87l-5.672,10.779,1.886.591,4.607-10.864Z" transform="translate(-326.99 -278.87)"/>
      </g>
      <path id="Path_55055" data-name="Path 55055" d="M315.6,277.944c-.131.3-4.706-1.479-10.213-3.943s-9.858-4.752-9.734-5.048,4.706,1.485,10.22,3.976S315.734,277.648,315.6,277.944Z" transform="translate(-163.8 -173.059)" fill="#aa43d1"/>
      <path id="Path_55056" data-name="Path 55056" d="M320.927,268.246c-.145.289-4.285-1.452-9.247-3.9s-8.866-4.66-8.721-4.956,4.279,1.452,9.241,3.9S321.071,267.95,320.927,268.246Z" transform="translate(-166.305 -169.782)" fill="#aa43d1"/>
      <path id="Path_55057" data-name="Path 55057" d="M311.114,288.655c-.046.158-1.137-.092-2.872-.657-.868-.269-1.9-.611-3.036-1s-2.3-1.006-3.556-1.577c-5.015-2.327-8.846-4.6-8.721-4.877s4.246,1.505,9.2,3.812c1.249.565,2.405,1.183,3.5,1.636s2.07.854,2.892,1.222C310.161,287.972,311.16,288.5,311.114,288.655Z" transform="translate(-162.868 -177.033)" fill="#aa43d1"/>
      <path id="Path_55058" data-name="Path 55058" d="M145.271,181.114s-13.71-8.5-21.209,10.023,6.921,21.57,6.921,21.57a123.317,123.317,0,0,0,14.288-31.593Z" transform="translate(-104.246 -142.293)" fill="#aa43d1"/>
      <g id="Group_1423" data-name="Group 1423" transform="translate(16.294 16.738)" opacity="0.5">
        <path id="Path_55059" data-name="Path 55059" d="M159.146,148.53a20.055,20.055,0,0,1-.532,3.542c-.421,2.267-1.052,5.547-1.932,9.582l-1.906,6.487q-.519,1.742-1.071,3.608l-.559,1.886c-.2.657-.473,1.255-.71,1.893l-3.1,7.992c-.269.7-.546,1.393-.815,2.1s-.657,1.374-.966,2.07l-2.037,4.206-2.044,4.2c-.348.657-.657,1.393-1.032,2.037s-.769,1.314-1.144,1.939l-4.371,7.381c-.355.578-.657,1.176-1.052,1.729l-1.137,1.61-2.182,3.076-3.943,5.5c-2.629,3.174-4.824,5.678-6.336,7.42a21.536,21.536,0,0,1-2.451,2.629,21.239,21.239,0,0,1,2.1-2.9c1.459-1.86,3.516-4.463,6.04-7.663l3.779-5.54,2.116-3.082c.368-.526.736-1.065,1.111-1.61s.657-1.144,1.019-1.729l4.318-7.374,1.124-1.932c.388-.657.657-1.314,1.019-2.024l2.024-4.173c.657-1.413,1.36-2.8,2.031-4.173.315-.657.7-1.354.96-2.051l.822-2.077,3.142-7.887c.243-.657.519-1.242.73-1.873s.388-1.249.578-1.867l1.117-3.569,2.018-6.408,2.281-9.464a21.214,21.214,0,0,1,.986-3.483Z" transform="translate(-119.83 -148.53)"/>
      </g>
      <g id="Group_1424" data-name="Group 1424" transform="translate(81.268 126.392)" opacity="0.4">
        <path id="Path_55060" data-name="Path 55060" d="M218.69,334.188a26.512,26.512,0,0,0,4.377,6.395,9.027,9.027,0,0,0,7,2.806c2.629-.263,5.028-2.405,5.054-4.995a3.232,3.232,0,0,0,4.16-.736,7.258,7.258,0,0,0,1.479-4.318,4.074,4.074,0,0,0,5.146-1.387,6.664,6.664,0,0,0,.657-5.626,19.828,19.828,0,0,0-2.7-5.172,7.144,7.144,0,0,0,3.825-.388c1.157-.585,1.972-2.123,1.268-3.227a3.174,3.174,0,0,0-1.886-1.2,11.913,11.913,0,0,0-5.567-.9c-.486,0,.848,5.573-12.409,13.184C221.227,333.123,218.69,334.188,218.69,334.188Z" transform="translate(-218.69 -315.373)"/>
      </g>
      <path id="Path_55061" data-name="Path 55061" d="M257.09,356.035c0,.059-.887-.112-2.32-.072a13.145,13.145,0,0,0-9.74,4.673c-.927,1.091-1.314,1.886-1.4,1.853a2.025,2.025,0,0,1,.256-.578,11.5,11.5,0,0,1,.953-1.433,12.487,12.487,0,0,1,9.931-4.758,10.011,10.011,0,0,1,1.709.158A1.8,1.8,0,0,1,257.09,356.035Z" transform="translate(-145.971 -202.81)" fill="#eb996e"/>
      <path id="Path_55062" data-name="Path 55062" d="M220,332.5c2.136,2.051,3.6,4.318,5.836,6.382,1.019.94,2.629,2.714,3.943,2.951s2.235.059,2.774-1.216c.44-1.032-.348-2.445-.887-3.286-1.426-2.241-2.793-3.989-3.858-5.731-.506-.815.145-.986.381-.6,1.025,1.065,2.563,1.972,3.483,3.148,1.262,1.584,1.485,3.694,4.785,3.023a2.878,2.878,0,0,0,1.222-.506,3.3,3.3,0,0,0,.776-3.943,10.726,10.726,0,0,0-1.84-2.773c1.406,1.584,2.938,3.286,5.172,3.431a3.069,3.069,0,0,0,3.122-1.689c.657-1.5-.283-2.951-1.236-4.121a43.166,43.166,0,0,0-5.606-5.731,4.292,4.292,0,0,0-2.721-1.006c-1.157,0-2.629.21-3.286,1.209a4.5,4.5,0,0,0-.9,3.437s-2.892-1.466-5.218.066a7.4,7.4,0,0,0-2.9,4.18Z" transform="translate(-137.871 -190.851)" fill="#ffbe9d"/>
      <path id="Path_55063" data-name="Path 55063" d="M243.012,316.593a3.47,3.47,0,0,1-.407-3.943c.493-.966,1.111-1.906,1.742-2.116,2.754-.927,14.794,1.157,14.683,3.825s-.992,3.943-7.519,3c-1.15-.164-2.951-.388-2.951-.388l-1.577,2.366Z" transform="translate(-145.471 -187.245)" fill="#ffbe9d"/>
      <path id="Path_55064" data-name="Path 55064" d="M243.271,333.754a15.7,15.7,0,0,0-6.631-6.014,3.825,3.825,0,0,1,1.275.447,11.443,11.443,0,0,1,4.785,4.338,3.675,3.675,0,0,1,.572,1.229Z" transform="translate(-143.575 -193.22)" fill="#eb996e"/>
      <path id="Path_55065" data-name="Path 55065" d="M247.743,323.174c-.059.053-.854-.591-1.939-1.255a14.1,14.1,0,0,0-1.406-.782c-.375-.171-.624-.217-.618-.27s.283-.079.7.046a6.373,6.373,0,0,1,1.512.716A4.566,4.566,0,0,1,247.743,323.174Z" transform="translate(-146.022 -190.849)" fill="#eb996e"/>
      <path id="Path_55066" data-name="Path 55066" d="M250.677,319.78a5.145,5.145,0,0,1-2.32-.263,4.284,4.284,0,0,1-1.485-.8c-.329-.283-.467-.513-.434-.545a9.855,9.855,0,0,0,2.018,1A17.3,17.3,0,0,1,250.677,319.78Z" transform="translate(-146.932 -189.94)" fill="#eb996e"/>
      <path id="Path_55067" data-name="Path 55067" d="M230.1,338.8a8.541,8.541,0,0,1-1.1-1.426,12.769,12.769,0,0,0-2.806-3.194,5.645,5.645,0,0,0-3.983-1.052,6.758,6.758,0,0,0-1.676.532,1.731,1.731,0,0,1,.388-.3,3.668,3.668,0,0,1,1.249-.473A5.613,5.613,0,0,1,226.4,333.9a11.383,11.383,0,0,1,2.813,3.332A10.7,10.7,0,0,1,230.1,338.8Z" transform="translate(-138.056 -194.958)" fill="#eb996e"/>
      <path id="Path_55068" data-name="Path 55068" d="M243.948,382.42a36.8,36.8,0,0,1-4.916.7,35.645,35.645,0,0,1-4.962.368,37.027,37.027,0,0,1,4.923-.7A36.811,36.811,0,0,1,243.948,382.42Z" transform="translate(-142.694 -211.963)" fill="#eb996e"/>
    </g>
    <g id="freepik--Stars--inject-96" transform="translate(41.44 40.945)">
      <path id="Path_55069" data-name="Path 55069" d="M405.537,49.84l.743,1.36,1.354.743-1.354.743-.743,1.354-.743-1.354-1.354-.743,1.354-.743Z" transform="translate(-170.301 -49.84)" fill="#aa43d1"/>
      <path id="Path_55070" data-name="Path 55070" d="M429.143,101.01l.743,1.36,1.354.743-1.354.743-.743,1.354-.743-1.354-1.36-.743,1.36-.743Z" transform="translate(-178.39 -67.38)" fill="#aa43d1"/>
      <path id="Path_55071" data-name="Path 55071" d="M50.807,237.53l.743,1.36,1.36.743-1.36.736-.743,1.36-.743-1.36-1.354-.736,1.354-.743Z" transform="translate(-48.71 -114.174)" fill="#aa43d1"/>
      <path id="Path_55072" data-name="Path 55072" d="M373.134,62.56l1.715,3.135,3.135,1.715-3.135,1.709-1.715,3.135-1.709-3.135L368.29,67.41l3.135-1.715Z" transform="translate(-158.252 -54.2)" fill="#aa43d1"/>
      <path id="Path_55073" data-name="Path 55073" d="M70.537,205.1l1.709,3.122,3.128,1.709-3.128,1.715-1.709,3.122-1.709-3.122L65.7,209.931l3.128-1.709Z" transform="translate(-54.534 -103.058)" fill="#aa43d1"/>
      <path id="Path_55074" data-name="Path 55074" d="M434.137,318.56l1.709,3.128,3.122,1.709-3.122,1.709-1.709,3.128-1.709-3.128L429.3,323.4l3.128-1.709Z" transform="translate(-179.165 -141.949)" fill="#aa43d1"/>
    </g>
  </g>
</svg>
