<svg xmlns="http://www.w3.org/2000/svg" width="408.364" height="304.28" viewBox="0 0 408.364 304.28">
  <g id="Printing_invoices-rafiki" data-name="Printing invoices-rafiki" transform="translate(0 -55)">
    <g id="freepik--background-complete--inject-18" transform="translate(0 55)">
      <rect id="Rectangle_13084" data-name="Rectangle 13084" width="408.364" height="0.204" transform="translate(0 267.397)" fill="#ebebeb"/>
      <path id="Path_58111" data-name="Path 58111" d="M200.567,285.971H42.865a4.664,4.664,0,0,1-4.655-4.664V59.623A4.664,4.664,0,0,1,42.865,55h157.7a4.664,4.664,0,0,1,4.664,4.664V281.307A4.664,4.664,0,0,1,200.567,285.971ZM42.865,55.163a4.459,4.459,0,0,0-4.451,4.459V281.307a4.459,4.459,0,0,0,4.451,4.459h157.7a4.468,4.468,0,0,0,4.459-4.459V59.623a4.468,4.468,0,0,0-4.459-4.459Z" transform="translate(-7.003 -55)" fill="#ebebeb"/>
      <path id="Path_58112" data-name="Path 58112" d="M416.874,285.971H259.163a4.672,4.672,0,0,1-4.664-4.664V59.623A4.672,4.672,0,0,1,259.163,55h157.71a4.664,4.664,0,0,1,4.647,4.623V281.307A4.664,4.664,0,0,1,416.874,285.971ZM259.163,55.163a4.467,4.467,0,0,0-4.459,4.459V281.307a4.468,4.468,0,0,0,4.459,4.459h157.71a4.468,4.468,0,0,0,4.459-4.459V59.623a4.468,4.468,0,0,0-4.459-4.459Z" transform="translate(-46.643 -55)" fill="#ebebeb"/>
      <rect id="Rectangle_13085" data-name="Rectangle 13085" width="21.235" height="0.204" transform="translate(346.211 280.538)" fill="#ebebeb"/>
      <rect id="Rectangle_13086" data-name="Rectangle 13086" width="36.777" height="0.204" transform="translate(254.002 282.759)" fill="#ebebeb"/>
      <rect id="Rectangle_13087" data-name="Rectangle 13087" width="49.649" height="0.204" transform="translate(295.745 272.959)" fill="#ebebeb"/>
      <rect id="Rectangle_13088" data-name="Rectangle 13088" width="15.706" height="0.204" transform="translate(42.846 274.331)" fill="#ebebeb"/>
      <rect id="Rectangle_13089" data-name="Rectangle 13089" width="45.157" height="0.204" transform="translate(65.828 274.331)" fill="#ebebeb"/>
      <rect id="Rectangle_13090" data-name="Rectangle 13090" width="60.822" height="0.204" transform="translate(138.574 277.777)" fill="#ebebeb"/>
      <rect id="Rectangle_13091" data-name="Rectangle 13091" width="164.121" height="117.821" transform="translate(63.296 24.829)" fill="#fafafa"/>
      <path id="Path_58113" data-name="Path 58113" d="M131.38,203.219,159.524,85.39h31.33L162.71,203.219Z" transform="translate(-24.078 -60.57)" fill="#fff"/>
      <path id="Path_58114" data-name="Path 58114" d="M206.3,203.219,234.444,85.39H245.87L217.726,203.219Z" transform="translate(-37.809 -60.57)" fill="#fff"/>
      <path id="Path_58115" data-name="Path 58115" d="M118.14,203.219,146.293,85.39h4.288L122.436,203.219Z" transform="translate(-21.652 -60.57)" fill="#fff"/>
      <path id="Path_58116" data-name="Path 58116" d="M247.5,80.43H67.755a.735.735,0,0,0-.735.735h0a.727.727,0,0,0,.735.727H247.5a.735.735,0,0,0,.735-.727h0A.743.743,0,0,0,247.5,80.43Z" transform="translate(-12.283 -59.661)" fill="#e0e0e0"/>
      <rect id="Rectangle_13092" data-name="Rectangle 13092" width="6.999" height="118.327" transform="translate(149.584 142.903) rotate(180)" fill="#f0f0f0"/>
      <rect id="Rectangle_13093" data-name="Rectangle 13093" width="0.784" height="118.327" transform="translate(150.368 142.903) rotate(180)" fill="#e0e0e0"/>
      <rect id="Rectangle_13094" data-name="Rectangle 13094" width="1.944" height="166.392" transform="translate(62.161 84.711) rotate(-90)" fill="#f0f0f0"/>
      <path id="Path_58117" data-name="Path 58117" d="M242.5,202.148h0V84H76.11V202.148h0v1.911H242.5Zm-164.448,0V85.952H240.583v116.2Z" transform="translate(-13.949 -60.315)" fill="#f0f0f0"/>
      <rect id="Rectangle_13095" data-name="Rectangle 13095" width="0.972" height="120.092" transform="translate(229.525 143.777) rotate(180)" fill="#e0e0e0"/>
      <path id="Path_58118" data-name="Path 58118" d="M244.39,78.25V273.938h41.024L277.892,78.25Z" transform="translate(-44.79 -59.261)" fill="#ebebeb" opacity="0.5"/>
      <path id="Path_58119" data-name="Path 58119" d="M209.53,78.25V273.938h41.024L243.032,78.25Z" transform="translate(-38.401 -59.261)" fill="#ebebeb" opacity="0.5"/>
      <path id="Path_58120" data-name="Path 58120" d="M87.757,78.25V273.938H62.52L67.151,78.25Z" transform="translate(-11.458 -59.261)" fill="#ebebeb" opacity="0.5"/>
      <path id="Path_58121" data-name="Path 58121" d="M109.207,78.25V273.938H83.97L88.593,78.25Z" transform="translate(-15.389 -59.261)" fill="#ebebeb" opacity="0.5"/>
      <rect id="Rectangle_13096" data-name="Rectangle 13096" width="18.107" height="124.355" transform="translate(171.799 267.388) rotate(180)" fill="#e6e6e6"/>
      <path id="Path_58122" data-name="Path 58122" d="M194.559,377.1H188.18V353.46h13.059Z" transform="translate(-34.488 -109.699)" fill="#f0f0f0"/>
      <rect id="Rectangle_13097" data-name="Rectangle 13097" width="18.107" height="124.355" transform="translate(363.313 267.388) rotate(180)" fill="#e6e6e6"/>
      <rect id="Rectangle_13098" data-name="Rectangle 13098" width="197.076" height="117.903" transform="translate(350.768 260.944) rotate(180)" fill="#f0f0f0"/>
      <path id="Path_58123" data-name="Path 58123" d="M420.171,377.1h6.379V353.46H413.49Z" transform="translate(-75.781 -109.699)" fill="#f0f0f0"/>
      <rect id="Rectangle_13099" data-name="Rectangle 13099" width="97.534" height="58.421" transform="translate(285.798 250.335) rotate(-90)" fill="#e6e6e6"/>
      <path id="Path_58124" data-name="Path 58124" d="M375.642,245.17H387.2a19.6,19.6,0,0,0,13.255-4.99H362.37A19.6,19.6,0,0,0,375.642,245.17Z" transform="translate(-66.412 -88.938)" fill="#f0f0f0"/>
      <rect id="Rectangle_13100" data-name="Rectangle 13100" width="97.534" height="58.421" transform="translate(223.024 250.335) rotate(-90)" fill="#e6e6e6"/>
      <path id="Path_58125" data-name="Path 58125" d="M298.027,245.17h11.557a19.6,19.6,0,0,0,13.272-4.99H284.78a19.6,19.6,0,0,0,13.247,4.99Z" transform="translate(-52.192 -88.938)" fill="#f0f0f0"/>
      <rect id="Rectangle_13101" data-name="Rectangle 13101" width="97.534" height="58.421" transform="translate(160.25 250.335) rotate(-90)" fill="#e6e6e6"/>
      <path id="Path_58126" data-name="Path 58126" d="M221.192,245.17h11.557a19.6,19.6,0,0,0,13.272-4.99h-38.1a19.6,19.6,0,0,0,13.272,4.99Z" transform="translate(-38.106 -88.938)" fill="#f0f0f0"/>
      <path id="Path_58127" data-name="Path 58127" d="M422.531,202.51H362.51s.547,15.469,17.756,20.573v1.993h24.5v-1.993C422,217.979,422.531,202.51,422.531,202.51Z" transform="translate(-66.438 -82.035)" fill="#e6e6e6"/>
      <rect id="Rectangle_13102" data-name="Rectangle 13102" width="78.512" height="84.074" transform="translate(261.32 22.411)" fill="#f0f0f0"/>
      <rect id="Rectangle_13103" data-name="Rectangle 13103" width="2.597" height="84.074" transform="translate(342.438 106.477) rotate(180)" fill="#e0e0e0"/>
      <rect id="Rectangle_13104" data-name="Rectangle 13104" width="51.96" height="69.651" transform="translate(274.6 29.615)" fill="#fff"/>
    </g>
    <g id="freepik--Shadow--inject-18" transform="translate(45.827 340.789)">
      <ellipse id="freepik--path--inject-18" cx="158.355" cy="9.245" rx="158.355" ry="9.245" fill="#f5f5f5"/>
    </g>
    <g id="freepik--Character--inject-18" transform="translate(226.472 95.036)">
      <path id="Path_58128" data-name="Path 58128" d="M366.257,408.844l-6.648-.106-.449-15.428,6.648.106Z" transform="translate(-292.296 -157.039)" fill="#ff8b7b"/>
      <path id="Path_58129" data-name="Path 58129" d="M357.187,406.82l7.261.114a.555.555,0,0,1,.539.466l.964,5.929a1.013,1.013,0,0,1-1.021,1.168c-2.622-.082-6.395-.294-9.686-.351-3.847-.057-.817.1-5.325,0-2.728-.049-3.324-2.818-2.164-3.046,5.26-1.062,5.529-2.238,7.808-3.814a2.768,2.768,0,0,1,1.625-.466Z" transform="translate(-290.102 -159.515)" fill="#ba6dd7"/>
      <path id="Path_58130" data-name="Path 58130" d="M328.294,167.572c-.572,2.254-1.233,4.3-1.919,6.436s-1.454,4.19-2.254,6.272a89.772,89.772,0,0,1-5.823,12.251c-.278.506-.6,1-.907,1.495l-.474.743-.229.376c-.073.114-.212.294-.31.441a15.8,15.8,0,0,1-2.989,3.2,21.807,21.807,0,0,1-6.91,3.692,32.3,32.3,0,0,1-7.008,1.47c-1.16.131-2.32.18-3.471.2a32.416,32.416,0,0,1-3.52-.139l-.131-5a45.164,45.164,0,0,0,11.148-3.8,16.187,16.187,0,0,0,4.084-2.957,8.167,8.167,0,0,0,1.209-1.633l.131-.229.172-.327.343-.653c.221-.433.457-.817.662-1.315a109.634,109.634,0,0,0,4.631-11.336c.7-1.952,1.348-3.928,2.009-5.9s1.258-4.018,1.838-5.9Z" transform="translate(-280.051 -115.187)" fill="#ff8b7b"/>
      <path id="Path_58131" data-name="Path 58131" d="M292.587,206.517l-7.547-.817.359,7.579s5.717,1.388,8.1-2.973Z" transform="translate(-278.712 -122.655)" fill="#ff8b7b"/>
      <path id="Path_58132" data-name="Path 58132" d="M277.4,209.066l1.4,3.267a1.5,1.5,0,0,0,1.348.907l3.83.09-.359-7.579-5.137,1.217a1.56,1.56,0,0,0-1.078,2.1Z" transform="translate(-277.292 -122.664)" fill="#ff8b7b"/>
      <path id="Path_58133" data-name="Path 58133" d="M359.16,393.31l.229,7.955,6.648.106-.229-7.955Z" transform="translate(-292.296 -157.039)" opacity="0.2"/>
      <path id="Path_58134" data-name="Path 58134" d="M326.267,157.311c-3.569,4.484-6.82,13.068-8.167,17.968,3.961,6.591,11.72,5.439,11.72,5.439s6.419-5.08,8.518-11.156S332.572,149.38,326.267,157.311Z" transform="translate(-284.771 -113.354)" fill="#ba6dd7"/>
      <path id="Path_58135" data-name="Path 58135" d="M369.057,157.5c1.576,11.483-.817,26.421,1,48.187l-35.56,2.254c-6.468-27.614-7.163-39.2-7.849-46.823a6.975,6.975,0,0,1,4.3-7.065c8.38-3.471,22.754-3.986,32.628-2.246A6.689,6.689,0,0,1,369.057,157.5Z" transform="translate(-286.332 -112.601)" fill="#ba6dd7"/>
      <path id="Path_58136" data-name="Path 58136" d="M345.058,168.35a9.123,9.123,0,0,0-7.808,4.312h16.514A11.565,11.565,0,0,0,345.058,168.35Z" transform="translate(-288.28 -115.81)" fill="#fff"/>
      <path id="Path_58137" data-name="Path 58137" d="M353.969,174.39h-17.38a10.709,10.709,0,0,0-.939,2.45h19.757A13.234,13.234,0,0,0,353.969,174.39Z" transform="translate(-287.987 -116.917)" fill="#fff"/>
      <path id="Path_58138" data-name="Path 58138" d="M355.685,178.35h-20.3a12.123,12.123,0,0,0-.18,2.205H356.33A14.013,14.013,0,0,0,355.685,178.35Z" transform="translate(-287.906 -117.643)" fill="#fff"/>
      <path id="Path_58139" data-name="Path 58139" d="M344.654,195.583h7.253a8.919,8.919,0,0,0,2.328-1.413H342a11.639,11.639,0,0,0,2.654,1.413Z" transform="translate(-289.151 -120.542)" fill="#fff"/>
      <path id="Path_58140" data-name="Path 58140" d="M339.465,191.823h15.591a10.277,10.277,0,0,0,.972-1.633H338.15a13.931,13.931,0,0,0,1.315,1.633Z" transform="translate(-288.445 -119.813)" fill="#fff"/>
      <path id="Path_58141" data-name="Path 58141" d="M336.914,188.065h19.307a10.744,10.744,0,0,0,.408-1.8h-20.5A13.685,13.685,0,0,0,336.914,188.065Z" transform="translate(-288.075 -119.092)" fill="#fff"/>
      <path id="Path_58142" data-name="Path 58142" d="M356.5,182.3H335.269a1.727,1.727,0,0,0,0,.2,13.238,13.238,0,0,0,.319,1.8H356.57a12.24,12.24,0,0,0-.065-1.8A1.734,1.734,0,0,0,356.5,182.3Z" transform="translate(-287.917 -118.367)" fill="#fff"/>
      <path id="Path_58143" data-name="Path 58143" d="M354.392,131.14l-9.6,8.478c1.38,3.6,1.936,7.481-3.536,9.2a1.249,1.249,0,0,0-.711.564c-1.29,2.238-1.56,5.717,4.467,5.178a18.336,18.336,0,0,0,11.8-5.717,1.176,1.176,0,0,0,.082-1.633C353.625,143.693,353.845,135.681,354.392,131.14Z" transform="translate(-288.745 -108.99)" fill="#ff8b7b"/>
      <path id="Path_58144" data-name="Path 58144" d="M351.587,135.37l-5.717,5.023a13.971,13.971,0,0,1,.817,2.63c2.287-.433,5.243-2.883,5.284-5.047a6.591,6.591,0,0,0-.384-2.605Z" transform="translate(-289.86 -109.766)" opacity="0.2"/>
      <path id="Path_58145" data-name="Path 58145" d="M335.389,116.57c-2.107,2.908-.719,9.646.817,10.707C340.126,125.44,339.408,114.912,335.389,116.57Z" transform="translate(-287.743 -106.288)" fill="#263238"/>
      <path id="Path_58146" data-name="Path 58146" d="M353.677,120.023c0,6.591.278,10.446-2.859,14.04-4.712,5.4-13.019,2.924-14.962-3.528-1.748-5.807-1.4-15.608,4.9-18.646a8.927,8.927,0,0,1,12.921,8.135Z" transform="translate(-287.859 -105.289)" fill="#ff8b7b"/>
      <path id="Path_58147" data-name="Path 58147" d="M352.405,125.279c.964-2.205-4.247-.89-4.247-.89s-.817-7.057,1.421-9.8c-2.262,1.348-8.257,1.307-9.5,0-2.524,1.274-5.872,1.633-8.012.172s-2.034-4.941-.653-6.6c1.756,1.633,4.247-.621,3.136-1.723,3.512-2.107,9.466-.964,10.617.245a1.944,1.944,0,0,1,.588-2.663s.694,2.671,2.8,2.556c3.724-.2,8.086,1.07,6.419,4.59,2.663.278,3.937,3.316,3.144,5.717s1.593,2.834,1.862,2.107c.9,1.691.18,2.7-1.38,3.316,4.084,4.721-4.623,6.158-6.24,9.229C352.348,131.5,351.237,127.966,352.405,125.279Z" transform="translate(-287.027 -104.02)" fill="#263238"/>
      <path id="Path_58148" data-name="Path 58148" d="M360.693,128.752a6.37,6.37,0,0,1-3.536,3.267c-2.074.76-3.267-1.045-2.818-3.079.4-1.838,1.968-4.443,4.084-4.32A2.8,2.8,0,0,1,360.693,128.752Z" transform="translate(-291.395 -107.794)" fill="#ff8b7b"/>
      <path id="Path_58149" data-name="Path 58149" d="M362.021,291.067c-2.14-33.486,2.017-72.517,2.017-72.517l-27.769,1.764c1.633,12.618,6.534,53.2,8.551,73.04,2.148,21.063,7.93,72.354,7.93,72.354l11.271.172S365.06,317.464,362.021,291.067Z" transform="translate(-288.101 -125.01)" fill="#263238"/>
      <path id="Path_58150" data-name="Path 58150" d="M366.393,292.892c0-.441-.041-.874-.065-1.315-.686-15.077-.229-30.831.449-43.327l-1.715,1.086c-7.3,10.822-2.614,31.183,1.429,45.573C366.459,294.24,366.418,293.562,366.393,292.892Z" transform="translate(-292.677 -130.453)" opacity="0.2"/>
      <path id="Path_58151" data-name="Path 58151" d="M355.15,395.9l.9,4.59,11.7.212.457-4.337Z" transform="translate(-291.561 -157.514)" fill="#263238"/>
      <path id="Path_58152" data-name="Path 58152" d="M345.974,125.151c0,.531-.229.988-.58,1.013s-.662-.392-.694-.931.229-.988.58-1.013S345.941,124.612,345.974,125.151Z" transform="translate(-289.645 -107.722)" fill="#263238"/>
      <path id="Path_58153" data-name="Path 58153" d="M336.913,125.871c0,.531-.229.988-.58,1s-.662-.392-.694-.923.229-.988.58-1.013S336.881,125.332,336.913,125.871Z" transform="translate(-287.985 -107.854)" fill="#263238"/>
      <path id="Path_58154" data-name="Path 58154" d="M340.211,125.77a19.348,19.348,0,0,1-2.311,4.745,3.112,3.112,0,0,0,2.589.31Z" transform="translate(-288.399 -108.006)" fill="#ff5652"/>
      <path id="Path_58155" data-name="Path 58155" d="M343.747,133.038a4.5,4.5,0,0,0,2.932-1.952.172.172,0,0,0-.057-.221.155.155,0,0,0-.212.065,4.353,4.353,0,0,1-3.373,1.878.155.155,0,0,0-.147.172.147.147,0,0,0,.163.147A5.952,5.952,0,0,0,343.747,133.038Z" transform="translate(-289.314 -108.937)" fill="#263238"/>
      <path id="Path_58156" data-name="Path 58156" d="M347.716,120.96a.262.262,0,0,0,.139-.074.3.3,0,0,0,.041-.441,3.112,3.112,0,0,0-2.638-1.127.327.327,0,0,0-.278.351.31.31,0,0,0,.351.27h0a2.491,2.491,0,0,1,2.115.915.3.3,0,0,0,.27.106Z" transform="translate(-289.697 -106.822)" fill="#263238"/>
      <path id="Path_58157" data-name="Path 58157" d="M334.924,122.25a.335.335,0,0,0,.253-.163,2.54,2.54,0,0,1,1.854-1.339.319.319,0,1,0-.041-.629,3.2,3.2,0,0,0-2.369,1.633.319.319,0,0,0,.122.425A.36.36,0,0,0,334.924,122.25Z" transform="translate(-287.792 -106.969)" fill="#263238"/>
      <path id="Path_58158" data-name="Path 58158" d="M410.646,409.434l-6.664-.1L400.87,393.9l6.656.106Z" transform="translate(-299.94 -157.147)" fill="#ff8b7b"/>
      <path id="Path_58159" data-name="Path 58159" d="M409.932,406.985l-7.244-.065a.368.368,0,0,0-.4.449l.89,5.938a1.519,1.519,0,0,0,1.388,1.2c2.6,0,3.373-.212,6.656-.18,3.839,0,2.1.147,6.6.188,2.728,0,2.45-2.728,1.225-3.006-3.9-.866-5.252-2.368-7.351-3.986A2.94,2.94,0,0,0,409.932,406.985Z" transform="translate(-300.198 -159.533)" fill="#ba6dd7"/>
      <path id="Path_58160" data-name="Path 58160" d="M400.87,393.91l1.6,7.947,6.664.106-1.6-7.955Z" transform="translate(-299.94 -157.149)" opacity="0.2"/>
      <path id="Path_58161" data-name="Path 58161" d="M387.981,290.467c-4.639-30.276-8.665-60.56-13.443-72.517L351,219.436s13.239,51.879,20,72.877c3.267,22.052,19.512,73.84,19.512,73.84l10.568-.466S392.653,320.743,387.981,290.467Z" transform="translate(-290.8 -124.9)" fill="#263238"/>
      <path id="Path_58162" data-name="Path 58162" d="M397.36,397.086l1.666,4.508,11.712-.376-.27-4.329Z" transform="translate(-299.297 -157.695)" fill="#263238"/>
      <path id="Path_58163" data-name="Path 58163" d="M376.536,161.86c.376.6.653,1.062.964,1.584s.564,1.013.817,1.527c.539,1.021,1.054,2.05,1.56,3.079a67.561,67.561,0,0,1,2.638,6.4,56.248,56.248,0,0,1,1.96,6.722l.376,1.731.3,1.764c.106.58.163,1.184.229,1.78l.1.9.049.449v.449a6.688,6.688,0,0,1-.482,2.867,9.032,9.032,0,0,1-.727,1.437,12.458,12.458,0,0,1-1.486,1.9,25.571,25.571,0,0,1-2.9,2.589,54.353,54.353,0,0,1-5.807,3.839,89.086,89.086,0,0,1-12.039,5.8l-2.369-4.394c3.414-2.524,6.91-5.056,10.152-7.661a60.426,60.426,0,0,0,4.574-3.961,16.261,16.261,0,0,0,1.74-1.936,4.971,4.971,0,0,0,.433-.711c.057-.114-.074-.155-.163.564v.343l-.074-.351-.147-.711c-.09-.474-.18-.947-.31-1.421l-.359-1.413-.417-1.421c-.58-1.887-1.241-3.765-2-5.627s-1.584-3.716-2.45-5.537c-.441-.907-.89-1.821-1.364-2.7l-.719-1.323-.678-1.225Z" transform="translate(-292.398 -114.62)" fill="#ff8b7b"/>
      <path id="Path_58164" data-name="Path 58164" d="M361.184,210.2l-6.714.686,2.883,7.481s6.011-1.356,5.872-4.655Z" transform="translate(-291.436 -123.48)" fill="#ff8b7b"/>
      <path id="Path_58165" data-name="Path 58165" d="M348.82,216.415l1.462,2.45a2.287,2.287,0,0,0,2.85.931l3.128-1.282L353.378,211l-3.651,2.181a2.36,2.36,0,0,0-.907,3.234Z" transform="translate(-290.344 -123.626)" fill="#ff8b7b"/>
      <path id="Path_58166" data-name="Path 58166" d="M357.353,163.673c1.952,5.3,8.894,12.251,12.39,15.861,7.759-.1,12.953-7.751,12.953-7.751s-3.528-13.427-10.421-18.278C367.089,149.862,353.915,154.3,357.353,163.673Z" transform="translate(-291.861 -112.856)" fill="#ba6dd7"/>
    </g>
    <g id="freepik--Printer--inject-18" transform="translate(22.692 182.017)">
      <rect id="Rectangle_13105" data-name="Rectangle 13105" width="161.091" height="14.962" transform="translate(93.904 75.139)" fill="#263238"/>
      <rect id="Rectangle_13106" data-name="Rectangle 13106" width="45.729" height="14.962" transform="translate(209.267 75.139)" opacity="0.2"/>
      <rect id="Rectangle_13107" data-name="Rectangle 13107" width="9.646" height="80.799" transform="translate(93.904 90.101)" fill="#263238"/>
      <path id="Path_58167" data-name="Path 58167" d="M152.4,325.03l-9.637-2.091v-2.1H152.4Z" transform="translate(-48.856 -230.739)" opacity="0.2"/>
      <rect id="Rectangle_13108" data-name="Rectangle 13108" width="9.646" height="80.799" transform="translate(245.358 90.101)" fill="#263238"/>
      <rect id="Rectangle_13109" data-name="Rectangle 13109" width="9.646" height="80.799" transform="translate(245.358 90.101)" opacity="0.2"/>
      <rect id="Rectangle_13110" data-name="Rectangle 13110" width="9.646" height="80.799" transform="translate(209.267 90.101)" fill="#263238"/>
      <path id="Path_58168" data-name="Path 58168" d="M293.656,325.03l-9.646-2.091v-2.1h9.646Z" transform="translate(-74.743 -230.739)" opacity="0.2"/>
      <rect id="Rectangle_13111" data-name="Rectangle 13111" width="9.646" height="80.799" transform="translate(124.09 90.101)" fill="#263238"/>
      <rect id="Rectangle_13112" data-name="Rectangle 13112" width="9.646" height="80.799" transform="translate(124.09 90.101)" opacity="0.2"/>
      <path id="Path_58169" data-name="Path 58169" d="M290.453,210.52H169.684L158.96,257.482H279.729Z" transform="translate(-51.825 -210.52)" fill="#263238"/>
      <path id="Path_58170" data-name="Path 58170" d="M317.554,210.52h2.761l-10.724,46.962H306.83Z" transform="translate(-78.926 -210.52)"/>
      <rect id="Rectangle_13113" data-name="Rectangle 13113" width="193.671" height="56.354" rx="12" transform="translate(72.105 18.785)" fill="#ba6dd7"/>
      <rect id="Rectangle_13114" data-name="Rectangle 13114" width="41.857" height="56.354" rx="12" transform="translate(223.927 18.785)" opacity="0.2"/>
      <path id="Path_58171" data-name="Path 58171" d="M261.976,250.617H124.463a1.633,1.633,0,0,1-1.633-1.633h0a1.633,1.633,0,0,1,1.633-1.633H261.976a1.633,1.633,0,0,1,1.633,1.633h0A1.633,1.633,0,0,1,261.976,250.617Z" transform="translate(-45.203 -217.27)" opacity="0.2"/>
      <path id="Path_58172" data-name="Path 58172" d="M283.1,269.24h8.265a1.364,1.364,0,0,0,1.356-1.356h0a1.364,1.364,0,0,0-1.356-1.364H283.1a1.364,1.364,0,0,0-1.356,1.364h0A1.364,1.364,0,0,0,283.1,269.24Z" transform="translate(-74.327 -220.783)" fill="#fff"/>
      <path id="Path_58173" data-name="Path 58173" d="M283.1,276.33h8.265a1.364,1.364,0,0,0,1.356-1.364h0a1.364,1.364,0,0,0-1.356-1.356H283.1a1.364,1.364,0,0,0-1.356,1.356h0a1.364,1.364,0,0,0,1.356,1.364Z" transform="translate(-74.327 -222.083)" fill="#fff"/>
      <path id="Path_58174" data-name="Path 58174" d="M283.1,283.388h8.265a1.364,1.364,0,0,0,1.356-1.364h0a1.364,1.364,0,0,0-1.356-1.364H283.1a1.364,1.364,0,0,0-1.356,1.364h0a1.364,1.364,0,0,0,1.356,1.364Z" transform="translate(-74.327 -223.375)" fill="#fff"/>
      <path id="Path_58175" data-name="Path 58175" d="M159.162,243.753c1.593-13.778-8.29-24.943-22.052-24.943H237.723c13.778,0,23.685,11.165,22.052,24.943Z" transform="translate(-47.821 -212.039)" fill="#ba6dd7"/>
      <g id="Group_1487" data-name="Group 1487" transform="translate(89.289 6.771)" opacity="0.3">
        <path id="Path_58176" data-name="Path 58176" d="M159.162,243.753c1.593-13.778-8.29-24.943-22.052-24.943H237.723c13.778,0,23.685,11.165,22.052,24.943Z" transform="translate(-137.11 -218.81)" fill="#fff"/>
      </g>
      <path id="Path_58177" data-name="Path 58177" d="M128.252,218.81H228.881c-13.77,0-26.225,11.165-27.818,24.943l-11.434,99.094c-1.584,13.778-14.04,24.943-27.818,24.943H111.092c-13.778,0-23.685-11.165-22.052-24.943l11.434-99.094C102.043,229.975,114.473,218.81,128.252,218.81Z" transform="translate(-38.979 -212.039)" fill="#ba6dd7"/>
      <path id="Path_58178" data-name="Path 58178" d="M128.252,218.81H228.881c-13.77,0-26.225,11.165-27.818,24.943l-11.434,99.094c-1.584,13.778-14.04,24.943-27.818,24.943H111.092c-13.778,0-23.685-11.165-22.052-24.943l11.434-99.094C102.043,229.975,114.473,218.81,128.252,218.81Z" transform="translate(-38.979 -212.039)" fill="#fff" opacity="0.7"/>
      <path id="Path_58179" data-name="Path 58179" d="M128.573,370.68c-1.593,13.778,8.29,24.943,22.052,24.943H50.012c-13.778,0-23.685-11.165-22.052-24.943Z" transform="translate(-27.784 -239.873)" fill="#ba6dd7"/>
      <path id="Path_58180" data-name="Path 58180" d="M128.573,370.68c-1.593,13.778,8.29,24.943,22.052,24.943H50.012c-13.778,0-23.685-11.165-22.052-24.943Z" transform="translate(-27.784 -239.873)" fill="#fff" opacity="0.5"/>
      <path id="Path_58181" data-name="Path 58181" d="M111.8,259.9h2.369l-.882,7.645H110.92Z" transform="translate(-43.021 -219.57)" fill="#ba6dd7"/>
      <path id="Path_58182" data-name="Path 58182" d="M116.8,259.9h2.205l2.393,4.231.482-4.231h2.23l-.882,7.645h-2.222l-2.385-4.2-.482,4.2H115.92Z" transform="translate(-43.937 -219.57)" fill="#ba6dd7"/>
      <path id="Path_58183" data-name="Path 58183" d="M126.91,259.9h2.45l1.086,5.5,2.328-5.5h2.4l-3.724,7.645h-2.556Z" transform="translate(-45.951 -219.57)" fill="#ba6dd7"/>
      <path id="Path_58184" data-name="Path 58184" d="M136.639,263.7a4.443,4.443,0,0,1,1.38-2.916,4.361,4.361,0,0,1,3.022-1.045,3.593,3.593,0,0,1,2.826,1.029,3.545,3.545,0,0,1,.7,2.867,5.129,5.129,0,0,1-.711,2.2,3.765,3.765,0,0,1-1.454,1.339,5.4,5.4,0,0,1-4.271.065,2.769,2.769,0,0,1-1.225-1.307A4.165,4.165,0,0,1,136.639,263.7Zm2.36,0a2.4,2.4,0,0,0,.237,1.633,1.315,1.315,0,0,0,1.119.506,1.633,1.633,0,0,0,1.233-.5,3.079,3.079,0,0,0,.621-1.78,2.2,2.2,0,0,0-.253-1.576,1.339,1.339,0,0,0-1.127-.5,1.634,1.634,0,0,0-1.2.506,2.875,2.875,0,0,0-.629,1.715Z" transform="translate(-47.725 -219.538)" fill="#ba6dd7"/>
      <path id="Path_58185" data-name="Path 58185" d="M148.362,259.9h2.369l-.882,7.645H147.48Z" transform="translate(-49.721 -219.57)" fill="#ba6dd7"/>
      <path id="Path_58186" data-name="Path 58186" d="M157.934,264.385l1.993.629a4.394,4.394,0,0,1-.817,1.454,3.267,3.267,0,0,1-1.209.882,4.484,4.484,0,0,1-1.731.294,4.7,4.7,0,0,1-1.993-.359,2.761,2.761,0,0,1-1.217-1.274,4.084,4.084,0,0,1-.3-2.336,4.459,4.459,0,0,1,1.348-2.916,4.247,4.247,0,0,1,2.965-1.021,3.545,3.545,0,0,1,2.205.588,2.948,2.948,0,0,1,1.021,1.8l-2.14.457a1.339,1.339,0,0,0-.172-.506,1.119,1.119,0,0,0-.433-.417,1.3,1.3,0,0,0-.629-.147,1.568,1.568,0,0,0-1.3.645,3,3,0,0,0-.5,1.5,2.679,2.679,0,0,0,.188,1.74,1.16,1.16,0,0,0,1.029.474,1.478,1.478,0,0,0,1.07-.376,2.858,2.858,0,0,0,.621-1.111Z" transform="translate(-50.66 -219.539)" fill="#ba6dd7"/>
      <path id="Path_58187" data-name="Path 58187" d="M163.509,259.9h6.33l-.188,1.633h-3.969l-.139,1.217h3.675l-.18,1.56h-3.651l-.172,1.5H169.3l-.2,1.731H162.66Z" transform="translate(-52.503 -219.57)" fill="#ba6dd7"/>
      <path id="Path_58188" data-name="Path 58188" d="M192.615,291.52H107.3l1.111-9.67h85.315Z" transform="translate(-42.357 -223.593)" fill="#ba6dd7"/>
      <path id="Path_58189" data-name="Path 58189" d="M192.412,293.69H107.1l-.907,7.89h85.315Z" transform="translate(-42.154 -225.763)" fill="#fff" opacity="0.8"/>
      <path id="Path_58190" data-name="Path 58190" d="M198.714,355.324H172.75l.531-4.664h25.972Z" transform="translate(-54.352 -236.204)" fill="#ba6dd7"/>
      <path id="Path_58191" data-name="Path 58191" d="M198.615,356.37H172.651l-.441,3.814h25.964Z" transform="translate(-54.253 -237.25)" fill="#fff" opacity="0.8"/>
      <path id="Path_58192" data-name="Path 58192" d="M190.385,311.248H105.07l.915-7.9H191.3Z" transform="translate(-41.949 -227.533)" fill="#fff" opacity="0.5"/>
      <path id="Path_58193" data-name="Path 58193" d="M190.182,313.02H104.867l-.907,7.9h85.315Z" transform="translate(-41.745 -229.305)" fill="#fff" opacity="0.8"/>
      <path id="Path_58194" data-name="Path 58194" d="M188.164,330.58H102.84l.915-7.89H189.07Z" transform="translate(-41.54 -231.078)" fill="#fff" opacity="0.5"/>
      <path id="Path_58195" data-name="Path 58195" d="M187.96,332.35H102.637l-.907,7.9h85.315Z" transform="translate(-41.336 -232.848)" fill="#fff" opacity="0.8"/>
    </g>
  </g>
</svg>
