<svg xmlns="http://www.w3.org/2000/svg" width="416.041" height="310" viewBox="0 0 416.041 310">
  <g id="Source_code-rafiki" data-name="Source code-rafiki" transform="translate(0 -55)">
    <g id="freepik--background-complete--inject-14" transform="translate(0 55)">
      <rect id="Rectangle_12861" data-name="Rectangle 12861" width="416.04" height="0.208" transform="translate(0 272.423)" fill="#ebebeb"/>
      <rect id="Rectangle_12862" data-name="Rectangle 12862" width="27.559" height="0.208" transform="translate(346.795 285.811)" fill="#ebebeb"/>
      <rect id="Rectangle_12863" data-name="Rectangle 12863" width="7.231" height="0.208" transform="translate(268.371 288.075)" fill="#ebebeb"/>
      <rect id="Rectangle_12864" data-name="Rectangle 12864" width="15.968" height="0.208" transform="translate(329.995 278.09)" fill="#ebebeb"/>
      <rect id="Rectangle_12865" data-name="Rectangle 12865" width="35.938" height="0.208" transform="translate(43.651 279.488)" fill="#ebebeb"/>
      <rect id="Rectangle_12866" data-name="Rectangle 12866" width="5.267" height="0.208" transform="translate(87.002 279.488)" fill="#ebebeb"/>
      <rect id="Rectangle_12867" data-name="Rectangle 12867" width="77.949" height="0.208" transform="translate(109.394 282.999)" fill="#ebebeb"/>
      <path id="Path_56658" data-name="Path 56658" d="M203.619,290.312H42.953a4.751,4.751,0,0,1-4.743-4.751V59.71A4.751,4.751,0,0,1,42.953,55H203.619a4.751,4.751,0,0,1,4.751,4.751v225.81A4.751,4.751,0,0,1,203.619,290.312ZM42.953,55.166a4.543,4.543,0,0,0-4.535,4.543V285.561a4.543,4.543,0,0,0,4.535,4.543H203.619a4.552,4.552,0,0,0,4.543-4.543V59.71a4.551,4.551,0,0,0-4.543-4.543Z" transform="translate(-6.416 -55)" fill="#ebebeb"/>
      <path id="Path_56659" data-name="Path 56659" d="M419.926,290.312H259.251a4.76,4.76,0,0,1-4.751-4.751V59.71A4.76,4.76,0,0,1,259.251,55H419.926a4.751,4.751,0,0,1,4.735,4.71V285.561A4.751,4.751,0,0,1,419.926,290.312ZM259.251,55.166a4.551,4.551,0,0,0-4.543,4.543V285.561a4.551,4.551,0,0,0,4.543,4.543H419.926a4.552,4.552,0,0,0,4.543-4.543V59.71a4.552,4.552,0,0,0-4.543-4.543Z" transform="translate(-42.735 -55)" fill="#ebebeb"/>
      <rect id="Rectangle_12868" data-name="Rectangle 12868" width="59.286" height="201.122" transform="translate(79.472 32.776)" fill="#fafafa"/>
      <path id="Path_56660" data-name="Path 56660" d="M151.279,94.39h-3.461L127.14,295.512H130.6Z" transform="translate(-21.349 -61.614)" fill="#f5f5f5"/>
      <rect id="Rectangle_12869" data-name="Rectangle 12869" width="58.62" height="1.772" transform="translate(79.089 33.549)" fill="#e0e0e0"/>
      <rect id="Rectangle_12870" data-name="Rectangle 12870" width="58.62" height="3.794" transform="translate(79.089 232.134)" fill="#ebebeb"/>
      <rect id="Rectangle_12871" data-name="Rectangle 12871" width="55.392" height="0.166" transform="translate(81.344 235.762)" fill="#ebebeb"/>
      <path id="Path_56661" data-name="Path 56661" d="M97.09,94.82h55.392V297.032h3.312V92.34H93.77V297.032h3.32Z" transform="translate(-15.746 -61.27)" fill="#ebebeb"/>
      <rect id="Rectangle_12872" data-name="Rectangle 12872" width="59.286" height="201.122" transform="translate(145.439 32.776)" fill="#fafafa"/>
      <path id="Path_56662" data-name="Path 56662" d="M218.294,94.39H199.4L178.72,295.512h18.9Z" transform="translate(-30.011 -61.614)" fill="#f5f5f5"/>
      <rect id="Rectangle_12873" data-name="Rectangle 12873" width="60.284" height="1.772" transform="translate(145.065 33.549)" fill="#e0e0e0"/>
      <rect id="Rectangle_12874" data-name="Rectangle 12874" width="60.284" height="3.794" transform="translate(145.065 232.134)" fill="#ebebeb"/>
      <rect id="Rectangle_12875" data-name="Rectangle 12875" width="55.392" height="0.166" transform="translate(147.32 235.762)" fill="#ebebeb"/>
      <path id="Path_56663" data-name="Path 56663" d="M176.38,94.82h55.392V297.032h3.312V92.34H173.06V297.032h3.32Z" transform="translate(-29.06 -61.27)" fill="#ebebeb"/>
      <rect id="Rectangle_12876" data-name="Rectangle 12876" width="57.622" height="201.122" transform="translate(211.415 32.776)" fill="#fafafa"/>
      <path id="Path_56664" data-name="Path 56664" d="M288.449,94.39h-3.461L264.31,295.512h3.461Z" transform="translate(-44.383 -61.614)" fill="#f5f5f5"/>
      <rect id="Rectangle_12877" data-name="Rectangle 12877" width="58.62" height="1.772" transform="translate(211.041 33.549)" fill="#e0e0e0"/>
      <rect id="Rectangle_12878" data-name="Rectangle 12878" width="58.62" height="3.794" transform="translate(211.041 232.134)" fill="#ebebeb"/>
      <rect id="Rectangle_12879" data-name="Rectangle 12879" width="55.392" height="0.166" transform="translate(213.296 235.762)" fill="#ebebeb"/>
      <path id="Path_56665" data-name="Path 56665" d="M255.662,94.82h55.392V297.032h3.32V92.34H252.35V297.032h3.312Z" transform="translate(-42.374 -61.27)" fill="#ebebeb"/>
      <rect id="Rectangle_12880" data-name="Rectangle 12880" width="59.286" height="201.122" transform="translate(277.391 32.776)" fill="#fafafa"/>
      <path id="Path_56666" data-name="Path 56666" d="M389.662,94.39h-18.9L350.08,295.512h18.9Z" transform="translate(-58.785 -61.614)" fill="#f5f5f5"/>
      <rect id="Rectangle_12881" data-name="Rectangle 12881" width="58.62" height="1.772" transform="translate(277.008 33.549)" fill="#e0e0e0"/>
      <rect id="Rectangle_12882" data-name="Rectangle 12882" width="58.62" height="3.794" transform="translate(277.008 232.134)" fill="#ebebeb"/>
      <path id="Path_56667" data-name="Path 56667" d="M334.952,94.82h55.392V297.032h3.32V92.34H331.64V297.032h3.312Z" transform="translate(-55.689 -61.27)" fill="#ebebeb"/>
      <rect id="Rectangle_12883" data-name="Rectangle 12883" width="55.392" height="0.166" transform="translate(279.263 235.762)" fill="#ebebeb"/>
      <rect id="Rectangle_12884" data-name="Rectangle 12884" width="25.736" height="44.508" transform="translate(98.835 187.634)" fill="#ebebeb"/>
      <path id="Path_56668" data-name="Path 56668" d="M140.571,273.03v11.158H124.72V273.03Z" transform="translate(-20.943 -91.611)" fill="#ebebeb"/>
      <rect id="Rectangle_12885" data-name="Rectangle 12885" width="3.295" height="3.295" transform="translate(122.932 192.577) rotate(180)" fill="#fafafa"/>
      <rect id="Rectangle_12886" data-name="Rectangle 12886" width="3.295" height="3.295" transform="translate(116.55 192.577) rotate(180)" fill="#fafafa"/>
      <rect id="Rectangle_12887" data-name="Rectangle 12887" width="3.295" height="3.295" transform="translate(110.167 192.577) rotate(180)" fill="#fafafa"/>
      <rect id="Rectangle_12888" data-name="Rectangle 12888" width="3.295" height="3.295" transform="translate(103.777 192.577) rotate(180)" fill="#f0f0f0"/>
      <rect id="Rectangle_12889" data-name="Rectangle 12889" width="3.295" height="3.295" transform="translate(122.932 198.568) rotate(180)" fill="#f0f0f0"/>
      <rect id="Rectangle_12890" data-name="Rectangle 12890" width="3.295" height="3.295" transform="translate(116.55 198.568) rotate(180)" fill="#f0f0f0"/>
      <rect id="Rectangle_12891" data-name="Rectangle 12891" width="3.295" height="3.295" transform="translate(110.167 198.568) rotate(180)" fill="#fafafa"/>
      <rect id="Rectangle_12892" data-name="Rectangle 12892" width="3.295" height="3.295" transform="translate(103.777 198.568) rotate(180)" fill="#fafafa"/>
      <rect id="Rectangle_12893" data-name="Rectangle 12893" width="3.295" height="3.295" transform="translate(122.932 204.559) rotate(180)" fill="#f0f0f0"/>
      <rect id="Rectangle_12894" data-name="Rectangle 12894" width="3.295" height="3.295" transform="translate(116.55 204.559) rotate(180)" fill="#fafafa"/>
      <rect id="Rectangle_12895" data-name="Rectangle 12895" width="3.295" height="3.295" transform="translate(110.167 204.559) rotate(180)" fill="#fafafa"/>
      <rect id="Rectangle_12896" data-name="Rectangle 12896" width="3.295" height="3.295" transform="translate(116.55 187.401) rotate(180)" fill="#fafafa"/>
      <rect id="Rectangle_12897" data-name="Rectangle 12897" width="3.295" height="3.295" transform="translate(110.167 187.401) rotate(180)" fill="#f0f0f0"/>
      <rect id="Rectangle_12898" data-name="Rectangle 12898" width="3.295" height="3.295" transform="translate(103.777 204.559) rotate(180)" fill="#f0f0f0"/>
      <rect id="Rectangle_12899" data-name="Rectangle 12899" width="3.295" height="3.295" transform="translate(122.932 210.541) rotate(180)" fill="#fafafa"/>
      <rect id="Rectangle_12900" data-name="Rectangle 12900" width="3.295" height="3.295" transform="translate(116.55 210.541) rotate(180)" fill="#f0f0f0"/>
      <rect id="Rectangle_12901" data-name="Rectangle 12901" width="3.295" height="3.295" transform="translate(110.167 210.541) rotate(180)" fill="#f0f0f0"/>
      <rect id="Rectangle_12902" data-name="Rectangle 12902" width="3.295" height="3.295" transform="translate(103.777 210.541) rotate(180)" fill="#fafafa"/>
      <rect id="Rectangle_12903" data-name="Rectangle 12903" width="3.295" height="3.295" transform="translate(122.932 216.532) rotate(180)" fill="#f0f0f0"/>
      <rect id="Rectangle_12904" data-name="Rectangle 12904" width="3.295" height="3.295" transform="translate(116.55 216.532) rotate(180)" fill="#fafafa"/>
      <rect id="Rectangle_12905" data-name="Rectangle 12905" width="3.295" height="3.295" transform="translate(110.167 216.532) rotate(180)" fill="#fafafa"/>
      <rect id="Rectangle_12906" data-name="Rectangle 12906" width="3.295" height="3.295" transform="translate(103.777 216.532) rotate(180)" fill="#f0f0f0"/>
      <rect id="Rectangle_12907" data-name="Rectangle 12907" width="3.295" height="3.295" transform="translate(122.932 222.515) rotate(180)" fill="#f0f0f0"/>
      <rect id="Rectangle_12908" data-name="Rectangle 12908" width="3.295" height="3.295" transform="translate(116.55 222.515) rotate(180)" fill="#fafafa"/>
      <rect id="Rectangle_12909" data-name="Rectangle 12909" width="3.295" height="3.295" transform="translate(110.167 222.515) rotate(180)" fill="#f0f0f0"/>
      <rect id="Rectangle_12910" data-name="Rectangle 12910" width="3.295" height="3.295" transform="translate(103.777 222.515) rotate(180)" fill="#fafafa"/>
      <rect id="Rectangle_12911" data-name="Rectangle 12911" width="3.295" height="3.295" transform="translate(122.932 228.498) rotate(180)" fill="#fafafa"/>
      <rect id="Rectangle_12912" data-name="Rectangle 12912" width="3.295" height="3.295" transform="translate(116.55 228.498) rotate(180)" fill="#fafafa"/>
      <rect id="Rectangle_12913" data-name="Rectangle 12913" width="3.295" height="3.295" transform="translate(110.167 228.498) rotate(180)" fill="#f0f0f0"/>
      <rect id="Rectangle_12914" data-name="Rectangle 12914" width="3.295" height="3.295" transform="translate(103.777 228.498) rotate(180)" fill="#f0f0f0"/>
      <rect id="Rectangle_12915" data-name="Rectangle 12915" width="23.057" height="28.291" transform="translate(282.816 203.851)" fill="#f0f0f0"/>
      <path id="Path_56669" data-name="Path 56669" d="M342.31,303.76h8.312v2.954H342.31Z" transform="translate(-57.48 -96.772)" fill="#e6e6e6"/>
      <path id="Path_56670" data-name="Path 56670" d="M342.31,310.63h8.312v2.954H342.31Z" transform="translate(-57.48 -97.925)" fill="#fafafa"/>
      <path id="Path_56671" data-name="Path 56671" d="M342.31,317.5h8.312v2.954H342.31Z" transform="translate(-57.48 -99.079)" fill="#e6e6e6"/>
      <path id="Path_56672" data-name="Path 56672" d="M342.31,324.37h8.312v2.954H342.31Z" transform="translate(-57.48 -100.232)" fill="#fafafa"/>
      <path id="Path_56673" data-name="Path 56673" d="M355.2,303.76h8.312v2.954H355.2Z" transform="translate(-59.645 -96.772)" fill="#fafafa"/>
      <path id="Path_56674" data-name="Path 56674" d="M355.2,310.63h8.312v2.954H355.2Z" transform="translate(-59.645 -97.925)" fill="#fafafa"/>
      <path id="Path_56675" data-name="Path 56675" d="M355.2,317.5h8.312v2.954H355.2Z" transform="translate(-59.645 -99.079)" fill="#e6e6e6"/>
      <path id="Path_56676" data-name="Path 56676" d="M355.2,324.37h8.312v2.954H355.2Z" transform="translate(-59.645 -100.232)" fill="#fafafa"/>
      <rect id="Rectangle_12916" data-name="Rectangle 12916" width="20.952" height="17.582" transform="translate(173.822 214.56)" fill="#f0f0f0"/>
      <rect id="Rectangle_12917" data-name="Rectangle 12917" width="2.679" height="2.679" transform="translate(193.434 219.428) rotate(180)" fill="#fafafa"/>
      <rect id="Rectangle_12918" data-name="Rectangle 12918" width="2.679" height="2.679" transform="translate(188.233 219.428) rotate(180)" fill="#fafafa"/>
      <rect id="Rectangle_12919" data-name="Rectangle 12919" width="2.679" height="2.679" transform="translate(183.041 219.428) rotate(180)" fill="#fafafa"/>
      <rect id="Rectangle_12920" data-name="Rectangle 12920" width="2.679" height="2.679" transform="translate(177.849 219.428) rotate(180)" fill="#fafafa"/>
      <rect id="Rectangle_12921" data-name="Rectangle 12921" width="2.679" height="2.679" transform="translate(193.434 224.312) rotate(180)" fill="#fafafa"/>
      <rect id="Rectangle_12922" data-name="Rectangle 12922" width="2.679" height="2.679" transform="translate(188.233 224.312) rotate(180)" fill="#fafafa"/>
      <rect id="Rectangle_12923" data-name="Rectangle 12923" width="2.679" height="2.679" transform="translate(183.041 224.312) rotate(180)" fill="#fafafa"/>
      <rect id="Rectangle_12924" data-name="Rectangle 12924" width="2.679" height="2.679" transform="translate(177.849 224.312) rotate(180)" fill="#e6e6e6"/>
      <rect id="Rectangle_12925" data-name="Rectangle 12925" width="2.679" height="2.679" transform="translate(193.434 229.18) rotate(180)" fill="#e6e6e6"/>
      <rect id="Rectangle_12926" data-name="Rectangle 12926" width="2.679" height="2.679" transform="translate(188.233 229.18) rotate(180)" fill="#e6e6e6"/>
      <rect id="Rectangle_12927" data-name="Rectangle 12927" width="2.679" height="2.679" transform="translate(183.041 229.18) rotate(180)" fill="#fafafa"/>
      <rect id="Rectangle_12928" data-name="Rectangle 12928" width="2.679" height="2.679" transform="translate(177.849 229.18) rotate(180)" fill="#e6e6e6"/>
      <rect id="Rectangle_12929" data-name="Rectangle 12929" width="20.952" height="30.579" transform="translate(150.032 201.563)" fill="#f0f0f0"/>
      <rect id="Rectangle_12930" data-name="Rectangle 12930" width="7.88" height="7.555" transform="translate(161.765 202.903)" fill="#fafafa"/>
      <rect id="Rectangle_12931" data-name="Rectangle 12931" width="7.88" height="7.555" transform="translate(151.372 202.903)" fill="#fafafa"/>
      <rect id="Rectangle_12932" data-name="Rectangle 12932" width="7.88" height="7.555" transform="translate(161.765 212.647)" fill="#fafafa"/>
      <rect id="Rectangle_12933" data-name="Rectangle 12933" width="7.88" height="7.555" transform="translate(151.372 212.647)" fill="#fafafa"/>
      <rect id="Rectangle_12934" data-name="Rectangle 12934" width="7.88" height="7.555" transform="translate(161.765 222.399)" fill="#fafafa"/>
      <rect id="Rectangle_12935" data-name="Rectangle 12935" width="7.88" height="7.555" transform="translate(151.372 222.399)" fill="#fafafa"/>
    </g>
    <g id="freepik--Shadow--inject-14" transform="translate(46.688 346.162)">
      <ellipse id="freepik--path--inject-14" cx="161.332" cy="9.419" rx="161.332" ry="9.419" fill="#f5f5f5"/>
    </g>
    <g id="freepik--Plant--inject-14" transform="translate(322.564 278.004)">
      <path id="Path_56677" data-name="Path 56677" d="M409.861,379.842c0-.275-.915-27.159-5.275-31.394-4.2-4.086-9.053-.15-9.253,0l-.533-.641c.05-.042,5.625-4.585,10.368,0,4.593,4.468,5.492,30.845,5.525,31.969Z" transform="translate(-388.859 -326.829)" fill="#aa43d1"/>
      <path id="Path_56678" data-name="Path 56678" d="M413.27,383.844c-.125-1.315-3-32.343,8.712-45.764l.624.549c-11.466,13.164-8.537,44.833-8.5,45.149Z" transform="translate(-391.893 -325.539)" fill="#aa43d1"/>
      <path id="Path_56679" data-name="Path 56679" d="M411.569,379.946l-.832-.05c0-.366,2.288-36.337-6.257-44.2l.566-.616C413.891,343.218,411.677,378.456,411.569,379.946Z" transform="translate(-390.484 -325.035)" fill="#aa43d1"/>
      <path id="Path_56680" data-name="Path 56680" d="M414.182,383.159h-.832c0-.99.283-24.363,6.948-28.183a4.734,4.734,0,0,1,4.352-.416c4.044,1.664,6.041,8.828,6.124,9.153l-.832.216c0-.067-1.972-7.073-5.633-8.587a3.9,3.9,0,0,0-3.62.375C414.457,359.261,414.182,382.909,414.182,383.159Z" transform="translate(-391.974 -328.248)" fill="#aa43d1"/>
      <path id="Path_56681" data-name="Path 56681" d="M408.185,383.38l-.832-.05c0-.183,1-18.414-3.911-24.821-1.173-1.539-2.5-2.263-3.794-2.172-3.187.216-5.875,4.909-5.9,4.992l-.749-.416c.117-.208,2.929-5.126,6.565-5.375,1.664-.108,3.154.724,4.518,2.5C409.2,364.666,408.227,382.622,408.185,383.38Z" transform="translate(-388.557 -328.469)" fill="#aa43d1"/>
      <path id="Path_56682" data-name="Path 56682" d="M412.17,381.74c-.133-1.772-3.22-43.476,2.222-50.84l.674.491c-5.267,7.123-2.1,49.858-2.064,50.291Z" transform="translate(-391.609 -324.333)" fill="#aa43d1"/>
      <path id="Path_56683" data-name="Path 56683" d="M428.172,359.215s-3.253,1.207-2.288,4.036,11.275,7.489,11.275,7.489,4.31-3.952.349-10.384S428.264,357.185,428.172,359.215Z" transform="translate(-394.048 -328.643)" fill="#aa43d1"/>
      <path id="Path_56684" data-name="Path 56684" d="M428.172,359.215s-3.253,1.207-2.288,4.036,11.275,7.489,11.275,7.489,4.31-3.952.349-10.384S428.264,357.185,428.172,359.215Z" transform="translate(-394.048 -328.643)" fill="#fff" opacity="0.5"/>
      <path id="Path_56685" data-name="Path 56685" d="M409.973,353.006s3.47-.15,3.669,2.837-7.489,11.266-7.489,11.266-5.508-1.989-4.327-9.452S409.115,351.167,409.973,353.006Z" transform="translate(-390.011 -327.826)" fill="#aa43d1"/>
      <path id="Path_56686" data-name="Path 56686" d="M409.973,353.006s3.47-.15,3.669,2.837-7.489,11.266-7.489,11.266-5.508-1.989-4.327-9.452S409.115,351.167,409.973,353.006Z" transform="translate(-390.011 -327.826)" fill="#fff" opacity="0.5"/>
      <path id="Path_56687" data-name="Path 56687" d="M405.687,335.249s2.313-.25,2.13-1.664-8.995-5.034-14.187.832c0,0,3.328,5.716,8.138,5.825S405.687,335.249,405.687,335.249Z" transform="translate(-388.663 -324.38)" fill="#aa43d1"/>
      <path id="Path_56688" data-name="Path 56688" d="M405.687,335.249s2.313-.25,2.13-1.664-8.995-5.034-14.187.832c0,0,3.328,5.716,8.138,5.825S405.687,335.249,405.687,335.249Z" transform="translate(-388.663 -324.38)" fill="#fff" opacity="0.5"/>
      <path id="Path_56689" data-name="Path 56689" d="M412.751,330.49s-2.089,1.007-2.679-.283,4.992-9.028,12.481-6.8c0,0,.191,6.607-3.844,9.211S412.751,330.49,412.751,330.49Z" transform="translate(-391.416 -323.008)" fill="#aa43d1"/>
      <path id="Path_56690" data-name="Path 56690" d="M412.751,330.49s-2.089,1.007-2.679-.283,4.992-9.028,12.481-6.8c0,0,.191,6.607-3.844,9.211S412.751,330.49,412.751,330.49Z" transform="translate(-391.416 -323.008)" fill="#fff" opacity="0.5"/>
      <path id="Path_56691" data-name="Path 56691" d="M398.044,357.949s1.6-1.29-.125-1.914-10.176-.449-10.26,7.921c0,0,9.844,1.664,11.058-1.556S398.044,357.949,398.044,357.949Z" transform="translate(-387.66 -328.517)" fill="#aa43d1"/>
      <path id="Path_56692" data-name="Path 56692" d="M398.044,357.949s1.6-1.29-.125-1.914-10.176-.449-10.26,7.921c0,0,9.844,1.664,11.058-1.556S398.044,357.949,398.044,357.949Z" transform="translate(-387.66 -328.517)" fill="#fff" opacity="0.5"/>
      <path id="Path_56693" data-name="Path 56693" d="M424.052,335.387s-1.6-1.29.125-1.922,10.176-.449,10.26,7.921c0,0-9.844,1.664-11.058-1.548S424.052,335.387,424.052,335.387Z" transform="translate(-393.589 -324.727)" fill="#aa43d1"/>
      <path id="Path_56694" data-name="Path 56694" d="M424.052,335.387s-1.6-1.29.125-1.922,10.176-.449,10.26,7.921c0,0-9.844,1.664-11.058-1.548S424.052,335.387,424.052,335.387Z" transform="translate(-393.589 -324.727)" fill="#fff" opacity="0.5"/>
      <path id="Path_56695" data-name="Path 56695" d="M417.406,343.7s-.141-1.564,1.123-.949,5.675,5.367,1.107,9.877c0,0-6.149-4.551-5.042-6.923S417.406,343.7,417.406,343.7Z" transform="translate(-392.16 -326.299)" fill="#aa43d1"/>
      <path id="Path_56696" data-name="Path 56696" d="M417.406,343.7s-.141-1.564,1.123-.949,5.675,5.367,1.107,9.877c0,0-6.149-4.551-5.042-6.923S417.406,343.7,417.406,343.7Z" transform="translate(-392.16 -326.299)" fill="#fff" opacity="0.5"/>
      <path id="Path_56697" data-name="Path 56697" d="M397.044,346.316s.957-1.248-.441-1.4-7.663,1.514-6.207,7.763c0,0,7.63-.574,7.963-3.17S397.044,346.316,397.044,346.316Z" transform="translate(-388.083 -326.686)" fill="#aa43d1"/>
      <path id="Path_56698" data-name="Path 56698" d="M397.044,346.316s.957-1.248-.441-1.4-7.663,1.514-6.207,7.763c0,0,7.63-.574,7.963-3.17S397.044,346.316,397.044,346.316Z" transform="translate(-388.083 -326.686)" fill="#fff" opacity="0.5"/>
      <path id="Path_56699" data-name="Path 56699" d="M423.548,411.087H397.371L394.55,382.43h31.827Z" transform="translate(-388.817 -332.986)" fill="#263238"/>
      <path id="Path_56700" data-name="Path 56700" d="M423.548,411.087H397.371L394.55,382.43h31.827Z" transform="translate(-388.817 -332.986)" fill="#fff" opacity="0.2"/>
      <rect id="Rectangle_12936" data-name="Rectangle 12936" width="34.623" height="6.324" transform="translate(4.335 46.282)" fill="#263238"/>
      <rect id="Rectangle_12937" data-name="Rectangle 12937" width="34.623" height="6.324" transform="translate(4.335 46.282)" fill="#fff" opacity="0.4"/>
    </g>
    <g id="freepik--trash-bin--inject-14" transform="translate(54.768 318.387)">
      <path id="Path_56701" data-name="Path 56701" d="M96.343,395.058a2.03,2.03,0,0,0-1.664-2.9,4.31,4.31,0,0,0-1.365-4.718.982.982,0,0,0-.6-.266,1.174,1.174,0,0,0-.641.283L88.3,390.165a2.222,2.222,0,0,0-.749.749c-.774,1.5,2.014,3.412.832,4.651-.333.358-.832.424-1.273.682-.9.566-1.007,1.8-1.423,2.779s-1.889,1.731-2.446.832c.416-.932-.832-1.739-1.856-1.856s-2.072-.175-2.638-1.132c-1.439,1.265-4.668-2.255-4.593-3.669a2.8,2.8,0,0,0-2.255,2.313,16.641,16.641,0,0,0-.116,3.528c0,2.3-.782,4.543-.741,6.84,0,1.781.724,3.769,2.355,4.485a6.366,6.366,0,0,0,2.538.341l18.622-.116a2.912,2.912,0,0,0,1.415-.266c.832-.433,1.015-1.539,1.09-2.5q.5-6.066,1.007-12.14Z" transform="translate(-66.696 -374.165)" fill="#aa43d1"/>
      <path id="Path_56702" data-name="Path 56702" d="M96.343,395.058a2.03,2.03,0,0,0-1.664-2.9,4.31,4.31,0,0,0-1.365-4.718.982.982,0,0,0-.6-.266,1.174,1.174,0,0,0-.641.283L88.3,390.165a2.222,2.222,0,0,0-.749.749c-.774,1.5,2.014,3.412.832,4.651-.333.358-.832.424-1.273.682-.9.566-1.007,1.8-1.423,2.779s-1.889,1.731-2.446.832c.416-.932-.832-1.739-1.856-1.856s-2.072-.175-2.638-1.132c-1.439,1.265-4.668-2.255-4.593-3.669a2.8,2.8,0,0,0-2.255,2.313,16.641,16.641,0,0,0-.116,3.528c0,2.3-.782,4.543-.741,6.84,0,1.781.724,3.769,2.355,4.485a6.366,6.366,0,0,0,2.538.341l18.622-.116a2.912,2.912,0,0,0,1.415-.266c.832-.433,1.015-1.539,1.09-2.5q.5-6.066,1.007-12.14Z" transform="translate(-66.696 -374.165)" fill="#fff" opacity="0.3"/>
      <path id="Path_56703" data-name="Path 56703" d="M96.923,373H68l.241,2.921.166,2.08.441,5.425.25,3.112.333,4.16.15,1.772V393l.175,2.089.225,2.862.15,1.781.141,1.806.225,2.08.125,1.581.141,1.781.067.774h26.51l.058-.774.141-1.772.133-1.589.166-2.1.15-1.8.141-1.781.233-2.871.166-2.08v-.533l.141-1.772.341-4.16.25-3.1.433-5.433.175-2.08.233-2.921Zm1.739,1.914h0l-.557-.557h.6Zm-.15,1.772-.05.707-2.588,2.588-2.962-2.971,2.654-2.654h.624Zm-.741,9.244-1.9,1.889-2.962-2.962,2.962-2.962,2.047,2.055Zm-27.459-1.98h0l2.055-2.055,2.962,2.962-2.962,2.962-1.889-1.889Zm24.638-3.012L91.989,383.9l-2.971-2.962,2.937-2.946Zm-4.66-6.582h3.395l-1.664,1.664Zm.732,10.5-2.962,2.962L85.1,384.855l2.962-2.962Zm-9.885,3.952,2.971-2.954,2.954,2.954-2.954,2.971Zm2.005,3.927L80.173,395.7l-2.954-2.954,2.962-2.971Zm4.884-2.962,2.962,2.971L88.028,395.7l-2.962-2.962Zm-3.919-5.825-2.971-2.962,2.971-3,2.954,2.971Zm-.965.957-2.962,2.962-2.962-2.962,2.962-2.962Zm-6.89-.957-2.962-2.962,2.962-3,2.962,2.971Zm0,1.922,2.962,2.937-2.962,2.971-2.962-2.971Zm2.962,10.817-2.962,2.937-2.962-2.962,2.962-2.962Zm.957.957,2.971,2.971-2.962,2.962-2.962-2.962Zm.965-.957,2.971-2.962,2.954,2.962-2.954,2.937Zm6.89.957,2.962,2.971-2.962,2.962-2.962-2.962Zm3.927,3.927,2.962,2.962L92.962,406.4H90.907l-1.922-1.922Zm-2.971-4.884,2.971-2.962,2.962,2.962-2.962,2.937Zm0-7.855,2.971-2.954,2.962,2.954L91.956,391.8Zm2.005-11.766-2.962,2.971-2.962-2.971,2.654-2.654h.624Zm-6.881-.957-1.664-1.664h3.387Zm-.965.957-2.962,2.971-2.962-2.971,2.654-2.654h.607Zm-5.159-2.713-1.664,1.664-1.664-1.664Zm-5.309,0,2.654,2.654-2.962,2.971-2.579-2.588-.058-.707,2.322-2.33Zm-2.5,0-.549.549h0l-.05-.549ZM70,379.48l1.456,1.456-1.315,1.215Zm.832,9.943-.116-1.406h0l.766.757Zm.141,1.781,1.464-1.464L75.4,392.71l-2.962,2.954-1.2-1.19Zm.441,5.492v-.133l.075.067-.067.067Zm.516,6.315-.374-4.551.882-.874,2.962,2.971-2.962,2.954ZM72.2,406.4l-.058-.682.291-.283.957.965Zm1.19-1.922,2.962-2.962,2.962,2.962L77.4,406.4h-2.2Zm5.933,1.922.857-.949.965.965Zm3.836,0-1.922-1.922,2.971-2.962,2.954,2.962L85.249,406.4Zm4,0,.865-.949.965.965Zm9.045,0h-1.2l.865-.949.283.283Zm.275-3.387-.508.5-2.962-2.954,2.962-2.971.832.874Zm.524-6.457v.141l-.058-.067.075-.075Zm.166-2.08-1.2,1.19-2.962-2.954,2.962-2.971,1.464,1.464Zm.408-5.042-.649-.657.766-.757Zm.832-9.985-.216,2.7-1.24-1.24Z" transform="translate(-66.186 -371.783)" fill="#aa43d1"/>
      <g id="Group_1450" data-name="Group 1450" transform="translate(1.814 1.206)" opacity="0.6">
        <path id="Path_56704" data-name="Path 56704" d="M96.923,373H68l.241,2.921.166,2.08.441,5.425.25,3.112.333,4.16.15,1.772V393l.175,2.089.225,2.862.15,1.781.141,1.806.225,2.08.125,1.581.141,1.781.067.774h26.51l.058-.774.141-1.772.133-1.589.166-2.1.15-1.8.141-1.781.233-2.871.166-2.08v-.533l.141-1.772.341-4.16.25-3.1.433-5.433.175-2.08.233-2.921Zm1.739,1.914h0l-.557-.557h.6Zm-.15,1.772-.05.707-2.588,2.588-2.962-2.971,2.654-2.654h.624Zm-.741,9.244-1.9,1.889-2.962-2.962,2.962-2.962,2.047,2.055Zm-27.459-1.98h0l2.055-2.055,2.962,2.962-2.962,2.962-1.889-1.889Zm24.638-3.012L91.989,383.9l-2.971-2.962,2.937-2.946Zm-4.66-6.582h3.395l-1.664,1.664Zm.732,10.5-2.962,2.962L85.1,384.855l2.962-2.962Zm-9.885,3.952,2.971-2.954,2.954,2.954-2.954,2.971Zm2.005,3.927L80.173,395.7l-2.954-2.954,2.962-2.971Zm4.884-2.962,2.962,2.971L88.028,395.7l-2.962-2.962Zm-3.919-5.825-2.971-2.962,2.971-3,2.954,2.971Zm-.965.957-2.962,2.962-2.962-2.962,2.962-2.962Zm-6.89-.957-2.962-2.962,2.962-3,2.962,2.971Zm0,1.922,2.962,2.937-2.962,2.971-2.962-2.971Zm2.962,10.817-2.962,2.937-2.962-2.962,2.962-2.962Zm.957.957,2.971,2.971-2.962,2.962-2.962-2.962Zm.965-.957,2.971-2.962,2.954,2.962-2.954,2.937Zm6.89.957,2.962,2.971-2.962,2.962-2.962-2.962Zm3.927,3.927,2.962,2.962L92.962,406.4H90.907l-1.922-1.922Zm-2.971-4.884,2.971-2.962,2.962,2.962-2.962,2.937Zm0-7.855,2.971-2.954,2.962,2.954L91.956,391.8Zm2.005-11.766-2.962,2.971-2.962-2.971,2.654-2.654h.624Zm-6.881-.957-1.664-1.664h3.387Zm-.965.957-2.962,2.971-2.962-2.971,2.654-2.654h.607Zm-5.159-2.713-1.664,1.664-1.664-1.664Zm-5.309,0,2.654,2.654-2.962,2.971-2.579-2.588-.058-.707,2.322-2.33Zm-2.5,0-.549.549h0l-.05-.549ZM70,379.48l1.456,1.456-1.315,1.215Zm.832,9.943-.116-1.406h0l.766.757Zm.141,1.781,1.464-1.464L75.4,392.71l-2.962,2.954-1.2-1.19Zm.441,5.492v-.133l.075.067-.067.067Zm.516,6.315-.374-4.551.882-.874,2.962,2.971-2.962,2.954ZM72.2,406.4l-.058-.682.291-.283.957.965Zm1.19-1.922,2.962-2.962,2.962,2.962L77.4,406.4h-2.2Zm5.933,1.922.857-.949.965.965Zm3.836,0-1.922-1.922,2.971-2.962,2.954,2.962L85.249,406.4Zm4,0,.865-.949.965.965Zm9.045,0h-1.2l.865-.949.283.283Zm.275-3.387-.508.5-2.962-2.954,2.962-2.971.832.874Zm.524-6.457v.141l-.058-.067.075-.075Zm.166-2.08-1.2,1.19-2.962-2.954,2.962-2.971,1.464,1.464Zm.408-5.042-.649-.657.766-.757Zm.832-9.985-.216,2.7-1.24-1.24Z" transform="translate(-68 -372.99)" fill="#fff"/>
      </g>
      <rect id="Rectangle_12938" data-name="Rectangle 12938" width="35.838" height="3.778" rx="1.64" transform="translate(35.838 3.778) rotate(180)" fill="#aa43d1"/>
      <rect id="Rectangle_12939" data-name="Rectangle 12939" width="30.67" height="3.778" rx="1.64" transform="translate(2.588 33.941)" fill="#aa43d1"/>
    </g>
    <g id="freepik--Device--inject-14" transform="translate(149.375 110.698)">
      <path id="Path_56705" data-name="Path 56705" d="M321.879,367.345H244.637a7.8,7.8,0,0,1-7.9-8.654l19.97-228.09a9.636,9.636,0,0,1,9.361-8.662h77.242a7.8,7.8,0,0,1,7.9,8.662l-19.97,228.09A9.636,9.636,0,0,1,321.879,367.345Z" transform="translate(-189.121 -121.939)" fill="#aa43d1"/>
      <path id="Path_56706" data-name="Path 56706" d="M321.879,367.345H244.637a7.8,7.8,0,0,1-7.9-8.654l19.97-228.09a9.636,9.636,0,0,1,9.361-8.662h77.242a7.8,7.8,0,0,1,7.9,8.662l-19.97,228.09A9.636,9.636,0,0,1,321.879,367.345Z" transform="translate(-189.121 -121.939)" fill="#fff" opacity="0.4"/>
      <path id="Path_56707" data-name="Path 56707" d="M311.879,367.345H234.637a7.8,7.8,0,0,1-7.9-8.654l19.97-228.09a9.635,9.635,0,0,1,9.361-8.662h77.242a7.8,7.8,0,0,1,7.9,8.662l-19.97,228.09A9.635,9.635,0,0,1,311.879,367.345Z" transform="translate(-187.441 -121.939)" fill="#263238"/>
      <path id="Path_56708" data-name="Path 56708" d="M311.879,367.345H234.637a7.8,7.8,0,0,1-7.9-8.654l19.97-228.09a9.635,9.635,0,0,1,9.361-8.662h77.242a7.8,7.8,0,0,1,7.9,8.662l-19.97,228.09A9.635,9.635,0,0,1,311.879,367.345Z" transform="translate(-187.441 -121.939)" fill="#aa43d1"/>
      <path id="Path_56709" data-name="Path 56709" d="M338.735,131.2l-19.97,228.523c-.166,1.881-1.34,3.328-2.646,3.328H232.387c-1.2,0-1.989-1.34-1.831-3.07L250.592,130.9c.133-1.5,1.007-2.8,2.047-2.8h20.927c.591,0,1.082.557,1.231,1.365l.6,3.079c.15.79.632,1.34,1.223,1.34h35.638a1.764,1.764,0,0,0,1.465-1.323l1.132-3.1a1.831,1.831,0,0,1,1.473-1.365h20.627C338.094,128.117,338.885,129.548,338.735,131.2Z" transform="translate(-188.087 -122.973)" fill="#fff" opacity="0.4"/>
      <path id="Path_56710" data-name="Path 56710" d="M338.145,145.28,320.987,341.368H232.82L249.978,145.28Z" transform="translate(-188.47 -125.858)" fill="#aa43d1"/>
      <path id="Path_56711" data-name="Path 56711" d="M265.64,138.767h1.09l.183-2.1h-1.082Z" transform="translate(-193.981 -124.412)" fill="#fff" opacity="0.6"/>
      <path id="Path_56712" data-name="Path 56712" d="M263.51,138.626h1.09l.241-2.8H263.76Z" transform="translate(-193.624 -124.271)" fill="#fff" opacity="0.6"/>
      <path id="Path_56713" data-name="Path 56713" d="M261.38,138.485h1.09l.308-3.495h-1.09Z" transform="translate(-193.266 -124.13)" fill="#fff" opacity="0.6"/>
      <path id="Path_56714" data-name="Path 56714" d="M259.25,138.344h1.09l.366-4.194h-1.09Z" transform="translate(-192.908 -123.989)" fill="#fff" opacity="0.6"/>
      <path id="Path_56715" data-name="Path 56715" d="M347.889,137.847h-.649l.183-2.1h.649Z" transform="translate(-207.683 -124.258)" fill="#fff" opacity="0.6"/>
      <path id="Path_56716" data-name="Path 56716" d="M348.47,138.458h5.142l.316-3.628h-5.142Z" transform="translate(-207.89 -124.103)" fill="#fff" opacity="0.6"/>
      <path id="Path_56717" data-name="Path 56717" d="M307.379,128.127c-.083.965-.7,1.747-1.365,1.747s-1.14-.782-1.057-1.747.691-1.747,1.365-1.747S307.488,127.162,307.379,128.127Z" transform="translate(-200.582 -122.684)" fill="#263238" opacity="0.6"/>
      <path id="Path_56718" data-name="Path 56718" d="M310.5,128.255c-.05.624-.441,1.123-.874,1.123s-.732-.5-.674-1.123.441-1.115.874-1.115S310.554,127.639,310.5,128.255Z" transform="translate(-201.252 -122.812)" fill="#263238" opacity="0.6"/>
      <path id="Path_56719" data-name="Path 56719" d="M338.135,145.28l-2.38,27.2-.408,4.693-1.905,21.792-.3,3.387-2.7,30.9-.291,3.387-2.6,29.664-.374,4.269-6.191,70.793H232.81l17.158-196.08Z" transform="translate(-188.468 -125.858)" fill="#263238"/>
      <path id="Path_56720" data-name="Path 56720" d="M254.275,217.228a.483.483,0,0,0,.316.108.624.624,0,0,0,.458-.225.533.533,0,0,0-.05-.757l-1.514-1.182,1.706-1.19a.558.558,0,0,0,.183-.757.541.541,0,0,0-.757-.116l-2.338,1.664a.616.616,0,0,0-.258.441.516.516,0,0,0,.183.441Z" transform="translate(-191.694 -137.23)" fill="#fff" opacity="0.5"/>
      <path id="Path_56721" data-name="Path 56721" d="M263.414,215.16l-1.706,1.165a.566.566,0,0,0-.175.766.491.491,0,0,0,.416.216.549.549,0,0,0,.333-.108l2.338-1.623a.558.558,0,0,0,.258-.433.491.491,0,0,0-.183-.441l-2.064-1.614a.557.557,0,0,0-.774.117.532.532,0,0,0,.05.757Z" transform="translate(-193.278 -137.226)" fill="#fff" opacity="0.5"/>
      <path id="Path_56722" data-name="Path 56722" d="M257.6,217.3a.649.649,0,0,0,.183,0,.6.6,0,0,0,.541-.366l1.423-3.245a.5.5,0,0,0-.275-.691.591.591,0,0,0-.724.333l-1.423,3.237a.508.508,0,0,0,.275.732Z" transform="translate(-192.574 -137.224)" fill="#fff" opacity="0.5"/>
      <path id="Path_56723" data-name="Path 56723" d="M268.438,218.128h2.837a.832.832,0,0,0,.79-.724.657.657,0,0,0-.666-.724h-2.879a.832.832,0,0,0-.832.724.657.657,0,0,0,.749.724Z" transform="translate(-194.325 -137.847)" fill="#fff" opacity="0.5"/>
      <path id="Path_56724" data-name="Path 56724" d="M275.469,240.854a.657.657,0,0,0-.666-.724H249.841a.832.832,0,0,0-.782.724.649.649,0,0,0,.666.724h24.962A.832.832,0,0,0,275.469,240.854Z" transform="translate(-191.196 -141.785)" fill="#fff"/>
      <path id="Path_56725" data-name="Path 56725" d="M284.427,241.588h7.347a.832.832,0,0,0,.782-.724.657.657,0,0,0-.666-.724h-7.339a.832.832,0,0,0-.832.724.657.657,0,0,0,.707.724Z" transform="translate(-197.016 -141.787)" fill="#fff" opacity="0.5"/>
      <path id="Path_56726" data-name="Path 56726" d="M250.167,236.068h9.452a.832.832,0,0,0,.79-.724.657.657,0,0,0-.666-.724h-9.452a.832.832,0,0,0-.832.724.657.657,0,0,0,.707.724Z" transform="translate(-191.264 -140.86)" fill="#fff" opacity="0.5"/>
      <path id="Path_56727" data-name="Path 56727" d="M297.33,235.344a.657.657,0,0,0-.666-.724H267.3a.832.832,0,0,0-.79.724.657.657,0,0,0,.666.724h29.364a.832.832,0,0,0,.79-.724Z" transform="translate(-194.127 -140.86)" fill="#fff"/>
      <path id="Path_56728" data-name="Path 56728" d="M250.637,230.558h17.133a.832.832,0,0,0,.79-.724.657.657,0,0,0-.666-.724H250.761a.832.832,0,0,0-.832.724.657.657,0,0,0,.707.724Z" transform="translate(-191.342 -139.935)" fill="#fff"/>
      <path id="Path_56729" data-name="Path 56729" d="M275.309,229.854a.657.657,0,0,0,.666.724h4.244a.832.832,0,0,0,.832-.724.657.657,0,0,0-.666-.724h-4.244A.832.832,0,0,0,275.309,229.854Z" transform="translate(-195.604 -139.938)" fill="#fff" opacity="0.5"/>
      <path id="Path_56730" data-name="Path 56730" d="M251.113,225.038h20.228a.832.832,0,0,0,.79-.724.657.657,0,0,0-.666-.724H251.23a.832.832,0,0,0-.79.724.657.657,0,0,0,.674.724Z" transform="translate(-191.428 -139.008)" fill="#fff" opacity="0.5"/>
      <path id="Path_56731" data-name="Path 56731" d="M293.495,225.038h15.518a.832.832,0,0,0,.832-.724.657.657,0,0,0-.666-.724H293.611a.832.832,0,0,0-.782.724.657.657,0,0,0,.666.724Z" transform="translate(-198.546 -139.008)" fill="#fff"/>
      <path id="Path_56732" data-name="Path 56732" d="M323.415,267.72H278.4a.832.832,0,0,0-.79.724.657.657,0,0,0,.666.724h45.016a.832.832,0,0,0,.79-.724.657.657,0,0,0-.666-.724Z" transform="translate(-195.99 -146.418)" fill="#fff" opacity="0.5"/>
      <path id="Path_56733" data-name="Path 56733" d="M343.248,267.72h-5.567a.832.832,0,0,0-.832.724.657.657,0,0,0,.666.724h5.567a.832.832,0,0,0,.79-.724.657.657,0,0,0-.624-.724Z" transform="translate(-205.938 -146.418)" fill="#fff"/>
      <path id="Path_56734" data-name="Path 56734" d="M295.055,263.648H313.2a.832.832,0,0,0,.791-.724.657.657,0,0,0-.666-.724H295.18a.832.832,0,0,0-.79.724.657.657,0,0,0,.666.724Z" transform="translate(-198.808 -145.491)" fill="#fff"/>
      <path id="Path_56735" data-name="Path 56735" d="M330.786,263.648a.832.832,0,0,0,.79-.724.657.657,0,0,0-.674-.724H320.61a.832.832,0,0,0-.79.724.657.657,0,0,0,.666.724Z" transform="translate(-203.078 -145.491)" fill="#fff" opacity="0.5"/>
      <path id="Path_56736" data-name="Path 56736" d="M343.735,262.2H338.26a.832.832,0,0,0-.79.724.657.657,0,0,0,.666.724h5.475a.832.832,0,0,0,.79-.724.657.657,0,0,0-.666-.724Z" transform="translate(-206.042 -145.491)" fill="#fff" opacity="0.5"/>
      <path id="Path_56737" data-name="Path 56737" d="M328.628,256.69H304.39a.832.832,0,0,0-.79.724.657.657,0,0,0,.666.724H328.5a.832.832,0,0,0,.832-.724.657.657,0,0,0-.707-.724Z" transform="translate(-200.355 -144.565)" fill="#fff"/>
      <path id="Path_56738" data-name="Path 56738" d="M344.195,256.69H338.67a.832.832,0,0,0-.79.724.657.657,0,0,0,.666.724h5.533a.832.832,0,0,0,.782-.724.657.657,0,0,0-.666-.724Z" transform="translate(-206.111 -144.566)" fill="#fff"/>
      <path id="Path_56739" data-name="Path 56739" d="M312.723,251.854a.649.649,0,0,0-.666-.724H287.37a.832.832,0,0,0-.79.724.657.657,0,0,0,.666.724h24.713A.832.832,0,0,0,312.723,251.854Z" transform="translate(-197.497 -143.632)" fill="#fff" opacity="0.5"/>
      <path id="Path_56740" data-name="Path 56740" d="M322.45,251.17a.832.832,0,0,0-.79.724.657.657,0,0,0,.666.724h9.6a.832.832,0,0,0,.79-.724.657.657,0,0,0-.666-.724Z" transform="translate(-203.387 -143.639)" fill="#fff" opacity="0.5"/>
      <path id="Path_56741" data-name="Path 56741" d="M344.677,251.17H339.21a.832.832,0,0,0-.79.724.657.657,0,0,0,.666.724h5.467a.832.832,0,0,0,.79-.724.657.657,0,0,0-.666-.724Z" transform="translate(-206.202 -143.639)" fill="#fff"/>
      <path id="Path_56742" data-name="Path 56742" d="M324.442,247.106h4.751a.832.832,0,0,0,.832-.724.657.657,0,0,0-.666-.732H324.6a.832.832,0,0,0-.79.732.657.657,0,0,0,.632.724Z" transform="translate(-203.748 -142.712)" fill="#fff"/>
      <path id="Path_56743" data-name="Path 56743" d="M334.215,247.106h9.91a.832.832,0,0,0,.79-.724.657.657,0,0,0-.666-.732h-9.91a.832.832,0,0,0-.79.732.657.657,0,0,0,.666.724Z" transform="translate(-205.384 -142.712)" fill="#fff" opacity="0.5"/>
      <path id="Path_56744" data-name="Path 56744" d="M259.706,152.909a.483.483,0,0,0,.316.108.6.6,0,0,0,.458-.216.541.541,0,0,0-.05-.766l-1.514-1.182,1.664-1.182a.558.558,0,0,0,.183-.757.533.533,0,0,0-.757-.116l-2.338,1.664a.6.6,0,0,0-.258.441.5.5,0,0,0,.183.433Z" transform="translate(-192.599 -126.431)" fill="#fff"/>
      <path id="Path_56745" data-name="Path 56745" d="M268.854,150.844l-1.706,1.19a.558.558,0,0,0-.175.757.474.474,0,0,0,.416.225.549.549,0,0,0,.333-.108l2.346-1.623a.624.624,0,0,0,.258-.441.5.5,0,0,0-.191-.433l-2.064-1.623a.566.566,0,0,0-.774.116.541.541,0,0,0,.05.766Z" transform="translate(-194.192 -126.43)" fill="#fff"/>
      <path id="Path_56746" data-name="Path 56746" d="M263.041,152.978a.449.449,0,0,0,.183,0,.6.6,0,0,0,.541-.366l1.423-3.237a.5.5,0,0,0-.275-.691.591.591,0,0,0-.724.325l-1.423,3.245a.5.5,0,0,0,.275.724Z" transform="translate(-193.487 -126.425)" fill="#fff"/>
      <path id="Path_56747" data-name="Path 56747" d="M273.865,153.818h2.871a.832.832,0,0,0,.79-.724.657.657,0,0,0-.666-.724h-2.879a.832.832,0,0,0-.782.724.649.649,0,0,0,.666.724Z" transform="translate(-195.25 -127.049)" fill="#fff" opacity="0.5"/>
      <path id="Path_56748" data-name="Path 56748" d="M318.16,160.708h3.919a.832.832,0,0,0,.782-.724.649.649,0,0,0-.666-.724H318.31a.832.832,0,0,0-.79.724.657.657,0,0,0,.641.724Z" transform="translate(-202.692 -128.205)" fill="#fff" opacity="0.5"/>
      <path id="Path_56749" data-name="Path 56749" d="M267.769,160a.657.657,0,0,0,.666.724h36.37a.832.832,0,0,0,.832-.724.657.657,0,0,0-.666-.724h-36.42A.832.832,0,0,0,267.769,160Z" transform="translate(-194.338 -128.209)" fill="#fff"/>
      <path id="Path_56750" data-name="Path 56750" d="M256.555,160.708h5.558a.832.832,0,0,0,.79-.724.657.657,0,0,0-.666-.724h-5.567a.832.832,0,0,0-.782.724.649.649,0,0,0,.666.724Z" transform="translate(-192.343 -128.205)" fill="#fff" opacity="0.5"/>
      <path id="Path_56751" data-name="Path 56751" d="M298.47,166.238a.832.832,0,0,0,.832-.724.657.657,0,0,0-.674-.724H284.15a.832.832,0,0,0-.79.724.657.657,0,0,0,.666.724Z" transform="translate(-196.956 -129.134)" fill="#fff"/>
      <path id="Path_56752" data-name="Path 56752" d="M267.965,166.238h10.276a.832.832,0,0,0,.79-.724.657.657,0,0,0-.666-.724H268.09a.832.832,0,0,0-.79.724.657.657,0,0,0,.666.724Z" transform="translate(-194.259 -129.134)" fill="#fff"/>
      <path id="Path_56753" data-name="Path 56753" d="M256.077,166.238h5.467a.832.832,0,0,0,.79-.724.657.657,0,0,0-.666-.724H256.2a.832.832,0,0,0-.832.724.657.657,0,0,0,.707.724Z" transform="translate(-192.256 -129.134)" fill="#fff" opacity="0.5"/>
      <path id="Path_56754" data-name="Path 56754" d="M288.808,171.034a.657.657,0,0,0-.666-.724H267.531a.832.832,0,0,0-.782.724.657.657,0,0,0,.666.724h20.6A.832.832,0,0,0,288.808,171.034Z" transform="translate(-194.167 -130.061)" fill="#fff"/>
      <path id="Path_56755" data-name="Path 56755" d="M255.607,171.758h5.533a.832.832,0,0,0,.832-.724.657.657,0,0,0-.666-.724h-5.575a.832.832,0,0,0-.832.724.657.657,0,0,0,.707.724Z" transform="translate(-192.177 -130.061)" fill="#fff" opacity="0.5"/>
      <path id="Path_56756" data-name="Path 56756" d="M283.865,177.276h21.077a.832.832,0,0,0,.782-.732.649.649,0,0,0-.666-.724H283.99a.832.832,0,0,0-.79.724.657.657,0,0,0,.666.732Z" transform="translate(-196.929 -130.986)" fill="#fff"/>
      <path id="Path_56757" data-name="Path 56757" d="M267.081,175.82a.832.832,0,0,0-.782.724.649.649,0,0,0,.666.732h9.586a.832.832,0,0,0,.782-.732.657.657,0,0,0-.666-.724Z" transform="translate(-194.091 -130.986)" fill="#fff"/>
      <path id="Path_56758" data-name="Path 56758" d="M255.155,177.276h5.467a.832.832,0,0,0,.782-.732.657.657,0,0,0-.666-.724h-5.467a.832.832,0,0,0-.782.724.649.649,0,0,0,.666.732Z" transform="translate(-192.108 -130.986)" fill="#fff" opacity="0.5"/>
      <path id="Path_56759" data-name="Path 56759" d="M275.549,181.34h-4.71a.832.832,0,0,0-.79.724.657.657,0,0,0,.666.724h4.751a.832.832,0,0,0,.79-.724.657.657,0,0,0-.707-.724Z" transform="translate(-194.721 -131.913)" fill="#fff"/>
      <path id="Path_56760" data-name="Path 56760" d="M264.725,181.34H254.84a.832.832,0,0,0-.79.724.657.657,0,0,0,.666.724h9.91a.832.832,0,0,0,.79-.724.657.657,0,0,0-.691-.724Z" transform="translate(-192.034 -131.913)" fill="#fff"/>
      <path id="Path_56761" data-name="Path 56761" d="M303.809,187.582a.657.657,0,0,0,.666.724h38.792a.832.832,0,0,0,.79-.724.657.657,0,0,0-.666-.732H304.6A.832.832,0,0,0,303.809,187.582Z" transform="translate(-200.39 -132.838)" fill="#fff"/>
      <path id="Path_56762" data-name="Path 56762" d="M291.051,186.85a.832.832,0,0,0-.832.732.657.657,0,0,0,.666.724h7.347a.832.832,0,0,0,.832-.724.666.666,0,0,0-.674-.732Z" transform="translate(-198.108 -132.838)" fill="#fff" opacity="0.5"/>
      <path id="Path_56763" data-name="Path 56763" d="M348.844,192.37H339.4a.832.832,0,0,0-.79.724.657.657,0,0,0,.666.724h9.452a.832.832,0,0,0,.782-.724.657.657,0,0,0-.666-.724Z" transform="translate(-206.234 -133.765)" fill="#fff" opacity="0.5"/>
      <path id="Path_56764" data-name="Path 56764" d="M326.434,193.094a.657.657,0,0,0-.666-.724H286.22a.832.832,0,0,0-.79.724.657.657,0,0,0,.666.724h39.557A.832.832,0,0,0,326.434,193.094Z" transform="translate(-197.304 -133.765)" fill="#fff"/>
      <path id="Path_56765" data-name="Path 56765" d="M346.832,197.89H329.7a.832.832,0,0,0-.79.724.657.657,0,0,0,.666.724h17.133a.832.832,0,0,0,.79-.724.657.657,0,0,0-.666-.724Z" transform="translate(-204.605 -134.692)" fill="#fff"/>
      <path id="Path_56766" data-name="Path 56766" d="M319.84,197.89a.832.832,0,0,0-.79.724.657.657,0,0,0,.666.724H324a.832.832,0,0,0,.782-.724.657.657,0,0,0-.666-.724Z" transform="translate(-202.949 -134.692)" fill="#fff" opacity="0.5"/>
      <path id="Path_56767" data-name="Path 56767" d="M342.965,203.4H308.891a.832.832,0,0,0-.782.724.657.657,0,0,0,.666.724h34.049a.832.832,0,0,0,.79-.724.657.657,0,0,0-.649-.724Z" transform="translate(-201.112 -135.617)" fill="#fff"/>
      <path id="Path_56768" data-name="Path 56768" d="M288.44,203.4H276.55a.832.832,0,0,0-.79.724.657.657,0,0,0,.666.724h11.882a.832.832,0,0,0,.832-.724.657.657,0,0,0-.7-.724Z" transform="translate(-195.68 -135.617)" fill="#fff"/>
      <path id="Path_56769" data-name="Path 56769" d="M325.361,309l-4.477,50.341v.175H233v-.175l9.5-106.989,4.826,1.265,23.54,6.132,1.306.341,1.606.416,1.98.516,1.231.325,15.768,4.11h.1q1.722.449,3.37,1.023a43.476,43.476,0,0,1,29.123,42.494Z" transform="translate(-188.5 -143.837)" fill="#aa43d1"/>
      <path id="Path_56770" data-name="Path 56770" d="M325.361,309l-4.477,50.341v.175H233v-.175l9.5-106.989,4.826,1.265,23.54,6.132,1.306.341,1.606.416,1.98.516,1.231.325,15.768,4.11h.1q1.722.449,3.37,1.023a43.476,43.476,0,0,1,29.123,42.494Z" transform="translate(-188.5 -143.837)" fill="#fff" opacity="0.8"/>
      <path id="Path_56771" data-name="Path 56771" d="M279.766,261.6H249.42l.141-1.6.541-6.132L273.642,260l1.306.341,1.606.416,1.98.516Z" transform="translate(-191.258 -144.092)" opacity="0.6"/>
      <path id="Path_56772" data-name="Path 56772" d="M279.766,262.838H249.42l.141-1.6h24.08l1.306.341,1.606.416,1.98.516Z" transform="translate(-191.258 -145.33)" opacity="0.5"/>
      <path id="Path_56773" data-name="Path 56773" d="M276.554,262l-.075.84H249.42l.141-1.6h24.08l1.306.341Z" transform="translate(-191.258 -145.33)" fill="#fff" opacity="0.6"/>
      <path id="Path_56774" data-name="Path 56774" d="M283.654,262.582a1.782,1.782,0,0,1-.133.325,2.122,2.122,0,0,1-1.847,1.148,1.664,1.664,0,0,1-1.664-1.148,1.722,1.722,0,0,1-.091-.749,2.048,2.048,0,0,1,.116-.508l1.606.416Z" transform="translate(-196.377 -145.399)" fill="#fff"/>
      <path id="Path_56775" data-name="Path 56775" d="M288.148,276.657H249.723a1.34,1.34,0,0,1-1.365-1.5h0a1.664,1.664,0,0,1,1.664-1.489h38.392a1.348,1.348,0,0,1,1.365,1.489h0A1.664,1.664,0,0,1,288.148,276.657Z" transform="translate(-191.078 -147.417)" fill="#aa43d1" opacity="0.4"/>
      <path id="Path_56776" data-name="Path 56776" d="M298.893,269.6a1.664,1.664,0,0,1-1.664,1.489H250.183a1.348,1.348,0,0,1-1.365-1.489,1.664,1.664,0,0,1,1.664-1.5h45.082q1.722.449,3.37,1.023a1.6,1.6,0,0,1-.042.474Z" transform="translate(-191.155 -146.482)" fill="#aa43d1" opacity="0.4"/>
      <path id="Path_56777" data-name="Path 56777" d="M323.908,296.852l-2.147,24.18H243.67l3.012-33.882h71.692a43.368,43.368,0,0,1,5.533,9.7Z" transform="translate(-190.292 -149.681)" fill="#aa43d1" opacity="0.3"/>
      <path id="Path_56778" data-name="Path 56778" d="M307.992,293.693h-6.124a1.223,1.223,0,0,1-1.24-1.356h0a1.514,1.514,0,0,1,1.481-1.356h6.124a1.215,1.215,0,0,1,1.231,1.356h0a1.506,1.506,0,0,1-1.473,1.356Z" transform="translate(-199.855 -150.324)" fill="#fff" opacity="0.5"/>
      <path id="Path_56779" data-name="Path 56779" d="M324.84,298.924H301.4a1.215,1.215,0,0,1-1.231-1.356h0a1.506,1.506,0,0,1,1.473-1.348h23.44a1.223,1.223,0,0,1,1.24,1.348h0A1.514,1.514,0,0,1,324.84,298.924Z" transform="translate(-199.778 -151.204)" fill="#fff" opacity="0.5"/>
      <path id="Path_56780" data-name="Path 56780" d="M283.937,318.489h-35.5l2.446-27.509h35.488Z" transform="translate(-191.093 -150.324)" fill="#aa43d1" opacity="0.3"/>
      <path id="Path_56781" data-name="Path 56781" d="M248.981,314.4l10.459-7.688,5.483,4.343,11.591-8.3,8.3,7.838-.874,9.868h-35.5Z" transform="translate(-191.093 -152.302)" fill="#fff" opacity="0.5"/>
      <path id="Path_56782" data-name="Path 56782" d="M262.246,298.177a3.2,3.2,0,0,1-3.045,2.937,2.563,2.563,0,0,1-2.5-2.937,3.212,3.212,0,0,1,3.045-2.937,2.554,2.554,0,0,1,2.5,2.937Z" transform="translate(-192.476 -151.039)" fill="#fff" opacity="0.5"/>
      <path id="Path_56783" data-name="Path 56783" d="M317.679,367.041h-78.1l3.012-33.891h78.1Z" transform="translate(-189.605 -157.405)" fill="#aa43d1" opacity="0.3"/>
      <path id="Path_56784" data-name="Path 56784" d="M303.9,339.694H297.75a1.215,1.215,0,0,1-1.231-1.356h0a1.506,1.506,0,0,1,1.473-1.348h6.124a1.215,1.215,0,0,1,1.232,1.348h0A1.506,1.506,0,0,1,303.9,339.694Z" transform="translate(-199.165 -158.05)" fill="#fff" opacity="0.5"/>
      <path id="Path_56785" data-name="Path 56785" d="M320.75,344.933H297.318a1.223,1.223,0,0,1-1.24-1.356h0a1.514,1.514,0,0,1,1.481-1.356h23.415a1.223,1.223,0,0,1,1.24,1.356h0a1.514,1.514,0,0,1-1.464,1.356Z" transform="translate(-199.091 -158.928)" fill="#fff" opacity="0.5"/>
      <path id="Path_56786" data-name="Path 56786" d="M279.847,364.49h-35.5l2.446-27.5h35.5Z" transform="translate(-190.406 -158.05)" fill="#aa43d1" opacity="0.3"/>
      <path id="Path_56787" data-name="Path 56787" d="M244.891,360.4l10.459-7.688,5.492,4.343,11.583-8.3,8.3,7.846-.874,9.86h-35.5Z" transform="translate(-190.406 -160.026)" fill="#fff" opacity="0.5"/>
      <path id="Path_56788" data-name="Path 56788" d="M258.166,344.179a3.212,3.212,0,0,1-3.045,2.937,2.554,2.554,0,0,1-2.5-2.937,3.2,3.2,0,0,1,3.045-2.929,2.555,2.555,0,0,1,2.5,2.929Z" transform="translate(-191.791 -158.765)" fill="#fff" opacity="0.5"/>
      <path id="Path_56789" data-name="Path 56789" d="M309.4,273.494c-23.032-11.5-59.477,11.133-60.542,11.524-3.669,1.365-7.938-.466-11.8-3.22l3-34.29,1.747-.108S291.22,259.548,309.4,273.494Z" transform="translate(-189.182 -143.006)" opacity="0.2"/>
      <path id="Path_56790" data-name="Path 56790" d="M179.52,234.62s5.325,3.2,8.213,4.593c1.664.774,7.755-.349,12.7,2.821,4.768,3.054,4.235,6.124,6.249,8.837,6.1,8.221,19.138,7.955,19.138,7.955s55.5-10.434,83.965,22.708C309.782,281.533,288.714,240.42,179.52,234.62Z" transform="translate(-179.52 -140.86)" fill="#aa43d1"/>
      <path id="Path_56791" data-name="Path 56791" d="M179.52,234.62s5.325,3.2,8.213,4.593c1.664.774,7.755-.349,12.7,2.821,4.768,3.054,4.235,6.124,6.249,8.837,6.1,8.221,19.138,7.955,19.138,7.955s55.5-10.434,83.965,22.708C309.782,281.533,288.714,240.42,179.52,234.62Z" transform="translate(-179.52 -140.86)" fill="#fff" opacity="0.4"/>
    </g>
    <g id="freepik--speech-bubble--inject-14" transform="translate(78.024 126.118)">
      <path id="Path_56792" data-name="Path 56792" d="M136.4,140.47H97.747a3.977,3.977,0,0,0-3.977,3.977v20.9a3.977,3.977,0,0,0,3.977,3.969h26.885c1.04,2.5,3.986,7.422,11.549,9.7,0,0-4.535-4.1-4.3-9.7H136.4a3.977,3.977,0,0,0,3.977-3.969v-20.9A3.977,3.977,0,0,0,136.4,140.47Z" transform="translate(-93.77 -140.47)" fill="#aa43d1"/>
      <path id="Path_56793" data-name="Path 56793" d="M136.4,140.47H97.747a3.977,3.977,0,0,0-3.977,3.977v20.9a3.977,3.977,0,0,0,3.977,3.969h26.885c1.04,2.5,3.986,7.422,11.549,9.7,0,0-4.535-4.1-4.3-9.7H136.4a3.977,3.977,0,0,0,3.977-3.969v-20.9A3.977,3.977,0,0,0,136.4,140.47Z" transform="translate(-93.77 -140.47)" fill="#fff" opacity="0.6"/>
      <g id="Group_1451" data-name="Group 1451" transform="translate(4.443 4.468)" opacity="0.5">
        <path id="Path_56794" data-name="Path 56794" d="M99.47,148.336c0-1.539.832-2.5,1.93-2.5s1.939.924,1.939,2.5-.832,2.5-1.939,2.5S99.47,149.884,99.47,148.336Zm3.328,0c0-1.29-.582-2.005-1.431-2.005s-1.423.716-1.423,2.005.582,2.005,1.423,2.005,1.464-.707,1.464-2.005Z" transform="translate(-99.17 -145.84)"/>
        <path id="Path_56795" data-name="Path 56795" d="M106.239,145.93v4.843h-.474v-4.4H104.6v-.441Z" transform="translate(-100.032 -145.855)"/>
        <path id="Path_56796" data-name="Path 56796" d="M108,148.336c0-1.539.832-2.5,1.93-2.5s1.939.924,1.939,2.5-.832,2.5-1.939,2.5S108,149.884,108,148.336Zm3.328,0c0-1.29-.582-2.005-1.423-2.005s-1.423.716-1.423,2.005.574,2.005,1.423,2.005S111.328,149.634,111.328,148.336Z" transform="translate(-100.603 -145.84)"/>
        <path id="Path_56797" data-name="Path 56797" d="M113.46,148.336c0-1.539.832-2.5,1.93-2.5s1.939.924,1.939,2.5-.832,2.5-1.939,2.5S113.46,149.884,113.46,148.336Zm3.328,0c0-1.29-.574-2.005-1.423-2.005s-1.423.716-1.423,2.005.582,2.005,1.423,2.005,1.448-.707,1.448-2.005Z" transform="translate(-101.52 -145.84)"/>
        <path id="Path_56798" data-name="Path 56798" d="M120.236,145.93v4.843h-.466v-4.4h-1.14v-.441Z" transform="translate(-102.388 -145.855)"/>
        <path id="Path_56799" data-name="Path 56799" d="M123.236,145.93v4.843h-.466v-4.4h-1.14v-.441Z" transform="translate(-102.892 -145.855)"/>
        <path id="Path_56800" data-name="Path 56800" d="M126.236,145.93v4.843h-.466v-4.4h-1.14v-.441Z" transform="translate(-103.395 -145.855)"/>
        <path id="Path_56801" data-name="Path 56801" d="M128,148.336c0-1.539.832-2.5,1.93-2.5s1.939.924,1.939,2.5-.832,2.5-1.939,2.5S128,149.884,128,148.336Zm3.328,0c0-1.29-.582-2.005-1.423-2.005s-1.431.716-1.431,2.005.582,2.005,1.431,2.005S131.328,149.634,131.328,148.336Z" transform="translate(-103.961 -145.84)"/>
        <path id="Path_56802" data-name="Path 56802" d="M133.45,148.336c0-1.539.832-2.5,1.93-2.5s1.939.924,1.939,2.5-.832,2.5-1.939,2.5S133.45,149.884,133.45,148.336Zm3.328,0c0-1.29-.582-2.005-1.423-2.005s-1.423.716-1.423,2.005.574,2.005,1.423,2.005,1.448-.707,1.448-2.005Z" transform="translate(-104.876 -145.84)"/>
        <path id="Path_56803" data-name="Path 56803" d="M140.228,145.93v4.843h-.458v-4.4h-1.14v-.441Z" transform="translate(-105.746 -145.855)"/>
        <path id="Path_56804" data-name="Path 56804" d="M143.228,145.93v4.843h-.458v-4.4h-1.14v-.441Z" transform="translate(-106.25 -145.855)"/>
        <path id="Path_56805" data-name="Path 56805" d="M100.749,154.36V159.2h-.5v-4.4H99.11v-.441Z" transform="translate(-99.11 -147.271)"/>
        <path id="Path_56806" data-name="Path 56806" d="M102.47,156.766c0-1.548.832-2.5,1.93-2.5s1.93.915,1.93,2.5-.832,2.5-1.93,2.5S102.47,158.306,102.47,156.766Zm3.328,0c0-1.3-.582-2.005-1.423-2.005s-1.431.707-1.431,2.005.582,2.005,1.431,2.005,1.448-.716,1.448-2.005Z" transform="translate(-99.674 -147.256)"/>
        <path id="Path_56807" data-name="Path 56807" d="M108,156.766c0-1.548.832-2.5,1.93-2.5s1.939.915,1.939,2.5-.832,2.5-1.939,2.5S108,158.306,108,156.766Zm3.328,0c0-1.3-.582-2.005-1.423-2.005s-1.431.707-1.431,2.005.582,2.005,1.431,2.005S111.328,158.056,111.328,156.766Z" transform="translate(-100.603 -147.256)"/>
        <path id="Path_56808" data-name="Path 56808" d="M114.738,154.36V159.2h-.5v-4.4H113.09v-.441Z" transform="translate(-101.458 -147.271)"/>
        <path id="Path_56809" data-name="Path 56809" d="M117.739,154.36V159.2h-.5v-4.4H116.1v-.441Z" transform="translate(-101.963 -147.271)"/>
        <path id="Path_56810" data-name="Path 56810" d="M120.739,154.36V159.2h-.5v-4.4H119.1v-.441Z" transform="translate(-102.467 -147.271)"/>
        <path id="Path_56811" data-name="Path 56811" d="M122.45,156.766c0-1.548.832-2.5,1.93-2.5s1.939.915,1.939,2.5-.832,2.5-1.939,2.5S122.45,158.306,122.45,156.766Zm3.328,0c0-1.3-.582-2.005-1.431-2.005s-1.423.707-1.423,2.005.582,2.005,1.423,2.005,1.464-.716,1.464-2.005Z" transform="translate(-103.029 -147.256)"/>
        <path id="Path_56812" data-name="Path 56812" d="M128,156.766c0-1.548.832-2.5,1.939-2.5s1.93.915,1.93,2.5-.832,2.5-1.93,2.5S128,158.306,128,156.766Zm3.328,0c0-1.3-.582-2.005-1.423-2.005s-1.431.707-1.431,2.005.582,2.005,1.431,2.005S131.328,158.056,131.328,156.766Z" transform="translate(-103.961 -147.256)"/>
        <path id="Path_56813" data-name="Path 56813" d="M134.719,154.36V159.2h-.5v-4.4h-1.14v-.441Z" transform="translate(-104.814 -147.271)"/>
        <path id="Path_56814" data-name="Path 56814" d="M137.719,154.36V159.2h-.491v-4.4H136.08v-.441Z" transform="translate(-105.318 -147.271)"/>
        <path id="Path_56815" data-name="Path 56815" d="M139.44,156.766c0-1.548.832-2.5,1.93-2.5s1.939.915,1.939,2.5-.832,2.5-1.939,2.5S139.44,158.306,139.44,156.766Zm3.328,0c0-1.3-.574-2.005-1.423-2.005s-1.423.707-1.423,2.005.582,2.005,1.423,2.005,1.448-.716,1.448-2.005Z" transform="translate(-105.882 -147.256)"/>
        <path id="Path_56816" data-name="Path 56816" d="M99.47,165.186c0-1.539.832-2.5,1.93-2.5s1.939.924,1.939,2.5-.832,2.5-1.939,2.5S99.47,166.734,99.47,165.186Zm3.328,0c0-1.29-.582-2.005-1.431-2.005s-1.423.716-1.423,2.005.582,2.014,1.423,2.014,1.464-.716,1.464-2.014Z" transform="translate(-99.17 -148.669)"/>
        <path id="Path_56817" data-name="Path 56817" d="M105,165.186c0-1.539.832-2.5,1.93-2.5s1.93.924,1.93,2.5-.832,2.5-1.93,2.5S105,166.734,105,165.186Zm3.328,0c0-1.29-.582-2.005-1.423-2.005s-1.431.716-1.431,2.005.582,2.014,1.431,2.014S108.328,166.484,108.328,165.186Z" transform="translate(-100.099 -148.669)"/>
        <path id="Path_56818" data-name="Path 56818" d="M111.739,162.78v4.843h-.491v-4.4H110.1v-.441Z" transform="translate(-100.955 -148.685)"/>
        <path id="Path_56819" data-name="Path 56819" d="M114.739,162.78v4.843h-.491v-4.4H113.1v-.441Z" transform="translate(-101.459 -148.685)"/>
        <path id="Path_56820" data-name="Path 56820" d="M116.46,165.186c0-1.539.832-2.5,1.93-2.5s1.939.924,1.939,2.5-.832,2.5-1.939,2.5S116.46,166.734,116.46,165.186Zm3.328,0c0-1.29-.574-2.005-1.423-2.005s-1.423.716-1.423,2.005.582,2.014,1.423,2.014,1.448-.716,1.448-2.014Z" transform="translate(-102.023 -148.669)"/>
        <path id="Path_56821" data-name="Path 56821" d="M122,165.186c0-1.539.832-2.5,1.93-2.5s1.939.924,1.939,2.5-.832,2.5-1.939,2.5S122,166.734,122,165.186Zm3.328,0c0-1.29-.582-2.005-1.431-2.005s-1.423.716-1.423,2.005.582,2.014,1.423,2.014S125.328,166.484,125.328,165.186Z" transform="translate(-102.954 -148.669)"/>
        <path id="Path_56822" data-name="Path 56822" d="M128.729,162.78v4.843h-.5v-4.4h-1.14v-.441Z" transform="translate(-103.808 -148.685)"/>
        <path id="Path_56823" data-name="Path 56823" d="M131.729,162.78v4.843h-.5v-4.4h-1.14v-.441Z" transform="translate(-104.312 -148.685)"/>
        <path id="Path_56824" data-name="Path 56824" d="M134.729,162.78v4.843h-.5v-4.4h-1.14v-.441Z" transform="translate(-104.816 -148.685)"/>
        <path id="Path_56825" data-name="Path 56825" d="M136.45,165.186c0-1.539.832-2.5,1.93-2.5s1.939.924,1.939,2.5-.832,2.5-1.939,2.5S136.45,166.734,136.45,165.186Zm3.328,0c0-1.29-.582-2.005-1.423-2.005s-1.423.716-1.423,2.005.574,2.014,1.423,2.014,1.448-.716,1.448-2.014Z" transform="translate(-105.38 -148.669)"/>
        <path id="Path_56826" data-name="Path 56826" d="M143.228,162.78v4.843h-.458v-4.4h-1.14v-.441Z" transform="translate(-106.25 -148.685)"/>
      </g>
    </g>
    <g id="freepik--Character--inject-14" transform="translate(106.404 157.682)">
      <path id="Path_56827" data-name="Path 56827" d="M185.49,238.728a12.906,12.906,0,0,1,3.045-2.446,11.949,11.949,0,0,1,3.952-.832l.641,4.368a21.226,21.226,0,0,1-3.187,2.072,10.887,10.887,0,0,1-3.669.258Z" transform="translate(-137.551 -187.983)" fill="#ebb376"/>
      <path id="Path_56828" data-name="Path 56828" d="M153.826,227.45s5.716,8.221,7.888,9.652,17.682.283,17.682.283l.782,3.378s-15.909,2.9-19.254,1.123S149.2,230.828,149.2,230.828Z" transform="translate(-131.457 -186.64)" fill="#ebb376"/>
      <path id="Path_56829" data-name="Path 56829" d="M185.49,238.728a12.906,12.906,0,0,1,3.045-2.446,11.949,11.949,0,0,1,3.952-.832l.641,4.368a21.226,21.226,0,0,1-3.187,2.072,10.887,10.887,0,0,1-3.669.258Z" transform="translate(-137.551 -187.983)" opacity="0.2"/>
      <path id="Path_56830" data-name="Path 56830" d="M153.826,227.45s5.716,8.221,7.888,9.652,17.682.283,17.682.283l.782,3.378s-15.909,2.9-19.254,1.123S149.2,230.828,149.2,230.828Z" transform="translate(-131.457 -186.64)" opacity="0.2"/>
      <path id="Path_56831" data-name="Path 56831" d="M178.257,203.428a.216.216,0,0,1-.15-.058.2.2,0,0,1,0-.291,2.971,2.971,0,0,1,2.6-.682.208.208,0,0,1,.158.25.216.216,0,0,1-.241.158,2.621,2.621,0,0,0-2.222.566.216.216,0,0,1-.15.058Z" transform="translate(-136.301 -182.422)" fill="#263238"/>
      <path id="Path_56832" data-name="Path 56832" d="M179.573,206.83a11.441,11.441,0,0,0,1.39,2.371,1.481,1.481,0,0,1-1.473.491Z" transform="translate(-136.543 -183.177)" fill="#d58745"/>
      <path id="Path_56833" data-name="Path 56833" d="M180.651,204.964c0,.449-.291.832-.591.782a.737.737,0,0,1-.491-.832c.025-.433.291-.79.591-.774S180.676,204.523,180.651,204.964Z" transform="translate(-136.556 -182.726)" fill="#263238"/>
      <path id="Path_56834" data-name="Path 56834" d="M180.13,204.076l.99-.316S180.588,204.542,180.13,204.076Z" transform="translate(-136.651 -182.662)" fill="#263238"/>
      <path id="Path_56835" data-name="Path 56835" d="M164.362,211.431a.674.674,0,0,0,.158.15,7.946,7.946,0,0,0,2.621,1.764c2.879,1.1,4.992.974,6.482-.191h0c2.138-1.764,3.1-5.275,3.428-9.627a16.417,16.417,0,0,0-.25-5.167v-.275a5.949,5.949,0,0,0-3.836-4.16,12.557,12.557,0,0,0-2.5-.641C162.007,192.01,158.587,205.74,164.362,211.431Z" transform="translate(-133.522 -180.889)" fill="#ebb376"/>
      <path id="Path_56836" data-name="Path 56836" d="M165.13,215.217a7.888,7.888,0,0,0,2.638,1.664c2.879,1.1,4.992.832,6.5-.308a8.529,8.529,0,0,1-5.275-1.173,4.4,4.4,0,0,0-3.861-.183Z" transform="translate(-134.132 -184.525)" opacity="0.2"/>
      <path id="Path_56837" data-name="Path 56837" d="M166.61,190.005s5.825-.649,8.629,2.047c3.27,3.145,4.269,6.066-.624,9.719,0,0-9.028-4.368-12.257-4.16a34.2,34.2,0,0,0-5.608.832C156.958,192.111,163.615,188.266,166.61,190.005Z" transform="translate(-132.725 -180.282)" fill="#263238"/>
      <path id="Path_56838" data-name="Path 56838" d="M167.291,216.919a3.736,3.736,0,0,0-1.564,5.525l-12.157-3.4s5.766-2.5,6.232-6.573C159.8,212.467,166.193,211.951,167.291,216.919Z" transform="translate(-132.191 -184.121)" fill="#ebb376"/>
      <path id="Path_56839" data-name="Path 56839" d="M166.986,189.887s-1.431-9.552-8.778-9.328-8.229,7.9-3.628,11.191S166.437,195.478,166.986,189.887Z" transform="translate(-131.886 -178.765)" fill="#263238"/>
      <path id="Path_56840" data-name="Path 56840" d="M156.227,194.046s-6.224-1.207-6.457,4.285a4.576,4.576,0,0,1,2.4-2.08s-2.155,1.09-.749,3.944c0,0-.449-1.772,2.338-2.43s9.819.782,9.153-2.946S156.227,194.046,156.227,194.046Z" transform="translate(-131.553 -180.844)" fill="#263238"/>
      <path id="Path_56841" data-name="Path 56841" d="M166.952,189.509h0a.2.2,0,0,1-.191-.216c0-.058.233-5.558-2.779-8.537a7.114,7.114,0,0,0-5.675-1.889.208.208,0,0,1-.216-.191.216.216,0,0,1,.191-.225,7.489,7.489,0,0,1,5.991,2.014c3.145,3.1,2.912,8.62,2.9,8.853a.208.208,0,0,1-.225.191Z" transform="translate(-132.95 -178.404)" fill="#263238"/>
      <path id="Path_56842" data-name="Path 56842" d="M160.019,208.289a.191.191,0,0,1-.125,0c-.058-.042-5.908-4.6-3.769-9.619a.208.208,0,1,1,.383.158c-2.014,4.726,3.586,9.086,3.636,9.153a.225.225,0,0,1,0,.3.208.208,0,0,1-.125.008Z" transform="translate(-132.541 -181.782)" fill="#263238"/>
      <path id="Path_56843" data-name="Path 56843" d="M148.518,196.9h-.067a.208.208,0,0,1-.133-.258c1.248-3.878,7-2.746,7.056-2.738a.216.216,0,0,1,.166.25.208.208,0,0,1-.25.158c-.05,0-5.442-1.065-6.573,2.5A.208.208,0,0,1,148.518,196.9Z" transform="translate(-131.307 -180.981)" fill="#263238"/>
      <path id="Path_56844" data-name="Path 56844" d="M175.971,197.8a8.932,8.932,0,0,1-6.291,7.73s-3.245,5.825-6.79,5.4c-4.843-.549-8.138-8-5.508-14.744C160.794,187.422,174.615,188.579,175.971,197.8Z" transform="translate(-132.675 -180.386)" fill="#263238"/>
      <path id="Path_56845" data-name="Path 56845" d="M175.316,206.534c.125-.924-.4-2.571-1.856-2.554s-2.837,3.553.691,4.868C174.684,209.039,175.083,208.457,175.316,206.534Z" transform="translate(-135.274 -182.699)" fill="#ebb376"/>
      <path id="Path_56846" data-name="Path 56846" d="M179.77,391.5l3.944-1.082c-1.439-19.9-5.35-43.917-8.67-61.923-.516-2.821-1.015-5.492-1.506-7.98-.225-1.182-.449-2.313-.666-3.412-1.048-5.392-1.939-9.66-2.5-12.29-.408-1.922-.641-2.979-.641-2.979l-14.145,4.11,1.182,3.578,3.9,11.807.441,1.348,2.579,7.8,4.385,13.263C168.654,364.036,179.77,391.5,179.77,391.5Z" transform="translate(-132.53 -199.13)" fill="#ebb376"/>
      <path id="Path_56847" data-name="Path 56847" d="M141.413,390.253l4.077-.391c2.13-21.584,2.213-48.46,1.922-67.132-.05-2.9-.1-5.6-.158-8.046v-.358c-.125-4.868-.25-8.729-.341-11.175l-.116-2.971-14.686,1.664.915,6.107,1.331,8.978.266,1.756.915,6.124,2.455,16.4C135.13,361.3,141.413,390.253,141.413,390.253Z" transform="translate(-128.587 -198.853)" fill="#ebb376"/>
      <path id="Path_56848" data-name="Path 56848" d="M134.531,317.513l12.906-2.23v-.358c-.125-4.868-.25-8.729-.341-11.175l-13.9,4.784Z" transform="translate(-128.77 -199.452)" opacity="0.2"/>
      <path id="Path_56849" data-name="Path 56849" d="M172.039,312.308l-13.58,2.3-1.489-4.493,13.638-4.71C170.966,307.082,171.457,309.429,172.039,312.308Z" transform="translate(-132.762 -199.731)" opacity="0.2"/>
      <path id="Path_56850" data-name="Path 56850" d="M131.965,255.038s-8.8,20.577-.574,50.407l16.043-1.831v-7.1l2.5,6.465L167,299.82c-4.943-24.205-9.4-35.189-9.4-35.189l-1.2-12.182Z" transform="translate(-127.876 -190.838)" fill="#aa43d1"/>
      <path id="Path_56851" data-name="Path 56851" d="M140.856,407.378c0-.508,6.307-.108,6.307-.108s3.869,3.936,7.63,4.818,1.664,3.145-2.538,3.145h-10.4C138.834,415.233,140.7,412.687,140.856,407.378Z" transform="translate(-129.936 -216.81)" fill="#263238"/>
      <path id="Path_56852" data-name="Path 56852" d="M151.981,408.627a7.8,7.8,0,0,1-2.6-.832.167.167,0,0,1-.058-.05h0a.208.208,0,0,1,0-.125c0-.067.557-1.531,1.406-1.889a1,1,0,0,1,.832,0c.283.133.424.316.416.524s-.466.666-.982.94a2.613,2.613,0,0,1,1.415.15.682.682,0,0,1,.333.433.616.616,0,0,1-.15.666A.832.832,0,0,1,151.981,408.627Zm-2.03-.9c.924.391,2.08.741,2.371.491,0,0,.108-.083,0-.325a.316.316,0,0,0-.175-.225,4.16,4.16,0,0,0-2.2.058ZM151.074,406a.74.74,0,0,0-.258.05,2.8,2.8,0,0,0-1.073,1.356c.932-.358,1.831-.832,1.847-1.132,0-.083-.141-.166-.225-.208a.616.616,0,0,0-.291-.067Z" transform="translate(-131.475 -216.562)" fill="#aa43d1"/>
      <path id="Path_56853" data-name="Path 56853" d="M183.161,407.378c0-.508,6.307-.108,6.307-.108s3.869,3.936,7.63,4.818,1.664,3.145-2.546,3.145H184.16C181.172,415.233,183.036,412.687,183.161,407.378Z" transform="translate(-137.044 -216.81)" fill="#263238"/>
      <path id="Path_56854" data-name="Path 56854" d="M194.32,408.627a7.921,7.921,0,0,1-2.613-.832.054.054,0,0,1-.05-.05h0a.158.158,0,0,1,0-.125c0-.067.549-1.531,1.406-1.889a1,1,0,0,1,.832,0c.283.133.424.316.408.524s-.466.666-.974.94a2.579,2.579,0,0,1,1.406.15.7.7,0,0,1,.341.433.616.616,0,0,1-.15.666A.882.882,0,0,1,194.32,408.627Zm-2.03-.9c.924.391,2.08.741,2.371.491,0,0,.108-.083,0-.325a.358.358,0,0,0-.175-.225,4.16,4.16,0,0,0-2.2.058ZM193.413,406a.74.74,0,0,0-.258.05,2.812,2.812,0,0,0-1.082,1.356c.932-.358,1.839-.832,1.856-1.132,0-.083-.141-.166-.225-.208A.641.641,0,0,0,193.413,406Z" transform="translate(-138.584 -216.562)" fill="#aa43d1"/>
      <path id="Path_56855" data-name="Path 56855" d="M148.744,301.454v4.2c-16.758-7.006-12.606-23.756-12.606-23.756,1.073,6.432,8.437,8.82,8.437,8.82Z" transform="translate(-129.187 -195.783)" opacity="0.2"/>
      <path id="Path_56856" data-name="Path 56856" d="M139.33,260.582,152.86,262v-3.07l-13.13-1.306C139.621,258.369,139.463,259.6,139.33,260.582Z" transform="translate(-129.8 -191.706)" fill="#263238"/>
      <path id="Path_56857" data-name="Path 56857" d="M156.86,259.31v3.079l5.6.582v-3.1Z" transform="translate(-132.743 -191.99)" fill="#263238"/>
      <path id="Path_56858" data-name="Path 56858" d="M137.219,257.386l-5.683-.566-.716,2.887,5.866.607Z" transform="translate(-128.371 -191.572)" fill="#263238"/>
      <path id="Path_56859" data-name="Path 56859" d="M141.37,269.45h6.981l.741,6.948-3.861,3-3.861-2.388Z" transform="translate(-130.142 -193.693)" opacity="0.2"/>
      <path id="Path_56860" data-name="Path 56860" d="M132.378,268.08,132,276.168l-2.5,3.412a19.556,19.556,0,0,1-1.489-1.423,79.985,79.985,0,0,1,1.157-10.077Z" transform="translate(-127.899 -193.462)" opacity="0.2"/>
      <path id="Path_56861" data-name="Path 56861" d="M207.72,252.546a13.013,13.013,0,0,1,3.5-1.731,12,12,0,0,1,4.052,0l-.316,4.4a20.8,20.8,0,0,1-3.561,1.34,10.88,10.88,0,0,1-3.636-.549Z" transform="translate(-141.284 -190.534)" fill="#ebb376"/>
      <path id="Path_56862" data-name="Path 56862" d="M153,311.27s.333,2.3.882,1.864,17.99-3.17,17.99-3.17V307.65Z" transform="translate(-132.095 -200.107)" fill="#aa43d1"/>
      <path id="Path_56863" data-name="Path 56863" d="M153,311.27s.333,2.3.882,1.864,17.99-3.17,17.99-3.17V307.65Z" transform="translate(-132.095 -200.107)" fill="#fff" opacity="0.7"/>
      <path id="Path_56864" data-name="Path 56864" d="M131.46,315.029s.3,2.322.79,1.9,16.134-2.6,16.134-2.6V312Z" transform="translate(-128.478 -200.837)" fill="#aa43d1"/>
      <path id="Path_56865" data-name="Path 56865" d="M131.46,315.029s.3,2.322.79,1.9,16.134-2.6,16.134-2.6V312Z" transform="translate(-128.478 -200.837)" fill="#fff" opacity="0.7"/>
      <path id="Path_56866" data-name="Path 56866" d="M132.79,249.377l24.962,2.8,12.4-27.95s-8.637-7.439-24.621-4.992C145.521,219.2,139.788,221.743,132.79,249.377Z" transform="translate(-128.702 -185.177)" fill="#263238"/>
      <path id="Path_56867" data-name="Path 56867" d="M179.24,234.62s3.811,9.269,5.617,11.133,17.2,4.1,17.2,4.1l.042,3.461s-16.167-.6-19.046-3.062-9.061-13.313-9.061-13.313Z" transform="translate(-135.62 -187.844)" fill="#ebb376"/>
      <path id="Path_56868" data-name="Path 56868" d="M176.085,225.33c1.856,1.972,3.9,10.925,3.9,10.925H171.1l-2.921-4.826a14.1,14.1,0,0,1,3.927-3.878A21.535,21.535,0,0,1,176.085,225.33Z" transform="translate(-134.644 -186.284)" fill="#263238"/>
    </g>
  </g>
</svg>
