<svg xmlns="http://www.w3.org/2000/svg" width="304.884" height="275" viewBox="0 0 304.884 275">
  <g id="Team_work-amico" data-name="Team work-amico" transform="translate(-4.484 -24.402)">
    <g id="freepik--Sign--inject-36" transform="translate(24.268 26.888)">
      <g id="freepik--Placard--inject-36">
        <path id="Path_61291" data-name="Path 61291" d="M0,82.375V41.866L72.665,0l1.1.629V41.052" transform="translate(6.088 3.683)" fill="#37474f"/>
        <g id="freepik--Tape--inject-36" transform="translate(74.546)">
          <path id="Path_61298" data-name="Path 61298" d="M4.213,13.262l-.808.395-.037-1.1-.8.395-.037-1.092-.8.395-.043-1.092-.8.389L.845,10.462l-.8.395L0,9.765,4.836.389,5.638,0l.037,1.092L6.483.7,6.52,1.789l.8-.395.037,1.092L8.167,2.1,8.2,3.189l.8-.395.037,1.092Z" transform="translate(0)" fill="#ba6dd7"/>
          <path id="Path_61299" data-name="Path 61299" d="M4.213,13.262l-.808.395-.037-1.1-.8.395-.037-1.092-.8.395-.043-1.092-.8.389L.845,10.462l-.8.395L0,9.765,4.836.389,5.638,0l.037,1.092L6.483.7,6.52,1.789l.8-.395.037,1.092L8.167,2.1,8.2,3.189l.8-.395.037,1.092Z" transform="translate(0)" fill="#fff" opacity="0.8"/>
        </g>
        <g id="freepik--tape--inject-36-2" data-name="freepik--tape--inject-36" transform="translate(0 38.128)">
          <path id="Path_61300" data-name="Path 61300" d="M.216,5.687,0,4.682l.759-.136L.543,3.541l.759-.13L1.086,2.406l.759-.136L1.628,1.265l.759-.13L2.177.13,2.936,0l8.951,8.007L12.1,9.012l-.759.13.216,1.005-.759.136.216,1.005-.765.13.216,1.005-.759.136.216,1.005-.759.13Z" fill="#ba6dd7"/>
          <path id="Path_61301" data-name="Path 61301" d="M.216,5.687,0,4.682l.759-.136L.543,3.541l.759-.13L1.086,2.406l.759-.136L1.628,1.265l.759-.13L2.177.13,2.936,0l8.951,8.007L12.1,9.012l-.759.13.216,1.005-.759.136.216,1.005-.765.13.216,1.005-.759.136.216,1.005-.759.13Z" fill="#fff" opacity="0.8"/>
        </g>
        <path id="logo" d="M10.824,52.343,3.765,37.325l3.072-1.763,6.037,12.892,6.49-3.772.982,2.115Zm18.319-10.2q-2.25,1.311-4.362,1.322t-3.827-1.291q-1.714-1.306-2.779-3.6t-1.032-4.625q.03-2.336,1.277-4.283t3.5-3.239q2.239-1.285,4.37-1.281t3.828,1.331q1.7,1.324,2.738,3.609t1,4.6q-.04,2.307-1.255,4.229T29.143,42.145ZM28.205,40.1q2.083-1.211,2.294-3.56t-.828-4.624q-1.046-2.289-2.877-3.458t-3.925.029q-2.1,1.209-2.322,3.568t.84,4.65q1.052,2.277,2.889,3.446T28.205,40.1ZM50.113,29.02q-1.664,1.613-2.483,2.222t-1.787,1.174q-4,2.328-6.819,1.176t-4.381-4.564q-1.015-2.234-1.02-4.486t1.171-4.216q1.175-1.961,3.968-3.563,2.351-1.349,4.918-2.1l1.092,2.441q-2.25.416-3.159.773t-1.683.8q-2.517,1.447-2.858,3.789t.752,4.755q1.191,2.631,3.194,3.425t4.352-.577q.509-.3,1.122-.842l-2.2-4.9,2.959-1.712Zm9.869-4.841q-2.189,1.275-4.237,1.266t-3.7-1.315q-1.654-1.309-2.672-3.593T48.4,15.948q.043-2.312,1.264-4.227t3.412-3.172q2.179-1.25,4.244-1.225t3.7,1.355q1.638,1.327,2.633,3.6T64.6,16.84q-.052,2.283-1.242,4.174T59.982,24.179Zm-.9-2.029q2.027-1.179,2.246-3.5t-.775-4.585q-1-2.276-2.769-3.451T53.982,10.6q-2.046,1.176-2.272,3.51t.786,4.611q1.006,2.264,2.78,3.44T59.085,22.149Z" transform="translate(7.881 16.5)" fill="#fafafa"/>
      </g>
    </g>
    <g id="freepik--Floor--inject-36" transform="translate(4.484 121.658)">
      <path id="freepik--floor--inject-36-2" data-name="freepik--floor--inject-36" d="M49.132,331.277c-59.528-34.368-59.534-90.1,0-124.464s156.051-34.374,215.585,0,59.534,90.1,0,124.464S108.666,365.663,49.132,331.277Z" transform="translate(-4.484 -181.034)" fill="rgba(186,104,200,0.31)"/>
    </g>
    <g id="freepik--Shadows--inject-36" transform="translate(22.695 120.744)">
      <path id="freepik--shadow--inject-36" d="M53.149,396.985l5.713-3.31a6.874,6.874,0,0,1,6.209,0l1.993,1.149,7.451-4.291a2.707,2.707,0,0,1,2.434,0l.05.031a.739.739,0,0,1,0,1.4l-7.451,4.291.416.236c1.72.993,1.72,2.608,0,3.608l-5.713,3.31-8.32,4.812L44.81,401.8Z" transform="translate(-37.982 -259.426)" fill="#e0e0e0"/>
      <path id="freepik--shadow--inject-36-2" data-name="freepik--shadow--inject-36" d="M108.315,402.915a1.3,1.3,0,0,0-.1-.168l-.068-.106-.081-.112-.192-.248c-.075-.087-.161-.18-.255-.273a5.938,5.938,0,0,0-.671-.577l-.124-.081h0l-.112-.062a4.52,4.52,0,0,0-1.664-.577l-.292-.031h-.969a1.12,1.12,0,0,0-.192.056h0a2.237,2.237,0,0,0-.261.1h0a3.451,3.451,0,0,0-.466.255,4.968,4.968,0,0,0-.844.708c-.118.124-.224.248-.323.373s-.267.379-.379.559a3.622,3.622,0,0,0-.2.373l-.093.18c-.112.236-.211.466-.3.671-.4.192-16.852,9.637-20.453,11.847h0l-.459.286a83.05,83.05,0,0,0-10.152,7.979h0l-.062.068a.416.416,0,0,0,.1.59.422.422,0,0,0,.373.062h0A76.563,76.563,0,0,0,81.6,419.078c3.806-2.372,19.584-12.884,20.217-13.387a4.558,4.558,0,0,0,2.552-.137,4.483,4.483,0,0,0,2.086-1.571h0a2.967,2.967,0,0,1,.459-.466,1.826,1.826,0,0,1,1.49-.447,1.539,1.539,0,0,0-.087-.155Z" transform="translate(-47.349 -263.382)" fill="#e0e0e0"/>
      <path id="freepik--shadow--inject-36-3" data-name="freepik--shadow--inject-36" d="M78.095,411.148a90.1,90.1,0,0,0-9.041,9.215h0a.777.777,0,0,0-.056.074.422.422,0,0,0,.553.584h0A76.018,76.018,0,0,0,80.274,413.9c2.571-2.111,5-4.415,6.588-5.973h0c.671-.621,1.3-1.242,1.863-1.863h0a4.558,4.558,0,0,0,2.484-.466,4.483,4.483,0,0,0,1.912-1.919h0a3.1,3.1,0,0,1,.4-.522,1.819,1.819,0,0,1,1.416-.621l-.093-.137-.124-.155-.081-.093-.093-.1h0l-.224-.224c-.087-.075-.18-.155-.286-.236a4.836,4.836,0,0,0-.745-.484l-.124-.068h-.037l-.118-.05a4.564,4.564,0,0,0-1.726-.36H91l-.292.031a2.2,2.2,0,0,0-.292.062h-.13l-.106.037h-.13l-.186.081h0l-.242.13h0a2.538,2.538,0,0,0-.428.317,4.739,4.739,0,0,0-.751.807c-.1.137-.186.273-.267.41a4.279,4.279,0,0,0-.3.621c-.056.13-.112.261-.155.385s-.043.13-.062.192c-.087.248-.155.491-.217.708C86.788,404.9,81.684,408.156,78.095,411.148Z" transform="translate(-47.132 -263.363)" fill="#e0e0e0"/>
      <path id="freepik--shadow--inject-36-4" data-name="freepik--shadow--inject-36" d="M37.518,381.854c4.967,2.85,12.952,2.85,17.889,0s4.967-7.451,0-10.326-12.946-2.856-17.889,0S32.582,379,37.518,381.854Z" transform="translate(-33.814 -251.516)" fill="#e0e0e0"/>
      <path id="freepik--shadow--inject-36-5" data-name="freepik--shadow--inject-36" d="M424.8,387.1a6.612,6.612,0,0,1-1.8-.261c-1.763-.5-2.31-1.416-2.484-2.1a3.185,3.185,0,0,1,1.192-2.912c.273-.23.621-.472.919-.726a7.52,7.52,0,0,0,2.161-2.1l1.2-3.074-.907-.522.192-.453-.938.2-.422-.565c-.938.453-3.241,1.571-6.327,3.1l-1.832.931a17.385,17.385,0,0,1-4.129,1.739,7.166,7.166,0,0,1-1.639.2,3.328,3.328,0,0,1-2.564-.931,2.546,2.546,0,0,1-.571-2.092c.323-2.894,5.967-5.421,8.9-5.688.962-.087,1.863-.124,2.856-.124h2.844c1.111-.106,4.564-.739,4.595-.745l.379-.075.23.31.863-.168c1.143-.807,9.86-6.992,11.922-8.407,1.285-.882,3.589-2.279,4.284-2.279h.379l.23.348.174.329-.23.391a17.317,17.317,0,0,1-3.3,3.775c-.733.584-2.856,2.384-4.967,4.191l15.933-3.1-.7,1.192c-.193.329-1.242,1.279-6.607,2.869-3.235.95-9.146,2.322-13.6,3.316l-.72.621c-.05.795-.211,3.21-.317,4.471a4.775,4.775,0,0,0,.23,1.509,4.3,4.3,0,0,1-.267,3.726,6.209,6.209,0,0,1-5.16,3.117Zm1.124-4.595a2.912,2.912,0,0,0-2.093.82.745.745,0,0,0-.211.621.963.963,0,0,0,.7.522,2.569,2.569,0,0,0,.708.093,2.912,2.912,0,0,0,2.092-.82.745.745,0,0,0,.211-.621.962.962,0,0,0-.7-.522,2.569,2.569,0,0,0-.708-.112Zm-8.165-8.469a11.234,11.234,0,0,0-3.44.621c-3.061,1.006-4.024,2.26-4.346,2.918-.043.081-.124.292-.05.4a.621.621,0,0,0,.509.18,1.314,1.314,0,0,0,.3-.037,4.756,4.756,0,0,0,1.583-.764,20.113,20.113,0,0,1,1.925-1.093,36.976,36.976,0,0,1,4.967-2h.05a5.626,5.626,0,0,0-1.5-.224Z" transform="translate(-175.207 -248.094)" fill="#e0e0e0"/>
      <path id="freepik--shadow--inject-36-6" data-name="freepik--shadow--inject-36" d="M442.021,207.154l-46.967-27.19a2.484,2.484,0,0,0-1.782-.366l-.453.255a1.074,1.074,0,0,0,.5,1.211l16.262,9.475-16.219,9.649-16.659-9.7c-.727-.416-1.484-.795-2.211-.373h0c-.726.416-.553.776.174,1.2l46.8,27.637Z" transform="translate(-162.781 -179.561)" fill="#e0e0e0"/>
    </g>
    <g id="freepik--paint-pot--inject-36" transform="translate(22.119 221.502)">
      <g id="freepik--paint-pot--inject-36-2" data-name="freepik--paint-pot--inject-36">
        <path id="Path_61208" data-name="Path 61208" d="M58.582,351.756,37.47,351.47l-.18,17.256h0c0,1.565,1,3.136,3.049,4.346a16.566,16.566,0,0,0,14.946.161c2.093-1.18,3.142-2.751,3.142-4.346Z" transform="translate(-34.555 -345.485)" fill="#37474f"/>
        <path id="Path_61209" data-name="Path 61209" d="M40.692,343.538c-4.154,2.341-4.191,6.209-.093,8.631a16.586,16.586,0,0,0,14.946.161c4.154-2.322,4.2-6.209.093-8.631A16.528,16.528,0,0,0,40.692,343.538Z" transform="translate(-34.654 -341.832)" fill="#455a64"/>
        <path id="Path_61210" data-name="Path 61210" d="M58.334,348.592a2.577,2.577,0,0,1-.149.826,5.123,5.123,0,0,1-2.533,2.67,14.418,14.418,0,0,1-7.035,1.583,14.281,14.281,0,0,1-6.992-1.732,5.122,5.122,0,0,1-2.446-2.67,2.533,2.533,0,0,1-.149-.882c0-1.292.962-2.533,2.676-3.49a14.138,14.138,0,0,1,7.029-1.583,14.281,14.281,0,0,1,7,1.739C57.428,346.053,58.347,347.3,58.334,348.592Z" transform="translate(-35.215 -342.39)" fill="#263238"/>
        <path id="Path_61211" data-name="Path 61211" d="M58.277,350.458a5.123,5.123,0,0,1-2.533,2.67,14.418,14.418,0,0,1-7.035,1.583,14.281,14.281,0,0,1-6.992-1.732,5.122,5.122,0,0,1-2.446-2.67,5.067,5.067,0,0,1,2.527-2.658,14.281,14.281,0,0,1,7.029-1.6,14.455,14.455,0,0,1,7,1.745,5.191,5.191,0,0,1,2.453,2.658Z" transform="translate(-35.306 -343.43)" fill="#ba6dd7"/>
        <path id="Path_61212" data-name="Path 61212" d="M55.743,353.364a7.828,7.828,0,0,0,.962-.621c-3.856,2.068-10.494,1.2-12.561-.428s-2.347-4.4,1.018-5.644a12,12,0,0,0-3.365,1.242,5.067,5.067,0,0,0-2.527,2.658,5.122,5.122,0,0,0,2.446,2.67,14.281,14.281,0,0,0,6.992,1.708,14.418,14.418,0,0,0,7.035-1.583Z" transform="translate(-35.306 -343.666)" opacity="0.15"/>
        <path id="Path_61213" data-name="Path 61213" d="M61.3,362.273c.459-.261.832-.037.826.491a1.863,1.863,0,0,1-.851,1.441c-.459.261-.832.037-.826-.491A1.863,1.863,0,0,1,61.3,362.273Z" transform="translate(-43.335 -349.539)" fill="#263238"/>
        <path id="Path_61214" data-name="Path 61214" d="M35.745,355.3c-1.161,2.285-3.471,7.737-.472,9.935.124.093.242.174.366.255V366.6a9.4,9.4,0,0,1-.907-.621c-4.483-3.328.577-11.86.795-12.214a.4.4,0,0,1,.255-.192Z" transform="translate(-32.886 -346.281)" fill="#e0e0e0"/>
        <path id="Path_61215" data-name="Path 61215" d="M52.909,363.831c-.124.267-3.39,6.513-8.761,7.762a7.546,7.546,0,0,1-1.863.224,9.376,9.376,0,0,1-5-1.565v-1.105a8.179,8.179,0,0,0,6.638,1.565c4.967-1.161,8.128-7.246,8.153-7.3a.466.466,0,0,1,.621-.2.447.447,0,0,1,.217.621Z" transform="translate(-34.551 -349.917)" fill="#e0e0e0"/>
      </g>
    </g>
    <g id="freepik--Pencil--inject-36" transform="translate(175.514 235.877)">
      <g id="freepik--pencil--inject-36-2" data-name="freepik--pencil--inject-36">
        <path id="freepik--shadow--inject-36-7" data-name="freepik--shadow--inject-36" d="M280.221,411.548a8.059,8.059,0,0,0,4.446,2.291,5.036,5.036,0,0,0,3.1-.559L348.56,377.77l7.165-7.234a.553.553,0,0,0-.565-.913l-13.139,4.346-61.173,35.293A1.558,1.558,0,0,0,280.221,411.548Z" transform="translate(-279.929 -366.731)" opacity="0.1"/>
        <path id="Path_61216" data-name="Path 61216" d="M380.7,367.364l11.692-2.291a.366.366,0,0,1,.341.621l-7.929,8.985Z" transform="translate(-318.129 -365.013)" fill="#ffa8a7"/>
        <path id="Path_61217" data-name="Path 61217" d="M398.48,365.614a.366.366,0,0,0-.342-.621l-2.279.447h0a2.018,2.018,0,0,1,.944,1.863v.2Z" transform="translate(-323.875 -364.982)" fill="#263238"/>
        <path id="Path_61218" data-name="Path 61218" d="M302.7,405.29l.956-.546,1.155-.658,48.848-28.022a5.284,5.284,0,0,0-.329-3.875c-.826-1.863-2.434-3.322-3.769-3.409l-48.823,28.01-2.2,1.242C300,397.312,304.162,404.533,302.7,405.29Z" transform="translate(-286.98 -366.422)" fill="#ba6dd7"/>
        <path id="Path_61219" data-name="Path 61219" d="M308.555,419.04l2.136-1.242c.621-.335.267-1.863-.466-3.483-.975-2.13-2.894-4.191-3.726-3.726l-1.577.907-.553.329c.832-.441,2.757,1.621,3.726,3.726.7,1.534,1.062,3.024.528,3.434h0Z" transform="translate(-289.194 -382.246)" fill="#ebebeb"/>
        <path id="Path_61220" data-name="Path 61220" d="M308.13,419.292c1.465-.776-2.732-8-4.2-7.228l-2.142,1.242c1.465-.776,5.663,6.451,4.2,7.228Z" transform="translate(-288.216 -382.808)" fill="#ba6dd7"/>
        <path id="Path_61221" data-name="Path 61221" d="M302.7,422.377l2.111-1.2c1.447-.751-2.546-7.762-4.073-7.3a.3.3,0,0,0-.087.031l-2.117,1.242C300,414.4,304.162,421.619,302.7,422.377Z" transform="translate(-286.98 -383.508)" fill="#ebebeb"/>
        <path id="Path_61222" data-name="Path 61222" d="M363.35,365.285l-.4-.2-8.482,4.645-51.226,29.395c-.087-.13-.155-.137-.2-.05,1.242,1.943,2.186,4.4,1.366,4.818l.956-.546,1.155-.658,48.848-28.022h0l7.929-9.01A.341.341,0,0,0,363.35,365.285Z" transform="translate(-288.69 -365.019)" opacity="0.15"/>
        <path id="Path_61223" data-name="Path 61223" d="M287.757,428.258l8.966-5.129c.621-.323.279-1.863-.447-3.452-.969-2.13-2.875-4.21-3.726-3.781h0l-9.016,5.147c-1.782,1.031-.143,4.911,1.863,6.644A2.106,2.106,0,0,0,287.757,428.258Z" transform="translate(-281.006 -384.261)" fill="#f28f8f"/>
        <path id="Path_61224" data-name="Path 61224" d="M288.31,428.613c-.515-2.024-2.155-4-3.657-4.427a1.453,1.453,0,0,0-1.341.18c-1.347,1.242.217,4.812,2.1,6.451a2.155,2.155,0,0,0,2.31.59C288.4,431.016,288.657,429.979,288.31,428.613Z" transform="translate(-281.019 -387.391)" opacity="0.1"/>
      </g>
    </g>
    <g id="freepik--Brushes--inject-36" transform="translate(31.665 248.925)">
      <g id="freepik--Brush--inject-36" transform="translate(12.138 5.97)">
        <g id="freepik--brush--inject-36-2" data-name="freepik--brush--inject-36">
          <path id="Path_61225" data-name="Path 61225" d="M86.127,404.407h0a108.047,108.047,0,0,0-9.252,6.83,76.423,76.423,0,0,0-8.985,9.2h0a.416.416,0,0,0-.062.373.422.422,0,0,0,.534.273.262.262,0,0,0,.087-.037h0a82.345,82.345,0,0,0,10.723-7.184A109.142,109.142,0,0,0,87.456,406h0a.546.546,0,0,0,.093-.472,1.608,1.608,0,0,0-.938-1.111A.54.54,0,0,0,86.127,404.407Z" transform="translate(-67.809 -398.924)" fill="#ba6dd7"/>
          <path id="Path_61226" data-name="Path 61226" d="M68.373,422.328a.262.262,0,0,0,.087-.037h0a82.348,82.348,0,0,0,10.723-7.184c2.869-2.415,5.632-5.16,7.134-6.706l-.981-.851s-17.212,14.772-17.467,14.5A.422.422,0,0,0,68.373,422.328Z" transform="translate(-67.832 -400.136)" opacity="0.1"/>
          <path id="Path_61227" data-name="Path 61227" d="M98.39,402.48a6.226,6.226,0,0,0,3.341-1.7,1.665,1.665,0,0,1-.279-.522c-.23-.727.3-1.068.186-1.633s-1.161-.484-1.167-.478h0a4.458,4.458,0,0,0-2.242,1.521,4.558,4.558,0,0,0-.919,2.384l1.329,1.59h0Z" transform="translate(-78.992 -396.568)" fill="#455a64"/>
          <path id="Path_61228" data-name="Path 61228" d="M103.074,403.713c.118-.677-.335-.876-.683-1.323a6.226,6.226,0,0,1-3.341,1.7l.248,1.143c.23-.031.478-.05.739-.087l.2-.031.41-.075a5.79,5.79,0,0,0,.621-.186c.149-.056.3-.118.453-.192a4.872,4.872,0,0,0,.931-.584A3.169,3.169,0,0,0,103.074,403.713Z" transform="translate(-79.652 -398.18)" fill="#37474f"/>
          <path id="Path_61229" data-name="Path 61229" d="M104.336,401.148a1.9,1.9,0,0,0,.174-.217h0l.112-.168.037-.068v-.056a.678.678,0,0,0,.05-.093l.062-.124.112-.273c.031-.093.062-.186.087-.279s.043-.193.062-.286a4.582,4.582,0,0,0-.037-1.763v-.155l-.037-.143a5.373,5.373,0,0,0-.335-.813,3.727,3.727,0,0,0-.186-.323,2.483,2.483,0,0,0-.18-.267c0-.043-.056-.075-.081-.112l-.075-.093-.13-.149-.118-.124a1.819,1.819,0,0,1-.882,1.279,3.491,3.491,0,0,1-.59.3s1.049-.087,1.167.478-.416.907-.186,1.633a1.665,1.665,0,0,0,.279.522c.348.447.8.621.683,1.323Z" transform="translate(-80.914 -395.621)" fill="#ba6dd7"/>
          <path id="Path_61230" data-name="Path 61230" d="M104.641,395.61a4.769,4.769,0,0,1,.161,3.5,2.235,2.235,0,0,1-.373.714c.348.447.8.621.683,1.323h0a1.909,1.909,0,0,0,.174-.217h0l.112-.168.037-.068v-.056a.678.678,0,0,0,.05-.093l.062-.124.112-.273c.031-.093.062-.186.087-.279s.043-.193.062-.286a4.583,4.583,0,0,0-.037-1.763v-.155l-.037-.143a5.37,5.37,0,0,0-.335-.813,3.725,3.725,0,0,0-.186-.323,2.486,2.486,0,0,0-.18-.267c0-.043-.056-.075-.081-.112l-.075-.093-.13-.149-.118-.124Z" transform="translate(-81.691 -395.61)" opacity="0.1"/>
          <path id="Path_61231" data-name="Path 61231" d="M97.316,406a.546.546,0,0,0,.093-.472,1.608,1.608,0,0,0-.938-1.111.54.54,0,0,0-.484,0c-.7.422-1.422.919-2.167,1.465a.683.683,0,0,1,.621,0,2.024,2.024,0,0,1,1.186,1.36.621.621,0,0,1-.143.621C96.2,407.141,96.869,406.458,97.316,406Z" transform="translate(-77.669 -398.926)" fill="#ebebeb"/>
          <path id="Path_61232" data-name="Path 61232" d="M96,406.655a1.974,1.974,0,0,1,.484.919.621.621,0,0,1-.143.621c.714-.733,1.385-1.416,1.863-1.863a.546.546,0,0,0,.093-.472,1.5,1.5,0,0,0-.341-.671h0Z" transform="translate(-78.495 -399.242)" fill="#e0e0e0"/>
        </g>
      </g>
      <g id="freepik--brush--inject-36-3" data-name="freepik--brush--inject-36" transform="translate(13.225 5.504)">
        <g id="freepik--brush--inject-36-4" data-name="freepik--brush--inject-36">
          <path id="Path_61233" data-name="Path 61233" d="M100.537,402.625h0s-15.952,9.45-20.77,12.53a76.211,76.211,0,0,0-10.1,7.973h0a.416.416,0,0,0-.106.36.422.422,0,0,0,.491.341h.093a82.325,82.325,0,0,0,11.562-5.756c4.688-3.011,19.944-13.716,19.944-13.716h0a.547.547,0,0,0,.155-.453,1.608,1.608,0,0,0-.789-1.242A.54.54,0,0,0,100.537,402.625Z" transform="translate(-69.559 -397.788)" fill="#ba6dd7"/>
          <path id="Path_61234" data-name="Path 61234" d="M99.463,405.57l.807.888c-3.726,2.6-13.89,9.7-18.081,12.418h0l-.453.292a82.321,82.321,0,0,1-11.562,5.756h-.093a.422.422,0,0,1-.491-.342C69.789,424.937,99.463,405.57,99.463,405.57Z" transform="translate(-69.571 -398.92)" opacity="0.1"/>
          <path id="Path_61235" data-name="Path 61235" d="M120.453,401.111a6.3,6.3,0,0,0,3.527-1.242,1.534,1.534,0,0,1-.211-.553c-.137-.751.441-1.018.4-1.6s-1.087-.621-1.1-.621h0a4.483,4.483,0,0,0-2.415,1.242,4.539,4.539,0,0,0-1.242,2.248l1.111,1.726h0Z" transform="translate(-88.456 -395.709)" fill="#455a64"/>
          <path id="Path_61236" data-name="Path 61236" d="M125.126,402.927c.2-.621-.224-.907-.509-1.4a5.926,5.926,0,0,1-3.527,1.242l.093,1.161h1.366a3.4,3.4,0,0,0,.671-.106,3.874,3.874,0,0,0,.472-.13,5.222,5.222,0,0,0,1-.46A2.521,2.521,0,0,0,125.126,402.927Z" transform="translate(-89.093 -397.388)" fill="#37474f"/>
          <path id="Path_61237" data-name="Path 61237" d="M126.724,400.41l.192-.192h0c.05-.05.093-.106.137-.155l.05-.062a.346.346,0,0,0,0-.05,1.062,1.062,0,0,0,.068-.087,1.083,1.083,0,0,0,.068-.112,2.787,2.787,0,0,0,.149-.261c.043-.087.087-.174.124-.267a2.369,2.369,0,0,0,.093-.273,4.633,4.633,0,0,0,.2-1.751.932.932,0,0,1,0-.124v-.037a.979.979,0,0,0,0-.143,4.745,4.745,0,0,0-.23-.857c-.043-.124-.093-.236-.137-.342s-.1-.2-.143-.286a.813.813,0,0,0-.068-.124l-.062-.106-.112-.161-.1-.13a1.826,1.826,0,0,1-1.043,1.155,3.045,3.045,0,0,1-.621.211s1.056.05,1.1.621-.534.844-.4,1.6a1.534,1.534,0,0,0,.211.553c.286.491.714.745.509,1.4Z" transform="translate(-90.685 -394.871)" fill="#ba6dd7"/>
          <path id="Path_61238" data-name="Path 61238" d="M127.541,394.86a4.756,4.756,0,0,1-.286,3.483,2.29,2.29,0,0,1-.466.658c.286.491.714.745.509,1.4h0l.192-.193h0c.05-.05.093-.106.137-.155l.05-.062a.348.348,0,0,0,0-.05,1.06,1.06,0,0,0,.068-.087,1.083,1.083,0,0,0,.068-.112,2.79,2.79,0,0,0,.149-.261c.043-.087.087-.174.124-.267a2.364,2.364,0,0,0,.093-.273,4.632,4.632,0,0,0,.2-1.751.934.934,0,0,1,0-.124v-.037a.979.979,0,0,0,0-.143,4.744,4.744,0,0,0-.23-.857c-.043-.124-.093-.236-.137-.341s-.1-.2-.143-.286a.814.814,0,0,0-.068-.124l-.062-.106-.112-.161-.1-.13Z" transform="translate(-91.254 -394.86)" opacity="0.1"/>
          <path id="Path_61239" data-name="Path 61239" d="M119.121,404.344a.546.546,0,0,0,.155-.453,1.608,1.608,0,0,0-.789-1.242.54.54,0,0,0-.478-.05,22.983,22.983,0,0,0-2.36,1.4c.155-.087.4-.3.621-.168a2.012,2.012,0,0,1,.993,1.546c0,.279-.242.4-.391.509C117.693,405.275,118.618,404.766,119.121,404.344Z" transform="translate(-87.031 -397.781)" fill="#ebebeb"/>
          <path id="Path_61240" data-name="Path 61240" d="M117.681,404.808a1.919,1.919,0,0,1,.36.969c0,.279-.242.4-.391.509a23.378,23.378,0,0,0,2.229-1.565.553.553,0,0,0,.155-.453,1.521,1.521,0,0,0-.248-.708h0l-2.08,1.242Z" transform="translate(-87.789 -398.158)" fill="#e0e0e0"/>
        </g>
      </g>
      <g id="freepik--brush--inject-36-5" data-name="freepik--brush--inject-36">
        <path id="Path_61241" data-name="Path 61241" d="M75.737,395.114,86.522,388.9a.813.813,0,0,0,.335-.745,2.546,2.546,0,0,0-1.149-2.006.8.8,0,0,0-.82-.081L74.11,392.282Z" transform="translate(-58.059 -385.996)" fill="#455a64"/>
        <path id="Path_61242" data-name="Path 61242" d="M76.879,393.54l3.272,1.894-4.415,2.54-1.627-2.831Z" transform="translate(-58.059 -388.856)" fill="#37474f"/>
        <path id="Path_61243" data-name="Path 61243" d="M58.86,398.372l2.192-1.242-2.192-1.242,4.508-2.608a5.427,5.427,0,0,1,4.918,0l3.85,2.229a1.8,1.8,0,0,1,1.012,1.335v2.7a1.757,1.757,0,0,1-1.012,1.341l-4.5,2.552Z" transform="translate(-52.278 -388.534)" fill="#37474f"/>
        <path id="Path_61244" data-name="Path 61244" d="M72.12,395.43,68.246,393.2a5.427,5.427,0,0,0-4.918,0l-4.508,2.608,8.8,5.073,4.514-2.608C73.474,397.491,73.474,396.218,72.12,395.43Z" transform="translate(-52.263 -388.504)" fill="#455a64"/>
        <path id="Path_61245" data-name="Path 61245" d="M63.6,402.833l-8.761-5.073-6.582,3.788,8.767,5.073Z" transform="translate(-48.26 -390.456)" fill="#f0f0f0"/>
        <path id="Path_61246" data-name="Path 61246" d="M68.952,405.93l-6.576,3.788-.006,2.533,6.582-3.788Z" transform="translate(-53.609 -393.553)" fill="#ebebeb"/>
        <path id="Path_61247" data-name="Path 61247" d="M70.771,400.695l-8.761-5.073.894-.522,8.811,5.048Z" transform="translate(-53.472 -389.447)" fill="#ba6dd7"/>
        <path id="Path_61248" data-name="Path 61248" d="M76.12,403.776v2.533l.944-.546V403.23Z" transform="translate(-58.821 -392.529)" fill="#ba6dd7"/>
        <path id="Path_61249" data-name="Path 61249" d="M76.12,403.776v2.533l.944-.546V403.23Z" transform="translate(-58.821 -392.529)" opacity="0.1"/>
        <path id="Path_61250" data-name="Path 61250" d="M64.386,412.506s1.2-1.546.559-2.856l-2.564,1.459v2.533Z" transform="translate(-53.613 -394.963)" fill="#ba6dd7"/>
        <path id="Path_61251" data-name="Path 61251" d="M64.386,412.506s1.2-1.546.559-2.856l-2.564,1.459v2.533Z" transform="translate(-53.613 -394.963)" opacity="0.1"/>
        <path id="Path_61252" data-name="Path 61252" d="M59.592,405.761a3.1,3.1,0,0,0-1.794-2.409c-1.2-.515-3.726.534-4.787-1.18a3.183,3.183,0,0,1,.075-2.782l-4.825,2.776,8.767,5.054Z" transform="translate(-48.26 -391.073)" fill="#ba6dd7"/>
        <path id="Path_61253" data-name="Path 61253" d="M48.26,403.86v2.533l8.761,5.073.006-2.533Z" transform="translate(-48.26 -392.768)" fill="#ba6dd7"/>
        <path id="Path_61254" data-name="Path 61254" d="M48.26,403.86v2.533l8.761,5.073.006-2.533Z" transform="translate(-48.26 -392.768)" opacity="0.15"/>
      </g>
    </g>
    <g id="freepik--Scissors--inject-36" transform="translate(254.956 231.771)">
      <g id="freepik--scissors--inject-36-2" data-name="freepik--scissors--inject-36">
        <path id="Path_61255" data-name="Path 61255" d="M436.681,373.871l24.483-5.421.056.658s-.528.894-6.246,2.583-19.87,4.688-19.87,4.688l-.584-.782Z" transform="translate(-417.972 -362.192)" fill="#263238"/>
        <path id="Path_61256" data-name="Path 61256" d="M455.44,359.626a17.193,17.193,0,0,1-3.167,3.639c-1.708,1.341-10.879,9.314-10.879,9.314l-2.937,1.614-.888-.515,1.335-3.1s10.332-7.339,12.592-8.892S455.726,359.2,455.44,359.626Z" transform="translate(-419.128 -358.807)" fill="#37474f"/>
        <path id="Path_61257" data-name="Path 61257" d="M437.55,381.16l.882.509-.23.59-.652-.379Z" transform="translate(-419.121 -367.01)" fill="#263238"/>
        <path id="Path_61258" data-name="Path 61258" d="M465.929,358.41v.739l-.739,1.08v-1.143Z" transform="translate(-429.598 -358.386)" fill="#37474f"/>
        <path id="Path_61259" data-name="Path 61259" d="M438.2,390.206c1.143-1.77-.186-3.452-.056-4.967s.329-4.719.329-4.719l-2.937,1.633-1.391,3.564c-.4,1.062-2.173,2.173-3.254,3.1s-1.993,3.1,1.037,3.943A5.422,5.422,0,0,0,438.2,390.206Zm-5.321,1.354c-1.161-.335-1.515-1.292-.776-2.136a3.608,3.608,0,0,1,3.44-.919c1.161.341,1.515,1.3.776,2.142a3.589,3.589,0,0,1-3.44.913Z" transform="translate(-416.21 -366.767)" fill="#ba6dd7"/>
        <path id="Path_61260" data-name="Path 61260" d="M438.2,390.206c1.143-1.77-.186-3.452-.056-4.967s.329-4.719.329-4.719l-2.937,1.633-1.391,3.564c-.4,1.062-2.173,2.173-3.254,3.1s-1.993,3.1,1.037,3.943A5.422,5.422,0,0,0,438.2,390.206Zm-5.321,1.354c-1.161-.335-1.515-1.292-.776-2.136a3.608,3.608,0,0,1,3.44-.919c1.161.341,1.515,1.3.776,2.142a3.589,3.589,0,0,1-3.44.913Z" transform="translate(-416.21 -366.767)" opacity="0.2"/>
        <path id="Path_61261" data-name="Path 61261" d="M442.43,378.247a1.285,1.285,0,0,1-1.242.236c-.447-.13-.621-.447-.4-.7a1.242,1.242,0,0,1,1.242-.236C442.473,377.675,442.653,377.992,442.43,378.247Z" transform="translate(-420.312 -365.611)" fill="#263238"/>
        <path id="Path_61262" data-name="Path 61262" d="M426.578,376.62s-3.5.621-4.657.751-2.813-.137-5.7.124-8.072,2.732-8.333,5.135,2.217,2.577,4.005,2.142,2.776-1.087,5.837-2.614c4.079-2.043,6.793-3.341,6.793-3.341l2.285-1.894Zm-6.78,3.229a37.874,37.874,0,0,0-4.862,1.968c-1.95.962-2.422,1.621-3.639,1.906-.993.236-1.974-.323-1.472-1.409s1.993-2.359,4.694-3.247,4.911-.72,5.893-.2c.385.2.577.6-.609.981Z" transform="translate(-407.869 -365.289)" fill="#ba6dd7"/>
        <path id="Path_61263" data-name="Path 61263" d="M426.578,376.62s-3.5.621-4.657.751-2.813-.137-5.7.124-8.072,2.732-8.333,5.135,2.217,2.577,4.005,2.142,2.776-1.087,5.837-2.614c4.079-2.043,6.793-3.341,6.793-3.341l2.285-1.894Zm-6.78,3.229a37.874,37.874,0,0,0-4.862,1.968c-1.95.962-2.422,1.621-3.639,1.906-.993.236-1.974-.323-1.472-1.409s1.993-2.359,4.694-3.247,4.911-.72,5.893-.2c.385.2.577.6-.609.981Z" transform="translate(-407.869 -365.289)" opacity="0.2"/>
        <path id="Path_61264" data-name="Path 61264" d="M435.191,380.378v-.72L434.7,379v.72Z" transform="translate(-418.04 -366.191)" fill="#263238"/>
        <path id="Path_61265" data-name="Path 61265" d="M436.681,373.092l24.539-4.762s-.528.894-6.246,2.583S435.1,375.6,435.1,375.6l-.584-.782Z" transform="translate(-417.972 -362.146)" fill="#37474f"/>
        <path id="Path_61266" data-name="Path 61266" d="M455.44,358.47a17.193,17.193,0,0,1-3.167,3.639c-1.708,1.341-10.879,9.314-10.879,9.314l-2.937,1.621-.888-.509,1.335-3.1s10.351-7.339,12.586-8.873S455.726,358.047,455.44,358.47Z" transform="translate(-419.128 -358.371)" fill="#455a64"/>
        <path id="Path_61267" data-name="Path 61267" d="M438.2,389.086c1.143-1.763-.186-3.446-.056-4.967s.329-4.719.329-4.719l-2.937,1.614-1.391,3.57c-.4,1.062-2.173,2.173-3.254,3.1s-1.993,3.1,1.037,3.943A5.478,5.478,0,0,0,438.2,389.086Zm-5.321,1.36c-1.161-.335-1.515-1.3-.776-2.142a3.62,3.62,0,0,1,3.44-.913c1.161.335,1.515,1.3.776,2.142a3.608,3.608,0,0,1-3.44.882Z" transform="translate(-416.21 -366.342)" fill="#ba6dd7"/>
        <path id="Path_61268" data-name="Path 61268" d="M442.43,377.089a1.285,1.285,0,0,1-1.242.236c-.447-.13-.621-.447-.4-.708a1.285,1.285,0,0,1,1.242-.23C442.473,376.518,442.653,376.835,442.43,377.089Z" transform="translate(-420.312 -365.174)" fill="#263238"/>
        <path id="Path_61269" data-name="Path 61269" d="M426.578,375.45s-3.5.621-4.657.758-2.813-.143-5.7.124-8.072,2.732-8.333,5.129,2.217,2.583,4.005,2.148,2.776-1.087,5.837-2.62c4.079-2.037,6.793-3.334,6.793-3.334l2.285-1.894Zm-6.78,3.235a37.874,37.874,0,0,0-4.862,1.968c-1.95.962-2.422,1.621-3.639,1.906-.993.236-1.974-.323-1.472-1.41s1.993-2.359,4.694-3.247,4.911-.726,5.893-.2c.385.2.577.577-.609.987Z" transform="translate(-407.869 -364.845)" fill="#ba6dd7"/>
      </g>
    </g>
    <g id="freepik--Ladder--inject-36" transform="translate(234.873 43.333)">
      <g id="freepik--ladder--inject-36-2" data-name="freepik--ladder--inject-36">
        <path id="Path_61270" data-name="Path 61270" d="M430.306,73.192,405.86,139.736h0a.882.882,0,0,1-.428.459c-.621.36-2.012-.1-1.59-.925l24.508-66.9a1.583,1.583,0,0,1,2.024-.944C431.194,71.745,430.61,72.366,430.306,73.192Z" transform="translate(-386.231 -61.121)" fill="#37474f"/>
        <path id="Path_61271" data-name="Path 61271" d="M418.59,162.007,394.07,147.85l.441-1.95,24.52,14.157Z" transform="translate(-382.556 -89.39)" fill="#263238"/>
        <path id="Path_61272" data-name="Path 61272" d="M402.073,88.943l-24.452,66.544h0a.813.813,0,0,1-.428.46c-.621.36-2.006-.1-1.59-.925l24.514-66.9a1.571,1.571,0,0,1,2.024-.938C402.961,87.478,402.378,88.13,402.073,88.943Z" transform="translate(-375.527 -67.093)" fill="#37474f"/>
        <path id="Path_61273" data-name="Path 61273" d="M447.31,145.427l-24.52-14.151.441-1.956,24.52,14.157Z" transform="translate(-393.443 -83.105)" fill="#263238"/>
        <path id="Path_61274" data-name="Path 61274" d="M455.879,159.367a.534.534,0,0,1-.3.317,1.863,1.863,0,0,1-.95.23,1.931,1.931,0,0,1-.944-.224.621.621,0,0,1-.3-.354L431.706,58.063a.888.888,0,0,0-.391-.621.571.571,0,0,0-.2-.037,1.149,1.149,0,0,0-.522.161l-13.077,7.526-1.242-2.155,13.077-7.55a3.533,3.533,0,0,1,1.763-.5,2.962,2.962,0,0,1,1.211.255,3.254,3.254,0,0,1,1.819,2.366l21.732,101.571a1.043,1.043,0,0,1,0,.18A.763.763,0,0,1,455.879,159.367Z" transform="translate(-390.971 -54.89)" fill="#455a64"/>
        <path id="Path_61275" data-name="Path 61275" d="M445.218,212.955l-7.966-4.6a1.049,1.049,0,0,1-.472-.826v-.186a1.062,1.062,0,0,1,.472-.826l19.112-11.034a1.068,1.068,0,0,1,.95,0l7.966,4.626a1.062,1.062,0,0,1,.472.826v.186a1.062,1.062,0,0,1-.472.826l-19.112,11.009A1.068,1.068,0,0,1,445.218,212.955Z" transform="translate(-398.746 -108.143)" fill="#ba6dd7"/>
        <path id="Path_61276" data-name="Path 61276" d="M436.917,213.9a.956.956,0,0,0-.137.466v.186a1.049,1.049,0,0,0,.472.826l7.966,4.6a.987.987,0,0,0,.478.112v-1.124Z" transform="translate(-398.746 -115.167)" opacity="0.1"/>
        <path id="Path_61277" data-name="Path 61277" d="M451.14,215.036v1.124a.981.981,0,0,0,.472-.112l9.556-5.52,9.556-5.514a1.062,1.062,0,0,0,.472-.826V204a.957.957,0,0,0-.137-.472Z" transform="translate(-404.19 -111.236)" opacity="0.15"/>
        <path id="Path_61278" data-name="Path 61278" d="M439.662,186.945l-7.954-4.6a1.055,1.055,0,0,1-.478-.82v-.192a1.068,1.068,0,0,1,.478-.826l19.112-11.028a1.025,1.025,0,0,1,.95,0l7.966,4.595a1.062,1.062,0,0,1,.472.826v.186a1.062,1.062,0,0,1-.472.826l-19.112,11.034a1.068,1.068,0,0,1-.962,0Z" transform="translate(-396.642 -98.284)" fill="#ba6dd7"/>
        <path id="Path_61279" data-name="Path 61279" d="M431.353,187.89a.969.969,0,0,0-.143.466v.224a1.056,1.056,0,0,0,.478.82l7.966,4.6a.981.981,0,0,0,.472.112v-1.124Z" transform="translate(-396.635 -105.307)" opacity="0.1"/>
        <path id="Path_61280" data-name="Path 61280" d="M445.57,189.026v1.124a.987.987,0,0,0,.478-.112l9.556-5.52L465.16,179a1.062,1.062,0,0,0,.472-.826v-.186a1.03,1.03,0,0,0-.137-.472Z" transform="translate(-402.078 -101.376)" opacity="0.15"/>
        <path id="Path_61281" data-name="Path 61281" d="M434.095,160.935l-7.966-4.6a1.037,1.037,0,0,1-.478-.82v-.192a1.031,1.031,0,0,1,.478-.82l19.106-11.034a1.025,1.025,0,0,1,.95,0l7.966,4.595a1.049,1.049,0,0,1,.478.826v.186a1.043,1.043,0,0,1-.478.826l-19.106,11.034a1.068,1.068,0,0,1-.95,0Z" transform="translate(-394.527 -88.424)" fill="#ba6dd7"/>
        <path id="Path_61282" data-name="Path 61282" d="M425.793,161.88a.969.969,0,0,0-.143.466v.192a1.037,1.037,0,0,0,.478.82l3.98,2.3,3.986,2.3a.963.963,0,0,0,.472.112v-1.149Z" transform="translate(-394.527 -95.447)" opacity="0.1"/>
        <path id="Path_61283" data-name="Path 61283" d="M440,162.976V164.1a1.006,1.006,0,0,0,.478-.112l9.55-5.52,9.556-5.514a1.043,1.043,0,0,0,.478-.826v-.186a.969.969,0,0,0-.143-.472Z" transform="translate(-399.967 -91.501)" opacity="0.15"/>
        <path id="Path_61284" data-name="Path 61284" d="M428.528,134.925l-7.96-4.6a1.031,1.031,0,0,1-.478-.82v-.192a1.031,1.031,0,0,1,.478-.82l19.106-11.034a1.024,1.024,0,0,1,.95,0l7.966,4.595a1.068,1.068,0,0,1,.478.826v.186a1.056,1.056,0,0,1-.478.826l-19.112,11.034a1.068,1.068,0,0,1-.95,0Z" transform="translate(-392.419 -78.564)" fill="#ba6dd7"/>
        <path id="Path_61285" data-name="Path 61285" d="M434.45,136.991v1.124a.963.963,0,0,0,.472-.112l9.556-5.52,9.562-5.5a1.056,1.056,0,0,0,.478-.826v-.186a.969.969,0,0,0-.143-.466Z" transform="translate(-397.863 -81.66)" opacity="0.15"/>
        <path id="Path_61286" data-name="Path 61286" d="M420.227,135.87a1.025,1.025,0,0,0-.137.466v.192a1.031,1.031,0,0,0,.478.82l7.96,4.6a.987.987,0,0,0,.478.112v-1.142Z" transform="translate(-392.419 -85.588)" opacity="0.1"/>
        <path id="Path_61287" data-name="Path 61287" d="M419.735,107.054,406.5,99.41a1.037,1.037,0,0,1-.5-.832v-.192a1.049,1.049,0,0,1,.472-.82l19.112-11.034a1.068,1.068,0,0,1,.95,0l13.238,7.637a1.062,1.062,0,0,1,.472.826v.192a1.05,1.05,0,0,1-.472.82L420.66,107.041A1.068,1.068,0,0,1,419.735,107.054Z" transform="translate(-387.078 -66.842)" fill="#ba6dd7"/>
        <path id="Path_61288" data-name="Path 61288" d="M428.89,110.987v1.124a.981.981,0,0,0,.472-.112l9.531-5.5,9.556-5.52a1.05,1.05,0,0,0,.472-.82v-.192a.956.956,0,0,0-.137-.466Z" transform="translate(-395.755 -71.801)" opacity="0.15"/>
        <path id="Path_61289" data-name="Path 61289" d="M406.177,105a.956.956,0,0,0-.137.466v.155a1.037,1.037,0,0,0,.472.82l13.238,7.644a.987.987,0,0,0,.478.112v-1.124Z" transform="translate(-387.093 -73.885)" opacity="0.1"/>
        <path id="Path_61290" data-name="Path 61290" d="M436.532,174.575a.621.621,0,0,1-.292.317,1.894,1.894,0,0,1-.944.224,1.863,1.863,0,0,1-.95-.223.584.584,0,0,1-.267-.248l-.031-.093v-.037L412.359,73.252a5.272,5.272,0,0,1,2.4-5.4L416,70a2.776,2.776,0,0,0-1.2,2.713L436.526,174.3a.534.534,0,0,1,0,.192.5.5,0,0,1,.006.087Z" transform="translate(-389.458 -59.803)" fill="#455a64"/>
      </g>
    </g>
    <g id="freepik--character-4--inject-36" transform="translate(209.803 82.849)">
      <g id="freepik--Character--inject-36">
        <g id="freepik--Bottom--inject-36" transform="translate(8.595 41.223)">
          <path id="Path_61302" data-name="Path 61302" d="M361.366,268.955c-.075-1.552-.7-17.175-.7-17.175l7.364,5.756c-1.354,8.9-1.863,11.288-1.944,12.779h0a1.241,1.241,0,0,1,.031.379c-.056,1.77-2.08,2.664-3.67,3.8a29.218,29.218,0,0,1-4.291,2.626c-1.149.534-3.446.522-3.726-.211a44.359,44.359,0,0,0,5.725-4.52A3.937,3.937,0,0,0,361.366,268.955Z" transform="translate(-351.054 -210.265)" fill="#b16668"/>
          <path id="Path_61303" data-name="Path 61303" d="M349.1,293a1.521,1.521,0,0,0,.236,1.534,6.489,6.489,0,0,0,4.732,1.242,8.264,8.264,0,0,0,4.638-1.7,9.532,9.532,0,0,1,3.4-2.043,6.457,6.457,0,0,0,2.415-.907c.329-.3.323-1.664.323-1.664Z" transform="translate(-348.993 -224.552)" fill="#263238"/>
          <path id="Path_61304" data-name="Path 61304" d="M364.064,280.93a.379.379,0,0,1,.348.329c.062.379.106,1.472.248,2.092a11.071,11.071,0,0,1,.137,3.322c-.149.7-1.782,1.136-2.825,1.5a12.946,12.946,0,0,0-3.415,2.018,9.457,9.457,0,0,1-5.036,1.714c-1.819-.068-3.856-.714-4.3-1.571-.546-1.062-.074-1.658,2.658-2.831.522-.224,2.347-1.242,2.968-1.6a9.982,9.982,0,0,0,4.185-4.222,1.018,1.018,0,0,1,.4-.553.851.851,0,0,1,.528-.031,4.477,4.477,0,0,1,1.285.428c.36.186.869.4.851.863a1.813,1.813,0,0,1-.118.472c-.037.093-.062.217,0,.273s.18,0,.255-.062a7.573,7.573,0,0,0,.751-.851,2.367,2.367,0,0,1,.441-.422,4.6,4.6,0,0,0,.472-.292C364.083,281.352,364.052,281.147,364.064,280.93Z" transform="translate(-349.002 -221.315)" fill="#37474f"/>
          <path id="Path_61305" data-name="Path 61305" d="M358.556,294.049a17.864,17.864,0,0,1,1.509-1.062h0s-3.235,1.863-4.489.925a1.142,1.142,0,0,1-.373-1.478,6.784,6.784,0,0,0-2.788-1.335h0c-.23.118-.416.211-.54.261-2.732,1.174-3.2,1.77-2.658,2.831.447.857,1.912,1.559,4.272,1.627a9.724,9.724,0,0,0,5.067-1.77Z" transform="translate(-349.002 -225.17)" fill="#455a64"/>
          <path id="Path_61306" data-name="Path 61306" d="M358.705,287.954c-1.7.621-.987.956-.522,1.037s3.347-1.49,5.11-2.807,3.011-2.893,3.695-3.4c.255-.186.534-.416.776-.621-.031-.373-.056-.708-.087-.888a.379.379,0,0,0-.348-.329.771.771,0,0,1-.149.577,4.593,4.593,0,0,1-.472.292,2.366,2.366,0,0,0-.441.422,7.579,7.579,0,0,1-.751.851A21.919,21.919,0,0,1,358.705,287.954Z" transform="translate(-352.268 -221.323)" fill="#263238"/>
          <path id="Path_61307" data-name="Path 61307" d="M356.861,292.55a.168.168,0,0,0,.137-.267,4,4,0,0,0-3.043-1.3.168.168,0,0,0-.155.18.161.161,0,0,0,.18.149,3.726,3.726,0,0,1,2.751,1.174A.162.162,0,0,0,356.861,292.55Z" transform="translate(-350.815 -225.124)" fill="#f0f0f0"/>
          <path id="Path_61308" data-name="Path 61308" d="M359.261,291.164a.136.136,0,0,0,.106-.031.168.168,0,0,0,.031-.236,4.018,4.018,0,0,0-3.043-1.3.165.165,0,1,0,.025.329,3.726,3.726,0,0,1,2.751,1.174A.155.155,0,0,0,359.261,291.164Z" transform="translate(-351.725 -224.601)" fill="#f0f0f0"/>
          <path id="Path_61309" data-name="Path 61309" d="M361.634,289.859a.174.174,0,0,0,.137-.273,4.024,4.024,0,0,0-3.043-1.3.168.168,0,1,0,0,.329,3.725,3.725,0,0,1,2.751,1.174A.18.18,0,0,0,361.634,289.859Z" transform="translate(-352.608 -224.103)" fill="#f0f0f0"/>
          <path id="Path_61310" data-name="Path 61310" d="M363.891,288.35a.168.168,0,0,0,.106-.037.161.161,0,0,0,.031-.23,4,4,0,0,0-3.043-1.3.168.168,0,0,0-.155.18.161.161,0,0,0,.18.149,3.726,3.726,0,0,1,2.751,1.174A.161.161,0,0,0,363.891,288.35Z" transform="translate(-353.48 -223.532)" fill="#f0f0f0"/>
          <path id="Path_61311" data-name="Path 61311" d="M365.976,286.822a.2.2,0,0,0,.1-.031.168.168,0,0,0,.037-.236,4.073,4.073,0,0,0-3.328-1.323.168.168,0,0,0,.031.329,3.794,3.794,0,0,1,3.03,1.192A.161.161,0,0,0,365.976,286.822Z" transform="translate(-354.174 -222.941)" fill="#f0f0f0"/>
          <path id="Path_61312" data-name="Path 61312" d="M390.39,260.616l7.209-.726c.3,5-.031,10.605.224,15.3.05.882.59,6.83.4,8.693-.273,2.769-3.539,2.664-3.844,1.049s-.5-8.612-.571-9.314c-.224-3.005-1.608-6.762-2.794-12.089C390.93,263.237,390.446,260.871,390.39,260.616Z" transform="translate(-364.686 -213.339)" fill="#b16668"/>
          <path id="Path_61313" data-name="Path 61313" d="M395,301.264a7.407,7.407,0,0,0,.844,3.626,2.366,2.366,0,0,0,2.713,1.012,3.629,3.629,0,0,0,2.838-2.347,8.892,8.892,0,0,0,.074-3.825Z" transform="translate(-366.432 -228.442)" fill="#263238"/>
          <path id="Path_61314" data-name="Path 61314" d="M399.478,283.61c.447.037.546,2.2.764,4.346.236,2.322.907,3.291,1.124,5.191.242,2.173.112,3.136-.671,4.433s-3.5,2.533-4.787.621c-1.049-1.546-1.062-3.247-.925-5.408a54.305,54.305,0,0,0,.2-5.508c-.062-1.621-.143-3.2.248-3.372,0,.242.05.546.074.776s.056,1.062.3,1.074a3.957,3.957,0,0,0,0-.621.7.7,0,0,1,.13-.522.844.844,0,0,1,.5-.217c.441-.074.888-.149,1.335-.18a6.047,6.047,0,0,1,.671,0,1.739,1.739,0,0,1,.565.093.41.41,0,0,1,.242.224.837.837,0,0,1,0,.248,1.824,1.824,0,0,0,.05.447c0,.062.056.143.118.13s.075-.081.081-.13a6.541,6.541,0,0,0-.031-.758v-.472C399.472,283.871,399.491,283.747,399.478,283.61Z" transform="translate(-366.404 -222.331)" fill="#37474f"/>
          <path id="Path_61315" data-name="Path 61315" d="M401.272,298c.037.317.267,2.391-.3,2.751s-.919-1.242-.919-1.242a5.452,5.452,0,0,0-3.527.41c.106.335-.236,1.434-.807,1.192s-.745-2.62-.745-2.651c-.124,2.074-.081,3.726.938,5.222,1.292,1.9,4,.664,4.787-.621s.913-2.26.671-4.433C401.341,298.4,401.31,298.193,401.272,298Z" transform="translate(-366.403 -227.786)" fill="#455a64"/>
          <path id="Path_61316" data-name="Path 61316" d="M402.664,294.192c0,.789.77.534.826-.571s-.5-3.726-.466-5.644c-.217-2.161-.31-4.346-.764-4.346v.075l.037,1.1v.472c0,1.6.149,4.688.261,6.153a25.3,25.3,0,0,1,.106,2.763Z" transform="translate(-369.185 -222.339)" fill="#263238"/>
          <path id="Path_61317" data-name="Path 61317" d="M396.9,294.65a26.85,26.85,0,0,1-.379-2.757c-.124-1.453-.459-4.489-.739-6.079a4.2,4.2,0,0,1-.143-.894c0-.217-.043-.491-.068-.727a.106.106,0,0,1,0-.043c-.286.13-.317.993-.292,2.08.043.621.13,1.4.255,2.347.348,1.863.23,4.576.459,5.657S397.033,295.42,396.9,294.65Z" transform="translate(-366.535 -222.536)" fill="#263238"/>
          <path id="Path_61318" data-name="Path 61318" d="M397.306,300.7h.062a5.3,5.3,0,0,1,3.459-.3.168.168,0,0,0,.093-.317,5.52,5.52,0,0,0-3.726.317.159.159,0,0,0,.112.3Z" transform="translate(-367.23 -228.506)" fill="#f0f0f0"/>
          <path id="Path_61319" data-name="Path 61319" d="M396.769,297.942h.056a6.576,6.576,0,0,1,3.875-.329.161.161,0,0,0,.2-.118.168.168,0,0,0-.118-.2,6.83,6.83,0,0,0-4.1.354.156.156,0,0,0,.087.3Z" transform="translate(-367.035 -227.454)" fill="#f0f0f0"/>
          <path id="Path_61320" data-name="Path 61320" d="M400.562,294.937a.168.168,0,0,0,.143-.112.161.161,0,0,0-.1-.211,5.737,5.737,0,0,0-4.092.31.168.168,0,0,0,.149.3,5.507,5.507,0,0,1,3.825-.3A.155.155,0,0,0,400.562,294.937Z" transform="translate(-366.978 -226.411)" fill="#f0f0f0"/>
          <path id="Path_61321" data-name="Path 61321" d="M400.371,292.439a.143.143,0,0,0,.137-.106.155.155,0,0,0-.093-.211,5.148,5.148,0,0,0-4.173.3.166.166,0,0,0,.168.286,4.9,4.9,0,0,1,3.887-.273A.155.155,0,0,0,400.371,292.439Z" transform="translate(-366.873 -225.441)" fill="#f0f0f0"/>
          <path id="Path_61322" data-name="Path 61322" d="M400.172,289.7a.161.161,0,0,0,.043-.317,5.377,5.377,0,0,0-4.2.341.168.168,0,1,0,.161.292,5.117,5.117,0,0,1,3.912-.323A.18.18,0,0,0,400.172,289.7Z" transform="translate(-366.78 -224.415)" fill="#ebebeb"/>
          <path id="Path_61323" data-name="Path 61323" d="M383.4,185.442c1.372,3.31,2.881,5.632,2.949,11.8.161,13.151-.155,22.639-.155,22.639.068,1.161.621.534,1.3,6.52a88.916,88.916,0,0,1,.286,11.543s-3.378,1.7-6.458.385c-1.155-4.3-3.154-11.99-4.4-17.734-1.13-5.216-2.2-12.847-2.2-12.847l-2.192,12.835a38.145,38.145,0,0,1,.05,5.862c-.261,3.527-2.086,12.238-2.086,12.238s-3.465,1.447-6.091-.577c0,0-.993-14.281-.95-18.553.093-8.351.528-27.358,2.322-34.629Z" transform="translate(-354.476 -184.92)" fill="#37474f"/>
          <path id="Path_61324" data-name="Path 61324" d="M398.668,268.33c-1.273.77-5.29,1.242-7,.546l.447,2.03s.77.565,3.142.472a5.034,5.034,0,0,0,3.316-1.056Z" transform="translate(-365.171 -216.539)" fill="#455a64"/>
          <path id="Path_61325" data-name="Path 61325" d="M371.34,268.544a10.311,10.311,0,0,1-6.7-.354l.186,2.068s.54.789,2.912.869,3.247-.621,3.247-.621Z" transform="translate(-354.924 -216.486)" fill="#455a64"/>
          <path id="Path_61326" data-name="Path 61326" d="M376.265,214.356l-1.242-9.314s-5.532-.758-7.513-2.732c0,0,2.484,3.632,6.209,4.284l1.441,7.724L374.1,227.072Z" transform="translate(-356.012 -191.512)" fill="#263238"/>
        </g>
        <g id="freepik--Top--inject-36">
          <path id="Path_61327" data-name="Path 61327" d="M363.451,151.35c-2.366,0-3.918.385-6.011,3.819s-5.408,8.842-5.408,8.842l-8.972,3.726.739,5.352s6.284-1.639,9.935-3.055a5.921,5.921,0,0,0,2.949-1.912c.441-.621,4.725-6.116,4.725-6.116Z" transform="translate(-338.148 -130.972)" fill="#874c4c"/>
          <path id="Path_61328" data-name="Path 61328" d="M377.887,151.362l3.1.379c2.061.534,2.98,1.459,3.167,3.291a14.35,14.35,0,0,1-.2,5.967,64.44,64.44,0,0,0-1.093,8.426A51.637,51.637,0,0,1,385.928,179c-7.414,4.682-18.286,3.229-21.285.286.416-3,1-6.122,1.242-8.563a45.194,45.194,0,0,0-.2-5.588,5.65,5.65,0,0,1-1.025-6.954c2.546-3.844,5.75-6.861,6.687-6.83Z" transform="translate(-346.046 -130.971)" fill="#ba6dd7"/>
          <path id="Path_61329" data-name="Path 61329" d="M377.887,151.362l3.1.379c2.061.534,2.98,1.459,3.167,3.291a14.35,14.35,0,0,1-.2,5.967,64.44,64.44,0,0,0-1.093,8.426A51.637,51.637,0,0,1,385.928,179c-7.414,4.682-18.286,3.229-21.285.286.416-3,1-6.122,1.242-8.563a45.194,45.194,0,0,0-.2-5.588,5.65,5.65,0,0,1-1.025-6.954c2.546-3.844,5.75-6.861,6.687-6.83Z" transform="translate(-346.046 -130.971)" fill="#fff" opacity="0.3"/>
          <path id="Path_61330" data-name="Path 61330" d="M385.322,138.99c.062.739-.236,1.323,0,2.061a15.025,15.025,0,0,1,.54,1.943c.18.987-.224,2.658-1.459,2.819a2.266,2.266,0,0,0,.242-1.788c-.621,2.322-3.763,2.484-5.849,2.484-1.925,0-3.657.137-5.371-.82-.851-.472-.925-.956-.925-.956s-.2.192-.118.962a1.683,1.683,0,0,1-1.211-1.4,6.408,6.408,0,0,1,.149-2.546,17.788,17.788,0,0,1,.658-2.943Z" transform="translate(-348.78 -126.218)" fill="#263238"/>
          <path id="Path_61331" data-name="Path 61331" d="M394.656,124.931l-2.043,1.559a1.242,1.242,0,0,1,.224-1.739A1.335,1.335,0,0,1,394.656,124.931Z" transform="translate(-356.835 -120.784)" fill="#263238"/>
          <path id="Path_61332" data-name="Path 61332" d="M379.172,137.059c.037-1.242,3.011-3.011,4.6-5.588s.987-6.9-1.043-7.637c0,0-.056-.553-.062-.621a4.738,4.738,0,0,0-.5-1.441A6.209,6.209,0,0,0,378,118.834c-6.476-1.174-9.556,1.242-10.848,3.986a6.78,6.78,0,0,0-.621,2.943,3.39,3.39,0,0,0,2.521,3.247Z" transform="translate(-347.045 -118.531)" fill="#263238"/>
          <path id="Path_61333" data-name="Path 61333" d="M371.5,124.2c-1.3.509-2.577,2.422-2.745,7.873-.143,4.626,1.242,5.843,1.937,6.209a6.917,6.917,0,0,0,3.415.137l-.037,2.6s-1.056.969-.72,1.608,1.639,1.242,3.726.652A4.214,4.214,0,0,0,380,141.1l.248-5.812s.758.851,2.173-.31c1.167-.956,1.633-2.645.813-3.608a1.823,1.823,0,0,0-2.937-.068l-.7-.4a13.356,13.356,0,0,1-4.26-1.627A7.706,7.706,0,0,1,371.5,124.2Z" transform="translate(-347.884 -120.68)" fill="#b16668"/>
          <path id="Path_61334" data-name="Path 61334" d="M377.372,145.834c1.434-.118,4.477-.894,5-2.074a3.1,3.1,0,0,1-1.111,1.484,15.138,15.138,0,0,1-3.9,1.465Z" transform="translate(-351.151 -128.094)" fill="#874c4c"/>
          <path id="Path_61335" data-name="Path 61335" d="M386.576,134.41l-.106,2.571a1.2,1.2,0,0,1-1.192-1.285A1.335,1.335,0,0,1,386.576,134.41Z" transform="translate(-354.151 -124.55)" fill="#263238"/>
          <path id="Path_61336" data-name="Path 61336" d="M379.648,134.776a.664.664,0,0,1-.658.683.689.689,0,1,1,.658-.683Z" transform="translate(-351.496 -124.425)"/>
          <path id="Path_61337" data-name="Path 61337" d="M369.991,130.644l1.664-.36a.813.813,0,0,0-1-.658.882.882,0,0,0-.664,1.018Z" transform="translate(-348.352 -122.727)" fill="#263238"/>
          <path id="Path_61338" data-name="Path 61338" d="M373.8,133.76l-.05,3.794-2.024-.528Z" transform="translate(-349.017 -124.304)" fill="#874c4c"/>
          <path id="Path_61339" data-name="Path 61339" d="M377.449,141.24l-2,.546a1.006,1.006,0,0,0,1.242.8A1.13,1.13,0,0,0,377.449,141.24Z" transform="translate(-350.427 -127.139)" fill="#874c4c"/>
          <path id="Path_61340" data-name="Path 61340" d="M376.83,142.835a1.043,1.043,0,0,1,1.08-1.006h.081a1.105,1.105,0,0,1-.776.969A.907.907,0,0,1,376.83,142.835Z" transform="translate(-350.95 -127.362)" fill="#f28f8f"/>
          <path id="Path_61341" data-name="Path 61341" d="M371.872,134.1a.621.621,0,1,1-.621-.621A.621.621,0,0,1,371.872,134.1Z" transform="translate(-348.6 -124.197)"/>
          <path id="Path_61342" data-name="Path 61342" d="M335.479,166.25l14.374,5.3,3.732,17.249-.329.341-13.66-5.328-4.446-17.231Z" transform="translate(-335.15 -136.62)" fill="#ba6dd7"/>
          <path id="Path_61343" data-name="Path 61343" d="M358.3,175.132l3.732,17.249.329-.342-3.732-17.249Z" transform="translate(-343.926 -139.857)" opacity="0.35"/>
          <path id="Path_61344" data-name="Path 61344" d="M335.15,166.79l14.374,5.309,3.732,17.249-13.66-5.328Z" transform="translate(-335.15 -136.825)" opacity="0.25"/>
          <path id="Path_61345" data-name="Path 61345" d="M342.01,172.112l-.112-.577c-.062-.317.782-.137,1.863.4l2.6.826c1.105.54,2.155.944,2.211,1.242l.112.577Z" transform="translate(-337.707 -138.564)"/>
          <path id="Path_61346" data-name="Path 61346" d="M340.758,168.234c-.043-.2.286-.149.745,0l.832.3s-.329-.838,1.633-.279c2.161.621,2.192,1.7,2.192,1.7a9.135,9.135,0,0,0,1.031.391c.72.248.795.391.851.621l.106.366-7.333-2.695S340.795,168.439,340.758,168.234Z" transform="translate(-337.274 -137.306)" fill="#37474f"/>
          <path id="Path_61347" data-name="Path 61347" d="M341.867,169.708c.677.323.956.478,1.049.969s.13.795.13.795l3.819,1.571s-.2-.832-.248-1.105.466-.273,1.124.043l-.149-.689L341.65,169Z" transform="translate(-337.614 -137.662)" fill="#37474f"/>
          <path id="Path_61348" data-name="Path 61348" d="M341.69,172.122l-.112-.577c-.062-.317.782-.137,1.863.4l2.6.826c1.1.54,2.148.95,2.211,1.242l.106.577Z" transform="translate(-337.585 -138.568)" fill="#37474f"/>
          <path id="Path_61349" data-name="Path 61349" d="M343.947,188.943a3.169,3.169,0,0,1-2.862.907l-.255-1Z" transform="translate(-337.303 -145.187)" opacity="0.2"/>
          <path id="Path_61350" data-name="Path 61350" d="M336.9,176.09s.484,1.863.621,2.372,2.484,1.608,3.663,1.77c2.26.317,2.484.813,1.944,2.415-.528,1.472-2.012,2.012-4.055,1.739a3.726,3.726,0,0,1-2.769-2.484c-.621-1.9-.248-3.924-.5-5.036S336.339,175.419,336.9,176.09Z" transform="translate(-335.382 -140.219)" fill="#b16668"/>
          <path id="Path_61351" data-name="Path 61351" d="M384.441,178.277c-.807.621-1.912.677-3.185,1.174a10.643,10.643,0,0,1-2.695,1.006c-.658,0-.211,1.043.621,1.087s1.732-.4,1.732-.043c0,.546-1.018,1.062-1.385,1.273-1.136.664-2.67,1.006-3.477,2.117a.571.571,0,0,0-.143.4.466.466,0,0,0,.447.335,2.793,2.793,0,0,0,.621-.075.664.664,0,0,1,.565.118c.137.13.174.335.31.453a.689.689,0,0,0,.329.124,2.048,2.048,0,0,0,.621,0,3.945,3.945,0,0,1,.534-.074,3.727,3.727,0,0,1,.907.248c1.292.385,2.645-.373,3.726-1.031,2.254-1.422,2.776-2.639,3.949-3.651s6.309-5.2,8.656-7.644c2.484-2.558,1.478-2.782.211-6.073s-4.489-9.705-5.663-12.251c-1.347-2.918-2.689-3.384-5.588-3.819-1.36,1.49-2.006,6.141,1.242,10.438l3.968,7.96s-.727.863-2.813,3.682A24.24,24.24,0,0,1,384.441,178.277Z" transform="translate(-350.601 -131.199)" fill="#b16668"/>
        </g>
      </g>
    </g>
    <g id="freepik--character-3--inject-36" transform="translate(132.365 24.402)">
      <g id="freepik--character--inject-36-2" data-name="freepik--character--inject-36">
        <g id="freepik--Botom--inject-36" transform="translate(19.484 52.585)">
          <path id="Path_61352" data-name="Path 61352" d="M253.429,187.936c-.062-1.645-.975-18.386-.975-18.386l8.016,6.011c-1.242,9.5-1.776,12.419-1.863,13.983h0a1.242,1.242,0,0,1,.031.4c-.081,1.863-2.26,2.819-3.98,4.011a31.284,31.284,0,0,1-4.638,2.757c-1.242.559-3.726.522-3.98-.261a47.607,47.607,0,0,0,6.209-4.756A4.506,4.506,0,0,0,253.429,187.936Z" transform="translate(-243.417 -132.009)" fill="#c8856a"/>
          <path id="Path_61353" data-name="Path 61353" d="M242.029,213.756a1.689,1.689,0,0,0,.224,1.633,6.265,6.265,0,0,0,4.738,1.329,8.072,8.072,0,0,0,4.676-1.77,9.908,9.908,0,0,1,3.434-2.155,6.29,6.29,0,0,0,2.434-.944c.329-.317.341-1.77.341-1.77Z" transform="translate(-241.852 -147.373)" fill="#263238"/>
          <path id="Path_61354" data-name="Path 61354" d="M257.056,201s.261,0,.31.335.124,1.571.261,2.235a12.68,12.68,0,0,1,.174,3.545c-.161.733-1.8,1.192-2.856,1.571a13.04,13.04,0,0,0-3.446,2.124,9.469,9.469,0,0,1-5.073,1.788c-2.366-.056-3.868-.789-4.3-1.7-.546-1.136-.335-1.919,2.422-3.148a30.921,30.921,0,0,0,3.1-1.763,9.358,9.358,0,0,0,3.57-4.284,1.118,1.118,0,0,1,.41-.584.869.869,0,0,1,.534,0,11.431,11.431,0,0,1,2.148.528c.36.2.869.428.844.925a1.77,1.77,0,0,1-.124.5c-.037.1-.068.23,0,.3s.18,0,.255-.068a7.6,7.6,0,0,0,.764-.9,2.54,2.54,0,0,1,.447-.447,4.79,4.79,0,0,0,.478-.3A5.967,5.967,0,0,0,257.056,201Z" transform="translate(-241.84 -143.931)" fill="#455a64"/>
          <path id="Path_61355" data-name="Path 61355" d="M244.445,211.88c3.4.379,4.831,2.713,4.4,4.4a7.78,7.78,0,0,1-2.44.453c-2.366-.056-3.962-.789-4.4-1.708C241.483,213.954,241.986,212.762,244.445,211.88Z" transform="translate(-241.816 -148.055)" fill="#fafafa"/>
          <path id="Path_61356" data-name="Path 61356" d="M251.651,211.679a.167.167,0,0,0,.106-.037.186.186,0,0,0,.031-.248,3.906,3.906,0,0,0-3.043-1.4.18.18,0,0,0-.155.186.174.174,0,0,0,.18.168,3.608,3.608,0,0,1,2.751,1.242.18.18,0,0,0,.13.093Z" transform="translate(-244.384 -147.339)" fill="#f0f0f0"/>
          <path id="Path_61357" data-name="Path 61357" d="M253.86,210.282a.137.137,0,0,0,.106-.031A.186.186,0,0,0,254,210a3.868,3.868,0,0,0-3.043-1.4.174.174,0,0,0,0,.348,3.626,3.626,0,0,1,2.751,1.242A.161.161,0,0,0,253.86,210.282Z" transform="translate(-245.214 -146.812)" fill="#f0f0f0"/>
          <path id="Path_61358" data-name="Path 61358" d="M256.045,208.5a.168.168,0,0,0,.106-.037.18.18,0,0,0,0-.248,3.912,3.912,0,0,0-3.036-1.4.174.174,0,0,0-.155.193.168.168,0,0,0,.174.161,3.62,3.62,0,0,1,2.751,1.242A.161.161,0,0,0,256.045,208.5Z" transform="translate(-246.04 -146.133)" fill="#f0f0f0"/>
          <path id="Path_61359" data-name="Path 61359" d="M258.065,206.7a.168.168,0,0,0,.106-.037.186.186,0,0,0,.037-.248,3.974,3.974,0,0,0-3.3-1.416.168.168,0,0,0-.155.186.161.161,0,0,0,.174.161,3.725,3.725,0,0,1,3.036,1.292A.168.168,0,0,0,258.065,206.7Z" transform="translate(-246.718 -145.442)" fill="#f0f0f0"/>
          <path id="Path_61360" data-name="Path 61360" d="M281.32,176.962l8.445-1.472c.106,5.21-.248,12.158-.416,16.964-.031.919.348,7.141.056,9.041-.435,2.862-4.123,2.6-4.4.9s-.4-8.91-.447-9.662c-.106-3.1-1.72-8.426-2.813-14.02C281.693,178.433,281.37,177.229,281.32,176.962Z" transform="translate(-256.791 -134.261)" fill="#c8856a"/>
          <path id="Path_61361" data-name="Path 61361" d="M285.1,220.023a7.24,7.24,0,0,0,.795,3.812,2.807,2.807,0,0,0,3.03,1.18c1.242-.211,2.869-.882,3.316-2.3a8.407,8.407,0,0,0,.255-3.968Z" transform="translate(-258.218 -150.659)" fill="#263238"/>
          <path id="Path_61362" data-name="Path 61362" d="M290.793,202c.5.068.491,2.248.621,4.5.155,2.422.876,3.465,1.031,5.445.174,2.273,0,3.266-.962,4.576s-4.073,2.484-5.445.422c-1.118-1.658-1.056-3.427-.8-5.663a54,54,0,0,0,.478-5.713c0-1.689-.242-3.266.211-3.427a4.372,4.372,0,0,0,.05.807c.05.242,0,1.105.292,1.13a3.1,3.1,0,0,0,.05-.621.671.671,0,0,1,.174-.534,1.906,1.906,0,0,1,.8-.261c.5-.056,1.012-.112,1.521-.118h.764a1.981,1.981,0,0,1,.621.124.441.441,0,0,1,.261.242.62.62,0,0,1,0,.261,1.684,1.684,0,0,0,.031.466c0,.068.062.149.137.137s.087-.075.087-.13v-1.217C290.712,202.279,290.793,202.112,290.793,202Z" transform="translate(-258.217 -144.31)" fill="#455a64"/>
          <path id="Path_61363" data-name="Path 61363" d="M292.529,219.568a5.166,5.166,0,0,1-.888,3.378c-.944,1.3-4.315,2.446-5.688.41a5.93,5.93,0,0,1-.838-3.347C286.109,218.562,291.194,218.2,292.529,219.568Z" transform="translate(-258.227 -150.645)" fill="#fafafa"/>
          <path id="Path_61364" data-name="Path 61364" d="M287.342,216.548h.062a8.072,8.072,0,0,1,4.4-.155.2.2,0,0,0,.236-.112.174.174,0,0,0-.13-.217,8.3,8.3,0,0,0-4.645.161.168.168,0,0,0-.106.224A.2.2,0,0,0,287.342,216.548Z" transform="translate(-259.001 -149.544)" fill="#f0f0f0"/>
          <path id="Path_61365" data-name="Path 61365" d="M291.766,213.592a.18.18,0,0,0,.161-.106.161.161,0,0,0-.1-.224,7.023,7.023,0,0,0-4.645.118.168.168,0,0,0-.093.23.2.2,0,0,0,.248.087,6.712,6.712,0,0,1,4.346-.118A.168.168,0,0,0,291.766,213.592Z" transform="translate(-258.972 -148.451)" fill="#f0f0f0"/>
          <path id="Path_61366" data-name="Path 61366" d="M291.67,211a.174.174,0,0,0,.161-.1.168.168,0,0,0-.093-.23,6.3,6.3,0,0,0-4.738.106.161.161,0,0,0-.074.23.2.2,0,0,0,.255.075,5.973,5.973,0,0,1,4.409-.093.187.187,0,0,0,.081.012Z" transform="translate(-258.908 -147.44)" fill="#f0f0f0"/>
          <path id="Path_61367" data-name="Path 61367" d="M291.578,208.148a.2.2,0,0,0,.168-.106.161.161,0,0,0-.1-.224,6.538,6.538,0,0,0-4.769.149.161.161,0,0,0-.081.23.186.186,0,0,0,.248.081,6.29,6.29,0,0,1,4.452-.149.193.193,0,0,0,.081.019Z" transform="translate(-258.859 -146.372)" fill="#ebebeb"/>
          <path id="Path_61368" data-name="Path 61368" d="M276.934,111.356c0,9.475,1.242,28.445,1.242,28.445.112,1.161,1.6,6.315,1.7,10.518.168,6.756-.093,11.437-.093,11.437s-3.57,1.385-6.153.317c0,0-3.3-13.586-4.16-18.007C268.44,138.826,266,128.544,266,128.544l-1.72,13.84a44.319,44.319,0,0,1,0,9c-.366,2.776-1.366,10.04-1.366,10.04a11.492,11.492,0,0,1-6.247.217s-1.124-18.069-1.292-20.621-.143-15.79.459-31.928Z" transform="translate(-246.922 -109.09)" fill="#455a64"/>
          <path id="Path_61369" data-name="Path 61369" d="M268.749,133.679l-1.434-8.991a7.544,7.544,0,0,1-4.825-2.148s.224,2.068,4.067,3.39l1.316,7.451-.844,14.126Z" transform="translate(-249.653 -114.189)" fill="#37474f"/>
        </g>
        <g id="freepik--top--inject-36-2" data-name="freepik--top--inject-36">
          <path id="Path_61370" data-name="Path 61370" d="M252,66.28c-2.3.515-4.123,1.08-4.893,5.551-.683,4-2.36,13.586-2.36,13.586s-.77.192-3.781.882c-2.794.621-4.346,1.2-5.9.54l1.5,5.986c2.446-.1,5.2-.255,8.072-.472,2.391-.186,4.576-.416,4.967-1.459.758-1.863,3.539-12.754,3.539-12.754Z" transform="translate(-219.774 -40.277)" fill="#c8856a"/>
          <path id="Path_61371" data-name="Path 61371" d="M259.852,65.18c-2.341.23-4.967.969-5.9,4.471-.7,2.732-1.763,8.743-1.763,8.743a8.308,8.308,0,0,0,6.532,1.77l1.59-7.929Z" transform="translate(-226.264 -39.86)" fill="#ba6dd7"/>
          <g id="freepik--Arm--inject-36">
            <path id="Path_61372" data-name="Path 61372" d="M223.58,96.657a5.787,5.787,0,0,1,4.421-.23c.745.4,2,1.59,2.713,1.72a25.04,25.04,0,0,1-4.315-.255A6.662,6.662,0,0,1,223.58,96.657Z" transform="translate(-215.419 -51.579)" fill="#af6152"/>
            <path id="Path_61373" data-name="Path 61373" d="M233.353,107.346a6.116,6.116,0,0,1-2.695.385c-.838-.062-3.278-2.366-3.278-2.366l3.663-.385Z" transform="translate(-216.859 -54.947)" fill="#af6152"/>
            <g id="freepik--arm--inject-36-2" data-name="freepik--arm--inject-36">
              <path id="Path_61374" data-name="Path 61374" d="M229.409,144a1.794,1.794,0,0,0,1.6-.056.553.553,0,0,0,.31-.484L228.26,46.05l-2.26.081,3.061,97.411A.559.559,0,0,0,229.409,144Z" transform="translate(-216.336 -32.608)" fill="#263238"/>
              <path id="Path_61375" data-name="Path 61375" d="M227.96,46.147a.491.491,0,0,0,0-.925,1.776,1.776,0,0,0-1.6.062c-.435.267-.416.683.037.919a1.745,1.745,0,0,0,1.565-.056Z" transform="translate(-216.352 -32.233)" fill="#37474f"/>
              <path id="Path_61376" data-name="Path 61376" d="M213.838,34.442h.037a.236.236,0,0,0,.2-.255l-.546-4.092a.224.224,0,1,0-.441.056l.54,4.092A.224.224,0,0,0,213.838,34.442Z" transform="translate(-211.438 -26.477)" fill="#37474f"/>
              <path id="Path_61377" data-name="Path 61377" d="M210.451,29.654a5.706,5.706,0,0,1,1.993-4.756,1.776,1.776,0,0,1,1.813-.4h0l16.25,6.83-2.782,6.743-16.256-6.83h0a1.8,1.8,0,0,1-1.018-1.59Z" transform="translate(-210.436 -24.402)" fill="#f0f0f0"/>
              <path id="Path_61378" data-name="Path 61378" d="M238.618,35.909a5.712,5.712,0,0,0-1.987,4.762c.211,1.633,1.441,2.148,2.751,1.149a5.712,5.712,0,0,0,1.987-4.762C241.157,35.424,239.959,34.909,238.618,35.909Z" transform="translate(-220.36 -28.57)" fill="#e0e0e0"/>
              <path id="Path_61379" data-name="Path 61379" d="M239.979,39.659a1.484,1.484,0,0,0-.522,1.242c.056.422.379.559.714.3a1.5,1.5,0,0,0,.522-1.242C240.637,39.535,240.314,39.4,239.979,39.659Z" transform="translate(-221.436 -30.135)" fill="#455a64"/>
              <path id="Path_61380" data-name="Path 61380" d="M229.793,45.475a1.279,1.279,0,0,0,.851-.248,1.577,1.577,0,0,0,.491-1.527l-.571-4.315a.217.217,0,0,0-.255-.192.224.224,0,0,0-.192.248l.571,4.346a.969.969,0,0,1-1.478,1.105l-12.58-5.253a4.067,4.067,0,0,1-2.223-2.918.225.225,0,0,0-.447.056,4.539,4.539,0,0,0,2.484,3.272l12.586,5.259A2.2,2.2,0,0,0,229.793,45.475Z" transform="translate(-211.771 -28.996)" fill="#37474f"/>
            </g>
            <path id="Path_61381" data-name="Path 61381" d="M223.2,96.922a1.981,1.981,0,0,0-.4,2.4,6.829,6.829,0,0,1,.4,1.863c.13.534.733.7.733,1.037s-.435.5.267,1.1a3.955,3.955,0,0,0,1.788,1.074,10.8,10.8,0,0,0,2.167-.2c.478-.093.441-1.062-.919-1.354h1c.41,0,1.049-.075.416-1.167a26.811,26.811,0,0,0-2.583-4.092A2.956,2.956,0,0,0,223.2,96.922Z" transform="translate(-215.039 -51.844)" fill="#c8856a"/>
            <path id="Path_61382" data-name="Path 61382" d="M223.454,98.7a11.4,11.4,0,0,1,2.732-.621l.373-.05c.776.422,1.776,3.055,2.4,4.123.335.577.31.876.155,1.025-.062-.192-.118-.4-.186-.621a2.838,2.838,0,0,0-2.061-2.179,8.917,8.917,0,0,0-2.44-.447C223.858,99.824,223.144,99.253,223.454,98.7Z" transform="translate(-215.342 -52.312)" fill="#af6152"/>
            <path id="Path_61383" data-name="Path 61383" d="M228.532,101.7c.428-.155.242-.9-.36-1.385a8.209,8.209,0,0,0-1.54-.919,9.891,9.891,0,0,0-.894-.428c-.124-.043-.3-.062-.379-.161a.366.366,0,0,1,0-.373.8.8,0,0,1,.379-.3,2.1,2.1,0,0,1,1.77,0,4.241,4.241,0,0,1,.832.8,19.6,19.6,0,0,1,2.285,3.1c.621,1.093-.913,1.3-1.323,1.242h0c.658-.068.466-1.341-.726-1.621" transform="translate(-216.074 -52.276)" fill="#af6152"/>
            <path id="Path_61384" data-name="Path 61384" d="M225.16,105.19a4.154,4.154,0,0,0,.7.422c.242.118.491.236.739.342a1.863,1.863,0,0,0,.807.143,5.085,5.085,0,0,0,.813-.081H227.4a2.867,2.867,0,0,1-.4-.037,1.271,1.271,0,0,1-.379-.118c-.255-.093-.5-.2-.745-.317A6.444,6.444,0,0,1,225.16,105.19Z" transform="translate(-216.018 -55.027)" fill="#af6152"/>
            <path id="Path_61385" data-name="Path 61385" d="M224.71,102.09a8.485,8.485,0,0,0,.869.546,7.978,7.978,0,0,0,.925.453,3.577,3.577,0,0,0,1.018.149h1.025l-1.018-.068a3.552,3.552,0,0,1-1-.174,7.72,7.72,0,0,1-.925-.422Q225.157,102.351,224.71,102.09Z" transform="translate(-215.847 -53.851)" fill="#af6152"/>
            <path id="Path_61386" data-name="Path 61386" d="M234.946,99.105a19.063,19.063,0,0,1-3.533-.255,12.661,12.661,0,0,1-2.676-1.087,3.552,3.552,0,0,0-2.546-.261c-1.515.31-1.981.478-2.732.621-.286.54.4,1.13.969,1.242a8.631,8.631,0,0,1,2.44.441,2.856,2.856,0,0,1,2.061,2.186c.435,1.416.671,2.776,2.384,2.664,2.024-.137,4.967-.329,6.451-.416Z" transform="translate(-215.348 -52.065)" fill="#c8856a"/>
            <path id="Path_61387" data-name="Path 61387" d="M226.189,97.61c-.925.143-1.826.4-2.738.577h0a.621.621,0,0,0-.037.459,1.006,1.006,0,0,0,.248.385,1.528,1.528,0,0,0,.789.416,1.646,1.646,0,0,1-.751-.453.913.913,0,0,1-.23-.366.553.553,0,0,1,.043-.41h0c.466-.068.913-.2,1.366-.31Z" transform="translate(-215.345 -52.153)" fill="#af6152"/>
          </g>
          <path id="Path_61388" data-name="Path 61388" d="M256.734,71.839c.491-6.774,2.192-6.663,6.085-7.308a21.416,21.416,0,0,1,6.141-.292,42.1,42.1,0,0,1,7.134,1.478L277.249,80V95.72c-4.346,2.769-16.666,1.1-21.279-1.683C255.8,89.827,256.368,76.894,256.734,71.839Z" transform="translate(-227.685 -39.465)" fill="#263238"/>
          <g id="freepik--Head--inject-36" transform="translate(29.534 5.568)">
            <path id="Path_61389" data-name="Path 61389" d="M278.42,49.157l.118-2.043a8.352,8.352,0,0,1-1.434-3.272,5.35,5.35,0,0,1,.23-2.664c.658-.5,2.136-1.726,2.98-1.8,1.211-.1,1.925,1.676,2.086,2.316a12.512,12.512,0,0,1-.056,4.346,7.222,7.222,0,0,1-1.18,2.993c-.671.993-1.49,1.863-2.235,2.819-.062.081-.137.161-.236.155s-.18-.137-.211-.255a9.413,9.413,0,0,1-.062-2.6Z" transform="translate(-265.225 -35.645)"/>
            <path id="Path_61390" data-name="Path 61390" d="M274.06,36.971c.72,2.943-5.346,9.134-8.37,9.1s-5.092-4.03-5.061-7.054,1.285-4.669,5.886-5.526C269.49,32.941,273.39,34.245,274.06,36.971Z" transform="translate(-258.997 -33.369)"/>
            <path id="Path_61391" data-name="Path 61391" d="M274.709,50.131a1.6,1.6,0,0,1-1.863-.323l-.224,6.247a4.793,4.793,0,0,1-2.2,2.1,7.073,7.073,0,0,1-4.676.478c-1.26-.478-1.919-1.465-.1-3.005l.068-1.863a10.953,10.953,0,0,1-2.13,0,3.361,3.361,0,0,1-2.577-2.751c-.621-2.347-.453-5.868.478-10.413,1.515-1.155,6.47-1.3,9.624.72a9.934,9.934,0,0,0,.329,4.011c.093.4.621,1.465.95,1.521.621.1.751-.621,1.167-1.025a1.757,1.757,0,0,1,2.651.751A2.939,2.939,0,0,1,274.709,50.131Z" transform="translate(-259 -35.793)" fill="#c8856a"/>
            <path id="Path_61392" data-name="Path 61392" d="M268.787,59.949c2.148-.2,4.818-1.174,5.514-2.155a7.133,7.133,0,0,0,.95-1.794,6.905,6.905,0,0,1-.621,2.546c-.528.857-2.515,2.3-5.88,2.484Z" transform="translate(-262.075 -41.948)" fill="#af6152"/>
            <path id="Path_61393" data-name="Path 61393" d="M270.88,49.121a.621.621,0,1,0,.621-.621A.621.621,0,0,0,270.88,49.121Z" transform="translate(-262.882 -39.105)" fill="#263238"/>
            <path id="Path_61394" data-name="Path 61394" d="M271.06,45.244l1.347.621a.77.77,0,0,0-.391-.993.72.72,0,0,0-.956.373Z" transform="translate(-262.951 -37.705)" fill="#263238"/>
            <path id="Path_61395" data-name="Path 61395" d="M262.44,45.7l1.441-.36a.714.714,0,0,0-.876-.553A.776.776,0,0,0,262.44,45.7Z" transform="translate(-259.676 -37.689)" fill="#263238"/>
            <path id="Path_61396" data-name="Path 61396" d="M262.34,48.849a.385.385,0,1,1,.037,0Z" transform="translate(-259.645 -38.944)" fill="#263238"/>
            <path id="Path_61397" data-name="Path 61397" d="M275.73,46.34l4.645,1.652a1.509,1.509,0,0,0-1.335.621l-3.291-1.242Z" transform="translate(-264.721 -38.286)" fill="#455a64"/>
            <path id="Path_61398" data-name="Path 61398" d="M258,46.544a1.241,1.241,0,0,0,.292.621.559.559,0,0,1,.118.236,12.263,12.263,0,0,0,.41,1.77,1.968,1.968,0,0,0,1.9,1.242,3.4,3.4,0,0,0,.652-.056h.05a1.987,1.987,0,0,0,.522-.2h.037l.043-.031.056-.037.05-.043.056-.043a.454.454,0,0,0,.056-.05l.106-.1a2.862,2.862,0,0,0,.422-.677c.273-.621.2-1.478.652-1.583h.118c.621,0,.54.95.882,1.621a2.3,2.3,0,0,0,2.273,1.354H267a2.259,2.259,0,0,0,.317-.05h.261a2.161,2.161,0,0,0,.36-.168l.124-.087a1.416,1.416,0,0,0,.211-.18,2.1,2.1,0,0,0,.4-.621,11.584,11.584,0,0,0,.366-1.751.776.776,0,0,1,.1-.255,1.242,1.242,0,0,0,.3-.621.559.559,0,0,0-.373-.559l-.329-.043a10.028,10.028,0,0,0-3.241.043c-1.025.279-1.385.621-1.956.621s-.882-.354-1.863-.677a8.811,8.811,0,0,0-3.036-.155h-.3a.522.522,0,0,0-.342.484Zm6.756.621a.789.789,0,0,1,.292-.242l.056-.031h0a1.089,1.089,0,0,1,.149-.068l.13-.056a3.049,3.049,0,0,1,.441-.137l.174-.043a4.053,4.053,0,0,0,.453-.075h.1a2.633,2.633,0,0,1,1.832.354c.236.217.13,1.124.037,1.59a.081.081,0,0,0,0,.037v.037a.794.794,0,0,1-.043.186,1.116,1.116,0,0,1-.031.118h0a.613.613,0,0,1-.062.2c-.025.068,0,.043-.031.062a.118.118,0,0,0,0,.043.1.1,0,0,0,0,.043.225.225,0,0,0,0,.056l-.037.062-.037.062-.043.068a1.565,1.565,0,0,1-1.441.658,1.9,1.9,0,0,1-1.459-.559,2.043,2.043,0,0,1-.478-.938,2.1,2.1,0,0,1,.006-1.4Zm-5.818-.491a.857.857,0,0,1,.242-.149h0l.106-.043a.279.279,0,0,0,.068,0h.149l.224-.043h.528a4.267,4.267,0,0,1,.453.043,2.744,2.744,0,0,1,1.633.72,2.3,2.3,0,0,1,.062,1.4,1.214,1.214,0,0,1-.093.348h0v.037h0v.037a.368.368,0,0,1-.037.087.415.415,0,0,1-.037.075h0a.346.346,0,0,0,0,.05v.037h0a1.559,1.559,0,0,1-1.465.671,1.621,1.621,0,0,1-.739-.18,2.111,2.111,0,0,1-.969-1.509c-.186-.435-.323-1.354-.118-1.559Z" transform="translate(-258 -38.155)" fill="#455a64"/>
            <path id="Path_61399" data-name="Path 61399" d="M263.31,51.519l2.173.553.354-3.4a.428.428,0,0,0-.286-.1h-.112a.378.378,0,0,0-.124.056C265.285,48.657,263.31,51.519,263.31,51.519Z" transform="translate(-260.013 -39.131)" fill="#af6152"/>
            <path id="Path_61400" data-name="Path 61400" d="M269.071,55.59l-2.521.54a1.242,1.242,0,0,0,1.521,1.031A1.341,1.341,0,0,0,269.071,55.59Z" transform="translate(-261.241 -41.792)" fill="#af6152"/>
            <path id="Path_61401" data-name="Path 61401" d="M269.445,56.244a1.291,1.291,0,0,1,.31,0,1.316,1.316,0,0,1-1.006,1.161,1.136,1.136,0,0,1-.41,0,1.186,1.186,0,0,1,1.105-1.161Z" transform="translate(-261.92 -42.037)" fill="#ffa8a7"/>
          </g>
          <path id="Path_61402" data-name="Path 61402" d="M294.853,118.763c1.143.329,2.6-1.093,3.005-1.583s-.118-1.664-.36-2.658,0-2.664-1.242-2.192S292.481,116.105,294.853,118.763Z" transform="translate(-242.066 -57.702)" fill="#af6152"/>
          <path id="Path_61403" data-name="Path 61403" d="M287.7,67.75c3.279.621,3.434.919,5.545,4.657,2.242,3.98,5.694,10.357,6.42,11.916s1.428,2.695-.528,5.1c-1.745,2.136-6.892,8.3-7.656,9.183-.677.782.081,3.1,2.4,2.744,0,0-1.763,1.565-2.738,1.391-.838-.149-2.155-.882-3.365-3.421-.764-1.608-.124-2.862,1.037-4.651C290.2,92.537,293.2,86.6,293.2,86.6l-5.849-9.668S285,70.569,287.7,67.75Z" transform="translate(-239.232 -40.834)" fill="#c8856a"/>
          <path id="Path_61404" data-name="Path 61404" d="M287.295,66.68c1.863.5,3,.7,3.837,1.863s5.781,10.314,5.781,10.314A7.321,7.321,0,0,1,290.6,82.9l-3.912-5.986S283.613,69.511,287.295,66.68Z" transform="translate(-238.885 -40.428)" fill="#ba6dd7"/>
        </g>
      </g>
    </g>
    <g id="freepik--character-2--inject-36" transform="translate(118.09 190.042)">
      <g id="freepik--character--inject-36-3" data-name="freepik--character--inject-36">
        <path id="freepik--shadow--inject-36-8" data-name="freepik--shadow--inject-36" d="M230.453,378.931c7.563,3.769,11.127,6.315,7.209,9.09s-14.7,7.942-14.7,7.942l-1.4,4.694L206.1,391.722v-5.315s9.544-6.582,13.269-7.849S226.019,376.727,230.453,378.931Z" transform="translate(-194.518 -323.871)" opacity="0.15"/>
        <path id="Path_61405" data-name="Path 61405" d="M211,417.6s2.335,5.731,2.453,7.985c.124,2.359.7,3.1.3,5.7-.087.553-.379,1.67-.453,2.124a.671.671,0,0,0,.621.838c1.025.211,2.72-1.708,3.527-3.794a62.782,62.782,0,0,0,2.024-7.364,3.235,3.235,0,0,0-.323-1.652,4.77,4.77,0,0,0-.472-.851c-.335-1.025-.5-2.974-.782-4.346Z" transform="translate(-196.376 -338.578)" fill="#ffa8a7"/>
        <path id="Path_61406" data-name="Path 61406" d="M220.18,430.72a2.527,2.527,0,0,1,.273.776A9.311,9.311,0,0,1,219,434.073a3.782,3.782,0,0,0-.77,2.676,6.513,6.513,0,0,1-1.571,4.191,10.32,10.32,0,0,1-5.135,3.359c-2.484.764-3.353-.478-3.353-.478s-.77-1.2-.31-1.689S220.18,430.72,220.18,430.72Z" transform="translate(-195.13 -344.068)" fill="#263238"/>
        <path id="Path_61407" data-name="Path 61407" d="M217.323,423.24a.5.5,0,0,1,.4.211c.074.087.528,1.2.9,1.788a7.916,7.916,0,0,1,1.49,2.645c-.577,1.863-2.3,3.1-2.558,4.856s-.292,3.726-2.956,5.874-5.414,2.347-6.4,1.782-.9-1.621.478-3.626c1.453-2.136,2.44-6.762,2.44-6.768a14.9,14.9,0,0,0,.255-1.962,12.936,12.936,0,0,0-.18-1.95,1.415,1.415,0,0,1,.124-.882,1.483,1.483,0,0,1,.733-.509,6.749,6.749,0,0,1,1.372-.466,2.2,2.2,0,0,1,1.41.174c.31.168.559.428.882.565a1.279,1.279,0,0,0,1.31-.236,1.074,1.074,0,0,0,.354-1.2,2.214,2.214,0,0,0-.062-.292Z" transform="translate(-195.068 -341.232)" fill="#455a64"/>
        <path id="Path_61408" data-name="Path 61408" d="M216.114,443.98a4.266,4.266,0,0,0-3.868-2.093c-2.831,0-3.812,1.453-4.241,2.3-.515,1.006-1.049,2.838.118,3.359,1.242.571,2.726.4,5.029-.758A6.154,6.154,0,0,0,216.114,443.98Z" transform="translate(-195.02 -348.299)" fill="#fafafa"/>
        <path id="Path_61409" data-name="Path 61409" d="M217.859,431.01a.317.317,0,0,1-.261,0c-.435-.223-2.751-.708-4.1.54-.18-.137-.143-.4.081-.758a5.216,5.216,0,0,1,4.3-.286.273.273,0,0,1,.112.379A.311.311,0,0,1,217.859,431.01Z" transform="translate(-197.28 -343.861)" fill="#fafafa"/>
        <path id="Path_61410" data-name="Path 61410" d="M213.081,434.271a.869.869,0,0,1,.161-.776,5.315,5.315,0,0,1,4.1-.168.279.279,0,0,1,.112.379.31.31,0,0,1-.13.124.317.317,0,0,1-.261,0A4.458,4.458,0,0,0,213.081,434.271Z" transform="translate(-197.153 -344.93)" fill="#fafafa"/>
        <path id="Path_61411" data-name="Path 61411" d="M211.24,440.239a1.633,1.633,0,0,1,.36-1.031,5.247,5.247,0,0,1,4.235-.242.267.267,0,0,1,.106.379.317.317,0,0,1-.13.124.286.286,0,0,1-.255,0C215.09,439.227,212.538,438.705,211.24,440.239Z" transform="translate(-196.467 -347.066)" fill="#fafafa"/>
        <path id="Path_61412" data-name="Path 61412" d="M216.619,436.654a.285.285,0,0,1-.255,0,4.4,4.4,0,0,0-4.055.509.987.987,0,0,1,.236-.838,5.315,5.315,0,0,1,4.1-.168.279.279,0,0,1,.112.379A.329.329,0,0,1,216.619,436.654Z" transform="translate(-196.866 -346.003)" fill="#fafafa"/>
        <path id="Path_61413" data-name="Path 61413" d="M202.047,429.76s-1.18,6.979-2.422,9.7a21.092,21.092,0,0,1-3.726,6.066c-.385.447-1.242,1.279-1.583,1.639a.7.7,0,0,0,.074,1.074c.789.758,4.135.938,6.011-.472s3.577-4.4,4.694-5.526c.422-.428.82-.863,1.192-1.323s.267-.863.3-1.366v-.894c.255-1.18.95-3.024,1.316-4.173Z" transform="translate(-189.968 -343.704)" fill="#ffa8a7"/>
        <path id="Path_61414" data-name="Path 61414" d="M204.686,452.59a2.434,2.434,0,0,1-.087.851,8.837,8.837,0,0,1-2.527,1.794,3.974,3.974,0,0,0-1.919,2.192,6.83,6.83,0,0,1-3.359,3.26,10.816,10.816,0,0,1-6.358.888c-2.689-.385-2.962-1.956-2.962-1.956s-.192-1.472.459-1.732S204.686,452.59,204.686,452.59Z" transform="translate(-187.447 -352.358)" fill="#263238"/>
        <path id="Path_61415" data-name="Path 61415" d="M204.2,442.9c.074.031.211.068.292.379a17.676,17.676,0,0,0,.05,2.092,8.224,8.224,0,0,1,.224,3.173c-1.366,1.484-3.564,1.925-4.589,3.446s-1.95,3.421-5.421,4.241-6.166-.2-6.83-1.167-.124-1.937,2.074-3.223c2.335-1.372,5.334-5.309,5.334-5.309a16.141,16.141,0,0,0,1.124-1.751,14.179,14.179,0,0,0,.7-1.925,1.515,1.515,0,0,1,.509-.776,1.546,1.546,0,0,1,.919-.155,7.209,7.209,0,0,1,1.509.174,2.322,2.322,0,0,1,1.242.795c.217.292.335.658.577.925a1.335,1.335,0,0,0,1.347.366,1.142,1.142,0,0,0,.875-.981,3.006,3.006,0,0,0,.068-.3Z" transform="translate(-187.529 -348.308)" fill="#455a64"/>
        <path id="Path_61416" data-name="Path 61416" d="M196.927,460.848a4.44,4.44,0,0,0-2.726-3.726c-2.682-1.242-4.253-.329-5.042.279-.938.727-2.26,2.223-1.385,3.241s2.4,1.583,5.092,1.521A6.408,6.408,0,0,0,196.927,460.848Z" transform="translate(-187.463 -353.842)" fill="#fafafa"/>
        <path id="Path_61417" data-name="Path 61417" d="M205.315,448.827a.31.31,0,0,1-.242-.112c-.317-.41-2.285-1.9-4.123-1.316-.106-.211.043-.441.416-.683a5.446,5.446,0,0,1,4.2,1.652.279.279,0,0,1-.068.4.3.3,0,0,1-.18.056Z" transform="translate(-192.553 -350.128)" fill="#fafafa"/>
        <path id="Path_61418" data-name="Path 61418" d="M199.38,449.714a.913.913,0,0,1,.5-.664,5.538,5.538,0,0,1,3.949,1.677.279.279,0,0,1-.062.4.286.286,0,0,1-.18.062.3.3,0,0,1-.242-.118A4.662,4.662,0,0,0,199.38,449.714Z" transform="translate(-191.971 -351.016)" fill="#fafafa"/>
        <path id="Path_61419" data-name="Path 61419" d="M194.86,454.625a1.732,1.732,0,0,1,.8-.807,5.483,5.483,0,0,1,4.117,1.658.286.286,0,0,1-.062.41.323.323,0,0,1-.18.056.292.292,0,0,1-.242-.118C198.958,455.4,196.81,453.756,194.86,454.625Z" transform="translate(-190.257 -352.822)" fill="#fafafa"/>
        <path id="Path_61420" data-name="Path 61420" d="M201.643,453.562a.317.317,0,0,1-.242-.118c-.31-.4-2.248-1.863-4.061-1.335a1.043,1.043,0,0,1,.621-.689,5.588,5.588,0,0,1,3.955,1.677.286.286,0,0,1-.068.41A.31.31,0,0,1,201.643,453.562Z" transform="translate(-191.197 -351.914)" fill="#fafafa"/>
        <path id="Path_61421" data-name="Path 61421" d="M220.6,365.69c-2.862,2.1-12.841,7.855-16.889,11.605-1.174,1.08-1.559,2.484-1.242,5.619.391,4.216,3.726,18.591,3.726,18.591.459.807,1.242-.733,1.242-.733L223.241,380.7Z" transform="translate(-193.1 -319.416)" fill="#ba6dd7"/>
        <path id="Path_61422" data-name="Path 61422" d="M220.6,365.69c-2.862,2.1-12.841,7.855-16.889,11.605-1.174,1.08-1.559,2.484-1.242,5.619.391,4.216,3.726,18.591,3.726,18.591.459.807,1.242-.733,1.242-.733L223.241,380.7Z" transform="translate(-193.1 -319.416)" opacity="0.3"/>
        <path id="Path_61423" data-name="Path 61423" d="M209.556,399.185c3.657-3.055,15.473-21.732,15.473-21.732h0c-1.608-1.354-2.44-6.073-2.44-6.073a9.041,9.041,0,0,0,.528,5.588c-.925.807-6.209,5.129-9.835,8.022a5.228,5.228,0,0,0-2.167,3.266A99.005,99.005,0,0,0,209.556,399.185Z" transform="translate(-195.826 -321.573)" opacity="0.3"/>
        <path id="Path_61424" data-name="Path 61424" d="M221.874,365.69h0l20.348,4.5c-.993,3.726-1.279,5.663-2.316,7.631s-2.192,4.079-7.451,6.681c-5.1,2.484-11.319,5.1-12.568,5.688-.938.447-1.385,2.322-1.807,4.756a28.95,28.95,0,0,1-3.011,9.9c-2.484,5.241-2.974,6.377-2.974,6.377s-3.825.4-6.364-1.863c0,0,3.465-17.976,4.2-21.211a6.7,6.7,0,0,1,2.664-4.75c1.925-1.7,10.518-8.209,10.518-8.209S219.67,370.639,221.874,365.69Z" transform="translate(-194.378 -319.416)" fill="#ba6dd7"/>
        <path id="Path_61425" data-name="Path 61425" d="M221.874,365.69h0l20.348,4.5c-.993,3.726-1.279,5.663-2.316,7.631s-2.192,4.079-7.451,6.681c-5.1,2.484-11.319,5.1-12.568,5.688-.938.447-1.385,2.322-1.807,4.756a28.95,28.95,0,0,1-3.011,9.9c-2.484,5.241-2.974,6.377-2.974,6.377s-3.825.4-6.364-1.863c0,0,3.465-17.976,4.2-21.211a6.7,6.7,0,0,1,2.664-4.75c1.925-1.7,10.518-8.209,10.518-8.209S219.67,370.639,221.874,365.69Z" transform="translate(-194.378 -319.416)" opacity="0.3"/>
        <g id="freepik--top--inject-36-3" data-name="freepik--top--inject-36" transform="translate(3.051)">
          <path id="Path_61426" data-name="Path 61426" d="M214.782,329.213c-1.2,1.621-7,8.8-7,8.8-1.18-1.5-2.577-3.347-3.763-4.967a22.888,22.888,0,0,1-2.925-5.737,16.247,16.247,0,0,0-1.012-2.217,6.83,6.83,0,0,1-.726-2.366c0-.41-1.062-.342-1.316.95a9.2,9.2,0,0,0,.124,2.583c-.491-.155-1.242-.5-2.3-.813s-3.1-1.124-3.142.2c0,.3.13.621.037.888a1.82,1.82,0,0,1-.2.373,1.484,1.484,0,0,0,.037,1.521.894.894,0,0,1,.168.323c.037.242-.137.472-.168.7a1.577,1.577,0,0,0,.168.813c.161.36.41.683.571,1.043a5.131,5.131,0,0,0,.323.671,2.03,2.03,0,0,0,1.2.975c.7.23,1.428.478,2.434.8.8.248,1.378,1.329,2.217,3.1a78.978,78.978,0,0,0,4.688,7.979,7.218,7.218,0,0,0,.621.863c2.068,2.819,3.241,2.006,6.694-1.031,4.253-3.726,7.805-7.451,7.805-7.451l1.583-12.959C218.4,324.984,215.98,327.586,214.782,329.213Z" transform="translate(-192.361 -303.044)" fill="#ffa8a7"/>
          <path id="Path_61427" data-name="Path 61427" d="M234.214,324.51a7.641,7.641,0,0,0-5.545,2.732c-1.677,1.658-5.7,6.954-5.7,6.954s-.224,3.185,5.446,6.687l5.315-4.589Z" transform="translate(-203.964 -303.806)" fill="#37474f"/>
          <path id="Path_61428" data-name="Path 61428" d="M197.963,329.13c.795.161,1.062.621,1.167,1.751a2.986,2.986,0,0,0,1.155,2.26,1.714,1.714,0,0,1-.975-.3c-.379-.3-.472-.335-.621-.118a1.311,1.311,0,0,1-.459.342.857.857,0,0,1,.186,1.006c-.279.621-2.068.546-3.4.037,0,0,2.366.621,2.769-.056s-1.025-1.633-1.863-1.763c0,0,2.279.491,2.484-.192s-.888-1.323-2.086-1.484c0,0,1.919.354,2.136-.236A1.018,1.018,0,0,0,197.963,329.13Z" transform="translate(-193.369 -305.557)" fill="#f28f8f"/>
          <path id="Path_61429" data-name="Path 61429" d="M217.19,346.949a10.183,10.183,0,0,1,2.372,5.719s.652-2.918-1.664-6.588Z" transform="translate(-201.773 -311.983)" fill="#f28f8f"/>
          <path id="Path_61430" data-name="Path 61430" d="M232.223,332.449c.621-6.3,2.117-8,5.34-8.308l5.34-.391a56.528,56.528,0,0,1,8.749,3.2c1.062.621,1.422,3.049,1.49,6.954.062,3.173-.031,5.824-.335,10.189a63.42,63.42,0,0,1-1.9,12.878c-4.446,1.453-16-.484-20.776-6.495a37.619,37.619,0,0,0,1.664-5.9C231.912,339.074,232.03,334.461,232.223,332.449Z" transform="translate(-206.679 -303.518)" fill="#ba6dd7"/>
          <path id="Path_61431" data-name="Path 61431" d="M234.556,296.564a2,2,0,0,0,.534.435.925.925,0,0,0-.838.683,1.8,1.8,0,0,0,.1,1.136,3.142,3.142,0,0,0,.9,1.279,7.31,7.31,0,0,0,1.472.751,6.911,6.911,0,0,1,.931.782c.453.341.894.689,1.347,1.025a28.428,28.428,0,0,0,2.844,1.832,19.6,19.6,0,0,0,2.931,1.36c1.074.391,1.975.037,3.1.13l-.143,3.1s.373-.72.807-1.577c.366-.739,1.906-4.483,1.906-4.483a10.6,10.6,0,0,0,1.279-4.657c-.087-1.329-.36-2.484-1.372-3.049a3.56,3.56,0,0,0-1.521-3.1,5.9,5.9,0,0,0-2.658-.981,10.762,10.762,0,0,0-3.216.13c-2.987.5-6.042,1.36-8.9-.093a2.533,2.533,0,0,0,.211,1.347,6.47,6.47,0,0,0,1.72,2.446l-1.67-.2a.273.273,0,0,0-.186,0,.236.236,0,0,0-.068.18,2.061,2.061,0,0,0,.491,1.527Z" transform="translate(-208.161 -291.166)" fill="#455a64"/>
          <path id="Path_61432" data-name="Path 61432" d="M245.905,298.621a6.383,6.383,0,0,0,2.328,3.862,9.663,9.663,0,0,0-.056,3.272,1.7,1.7,0,0,0,.248.658.807.807,0,0,0,.577.36.532.532,0,0,0,.54-.422,7.592,7.592,0,0,1,.478-.919,1.775,1.775,0,0,1,.273-.36,1.552,1.552,0,0,1,2.571.515,3.263,3.263,0,0,1-1.7,3.974c-1.968.559-2.409-.782-2.409-.782l.081,6.532c-.546,1.664-3.6,3.291-6.073,2.987s-1.7-1.8-.7-2.819l-.143-2.266a9.6,9.6,0,0,1-2.633-.081c-1.031-.192-1.863-1.149-2.316-2.7a23.788,23.788,0,0,1-.348-9.072,5.046,5.046,0,0,1,1.9-3.359c0,.4.317,1.366,2.31,1.627A9.42,9.42,0,0,0,245.905,298.621Z" transform="translate(-209.036 -293.757)" fill="#ffa8a7"/>
          <path id="Path_61433" data-name="Path 61433" d="M245.33,320.268a10.984,10.984,0,0,0,4.173-1.155,6.367,6.367,0,0,0,1.739-2.453s-.043,2.229-1.043,3.173c-1.428,1.341-4.812,1.36-4.812,1.36Z" transform="translate(-212.44 -300.83)" fill="#f28f8f"/>
          <path id="Path_61434" data-name="Path 61434" d="M248.31,304.522l1.59.77a.925.925,0,0,0-.422-1.242.857.857,0,0,0-1.167.472Z" transform="translate(-213.57 -296.019)" fill="#455a64"/>
          <path id="Path_61435" data-name="Path 61435" d="M246.558,315.17l-2.558.919a1.335,1.335,0,0,0,1.72.863,1.416,1.416,0,0,0,.838-1.782Z" transform="translate(-211.936 -300.265)" fill="#b16668"/>
          <path id="Path_61436" data-name="Path 61436" d="M245.66,317.43a1.2,1.2,0,0,1,1.242-1.13,1.24,1.24,0,0,1,.31.062,1.372,1.372,0,0,1-.876,1.018A1.242,1.242,0,0,1,245.66,317.43Z" transform="translate(-212.566 -300.693)" fill="#f28f8f"/>
          <path id="Path_61437" data-name="Path 61437" d="M237.945,304.948l1.527-.826a.838.838,0,0,0-1.155-.348.894.894,0,0,0-.373,1.174Z" transform="translate(-209.607 -295.905)" fill="#455a64"/>
          <path id="Path_61438" data-name="Path 61438" d="M242.992,310.854l-2.372-.8,2.732-4.353Z" transform="translate(-210.655 -296.675)" fill="#f28f8f"/>
          <path id="Path_61439" data-name="Path 61439" d="M239.9,307.818a.7.7,0,0,1-.708.689.689.689,0,0,1-.689-.7.7.7,0,1,1,1.4.012Z" transform="translate(-209.851 -297.21)" fill="#263238"/>
          <path id="Path_61440" data-name="Path 61440" d="M248.891,307.9a.7.7,0,1,1-.2-.5.7.7,0,0,1,.2.5Z" transform="translate(-213.263 -297.24)" fill="#263238"/>
        </g>
        <g id="freepik--Laptop--inject-36" transform="translate(1.407 38.487)">
          <path id="Path_61441" data-name="Path 61441" d="M203.51,380.421a3.77,3.77,0,0,1,.621-.745c2.434-2.254,7-5.228,10.885-7.706l17.665,10.2a.161.161,0,0,1,0,.286l-12.828,7.408Z" transform="translate(-194.944 -360.284)" opacity="0.15"/>
          <path id="Path_61442" data-name="Path 61442" d="M194.88,377.23v.286a1.174,1.174,0,0,0,.584,1.012l20.546,11.86a1.161,1.161,0,0,0,.584.155,1.2,1.2,0,0,0,.621-.155l11.177-6.445a1.174,1.174,0,0,0,.584-1.018v-.391h0a.149.149,0,0,1-.075.13l-12.294,7.1Z" transform="translate(-191.672 -362.278)" fill="#37474f"/>
          <path id="Path_61443" data-name="Path 61443" d="M216.594,389.756v.782a1.143,1.143,0,0,1-.584-.155l-20.546-11.86a1.173,1.173,0,0,1-.584-1.018v-.286Z" transform="translate(-191.672 -362.274)" fill="#263238"/>
          <path id="Path_61444" data-name="Path 61444" d="M194.88,372.872l12.176-7.029a.708.708,0,0,1,.7,0l21.111,12.2a.149.149,0,0,1,0,.267l-12.294,7.1Z" transform="translate(-191.672 -357.926)" fill="#455a64"/>
          <path id="Path_61445" data-name="Path 61445" d="M218.282,386.667l6.569-3.788L205.64,371.79l-6.6,3.769Z" transform="translate(-193.249 -360.216)" fill="#37474f"/>
          <path id="Path_61446" data-name="Path 61446" d="M199.04,375.559l.248.143,6.358-3.626L224.6,383.023l.255-.143-19.205-11.09Z" transform="translate(-193.249 -360.216)" fill="#263238"/>
          <path id="Path_61447" data-name="Path 61447" d="M229.623,376.718l-.124.068-3.216,1.857-5.725-3.3-.118-.068,3.341-1.931Z" transform="translate(-201.361 -360.803)" fill="#263238"/>
          <path id="Path_61448" data-name="Path 61448" d="M229.571,376.87l-3.216,1.857-5.725-3.3,3.223-1.863Z" transform="translate(-201.433 -360.887)" fill="#37474f"/>
          <g id="freepik--arm--inject-36-3" data-name="freepik--arm--inject-36" transform="translate(21.341 11.096)">
            <path id="Path_61449" data-name="Path 61449" d="M224.534,377.217a12.175,12.175,0,0,1,3.781-2.856,7.7,7.7,0,0,1,.882-.273,10.123,10.123,0,0,1-1.292-.261,2.242,2.242,0,0,1-1.087-.72c-.112-.143-.186-.366-.05-.478a.3.3,0,0,1,.18-.062c.938-.031,1.683-.18,2.533-.242a3.594,3.594,0,0,1,1.155,0c.348.093.7.2,1.043.317a8.3,8.3,0,0,0,5.191.509l3.98-2.124s.851-.211,2.1,1.912.522,3.285.522,3.285l-4.464,1.614h-.068a14.286,14.286,0,0,1-2.1.931c-1.391.422-3.173-.081-4.384-.143a12.593,12.593,0,0,0-4.378.95c-1.124.453-2.484-1.273-3.036-1.068S223.5,378.254,224.534,377.217Z" transform="translate(-224.083 -371.021)" fill="#ffa8a7"/>
            <path id="Path_61450" data-name="Path 61450" d="M231.45,374.787a4.2,4.2,0,0,1,1.714.273,9.518,9.518,0,0,0-2.235.391,10.117,10.117,0,0,1-1.292-.261,2.347,2.347,0,0,1-.987-.621C229.327,375.048,230.637,374.868,231.45,374.787Z" transform="translate(-225.814 -372.366)" fill="#f28f8f"/>
          </g>
          <path id="Path_61451" data-name="Path 61451" d="M214.306,380.931a1.379,1.379,0,0,1-1.2-.087l-20.453-11.8a1.4,1.4,0,0,1-.677-.975l-2.242-13.35a1.385,1.385,0,0,1,.4-1.242l21.248,12.269a1.037,1.037,0,0,1,.5.72Z" transform="translate(-189.714 -353.275)" fill="#37474f"/>
          <path id="Path_61452" data-name="Path 61452" d="M214.892,380.638l-.143.081-.186.087-2.422-14.449a1.037,1.037,0,0,0-.5-.72L190.39,353.367a1.4,1.4,0,0,1,.279-.217l21.3,12.294a1.056,1.056,0,0,1,.5.72Z" transform="translate(-189.97 -353.15)" fill="#455a64"/>
          <path id="Path_61453" data-name="Path 61453" d="M225.1,373.586l.329-.186a1.056,1.056,0,0,1,.2.441l2.422,14.474-.143.081-.186.087L225.3,374.033a1.08,1.08,0,0,0-.2-.447Z" transform="translate(-203.128 -360.826)" fill="#263238"/>
          <path id="Path_61454" data-name="Path 61454" d="M208.57,376.038a4.545,4.545,0,0,0-2.061-2.651c-.993-.571-1.67-.3-1.521.59a4.52,4.52,0,0,0,2.061,2.651C208.036,377.2,208.713,376.932,208.57,376.038Z" transform="translate(-195.496 -360.707)" fill="#ba6dd7"/>
        </g>
        <path id="Path_61455" data-name="Path 61455" d="M251.09,355.251c3.508-2.148,7.613-4.539,7.613-4.539l-2.316-10.866s-.913-4.669.348-7.451,2.937-3.1,2.937-3.1a16.057,16.057,0,0,1,2.987,1.962c1.242,1.105,1.372,3.875,1.863,7.035s1.453,12.6,1.664,14.455.286,2.744-2.217,3.887c-2.651,1.242-11.9,4.346-11.9,4.346Z" transform="translate(-211.573 -305.618)" fill="#ffa8a7"/>
        <path id="Path_61456" data-name="Path 61456" d="M262.323,328.91a14.017,14.017,0,0,1,2.856,1.757c.416.435,1.124.77,1.59,3.185s1.428,9.742,1.428,9.742.137,1.037-2.521,1.67a13.271,13.271,0,0,1-5.768-.255s-1.161-5.272-1.453-6.83S257.685,330.17,262.323,328.91Z" transform="translate(-214.299 -305.474)" fill="#37474f"/>
      </g>
    </g>
    <g id="freepik--character-1--inject-36" transform="translate(37.077 67.839)">
      <g id="freepik--character--inject-36-4" data-name="freepik--character--inject-36">
        <g id="freepik--bottom--inject-36-2" data-name="freepik--bottom--inject-36" transform="translate(20.894 43.081)">
          <path id="Path_61457" data-name="Path 61457" d="M90.858,272.319c-.273-.037-.267.776-.18,1.13a4.677,4.677,0,0,0,3.1,2.024,24.894,24.894,0,0,0,5.886.174,29.616,29.616,0,0,1,4.346.832,6.166,6.166,0,0,0,4-.764,1.242,1.242,0,0,0,.317-.956c0-.782-.068-.938-.155-.938Z" transform="translate(-90.624 -204.899)" fill="#37474f"/>
          <path id="Path_61458" data-name="Path 61458" d="M108.153,268.547c.031.155.056.31.081.466a7.762,7.762,0,0,1,.068,2.4,2.155,2.155,0,0,1-1.459,1.006,7.308,7.308,0,0,1-3.98-.087,11.879,11.879,0,0,0-3.011-.416,29.048,29.048,0,0,1-4.092.031,9.593,9.593,0,0,1-2.98-.739A3.726,3.726,0,0,1,91,269.51a2.751,2.751,0,0,1,1.633-2.67,6.209,6.209,0,0,1,3.061-.522c1.149.05,2.006.23,3.024.2a5.073,5.073,0,0,0,2.03-.41,1.987,1.987,0,0,0,.671-.882c.18-.354.248-.671.577-.7,0,0,4.794.087,5.272.149s.584,2.006.621,2.384a6.646,6.646,0,0,0,.106.907A2.87,2.87,0,0,1,108.153,268.547Z" transform="translate(-90.764 -201.947)" fill="#455a64"/>
          <path id="Path_61459" data-name="Path 61459" d="M101.044,267.293a.621.621,0,0,0-.242-.1c-.466-.087-.838.354-1.049.7a3.3,3.3,0,0,0-.267.689,1.67,1.67,0,0,0-.05.907.152.152,0,0,0,.155.149c.081-.012.093-.106.1-.174a3.645,3.645,0,0,1,.391-1.211,1.614,1.614,0,0,1,.3-.435,1.384,1.384,0,0,1,.472-.273c.068,0,.385,0,.31-.149a.174.174,0,0,0-.056-.062Z" transform="translate(-93.949 -202.952)" fill="#fafafa"/>
          <path id="Path_61460" data-name="Path 61460" d="M103.465,267.434a.857.857,0,0,0-.621.149,1.273,1.273,0,0,0-.385.621,1.943,1.943,0,0,0-.093,1.565c.081.143.211.075.261-.056a2.024,2.024,0,0,0,.075-.478,4.421,4.421,0,0,1,.323-1.018,1.67,1.67,0,0,1,.2-.373.788.788,0,0,1,.217-.186l.124-.05h.13c0-.068-.068-.106-.137-.124Z" transform="translate(-95.029 -203.045)" fill="#fafafa"/>
          <path id="Path_61461" data-name="Path 61461" d="M105.913,266.868a.783.783,0,0,0-.4.248,1.093,1.093,0,0,0-.2.41,3.986,3.986,0,0,0-.224,1.012,1.242,1.242,0,0,0,.149.7c.043.087.137.168.23.13s.093-.193.1-.279,0-.329,0-.5a2.875,2.875,0,0,1,.621-1.652.093.093,0,0,0,0-.081c0-.043-.075-.05-.118-.043A1.246,1.246,0,0,0,105.913,266.868Z" transform="translate(-96.105 -202.814)" fill="#fafafa"/>
          <path id="Path_61462" data-name="Path 61462" d="M96.352,267.221c-.472,0-1.49.59-2.024,2.024a8.271,8.271,0,0,0-.3,3.266,4.663,4.663,0,0,1-2.583-1.329,2.77,2.77,0,0,1-.621-.857,2.875,2.875,0,0,1,.565-2.192,4.47,4.47,0,0,1,3.471-1.335c1.863-.037,2.024.466,2.024.466Z" transform="translate(-90.686 -202.806)" fill="#ba6dd7"/>
          <path id="Path_61463" data-name="Path 61463" d="M114.26,259.044s-.149,2.484-.342,3.608c-.106.621-.739,1.633-2.732,1.6a2.31,2.31,0,0,1-2.347-1.546,39.547,39.547,0,0,1-.112-4.5Z" transform="translate(-97.479 -199.547)" fill="#ffa8a7"/>
          <path id="Path_61464" data-name="Path 61464" d="M156.984,248.043l-3.142-6.793-6.172,1.527s5.123,7.519,5.638,8.2C154.152,252.091,156.984,248.043,156.984,248.043Z" transform="translate(-112.249 -193.122)" fill="#ffa8a7"/>
          <path id="Path_61465" data-name="Path 61465" d="M162.705,253.44a3.6,3.6,0,0,1,0,.857l-.224,2.962a6.54,6.54,0,0,1-.161,1.161,7.109,7.109,0,0,0-.05,1.409V261.3a2.651,2.651,0,0,0,0,.621c.05.2-3.1,2.018-4.39,2.72l-.23.106a2.012,2.012,0,0,1-2.074-.484,3.521,3.521,0,0,1,.863-3.875s.161,0,.13-1.242a24.1,24.1,0,0,0-.1-2.676,5.588,5.588,0,0,0-.416-1.621,3.962,3.962,0,0,1-.546-1.5,2.292,2.292,0,0,1,.5-1.043,3.224,3.224,0,0,1,.776-.838,5.588,5.588,0,0,1,2.235-1.105.994.994,0,0,1,.5,0c.255.074.4.329.577.534a5.781,5.781,0,0,0,1.428,1.062,2.564,2.564,0,0,1,1.167,1.3A.456.456,0,0,0,162.705,253.44Z" transform="translate(-115.151 -196.563)" fill="#455a64"/>
          <path id="Path_61466" data-name="Path 61466" d="M154.826,266.5a4.079,4.079,0,0,0-.41.621h0a4.471,4.471,0,0,0-.447,3.278c-2.229-.2-2.819-1.49-2.819-1.49a2.149,2.149,0,0,1,1.161-1.925,2.6,2.6,0,0,1,.484-.255h0A3.273,3.273,0,0,1,154.826,266.5Z" transform="translate(-113.568 -202.667)" fill="#ba6dd7"/>
          <path id="Path_61467" data-name="Path 61467" d="M164.992,255.775c.584.23.435,1.863.062,3.4a7.392,7.392,0,0,0-.385,3.384c.186,1.292.3,1.863-.23,2.347a49.177,49.177,0,0,1-4.719,2.428,15.405,15.405,0,0,0,.938-4.849c.112-2.862.3-4.707,1.633-6.011a2.521,2.521,0,0,1,2.7-.7Z" transform="translate(-116.817 -198.575)" fill="#ba6dd7"/>
          <path id="Path_61468" data-name="Path 61468" d="M164.992,255.775c.584.23.435,1.863.062,3.4a7.392,7.392,0,0,0-.385,3.384c.186,1.292.3,1.863-.23,2.347a49.177,49.177,0,0,1-4.719,2.428,15.405,15.405,0,0,0,.938-4.849c.112-2.862.3-4.707,1.633-6.011a2.521,2.521,0,0,1,2.7-.7Z" transform="translate(-116.817 -198.575)" opacity="0.4"/>
          <path id="Path_61469" data-name="Path 61469" d="M151,264.479a7.786,7.786,0,0,0,3.5,1.527c1.863.211,1.962-.5,2.161-2.72s.273-5.278,1.142-6.631a3.577,3.577,0,0,1,2.918-1.807c.118-.062.689.366.882.621a3.223,3.223,0,0,0-2.484.981c-1.167,1.142-1.378,3.558-1.434,5.744s-.149,4.731-1.863,5a6.365,6.365,0,0,1-4.756-1.447.888.888,0,0,1-.062-1.267Z" transform="translate(-113.42 -198.27)" fill="#37474f"/>
          <path id="Path_61470" data-name="Path 61470" d="M157.123,265.23a.621.621,0,0,0-.255.4,1.242,1.242,0,0,0,.621,1.149c.236.137.435.081.056-.379A2.409,2.409,0,0,1,157.123,265.23Z" transform="translate(-115.735 -202.212)" fill="#fafafa"/>
          <path id="Path_61471" data-name="Path 61471" d="M157.125,262.74a.559.559,0,0,0-.155.335,1.894,1.894,0,0,0,.77,1.242c.41.18.186-.273,0-.484a8.024,8.024,0,0,1-.615-1.093Z" transform="translate(-115.774 -201.268)" fill="#fafafa"/>
          <path id="Path_61472" data-name="Path 61472" d="M156.942,260a.36.36,0,0,0-.192.273,1.954,1.954,0,0,0,1.093.789c.261-.025.329-.106,0-.323A10.381,10.381,0,0,1,156.942,260Z" transform="translate(-115.691 -200.23)" fill="#fafafa"/>
          <path id="Path_61473" data-name="Path 61473" d="M135.019,218.661s-9.221-12.536-12.53-17.181a11.177,11.177,0,0,1-1.242-2.906c-.4-1.5-2.968-10.748-2.968-10.748l-2.62,13.108a49.5,49.5,0,0,1,.621,6.631,30.146,30.146,0,0,1-.826,8.016c-1.341,6.358-2.2,9.662-2.2,9.662a5.588,5.588,0,0,1-2.776.7c-2.738,0-2.974-1.161-2.974-1.161s-.441-9.879-.621-13.828-.472-7.861-.621-10.456c-.192-4.142,0-7.9.385-15.523.342-6.743,1.732-17.771,1.732-17.771l18.007-3.459s4.092,2.887,3.775,12.884c-.217,6.706.4,20.838.4,20.838,3.229,2.235,3.545,3.844,5.588,8.693.993,2.353,3.1,7.234,3.819,9.419A13.893,13.893,0,0,0,135.019,218.661Z" transform="translate(-96.524 -163.74)" fill="#37474f"/>
          <path id="Path_61474" data-name="Path 61474" d="M125.7,195.055l2.049-9.14s2.689-.192,6.352-3.1c0,0-.342,2.4-5.129,4.253l-2.4,7.768,1.447,8.569Z" transform="translate(-103.921 -170.969)" fill="#263238"/>
        </g>
        <g id="freepik--top--inject-36-4" data-name="freepik--top--inject-36">
          <path id="Path_61475" data-name="Path 61475" d="M121.5,121.687l.683,7.091,6.34-.391-.5-7.867Z" transform="translate(-81.435 -104.275)" fill="#ffa8a7"/>
          <path id="Path_61476" data-name="Path 61476" d="M113.5,109.15s-1.726,2.527-1.546,2.751a3.5,3.5,0,0,0,1.08.453Z" transform="translate(-77.81 -99.965)" fill="#f28f8f"/>
          <path id="Path_61477" data-name="Path 61477" d="M118.047,98.881c-1.167.621-3.192,1.2-4.1,4.558a19.916,19.916,0,0,0,0,2.2c-.075.726-.453,1.72-.472,2.372-.087,3.415.894,4.725,1.49,5.284.472.447,2.925.621,4.2.224,1.6-.491,5.061-2.173,6.687-4.787,1.912-3.1,2.3-7.19.1-8.8A8.345,8.345,0,0,0,118.047,98.881Z" transform="translate(-78.391 -95.862)" fill="#ffa8a7"/>
          <path id="Path_61478" data-name="Path 61478" d="M116.06,122.19a7.159,7.159,0,0,0,3.415.267l-.037-.907a9.041,9.041,0,0,1-1.614.522,5.923,5.923,0,0,1-1.763.118Z" transform="translate(-79.373 -104.665)" fill="#f28f8f"/>
          <path id="Path_61479" data-name="Path 61479" d="M116.622,96.122c-1.453,1.124-2.763,2.906-1.863,4.781a2.862,2.862,0,0,0,1.316,1.453,1.863,1.863,0,0,0,.224,1.273,2.1,2.1,0,0,0,.907.7.236.236,0,0,1,.087.068.186.186,0,0,1,0,.1v.577a.764.764,0,0,0,.1.453.5.5,0,0,0,.528.149.894.894,0,0,0,.459-.342c.124-.149.217-.323.342-.478a1.7,1.7,0,0,1,1.279-.826,1.459,1.459,0,0,1,1.41.758,2.931,2.931,0,0,1-.267,2.434,1.913,1.913,0,0,1-1.4,1.037,1.341,1.341,0,0,1-1.056-.441s-.248,2.8,2.024,3.726a8.8,8.8,0,0,0,4.75-.186c.248-.093.621-.844.826-1.062.348-.422.708-.838,1.068-1.242a12.9,12.9,0,0,0,1.453-2.192,9.935,9.935,0,0,0,1.118-5.588,7.321,7.321,0,0,0-1.161-3.067C127.122,93.993,120.472,93.148,116.622,96.122Z" transform="translate(-78.768 -94.357)" fill="#263238"/>
          <path id="Path_61480" data-name="Path 61480" d="M133.979,127.747c2.353-.553,4.967,1.118,6.458,4.812a79.648,79.648,0,0,1,3.887,13.213c.174,1.347.708,2.173-1.118,3.018a30.568,30.568,0,0,1-8.283,2.484c.093-.05-1.863-4.806-1.863-4.806l4.818-1.5-1.3-3.912Z" transform="translate(-85.817 -106.975)" fill="#ffa8a7"/>
          <path id="Path_61481" data-name="Path 61481" d="M128.462,130.452c-.5-1.956-1.155-3.235-4.868-3.061h-.515c-1.323.192-3.173.3-6.576.559-.422.081-2.918.522-3.6.621l-.59.329c-2.254.739-4,1.739-5.514,8.14-.428,1.813-.174,3.459,2.074,5.2-.056,1.863.354,3.434.124,5.21-.726,5.626-1.2,8.842-1.2,8.842a26.4,26.4,0,0,0,12.735,1.627,15.846,15.846,0,0,0,8.817-3.6,67.058,67.058,0,0,0-3.44-7.9C126.668,140.076,130.176,137.164,128.462,130.452Z" transform="translate(-75.799 -106.873)" fill="#ba6dd7"/>
          <path id="Path_61482" data-name="Path 61482" d="M95.488,124.038a29.531,29.531,0,0,0-7.24,1.484c-4.1,1.36-10.084,3.3-10.084,3.3s-10.785-4.533-11.319-5.1-.671-2.068-.857-2.732a20.138,20.138,0,0,0-1.155-2.968c-.292-.733-1.142.174-1.087,1.111.081,1.242.211,1.745-.093,1.993s-1.714-.832-3.781-3.1c-1.2-1.323-2.1-2.484-2.67-1.987s0,1.062.888,2.291A16.032,16.032,0,0,1,59.257,120c.112.2-.192.385-.3.5-.217.217-.621.571-.621.894a3,3,0,0,1,0,.528c-.093.391-.553.621-.671.981-.081.279.043.577,0,.863a4.048,4.048,0,0,1-.137.54,1.155,1.155,0,0,0,.435.975A8.966,8.966,0,0,0,60.6,126.8c.95.4,2.229.385,3.3,1.062.969.621,11.406,7.886,13.586,7.755a114.146,114.146,0,0,0,11.866-2.161c4.669-1.012,7.333-4.744,6.209-9.152A.618.618,0,0,1,95.488,124.038Z" transform="translate(-56.975 -102.528)" fill="#ffa8a7"/>
          <path id="Path_61483" data-name="Path 61483" d="M128.719,100.46s1.95.969,2.012,4.912c.043,2.8.143,6.507.174,10.065s.956,10.369-.577,11.413c-3.223,2.192-8.941,2.13-11.922,1.192s-1.472-7.569-1.863-9.786l-2.223.317a7.072,7.072,0,0,1,1.726-2.664,8.171,8.171,0,0,0,2.564-5.781c.565,1.41,2.316,1.906,3.993.8S128.719,100.46,128.719,100.46Z" transform="translate(-78.713 -96.671)" fill="#263238"/>
        </g>
      </g>
    </g>
  </g>
</svg>
