<svg xmlns="http://www.w3.org/2000/svg" width="511.311" height="370.864" viewBox="0 0 511.311 370.864">
  <g id="Video_files-rafiki" data-name="Video files-rafiki" transform="translate(0 -58.73)">
    <g id="freepik--background-complete--inject-127" transform="translate(0 58.73)">
      <path id="Path_65047" data-name="Path 65047" d="M242.9,347.928H45.439a5.849,5.849,0,0,1-5.839-5.839V64.518a5.849,5.849,0,0,1,5.839-5.788H242.9a5.839,5.839,0,0,1,5.829,5.839h0V342.088A5.839,5.839,0,0,1,242.9,347.928ZM45.439,58.935a5.594,5.594,0,0,0-5.584,5.584v277.57a5.594,5.594,0,0,0,5.584,5.583H242.9a5.584,5.584,0,0,0,5.573-5.583V64.518a5.583,5.583,0,0,0-5.573-5.584Z" transform="translate(0.896 -58.73)" fill="#e6e6e6"/>
      <path id="Path_65048" data-name="Path 65048" d="M459.2,347.928H261.729a5.839,5.839,0,0,1-5.829-5.839V64.518a5.839,5.839,0,0,1,5.829-5.788H459.2a5.839,5.839,0,0,1,5.829,5.788v277.57A5.839,5.839,0,0,1,459.2,347.928ZM261.729,58.935a5.584,5.584,0,0,0-5.573,5.584v277.57a5.584,5.584,0,0,0,5.573,5.583H459.2a5.6,5.6,0,0,0,5.594-5.583V64.518a5.6,5.6,0,0,0-5.594-5.583Z" transform="translate(5.789 -58.73)" fill="#e6e6e6"/>
      <rect id="Rectangle_14049" data-name="Rectangle 14049" width="42.142" height="0.256" transform="translate(55.007 341.024)" fill="#e0e0e0"/>
      <rect id="Rectangle_14050" data-name="Rectangle 14050" width="42.265" height="0.256" transform="translate(140.784 338.979)" fill="#e0e0e0"/>
      <rect id="Rectangle_14051" data-name="Rectangle 14051" width="10.226" height="0.256" transform="translate(227.82 338.979)" fill="#e0e0e0"/>
      <rect id="Rectangle_14052" data-name="Rectangle 14052" width="47.296" height="0.256" transform="translate(88.539 347.712)" fill="#e0e0e0"/>
      <rect id="Rectangle_14053" data-name="Rectangle 14053" width="22.089" height="0.256" transform="translate(277.335 340.891)" fill="#e0e0e0"/>
      <rect id="Rectangle_14054" data-name="Rectangle 14054" width="28.562" height="0.256" transform="translate(308.525 340.891)" fill="#e0e0e0"/>
      <rect id="Rectangle_14055" data-name="Rectangle 14055" width="63.853" height="0.256" transform="translate(410.982 345.217)" fill="#e0e0e0"/>
      <rect id="Rectangle_14056" data-name="Rectangle 14056" width="511.311" height="0.256" transform="translate(0 330.992)" fill="#e0e0e0"/>
      <rect id="Rectangle_14057" data-name="Rectangle 14057" width="1.841" height="143.546" transform="translate(83.334 42.531)" fill="#e0e0e0"/>
      <rect id="Rectangle_14058" data-name="Rectangle 14058" width="1.841" height="143.546" transform="translate(197.918 42.531)" fill="#e0e0e0"/>
      <path id="Path_65049" data-name="Path 65049" d="M205.346,109.293H74.5L71.74,102.85H208.107Z" transform="translate(1.623 -57.732)" fill="#ebebeb"/>
      <path id="Path_65050" data-name="Path 65050" d="M205.346,117.943H74.5L71.74,111.5H208.107Z" transform="translate(1.623 -57.536)" fill="#ebebeb"/>
      <path id="Path_65051" data-name="Path 65051" d="M205.346,126.593H74.5L71.74,120.15H208.107Z" transform="translate(1.623 -57.341)" fill="#ebebeb"/>
      <path id="Path_65052" data-name="Path 65052" d="M205.346,135.243H74.5L71.74,128.8H208.107Z" transform="translate(1.623 -57.145)" fill="#ebebeb"/>
      <path id="Path_65053" data-name="Path 65053" d="M205.346,143.893H74.5L71.74,137.45H208.107Z" transform="translate(1.623 -56.949)" fill="#ebebeb"/>
      <path id="Path_65054" data-name="Path 65054" d="M205.346,152.543H74.5L71.74,146.1H208.107Z" transform="translate(1.623 -56.753)" fill="#ebebeb"/>
      <path id="Path_65055" data-name="Path 65055" d="M205.346,161.193H74.5L71.74,154.75H208.107Z" transform="translate(1.623 -56.558)" fill="#ebebeb"/>
      <path id="Path_65056" data-name="Path 65056" d="M205.346,169.843H74.5L71.74,163.4H208.107Z" transform="translate(1.623 -56.362)" fill="#ebebeb"/>
      <path id="Path_65057" data-name="Path 65057" d="M205.346,178.483H74.5L71.74,172.04H208.107Z" transform="translate(1.623 -56.167)" fill="#ebebeb"/>
      <path id="Path_65058" data-name="Path 65058" d="M205.346,187.133H74.5L71.74,180.69H208.107Z" transform="translate(1.623 -55.971)" fill="#ebebeb"/>
      <path id="Path_65059" data-name="Path 65059" d="M205.346,195.783H74.5L71.74,189.34H208.107Z" transform="translate(1.623 -55.775)" fill="#ebebeb"/>
      <path id="Path_65060" data-name="Path 65060" d="M205.346,204.433H74.5L71.74,197.99H208.107Z" transform="translate(1.623 -55.58)" fill="#ebebeb"/>
      <path id="Path_65061" data-name="Path 65061" d="M205.346,213.083H74.5L71.74,206.64H208.107Z" transform="translate(1.623 -55.384)" fill="#ebebeb"/>
      <path id="Path_65062" data-name="Path 65062" d="M205.346,221.733H74.5L71.74,215.29H208.107Z" transform="translate(1.623 -55.188)" fill="#ebebeb"/>
      <path id="Path_65063" data-name="Path 65063" d="M205.346,230.383H74.5L71.74,223.94H208.107Z" transform="translate(1.623 -54.993)" fill="#ebebeb"/>
      <path id="Path_65064" data-name="Path 65064" d="M205.346,239.033H74.5L71.74,232.59H208.107Z" transform="translate(1.623 -54.797)" fill="#ebebeb"/>
      <rect id="Rectangle_14059" data-name="Rectangle 14059" width="136.367" height="3.681" transform="translate(73.363 184.236)" fill="#e0e0e0"/>
      <rect id="Rectangle_14060" data-name="Rectangle 14060" width="145.877" height="8.59" transform="translate(68.608 37.05)" fill="#e0e0e0"/>
      <path id="Path_65065" data-name="Path 65065" d="M68.593,180.694h0a1.483,1.483,0,0,1-1.483-1.483V129.1a1.483,1.483,0,0,1,1.483-1.483h0a1.483,1.483,0,0,1,1.473,1.483v50.109a1.483,1.483,0,0,1-1.473,1.483Z" transform="translate(1.518 -57.172)" fill="#e0e0e0"/>
      <rect id="Rectangle_14061" data-name="Rectangle 14061" width="1.074" height="29.758" transform="translate(69.569 43.922)" fill="#e0e0e0"/>
      <rect id="Rectangle_14062" data-name="Rectangle 14062" width="77.525" height="83.436" transform="translate(370.24 236.972)" fill="#e6e6e6"/>
      <rect id="Rectangle_14063" data-name="Rectangle 14063" width="9.746" height="100.473" transform="translate(449.862 230.765)" fill="#e6e6e6"/>
      <rect id="Rectangle_14064" data-name="Rectangle 14064" width="6.35" height="31.18" transform="translate(382.583 243.548)" fill="#fafafa"/>
      <rect id="Rectangle_14065" data-name="Rectangle 14065" width="6.35" height="31.18" transform="translate(408.926 243.548)" fill="#f5f5f5"/>
      <rect id="Rectangle_14066" data-name="Rectangle 14066" width="6.35" height="28.991" transform="translate(388.934 245.736)" fill="#f5f5f5"/>
      <rect id="Rectangle_14067" data-name="Rectangle 14067" width="6.35" height="28.991" transform="translate(402.566 245.736)" fill="#fafafa"/>
      <rect id="Rectangle_14068" data-name="Rectangle 14068" width="4.101" height="31.18" transform="translate(398.465 243.548)" fill="#ebebeb"/>
      <rect id="Rectangle_14069" data-name="Rectangle 14069" width="3.18" height="28.991" transform="translate(395.295 245.736)" fill="#fafafa"/>
      <rect id="Rectangle_14070" data-name="Rectangle 14070" width="6.35" height="31.18" transform="translate(415.277 243.548)" fill="#ebebeb"/>
      <rect id="Rectangle_14071" data-name="Rectangle 14071" width="6.35" height="28.991" transform="translate(421.627 245.736)" fill="#e6e6e6"/>
      <rect id="Rectangle_14072" data-name="Rectangle 14072" width="6.35" height="28.991" transform="translate(435.259 245.736)" fill="#e6e6e6"/>
      <rect id="Rectangle_14073" data-name="Rectangle 14073" width="4.101" height="31.18" transform="translate(431.158 243.548)" fill="#fafafa"/>
      <rect id="Rectangle_14074" data-name="Rectangle 14074" width="3.18" height="28.991" transform="translate(427.978 245.736)" fill="#ebebeb"/>
      <rect id="Rectangle_14075" data-name="Rectangle 14075" width="3.18" height="30.443" transform="translate(441.609 244.284)" fill="#fafafa"/>
      <rect id="Rectangle_14076" data-name="Rectangle 14076" width="6.35" height="31.18" transform="translate(444.779 316.522) rotate(180)" fill="#fafafa"/>
      <rect id="Rectangle_14077" data-name="Rectangle 14077" width="6.35" height="31.18" transform="translate(418.447 316.522) rotate(180)" fill="#fafafa"/>
      <rect id="Rectangle_14078" data-name="Rectangle 14078" width="6.35" height="28.991" transform="translate(438.439 316.512) rotate(180)" fill="#f0f0f0"/>
      <rect id="Rectangle_14079" data-name="Rectangle 14079" width="6.35" height="28.991" transform="translate(424.808 316.512) rotate(180)" fill="#ebebeb"/>
      <rect id="Rectangle_14080" data-name="Rectangle 14080" width="4.101" height="31.18" transform="translate(428.908 316.522) rotate(180)" fill="#fafafa"/>
      <rect id="Rectangle_14081" data-name="Rectangle 14081" width="3.18" height="28.991" transform="translate(432.078 316.512) rotate(180)" fill="#f5f5f5"/>
      <rect id="Rectangle_14082" data-name="Rectangle 14082" width="6.35" height="31.18" transform="translate(412.096 316.522) rotate(180)" fill="#ebebeb"/>
      <rect id="Rectangle_14083" data-name="Rectangle 14083" width="6.35" height="28.991" transform="translate(405.746 316.512) rotate(180)" fill="#f5f5f5"/>
      <rect id="Rectangle_14084" data-name="Rectangle 14084" width="6.35" height="28.991" transform="translate(392.114 316.512) rotate(180)" fill="#e6e6e6"/>
      <rect id="Rectangle_14085" data-name="Rectangle 14085" width="4.101" height="31.18" transform="translate(396.215 316.522) rotate(180)" fill="#fafafa"/>
      <rect id="Rectangle_14086" data-name="Rectangle 14086" width="4.101" height="31.18" transform="translate(382.583 316.522) rotate(180)" fill="#fafafa"/>
      <rect id="Rectangle_14087" data-name="Rectangle 14087" width="3.18" height="28.991" transform="translate(399.395 316.512) rotate(180)" fill="#ebebeb"/>
      <rect id="Rectangle_14088" data-name="Rectangle 14088" width="3.18" height="30.443" transform="translate(385.764 316.512) rotate(180)" fill="#f0f0f0"/>
      <path id="Path_65066" data-name="Path 65066" d="M439.241,284.39H359.65v94.848h76.993v5.635h5.174V284.39Zm-2.6,85.757H364.559V333.578h72.085Zm0-41.764H364.559V293.491h72.085Z" transform="translate(8.136 -53.625)" fill="#f0f0f0"/>
      <rect id="Rectangle_14089" data-name="Rectangle 14089" width="77.525" height="83.436" transform="translate(370.128 320.418) rotate(180)" fill="#e6e6e6"/>
      <rect id="Rectangle_14090" data-name="Rectangle 14090" width="9.746" height="6.647" transform="translate(305.324 331.248) rotate(180)" fill="#e6e6e6"/>
      <rect id="Rectangle_14091" data-name="Rectangle 14091" width="6.35" height="31.18" transform="translate(367.5 274.728) rotate(180)" fill="#fafafa"/>
      <rect id="Rectangle_14092" data-name="Rectangle 14092" width="6.35" height="31.18" transform="translate(341.177 274.728) rotate(180)" fill="#f5f5f5"/>
      <rect id="Rectangle_14093" data-name="Rectangle 14093" width="6.35" height="28.991" transform="translate(361.16 274.727) rotate(180)" fill="#f5f5f5"/>
      <rect id="Rectangle_14094" data-name="Rectangle 14094" width="6.35" height="28.991" transform="translate(347.528 274.727) rotate(180)" fill="#fafafa"/>
      <rect id="Rectangle_14095" data-name="Rectangle 14095" width="4.101" height="31.18" transform="translate(351.629 274.728) rotate(180)" fill="#ebebeb"/>
      <rect id="Rectangle_14096" data-name="Rectangle 14096" width="3.18" height="28.991" transform="translate(354.799 274.727) rotate(180)" fill="#fafafa"/>
      <rect id="Rectangle_14097" data-name="Rectangle 14097" width="6.35" height="31.18" transform="translate(338.999 274.728) rotate(180)" fill="#ebebeb"/>
      <rect id="Rectangle_14098" data-name="Rectangle 14098" width="6.35" height="28.991" transform="translate(332.659 274.727) rotate(180)" fill="#e6e6e6"/>
      <rect id="Rectangle_14099" data-name="Rectangle 14099" width="6.35" height="28.991" transform="translate(319.027 274.727) rotate(180)" fill="#e6e6e6"/>
      <rect id="Rectangle_14100" data-name="Rectangle 14100" width="4.101" height="31.18" transform="translate(323.128 274.728) rotate(180)" fill="#fafafa"/>
      <rect id="Rectangle_14101" data-name="Rectangle 14101" width="3.18" height="28.991" transform="translate(326.298 274.727) rotate(180)" fill="#ebebeb"/>
      <rect id="Rectangle_14102" data-name="Rectangle 14102" width="3.18" height="30.443" transform="translate(312.667 274.728) rotate(180)" fill="#f5f5f5"/>
      <rect id="Rectangle_14103" data-name="Rectangle 14103" width="6.35" height="31.18" transform="translate(306.511 285.332)" fill="#fafafa"/>
      <rect id="Rectangle_14104" data-name="Rectangle 14104" width="6.35" height="31.18" transform="translate(332.843 285.332)" fill="#fafafa"/>
      <rect id="Rectangle_14105" data-name="Rectangle 14105" width="6.35" height="28.991" transform="translate(312.861 287.531)" fill="#f5f5f5"/>
      <rect id="Rectangle_14106" data-name="Rectangle 14106" width="6.35" height="28.991" transform="translate(326.493 287.531)" fill="#ebebeb"/>
      <rect id="Rectangle_14107" data-name="Rectangle 14107" width="4.101" height="31.18" transform="translate(322.392 285.332)" fill="#fafafa"/>
      <rect id="Rectangle_14108" data-name="Rectangle 14108" width="3.18" height="28.991" transform="translate(319.212 287.531)" fill="#f5f5f5"/>
      <rect id="Rectangle_14109" data-name="Rectangle 14109" width="6.35" height="31.18" transform="translate(335.011 285.332)" fill="#ebebeb"/>
      <rect id="Rectangle_14110" data-name="Rectangle 14110" width="6.35" height="28.991" transform="translate(341.362 287.531)" fill="#f5f5f5"/>
      <rect id="Rectangle_14111" data-name="Rectangle 14111" width="6.35" height="28.991" transform="translate(354.993 287.531)" fill="#e6e6e6"/>
      <rect id="Rectangle_14112" data-name="Rectangle 14112" width="4.101" height="31.18" transform="translate(350.892 285.332)" fill="#fafafa"/>
      <rect id="Rectangle_14113" data-name="Rectangle 14113" width="4.101" height="31.18" transform="translate(363.685 285.332)" fill="#fafafa"/>
      <rect id="Rectangle_14114" data-name="Rectangle 14114" width="3.18" height="28.991" transform="translate(347.712 287.531)" fill="#ebebeb"/>
      <rect id="Rectangle_14115" data-name="Rectangle 14115" width="3.18" height="30.443" transform="translate(361.344 286.079)" fill="#ebebeb"/>
      <path id="Path_65067" data-name="Path 65067" d="M284,284.39V384.873h5.195v-5.635h76.983V284.39Zm5.195,49.188H361.28v36.569H289.164Zm0-40.087H361.28v34.892H289.164Z" transform="translate(6.425 -53.625)" fill="#f0f0f0"/>
      <path id="Path_65068" data-name="Path 65068" d="M94.624,352.9s-7.434-35.168,6.136-54.2-12.271-.225-15.217,17.61c0,0-4.448-31.885,8.7-54.322s-11.474-4.039-13.58,19.082c0,0-4.029-28.449,2.045-44.443s-4.469-5.706-8.508,4.315S75.46,275.78,75.46,275.78s-10.543-45.885-20.524-42.234,14.92,33.747,18.407,49.362c0,0-11.77-21.056-20.7-16.669s13.836,6.555,24.246,37.939l3.661,14.716s-10.881-20.77-17.957-14.2,20.994,17.865,27.519,49.342Z" transform="translate(1.145 -54.893)" fill="#ebebeb"/>
      <path id="Path_65069" data-name="Path 65069" d="M68.34,360.65h51.131V371.9a11.249,11.249,0,0,1-11.249,11.249H79.589A11.249,11.249,0,0,1,68.34,371.9Z" transform="translate(1.546 -51.9)" fill="#ebebeb"/>
      <rect id="Rectangle_14116" data-name="Rectangle 14116" width="64.466" height="20.146" rx="4.21" transform="translate(63.198 295.763)" fill="#f5f5f5"/>
      <path id="Path_65070" data-name="Path 65070" d="M92.981,355.545s-1.565-44.341-23.52-63.127,14.6-3.906,23.52,16.566c0,0-4.172-39.524-26.588-62.472s12.517-8.181,21.915,18.847c0,0-3.661-35.28-15.656-52.634s3.651-8.181,11.474,2.638S93,257.465,93,257.465s-1.023-58.105,12-56.7-7.823,44.832-7.3,64.6c0,0,7.823-28.725,19.829-26.138S102.911,251.207,99.782,291.9v18.714s6.78-28.1,17.221-22.365-19.829,27.611-18.264,67.3Z" transform="translate(1.335 -55.518)" fill="#f5f5f5"/>
      <rect id="Rectangle_14117" data-name="Rectangle 14117" width="60.846" height="90.696" transform="translate(375.323 38.062)" fill="#ebebeb"/>
      <rect id="Rectangle_14118" data-name="Rectangle 14118" width="52.45" height="78.179" transform="translate(379.526 44.32)" fill="#f5f5f5"/>
      <circle id="Ellipse_1332" data-name="Ellipse 1332" cx="10.523" cy="10.523" r="10.523" transform="translate(395.376 78.203) rotate(-76.72)" fill="#e0e0e0"/>
      <path id="Path_65071" data-name="Path 65071" d="M388.73,167.967l15.39-18.407,5.655,18.407Z" transform="translate(8.794 -56.675)" fill="#ebebeb"/>
      <path id="Path_65072" data-name="Path 65072" d="M381.557,114.786c-7.363,11.985-2.045,26.875,6.33,36.661,1.289,1.5,3.446-.675,2.168-2.168-7.465-8.733-12.445-22.191-5.849-32.949C385.228,114.643,382.59,113.1,381.557,114.786Z" transform="translate(8.553 -57.478)" fill="#ebebeb"/>
      <path id="Path_65073" data-name="Path 65073" d="M411.9,106.93l-5.624,5.757L411.9,117.5l5.113-5.287Z" transform="translate(9.191 -57.64)" fill="#ebebeb"/>
      <path id="Path_65074" data-name="Path 65074" d="M411.626,270.248H384.67l6.719-10.738h16.229v3.068H393.086l-2.874,4.6h21.414Z" transform="translate(8.702 -54.188)" fill="#e0e0e0"/>
      <rect id="Rectangle_14119" data-name="Rectangle 14119" width="3.068" height="6.177" transform="matrix(0.988, -0.152, 0.152, 0.988, 410.598, 206.823)" fill="#e0e0e0"/>
      <rect id="Rectangle_14120" data-name="Rectangle 14120" width="7.496" height="3.068" transform="matrix(0.476, -0.879, 0.879, 0.476, 418.626, 213.979)" fill="#ebebeb"/>
      <path id="Path_65075" data-name="Path 65075" d="M429.155,264.313l-16.546.511a2.045,2.045,0,0,1-2.209-1.841v-1.023a2.045,2.045,0,0,1,2.209-1.831l16.546.511a1.984,1.984,0,0,1,2.045,1.831h0a1.984,1.984,0,0,1-2.045,1.841Z" transform="translate(9.284 -54.174)" fill="#e0e0e0"/>
      <path id="Path_65076" data-name="Path 65076" d="M378.5,280.028l8.109-4.193v-2.383L378.5,269.26Z" transform="translate(8.563 -53.967)" fill="#e6e6e6"/>
      <rect id="Rectangle_14121" data-name="Rectangle 14121" width="1.125" height="10.768" transform="translate(385.938 215.293)" fill="#e0e0e0"/>
      <path id="Path_65077" data-name="Path 65077" d="M421.031,283.143l-12.691-6.565v-3.733l12.691-6.565Z" transform="translate(9.238 -54.035)" fill="#e6e6e6"/>
      <rect id="Rectangle_14122" data-name="Rectangle 14122" width="1.759" height="16.873" transform="translate(430.268 212.245)" fill="#e0e0e0"/>
      <path id="Path_65078" data-name="Path 65078" d="M413.142,284.607H390.051a8.181,8.181,0,0,1-8.181-8.181v-2.045a8.181,8.181,0,0,1,8.181-8.181h23.091Z" transform="translate(8.639 -54.037)" fill="#ebebeb"/>
    </g>
    <g id="freepik--Shadows--inject-127" transform="translate(57.379 406.442)">
      <g id="freepik--Shadow--inject-214--inject-127">
        <ellipse id="freepik--path--inject-214--inject-127" cx="198.276" cy="11.576" rx="198.276" ry="11.576" fill="#f5f5f5"/>
      </g>
    </g>
    <g id="freepik--Desk--inject-127" transform="translate(133.219 284.699)">
      <path id="Path_65079" data-name="Path 65079" d="M296.877,290.69H290.5L280.28,411.676a2.321,2.321,0,0,0,2.311,2.516h0a2.321,2.321,0,0,0,2.3-2.045Z" transform="translate(-126.879 -279.451)" fill="#263238"/>
      <path id="Path_65080" data-name="Path 65080" d="M296.877,290.69H290.5L280.28,411.676a2.321,2.321,0,0,0,2.311,2.516h0a2.321,2.321,0,0,0,2.3-2.045Z" transform="translate(-126.879 -279.451)" fill="#fff" opacity="0.1"/>
      <path id="Path_65081" data-name="Path 65081" d="M146.9,289.86h-6.391L130.28,411.746a2.311,2.311,0,0,0,2.311,2.505h0a2.321,2.321,0,0,0,2.3-2.045Z" transform="translate(-130.272 -279.47)" fill="#263238"/>
      <path id="Path_65082" data-name="Path 65082" d="M146.9,289.86h-6.391L130.28,411.746a2.311,2.311,0,0,0,2.311,2.505h0a2.321,2.321,0,0,0,2.3-2.045Z" transform="translate(-130.272 -279.47)" fill="#fff" opacity="0.1"/>
      <path id="Path_65083" data-name="Path 65083" d="M174.21,289.86h6.381l.184,122.255a2.321,2.321,0,0,1-2.321,2.321h0a2.332,2.332,0,0,1-2.321-2.291Z" transform="translate(-129.278 -279.47)" fill="#263238"/>
      <path id="Path_65084" data-name="Path 65084" d="M174.21,289.86h6.381l.184,122.255a2.321,2.321,0,0,1-2.321,2.321h0a2.332,2.332,0,0,1-2.321-2.291Z" transform="translate(-129.278 -279.47)" fill="#fff" opacity="0.2"/>
      <path id="Path_65085" data-name="Path 65085" d="M322.19,289.86h6.391l.184,122.255a2.321,2.321,0,0,1-2.321,2.321h0a2.332,2.332,0,0,1-2.321-2.291Z" transform="translate(-125.93 -279.47)" fill="#263238"/>
      <path id="Path_65086" data-name="Path 65086" d="M328.581,289.86l.184,122.255a2.321,2.321,0,0,1-2.321,2.321h0a2.332,2.332,0,0,1-2.321-2.291L322.19,289.86Z" transform="translate(-125.93 -279.47)" fill="#fff" opacity="0.2"/>
      <path id="Path_65087" data-name="Path 65087" d="M138.41,312.777,332.6,311.335V289.87H140.322Z" transform="translate(-130.088 -279.47)" fill="#ba6dd7"/>
      <path id="Path_65088" data-name="Path 65088" d="M175.02,290.023l.358,22.477-36.968.276,1.912-22.907Z" transform="translate(-130.088 -279.47)" opacity="0.3"/>
      <path id="Path_65089" data-name="Path 65089" d="M340.167,284.936h0c0-2.884-1.084-5.226-2.413-5.236H137.5c-1.329,0-2.4,2.352-2.413,5.236h0c0,2.894,1.084,5.236,2.413,5.246h200.25C339.083,290.172,340.156,287.83,340.167,284.936Z" transform="translate(-130.163 -279.7)" fill="#263238"/>
      <path id="Path_65090" data-name="Path 65090" d="M340.167,284.936h0c0-2.884-1.084-5.226-2.413-5.236H137.5c-1.329,0-2.4,2.352-2.413,5.236h0c0,2.894,1.084,5.236,2.413,5.246h200.25C339.083,290.172,340.156,287.83,340.167,284.936Z" transform="translate(-130.163 -279.7)" fill="#fff" opacity="0.1"/>
      <path id="Path_65091" data-name="Path 65091" d="M186.784,284.936h0c0-2.884-1.023-5.226-2.4-5.236H137.5c-1.329,0-2.4,2.352-2.413,5.236h0c0,2.894,1.084,5.236,2.413,5.246H184.38C185.71,290.172,186.784,287.83,186.784,284.936Z" transform="translate(-130.163 -279.7)" opacity="0.3"/>
    </g>
    <g id="freepik--Device--inject-127" transform="translate(160.327 197.725)">
      <path id="Path_65092" data-name="Path 65092" d="M285.745,280.4H264.71l.481-2.28c2.25-6.044,13.744-6.044,13.744-6.044,2.853.164,5.635,2.833,6.432,6.565Z" transform="translate(-154.338 -192.898)" fill="#ba6dd7"/>
      <path id="Path_65093" data-name="Path 65093" d="M228.2,277.409h21.127l2.516-22.089H232.659Z" transform="translate(-155.164 -193.277)" fill="#263238"/>
      <path id="Path_65094" data-name="Path 65094" d="M224.55,280.469h1.023v.256h35.792v-3.068H228.283l4.459-22.089h19.184l1.023-9.367a2.393,2.393,0,0,0-2.393-2.291h-16.4a2.424,2.424,0,0,0-2.4,2.291Z" transform="translate(-155.247 -193.536)" fill="#263238"/>
      <path id="Path_65095" data-name="Path 65095" d="M228.2,277.409h21.127l2.321-20.35.194-1.738H232.659Z" transform="translate(-155.164 -193.277)" fill="#263238"/>
      <path id="Path_65096" data-name="Path 65096" d="M250.964,262.673l.879-7.353H229.7l-1.544,7.353Z" transform="translate(-155.165 -193.277)" opacity="0.1"/>
      <path id="Path_65097" data-name="Path 65097" d="M261.01,277.623h2.516a.45.45,0,0,0,.47-.43V274.77a.45.45,0,0,0-.47-.44h-1.8a.481.481,0,0,0-.46.327l-.706,2.424a.44.44,0,0,0,.45.542Z" transform="translate(-154.432 -192.847)" fill="#263238"/>
      <path id="Path_65098" data-name="Path 65098" d="M257.63,277.623h2.516a.46.46,0,0,0,.47-.43V274.77a.46.46,0,0,0-.47-.44h-1.81a.481.481,0,0,0-.46.327l-.706,2.424a.44.44,0,0,0,.46.542Z" transform="translate(-154.509 -192.847)" fill="#263238"/>
      <path id="Path_65099" data-name="Path 65099" d="M254.24,277.623h2.505a.46.46,0,0,0,.481-.429V274.77a.46.46,0,0,0-.481-.44h-1.8a.47.47,0,0,0-.46.327l-.706,2.424a.44.44,0,0,0,.46.542Z" transform="translate(-154.586 -192.847)" fill="#263238"/>
      <path id="Path_65100" data-name="Path 65100" d="M250.85,277.623h2.505a.46.46,0,0,0,.481-.429V274.77a.46.46,0,0,0-.481-.44h-1.8a.47.47,0,0,0-.46.327l-.706,2.424a.44.44,0,0,0,.46.542Z" transform="translate(-154.663 -192.847)" fill="#263238"/>
      <path id="Path_65101" data-name="Path 65101" d="M247.461,277.623h2.505a.46.46,0,0,0,.481-.429V274.77a.46.46,0,0,0-.481-.44h-1.8a.47.47,0,0,0-.46.327l-.706,2.4a.44.44,0,0,0,.46.562Z" transform="translate(-154.739 -192.847)" fill="#263238"/>
      <path id="Path_65102" data-name="Path 65102" d="M244.07,277.623h2.505a.46.46,0,0,0,.481-.429V274.77a.46.46,0,0,0-.481-.44h-1.8a.47.47,0,0,0-.46.327l-.706,2.424a.44.44,0,0,0,.46.542Z" transform="translate(-154.816 -192.847)" fill="#263238"/>
      <path id="Path_65103" data-name="Path 65103" d="M240.681,277.623h2.505a.46.46,0,0,0,.481-.429V274.77a.46.46,0,0,0-.481-.44h-1.8a.47.47,0,0,0-.46.327l-.716,2.424a.45.45,0,0,0,.47.542Z" transform="translate(-154.893 -192.847)" fill="#263238"/>
      <path id="Path_65104" data-name="Path 65104" d="M237.29,277.623H239.8a.46.46,0,0,0,.481-.429V274.77a.46.46,0,0,0-.481-.44h-1.769a.47.47,0,0,0-.46.327l-.716,2.424a.45.45,0,0,0,.44.542Z" transform="translate(-154.969 -192.847)" fill="#263238"/>
      <path id="Path_65105" data-name="Path 65105" d="M233.9,277.623h2.505a.46.46,0,0,0,.481-.429V274.77a.46.46,0,0,0-.481-.44h-1.8a.47.47,0,0,0-.46.327l-.716,2.424a.45.45,0,0,0,.47.542Z" transform="translate(-155.046 -192.847)" fill="#263238"/>
      <path id="Path_65106" data-name="Path 65106" d="M230.5,277.623h2.567a.46.46,0,0,0,.481-.429V274.77a.46.46,0,0,0-.481-.44h-1.8a.481.481,0,0,0-.47.327l-.8,2.4a.44.44,0,0,0,.5.562Z" transform="translate(-155.124 -192.847)" fill="#263238"/>
      <path id="Path_65107" data-name="Path 65107" d="M227.11,277.623h2.516a.46.46,0,0,0,.481-.429V274.77a.46.46,0,0,0-.481-.44h-1.8a.481.481,0,0,0-.47.327l-.706,2.424a.44.44,0,0,0,.46.542Z" transform="translate(-155.2 -192.847)" fill="#263238"/>
      <path id="Path_65108" data-name="Path 65108" d="M223.72,277.623h2.516a.46.46,0,0,0,.481-.429V274.77a.46.46,0,0,0-.481-.44h-1.8a.481.481,0,0,0-.47.327l-.706,2.424a.44.44,0,0,0,.46.542Z" transform="translate(-155.276 -192.847)" fill="#263238"/>
      <path id="Path_65109" data-name="Path 65109" d="M220.331,277.623h2.516a.46.46,0,0,0,.47-.43V274.77a.46.46,0,0,0-.47-.44h-1.82a.481.481,0,0,0-.46.327l-.706,2.424a.44.44,0,0,0,.47.542Z" transform="translate(-155.353 -192.847)" fill="#263238"/>
      <path id="Path_65110" data-name="Path 65110" d="M216.94,277.623h2.516a.46.46,0,0,0,.47-.43V274.77a.46.46,0,0,0-.47-.44h-1.81a.481.481,0,0,0-.46.327l-.706,2.424a.44.44,0,0,0,.46.542Z" transform="translate(-155.43 -192.847)" fill="#263238"/>
      <path id="Path_65111" data-name="Path 65111" d="M213.55,277.623h2.516a.46.46,0,0,0,.481-.429V274.77a.46.46,0,0,0-.481-.44h-1.8a.47.47,0,0,0-.46.327l-.706,2.424a.44.44,0,0,0,.45.542Z" transform="translate(-155.506 -192.847)" fill="#263238"/>
      <path id="Path_65112" data-name="Path 65112" d="M211.07,277.852a2.045,2.045,0,0,0,2.045,1.9h51.919a2.045,2.045,0,0,0,2.1-1.9,1.8,1.8,0,0,0-.614-1.35,2.158,2.158,0,0,0-1.432-.552H213.156a2.045,2.045,0,0,0-.573.072,1.943,1.943,0,0,0-1.513,1.831Z" transform="translate(-155.552 -192.811)" fill="#263238"/>
      <path id="Path_65113" data-name="Path 65113" d="M211.07,277.852a2.045,2.045,0,0,0,2.045,1.9h51.919a2.045,2.045,0,0,0,2.1-1.9,1.8,1.8,0,0,0-.614-1.35,2.158,2.158,0,0,0-1.432-.552H213.156a2.045,2.045,0,0,0-.573.072,1.943,1.943,0,0,0-1.513,1.831Z" transform="translate(-155.552 -192.811)" fill="#fff" opacity="0.2"/>
      <path id="Path_65114" data-name="Path 65114" d="M211.07,277.851a2.045,2.045,0,0,0,2.045,1.9h17.62a1.933,1.933,0,0,0,1.452-1.82,1.8,1.8,0,0,0,0-.337,1.882,1.882,0,0,0-.583-1.023,2.375,2.375,0,0,0-.45-.317l-.245-.112a2.291,2.291,0,0,0-.8-.133H212.583a1.943,1.943,0,0,0-1.513,1.841Z" transform="translate(-155.552 -192.809)" fill="#263238"/>
      <path id="Path_65115" data-name="Path 65115" d="M196.492,194.65H201.8l5.962,64.7h-5.307a1.923,1.923,0,0,1-1.759-1.831l-5.624-61.04a1.544,1.544,0,0,1,1.421-1.83Z" transform="translate(-155.914 -194.65)" fill="#ba6dd7"/>
      <path id="Path_65116" data-name="Path 65116" d="M196.492,194.65H201.8l5.962,64.7h-5.307a1.923,1.923,0,0,1-1.759-1.831l-5.624-61.04a1.544,1.544,0,0,1,1.421-1.83Z" transform="translate(-155.914 -194.65)" opacity="0.3"/>
      <path id="Path_65117" data-name="Path 65117" d="M204.644,259.351h79.519a1.544,1.544,0,0,0,1.421-1.831l-5.624-61.04a1.923,1.923,0,0,0-1.759-1.83H198.682a1.544,1.544,0,0,0-1.421,1.83l5.624,61.04a1.922,1.922,0,0,0,1.759,1.83Z" transform="translate(-155.865 -194.65)" fill="#ba6dd7"/>
      <path id="Path_65118" data-name="Path 65118" d="M206.919,246.243h72.218l-4.009-45.783H202.91Z" transform="translate(-155.736 -194.519)" fill="#ba6dd7"/>
      <path id="Path_65119" data-name="Path 65119" d="M207.976,249.9h71.164a3.3,3.3,0,0,0,3.344-3.651l-3.988-45.5a4.091,4.091,0,0,0-3.968-3.661H203.354a3.3,3.3,0,0,0-3.334,3.661l3.978,45.5A4.091,4.091,0,0,0,207.976,249.9Z" transform="translate(-155.802 -194.595)" fill="#263238"/>
      <path id="Path_65120" data-name="Path 65120" d="M206.919,246.243h72.218l-4.009-45.783H202.91Z" transform="translate(-155.736 -194.519)" fill="#ba6dd7"/>
      <path id="Path_65121" data-name="Path 65121" d="M206.919,246.243h72.218l-4.009-45.783H202.91Z" transform="translate(-155.736 -194.519)" fill="#fff" opacity="0.4"/>
      <path id="Path_65122" data-name="Path 65122" d="M230.611,202.933l3.487,39.882H207.581l-3.5-39.882h26.527m.941-1.023H203l.1,1.115,3.487,39.882.082.941h28.521l-.092-1.115-3.487-39.882-.082-.931Z" transform="translate(-155.734 -194.486)" fill="#ba6dd7"/>
      <path id="Path_65123" data-name="Path 65123" d="M234.023,242.792H207.547L204.06,202.91h26.476Z" transform="translate(-155.71 -194.463)" fill="#fff"/>
      <path id="Path_65124" data-name="Path 65124" d="M215.288,215.054h-8.058l-.879-10.124H214.4Z" transform="translate(-155.659 -194.417)" fill="#ba6dd7"/>
      <g id="Group_1832" data-name="Group 1832" transform="translate(50.691 10.513)" opacity="0.2">
        <path id="Path_65125" data-name="Path 65125" d="M207.3,204.93h-.951l.685,7.854h.256v-.573h.685v.573h.266l-.685-7.854Zm-.327,4.213L206.882,208h.685l.1,1.145Zm.716.256.1,1.145h-.7l-.082-1.145Zm-.839-1.657-.092-1.145h.685l.1,1.145Zm-.123-1.411-.092-1.135h.685l.1,1.135Zm.491,5.614-.092-1.135h.685l.1,1.135Z" transform="translate(-206.35 -204.93)"/>
      </g>
      <g id="Group_1833" data-name="Group 1833" transform="translate(57.492 10.513)" opacity="0.2">
        <path id="Path_65126" data-name="Path 65126" d="M214.023,204.93H213l.685,7.854h.337l-.051-.573h.7v.573h.266l-.685-7.854Zm-.317,4.213L213.6,208h.7l.092,1.145Zm.716.256.092,1.145h-.685l-.1-1.145Zm-.839-1.657-.1-1.145h.7l.092,1.145Zm-.123-1.411-.1-1.135h.665l.092,1.135Zm.491,5.614-.1-1.135h.7l.092,1.135Z" transform="translate(-213 -204.93)"/>
      </g>
      <path id="Path_65127" data-name="Path 65127" d="M213.839,212.774l-5.614.01-.685-7.854h5.614Z" transform="translate(-155.632 -194.417)" fill="#fff" opacity="0.2"/>
      <path id="Path_65128" data-name="Path 65128" d="M213,208.921a2.045,2.045,0,0,1-2.117,2.321,2.587,2.587,0,0,1-2.536-2.321,2.1,2.1,0,0,1,2.127-2.321A2.587,2.587,0,0,1,213,208.921Z" transform="translate(-155.614 -194.38)" fill="#fff" opacity="0.2"/>
      <path id="Path_65129" data-name="Path 65129" d="M209.91,207.68l2.045,1.35-1.81,1.34Z" transform="translate(-155.578 -194.355)" fill="#fff"/>
      <path id="Path_65130" data-name="Path 65130" d="M216.368,227.454H208.32l-.89-10.114h8.048Z" transform="translate(-155.634 -194.137)" fill="#ba6dd7"/>
      <g id="Group_1834" data-name="Group 1834" transform="translate(51.796 23.193)" opacity="0.2">
        <path id="Path_65131" data-name="Path 65131" d="M208.391,217.33h-.961l.685,7.854h.266l-.051-.573h.706v.573h.256l-.685-7.854Zm-.327,4.213-.1-1.135h.7l.1,1.135Zm.716.266.1,1.145h-.7l-.1-1.145Zm-.839-1.667-.1-1.145h.7l.1,1.145Zm-.123-1.4-.1-1.145h.7l.1,1.145Zm.491,5.614-.1-1.145h.7l.1,1.145Z" transform="translate(-207.43 -217.33)"/>
      </g>
      <g id="Group_1835" data-name="Group 1835" transform="translate(58.627 23.193)" opacity="0.2">
        <path id="Path_65132" data-name="Path 65132" d="M215.071,217.33h-.961l.7,7.854h.215v-.573h.7l.051.573h.276l-.7-7.854Zm-.327,4.213-.1-1.135h.7l.1,1.135Zm.716.266.1,1.145h-.7l-.1-1.145Zm-.839-1.667-.1-1.145h.7l.1,1.145Zm-.123-1.4-.1-1.145h.7l.1,1.145Zm.491,5.614-.1-1.145h.7l.1,1.145Z" transform="translate(-214.11 -217.33)"/>
      </g>
      <path id="Path_65133" data-name="Path 65133" d="M214.919,225.173l-5.614.01-.685-7.844h5.624Z" transform="translate(-155.607 -194.137)" fill="#fff" opacity="0.2"/>
      <path id="Path_65134" data-name="Path 65134" d="M214.1,221.321a2.1,2.1,0,0,1-2.127,2.332,2.6,2.6,0,0,1-2.526-2.332A2.045,2.045,0,0,1,211.567,219a2.6,2.6,0,0,1,2.536,2.321Z" transform="translate(-155.589 -194.099)" fill="#fff" opacity="0.2"/>
      <path id="Path_65135" data-name="Path 65135" d="M211,220.09l2.045,1.34-1.81,1.35Z" transform="translate(-155.553 -194.074)" fill="#fff"/>
      <path id="Path_65136" data-name="Path 65136" d="M225.608,215.054H217.56l-.89-10.124h8.058Z" transform="translate(-155.425 -194.417)" fill="#ba6dd7"/>
      <g id="Group_1836" data-name="Group 1836" transform="translate(61.245 10.513)" opacity="0.2">
        <path id="Path_65137" data-name="Path 65137" d="M217.631,204.93h-.961l.7,7.854h.256v-.573h.7l.051.573h.266l-.7-7.854Zm-.327,4.213L217.2,208h.7l.1,1.145Zm.716.266.1,1.135h-.7l-.1-1.135Zm-.839-1.667-.1-1.145h.7l.1,1.145Zm-.123-1.411-.1-1.135h.7l.1,1.135Zm.491,5.624-.1-1.145h.7l.1,1.145Z" transform="translate(-216.67 -204.93)"/>
      </g>
      <g id="Group_1837" data-name="Group 1837" transform="translate(68.086 10.513)" opacity="0.2">
        <path id="Path_65138" data-name="Path 65138" d="M224.311,204.93h-.951l.685,7.854h.256v-.573h.685l.051.573h.266l-.685-7.854Zm-.327,4.213L223.892,208h.685l.1,1.145Zm.716.266.1,1.135h-.7l-.092-1.135Zm-.839-1.667-.092-1.145h.685l.1,1.145Zm-.123-1.411-.092-1.135h.685l.1,1.135Zm.491,5.624-.092-1.145h.685l.1,1.145Z" transform="translate(-223.36 -204.93)"/>
      </g>
      <path id="Path_65139" data-name="Path 65139" d="M224.17,212.774l-5.624.01-.685-7.854h5.624Z" transform="translate(-155.398 -194.417)" fill="#fff" opacity="0.2"/>
      <path id="Path_65140" data-name="Path 65140" d="M223.333,208.921a2.045,2.045,0,0,1-2.127,2.321,2.587,2.587,0,0,1-2.526-2.321,2.1,2.1,0,0,1,2.127-2.321,2.587,2.587,0,0,1,2.526,2.321Z" transform="translate(-155.38 -194.38)" fill="#fff" opacity="0.2"/>
      <path id="Path_65141" data-name="Path 65141" d="M220.24,207.68l2.045,1.35-1.81,1.34Z" transform="translate(-155.344 -194.355)" fill="#fff"/>
      <path id="Path_65142" data-name="Path 65142" d="M217.458,239.864H209.4l-.879-10.124h8.048Z" transform="translate(-155.61 -193.856)" fill="#ba6dd7"/>
      <g id="Group_1838" data-name="Group 1838" transform="translate(52.91 35.884)" opacity="0.2">
        <path id="Path_65143" data-name="Path 65143" d="M209.471,229.74h-.951l.685,7.854h.256v-.573h.685l.051.573h.266l-.685-7.854Zm-.327,4.213-.092-1.145h.685l.1,1.145Zm.716.256.1,1.145h-.7l-.092-1.145Zm-.839-1.667-.092-1.135h.685l.1,1.135Zm-.123-1.4-.092-1.135h.685l.1,1.145Zm.491,5.614-.092-1.145h.736l.1,1.145Z" transform="translate(-208.52 -229.74)"/>
      </g>
      <g id="Group_1839" data-name="Group 1839" transform="translate(59.742 35.884)" opacity="0.2">
        <path id="Path_65144" data-name="Path 65144" d="M216.151,229.74H215.2l.685,7.854h.266v-.573h.7l.051.573h.256l-.685-7.854Zm-.317,4.213-.1-1.145h.7l.092,1.145Zm.716.256.092,1.145h-.685l-.1-1.145Zm-.839-1.667-.1-1.135h.7l.092,1.135Zm-.123-1.4-.1-1.145h.7l.092,1.145Zm.491,5.614-.1-1.145h.7l.092,1.145Z" transform="translate(-215.2 -229.74)"/>
      </g>
      <path id="Path_65145" data-name="Path 65145" d="M216.009,237.583l-5.614.01-.685-7.854h5.614Z" transform="translate(-155.583 -193.856)" fill="#fff" opacity="0.2"/>
      <path id="Path_65146" data-name="Path 65146" d="M215.173,233.73a2.045,2.045,0,0,1-2.117,2.372,2.6,2.6,0,0,1-2.536-2.321,2.1,2.1,0,0,1,2.127-2.321,2.587,2.587,0,0,1,2.526,2.27Z" transform="translate(-155.565 -193.817)" fill="#fff" opacity="0.2"/>
      <path id="Path_65147" data-name="Path 65147" d="M212.08,232.49l2.055,1.34-1.82,1.35Z" transform="translate(-155.529 -193.794)" fill="#fff"/>
      <path id="Path_65148" data-name="Path 65148" d="M227.462,197.12,213.35,249.877h4.755l13.949-52.757Z" transform="translate(-155.5 -194.594)" fill="#fff" opacity="0.1"/>
      <path id="Path_65149" data-name="Path 65149" d="M234.622,197.12l-14.1,52.757h9.408l13.949-52.757Z" transform="translate(-155.338 -194.594)" fill="#fff" opacity="0.1"/>
      <path id="Path_65150" data-name="Path 65150" d="M276.8,236.189H230.912l-2.372-27.1h45.885Z" transform="translate(-155.157 -194.323)" fill="#263238"/>
      <path id="Path_65151" data-name="Path 65151" d="M257.673,219.546a5.113,5.113,0,0,1-5.205,5.706,6.361,6.361,0,0,1-6.207-5.706,5.113,5.113,0,0,1,5.205-5.716,6.35,6.35,0,0,1,6.207,5.716Z" transform="translate(-154.757 -194.216)" fill="#fff"/>
      <path id="Path_65152" data-name="Path 65152" d="M255.01,219.681l-4.99-2.741.481,5.491Z" transform="translate(-154.671 -194.146)" fill="#263238"/>
      <path id="Path_65153" data-name="Path 65153" d="M275.67,230.409H231l-.082-.879h44.668Z" transform="translate(-155.103 -193.861)" fill="#fff"/>
      <path id="Path_65154" data-name="Path 65154" d="M256.036,230.409H231l-.082-.879h25.044Z" transform="translate(-155.103 -193.861)" fill="#ba6dd7"/>
      <path id="Path_65155" data-name="Path 65155" d="M231.763,233.618h-.43l-.153-1.7h.43Z" transform="translate(-155.097 -193.807)" fill="#fff"/>
      <path id="Path_65156" data-name="Path 65156" d="M232.493,233.618h-.429l-.143-1.7h.43Z" transform="translate(-155.08 -193.807)" fill="#fff"/>
      <path id="Path_65157" data-name="Path 65157" d="M236.311,233.618h-1.7l-.143-1.7h1.7Z" transform="translate(-155.022 -193.807)" fill="#fff"/>
      <path id="Path_65158" data-name="Path 65158" d="M238.47,232.769l1.391-.849.143,1.7Z" transform="translate(-154.932 -193.807)" fill="#fff"/>
      <path id="Path_65159" data-name="Path 65159" d="M238.553,233.618h-.43l-.153-1.7h.429Z" transform="translate(-154.943 -193.807)" fill="#fff"/>
      <path id="Path_65160" data-name="Path 65160" d="M243.144,232.769l-1.534-.849.143,1.7Z" transform="translate(-154.861 -193.807)" fill="#fff"/>
      <path id="Path_65161" data-name="Path 65161" d="M243.193,233.618h.43l-.153-1.7h-.43Z" transform="translate(-154.829 -193.807)" fill="#fff"/>
      <path id="Path_65162" data-name="Path 65162" d="M246.207,231.89l-.757,1.023h1.7Z" transform="translate(-154.774 -193.808)" fill="#fff"/>
      <path id="Path_65163" data-name="Path 65163" d="M247.24,233.62l-.031-.43H245.45l.041.43Z" transform="translate(-154.774 -193.778)" fill="#fff"/>
      <path id="Path_65164" data-name="Path 65164" d="M275.076,233.755H271.8l-.174-2.045h3.262Zm-3.017-.276h2.71l-.123-1.442h-2.71Z" transform="translate(-154.182 -193.812)" fill="#fff"/>
      <path id="Path_65165" data-name="Path 65165" d="M269.456,233.723h-.665l-.051-.583.276-.02.031.327h.409Z" transform="translate(-154.247 -193.78)" fill="#fff"/>
      <path id="Path_65166" data-name="Path 65166" d="M270.885,233.723h-.665v-.276h.368l-.031-.307.276-.02Z" transform="translate(-154.214 -193.78)" fill="#fff"/>
      <path id="Path_65167" data-name="Path 65167" d="M270.5,232.394l-.041-.358h-.378v-.276h.634l.051.614Z" transform="translate(-154.217 -193.81)" fill="#fff"/>
      <path id="Path_65168" data-name="Path 65168" d="M268.681,232.394l-.061-.634h.685v.276h-.378l.031.337Z" transform="translate(-154.25 -193.81)" fill="#fff"/>
      <path id="Path_65169" data-name="Path 65169" d="M237.057,209.09h5.185l-6.146,27.1H230.85Z" transform="translate(-155.104 -194.323)" fill="#fff" stroke="#263238" stroke-linecap="round" stroke-linejoin="round" stroke-width="1" opacity="0.1"/>
      <path id="Path_65170" data-name="Path 65170" d="M262.14,236.189l6.207-27.1h5.195l-6.146,27.1Z" transform="translate(-154.396 -194.323)" fill="#fff" stroke="#263238" stroke-linecap="round" stroke-linejoin="round" stroke-width="1" opacity="0.1"/>
      <path id="Path_65171" data-name="Path 65171" d="M273.811,212.31l-4.029,17.61-.2.879-.348,1.534-.327,1.411-.542,2.372h1.35l.859-3.784.348-1.534.194-.879,3.058-13.468" transform="translate(-154.256 -194.25)" fill="#fff" stroke="#263238" stroke-linecap="round" stroke-linejoin="round" stroke-width="1" opacity="0.1"/>
      <path id="Path_65172" data-name="Path 65172" d="M274.43,209.144H228.545l-.215-2.454h45.885Z" transform="translate(-155.161 -194.378)" fill="#ba6dd7"/>
      <path id="Path_65173" data-name="Path 65173" d="M231.754,207.927a.685.685,0,0,1-.7.757.828.828,0,0,1-.818-.757.685.685,0,0,1,.685-.757A.849.849,0,0,1,231.754,207.927Z" transform="translate(-155.118 -194.367)" fill="#fff"/>
      <path id="Path_65174" data-name="Path 65174" d="M233.974,207.927a.685.685,0,0,1-.7.757.828.828,0,0,1-.818-.757.675.675,0,0,1,.685-.757.849.849,0,0,1,.828.757Z" transform="translate(-155.068 -194.367)" fill="#fff"/>
      <path id="Path_65175" data-name="Path 65175" d="M236.184,207.927a.675.675,0,0,1-.685.757.849.849,0,0,1-.828-.757.685.685,0,0,1,.7-.757.828.828,0,0,1,.818.757Z" transform="translate(-155.018 -194.367)" fill="#fff"/>
      <path id="Path_65176" data-name="Path 65176" d="M189.852,281.433h-26.23L156.78,203.11H183Z" transform="translate(-156.78 -194.459)" fill="#ba6dd7"/>
      <path id="Path_65177" data-name="Path 65177" d="M189.852,281.433h-26.23L156.78,203.11H183Z" transform="translate(-156.78 -194.459)" opacity="0.3"/>
      <path id="Path_65178" data-name="Path 65178" d="M192.372,281.433h-26.23L159.29,203.11h26.23Z" transform="translate(-156.723 -194.459)" fill="#ba6dd7"/>
      <path id="Path_65179" data-name="Path 65179" d="M173.143,209a9,9,0,0,0-9.112,9.981,11.126,11.126,0,0,0,10.86,9.981,9,9,0,0,0,9.1-9.981A11.106,11.106,0,0,0,173.143,209Z" transform="translate(-156.617 -194.325)" opacity="0.5"/>
      <path id="Path_65180" data-name="Path 65180" d="M171.15,219.483a3.15,3.15,0,0,0,3.068,2.843,2.557,2.557,0,0,0,2.587-2.843,3.17,3.17,0,0,0-3.068-2.833,2.557,2.557,0,0,0-2.587,2.833Z" transform="translate(-156.455 -194.152)" fill="#ba6dd7"/>
      <path id="Path_65181" data-name="Path 65181" d="M170.771,237.908a5.42,5.42,0,0,0,5.3,4.868,4.387,4.387,0,0,0,4.438-4.868,5.43,5.43,0,0,0-5.3-4.878h0a4.4,4.4,0,0,0-4.438,4.878Z" transform="translate(-156.464 -193.782)" opacity="0.5"/>
      <path id="Path_65182" data-name="Path 65182" d="M172.461,250.093a4.673,4.673,0,0,0,4.571,4.213,3.794,3.794,0,0,0,3.845-4.213,4.694,4.694,0,0,0-4.581-4.213h0a3.794,3.794,0,0,0-3.835,4.213Z" transform="translate(-156.426 -193.491)" opacity="0.5"/>
      <path id="Path_65183" data-name="Path 65183" d="M174.06,261.3a3.958,3.958,0,0,0,3.866,3.548,3.191,3.191,0,0,0,3.231-3.548,3.937,3.937,0,0,0-3.855-3.549h0a3.2,3.2,0,0,0-3.242,3.548Z" transform="translate(-156.389 -193.223)" opacity="0.5"/>
      <path id="Path_65184" data-name="Path 65184" d="M175.49,270.584a3.221,3.221,0,0,0,3.15,2.884,2.6,2.6,0,0,0,2.638-2.884,3.211,3.211,0,0,0-3.15-2.894h0a2.608,2.608,0,0,0-2.638,2.894Z" transform="translate(-156.357 -192.998)" opacity="0.5"/>
      <path id="Path_65185" data-name="Path 65185" d="M320.4,281.333h-26.23L287.32,203.01h26.23Z" transform="translate(-153.827 -194.461)" fill="#ba6dd7"/>
      <path id="Path_65186" data-name="Path 65186" d="M320.4,281.333h-26.23L287.32,203.01h26.23Z" transform="translate(-153.827 -194.461)" opacity="0.3"/>
      <path id="Path_65187" data-name="Path 65187" d="M322.922,281.333h-26.23L289.84,203.01h26.23Z" transform="translate(-153.77 -194.461)" fill="#ba6dd7"/>
      <path id="Path_65188" data-name="Path 65188" d="M303.693,208.9a9,9,0,0,0-9.112,9.981,11.126,11.126,0,0,0,10.86,9.981,9,9,0,0,0,9.1-9.981A11.106,11.106,0,0,0,303.693,208.9Z" transform="translate(-153.664 -194.328)" opacity="0.5"/>
      <path id="Path_65189" data-name="Path 65189" d="M301.7,219.393a3.15,3.15,0,0,0,3.068,2.833,2.557,2.557,0,0,0,2.587-2.833,3.17,3.17,0,0,0-3.068-2.843,2.557,2.557,0,0,0-2.587,2.843Z" transform="translate(-153.502 -194.155)" fill="#ba6dd7"/>
      <path id="Path_65190" data-name="Path 65190" d="M301.321,237.808a5.42,5.42,0,0,0,5.3,4.868,4.387,4.387,0,0,0,4.438-4.868,5.42,5.42,0,0,0-5.3-4.868h0a4.387,4.387,0,0,0-4.438,4.868Z" transform="translate(-153.511 -193.784)" opacity="0.5"/>
      <path id="Path_65191" data-name="Path 65191" d="M303,249.983a4.673,4.673,0,0,0,4.571,4.213,3.794,3.794,0,0,0,3.845-4.213,4.684,4.684,0,0,0-4.581-4.2h0a3.784,3.784,0,0,0-3.835,4.2Z" transform="translate(-153.473 -193.493)" opacity="0.5"/>
      <path id="Path_65192" data-name="Path 65192" d="M304.61,261.2a3.958,3.958,0,0,0,3.865,3.549,3.191,3.191,0,0,0,3.232-3.549,3.937,3.937,0,0,0-3.855-3.548h0a3.2,3.2,0,0,0-3.242,3.548Z" transform="translate(-153.436 -193.225)" opacity="0.5"/>
      <path id="Path_65193" data-name="Path 65193" d="M306,270.484a3.231,3.231,0,0,0,3.15,2.894,2.608,2.608,0,0,0,2.638-2.894,3.221,3.221,0,0,0-3.15-2.894h0A2.618,2.618,0,0,0,306,270.484Z" transform="translate(-153.405 -193)" opacity="0.5"/>
    </g>
    <g id="freepik--video-files--inject-127" transform="translate(109.942 73.241)">
      <path id="Path_65194" data-name="Path 65194" d="M115.386,182.142l-4.776-79.151v-.307a3.8,3.8,0,0,1,3.835-3.763L325.3,98.44a4.4,4.4,0,0,1,4.326,4.09l4.776,79.151V182a3.794,3.794,0,0,1-3.835,3.753l-210.865.481A4.4,4.4,0,0,1,115.386,182.142Z" transform="translate(-107.44 -72.343)" fill="#fff"/>
      <path id="Path_65195" data-name="Path 65195" d="M193.121,99.313h-57.88l-.041-.44,57.87-.143Z" transform="translate(-106.884 -72.336)" fill="#fff"/>
      <path id="Path_65196" data-name="Path 65196" d="M334.4,182.189a3.8,3.8,0,0,1-3.835,3.753l-210.865.481a4.387,4.387,0,0,1-4.315-4.09l-4.776-79.151v-.317a3.814,3.814,0,0,1,3.835-3.763h16.209l-.327-3.773A5.6,5.6,0,0,1,136,89.11h45.435a6.913,6.913,0,0,1,6.76,6.218l.327,3.63,136.786-.307a4.418,4.418,0,0,1,4.316,4.09l4.776,79.141C334.4,181.985,334.4,182.056,334.4,182.189Z" transform="translate(-107.44 -72.554)" fill="#fff"/>
      <path id="Path_65197" data-name="Path 65197" d="M181.5,89.17a6.913,6.913,0,0,1,6.76,6.218l.327,3.63,136.786-.307a4.418,4.418,0,0,1,4.315,4.09l4.776,79.141v.327a3.794,3.794,0,0,1-3.794,3.753h0L119.8,186.5a4.387,4.387,0,0,1-4.315-4.09l-4.776-79.151v-.317a3.814,3.814,0,0,1,3.814-3.763h16.209l-.327-3.773a5.6,5.6,0,0,1,5.676-6.218h45.435m0-3.129H136.062a8.733,8.733,0,0,0-8.795,9.623v.378h-12.8a6.954,6.954,0,0,0-6.954,6.862v.531l4.776,79.161a7.5,7.5,0,0,0,7.4,7l210.916-.481a6.944,6.944,0,0,0,6.954-6.852v-.583l-4.776-79.11a7.516,7.516,0,0,0-7.394-7.015h-.061l-133.964.3-.072-.767A9.981,9.981,0,0,0,181.5,86Z" transform="translate(-107.51 -72.624)" fill="#ba6dd7"/>
      <rect id="Rectangle_14123" data-name="Rectangle 14123" width="46.836" height="58.893" transform="translate(14.531 9.05)" fill="#ba6dd7"/>
      <g id="Group_1840" data-name="Group 1840" transform="translate(14.531 9.05)" opacity="0.2">
        <path id="Path_65198" data-name="Path 65198" d="M127.283,81.77H121.72v45.681h1.524v-3.324h4.09v3.324h1.524V81.77Zm-4.09,24.543V99.666h4.09v6.647Zm4.09,1.513v6.647h-4.09v-6.647Zm-4.09-9.684V91.5h4.09v6.647Zm0-8.181V83.314h4.09v6.647Zm0,32.724v-6.647h4.09v6.647Z" transform="translate(-121.72 -81.77)"/>
      </g>
      <g id="Group_1841" data-name="Group 1841" transform="translate(54.26 9.05)" opacity="0.2">
        <path id="Path_65199" data-name="Path 65199" d="M166.123,81.77H160.57v45.681h1.524v-3.324h4.029v3.324h1.524V81.77Zm-4.029,24.543V99.666h4.029v6.647Zm4.029,1.513v6.647h-3.988v-6.647Zm-4.029-9.684V91.5h4.029v6.647Zm0-8.181V83.314h4.029v6.647Zm0,32.724v-6.647h4.029v6.647Z" transform="translate(-160.57 -81.77)"/>
      </g>
      <path id="Path_65200" data-name="Path 65200" d="M161.333,127.389l-32.683.061V81.77h32.683Z" transform="translate(-107.032 -72.72)" fill="#fff" opacity="0.2"/>
      <path id="Path_65201" data-name="Path 65201" d="M158.449,104.989A13.529,13.529,0,1,1,144.93,91.47a13.529,13.529,0,0,1,13.519,13.519Z" transform="translate(-106.97 -72.5)" fill="#fff" opacity="0.2"/>
      <path id="Path_65202" data-name="Path 65202" d="M141.07,97.78l11.228,7.813-11.228,7.823Z" transform="translate(-106.751 -72.358)" fill="#fff"/>
      <path id="Path_65203" data-name="Path 65203" d="M152.3,105.593l-.859.593-10.38-7.22v-1.2Z" transform="translate(-106.751 -72.358)" fill="#ba6dd7"/>
      <path id="Path_65204" data-name="Path 65204" d="M139.4,137.032v-4.673l-2.291,3.855h-.818l-2.25-3.753v4.571H132.35V129.24h1.483l2.925,4.847,2.863-4.847H141.1v7.792Z" transform="translate(-106.948 -71.646)" fill="#fff"/>
      <path id="Path_65205" data-name="Path 65205" d="M145.533,133.975l-1.023,1.094v1.963H142.7V129.24h1.79v3.641l3.446-3.641h2.045l-3.231,3.477,3.426,4.315h-2.107Z" transform="translate(-106.714 -71.646)" fill="#fff"/>
      <path id="Path_65206" data-name="Path 65206" d="M157.828,129.24l-3.375,7.792h-1.779l-3.364-7.792h1.943l2.372,5.573,2.4-5.573Z" transform="translate(-106.564 -71.646)" fill="#fff"/>
      <rect id="Rectangle_14124" data-name="Rectangle 14124" width="46.836" height="58.893" transform="translate(65.591 22.17)" fill="#ba6dd7"/>
      <g id="Group_1842" data-name="Group 1842" transform="translate(65.591 22.17)" opacity="0.2">
        <path id="Path_65207" data-name="Path 65207" d="M177.213,94.6H171.65v45.681h1.524v-3.344h4.09v3.324h1.524V94.6Zm-4.09,24.543V112.5h4.09v6.647Zm4.09,1.524v6.647h-4.09v-6.647Zm-4.09-9.694v-6.647h4.09v6.647Zm0-8.181V96.144h4.09v6.647Zm0,32.663v-6.7h4.09V135.4Z" transform="translate(-171.65 -94.6)"/>
      </g>
      <g id="Group_1843" data-name="Group 1843" transform="translate(105.391 22.17)" opacity="0.2">
        <path id="Path_65208" data-name="Path 65208" d="M216.123,94.6H210.57v45.681h1.462v-3.344h4.09v3.324h1.524V94.6Zm-4.029,24.543V112.5h4.029v6.647Zm4.029,1.524v6.647h-4.09v-6.647Zm-4.09-9.735v-6.647h4.09v6.647Zm0-8.181V96.1h4.09v6.647Zm0,32.663v-6.657h4.09V135.4Z" transform="translate(-210.57 -94.6)"/>
      </g>
      <path id="Path_65209" data-name="Path 65209" d="M211.263,140.229l-32.683.051V94.6h32.683Z" transform="translate(-105.902 -72.43)" fill="#fff" opacity="0.2"/>
      <path id="Path_65210" data-name="Path 65210" d="M208.379,117.829A13.529,13.529,0,1,1,194.859,104.3a13.529,13.529,0,0,1,13.519,13.529Z" transform="translate(-105.84 -72.21)" fill="#fff" opacity="0.2"/>
      <path id="Path_65211" data-name="Path 65211" d="M191,110.61l11.228,7.823L191,126.246Z" transform="translate(-105.621 -72.067)" fill="#fff"/>
      <path id="Path_65212" data-name="Path 65212" d="M202.228,118.423l-.849.593L191,111.8V110.61Z" transform="translate(-105.621 -72.067)" fill="#ba6dd7"/>
      <path id="Path_65213" data-name="Path 65213" d="M190.066,148.206h-3.62l-.685,1.667H183.91l3.477-7.792h1.779l3.487,7.792h-1.892Zm-.562-1.37-1.237-2.986-1.2,2.986Z" transform="translate(-105.782 -71.355)" fill="#fff"/>
      <path id="Path_65214" data-name="Path 65214" d="M200.348,142.08l-3.375,7.792h-1.779l-3.364-7.792h1.953l2.362,5.563,2.413-5.563Z" transform="translate(-105.602 -71.355)" fill="#fff"/>
      <path id="Path_65215" data-name="Path 65215" d="M200.79,142.08h1.8v7.792h-1.8Z" transform="translate(-105.4 -71.355)" fill="#fff"/>
      <rect id="Rectangle_14125" data-name="Rectangle 14125" width="46.836" height="58.893" transform="translate(116.436 0)" fill="#ba6dd7"/>
      <g id="Group_1844" data-name="Group 1844" transform="translate(116.436 0)" opacity="0.2">
        <path id="Path_65216" data-name="Path 65216" d="M226.923,72.92H221.37V118.6h1.524v-3.324h4.029V118.6h1.524V72.92Zm-4.029,24.543V90.816h4.029v6.647Zm4.029,1.513v6.647h-4.029V98.976Zm-4.029-9.684V82.645h4.029v6.647Zm0-8.181V74.433h4.029v6.647Zm0,32.673v-6.647h4.029v6.647Z" transform="translate(-221.37 -72.92)"/>
      </g>
      <g id="Group_1845" data-name="Group 1845" transform="translate(156.195 0)" opacity="0.2">
        <path id="Path_65217" data-name="Path 65217" d="M265.8,72.92H260.25V118.6h1.524v-3.324H265.8V118.6h1.524V72.92Zm-4.029,24.543V90.816H265.8v6.647Zm4.029,1.513v6.647h-4.029V98.976Zm-4.029-9.684V82.645H265.8v6.647Zm0-8.181V74.433H265.8v6.647Zm0,32.673v-6.647H265.8v6.647Z" transform="translate(-260.25 -72.92)"/>
      </g>
      <path id="Path_65218" data-name="Path 65218" d="M260.973,118.539l-32.683.061V72.92h32.683Z" transform="translate(-104.778 -72.92)" fill="#fff" opacity="0.2"/>
      <path id="Path_65219" data-name="Path 65219" d="M258.088,96.139A13.519,13.519,0,1,1,244.569,82.62,13.519,13.519,0,0,1,258.088,96.139Z" transform="translate(-104.715 -72.701)" fill="#fff" opacity="0.2"/>
      <path id="Path_65220" data-name="Path 65220" d="M240.71,88.93l11.239,7.813-11.239,7.823Z" transform="translate(-104.497 -72.558)" fill="#fff"/>
      <path id="Path_65221" data-name="Path 65221" d="M251.949,96.743l-.859.593-10.38-7.22V88.93Z" transform="translate(-104.497 -72.558)" fill="#ba6dd7"/>
      <path id="Path_65222" data-name="Path 65222" d="M239.036,128.172v-4.684l-2.291,3.855h-.808l-2.291-3.753v4.581H232V120.4h1.493l2.914,4.837,2.874-4.837h1.483v7.792Z" transform="translate(-104.694 -71.846)" fill="#fff"/>
      <path id="Path_65223" data-name="Path 65223" d="M249.151,123.222c0,1.738-1.309,2.812-3.385,2.812H244.14v2.137h-1.8V120.4h3.375C247.791,120.4,249.151,121.474,249.151,123.222Zm-1.83,0c0-.859-.552-1.36-1.657-1.36H244.14v2.71h1.473c1.1,0,1.657-.491,1.657-1.35Z" transform="translate(-104.46 -71.846)" fill="#fff"/>
      <path id="Path_65224" data-name="Path 65224" d="M256.63,126.556h-1.268v1.616H253.6v-1.636H249.41v-1.217l3.671-4.919h1.892l-3.405,4.7h2.045v-1.462h1.7V125.1h1.268Z" transform="translate(-104.3 -71.846)" fill="#fff"/>
      <rect id="Rectangle_14126" data-name="Rectangle 14126" width="46.836" height="58.893" transform="translate(167.148 10.114)" fill="#ba6dd7"/>
      <g id="Group_1846" data-name="Group 1846" transform="translate(167.189 10.114)" opacity="0.2">
        <path id="Path_65225" data-name="Path 65225" d="M276.522,82.81H271v45.681h1.524v-3.313h4.039v3.313h1.524V82.81Zm-4.039,24.543v-6.647h4.039v6.647Zm4.039,1.524v6.647h-4.039v-6.647Zm-4.039-9.694V92.535h4.039v6.647Zm0-8.181V84.334h4.039v6.647Zm0,32.724v-6.647h4.039v6.647Z" transform="translate(-271 -82.81)"/>
      </g>
      <g id="Group_1847" data-name="Group 1847" transform="translate(206.917 10.114)" opacity="0.2">
        <path id="Path_65226" data-name="Path 65226" d="M315.4,82.81H309.85v45.681h1.524v-3.313H315.4v3.313h1.524V82.81Zm-4.029,24.543v-6.647H315.4v6.647Zm4.029,1.524v6.647h-4.029v-6.647Zm-4.029-9.694V92.535H315.4v6.647Zm0-8.181V84.334H315.4v6.647Zm0,32.724v-6.647H315.4v6.647Z" transform="translate(-309.85 -82.81)"/>
      </g>
      <path id="Path_65227" data-name="Path 65227" d="M310.573,128.439l-32.683.051V82.81h32.683Z" transform="translate(-103.656 -72.696)" fill="#fff" opacity="0.2"/>
      <circle id="Ellipse_1333" data-name="Ellipse 1333" cx="13.519" cy="13.519" r="13.519" transform="translate(177.057 20.043)" fill="#fff" opacity="0.2"/>
      <path id="Path_65228" data-name="Path 65228" d="M290.31,98.82l11.228,7.823-11.228,7.813Z" transform="translate(-103.375 -72.334)" fill="#fff"/>
      <path id="Path_65229" data-name="Path 65229" d="M301.548,106.643l-.859.593-10.369-7.22V98.83Z" transform="translate(-103.374 -72.334)" fill="#ba6dd7"/>
      <path id="Path_65230" data-name="Path 65230" d="M288.637,138.082v-4.673l-2.291,3.855h-.818l-2.28-3.753v4.571h-1.7V130.29h1.483l2.914,4.847,2.874-4.847H290.3v7.792Z" transform="translate(-103.573 -71.622)" fill="#fff"/>
      <path id="Path_65231" data-name="Path 65231" d="M291.46,134.2a4.264,4.264,0,1,1,4.254,4.029,4.029,4.029,0,0,1-4.254-4.029Zm6.7,0a2.444,2.444,0,1,0-2.444,2.5,2.373,2.373,0,0,0,2.434-2.5Z" transform="translate(-103.349 -71.635)" fill="#fff"/>
      <path id="Path_65232" data-name="Path 65232" d="M308.378,130.29,305,138.082h-1.779l-3.354-7.792h1.943l2.372,5.563,2.4-5.563Z" transform="translate(-103.158 -71.622)" fill="#fff"/>
      <path id="Path_65233" data-name="Path 65233" d="M233.889,178.537H218.672a5.982,5.982,0,0,1-5.829-5.359l-.113-1.36a4.837,4.837,0,0,1,4.888-5.359h15.217Z" transform="translate(-105.13 -70.804)" fill="#ba6dd7"/>
      <path id="Path_65234" data-name="Path 65234" d="M242.648,177.576,233.9,173.24l-.215-2.454,7.987-4.326Z" transform="translate(-104.655 -70.804)" fill="#ba6dd7"/>
      <path id="Path_65235" data-name="Path 65235" d="M243.627,177.576h-1.156L241.5,166.46h1.156Z" transform="translate(-104.479 -70.804)" fill="#ba6dd7"/>
      <path id="Path_65236" data-name="Path 65236" d="M222.537,161.483a3.794,3.794,0,0,1-3.845,4.2,4.673,4.673,0,0,1-4.571-4.2,3.794,3.794,0,0,1,3.835-4.213,4.684,4.684,0,0,1,4.581,4.213Z" transform="translate(-105.099 -71.012)" fill="#ba6dd7"/>
      <path id="Path_65237" data-name="Path 65237" d="M230.777,161.483a3.8,3.8,0,0,1-3.845,4.2,4.684,4.684,0,0,1-4.581-4.2,3.794,3.794,0,0,1,3.845-4.213,4.694,4.694,0,0,1,4.581,4.213Z" transform="translate(-104.913 -71.012)" fill="#ba6dd7"/>
    </g>
    <g id="freepik--Character--inject-127" transform="translate(222.619 185.255)">
      <g id="freepik--character--inject-127-2" data-name="freepik--character--inject-127" transform="translate(80.934)">
        <path id="Path_65238" data-name="Path 65238" d="M301.793,203.57a22.763,22.763,0,0,1-2.4,5.594,3.487,3.487,0,0,0,2.955.174Z" transform="translate(-296.78 -181.979)" fill="#a02724"/>
        <path id="Path_65239" data-name="Path 65239" d="M324.191,209.37l-4.857,5.113-6.647,6.923a7.864,7.864,0,0,1,1.156,2.649c.593,2.045,1.1,3.589-3.4,5.614a2.72,2.72,0,0,0-1.687,2.393c0,1.278,1.023,2.669,5.461,2.751a20.135,20.135,0,0,0,11.934-3.978c1.7-1.207,1.534-2.3.47-4.09C323.5,221.805,323.578,214.861,324.191,209.37Z" transform="translate(-296.568 -181.847)" fill="#ff8b7b"/>
        <path id="Path_65240" data-name="Path 65240" d="M300.2,203.266c-.061.685.184,1.268.542,1.288s.685-.5.736-1.186-.184-1.258-.542-1.288S300.251,202.581,300.2,203.266Z" transform="translate(-296.762 -182.012)" fill="#263238"/>
        <path id="Path_65241" data-name="Path 65241" d="M300.79,199.5a4.581,4.581,0,0,1,4.09,1.6" transform="translate(-296.749 -182.071)" fill="none" stroke="#263238" stroke-linecap="round" stroke-linejoin="round" stroke-width="1"/>
        <path id="Path_65242" data-name="Path 65242" d="M301.712,212.853a12.394,12.394,0,0,0,7.261,8.181,11.321,11.321,0,0,0,3.753.849,10.584,10.584,0,0,0,8.4-3.416c4.223-4.489,3.947-9.551,4.223-18.162a11.985,11.985,0,0,0-16.587-11.545C300.423,192.329,299.625,205.143,301.712,212.853Z" transform="translate(-296.75 -182.335)" fill="#ff8b7b"/>
        <path id="Path_65243" data-name="Path 65243" d="M308.79,220.358a11.321,11.321,0,0,0,3.753.849l.143-.061-.818-1.6S311.367,220.91,308.79,220.358Z" transform="translate(-296.568 -181.617)" opacity="0.2"/>
        <path id="Path_65244" data-name="Path 65244" d="M328.869,206.042c-.92,3.068-2.178,6.289-4.53,8.518-.869.828-8.375,1.6-8.375,1.6-.358-2.536-5.011-10.7-7.046-13.294-.286,1.268-.757,6.739-1.186,7.946-.849,0-2.188-1.309-2.188-1.309a20.288,20.288,0,0,0,1.023-11.136l-.3-1.544c0,.327-4.96,2.659-7.373-1.851-9.009-16.863,14.1-13.867,20.514-7.291a6.35,6.35,0,0,1,6.535.818,10.421,10.421,0,0,1,3.589,5.788,22.232,22.232,0,0,1-.665,11.76Z" transform="translate(-296.838 -182.456)" fill="#263238"/>
      </g>
      <path id="Path_65245" data-name="Path 65245" d="M321.567,183.85a2.874,2.874,0,0,0-2.771,1.861c-.256.665-.511,2.27.235,2.608a24.154,24.154,0,0,1,2.536-4.469Z" transform="translate(-215.413 -182.425)" fill="#263238"/>
      <path id="Path_65246" data-name="Path 65246" d="M314.437,204.651a7.905,7.905,0,0,1-3.068,4.745c-2.045,1.452-4.09-.614-4.029-3.068,0-2.188,1.462-5.226,3.753-5.716S314.907,202.3,314.437,204.651Z" transform="translate(-215.666 -182.047)" fill="#ff8b7b"/>
      <path id="Path_65247" data-name="Path 65247" d="M274.825,399.882,266.47,397.4l2.536-19.737,10.277,3.661Z" transform="translate(-216.591 -178.04)" fill="#ff8b7b"/>
      <path id="Path_65248" data-name="Path 65248" d="M280.406,375.949l-10.85-4.039L267.93,386.1l9.623,2.7Z" transform="translate(-216.558 -178.17)" opacity="0.2"/>
      <path id="Path_65249" data-name="Path 65249" d="M266.156,395.582l9.521,2.577a.736.736,0,0,1,.491.859l-1.442,9.06a1.606,1.606,0,0,1-1.871,1.381c-3.293-.961-4.837-1.616-9.02-2.751-2.577-.7-8.467-2.372-12.067-3.068s-2.874-4.878-1.288-4.98c7.158-.45,11.249-1.3,14.081-2.884A2.137,2.137,0,0,1,266.156,395.582Z" transform="translate(-216.982 -177.636)" fill="#263238"/>
      <path id="Path_65250" data-name="Path 65250" d="M261.467,396.954a10.8,10.8,0,0,0,2.291.225.164.164,0,0,0,.174-.112.2.2,0,0,0,0-.215c-.225-.256-2.25-2.465-3.375-2.311a.726.726,0,0,0-.593.44,1.145,1.145,0,0,0,0,1.156,2.424,2.424,0,0,0,1.5.818Zm1.871-.184c-1.6-.112-2.71-.368-3.007-.869a.685.685,0,0,1,.051-.726.358.358,0,0,1,.276-.235c.593-.092,1.841.972,2.679,1.831Z" transform="translate(-216.742 -177.659)" fill="#ba6dd7"/>
      <path id="Path_65251" data-name="Path 65251" d="M263.71,397.212h.092a.2.2,0,0,0,.143-.143c0-.1.808-2.5.143-3.528a1.023,1.023,0,0,0-.767-.481.767.767,0,0,0-.859.43c-.419.879.419,2.955,1.145,3.661a.143.143,0,0,0,.1.061Zm-.337-3.722a.624.624,0,0,1,.378.286,4.449,4.449,0,0,1-.092,2.822,4.091,4.091,0,0,1-.828-2.925c0-.112.143-.235.44-.194Z" transform="translate(-216.684 -177.692)" fill="#ba6dd7"/>
      <path id="Path_65252" data-name="Path 65252" d="M317.109,294.79s-46.744-.153-48.258,25.658c-1.483,18.141-2.424,25.566-1.524,65.1l12.445.685s12.66-42.776,10.952-59.762c13.949,0,45.875,1.217,50.507-11.361a55.855,55.855,0,0,0,3.313-19.931Z" transform="translate(-216.58 -179.915)" fill="#ba6dd7"/>
      <g id="Group_1848" data-name="Group 1848" transform="translate(50.396 114.875)" opacity="0.3">
        <path id="Path_65253" data-name="Path 65253" d="M317.109,294.79s-46.744-.153-48.258,25.658c-1.483,18.141-2.424,25.566-1.524,65.1l12.445.685s12.66-42.776,10.952-59.762c13.949,0,45.875,1.217,50.507-11.361a55.855,55.855,0,0,0,3.313-19.931Z" transform="translate(-266.976 -294.79)"/>
      </g>
      <path id="Path_65254" data-name="Path 65254" d="M281.82,386.791l-16.26-2.782.266-7.2,16.832,3.743Z" transform="translate(-216.612 -178.06)" fill="#ba6dd7"/>
      <path id="Path_65255" data-name="Path 65255" d="M243.264,402.425l-7.874-3.733L240.9,379.58l9.6,5.174Z" transform="translate(-217.294 -177.997)" fill="#ff8b7b"/>
      <path id="Path_65256" data-name="Path 65256" d="M252.407,379.625l-10.093-5.645-3.784,13.785,9.1,4.131Z" transform="translate(-217.223 -178.124)" opacity="0.2"/>
      <path id="Path_65257" data-name="Path 65257" d="M235.31,396.8l9.009,4.009a.726.726,0,0,1,.358.91l-2.812,8.743a1.616,1.616,0,0,1-2.045,1.084c-3.068-1.462-4.54-2.342-8.5-4.09-2.444-1.084-8-3.641-11.464-4.837s-2.1-5.267-.511-5.113c7.107.654,11.249.43,14.317-.7a2.147,2.147,0,0,1,1.646-.01Z" transform="translate(-217.694 -177.611)" fill="#263238"/>
      <path id="Path_65258" data-name="Path 65258" d="M230.453,397.5a11.06,11.06,0,0,0,2.219.573.184.184,0,0,0,.2-.082.2.2,0,0,0,0-.215c-.174-.286-1.841-2.771-2.976-2.792a.716.716,0,0,0-.665.348,1.166,1.166,0,0,0-.184,1.135,2.372,2.372,0,0,0,1.4,1.033Zm1.871.112c-1.554-.358-2.618-.787-2.833-1.319a.726.726,0,0,1,.153-.716.409.409,0,0,1,.317-.194C230.565,395.389,231.629,396.616,232.324,397.608Z" transform="translate(-217.439 -177.648)" fill="#ba6dd7"/>
      <path id="Path_65259" data-name="Path 65259" d="M232.62,398.093h.092a.266.266,0,0,0,.174-.123c0-.1,1.176-2.342.675-3.456a1.023,1.023,0,0,0-.685-.593.777.777,0,0,0-.92.286c-.542.808,0,2.986.583,3.794a.184.184,0,0,0,.082.092Zm.235-3.733a.6.6,0,0,1,.337.337,4.479,4.479,0,0,1-.522,2.782,4.091,4.091,0,0,1-.378-3.068c0-.112.174-.2.47-.123Z" transform="translate(-217.377 -177.674)" fill="#ba6dd7"/>
      <path id="Path_65260" data-name="Path 65260" d="M303.056,294.8c-.327,0-52.062-5.042-55.528,24.379-5.491,36.017-8.948,66.378-8.948,66.378l10.891,5.4s18.98-38.44,18.693-62.544c15.165-4.356,54.4,2.955,59.046-9.613,3.794-10.288,1.738-24,1.738-24Z" transform="translate(-217.222 -179.922)" fill="#ba6dd7"/>
      <path id="Path_65261" data-name="Path 65261" d="M303.056,294.8c-.327,0-52.062-5.042-55.528,24.379-5.491,36.017-8.948,66.378-8.948,66.378l10.891,5.4s18.98-38.44,18.693-62.544c15.165-4.356,54.4,2.955,59.046-9.613,3.794-10.288,1.738-24,1.738-24Z" transform="translate(-217.222 -179.922)" opacity="0.3"/>
      <path id="Path_65262" data-name="Path 65262" d="M251.263,390.628l-14.613-6.575,1.176-5.982,15.411,5.318Z" transform="translate(-217.266 -178.031)" fill="#ba6dd7"/>
      <path id="Path_65263" data-name="Path 65263" d="M326.779,232.3c1.176,3.231,2.1,6.33,3.068,9.541s1.687,6.412,2.383,9.684,1.248,6.606,1.636,10.042a51.423,51.423,0,0,1,.153,10.789,21.883,21.883,0,0,1-1.483,6.136,14.072,14.072,0,0,1-1.943,3.354,10.922,10.922,0,0,1-1.565,1.585l-.46.378c-.245.174-.522.368-.787.522a7.528,7.528,0,0,1-1.381.6,10.024,10.024,0,0,1-2.178.491,12.745,12.745,0,0,1-1.769.1,24.538,24.538,0,0,1-3-.256,41.658,41.658,0,0,1-5.236-1.023,100.218,100.218,0,0,1-18.6-7.158l1.9-5.287c6.136,1.3,12.476,2.659,18.458,3.456,1.5.133,2.945.327,4.305.378a13.482,13.482,0,0,0,1.82-.061c.5,0,.941-.184.8-.194l-.3.112a1.705,1.705,0,0,0-.286.184h0l.1-.153a4.438,4.438,0,0,0,.368-.849,13.61,13.61,0,0,0,.552-3.262,42.539,42.539,0,0,0-.511-8.457c-.409-3.007-1.023-5.952-1.708-8.958s-1.452-6.013-2.311-9.02-1.79-6.033-2.71-8.876Z" transform="translate(-215.932 -181.329)" fill="#ff8b7b"/>
      <path id="Path_65264" data-name="Path 65264" d="M300.223,272.674l-6.2-4.244-3.9,6.77s7.342,3.845,9.122,2.045Z" transform="translate(-216.056 -180.511)" fill="#ff8b7b"/>
      <path id="Path_65265" data-name="Path 65265" d="M288.705,269.3l-3.4,4.459,4.9,1.391,3.9-6.77Z" transform="translate(-216.165 -180.512)" fill="#ff8b7b"/>
      <path id="Path_65266" data-name="Path 65266" d="M262.909,266.773l-9.081-1.023-2.608,9.981s10.38.092,12.016-2.884Z" transform="translate(-216.936 -180.572)" fill="#ff8b7b"/>
      <path id="Path_65267" data-name="Path 65267" d="M247.147,269.443l-1.554,3.825a1.749,1.749,0,0,0,1.606,2.413h4.152l2.608-9.981-5.931,2.771a1.82,1.82,0,0,0-.879.972Z" transform="translate(-217.066 -180.573)" fill="#ff8b7b"/>
      <path id="Path_65268" data-name="Path 65268" d="M340.8,230.377c-.747-1.974-4.193-3.947-6.32-3.947h-1.4a76.224,76.224,0,0,0-8.478.583,150.43,150.43,0,0,0-16.781,2.822,70.855,70.855,0,0,0-6.954,2.25h-.072a5.3,5.3,0,0,0-3.293,5.655c.869,6.35,2.546,19.266,3.548,32.121.787,10.032.46,19.992.716,26.844h42.1c1.452-8.232,1.217-15.411,1.34-30.27C345.3,257.5,343.846,238.5,340.8,230.377Z" transform="translate(-215.89 -181.461)" fill="#ba6dd7"/>
      <path id="Path_65269" data-name="Path 65269" d="M340.8,230.377c-.747-1.974-4.193-3.947-6.32-3.947h-1.4a76.224,76.224,0,0,0-8.478.583,150.43,150.43,0,0,0-16.781,2.822,70.855,70.855,0,0,0-6.954,2.25h-.072a5.3,5.3,0,0,0-3.293,5.655c.869,6.35,2.546,19.266,3.548,32.121.787,10.032.46,19.992.716,26.844h42.1c1.452-8.232,1.217-15.411,1.34-30.27C345.3,257.5,343.846,238.5,340.8,230.377Z" transform="translate(-215.89 -181.461)" fill="#fff" opacity="0.8"/>
      <path id="Path_65270" data-name="Path 65270" d="M305.285,232.438a6.616,6.616,0,0,1,3.845,8.58c-3.007,7.782-8.058,20.125-10.288,24.461-.849,1.544-1.7,3.068-2.659,4.632-.491.777-1.023,1.544-1.606,2.342-.327.409-.573.777-.951,1.2l-.542.624-.307.348a8.182,8.182,0,0,1-3.068,2.045,14.547,14.547,0,0,1-1.861.583,19.426,19.426,0,0,1-3.16.419,41,41,0,0,1-5.491,0,99.785,99.785,0,0,1-19.982-3.733l-.7-6.9c6.432.184,13.008.4,19.143.092,1.442-.082,2.884-.235,4.315-.46a10.863,10.863,0,0,0,1.7-.43,2.61,2.61,0,0,0,.511-.245c.051,0,0-.072-.256.123a1.677,1.677,0,0,0-.256.215l.092-.123.245-.327c.164-.194.348-.511.532-.767.358-.542.726-1.135,1.084-1.769.706-1.248,1.381-2.618,2.045-4.009,1.329-2.782,2.536-5.716,3.712-8.672.828-2.107,3.272-8.488,5.338-14.184a6.616,6.616,0,0,1,8.559-3.958Z" transform="translate(-216.771 -181.333)" fill="#ba6dd7"/>
      <path id="Path_65271" data-name="Path 65271" d="M300.1,259.439c.317,3.784.2,2.557.552,6.524,10.277-15.881,6.882-26.363,6.882-26.363Z" transform="translate(-215.83 -181.164)" opacity="0.2"/>
      <path id="Path_65272" data-name="Path 65272" d="M305.285,232.438a6.616,6.616,0,0,1,3.845,8.58c-3.007,7.782-8.058,20.125-10.288,24.461-.849,1.544-1.7,3.068-2.659,4.632-.491.777-1.023,1.544-1.606,2.342-.327.409-.573.777-.951,1.2l-.542.624-.307.348a8.182,8.182,0,0,1-3.068,2.045,14.547,14.547,0,0,1-1.861.583,19.426,19.426,0,0,1-3.16.419,41,41,0,0,1-5.491,0,99.785,99.785,0,0,1-19.982-3.733l-.7-6.9c6.432.184,13.008.4,19.143.092,1.442-.082,2.884-.235,4.315-.46a10.863,10.863,0,0,0,1.7-.43,2.61,2.61,0,0,0,.511-.245c.051,0,0-.072-.256.123a1.677,1.677,0,0,0-.256.215l.092-.123.245-.327c.164-.194.348-.511.532-.767.358-.542.726-1.135,1.084-1.769.706-1.248,1.381-2.618,2.045-4.009,1.329-2.782,2.536-5.716,3.712-8.672.828-2.107,3.272-8.488,5.338-14.184a6.616,6.616,0,0,1,8.559-3.958Z" transform="translate(-216.771 -181.333)" fill="#fff" opacity="0.8"/>
      <path id="Path_65273" data-name="Path 65273" d="M290.93,410.235a4.3,4.3,0,1,1-4.3-4.3A4.3,4.3,0,0,1,290.93,410.235Z" transform="translate(-216.232 -177.4)" fill="#263238"/>
      <path id="Path_65274" data-name="Path 65274" d="M352.39,410.235a4.3,4.3,0,1,0,4.3-4.3A4.3,4.3,0,0,0,352.39,410.235Z" transform="translate(-214.647 -177.4)" fill="#263238"/>
      <path id="Path_65275" data-name="Path 65275" d="M316,408.895a4.3,4.3,0,1,0,4.3-4.3,4.3,4.3,0,0,0-4.3,4.3Z" transform="translate(-215.471 -177.431)" fill="#263238"/>
      <path id="Path_65276" data-name="Path 65276" d="M367.755,404.659a2.117,2.117,0,0,1-2.117,1.687l-44.77-.614-41.928.941a2.058,2.058,0,0,1-.46-4.091l22.9-4.448a38.577,38.577,0,0,1,7.158-.675h24.6a38.55,38.55,0,0,1,7.158.675l25.729,4.091a2.045,2.045,0,0,1,1.728,2.434Z" transform="translate(-216.361 -177.592)" fill="#263238"/>
      <rect id="Rectangle_14127" data-name="Rectangle 14127" width="15.227" height="43.83" transform="translate(96.889 182.481)" fill="#263238"/>
      <rect id="Rectangle_14128" data-name="Rectangle 14128" width="10.86" height="27.989" transform="translate(99.077 154.716)" fill="#263238"/>
      <path id="Path_65277" data-name="Path 65277" d="M314.58,338.935l10.86,2.741V333.75H314.58Z" transform="translate(-215.503 -179.034)" opacity="0.2"/>
      <rect id="Rectangle_14129" data-name="Rectangle 14129" width="5.512" height="23.541" transform="translate(58.96 114.722)" fill="#263238"/>
      <rect id="Rectangle_14130" data-name="Rectangle 14130" width="5.512" height="23.541" transform="translate(58.96 114.722)" fill="#263238"/>
      <path id="Path_65278" data-name="Path 65278" d="M316.707,243a12.122,12.122,0,0,0-.153,1.933v90.819H307.79V244.974a1.515,1.515,0,0,1,0-.215Z" transform="translate(-215.656 -181.087)" fill="#263238"/>
      <path id="Path_65279" data-name="Path 65279" d="M366.442,333.64v.1H365A11.777,11.777,0,0,0,366.442,333.64Z" transform="translate(-214.362 -179.036)" fill="#263238"/>
      <path id="Path_65280" data-name="Path 65280" d="M376.524,243.551l-.644-10.789a12.885,12.885,0,0,0-3.559-8.13l-6.882-7.158L361.9,199.5a5.962,5.962,0,0,0-5.849-4.827H340.191a5.962,5.962,0,0,0-5.645,4.091L327.909,218.1l-12.66,7.792a12.9,12.9,0,0,0-5.993,9.071l-1.636,11.014h.184l8.907-1.718a12.122,12.122,0,0,0-.153,1.933v90.819H366.3a11.778,11.778,0,0,0,1.483-.1h0a10.226,10.226,0,0,0,8.754-10.144V245.269a14.317,14.317,0,0,0-.112-1.749ZM334.5,236.7l-15.339,1.462-.675.061,1.646-7.015,10.277-4.96,3.416-1.646.675,1.646.112.276.624,1.513Zm30.382.174h0l-1.933-.481c-.072-.6-.153-1.217-.225-1.82-.43-3.364-.818-6.535-.818-6.535l.153-1.1.317-2.332,7.312,6.606.1,1.565.378,5.451Z" transform="translate(-215.66 -182.18)" fill="#263238"/>
      <path id="Path_65281" data-name="Path 65281" d="M317.8,314.39v19.788H260.018a7.087,7.087,0,0,1-6.136-10.717,18.407,18.407,0,0,1,15.871-9.071Z" transform="translate(-216.898 -179.472)" fill="#263238"/>
      <path id="Path_65282" data-name="Path 65282" d="M297.354,301.953a56.848,56.848,0,0,0-37.51,0,5.328,5.328,0,0,1-6.6-2.516h0c-1.125-2.383.378-5.461,3.446-6.535a66.3,66.3,0,0,1,43.789,0c3.068,1.023,4.571,4.152,3.446,6.535h0A5.338,5.338,0,0,1,297.354,301.953Z" transform="translate(-216.899 -180.042)" fill="#263238"/>
      <path id="Path_65283" data-name="Path 65283" d="M297.354,301.953a56.848,56.848,0,0,0-37.51,0,5.328,5.328,0,0,1-6.6-2.516h0c-1.125-2.383.378-5.461,3.446-6.535a66.3,66.3,0,0,1,43.789,0c3.068,1.023,4.571,4.152,3.446,6.535h0A5.338,5.338,0,0,1,297.354,301.953Z" transform="translate(-216.899 -180.042)" fill="#263238" opacity="0.4"/>
    </g>
  </g>
</svg>
